<?xml version="1.0" encoding="UTF-8" standalone="no"?><svg xmlns="http://www.w3.org/2000/svg" xmlns:xlink="http://www.w3.org/1999/xlink" contentScriptType="application/ecmascript" contentStyleType="text/css" height="563px" preserveAspectRatio="none" style="width:882px;height:563px;" version="1.1" viewBox="0 0 882 563" width="882px" zoomAndPan="magnify"><defs><filter height="300%" id="f14vluzwx3dhn" width="300%" x="-1" y="-1"><feGaussianBlur result="blurOut" stdDeviation="2.0"/><feColorMatrix in="blurOut" result="blurOut2" type="matrix" values="0 0 0 0 0 0 0 0 0 0 0 0 0 0 0 0 0 0 .4 0"/><feOffset dx="4.0" dy="4.0" in="blurOut2" result="blurOut3"/><feBlend in="SourceGraphic" in2="blurOut3" mode="normal"/></filter></defs><g><!--MD5=[a394c57f49026d46b17889b0f68dbffb]
cluster com.hack23.sonar.cloudformation.parser.cfnnag--><polygon fill="#FFFFFF" filter="url(#f14vluzwx3dhn)" points="16,6,407,6,414,28.2969,860,28.2969,860,535,16,535,16,6" style="stroke: #000000; stroke-width: 1.5;"/><line style="stroke: #000000; stroke-width: 1.5;" x1="16" x2="414" y1="28.2969" y2="28.2969"/><text fill="#000000" font-family="sans-serif" font-size="14" font-weight="bold" lengthAdjust="spacingAndGlyphs" textLength="385" x="20" y="20.9951">com.hack23.sonar.cloudformation.parser.cfnnag</text><!--MD5=[99eee0eebff4287e4e6e1a807aedfe17]
class com.hack23.sonar.cloudformation.parser.cfnnag.CfnNagReportReader--><a href="CfnNagReportReader.html" target="_top" title="CfnNagReportReader.html" xlink:actuate="onRequest" xlink:href="CfnNagReportReader.html" xlink:show="new" xlink:title="CfnNagReportReader.html" xlink:type="simple"><rect codeLine="3" fill="#FEFECE" filter="url(#f14vluzwx3dhn)" height="60.8047" id="com.hack23.sonar.cloudformation.parser.cfnnag.CfnNagReportReader" style="stroke: #A80036; stroke-width: 1.5;" width="253" x="590.5" y="47.5"/><ellipse cx="646.75" cy="63.5" fill="#ADD1B2" rx="11" ry="11" style="stroke: #A80036; stroke-width: 1.0;"/><path d="M649.7188,69.1406 Q649.1406,69.4375 648.5,69.5781 Q647.8594,69.7344 647.1563,69.7344 Q644.6563,69.7344 643.3281,68.0938 Q642.0156,66.4375 642.0156,63.3125 Q642.0156,60.1875 643.3281,58.5313 Q644.6563,56.875 647.1563,56.875 Q647.8594,56.875 648.5,57.0313 Q649.1563,57.1875 649.7188,57.4844 L649.7188,60.2031 Q649.0938,59.625 648.5,59.3594 Q647.9063,59.0781 647.2813,59.0781 Q645.9375,59.0781 645.25,60.1563 Q644.5625,61.2188 644.5625,63.3125 Q644.5625,65.4063 645.25,66.4844 Q645.9375,67.5469 647.2813,67.5469 Q647.9063,67.5469 648.5,67.2813 Q649.0938,67 649.7188,66.4219 L649.7188,69.1406 Z "/><text fill="#000000" font-family="sans-serif" font-size="12" lengthAdjust="spacingAndGlyphs" textLength="132" x="667.25" y="67.6543">CfnNagReportReader</text><line style="stroke: #A80036; stroke-width: 1.5;" x1="591.5" x2="842.5" y1="79.5" y2="79.5"/><line style="stroke: #A80036; stroke-width: 1.5;" x1="591.5" x2="842.5" y1="87.5" y2="87.5"/><ellipse cx="601.5" cy="98.5" fill="#84BE84" rx="3" ry="3" style="stroke: #038048; stroke-width: 1.0;"/><text fill="#000000" font-family="sans-serif" font-size="11" lengthAdjust="spacingAndGlyphs" textLength="227" x="610.5" y="101.7104">readReport(InputStream): CfnNagReport</text></a><!--MD5=[d6b9bfe4808c645492c9230d549a9be1]
class com.hack23.sonar.cloudformation.parser.cfnnag.CfnNagScanReport--><a href="CfnNagScanReport.html" target="_top" title="CfnNagScanReport.html" xlink:actuate="onRequest" xlink:href="CfnNagScanReport.html" xlink:show="new" xlink:title="CfnNagScanReport.html" xlink:type="simple"><rect codeLine="7" fill="#FEFECE" filter="url(#f14vluzwx3dhn)" height="73.6094" id="com.hack23.sonar.cloudformation.parser.cfnnag.CfnNagScanReport" style="stroke: #A80036; stroke-width: 1.5;" width="168" x="387" y="41"/><ellipse cx="410.1" cy="57" fill="#ADD1B2" rx="11" ry="11" style="stroke: #A80036; stroke-width: 1.0;"/><path d="M413.0688,62.6406 Q412.4906,62.9375 411.85,63.0781 Q411.2094,63.2344 410.5063,63.2344 Q408.0063,63.2344 406.6781,61.5938 Q405.3656,59.9375 405.3656,56.8125 Q405.3656,53.6875 406.6781,52.0313 Q408.0063,50.375 410.5063,50.375 Q411.2094,50.375 411.85,50.5313 Q412.5063,50.6875 413.0688,50.9844 L413.0688,53.7031 Q412.4438,53.125 411.85,52.8594 Q411.2563,52.5781 410.6313,52.5781 Q409.2875,52.5781 408.6,53.6563 Q407.9125,54.7188 407.9125,56.8125 Q407.9125,58.9063 408.6,59.9844 Q409.2875,61.0469 410.6313,61.0469 Q411.2563,61.0469 411.85,60.7813 Q412.4438,60.5 413.0688,59.9219 L413.0688,62.6406 Z "/><text fill="#000000" font-family="sans-serif" font-size="12" lengthAdjust="spacingAndGlyphs" textLength="118" x="425.9" y="61.1543">CfnNagScanReport</text><line style="stroke: #A80036; stroke-width: 1.5;" x1="388" x2="554" y1="73" y2="73"/><line style="stroke: #A80036; stroke-width: 1.5;" x1="388" x2="554" y1="81" y2="81"/><ellipse cx="398" cy="92" fill="#84BE84" rx="3" ry="3" style="stroke: #038048; stroke-width: 1.0;"/><text fill="#000000" font-family="sans-serif" font-size="11" lengthAdjust="spacingAndGlyphs" textLength="119" x="407" y="95.2104">getFilename(): String</text><ellipse cx="398" cy="104.8047" fill="#84BE84" rx="3" ry="3" style="stroke: #038048; stroke-width: 1.0;"/><text fill="#000000" font-family="sans-serif" font-size="11" lengthAdjust="spacingAndGlyphs" textLength="142" x="407" y="108.0151">setFilename(String): void</text></a><!--MD5=[400becff9e3e56c6aad437c7c6a5ee62]
class com.hack23.sonar.cloudformation.parser.cfnnag.CfnNagScanReportReader--><a href="CfnNagScanReportReader.html" target="_top" title="CfnNagScanReportReader.html" xlink:actuate="onRequest" xlink:href="CfnNagScanReportReader.html" xlink:show="new" xlink:title="CfnNagScanReportReader.html" xlink:type="simple"><rect codeLine="12" fill="#FEFECE" filter="url(#f14vluzwx3dhn)" height="60.8047" id="com.hack23.sonar.cloudformation.parser.cfnnag.CfnNagScanReportReader" style="stroke: #A80036; stroke-width: 1.5;" width="319" x="32.5" y="47.5"/><ellipse cx="106.25" cy="63.5" fill="#ADD1B2" rx="11" ry="11" style="stroke: #A80036; stroke-width: 1.0;"/><path d="M109.2188,69.1406 Q108.6406,69.4375 108,69.5781 Q107.3594,69.7344 106.6563,69.7344 Q104.1563,69.7344 102.8281,68.0938 Q101.5156,66.4375 101.5156,63.3125 Q101.5156,60.1875 102.8281,58.5313 Q104.1563,56.875 106.6563,56.875 Q107.3594,56.875 108,57.0313 Q108.6563,57.1875 109.2188,57.4844 L109.2188,60.2031 Q108.5938,59.625 108,59.3594 Q107.4063,59.0781 106.7813,59.0781 Q105.4375,59.0781 104.75,60.1563 Q104.0625,61.2188 104.0625,63.3125 Q104.0625,65.4063 104.75,66.4844 Q105.4375,67.5469 106.7813,67.5469 Q107.4063,67.5469 108,67.2813 Q108.5938,67 109.2188,66.4219 L109.2188,69.1406 Z "/><text fill="#000000" font-family="sans-serif" font-size="12" lengthAdjust="spacingAndGlyphs" textLength="163" x="126.75" y="67.6543">CfnNagScanReportReader</text><line style="stroke: #A80036; stroke-width: 1.5;" x1="33.5" x2="350.5" y1="79.5" y2="79.5"/><line style="stroke: #A80036; stroke-width: 1.5;" x1="33.5" x2="350.5" y1="87.5" y2="87.5"/><ellipse cx="43.5" cy="98.5" fill="#84BE84" rx="3" ry="3" style="stroke: #038048; stroke-width: 1.0;"/><text fill="#000000" font-family="sans-serif" font-size="11" lengthAdjust="spacingAndGlyphs" textLength="293" x="52.5" y="101.7104">readReport(InputStream): List&lt;CfnNagScanReport&gt;</text></a><!--MD5=[fb2fced99d84d1a2fceb0c984987dff5]
class com.hack23.sonar.cloudformation.parser.cfnnag.CfnNagViolation--><a href="CfnNagViolation.html" target="_top" title="CfnNagViolation.html" xlink:actuate="onRequest" xlink:href="CfnNagViolation.html" xlink:show="new" xlink:title="CfnNagViolation.html" xlink:type="simple"><rect codeLine="16" fill="#FEFECE" filter="url(#f14vluzwx3dhn)" height="176.0469" id="com.hack23.sonar.cloudformation.parser.cfnnag.CfnNagViolation" style="stroke: #A80036; stroke-width: 1.5;" width="274" x="334" y="343"/><ellipse cx="417.25" cy="359" fill="#ADD1B2" rx="11" ry="11" style="stroke: #A80036; stroke-width: 1.0;"/><path d="M420.2188,364.6406 Q419.6406,364.9375 419,365.0781 Q418.3594,365.2344 417.6563,365.2344 Q415.1563,365.2344 413.8281,363.5938 Q412.5156,361.9375 412.5156,358.8125 Q412.5156,355.6875 413.8281,354.0313 Q415.1563,352.375 417.6563,352.375 Q418.3594,352.375 419,352.5313 Q419.6563,352.6875 420.2188,352.9844 L420.2188,355.7031 Q419.5938,355.125 419,354.8594 Q418.4063,354.5781 417.7813,354.5781 Q416.4375,354.5781 415.75,355.6563 Q415.0625,356.7188 415.0625,358.8125 Q415.0625,360.9063 415.75,361.9844 Q416.4375,363.0469 417.7813,363.0469 Q418.4063,363.0469 419,362.7813 Q419.5938,362.5 420.2188,361.9219 L420.2188,364.6406 Z "/><text fill="#000000" font-family="sans-serif" font-size="12" lengthAdjust="spacingAndGlyphs" textLength="99" x="437.75" y="363.1543">CfnNagViolation</text><line style="stroke: #A80036; stroke-width: 1.5;" x1="335" x2="607" y1="375" y2="375"/><line style="stroke: #A80036; stroke-width: 1.5;" x1="335" x2="607" y1="383" y2="383"/><ellipse cx="345" cy="394" fill="#84BE84" rx="3" ry="3" style="stroke: #038048; stroke-width: 1.0;"/><text fill="#000000" font-family="sans-serif" font-size="11" lengthAdjust="spacingAndGlyphs" textLength="78" x="354" y="397.2104">getId(): String</text><ellipse cx="345" cy="406.8047" fill="#84BE84" rx="3" ry="3" style="stroke: #038048; stroke-width: 1.0;"/><text fill="#000000" font-family="sans-serif" font-size="11" lengthAdjust="spacingAndGlyphs" textLength="101" x="354" y="410.0151">setId(String): void</text><ellipse cx="345" cy="419.6094" fill="#84BE84" rx="3" ry="3" style="stroke: #038048; stroke-width: 1.0;"/><text fill="#000000" font-family="sans-serif" font-size="11" lengthAdjust="spacingAndGlyphs" textLength="95" x="354" y="422.8198">getType(): String</text><ellipse cx="345" cy="432.4141" fill="#84BE84" rx="3" ry="3" style="stroke: #038048; stroke-width: 1.0;"/><text fill="#000000" font-family="sans-serif" font-size="11" lengthAdjust="spacingAndGlyphs" textLength="118" x="354" y="435.6245">setType(String): void</text><ellipse cx="345" cy="445.2188" fill="#84BE84" rx="3" ry="3" style="stroke: #038048; stroke-width: 1.0;"/><text fill="#000000" font-family="sans-serif" font-size="11" lengthAdjust="spacingAndGlyphs" textLength="119" x="354" y="448.4292">getMessage(): String</text><ellipse cx="345" cy="458.0234" fill="#84BE84" rx="3" ry="3" style="stroke: #038048; stroke-width: 1.0;"/><text fill="#000000" font-family="sans-serif" font-size="11" lengthAdjust="spacingAndGlyphs" textLength="142" x="354" y="461.2339">setMessage(String): void</text><ellipse cx="345" cy="470.8281" fill="#84BE84" rx="3" ry="3" style="stroke: #038048; stroke-width: 1.0;"/><text fill="#000000" font-family="sans-serif" font-size="11" lengthAdjust="spacingAndGlyphs" textLength="225" x="354" y="474.0386">getLogical_resource_ids(): List&lt;String&gt;</text><ellipse cx="345" cy="483.6328" fill="#84BE84" rx="3" ry="3" style="stroke: #038048; stroke-width: 1.0;"/><text fill="#000000" font-family="sans-serif" font-size="11" lengthAdjust="spacingAndGlyphs" textLength="248" x="354" y="486.8433">setLogical_resource_ids(List&lt;String&gt;): void</text><ellipse cx="345" cy="496.4375" fill="#84BE84" rx="3" ry="3" style="stroke: #038048; stroke-width: 1.0;"/><text fill="#000000" font-family="sans-serif" font-size="11" lengthAdjust="spacingAndGlyphs" textLength="192" x="354" y="499.6479">getLine_numbers(): List&lt;Integer&gt;</text><ellipse cx="345" cy="509.2422" fill="#84BE84" rx="3" ry="3" style="stroke: #038048; stroke-width: 1.0;"/><text fill="#000000" font-family="sans-serif" font-size="11" lengthAdjust="spacingAndGlyphs" textLength="215" x="354" y="512.4526">setLine_numbers(List&lt;Integer&gt;): void</text></a><!--MD5=[a769b036b8853c2197ff21d6de87b02d]
class com.hack23.sonar.cloudformation.parser.cfnnag.CfnNagReport--><a href="CfnNagReport.html" target="_top" title="CfnNagReport.html" xlink:actuate="onRequest" xlink:href="CfnNagReport.html" xlink:show="new" xlink:title="CfnNagReport.html" xlink:type="simple"><rect codeLine="29" fill="#FEFECE" filter="url(#f14vluzwx3dhn)" height="73.6094" id="com.hack23.sonar.cloudformation.parser.cfnnag.CfnNagReport" style="stroke: #A80036; stroke-width: 1.5;" width="168" x="387" y="192"/><ellipse cx="424.05" cy="208" fill="#ADD1B2" rx="11" ry="11" style="stroke: #A80036; stroke-width: 1.0;"/><path d="M427.0188,213.6406 Q426.4406,213.9375 425.8,214.0781 Q425.1594,214.2344 424.4563,214.2344 Q421.9563,214.2344 420.6281,212.5938 Q419.3156,210.9375 419.3156,207.8125 Q419.3156,204.6875 420.6281,203.0313 Q421.9563,201.375 424.4563,201.375 Q425.1594,201.375 425.8,201.5313 Q426.4563,201.6875 427.0188,201.9844 L427.0188,204.7031 Q426.3938,204.125 425.8,203.8594 Q425.2063,203.5781 424.5813,203.5781 Q423.2375,203.5781 422.55,204.6563 Q421.8625,205.7188 421.8625,207.8125 Q421.8625,209.9063 422.55,210.9844 Q423.2375,212.0469 424.5813,212.0469 Q425.2063,212.0469 425.8,211.7813 Q426.3938,211.5 427.0188,210.9219 L427.0188,213.6406 Z "/><text fill="#000000" font-family="sans-serif" font-size="12" lengthAdjust="spacingAndGlyphs" textLength="87" x="442.95" y="212.1543">CfnNagReport</text><line style="stroke: #A80036; stroke-width: 1.5;" x1="388" x2="554" y1="224" y2="224"/><line style="stroke: #A80036; stroke-width: 1.5;" x1="388" x2="554" y1="232" y2="232"/><ellipse cx="398" cy="243" fill="#84BE84" rx="3" ry="3" style="stroke: #038048; stroke-width: 1.0;"/><text fill="#000000" font-family="sans-serif" font-size="11" lengthAdjust="spacingAndGlyphs" textLength="119" x="407" y="246.2104">getFailureCount(): int</text><ellipse cx="398" cy="255.8047" fill="#84BE84" rx="3" ry="3" style="stroke: #038048; stroke-width: 1.0;"/><text fill="#000000" font-family="sans-serif" font-size="11" lengthAdjust="spacingAndGlyphs" textLength="142" x="407" y="259.0151">setFailureCount(int): void</text></a><!--MD5=[7345d13e9837bbaeaa85627b67e9a431]
link com.hack23.sonar.cloudformation.parser.cfnnag.CfnNagScanReport to com.hack23.sonar.cloudformation.parser.cfnnag.CfnNagReport--><path codeLine="34" d="M471,115.07 C471,136.69 471,164.25 471,186.74 " fill="none" id="com.hack23.sonar.cloudformation.parser.cfnnag.CfnNagScanReport-to-com.hack23.sonar.cloudformation.parser.cfnnag.CfnNagReport" style="stroke: #A80036; stroke-width: 1.0;"/><polygon fill="#A80036" points="471,191.75,475,182.75,471,186.75,467,182.75,471,191.75" style="stroke: #A80036; stroke-width: 1.0;"/><text fill="#000000" font-family="sans-serif" font-size="13" lengthAdjust="spacingAndGlyphs" textLength="68" x="472" y="158.0669">file_results</text><!--MD5=[79da2c192effd621e51a85b55b4d9e9d]
link com.hack23.sonar.cloudformation.parser.cfnnag.CfnNagReport to com.hack23.sonar.cloudformation.parser.cfnnag.CfnNagViolation--><path codeLine="35" d="M471,266.22 C471,286.38 471,312.47 471,337.87 " fill="none" id="com.hack23.sonar.cloudformation.parser.cfnnag.CfnNagReport-to-com.hack23.sonar.cloudformation.parser.cfnnag.CfnNagViolation" style="stroke: #A80036; stroke-width: 1.0;"/><polygon fill="#A80036" points="471,342.94,475,333.94,471,337.94,467,333.94,471,342.94" style="stroke: #A80036; stroke-width: 1.0;"/><text fill="#000000" font-family="sans-serif" font-size="13" lengthAdjust="spacingAndGlyphs" textLength="60" x="472" y="309.0669">violations</text><text fill="#000000" font-family="sans-serif" font-size="13" lengthAdjust="spacingAndGlyphs" textLength="7" x="463.6992" y="331.7984">*</text><text fill="#888888" font-family="sans-serif" font-size="10" lengthAdjust="spacingAndGlyphs" textLength="192" x="336" y="550.2822">UMLDoclet 2.0.12, PlantUML 1.2020.16</text><!--MD5=[c78d30475151703a82756fc62614f91e]
@startuml
    namespace com.hack23.sonar.cloudformation.parser.cfnnag {

        class CfnNagReportReader [[CfnNagReportReader.html]] {
            +readReport(InputStream): CfnNagReport
        }

        class CfnNagScanReport [[CfnNagScanReport.html]] {
            +getFilename(): String
            +setFilename(String): void
        }

        class CfnNagScanReportReader [[CfnNagScanReportReader.html]] {
            +readReport(InputStream): List<CfnNagScanReport>
        }

        class CfnNagViolation [[CfnNagViolation.html]] {
            +getId(): String
            +setId(String): void
            +getType(): String
            +setType(String): void
            +getMessage(): String
            +setMessage(String): void
            +getLogical_resource_ids(): List<String>
            +setLogical_resource_ids(List<String>): void
            +getLine_numbers(): List<Integer>
            +setLine_numbers(List<Integer>): void
        }

        class CfnNagReport [[CfnNagReport.html]] {
            +getFailureCount(): int
            +setFailureCount(int): void
        }

        CfnNagScanReport - -> CfnNagReport: file_results
        CfnNagReport - -> "*" CfnNagViolation: violations
    }

    center footer UMLDoclet 2.0.12, PlantUML 1.2020.16
@enduml

PlantUML version 1.2020.16(Sun Aug 23 22:20:43 CEST 2020)
(APACHE source distribution)
Java Runtime: OpenJDK Runtime Environment
JVM: OpenJDK 64-Bit Server VM
Default Encoding: UTF-8
Language: en
Country: US
--></g></svg>