<?xml version="1.0" encoding="UTF-8" standalone="no"?><svg xmlns="http://www.w3.org/2000/svg" xmlns:xlink="http://www.w3.org/1999/xlink" contentScriptType="application/ecmascript" contentStyleType="text/css" height="808px" preserveAspectRatio="none" style="width:563px;height:808px;" version="1.1" viewBox="0 0 563 808" width="563px" zoomAndPan="magnify"><defs><filter height="300%" id="fb157k5ju9llj" width="300%" x="-1" y="-1"><feGaussianBlur result="blurOut" stdDeviation="2.0"/><feColorMatrix in="blurOut" result="blurOut2" type="matrix" values="0 0 0 0 0 0 0 0 0 0 0 0 0 0 0 0 0 0 .4 0"/><feOffset dx="4.0" dy="4.0" in="blurOut2" result="blurOut3"/><feBlend in="SourceGraphic" in2="blurOut3" mode="normal"/></filter></defs><g><!--MD5=[ae3e5f4ee0d96b9a46ee96f0cb12816d]
cluster com.hack23.sonar.cloudformation.parser.checkov--><polygon fill="#FFFFFF" filter="url(#fb157k5ju9llj)" points="16,6,419,6,426,28.2969,541,28.2969,541,780,16,780,16,6" style="stroke: #000000; stroke-width: 1.5;"/><line style="stroke: #000000; stroke-width: 1.5;" x1="16" x2="426" y1="28.2969" y2="28.2969"/><text fill="#000000" font-family="sans-serif" font-size="14" font-weight="bold" lengthAdjust="spacingAndGlyphs" textLength="397" x="20" y="20.9951">com.hack23.sonar.cloudformation.parser.checkov</text><!--MD5=[051ab0604b9f1c06d906039105d23e87]
class com.hack23.sonar.cloudformation.parser.checkov.CheckovReportReader--><a href="CheckovReportReader.html" target="_top" title="CheckovReportReader.html" xlink:actuate="onRequest" xlink:href="CheckovReportReader.html" xlink:show="new" xlink:title="CheckovReportReader.html" xlink:type="simple"><rect codeLine="3" fill="#FEFECE" filter="url(#fb157k5ju9llj)" height="60.8047" id="com.hack23.sonar.cloudformation.parser.checkov.CheckovReportReader" style="stroke: #A80036; stroke-width: 1.5;" width="259" x="265.5" y="47.5"/><ellipse cx="321.25" cy="63.5" fill="#ADD1B2" rx="11" ry="11" style="stroke: #A80036; stroke-width: 1.0;"/><path d="M324.2188,69.1406 Q323.6406,69.4375 323,69.5781 Q322.3594,69.7344 321.6563,69.7344 Q319.1563,69.7344 317.8281,68.0938 Q316.5156,66.4375 316.5156,63.3125 Q316.5156,60.1875 317.8281,58.5313 Q319.1563,56.875 321.6563,56.875 Q322.3594,56.875 323,57.0313 Q323.6563,57.1875 324.2188,57.4844 L324.2188,60.2031 Q323.5938,59.625 323,59.3594 Q322.4063,59.0781 321.7813,59.0781 Q320.4375,59.0781 319.75,60.1563 Q319.0625,61.2188 319.0625,63.3125 Q319.0625,65.4063 319.75,66.4844 Q320.4375,67.5469 321.7813,67.5469 Q322.4063,67.5469 323,67.2813 Q323.5938,67 324.2188,66.4219 L324.2188,69.1406 Z "/><text fill="#000000" font-family="sans-serif" font-size="12" lengthAdjust="spacingAndGlyphs" textLength="139" x="341.75" y="67.6543">CheckovReportReader</text><line style="stroke: #A80036; stroke-width: 1.5;" x1="266.5" x2="523.5" y1="79.5" y2="79.5"/><line style="stroke: #A80036; stroke-width: 1.5;" x1="266.5" x2="523.5" y1="87.5" y2="87.5"/><ellipse cx="276.5" cy="98.5" fill="#84BE84" rx="3" ry="3" style="stroke: #038048; stroke-width: 1.0;"/><text fill="#000000" font-family="sans-serif" font-size="11" lengthAdjust="spacingAndGlyphs" textLength="233" x="285.5" y="101.7104">readReport(InputStream): CheckovReport</text></a><!--MD5=[60bcf726cee441308c2a3e2493ef0a22]
class com.hack23.sonar.cloudformation.parser.checkov.CheckovPassedCheck--><a href="CheckovPassedCheck.html" target="_top" title="CheckovPassedCheck.html" xlink:actuate="onRequest" xlink:href="CheckovPassedCheck.html" xlink:show="new" xlink:title="CheckovPassedCheck.html" xlink:type="simple"><rect codeLine="7" fill="#FEFECE" filter="url(#fb157k5ju9llj)" height="304.0938" id="com.hack23.sonar.cloudformation.parser.checkov.CheckovPassedCheck" style="stroke: #A80036; stroke-width: 1.5;" width="245" x="32.5" y="460"/><ellipse cx="82.75" cy="476" fill="#ADD1B2" rx="11" ry="11" style="stroke: #A80036; stroke-width: 1.0;"/><path d="M85.7188,481.6406 Q85.1406,481.9375 84.5,482.0781 Q83.8594,482.2344 83.1563,482.2344 Q80.6563,482.2344 79.3281,480.5938 Q78.0156,478.9375 78.0156,475.8125 Q78.0156,472.6875 79.3281,471.0313 Q80.6563,469.375 83.1563,469.375 Q83.8594,469.375 84.5,469.5313 Q85.1563,469.6875 85.7188,469.9844 L85.7188,472.7031 Q85.0938,472.125 84.5,471.8594 Q83.9063,471.5781 83.2813,471.5781 Q81.9375,471.5781 81.25,472.6563 Q80.5625,473.7188 80.5625,475.8125 Q80.5625,477.9063 81.25,478.9844 Q81.9375,480.0469 83.2813,480.0469 Q83.9063,480.0469 84.5,479.7813 Q85.0938,479.5 85.7188,478.9219 L85.7188,481.6406 Z "/><text fill="#000000" font-family="sans-serif" font-size="12" lengthAdjust="spacingAndGlyphs" textLength="136" x="103.25" y="480.1543">CheckovPassedCheck</text><line style="stroke: #A80036; stroke-width: 1.5;" x1="33.5" x2="276.5" y1="492" y2="492"/><line style="stroke: #A80036; stroke-width: 1.5;" x1="33.5" x2="276.5" y1="500" y2="500"/><ellipse cx="43.5" cy="511" fill="#84BE84" rx="3" ry="3" style="stroke: #038048; stroke-width: 1.0;"/><text fill="#000000" font-family="sans-serif" font-size="11" lengthAdjust="spacingAndGlyphs" textLength="118" x="52.5" y="514.2104">getCheck_id(): String</text><ellipse cx="43.5" cy="523.8047" fill="#84BE84" rx="3" ry="3" style="stroke: #038048; stroke-width: 1.0;"/><text fill="#000000" font-family="sans-serif" font-size="11" lengthAdjust="spacingAndGlyphs" textLength="141" x="52.5" y="527.0151">setCheck_id(String): void</text><ellipse cx="43.5" cy="536.6094" fill="#84BE84" rx="3" ry="3" style="stroke: #038048; stroke-width: 1.0;"/><text fill="#000000" font-family="sans-serif" font-size="11" lengthAdjust="spacingAndGlyphs" textLength="140" x="52.5" y="539.8198">getCheck_name(): String</text><ellipse cx="43.5" cy="549.4141" fill="#84BE84" rx="3" ry="3" style="stroke: #038048; stroke-width: 1.0;"/><text fill="#000000" font-family="sans-serif" font-size="11" lengthAdjust="spacingAndGlyphs" textLength="163" x="52.5" y="552.6245">setCheck_name(String): void</text><ellipse cx="43.5" cy="562.2188" fill="#84BE84" rx="3" ry="3" style="stroke: #038048; stroke-width: 1.0;"/><text fill="#000000" font-family="sans-serif" font-size="11" lengthAdjust="spacingAndGlyphs" textLength="143" x="52.5" y="565.4292">getCheck_result(): Object</text><ellipse cx="43.5" cy="575.0234" fill="#84BE84" rx="3" ry="3" style="stroke: #038048; stroke-width: 1.0;"/><text fill="#000000" font-family="sans-serif" font-size="11" lengthAdjust="spacingAndGlyphs" textLength="166" x="52.5" y="578.2339">setCheck_result(Object): void</text><ellipse cx="43.5" cy="587.8281" fill="#84BE84" rx="3" ry="3" style="stroke: #038048; stroke-width: 1.0;"/><text fill="#000000" font-family="sans-serif" font-size="11" lengthAdjust="spacingAndGlyphs" textLength="172" x="52.5" y="591.0386">getCode_block(): List&lt;Object&gt;</text><ellipse cx="43.5" cy="600.6328" fill="#84BE84" rx="3" ry="3" style="stroke: #038048; stroke-width: 1.0;"/><text fill="#000000" font-family="sans-serif" font-size="11" lengthAdjust="spacingAndGlyphs" textLength="195" x="52.5" y="603.8433">setCode_block(List&lt;Object&gt;): void</text><ellipse cx="43.5" cy="613.4375" fill="#84BE84" rx="3" ry="3" style="stroke: #038048; stroke-width: 1.0;"/><text fill="#000000" font-family="sans-serif" font-size="11" lengthAdjust="spacingAndGlyphs" textLength="118" x="52.5" y="616.6479">getFile_path(): String</text><ellipse cx="43.5" cy="626.2422" fill="#84BE84" rx="3" ry="3" style="stroke: #038048; stroke-width: 1.0;"/><text fill="#000000" font-family="sans-serif" font-size="11" lengthAdjust="spacingAndGlyphs" textLength="141" x="52.5" y="629.4526">setFile_path(String): void</text><ellipse cx="43.5" cy="639.0469" fill="#84BE84" rx="3" ry="3" style="stroke: #038048; stroke-width: 1.0;"/><text fill="#000000" font-family="sans-serif" font-size="11" lengthAdjust="spacingAndGlyphs" textLength="196" x="52.5" y="642.2573">getFile_line_range(): List&lt;Integer&gt;</text><ellipse cx="43.5" cy="651.8516" fill="#84BE84" rx="3" ry="3" style="stroke: #038048; stroke-width: 1.0;"/><text fill="#000000" font-family="sans-serif" font-size="11" lengthAdjust="spacingAndGlyphs" textLength="219" x="52.5" y="655.062">setFile_line_range(List&lt;Integer&gt;): void</text><ellipse cx="43.5" cy="664.6563" fill="#84BE84" rx="3" ry="3" style="stroke: #038048; stroke-width: 1.0;"/><text fill="#000000" font-family="sans-serif" font-size="11" lengthAdjust="spacingAndGlyphs" textLength="121" x="52.5" y="667.8667">getResource(): String</text><ellipse cx="43.5" cy="677.4609" fill="#84BE84" rx="3" ry="3" style="stroke: #038048; stroke-width: 1.0;"/><text fill="#000000" font-family="sans-serif" font-size="11" lengthAdjust="spacingAndGlyphs" textLength="144" x="52.5" y="680.6714">setResource(String): void</text><ellipse cx="43.5" cy="690.2656" fill="#84BE84" rx="3" ry="3" style="stroke: #038048; stroke-width: 1.0;"/><text fill="#000000" font-family="sans-serif" font-size="11" lengthAdjust="spacingAndGlyphs" textLength="135" x="52.5" y="693.4761">getEvaluations(): Object</text><ellipse cx="43.5" cy="703.0703" fill="#84BE84" rx="3" ry="3" style="stroke: #038048; stroke-width: 1.0;"/><text fill="#000000" font-family="sans-serif" font-size="11" lengthAdjust="spacingAndGlyphs" textLength="158" x="52.5" y="706.2808">setEvaluations(Object): void</text><ellipse cx="43.5" cy="715.875" fill="#84BE84" rx="3" ry="3" style="stroke: #038048; stroke-width: 1.0;"/><text fill="#000000" font-family="sans-serif" font-size="11" lengthAdjust="spacingAndGlyphs" textLength="138" x="52.5" y="719.0854">getCheck_class(): String</text><ellipse cx="43.5" cy="728.6797" fill="#84BE84" rx="3" ry="3" style="stroke: #038048; stroke-width: 1.0;"/><text fill="#000000" font-family="sans-serif" font-size="11" lengthAdjust="spacingAndGlyphs" textLength="161" x="52.5" y="731.8901">setCheck_class(String): void</text><ellipse cx="43.5" cy="741.4844" fill="#84BE84" rx="3" ry="3" style="stroke: #038048; stroke-width: 1.0;"/><text fill="#000000" font-family="sans-serif" font-size="11" lengthAdjust="spacingAndGlyphs" textLength="121" x="52.5" y="744.6948">getGuideline(): String</text><ellipse cx="43.5" cy="754.2891" fill="#84BE84" rx="3" ry="3" style="stroke: #038048; stroke-width: 1.0;"/><text fill="#000000" font-family="sans-serif" font-size="11" lengthAdjust="spacingAndGlyphs" textLength="144" x="52.5" y="757.4995">setGuideline(String): void</text></a><!--MD5=[8223b9dcc9ebeee13d47f06b0ff4cdca]
class com.hack23.sonar.cloudformation.parser.checkov.CheckovResults--><a href="CheckovResults.html" target="_top" title="CheckovResults.html" xlink:actuate="onRequest" xlink:href="CheckovResults.html" xlink:show="new" xlink:title="CheckovResults.html" xlink:type="simple"><rect codeLine="30" fill="#FEFECE" filter="url(#fb157k5ju9llj)" height="99.2188" id="com.hack23.sonar.cloudformation.parser.checkov.CheckovResults" style="stroke: #A80036; stroke-width: 1.5;" width="245" x="32.5" y="230.5"/><ellipse cx="101.75" cy="246.5" fill="#ADD1B2" rx="11" ry="11" style="stroke: #A80036; stroke-width: 1.0;"/><path d="M104.7188,252.1406 Q104.1406,252.4375 103.5,252.5781 Q102.8594,252.7344 102.1563,252.7344 Q99.6563,252.7344 98.3281,251.0938 Q97.0156,249.4375 97.0156,246.3125 Q97.0156,243.1875 98.3281,241.5313 Q99.6563,239.875 102.1563,239.875 Q102.8594,239.875 103.5,240.0313 Q104.1563,240.1875 104.7188,240.4844 L104.7188,243.2031 Q104.0938,242.625 103.5,242.3594 Q102.9063,242.0781 102.2813,242.0781 Q100.9375,242.0781 100.25,243.1563 Q99.5625,244.2188 99.5625,246.3125 Q99.5625,248.4063 100.25,249.4844 Q100.9375,250.5469 102.2813,250.5469 Q102.9063,250.5469 103.5,250.2813 Q104.0938,250 104.7188,249.4219 L104.7188,252.1406 Z "/><text fill="#000000" font-family="sans-serif" font-size="12" lengthAdjust="spacingAndGlyphs" textLength="98" x="122.25" y="250.6543">CheckovResults</text><line style="stroke: #A80036; stroke-width: 1.5;" x1="33.5" x2="276.5" y1="262.5" y2="262.5"/><line style="stroke: #A80036; stroke-width: 1.5;" x1="33.5" x2="276.5" y1="270.5" y2="270.5"/><ellipse cx="43.5" cy="281.5" fill="#84BE84" rx="3" ry="3" style="stroke: #038048; stroke-width: 1.0;"/><text fill="#000000" font-family="sans-serif" font-size="11" lengthAdjust="spacingAndGlyphs" textLength="196" x="52.5" y="284.7104">getSkipped_checks(): List&lt;String&gt;</text><ellipse cx="43.5" cy="294.3047" fill="#84BE84" rx="3" ry="3" style="stroke: #038048; stroke-width: 1.0;"/><text fill="#000000" font-family="sans-serif" font-size="11" lengthAdjust="spacingAndGlyphs" textLength="219" x="52.5" y="297.5151">setSkipped_checks(List&lt;String&gt;): void</text><ellipse cx="43.5" cy="307.1094" fill="#84BE84" rx="3" ry="3" style="stroke: #038048; stroke-width: 1.0;"/><text fill="#000000" font-family="sans-serif" font-size="11" lengthAdjust="spacingAndGlyphs" textLength="191" x="52.5" y="310.3198">getParsing_errors(): List&lt;String&gt;</text><ellipse cx="43.5" cy="319.9141" fill="#84BE84" rx="3" ry="3" style="stroke: #038048; stroke-width: 1.0;"/><text fill="#000000" font-family="sans-serif" font-size="11" lengthAdjust="spacingAndGlyphs" textLength="214" x="52.5" y="323.1245">setParsing_errors(List&lt;String&gt;): void</text></a><!--MD5=[d966574d98dc459bedd5cafb0a99ab9c]
class com.hack23.sonar.cloudformation.parser.checkov.CheckovSummary--><a href="CheckovSummary.html" target="_top" title="CheckovSummary.html" xlink:actuate="onRequest" xlink:href="CheckovSummary.html" xlink:show="new" xlink:title="CheckovSummary.html" xlink:type="simple"><rect codeLine="37" fill="#FEFECE" filter="url(#fb157k5ju9llj)" height="176.0469" id="com.hack23.sonar.cloudformation.parser.checkov.CheckovSummary" style="stroke: #A80036; stroke-width: 1.5;" width="212" x="313" y="192"/><ellipse cx="360.25" cy="208" fill="#ADD1B2" rx="11" ry="11" style="stroke: #A80036; stroke-width: 1.0;"/><path d="M363.2188,213.6406 Q362.6406,213.9375 362,214.0781 Q361.3594,214.2344 360.6563,214.2344 Q358.1563,214.2344 356.8281,212.5938 Q355.5156,210.9375 355.5156,207.8125 Q355.5156,204.6875 356.8281,203.0313 Q358.1563,201.375 360.6563,201.375 Q361.3594,201.375 362,201.5313 Q362.6563,201.6875 363.2188,201.9844 L363.2188,204.7031 Q362.5938,204.125 362,203.8594 Q361.4063,203.5781 360.7813,203.5781 Q359.4375,203.5781 358.75,204.6563 Q358.0625,205.7188 358.0625,207.8125 Q358.0625,209.9063 358.75,210.9844 Q359.4375,212.0469 360.7813,212.0469 Q361.4063,212.0469 362,211.7813 Q362.5938,211.5 363.2188,210.9219 L363.2188,213.6406 Z "/><text fill="#000000" font-family="sans-serif" font-size="12" lengthAdjust="spacingAndGlyphs" textLength="109" x="380.75" y="212.1543">CheckovSummary</text><line style="stroke: #A80036; stroke-width: 1.5;" x1="314" x2="524" y1="224" y2="224"/><line style="stroke: #A80036; stroke-width: 1.5;" x1="314" x2="524" y1="232" y2="232"/><ellipse cx="324" cy="243" fill="#84BE84" rx="3" ry="3" style="stroke: #038048; stroke-width: 1.0;"/><text fill="#000000" font-family="sans-serif" font-size="11" lengthAdjust="spacingAndGlyphs" textLength="90" x="333" y="246.2104">getPassed(): int</text><ellipse cx="324" cy="255.8047" fill="#84BE84" rx="3" ry="3" style="stroke: #038048; stroke-width: 1.0;"/><text fill="#000000" font-family="sans-serif" font-size="11" lengthAdjust="spacingAndGlyphs" textLength="113" x="333" y="259.0151">setPassed(int): void</text><ellipse cx="324" cy="268.6094" fill="#84BE84" rx="3" ry="3" style="stroke: #038048; stroke-width: 1.0;"/><text fill="#000000" font-family="sans-serif" font-size="11" lengthAdjust="spacingAndGlyphs" textLength="81" x="333" y="271.8198">getFailed(): int</text><ellipse cx="324" cy="281.4141" fill="#84BE84" rx="3" ry="3" style="stroke: #038048; stroke-width: 1.0;"/><text fill="#000000" font-family="sans-serif" font-size="11" lengthAdjust="spacingAndGlyphs" textLength="104" x="333" y="284.6245">setFailed(int): void</text><ellipse cx="324" cy="294.2188" fill="#84BE84" rx="3" ry="3" style="stroke: #038048; stroke-width: 1.0;"/><text fill="#000000" font-family="sans-serif" font-size="11" lengthAdjust="spacingAndGlyphs" textLength="93" x="333" y="297.4292">getSkipped(): int</text><ellipse cx="324" cy="307.0234" fill="#84BE84" rx="3" ry="3" style="stroke: #038048; stroke-width: 1.0;"/><text fill="#000000" font-family="sans-serif" font-size="11" lengthAdjust="spacingAndGlyphs" textLength="116" x="333" y="310.2339">setSkipped(int): void</text><ellipse cx="324" cy="319.8281" fill="#84BE84" rx="3" ry="3" style="stroke: #038048; stroke-width: 1.0;"/><text fill="#000000" font-family="sans-serif" font-size="11" lengthAdjust="spacingAndGlyphs" textLength="133" x="333" y="323.0386">getParsing_errors(): int</text><ellipse cx="324" cy="332.6328" fill="#84BE84" rx="3" ry="3" style="stroke: #038048; stroke-width: 1.0;"/><text fill="#000000" font-family="sans-serif" font-size="11" lengthAdjust="spacingAndGlyphs" textLength="156" x="333" y="335.8433">setParsing_errors(int): void</text><ellipse cx="324" cy="345.4375" fill="#84BE84" rx="3" ry="3" style="stroke: #038048; stroke-width: 1.0;"/><text fill="#000000" font-family="sans-serif" font-size="11" lengthAdjust="spacingAndGlyphs" textLength="163" x="333" y="348.6479">getCheckov_version(): String</text><ellipse cx="324" cy="358.2422" fill="#84BE84" rx="3" ry="3" style="stroke: #038048; stroke-width: 1.0;"/><text fill="#000000" font-family="sans-serif" font-size="11" lengthAdjust="spacingAndGlyphs" textLength="186" x="333" y="361.4526">setCheckov_version(String): void</text></a><!--MD5=[69ad531c4338e611613bee927aa17d68]
class com.hack23.sonar.cloudformation.parser.checkov.CheckovReport--><a href="CheckovReport.html" target="_top" title="CheckovReport.html" xlink:actuate="onRequest" xlink:href="CheckovReport.html" xlink:show="new" xlink:title="CheckovReport.html" xlink:type="simple"><rect codeLine="50" fill="#FEFECE" filter="url(#fb157k5ju9llj)" height="73.6094" id="com.hack23.sonar.cloudformation.parser.checkov.CheckovReport" style="stroke: #A80036; stroke-width: 1.5;" width="181" x="49.5" y="41"/><ellipse cx="89.25" cy="57" fill="#ADD1B2" rx="11" ry="11" style="stroke: #A80036; stroke-width: 1.0;"/><path d="M92.2188,62.6406 Q91.6406,62.9375 91,63.0781 Q90.3594,63.2344 89.6563,63.2344 Q87.1563,63.2344 85.8281,61.5938 Q84.5156,59.9375 84.5156,56.8125 Q84.5156,53.6875 85.8281,52.0313 Q87.1563,50.375 89.6563,50.375 Q90.3594,50.375 91,50.5313 Q91.6563,50.6875 92.2188,50.9844 L92.2188,53.7031 Q91.5938,53.125 91,52.8594 Q90.4063,52.5781 89.7813,52.5781 Q88.4375,52.5781 87.75,53.6563 Q87.0625,54.7188 87.0625,56.8125 Q87.0625,58.9063 87.75,59.9844 Q88.4375,61.0469 89.7813,61.0469 Q90.4063,61.0469 91,60.7813 Q91.5938,60.5 92.2188,59.9219 L92.2188,62.6406 Z "/><text fill="#000000" font-family="sans-serif" font-size="12" lengthAdjust="spacingAndGlyphs" textLength="94" x="108.75" y="61.1543">CheckovReport</text><line style="stroke: #A80036; stroke-width: 1.5;" x1="50.5" x2="229.5" y1="73" y2="73"/><line style="stroke: #A80036; stroke-width: 1.5;" x1="50.5" x2="229.5" y1="81" y2="81"/><ellipse cx="60.5" cy="92" fill="#84BE84" rx="3" ry="3" style="stroke: #038048; stroke-width: 1.0;"/><text fill="#000000" font-family="sans-serif" font-size="11" lengthAdjust="spacingAndGlyphs" textLength="132" x="69.5" y="95.2104">getCheck_type(): String</text><ellipse cx="60.5" cy="104.8047" fill="#84BE84" rx="3" ry="3" style="stroke: #038048; stroke-width: 1.0;"/><text fill="#000000" font-family="sans-serif" font-size="11" lengthAdjust="spacingAndGlyphs" textLength="155" x="69.5" y="108.0151">setCheck_type(String): void</text></a><!--MD5=[09d2505098a3a34f44b6b978bb9683f9]
link com.hack23.sonar.cloudformation.parser.checkov.CheckovResults to com.hack23.sonar.cloudformation.parser.checkov.CheckovPassedCheck--><path codeLine="55" d="M155,329.69 C155,363.01 155,409.2 155,454.53 " fill="none" id="com.hack23.sonar.cloudformation.parser.checkov.CheckovResults-to-com.hack23.sonar.cloudformation.parser.checkov.CheckovPassedCheck" style="stroke: #A80036; stroke-width: 1.0;"/><polygon fill="#A80036" points="155,459.77,159,450.77,155,454.77,151,450.77,155,459.77" style="stroke: #A80036; stroke-width: 1.0;"/><text fill="#000000" font-family="sans-serif" font-size="13" lengthAdjust="spacingAndGlyphs" textLength="97" x="156" y="411.0669">passed_checks</text><text fill="#000000" font-family="sans-serif" font-size="13" lengthAdjust="spacingAndGlyphs" textLength="85" x="162" y="426.1997">failed_checks</text><text fill="#000000" font-family="sans-serif" font-size="13" lengthAdjust="spacingAndGlyphs" textLength="7" x="147.8305" y="449.1009">*</text><!--MD5=[b8c09b21f1d64d8e3bba088e4a7392d2]
link com.hack23.sonar.cloudformation.parser.checkov.CheckovReport to com.hack23.sonar.cloudformation.parser.checkov.CheckovSummary--><path codeLine="56" d="M190.52,115.22 C223.4,138.79 267.6,170.47 308.36,199.68 " fill="none" id="com.hack23.sonar.cloudformation.parser.checkov.CheckovReport-to-com.hack23.sonar.cloudformation.parser.checkov.CheckovSummary" style="stroke: #A80036; stroke-width: 1.0;"/><polygon fill="#A80036" points="312.8,202.87,307.8098,194.379,308.7342,199.9598,303.1534,200.8842,312.8,202.87" style="stroke: #A80036; stroke-width: 1.0;"/><text fill="#000000" font-family="sans-serif" font-size="13" lengthAdjust="spacingAndGlyphs" textLength="61" x="255" y="158.0669">summary</text><!--MD5=[a448da4d329c3a4effe3a8dcec8b06c0]
link com.hack23.sonar.cloudformation.parser.checkov.CheckovReport to com.hack23.sonar.cloudformation.parser.checkov.CheckovResults--><path codeLine="57" d="M142.72,115.22 C145.02,145.9 148.35,190.34 150.96,225.19 " fill="none" id="com.hack23.sonar.cloudformation.parser.checkov.CheckovReport-to-com.hack23.sonar.cloudformation.parser.checkov.CheckovResults" style="stroke: #A80036; stroke-width: 1.0;"/><polygon fill="#A80036" points="151.34,230.26,154.6603,220.9877,150.9685,225.2738,146.6824,221.582,151.34,230.26" style="stroke: #A80036; stroke-width: 1.0;"/><text fill="#000000" font-family="sans-serif" font-size="13" lengthAdjust="spacingAndGlyphs" textLength="43" x="147" y="158.0669">results</text><text fill="#888888" font-family="sans-serif" font-size="10" lengthAdjust="spacingAndGlyphs" textLength="192" x="176.5" y="795.2822">UMLDoclet 2.0.12, PlantUML 1.2020.16</text><!--MD5=[51bf9856b7cbcdb100e30530adb0148f]
@startuml
    namespace com.hack23.sonar.cloudformation.parser.checkov {

        class CheckovReportReader [[CheckovReportReader.html]] {
            +readReport(InputStream): CheckovReport
        }

        class CheckovPassedCheck [[CheckovPassedCheck.html]] {
            +getCheck_id(): String
            +setCheck_id(String): void
            +getCheck_name(): String
            +setCheck_name(String): void
            +getCheck_result(): Object
            +setCheck_result(Object): void
            +getCode_block(): List<Object>
            +setCode_block(List<Object>): void
            +getFile_path(): String
            +setFile_path(String): void
            +getFile_line_range(): List<Integer>
            +setFile_line_range(List<Integer>): void
            +getResource(): String
            +setResource(String): void
            +getEvaluations(): Object
            +setEvaluations(Object): void
            +getCheck_class(): String
            +setCheck_class(String): void
            +getGuideline(): String
            +setGuideline(String): void
        }

        class CheckovResults [[CheckovResults.html]] {
            +getSkipped_checks(): List<String>
            +setSkipped_checks(List<String>): void
            +getParsing_errors(): List<String>
            +setParsing_errors(List<String>): void
        }

        class CheckovSummary [[CheckovSummary.html]] {
            +getPassed(): int
            +setPassed(int): void
            +getFailed(): int
            +setFailed(int): void
            +getSkipped(): int
            +setSkipped(int): void
            +getParsing_errors(): int
            +setParsing_errors(int): void
            +getCheckov_version(): String
            +setCheckov_version(String): void
        }

        class CheckovReport [[CheckovReport.html]] {
            +getCheck_type(): String
            +setCheck_type(String): void
        }

        CheckovResults - -> "*" CheckovPassedCheck: passed_checks\nfailed_checks
        CheckovReport - -> CheckovSummary: summary
        CheckovReport - -> CheckovResults: results
    }

    center footer UMLDoclet 2.0.12, PlantUML 1.2020.16
@enduml

PlantUML version 1.2020.16(Sun Aug 23 22:20:43 CEST 2020)
(APACHE source distribution)
Java Runtime: OpenJDK Runtime Environment
JVM: OpenJDK 64-Bit Server VM
Default Encoding: UTF-8
Language: en
Country: US
--></g></svg>