<?xml version="1.0" encoding="UTF-8" standalone="no"?><svg xmlns="http://www.w3.org/2000/svg" xmlns:xlink="http://www.w3.org/1999/xlink" contentScriptType="application/ecmascript" contentStyleType="text/css" height="232px" preserveAspectRatio="none" style="width:1891px;height:232px;" version="1.1" viewBox="0 0 1891 232" width="1891px" zoomAndPan="magnify"><defs><filter height="300%" id="fgsmuaf14arrc" width="300%" x="-1" y="-1"><feGaussianBlur result="blurOut" stdDeviation="2.0"/><feColorMatrix in="blurOut" result="blurOut2" type="matrix" values="0 0 0 0 0 0 0 0 0 0 0 0 0 0 0 0 0 0 .4 0"/><feOffset dx="4.0" dy="4.0" in="blurOut2" result="blurOut3"/><feBlend in="SourceGraphic" in2="blurOut3" mode="normal"/></filter></defs><g><!--class com.hack23.sonar.cloudformation--><a href="com/hack23/sonar/cloudformation/package-summary.html" target="_top" xlink:actuate="onRequest" xlink:show="new" xlink:title="com/hack23/sonar/cloudformation/package-summary.html" xlink:type="simple"><rect fill="#FEFECE" filter="url(#fgsmuaf14arrc)" height="23.9688" id="com.hack23.sonar.cloudformation" style="stroke: #A80036; stroke-width: 1.5;" width="220" x="974.5" y="8"/><text fill="#000000" font-family="sans-serif" font-size="12" lengthAdjust="spacingAndGlyphs" textLength="214" x="977.5" y="24.1387">com.hack23.sonar.cloudformation</text></a><!--class org.sonar.api.batch.sensor--><rect fill="#FEFECE" filter="url(#fgsmuaf14arrc)" height="23.9688" id="org.sonar.api.batch.sensor" style="stroke: #A80036; stroke-width: 1.5;" width="177" x="6" y="92"/><text fill="#000000" font-family="sans-serif" font-size="12" lengthAdjust="spacingAndGlyphs" textLength="171" x="9" y="108.1387">org.sonar.api.batch.sensor</text><!--class org.sonar.api.utils.log--><rect fill="#FEFECE" filter="url(#fgsmuaf14arrc)" height="23.9688" id="org.sonar.api.utils.log" style="stroke: #A80036; stroke-width: 1.5;" width="143" x="270" y="176"/><text fill="#000000" font-family="sans-serif" font-size="12" lengthAdjust="spacingAndGlyphs" textLength="137" x="273" y="192.1387">org.sonar.api.utils.log</text><!--class com.hack23.sonar.cloudformation.parser--><a href="com/hack23/sonar/cloudformation/parser/package-summary.html" target="_top" xlink:actuate="onRequest" xlink:show="new" xlink:title="com/hack23/sonar/cloudformation/parser/package-summary.html" xlink:type="simple"><rect fill="#FEFECE" filter="url(#fgsmuaf14arrc)" height="23.9688" id="com.hack23.sonar.cloudformation.parser" style="stroke: #A80036; stroke-width: 1.5;" width="265" x="290" y="92"/><text fill="#000000" font-family="sans-serif" font-size="12" lengthAdjust="spacingAndGlyphs" textLength="259" x="293" y="108.1387">com.hack23.sonar.cloudformation.parser</text></a><!--class org.sonar.api.scan.filesystem--><rect fill="#FEFECE" filter="url(#fgsmuaf14arrc)" height="23.9688" id="org.sonar.api.scan.filesystem" style="stroke: #A80036; stroke-width: 1.5;" width="190" x="590.5" y="92"/><text fill="#000000" font-family="sans-serif" font-size="12" lengthAdjust="spacingAndGlyphs" textLength="184" x="593.5" y="108.1387">org.sonar.api.scan.filesystem</text><!--class org.sonar.api.batch.fs--><rect fill="#FEFECE" filter="url(#fgsmuaf14arrc)" height="23.9688" id="org.sonar.api.batch.fs" style="stroke: #A80036; stroke-width: 1.5;" width="145" x="816" y="92"/><text fill="#000000" font-family="sans-serif" font-size="12" lengthAdjust="spacingAndGlyphs" textLength="139" x="819" y="108.1387">org.sonar.api.batch.fs</text><!--class org.sonar.api.server.profile--><rect fill="#FEFECE" filter="url(#fgsmuaf14arrc)" height="23.9688" id="org.sonar.api.server.profile" style="stroke: #A80036; stroke-width: 1.5;" width="176" x="996.5" y="92"/><text fill="#000000" font-family="sans-serif" font-size="12" lengthAdjust="spacingAndGlyphs" textLength="170" x="999.5" y="108.1387">org.sonar.api.server.profile</text><!--class org.sonar.api.resources--><rect fill="#FEFECE" filter="url(#fgsmuaf14arrc)" height="23.9688" id="org.sonar.api.resources" style="stroke: #A80036; stroke-width: 1.5;" width="157" x="1208" y="92"/><text fill="#000000" font-family="sans-serif" font-size="12" lengthAdjust="spacingAndGlyphs" textLength="151" x="1211" y="108.1387">org.sonar.api.resources</text><!--class org.sonar.api.config--><rect fill="#FEFECE" filter="url(#fgsmuaf14arrc)" height="23.9688" id="org.sonar.api.config" style="stroke: #A80036; stroke-width: 1.5;" width="132" x="1400.5" y="92"/><text fill="#000000" font-family="sans-serif" font-size="12" lengthAdjust="spacingAndGlyphs" textLength="126" x="1403.5" y="108.1387">org.sonar.api.config</text><!--class org.sonar.api.server.rule--><rect fill="#FEFECE" filter="url(#fgsmuaf14arrc)" height="23.9688" id="org.sonar.api.server.rule" style="stroke: #A80036; stroke-width: 1.5;" width="161" x="1568" y="92"/><text fill="#000000" font-family="sans-serif" font-size="12" lengthAdjust="spacingAndGlyphs" textLength="155" x="1571" y="108.1387">org.sonar.api.server.rule</text><!--class org.sonar.api--><rect fill="#FEFECE" filter="url(#fgsmuaf14arrc)" height="23.9688" id="org.sonar.api" style="stroke: #A80036; stroke-width: 1.5;" width="90" x="1764.5" y="92"/><text fill="#000000" font-family="sans-serif" font-size="12" lengthAdjust="spacingAndGlyphs" textLength="84" x="1767.5" y="108.1387">org.sonar.api</text><!--class org.junit--><rect fill="#FEFECE" filter="url(#fgsmuaf14arrc)" height="23.9688" id="org.junit" style="stroke: #A80036; stroke-width: 1.5;" width="58" x="473.5" y="176"/><text fill="#000000" font-family="sans-serif" font-size="12" lengthAdjust="spacingAndGlyphs" textLength="52" x="476.5" y="192.1387">org.junit</text><!--link com.hack23.sonar.cloudformation to org.sonar.api.batch.sensor--><path d="M974.4036,28.3281 C808.6292,41.0358 485.0806,66.4904 210.5,92 C203.293,92.6696 195.8366,93.3861 188.3412,94.1235 " fill="none" id="com.hack23.sonar.cloudformation-org.sonar.api.batch.sensor" style="stroke: #A80036; stroke-width: 1.0;"/><polygon fill="#A80036" points="183.1484,94.6371,192.4984,97.7318,188.1241,94.145,191.711,89.7707,183.1484,94.6371" style="stroke: #A80036; stroke-width: 1.0;"/><!--link com.hack23.sonar.cloudformation to org.sonar.api.utils.log--><path d="M974.4726,21.6802 C763.5456,26.0478 318.9621,41.2358 272.5,92 C248.4283,118.3006 288.793,153.1094 317.2315,172.7707 " fill="none" id="com.hack23.sonar.cloudformation-org.sonar.api.utils.log" style="stroke: #A80036; stroke-width: 1.0;"/><polygon fill="#A80036" points="321.6816,175.7926,316.4831,167.4275,317.5451,172.9837,311.9889,174.0458,321.6816,175.7926" style="stroke: #A80036; stroke-width: 1.0;"/><!--link com.hack23.sonar.cloudformation to com.hack23.sonar.cloudformation.parser--><path d="M989.6515,32.0352 C865.526,47.7852 648.9518,75.2659 522.3834,91.326 " fill="none" id="com.hack23.sonar.cloudformation-com.hack23.sonar.cloudformation.parser" style="stroke: #A80036; stroke-width: 1.0;"/><polygon fill="#A80036" points="517.1725,91.9872,526.6045,94.8222,522.1327,91.3576,525.5972,86.8858,517.1725,91.9872" style="stroke: #A80036; stroke-width: 1.0;"/><!--link com.hack23.sonar.cloudformation to org.sonar.api.scan.filesystem--><path d="M1027.333,32.0352 C953.1128,47.6605 824.0512,74.8313 747.5245,90.9422 " fill="none" id="com.hack23.sonar.cloudformation-org.sonar.api.scan.filesystem" style="stroke: #A80036; stroke-width: 1.0;"/><polygon fill="#A80036" points="742.5609,91.9872,752.1919,94.0471,747.4536,90.9571,750.5437,86.2188,742.5609,91.9872" style="stroke: #A80036; stroke-width: 1.0;"/><!--link com.hack23.sonar.cloudformation to org.sonar.api.batch.fs--><path d="M1056.418,32.0352 C1020.7594,47.3174 959.3312,73.6438 921.4811,89.8653 " fill="none" id="com.hack23.sonar.cloudformation-org.sonar.api.batch.fs" style="stroke: #A80036; stroke-width: 1.0;"/><polygon fill="#A80036" points="916.5299,91.9872,926.3779,92.1185,921.1256,90.0176,923.2266,84.7654,916.5299,91.9872" style="stroke: #A80036; stroke-width: 1.0;"/><!--link com.hack23.sonar.cloudformation to org.sonar.api.server.profile--><path d="M1084.5,32.0352 C1084.5,46.3818 1084.5,70.4615 1084.5,86.777 " fill="none" id="com.hack23.sonar.cloudformation-org.sonar.api.server.profile" style="stroke: #A80036; stroke-width: 1.0;"/><polygon fill="#A80036" points="1084.5,91.9872,1088.5,82.9872,1084.5,86.9872,1080.5,82.9872,1084.5,91.9872" style="stroke: #A80036; stroke-width: 1.0;"/><!--link com.hack23.sonar.cloudformation to org.sonar.api.resources--><path d="M1113.4417,32.0352 C1150.3418,47.3798 1214.0177,73.8589 1252.9858,90.0634 " fill="none" id="com.hack23.sonar.cloudformation-org.sonar.api.resources" style="stroke: #A80036; stroke-width: 1.0;"/><polygon fill="#A80036" points="1257.612,91.9872,1250.8378,84.8381,1252.9953,90.0673,1247.766,92.2248,1257.612,91.9872" style="stroke: #A80036; stroke-width: 1.0;"/><!--link com.hack23.sonar.cloudformation to org.sonar.api.config--><path d="M1139.2313,32.0352 C1210.1475,47.6293 1333.359,74.7229 1406.6788,90.8456 " fill="none" id="com.hack23.sonar.cloudformation-org.sonar.api.config" style="stroke: #A80036; stroke-width: 1.0;"/><polygon fill="#A80036" points="1411.8702,91.9872,1403.9395,86.1474,1406.9869,90.9132,1402.2211,93.9606,1411.8702,91.9872" style="stroke: #A80036; stroke-width: 1.0;"/><!--link com.hack23.sonar.cloudformation to org.sonar.api.server.rule--><path d="M1165.3074,32.0352 C1270.8485,47.754 1454.8408,75.1571 1562.7615,91.2304 " fill="none" id="com.hack23.sonar.cloudformation-org.sonar.api.server.rule" style="stroke: #A80036; stroke-width: 1.0;"/><polygon fill="#A80036" points="1567.8425,91.9872,1559.53,86.705,1562.8971,91.2506,1558.3514,94.6177,1567.8425,91.9872" style="stroke: #A80036; stroke-width: 1.0;"/><!--link com.hack23.sonar.cloudformation to org.sonar.api--><path d="M1194.6597,29.2678 C1326.3222,40.9705 1553.1229,63.1143 1746.5,92 C1750.6949,92.6266 1755.0363,93.3324 1759.3878,94.0801 " fill="none" id="com.hack23.sonar.cloudformation-org.sonar.api" style="stroke: #A80036; stroke-width: 1.0;"/><polygon fill="#A80036" points="1764.4925,94.9746,1756.3181,89.481,1759.5676,94.1115,1754.9371,97.3609,1764.4925,94.9746" style="stroke: #A80036; stroke-width: 1.0;"/><!--link com.hack23.sonar.cloudformation to org.junit--><path d="M1194.8597,22.012 C1400.973,26.9194 1827.7268,42.9493 1872.5,92 C1879.6911,99.8782 1879.8419,108.2621 1872.5,116 C1825.0736,165.9843 743.6798,184.4382 536.6054,187.5192 " fill="none" id="com.hack23.sonar.cloudformation-org.junit" style="stroke: #A80036; stroke-width: 1.0;"/><polygon fill="#A80036" points="531.5904,187.5933,540.6486,191.4597,536.5899,187.5193,540.5302,183.4605,531.5904,187.5933" style="stroke: #A80036; stroke-width: 1.0;"/><!--link com.hack23.sonar.cloudformation.parser to org.sonar.api.utils.log--><path d="M410.8947,116.0352 C396.6996,130.756 372.6228,155.7245 356.8922,172.0377 " fill="none" id="com.hack23.sonar.cloudformation.parser-org.sonar.api.utils.log" style="stroke: #A80036; stroke-width: 1.0;"/><polygon fill="#A80036" points="353.0838,175.9872,362.2105,172.2853,356.5545,172.388,356.4518,166.7321,353.0838,175.9872" style="stroke: #A80036; stroke-width: 1.0;"/><!--link com.hack23.sonar.cloudformation.parser to org.junit--><path d="M433.962,116.0352 C447.9819,130.756 471.7614,155.7245 487.2978,172.0377 " fill="none" id="com.hack23.sonar.cloudformation.parser-org.junit" style="stroke: #A80036; stroke-width: 1.0;"/><polygon fill="#A80036" points="491.0592,175.9872,487.7489,166.7113,487.6109,172.3665,481.9558,172.2286,491.0592,175.9872" style="stroke: #A80036; stroke-width: 1.0;"/><text fill="#888888" font-family="sans-serif" font-size="10" lengthAdjust="spacingAndGlyphs" textLength="247" x="824.5" y="219.2822">UMLDoclet 2.0.3-SNAPSHOT, PlantUML 1.2019.06</text><!--
@startuml
    set namespaceSeparator none
    hide circle
    hide empty fields
    hide empty methods

    com.hack23.sonar.cloudformation - -> org.sonar.api.batch.sensor
    com.hack23.sonar.cloudformation - -> org.sonar.api.utils.log
    com.hack23.sonar.cloudformation - -> com.hack23.sonar.cloudformation.parser
    com.hack23.sonar.cloudformation - -> org.sonar.api.scan.filesystem
    com.hack23.sonar.cloudformation - -> org.sonar.api.batch.fs
    com.hack23.sonar.cloudformation - -> org.sonar.api.server.profile
    com.hack23.sonar.cloudformation - -> org.sonar.api.resources
    com.hack23.sonar.cloudformation - -> org.sonar.api.config
    com.hack23.sonar.cloudformation - -> org.sonar.api.server.rule
    com.hack23.sonar.cloudformation - -> org.sonar.api
    com.hack23.sonar.cloudformation - -> org.junit
    com.hack23.sonar.cloudformation.parser - -> org.sonar.api.utils.log
    com.hack23.sonar.cloudformation.parser - -> org.junit

    class "com.hack23.sonar.cloudformation" [[com/hack23/sonar/cloudformation/package-summary.html]] {
    }
    class "com.hack23.sonar.cloudformation.parser" [[com/hack23/sonar/cloudformation/parser/package-summary.html]] {
    }

    center footer UMLDoclet 2.0.3-SNAPSHOT, PlantUML 1.2019.06
@enduml

PlantUML version 1.2019.06(Fri May 24 19:10:25 CEST 2019)
(GPL source distribution)
Java Runtime: Java(TM) SE Runtime Environment
JVM: Java HotSpot(TM) 64-Bit Server VM
Java Version: 11-ea+5
Operating System: Linux
OS Version: 5.0.0-15-generic
Default Encoding: UTF-8
Language: en
Country: US
--></g></svg>