<?xml version="1.0" encoding="UTF-8" standalone="no"?><svg xmlns="http://www.w3.org/2000/svg" xmlns:xlink="http://www.w3.org/1999/xlink" contentStyleType="text/css" height="152px" preserveAspectRatio="none" style="width:479px;height:152px;background:#FFFFFF;" version="1.1" viewBox="0 0 479 152" width="479px" zoomAndPan="magnify"><defs/><g><!--MD5=[3d1a7a2726d9f9a04e578c8ec79fdc9c]
class com.hack23.sonar.cloudformation.reports.process.CfnNagProcessReports--><a href="CfnNagProcessReports.html" target="_top" title="CfnNagProcessReports.html" xlink:actuate="onRequest" xlink:href="CfnNagProcessReports.html" xlink:show="new" xlink:title="CfnNagProcessReports.html" xlink:type="simple"><g id="elem_com.hack23.sonar.cloudformation.reports.process.CfnNagProcessReports"><rect codeLine="5" fill="#F1F1F1" height="119.125" id="com.hack23.sonar.cloudformation.reports.process.CfnNagProcessReports" rx="2.5" ry="2.5" style="stroke:#181818;stroke-width:0.5;" width="458" x="7" y="7"/><ellipse cx="110.75" cy="25.9688" fill="#ADD1B2" rx="11" ry="11" style="stroke:#181818;stroke-width:1.0;"/><path d="M113.7188,31.6094 Q113.1406,31.9063 112.5,32.0469 Q111.8594,32.2031 111.1563,32.2031 Q108.6563,32.2031 107.3281,30.5625 Q106.0156,28.9063 106.0156,25.7813 Q106.0156,22.6563 107.3281,21 Q108.6563,19.3438 111.1563,19.3438 Q111.8594,19.3438 112.5,19.5 Q113.1563,19.6563 113.7188,19.9531 L113.7188,22.6719 Q113.0938,22.0938 112.5,21.8281 Q111.9063,21.5469 111.2813,21.5469 Q109.9375,21.5469 109.25,22.625 Q108.5625,23.6875 108.5625,25.7813 Q108.5625,27.875 109.25,28.9531 Q109.9375,30.0156 111.2813,30.0156 Q111.9063,30.0156 112.5,29.75 Q113.0938,29.4688 113.7188,28.8906 L113.7188,31.6094 Z " fill="#000000"/><text fill="#000000" font-family="sans-serif" font-size="14" lengthAdjust="spacing" textLength="161" x="171.75" y="24.9951">CfnNagProcessReports</text><text fill="#000000" font-family="sans-serif" font-size="10" lengthAdjust="spacing" textLength="242" x="131.25" y="37.5791">com.hack23.sonar.cloudformation.reports.process</text><line style="stroke:#181818;stroke-width:0.5;" x1="8" x2="464" y1="44.9375" y2="44.9375"/><ellipse cx="18" cy="58.5859" fill="none" rx="3" ry="3" style="stroke:#038048;stroke-width:1.0;"/><text fill="#000000" font-family="sans-serif" font-size="14" lengthAdjust="spacing" text-decoration="underline" textLength="193" x="27" y="61.9326">UNDEFINED_FAILURE: String</text><ellipse cx="18" cy="74.8828" fill="none" rx="3" ry="3" style="stroke:#038048;stroke-width:1.0;"/><text fill="#000000" font-family="sans-serif" font-size="14" lengthAdjust="spacing" text-decoration="underline" textLength="203" x="27" y="78.2295">UNDEFINED_WARNING: String</text><line style="stroke:#181818;stroke-width:0.5;" x1="8" x2="464" y1="85.5313" y2="85.5313"/><ellipse cx="18" cy="99.1797" fill="#84BE84" rx="3" ry="3" style="stroke:#038048;stroke-width:1.0;"/><text fill="#000000" font-family="sans-serif" font-size="14" lengthAdjust="spacing" textLength="344" x="27" y="102.5264">CfnNagProcessReports(FileSystem, PathResolver)</text><ellipse cx="18" cy="115.4766" fill="#84BE84" rx="3" ry="3" style="stroke:#038048;stroke-width:1.0;"/><text fill="#000000" font-family="sans-serif" font-size="14" lengthAdjust="spacing" textLength="432" x="27" y="118.8232">processCfnNagReport(SensorContext, Optional&lt;String&gt;): void</text></g></a><rect fill="none" height="11.6406" style="stroke:none;stroke-width:1.0;" width="192" x="139.5" y="133.125"/><text fill="#888888" font-family="sans-serif" font-size="10" lengthAdjust="spacing" textLength="192" x="139.5" y="142.4072">UMLDoclet 2.0.20, PlantUML 1.2022.12</text><!--MD5=[00f5c6315aeb6b1c05218acb9b12cd95]
@startuml
    set namespaceSeparator none
    hide empty fields
    hide empty methods

    class "<size:14>CfnNagProcessReports\n<size:10>com.hack23.sonar.cloudformation.reports.process" as com.hack23.sonar.cloudformation.reports.process.CfnNagProcessReports [[CfnNagProcessReports.html]] {
        {static} +UNDEFINED_FAILURE: String
        {static} +UNDEFINED_WARNING: String
        +CfnNagProcessReports(FileSystem, PathResolver)
        +processCfnNagReport(SensorContext, Optional<String>): void
    }

    center footer UMLDoclet 2.0.20, PlantUML 1.2022.12
@enduml

PlantUML version 1.2022.12(Sun Oct 23 20:12:26 CEST 2022)
(APACHE source distribution)
Java Runtime: OpenJDK Runtime Environment
JVM: OpenJDK 64-Bit Server VM
Default Encoding: UTF-8
Language: en
Country: US
--></g></svg>