<?xml version="1.0" encoding="UTF-8" standalone="no"?><svg xmlns="http://www.w3.org/2000/svg" xmlns:xlink="http://www.w3.org/1999/xlink" contentScriptType="application/ecmascript" contentStyleType="text/css" height="95px" preserveAspectRatio="none" style="width:345px;height:95px;" version="1.1" viewBox="0 0 345 95" width="345px" zoomAndPan="magnify"><defs><filter height="300%" id="f1bhv71vspj4nr" width="300%" x="-1" y="-1"><feGaussianBlur result="blurOut" stdDeviation="2.0"/><feColorMatrix in="blurOut" result="blurOut2" type="matrix" values="0 0 0 0 0 0 0 0 0 0 0 0 0 0 0 0 0 0 .4 0"/><feOffset dx="4.0" dy="4.0" in="blurOut2" result="blurOut3"/><feBlend in="SourceGraphic" in2="blurOut3" mode="normal"/></filter></defs><g><!--MD5=[0479e7f61d508b19cacba66f3c056b1f]
class com.hack23.sonar.cloudformation.reports.process.CfnNagScanReportReader--><a href="CfnNagScanReportReader.html" target="_top" title="CfnNagScanReportReader.html" xlink:actuate="onRequest" xlink:href="CfnNagScanReportReader.html" xlink:show="new" xlink:title="CfnNagScanReportReader.html" xlink:type="simple"><rect codeLine="5" fill="#FEFECE" filter="url(#f1bhv71vspj4nr)" height="58.7422" id="com.hack23.sonar.cloudformation.reports.process.CfnNagScanReportReader" style="stroke: #A80036; stroke-width: 1.5;" width="319" x="7" y="7"/><ellipse cx="42.25" cy="25.9688" fill="#ADD1B2" rx="11" ry="11" style="stroke: #A80036; stroke-width: 1.0;"/><path d="M45.2188,31.6094 Q44.6406,31.9063 44,32.0469 Q43.3594,32.2031 42.6563,32.2031 Q40.1563,32.2031 38.8281,30.5625 Q37.5156,28.9063 37.5156,25.7813 Q37.5156,22.6563 38.8281,21 Q40.1563,19.3438 42.6563,19.3438 Q43.3594,19.3438 44,19.5 Q44.6563,19.6563 45.2188,19.9531 L45.2188,22.6719 Q44.5938,22.0938 44,21.8281 Q43.4063,21.5469 42.7813,21.5469 Q41.4375,21.5469 40.75,22.625 Q40.0625,23.6875 40.0625,25.7813 Q40.0625,27.875 40.75,28.9531 Q41.4375,30.0156 42.7813,30.0156 Q43.4063,30.0156 44,29.75 Q44.5938,29.4688 45.2188,28.8906 L45.2188,31.6094 Z "/><text fill="#000000" font-family="sans-serif" font-size="14" lengthAdjust="spacingAndGlyphs" textLength="181" x="91.25" y="24.9951">CfnNagScanReportReader</text><text fill="#000000" font-family="sans-serif" font-size="10" lengthAdjust="spacingAndGlyphs" textLength="242" x="60.75" y="37.5791">com.hack23.sonar.cloudformation.reports.process</text><line style="stroke: #A80036; stroke-width: 1.5;" x1="8" x2="325" y1="44.9375" y2="44.9375"/><ellipse cx="18" cy="55.9375" fill="#84BE84" rx="3" ry="3" style="stroke: #038048; stroke-width: 1.0;"/><text fill="#000000" font-family="sans-serif" font-size="11" lengthAdjust="spacingAndGlyphs" textLength="293" x="27" y="59.1479">readReport(InputStream): List&lt;CfnNagScanReport&gt;</text></a><text fill="#888888" font-family="sans-serif" font-size="10" lengthAdjust="spacingAndGlyphs" textLength="192" x="70.5" y="82.0244">UMLDoclet 2.0.12, PlantUML 1.2020.16</text><!--MD5=[469194eb927ce9e6fc8e924278381523]
@startuml
    set namespaceSeparator none
    hide empty fields
    hide empty methods

    class "<size:14>CfnNagScanReportReader\n<size:10>com.hack23.sonar.cloudformation.reports.process" as com.hack23.sonar.cloudformation.reports.process.CfnNagScanReportReader [[CfnNagScanReportReader.html]] {
        +readReport(InputStream): List<CfnNagScanReport>
    }

    center footer UMLDoclet 2.0.12, PlantUML 1.2020.16
@enduml

PlantUML version 1.2020.16(Sun Aug 23 22:20:43 CEST 2020)
(APACHE source distribution)
Java Runtime: OpenJDK Runtime Environment
JVM: OpenJDK 64-Bit Server VM
Default Encoding: UTF-8
Language: en
Country: US
--></g></svg>