<?xml version="1.0" encoding="UTF-8" standalone="no"?><svg xmlns="http://www.w3.org/2000/svg" xmlns:xlink="http://www.w3.org/1999/xlink" contentStyleType="text/css" height="95px" preserveAspectRatio="none" style="width:382px;height:95px;background:#FFFFFF;" version="1.1" viewBox="0 0 382 95" width="382px" zoomAndPan="magnify"><defs/><g><!--MD5=[a65cfdafc6cf56b2b337cf42dc5bcb7d]
class com.hack23.sonar.cloudformation.reports.process.CheckovReportReader--><a href="CheckovReportReader.html" target="_top" title="CheckovReportReader.html" xlink:actuate="onRequest" xlink:href="CheckovReportReader.html" xlink:show="new" xlink:title="CheckovReportReader.html" xlink:type="simple"><g id="elem_com.hack23.sonar.cloudformation.reports.process.CheckovReportReader"><rect codeLine="5" fill="#F1F1F1" height="62.2344" id="com.hack23.sonar.cloudformation.reports.process.CheckovReportReader" rx="2.5" ry="2.5" style="stroke:#181818;stroke-width:0.5;" width="361" x="7" y="7"/><ellipse cx="62.25" cy="25.9688" fill="#ADD1B2" rx="11" ry="11" style="stroke:#181818;stroke-width:1.0;"/><path d="M65.2188,31.6094 Q64.6406,31.9063 64,32.0469 Q63.3594,32.2031 62.6563,32.2031 Q60.1563,32.2031 58.8281,30.5625 Q57.5156,28.9063 57.5156,25.7813 Q57.5156,22.6563 58.8281,21 Q60.1563,19.3438 62.6563,19.3438 Q63.3594,19.3438 64,19.5 Q64.6563,19.6563 65.2188,19.9531 L65.2188,22.6719 Q64.5938,22.0938 64,21.8281 Q63.4063,21.5469 62.7813,21.5469 Q61.4375,21.5469 60.75,22.625 Q60.0625,23.6875 60.0625,25.7813 Q60.0625,27.875 60.75,28.9531 Q61.4375,30.0156 62.7813,30.0156 Q63.4063,30.0156 64,29.75 Q64.5938,29.4688 65.2188,28.8906 L65.2188,31.6094 Z " fill="#000000"/><text fill="#000000" font-family="sans-serif" font-size="14" lengthAdjust="spacing" textLength="157" x="125.25" y="24.9951">CheckovReportReader</text><text fill="#000000" font-family="sans-serif" font-size="10" lengthAdjust="spacing" textLength="242" x="82.75" y="37.5791">com.hack23.sonar.cloudformation.reports.process</text><line style="stroke:#181818;stroke-width:0.5;" x1="8" x2="367" y1="44.9375" y2="44.9375"/><ellipse cx="18" cy="58.5859" fill="#84BE84" rx="3" ry="3" style="stroke:#038048;stroke-width:1.0;"/><text fill="#000000" font-family="sans-serif" font-size="14" lengthAdjust="spacing" textLength="335" x="27" y="61.9326">readReport(InputStream): List&lt;CheckovReport&gt;</text></g></a><rect fill="none" height="11.6406" style="stroke:none;stroke-width:1.0;" width="186" x="94" y="76.2344"/><text fill="#888888" font-family="sans-serif" font-size="10" lengthAdjust="spacing" textLength="186" x="94" y="85.5166">UMLDoclet 2.0.19, PlantUML 1.2022.8</text><!--MD5=[f139b5a1fb8acce863bfb29eb2bd0eea]
@startuml
    set namespaceSeparator none
    hide empty fields
    hide empty methods

    class "<size:14>CheckovReportReader\n<size:10>com.hack23.sonar.cloudformation.reports.process" as com.hack23.sonar.cloudformation.reports.process.CheckovReportReader [[CheckovReportReader.html]] {
        +readReport(InputStream): List<CheckovReport>
    }

    center footer UMLDoclet 2.0.19, PlantUML 1.2022.8
@enduml

PlantUML version 1.2022.8(Sun Sep 25 11:00:33 CEST 2022)
(APACHE source distribution)
Java Runtime: OpenJDK Runtime Environment
JVM: OpenJDK 64-Bit Server VM
Default Encoding: ANSI_X3.4-1968
Language: en
Country: US
--></g></svg>