<?xml version="1.0" encoding="UTF-8" standalone="no"?><svg xmlns="http://www.w3.org/2000/svg" xmlns:xlink="http://www.w3.org/1999/xlink" contentScriptType="application/ecmascript" contentStyleType="text/css" height="344px" preserveAspectRatio="none" style="width:871px;height:344px;" version="1.1" viewBox="0 0 871 344" width="871px" zoomAndPan="magnify"><defs><filter height="300%" id="fvb12p1prjsfe" width="300%" x="-1" y="-1"><feGaussianBlur result="blurOut" stdDeviation="2.0"/><feColorMatrix in="blurOut" result="blurOut2" type="matrix" values="0 0 0 0 0 0 0 0 0 0 0 0 0 0 0 0 0 0 .4 0"/><feOffset dx="4.0" dy="4.0" in="blurOut2" result="blurOut3"/><feBlend in="SourceGraphic" in2="blurOut3" mode="normal"/></filter></defs><g><!--MD5=[a40a5a9732c7a3aaed39d7299cbde308]
cluster com.hack23.sonar.cloudformation.reports.process--><polygon fill="#FFFFFF" filter="url(#fvb12p1prjsfe)" points="16,6,424,6,431,28.2969,849,28.2969,849,316,16,316,16,6" style="stroke: #000000; stroke-width: 1.5;"/><line style="stroke: #000000; stroke-width: 1.5;" x1="16" x2="431" y1="28.2969" y2="28.2969"/><text fill="#000000" font-family="sans-serif" font-size="14" font-weight="bold" lengthAdjust="spacingAndGlyphs" textLength="402" x="20" y="20.9951">com.hack23.sonar.cloudformation.reports.process</text><!--MD5=[45c1dedf81ee90160d834a7bcce62b99]
class com.hack23.sonar.cloudformation.reports.process.CheckovProcessReports--><a href="CheckovProcessReports.html" target="_top" title="CheckovProcessReports.html" xlink:actuate="onRequest" xlink:href="CheckovProcessReports.html" xlink:show="new" xlink:title="CheckovProcessReports.html" xlink:type="simple"><rect codeLine="3" fill="#FEFECE" filter="url(#fvb12p1prjsfe)" height="86.4141" id="com.hack23.sonar.cloudformation.reports.process.CheckovProcessReports" style="stroke: #A80036; stroke-width: 1.5;" width="386" x="32" y="60.5"/><ellipse cx="145.25" cy="76.5" fill="#ADD1B2" rx="11" ry="11" style="stroke: #A80036; stroke-width: 1.0;"/><path d="M148.2188,82.1406 Q147.6406,82.4375 147,82.5781 Q146.3594,82.7344 145.6563,82.7344 Q143.1563,82.7344 141.8281,81.0938 Q140.5156,79.4375 140.5156,76.3125 Q140.5156,73.1875 141.8281,71.5313 Q143.1563,69.875 145.6563,69.875 Q146.3594,69.875 147,70.0313 Q147.6563,70.1875 148.2188,70.4844 L148.2188,73.2031 Q147.5938,72.625 147,72.3594 Q146.4063,72.0781 145.7813,72.0781 Q144.4375,72.0781 143.75,73.1563 Q143.0625,74.2188 143.0625,76.3125 Q143.0625,78.4063 143.75,79.4844 Q144.4375,80.5469 145.7813,80.5469 Q146.4063,80.5469 147,80.2813 Q147.5938,80 148.2188,79.4219 L148.2188,82.1406 Z "/><text fill="#000000" font-family="sans-serif" font-size="12" lengthAdjust="spacingAndGlyphs" textLength="151" x="165.75" y="80.6543">CheckovProcessReports</text><line style="stroke: #A80036; stroke-width: 1.5;" x1="33" x2="417" y1="92.5" y2="92.5"/><ellipse cx="43" cy="103.5" fill="none" rx="3" ry="3" style="stroke: #038048; stroke-width: 1.0;"/><text fill="#000000" font-family="sans-serif" font-size="11" lengthAdjust="spacingAndGlyphs" text-decoration="underline" textLength="126" x="52" y="106.7104">SENSOR_NAME: String</text><line style="stroke: #A80036; stroke-width: 1.5;" x1="33" x2="417" y1="113.3047" y2="113.3047"/><ellipse cx="43" cy="124.3047" fill="#84BE84" rx="3" ry="3" style="stroke: #038048; stroke-width: 1.0;"/><text fill="#000000" font-family="sans-serif" font-size="11" lengthAdjust="spacingAndGlyphs" textLength="289" x="52" y="127.5151">CheckovProcessReports(FileSystem, PathResolver)</text><ellipse cx="43" cy="137.1094" fill="#84BE84" rx="3" ry="3" style="stroke: #038048; stroke-width: 1.0;"/><text fill="#000000" font-family="sans-serif" font-size="11" lengthAdjust="spacingAndGlyphs" textLength="360" x="52" y="140.3198">processCheckovReport(SensorContext, Optional&lt;String&gt;): void</text></a><!--MD5=[3d1a7a2726d9f9a04e578c8ec79fdc9c]
class com.hack23.sonar.cloudformation.reports.process.CfnNagProcessReports--><a href="CfnNagProcessReports.html" target="_top" title="CfnNagProcessReports.html" xlink:actuate="onRequest" xlink:href="CfnNagProcessReports.html" xlink:show="new" xlink:title="CfnNagProcessReports.html" xlink:type="simple"><rect codeLine="9" fill="#FEFECE" filter="url(#fvb12p1prjsfe)" height="124.8281" id="com.hack23.sonar.cloudformation.reports.process.CfnNagProcessReports" style="stroke: #A80036; stroke-width: 1.5;" width="380" x="453" y="41"/><ellipse cx="566.75" cy="57" fill="#ADD1B2" rx="11" ry="11" style="stroke: #A80036; stroke-width: 1.0;"/><path d="M569.7188,62.6406 Q569.1406,62.9375 568.5,63.0781 Q567.8594,63.2344 567.1563,63.2344 Q564.6563,63.2344 563.3281,61.5938 Q562.0156,59.9375 562.0156,56.8125 Q562.0156,53.6875 563.3281,52.0313 Q564.6563,50.375 567.1563,50.375 Q567.8594,50.375 568.5,50.5313 Q569.1563,50.6875 569.7188,50.9844 L569.7188,53.7031 Q569.0938,53.125 568.5,52.8594 Q567.9063,52.5781 567.2813,52.5781 Q565.9375,52.5781 565.25,53.6563 Q564.5625,54.7188 564.5625,56.8125 Q564.5625,58.9063 565.25,59.9844 Q565.9375,61.0469 567.2813,61.0469 Q567.9063,61.0469 568.5,60.7813 Q569.0938,60.5 569.7188,59.9219 L569.7188,62.6406 Z "/><text fill="#000000" font-family="sans-serif" font-size="12" lengthAdjust="spacingAndGlyphs" textLength="144" x="587.25" y="61.1543">CfnNagProcessReports</text><line style="stroke: #A80036; stroke-width: 1.5;" x1="454" x2="832" y1="73" y2="73"/><ellipse cx="464" cy="84" fill="none" rx="3" ry="3" style="stroke: #038048; stroke-width: 1.0;"/><text fill="#000000" font-family="sans-serif" font-size="11" lengthAdjust="spacingAndGlyphs" text-decoration="underline" textLength="155" x="473" y="87.2104">UNDEFINED_FAILURE: String</text><ellipse cx="464" cy="96.8047" fill="none" rx="3" ry="3" style="stroke: #038048; stroke-width: 1.0;"/><text fill="#000000" font-family="sans-serif" font-size="11" lengthAdjust="spacingAndGlyphs" text-decoration="underline" textLength="162" x="473" y="100.0151">UNDEFINED_WARNING: String</text><ellipse cx="464" cy="109.6094" fill="none" rx="3" ry="3" style="stroke: #038048; stroke-width: 1.0;"/><text fill="#000000" font-family="sans-serif" font-size="11" lengthAdjust="spacingAndGlyphs" text-decoration="underline" textLength="189" x="473" y="112.8198">SUPPORTED_RULES: Set&lt;String&gt;</text><line style="stroke: #A80036; stroke-width: 1.5;" x1="454" x2="832" y1="119.4141" y2="119.4141"/><ellipse cx="464" cy="130.4141" fill="#84BE84" rx="3" ry="3" style="stroke: #038048; stroke-width: 1.0;"/><text fill="#000000" font-family="sans-serif" font-size="11" lengthAdjust="spacingAndGlyphs" textLength="283" x="473" y="133.6245">CfnNagProcessReports(FileSystem, PathResolver)</text><ellipse cx="464" cy="143.2188" fill="#84BE84" rx="3" ry="3" style="stroke: #038048; stroke-width: 1.0;"/><text fill="#000000" font-family="sans-serif" font-size="11" lengthAdjust="spacingAndGlyphs" text-decoration="underline" textLength="140" x="473" y="146.4292">hasRule(String): boolean</text><ellipse cx="464" cy="156.0234" fill="#84BE84" rx="3" ry="3" style="stroke: #038048; stroke-width: 1.0;"/><text fill="#000000" font-family="sans-serif" font-size="11" lengthAdjust="spacingAndGlyphs" textLength="354" x="473" y="159.2339">processCfnNagReport(SensorContext, Optional&lt;String&gt;): void</text></a><!--MD5=[17a1a0dba3edaff8452ecb35974a1b72]
class com.hack23.sonar.cloudformation.reports.process.CloudformationConstants--><a href="CloudformationConstants.html" target="_top" title="CloudformationConstants.html" xlink:actuate="onRequest" xlink:href="CloudformationConstants.html" xlink:show="new" xlink:title="CloudformationConstants.html" xlink:type="simple"><rect codeLine="18" fill="#FEFECE" filter="url(#fvb12p1prjsfe)" height="73.6094" id="com.hack23.sonar.cloudformation.reports.process.CloudformationConstants" style="stroke: #A80036; stroke-width: 1.5;" width="272" x="89" y="226"/><ellipse cx="141.25" cy="242" fill="#ADD1B2" rx="11" ry="11" style="stroke: #A80036; stroke-width: 1.0;"/><path d="M144.2188,247.6406 Q143.6406,247.9375 143,248.0781 Q142.3594,248.2344 141.6563,248.2344 Q139.1563,248.2344 137.8281,246.5938 Q136.5156,244.9375 136.5156,241.8125 Q136.5156,238.6875 137.8281,237.0313 Q139.1563,235.375 141.6563,235.375 Q142.3594,235.375 143,235.5313 Q143.6563,235.6875 144.2188,235.9844 L144.2188,238.7031 Q143.5938,238.125 143,237.8594 Q142.4063,237.5781 141.7813,237.5781 Q140.4375,237.5781 139.75,238.6563 Q139.0625,239.7188 139.0625,241.8125 Q139.0625,243.9063 139.75,244.9844 Q140.4375,246.0469 141.7813,246.0469 Q142.4063,246.0469 143,245.7813 Q143.5938,245.5 144.2188,244.9219 L144.2188,247.6406 Z "/><text fill="#000000" font-family="sans-serif" font-size="12" lengthAdjust="spacingAndGlyphs" textLength="159" x="161.75" y="246.1543">CloudformationConstants</text><line style="stroke: #A80036; stroke-width: 1.5;" x1="90" x2="360" y1="258" y2="258"/><ellipse cx="100" cy="269" fill="none" rx="3" ry="3" style="stroke: #038048; stroke-width: 1.0;"/><text fill="#000000" font-family="sans-serif" font-size="11" lengthAdjust="spacingAndGlyphs" text-decoration="underline" textLength="244" x="109" y="272.2104">CFN_NAG_REPORT_FILES_PROPERTY: String</text><ellipse cx="100" cy="281.8047" fill="none" rx="3" ry="3" style="stroke: #038048; stroke-width: 1.0;"/><text fill="#000000" font-family="sans-serif" font-size="11" lengthAdjust="spacingAndGlyphs" text-decoration="underline" textLength="246" x="109" y="285.0151">CHECKOV_REPORT_FILES_PROPERTY: String</text><line style="stroke: #A80036; stroke-width: 1.5;" x1="90" x2="360" y1="291.6094" y2="291.6094"/></a><!--MD5=[abed2ef2e16421c0b3eb0fe8f8a73e21]
link com.hack23.sonar.cloudformation.reports.process.CheckovProcessReports to com.hack23.sonar.cloudformation.reports.process.CfnNagProcessReports--><!--MD5=[1429df78a0f2bc6449339a106c90f897]
link com.hack23.sonar.cloudformation.reports.process.CheckovProcessReports to com.hack23.sonar.cloudformation.reports.process.CloudformationConstants--><text fill="#888888" font-family="sans-serif" font-size="10" lengthAdjust="spacingAndGlyphs" textLength="192" x="330.5" y="331.2822">UMLDoclet 2.0.12, PlantUML 1.2020.16</text><!--MD5=[f1f53cc3a48d404250882a3169adba9d]
@startuml
    namespace com.hack23.sonar.cloudformation.reports.process {

        class CheckovProcessReports [[CheckovProcessReports.html]] {
            {static} +SENSOR_NAME: String
            +CheckovProcessReports(FileSystem, PathResolver)
            +processCheckovReport(SensorContext, Optional<String>): void
        }

        class CfnNagProcessReports [[CfnNagProcessReports.html]] {
            {static} +UNDEFINED_FAILURE: String
            {static} +UNDEFINED_WARNING: String
            {static} +SUPPORTED_RULES: Set<String>
            +CfnNagProcessReports(FileSystem, PathResolver)
            {static} +hasRule(String): boolean
            +processCfnNagReport(SensorContext, Optional<String>): void
        }

        class CloudformationConstants [[CloudformationConstants.html]] {
            {static} +CFN_NAG_REPORT_FILES_PROPERTY: String
            {static} +CHECKOV_REPORT_FILES_PROPERTY: String
        }

    }

    center footer UMLDoclet 2.0.12, PlantUML 1.2020.16
@enduml

PlantUML version 1.2020.16(Sun Aug 23 22:20:43 CEST 2020)
(APACHE source distribution)
Java Runtime: OpenJDK Runtime Environment
JVM: OpenJDK 64-Bit Server VM
Default Encoding: UTF-8
Language: en
Country: US
--></g></svg>