<?xml version="1.0" encoding="UTF-8" standalone="no"?><svg xmlns="http://www.w3.org/2000/svg" xmlns:xlink="http://www.w3.org/1999/xlink" contentStyleType="text/css" height="352px" preserveAspectRatio="none" style="width:1293px;height:352px;background:#FFFFFF;" version="1.1" viewBox="0 0 1293 352" width="1293px" zoomAndPan="magnify"><defs/><g><!--MD5=[a40a5a9732c7a3aaed39d7299cbde308]
cluster com.hack23.sonar.cloudformation.reports.process--><g id="cluster_com.hack23.sonar.cloudformation.reports.process"><path d="M8.5,6 L411.5,6 A3.75,3.75 0 0 1 414,8.5 L421,28.2969 L1283.5,28.2969 A2.5,2.5 0 0 1 1286,30.7969 L1286,324.5 A2.5,2.5 0 0 1 1283.5,327 L8.5,327 A2.5,2.5 0 0 1 6,324.5 L6,8.5 A2.5,2.5 0 0 1 8.5,6 " fill="none" style="stroke:#000000;stroke-width:1.5;"/><line style="stroke:#000000;stroke-width:1.5;" x1="6" x2="421" y1="28.2969" y2="28.2969"/><text fill="#000000" font-family="sans-serif" font-size="14" font-weight="bold" lengthAdjust="spacing" textLength="402" x="10" y="20.9951">com.hack23.sonar.cloudformation.reports.process</text></g><!--MD5=[0479e7f61d508b19cacba66f3c056b1f]
class com.hack23.sonar.cloudformation.reports.process.CfnNagScanReportReader--><a href="CfnNagScanReportReader.html" target="_top" title="CfnNagScanReportReader.html" xlink:actuate="onRequest" xlink:href="CfnNagScanReportReader.html" xlink:show="new" xlink:title="CfnNagScanReportReader.html" xlink:type="simple"><g id="elem_com.hack23.sonar.cloudformation.reports.process.CfnNagScanReportReader"><rect codeLine="3" fill="#F1F1F1" height="64.2969" id="com.hack23.sonar.cloudformation.reports.process.CfnNagScanReportReader" rx="2.5" ry="2.5" style="stroke:#181818;stroke-width:0.5;" width="385" x="22.5" y="65.5"/><ellipse cx="120.25" cy="81.5" fill="#ADD1B2" rx="11" ry="11" style="stroke:#181818;stroke-width:1.0;"/><path d="M123.2188,87.1406 Q122.6406,87.4375 122,87.5781 Q121.3594,87.7344 120.6563,87.7344 Q118.1563,87.7344 116.8281,86.0938 Q115.5156,84.4375 115.5156,81.3125 Q115.5156,78.1875 116.8281,76.5313 Q118.1563,74.875 120.6563,74.875 Q121.3594,74.875 122,75.0313 Q122.6563,75.1875 123.2188,75.4844 L123.2188,78.2031 Q122.5938,77.625 122,77.3594 Q121.4063,77.0781 120.7813,77.0781 Q119.4375,77.0781 118.75,78.1563 Q118.0625,79.2188 118.0625,81.3125 Q118.0625,83.4063 118.75,84.4844 Q119.4375,85.5469 120.7813,85.5469 Q121.4063,85.5469 122,85.2813 Q122.5938,85 123.2188,84.4219 L123.2188,87.1406 Z " fill="#000000"/><text fill="#000000" font-family="sans-serif" font-size="14" lengthAdjust="spacing" textLength="181" x="140.75" y="86.3467">CfnNagScanReportReader</text><line style="stroke:#181818;stroke-width:0.5;" x1="23.5" x2="406.5" y1="97.5" y2="97.5"/><line style="stroke:#181818;stroke-width:0.5;" x1="23.5" x2="406.5" y1="105.5" y2="105.5"/><ellipse cx="33.5" cy="119.1484" fill="#84BE84" rx="3" ry="3" style="stroke:#038048;stroke-width:1.0;"/><text fill="#000000" font-family="sans-serif" font-size="14" lengthAdjust="spacing" textLength="359" x="42.5" y="122.4951">readReport(InputStream): List&lt;CfnNagScanReport&gt;</text></g></a><!--MD5=[17a1a0dba3edaff8452ecb35974a1b72]
class com.hack23.sonar.cloudformation.reports.process.CloudformationConstants--><a href="CloudformationConstants.html" target="_top" title="CloudformationConstants.html" xlink:actuate="onRequest" xlink:href="CloudformationConstants.html" xlink:show="new" xlink:title="CloudformationConstants.html" xlink:type="simple"><g id="elem_com.hack23.sonar.cloudformation.reports.process.CloudformationConstants"><rect codeLine="7" fill="#F1F1F1" height="80.5938" id="com.hack23.sonar.cloudformation.reports.process.CloudformationConstants" rx="2.5" ry="2.5" style="stroke:#181818;stroke-width:0.5;" width="334" x="443" y="57"/><ellipse cx="517.75" cy="73" fill="#ADD1B2" rx="11" ry="11" style="stroke:#181818;stroke-width:1.0;"/><path d="M520.7188,78.6406 Q520.1406,78.9375 519.5,79.0781 Q518.8594,79.2344 518.1563,79.2344 Q515.6563,79.2344 514.3281,77.5938 Q513.0156,75.9375 513.0156,72.8125 Q513.0156,69.6875 514.3281,68.0313 Q515.6563,66.375 518.1563,66.375 Q518.8594,66.375 519.5,66.5313 Q520.1563,66.6875 520.7188,66.9844 L520.7188,69.7031 Q520.0938,69.125 519.5,68.8594 Q518.9063,68.5781 518.2813,68.5781 Q516.9375,68.5781 516.25,69.6563 Q515.5625,70.7188 515.5625,72.8125 Q515.5625,74.9063 516.25,75.9844 Q516.9375,77.0469 518.2813,77.0469 Q518.9063,77.0469 519.5,76.7813 Q520.0938,76.5 520.7188,75.9219 L520.7188,78.6406 Z " fill="#000000"/><text fill="#000000" font-family="sans-serif" font-size="14" lengthAdjust="spacing" textLength="176" x="538.25" y="77.8467">CloudformationConstants</text><line style="stroke:#181818;stroke-width:0.5;" x1="444" x2="776" y1="89" y2="89"/><ellipse cx="454" cy="102.6484" fill="none" rx="3" ry="3" style="stroke:#038048;stroke-width:1.0;"/><text fill="#000000" font-family="sans-serif" font-size="14" lengthAdjust="spacing" text-decoration="underline" textLength="305" x="463" y="105.9951">CFN_NAG_REPORT_FILES_PROPERTY: String</text><ellipse cx="454" cy="118.9453" fill="none" rx="3" ry="3" style="stroke:#038048;stroke-width:1.0;"/><text fill="#000000" font-family="sans-serif" font-size="14" lengthAdjust="spacing" text-decoration="underline" textLength="308" x="463" y="122.292">CHECKOV_REPORT_FILES_PROPERTY: String</text><line style="stroke:#181818;stroke-width:0.5;" x1="444" x2="776" y1="129.5938" y2="129.5938"/></g></a><!--MD5=[3d1a7a2726d9f9a04e578c8ec79fdc9c]
class com.hack23.sonar.cloudformation.reports.process.CfnNagProcessReports--><a href="CfnNagProcessReports.html" target="_top" title="CfnNagProcessReports.html" xlink:actuate="onRequest" xlink:href="CfnNagProcessReports.html" xlink:show="new" xlink:title="CfnNagProcessReports.html" xlink:type="simple"><g id="elem_com.hack23.sonar.cloudformation.reports.process.CfnNagProcessReports"><rect codeLine="12" fill="#F1F1F1" height="113.1875" id="com.hack23.sonar.cloudformation.reports.process.CfnNagProcessReports" rx="2.5" ry="2.5" style="stroke:#181818;stroke-width:0.5;" width="458" x="812" y="41"/><ellipse cx="956.25" cy="57" fill="#ADD1B2" rx="11" ry="11" style="stroke:#181818;stroke-width:1.0;"/><path d="M959.2188,62.6406 Q958.6406,62.9375 958,63.0781 Q957.3594,63.2344 956.6563,63.2344 Q954.1563,63.2344 952.8281,61.5938 Q951.5156,59.9375 951.5156,56.8125 Q951.5156,53.6875 952.8281,52.0313 Q954.1563,50.375 956.6563,50.375 Q957.3594,50.375 958,50.5313 Q958.6563,50.6875 959.2188,50.9844 L959.2188,53.7031 Q958.5938,53.125 958,52.8594 Q957.4063,52.5781 956.7813,52.5781 Q955.4375,52.5781 954.75,53.6563 Q954.0625,54.7188 954.0625,56.8125 Q954.0625,58.9063 954.75,59.9844 Q955.4375,61.0469 956.7813,61.0469 Q957.4063,61.0469 958,60.7813 Q958.5938,60.5 959.2188,59.9219 L959.2188,62.6406 Z " fill="#000000"/><text fill="#000000" font-family="sans-serif" font-size="14" lengthAdjust="spacing" textLength="161" x="976.75" y="61.8467">CfnNagProcessReports</text><line style="stroke:#181818;stroke-width:0.5;" x1="813" x2="1269" y1="73" y2="73"/><ellipse cx="823" cy="86.6484" fill="none" rx="3" ry="3" style="stroke:#038048;stroke-width:1.0;"/><text fill="#000000" font-family="sans-serif" font-size="14" lengthAdjust="spacing" text-decoration="underline" textLength="193" x="832" y="89.9951">UNDEFINED_FAILURE: String</text><ellipse cx="823" cy="102.9453" fill="none" rx="3" ry="3" style="stroke:#038048;stroke-width:1.0;"/><text fill="#000000" font-family="sans-serif" font-size="14" lengthAdjust="spacing" text-decoration="underline" textLength="203" x="832" y="106.292">UNDEFINED_WARNING: String</text><line style="stroke:#181818;stroke-width:0.5;" x1="813" x2="1269" y1="113.5938" y2="113.5938"/><ellipse cx="823" cy="127.2422" fill="#84BE84" rx="3" ry="3" style="stroke:#038048;stroke-width:1.0;"/><text fill="#000000" font-family="sans-serif" font-size="14" lengthAdjust="spacing" textLength="344" x="832" y="130.5889">CfnNagProcessReports(FileSystem, PathResolver)</text><ellipse cx="823" cy="143.5391" fill="#84BE84" rx="3" ry="3" style="stroke:#038048;stroke-width:1.0;"/><text fill="#000000" font-family="sans-serif" font-size="14" lengthAdjust="spacing" textLength="432" x="832" y="146.8857">processCfnNagReport(SensorContext, Optional&lt;String&gt;): void</text></g></a><!--MD5=[a65cfdafc6cf56b2b337cf42dc5bcb7d]
class com.hack23.sonar.cloudformation.reports.process.CheckovReportReader--><a href="CheckovReportReader.html" target="_top" title="CheckovReportReader.html" xlink:actuate="onRequest" xlink:href="CheckovReportReader.html" xlink:show="new" xlink:title="CheckovReportReader.html" xlink:type="simple"><g id="elem_com.hack23.sonar.cloudformation.reports.process.CheckovReportReader"><rect codeLine="19" fill="#F1F1F1" height="64.2969" id="com.hack23.sonar.cloudformation.reports.process.CheckovReportReader" rx="2.5" ry="2.5" style="stroke:#181818;stroke-width:0.5;" width="361" x="34.5" y="230.5"/><ellipse cx="132.25" cy="246.5" fill="#ADD1B2" rx="11" ry="11" style="stroke:#181818;stroke-width:1.0;"/><path d="M135.2188,252.1406 Q134.6406,252.4375 134,252.5781 Q133.3594,252.7344 132.6563,252.7344 Q130.1563,252.7344 128.8281,251.0938 Q127.5156,249.4375 127.5156,246.3125 Q127.5156,243.1875 128.8281,241.5313 Q130.1563,239.875 132.6563,239.875 Q133.3594,239.875 134,240.0313 Q134.6563,240.1875 135.2188,240.4844 L135.2188,243.2031 Q134.5938,242.625 134,242.3594 Q133.4063,242.0781 132.7813,242.0781 Q131.4375,242.0781 130.75,243.1563 Q130.0625,244.2188 130.0625,246.3125 Q130.0625,248.4063 130.75,249.4844 Q131.4375,250.5469 132.7813,250.5469 Q133.4063,250.5469 134,250.2813 Q134.5938,250 135.2188,249.4219 L135.2188,252.1406 Z " fill="#000000"/><text fill="#000000" font-family="sans-serif" font-size="14" lengthAdjust="spacing" textLength="157" x="152.75" y="251.3467">CheckovReportReader</text><line style="stroke:#181818;stroke-width:0.5;" x1="35.5" x2="394.5" y1="262.5" y2="262.5"/><line style="stroke:#181818;stroke-width:0.5;" x1="35.5" x2="394.5" y1="270.5" y2="270.5"/><ellipse cx="45.5" cy="284.1484" fill="#84BE84" rx="3" ry="3" style="stroke:#038048;stroke-width:1.0;"/><text fill="#000000" font-family="sans-serif" font-size="14" lengthAdjust="spacing" textLength="335" x="54.5" y="287.4951">readReport(InputStream): List&lt;CheckovReport&gt;</text></g></a><!--MD5=[45c1dedf81ee90160d834a7bcce62b99]
class com.hack23.sonar.cloudformation.reports.process.CheckovProcessReports--><a href="CheckovProcessReports.html" target="_top" title="CheckovProcessReports.html" xlink:actuate="onRequest" xlink:href="CheckovProcessReports.html" xlink:show="new" xlink:title="CheckovProcessReports.html" xlink:type="simple"><g id="elem_com.hack23.sonar.cloudformation.reports.process.CheckovProcessReports"><rect codeLine="23" fill="#F1F1F1" height="96.8906" id="com.hack23.sonar.cloudformation.reports.process.CheckovProcessReports" rx="2.5" ry="2.5" style="stroke:#181818;stroke-width:0.5;" width="468" x="431" y="214"/><ellipse cx="575.25" cy="230" fill="#ADD1B2" rx="11" ry="11" style="stroke:#181818;stroke-width:1.0;"/><path d="M578.2188,235.6406 Q577.6406,235.9375 577,236.0781 Q576.3594,236.2344 575.6563,236.2344 Q573.1563,236.2344 571.8281,234.5938 Q570.5156,232.9375 570.5156,229.8125 Q570.5156,226.6875 571.8281,225.0313 Q573.1563,223.375 575.6563,223.375 Q576.3594,223.375 577,223.5313 Q577.6563,223.6875 578.2188,223.9844 L578.2188,226.7031 Q577.5938,226.125 577,225.8594 Q576.4063,225.5781 575.7813,225.5781 Q574.4375,225.5781 573.75,226.6563 Q573.0625,227.7188 573.0625,229.8125 Q573.0625,231.9063 573.75,232.9844 Q574.4375,234.0469 575.7813,234.0469 Q576.4063,234.0469 577,233.7813 Q577.5938,233.5 578.2188,232.9219 L578.2188,235.6406 Z " fill="#000000"/><text fill="#000000" font-family="sans-serif" font-size="14" lengthAdjust="spacing" textLength="171" x="595.75" y="234.8467">CheckovProcessReports</text><line style="stroke:#181818;stroke-width:0.5;" x1="432" x2="898" y1="246" y2="246"/><ellipse cx="442" cy="259.6484" fill="none" rx="3" ry="3" style="stroke:#038048;stroke-width:1.0;"/><text fill="#000000" font-family="sans-serif" font-size="14" lengthAdjust="spacing" text-decoration="underline" textLength="154" x="451" y="262.9951">SENSOR_NAME: String</text><line style="stroke:#181818;stroke-width:0.5;" x1="432" x2="898" y1="270.2969" y2="270.2969"/><ellipse cx="442" cy="283.9453" fill="#84BE84" rx="3" ry="3" style="stroke:#038048;stroke-width:1.0;"/><text fill="#000000" font-family="sans-serif" font-size="14" lengthAdjust="spacing" textLength="354" x="451" y="287.292">CheckovProcessReports(FileSystem, PathResolver)</text><ellipse cx="442" cy="300.2422" fill="#84BE84" rx="3" ry="3" style="stroke:#038048;stroke-width:1.0;"/><text fill="#000000" font-family="sans-serif" font-size="14" lengthAdjust="spacing" textLength="442" x="451" y="303.5889">processCheckovReport(SensorContext, Optional&lt;String&gt;): void</text></g></a><rect fill="none" height="11.6406" style="stroke:none;stroke-width:1.0;" width="186" x="546.5" y="333"/><text fill="#888888" font-family="sans-serif" font-size="10" lengthAdjust="spacing" textLength="186" x="546.5" y="342.2822">UMLDoclet 2.0.19, PlantUML 1.2022.8</text><!--MD5=[4386b5a62977d113c73bc69384ea422c]
@startuml
    namespace com.hack23.sonar.cloudformation.reports.process {

        class CfnNagScanReportReader [[CfnNagScanReportReader.html]] {
            +readReport(InputStream): List<CfnNagScanReport>
        }

        class CloudformationConstants [[CloudformationConstants.html]] {
            {static} +CFN_NAG_REPORT_FILES_PROPERTY: String
            {static} +CHECKOV_REPORT_FILES_PROPERTY: String
        }

        class CfnNagProcessReports [[CfnNagProcessReports.html]] {
            {static} +UNDEFINED_FAILURE: String
            {static} +UNDEFINED_WARNING: String
            +CfnNagProcessReports(FileSystem, PathResolver)
            +processCfnNagReport(SensorContext, Optional<String>): void
        }

        class CheckovReportReader [[CheckovReportReader.html]] {
            +readReport(InputStream): List<CheckovReport>
        }

        class CheckovProcessReports [[CheckovProcessReports.html]] {
            {static} +SENSOR_NAME: String
            +CheckovProcessReports(FileSystem, PathResolver)
            +processCheckovReport(SensorContext, Optional<String>): void
        }

    }

    center footer UMLDoclet 2.0.19, PlantUML 1.2022.8
@enduml

PlantUML version 1.2022.8(Sun Sep 25 11:00:33 CEST 2022)
(APACHE source distribution)
Java Runtime: OpenJDK Runtime Environment
JVM: OpenJDK 64-Bit Server VM
Default Encoding: ANSI_X3.4-1968
Language: en
Country: US
--></g></svg>