<?xml version="1.0" encoding="UTF-8" standalone="no"?><svg xmlns="http://www.w3.org/2000/svg" xmlns:xlink="http://www.w3.org/1999/xlink" contentScriptType="application/ecmascript" contentStyleType="text/css" height="351px" preserveAspectRatio="none" style="width:1138px;height:351px;background:#FFFFFF;" version="1.1" viewBox="0 0 1138 351" width="1138px" zoomAndPan="magnify"><defs><filter height="300%" id="fczu7mqhsklhy" width="300%" x="-1" y="-1"><feGaussianBlur result="blurOut" stdDeviation="2.0"/><feColorMatrix in="blurOut" result="blurOut2" type="matrix" values="0 0 0 0 0 0 0 0 0 0 0 0 0 0 0 0 0 0 .4 0"/><feOffset dx="4.0" dy="4.0" in="blurOut2" result="blurOut3"/><feBlend in="SourceGraphic" in2="blurOut3" mode="normal"/></filter></defs><g><!--MD5=[a40a5a9732c7a3aaed39d7299cbde308]
cluster com.hack23.sonar.cloudformation.reports.process--><polygon fill="#FFFFFF" filter="url(#fczu7mqhsklhy)" points="16,6,424,6,431,28.2969,1121,28.2969,1121,328,16,328,16,6" style="stroke:#000000;stroke-width:1.5;"/><line style="stroke:#000000;stroke-width:1.5;" x1="16" x2="431" y1="28.2969" y2="28.2969"/><text fill="#000000" font-family="sans-serif" font-size="14" font-weight="bold" lengthAdjust="spacing" textLength="402" x="20" y="20.9951">com.hack23.sonar.cloudformation.reports.process</text><!--MD5=[45c1dedf81ee90160d834a7bcce62b99]
class com.hack23.sonar.cloudformation.reports.process.CheckovProcessReports--><a href="CheckovProcessReports.html" target="_top" title="CheckovProcessReports.html" xlink:actuate="onRequest" xlink:href="CheckovProcessReports.html" xlink:show="new" xlink:title="CheckovProcessReports.html" xlink:type="simple"><rect codeLine="3" fill="#FEFECE" filter="url(#fczu7mqhsklhy)" height="86.4141" id="com.hack23.sonar.cloudformation.reports.process.CheckovProcessReports" style="stroke:#A80036;stroke-width:1.5;" width="386" x="32" y="41"/><ellipse cx="145.25" cy="57" fill="#ADD1B2" rx="11" ry="11" style="stroke:#A80036;stroke-width:1.0;"/><path d="M148.2188,62.6406 Q147.6406,62.9375 147,63.0781 Q146.3594,63.2344 145.6563,63.2344 Q143.1563,63.2344 141.8281,61.5938 Q140.5156,59.9375 140.5156,56.8125 Q140.5156,53.6875 141.8281,52.0313 Q143.1563,50.375 145.6563,50.375 Q146.3594,50.375 147,50.5313 Q147.6563,50.6875 148.2188,50.9844 L148.2188,53.7031 Q147.5938,53.125 147,52.8594 Q146.4063,52.5781 145.7813,52.5781 Q144.4375,52.5781 143.75,53.6563 Q143.0625,54.7188 143.0625,56.8125 Q143.0625,58.9063 143.75,59.9844 Q144.4375,61.0469 145.7813,61.0469 Q146.4063,61.0469 147,60.7813 Q147.5938,60.5 148.2188,59.9219 L148.2188,62.6406 Z " fill="#000000"/><text fill="#000000" font-family="sans-serif" font-size="12" lengthAdjust="spacing" textLength="151" x="165.75" y="61.1543">CheckovProcessReports</text><line style="stroke:#A80036;stroke-width:1.5;" x1="33" x2="417" y1="73" y2="73"/><ellipse cx="43" cy="84" rx="3" ry="3" style="stroke:#038048;stroke-width:1.0;fill:none;"/><text fill="#000000" font-family="sans-serif" font-size="11" lengthAdjust="spacing" text-decoration="underline" textLength="126" x="52" y="87.2104">SENSOR_NAME: String</text><line style="stroke:#A80036;stroke-width:1.5;" x1="33" x2="417" y1="93.8047" y2="93.8047"/><ellipse cx="43" cy="104.8047" fill="#84BE84" rx="3" ry="3" style="stroke:#038048;stroke-width:1.0;"/><text fill="#000000" font-family="sans-serif" font-size="11" lengthAdjust="spacing" textLength="289" x="52" y="108.0151">CheckovProcessReports(FileSystem, PathResolver)</text><ellipse cx="43" cy="117.6094" fill="#84BE84" rx="3" ry="3" style="stroke:#038048;stroke-width:1.0;"/><text fill="#000000" font-family="sans-serif" font-size="11" lengthAdjust="spacing" textLength="360" x="52" y="120.8198">processCheckovReport(SensorContext, Optional&lt;String&gt;): void</text></a><!--MD5=[a65cfdafc6cf56b2b337cf42dc5bcb7d]
class com.hack23.sonar.cloudformation.reports.process.CheckovReportReader--><a href="CheckovReportReader.html" target="_top" title="CheckovReportReader.html" xlink:actuate="onRequest" xlink:href="CheckovReportReader.html" xlink:show="new" xlink:title="CheckovReportReader.html" xlink:type="simple"><rect codeLine="9" fill="#FEFECE" filter="url(#fczu7mqhsklhy)" height="60.8047" id="com.hack23.sonar.cloudformation.reports.process.CheckovReportReader" style="stroke:#A80036;stroke-width:1.5;" width="297" x="453.5" y="53.5"/><ellipse cx="528.25" cy="69.5" fill="#ADD1B2" rx="11" ry="11" style="stroke:#A80036;stroke-width:1.0;"/><path d="M531.2188,75.1406 Q530.6406,75.4375 530,75.5781 Q529.3594,75.7344 528.6563,75.7344 Q526.1563,75.7344 524.8281,74.0938 Q523.5156,72.4375 523.5156,69.3125 Q523.5156,66.1875 524.8281,64.5313 Q526.1563,62.875 528.6563,62.875 Q529.3594,62.875 530,63.0313 Q530.6563,63.1875 531.2188,63.4844 L531.2188,66.2031 Q530.5938,65.625 530,65.3594 Q529.4063,65.0781 528.7813,65.0781 Q527.4375,65.0781 526.75,66.1563 Q526.0625,67.2188 526.0625,69.3125 Q526.0625,71.4063 526.75,72.4844 Q527.4375,73.5469 528.7813,73.5469 Q529.4063,73.5469 530,73.2813 Q530.5938,73 531.2188,72.4219 L531.2188,75.1406 Z " fill="#000000"/><text fill="#000000" font-family="sans-serif" font-size="12" lengthAdjust="spacing" textLength="139" x="548.75" y="73.6543">CheckovReportReader</text><line style="stroke:#A80036;stroke-width:1.5;" x1="454.5" x2="749.5" y1="85.5" y2="85.5"/><line style="stroke:#A80036;stroke-width:1.5;" x1="454.5" x2="749.5" y1="93.5" y2="93.5"/><ellipse cx="464.5" cy="104.5" fill="#84BE84" rx="3" ry="3" style="stroke:#038048;stroke-width:1.0;"/><text fill="#000000" font-family="sans-serif" font-size="11" lengthAdjust="spacing" textLength="271" x="473.5" y="107.7104">readReport(InputStream): List&lt;CheckovReport&gt;</text></a><!--MD5=[0479e7f61d508b19cacba66f3c056b1f]
class com.hack23.sonar.cloudformation.reports.process.CfnNagScanReportReader--><a href="CfnNagScanReportReader.html" target="_top" title="CfnNagScanReportReader.html" xlink:actuate="onRequest" xlink:href="CfnNagScanReportReader.html" xlink:show="new" xlink:title="CfnNagScanReportReader.html" xlink:type="simple"><rect codeLine="13" fill="#FEFECE" filter="url(#fczu7mqhsklhy)" height="60.8047" id="com.hack23.sonar.cloudformation.reports.process.CfnNagScanReportReader" style="stroke:#A80036;stroke-width:1.5;" width="319" x="785.5" y="53.5"/><ellipse cx="859.25" cy="69.5" fill="#ADD1B2" rx="11" ry="11" style="stroke:#A80036;stroke-width:1.0;"/><path d="M862.2188,75.1406 Q861.6406,75.4375 861,75.5781 Q860.3594,75.7344 859.6563,75.7344 Q857.1563,75.7344 855.8281,74.0938 Q854.5156,72.4375 854.5156,69.3125 Q854.5156,66.1875 855.8281,64.5313 Q857.1563,62.875 859.6563,62.875 Q860.3594,62.875 861,63.0313 Q861.6563,63.1875 862.2188,63.4844 L862.2188,66.2031 Q861.5938,65.625 861,65.3594 Q860.4063,65.0781 859.7813,65.0781 Q858.4375,65.0781 857.75,66.1563 Q857.0625,67.2188 857.0625,69.3125 Q857.0625,71.4063 857.75,72.4844 Q858.4375,73.5469 859.7813,73.5469 Q860.4063,73.5469 861,73.2813 Q861.5938,73 862.2188,72.4219 L862.2188,75.1406 Z " fill="#000000"/><text fill="#000000" font-family="sans-serif" font-size="12" lengthAdjust="spacing" textLength="163" x="879.75" y="73.6543">CfnNagScanReportReader</text><line style="stroke:#A80036;stroke-width:1.5;" x1="786.5" x2="1103.5" y1="85.5" y2="85.5"/><line style="stroke:#A80036;stroke-width:1.5;" x1="786.5" x2="1103.5" y1="93.5" y2="93.5"/><ellipse cx="796.5" cy="104.5" fill="#84BE84" rx="3" ry="3" style="stroke:#038048;stroke-width:1.0;"/><text fill="#000000" font-family="sans-serif" font-size="11" lengthAdjust="spacing" textLength="293" x="805.5" y="107.7104">readReport(InputStream): List&lt;CfnNagScanReport&gt;</text></a><!--MD5=[3d1a7a2726d9f9a04e578c8ec79fdc9c]
class com.hack23.sonar.cloudformation.reports.process.CfnNagProcessReports--><a href="CfnNagProcessReports.html" target="_top" title="CfnNagProcessReports.html" xlink:actuate="onRequest" xlink:href="CfnNagProcessReports.html" xlink:show="new" xlink:title="CfnNagProcessReports.html" xlink:type="simple"><rect codeLine="17" fill="#FEFECE" filter="url(#fczu7mqhsklhy)" height="124.8281" id="com.hack23.sonar.cloudformation.reports.process.CfnNagProcessReports" style="stroke:#A80036;stroke-width:1.5;" width="380" x="35" y="187"/><ellipse cx="148.75" cy="203" fill="#ADD1B2" rx="11" ry="11" style="stroke:#A80036;stroke-width:1.0;"/><path d="M151.7188,208.6406 Q151.1406,208.9375 150.5,209.0781 Q149.8594,209.2344 149.1563,209.2344 Q146.6563,209.2344 145.3281,207.5938 Q144.0156,205.9375 144.0156,202.8125 Q144.0156,199.6875 145.3281,198.0313 Q146.6563,196.375 149.1563,196.375 Q149.8594,196.375 150.5,196.5313 Q151.1563,196.6875 151.7188,196.9844 L151.7188,199.7031 Q151.0938,199.125 150.5,198.8594 Q149.9063,198.5781 149.2813,198.5781 Q147.9375,198.5781 147.25,199.6563 Q146.5625,200.7188 146.5625,202.8125 Q146.5625,204.9063 147.25,205.9844 Q147.9375,207.0469 149.2813,207.0469 Q149.9063,207.0469 150.5,206.7813 Q151.0938,206.5 151.7188,205.9219 L151.7188,208.6406 Z " fill="#000000"/><text fill="#000000" font-family="sans-serif" font-size="12" lengthAdjust="spacing" textLength="144" x="169.25" y="207.1543">CfnNagProcessReports</text><line style="stroke:#A80036;stroke-width:1.5;" x1="36" x2="414" y1="219" y2="219"/><ellipse cx="46" cy="230" rx="3" ry="3" style="stroke:#038048;stroke-width:1.0;fill:none;"/><text fill="#000000" font-family="sans-serif" font-size="11" lengthAdjust="spacing" text-decoration="underline" textLength="189" x="55" y="233.2104">SUPPORTED_RULES: Set&lt;String&gt;</text><ellipse cx="46" cy="242.8047" rx="3" ry="3" style="stroke:#038048;stroke-width:1.0;fill:none;"/><text fill="#000000" font-family="sans-serif" font-size="11" lengthAdjust="spacing" text-decoration="underline" textLength="155" x="55" y="246.0151">UNDEFINED_FAILURE: String</text><ellipse cx="46" cy="255.6094" rx="3" ry="3" style="stroke:#038048;stroke-width:1.0;fill:none;"/><text fill="#000000" font-family="sans-serif" font-size="11" lengthAdjust="spacing" text-decoration="underline" textLength="162" x="55" y="258.8198">UNDEFINED_WARNING: String</text><line style="stroke:#A80036;stroke-width:1.5;" x1="36" x2="414" y1="265.4141" y2="265.4141"/><ellipse cx="46" cy="276.4141" fill="#84BE84" rx="3" ry="3" style="stroke:#038048;stroke-width:1.0;"/><text fill="#000000" font-family="sans-serif" font-size="11" lengthAdjust="spacing" textLength="283" x="55" y="279.6245">CfnNagProcessReports(FileSystem, PathResolver)</text><ellipse cx="46" cy="289.2188" fill="#84BE84" rx="3" ry="3" style="stroke:#038048;stroke-width:1.0;"/><text fill="#000000" font-family="sans-serif" font-size="11" lengthAdjust="spacing" text-decoration="underline" textLength="140" x="55" y="292.4292">hasRule(String): boolean</text><ellipse cx="46" cy="302.0234" fill="#84BE84" rx="3" ry="3" style="stroke:#038048;stroke-width:1.0;"/><text fill="#000000" font-family="sans-serif" font-size="11" lengthAdjust="spacing" textLength="354" x="55" y="305.2339">processCfnNagReport(SensorContext, Optional&lt;String&gt;): void</text></a><!--MD5=[17a1a0dba3edaff8452ecb35974a1b72]
class com.hack23.sonar.cloudformation.reports.process.CloudformationConstants--><a href="CloudformationConstants.html" target="_top" title="CloudformationConstants.html" xlink:actuate="onRequest" xlink:href="CloudformationConstants.html" xlink:show="new" xlink:title="CloudformationConstants.html" xlink:type="simple"><rect codeLine="26" fill="#FEFECE" filter="url(#fczu7mqhsklhy)" height="73.6094" id="com.hack23.sonar.cloudformation.reports.process.CloudformationConstants" style="stroke:#A80036;stroke-width:1.5;" width="272" x="450" y="212.5"/><ellipse cx="502.25" cy="228.5" fill="#ADD1B2" rx="11" ry="11" style="stroke:#A80036;stroke-width:1.0;"/><path d="M505.2188,234.1406 Q504.6406,234.4375 504,234.5781 Q503.3594,234.7344 502.6563,234.7344 Q500.1563,234.7344 498.8281,233.0938 Q497.5156,231.4375 497.5156,228.3125 Q497.5156,225.1875 498.8281,223.5313 Q500.1563,221.875 502.6563,221.875 Q503.3594,221.875 504,222.0313 Q504.6563,222.1875 505.2188,222.4844 L505.2188,225.2031 Q504.5938,224.625 504,224.3594 Q503.4063,224.0781 502.7813,224.0781 Q501.4375,224.0781 500.75,225.1563 Q500.0625,226.2188 500.0625,228.3125 Q500.0625,230.4063 500.75,231.4844 Q501.4375,232.5469 502.7813,232.5469 Q503.4063,232.5469 504,232.2813 Q504.5938,232 505.2188,231.4219 L505.2188,234.1406 Z " fill="#000000"/><text fill="#000000" font-family="sans-serif" font-size="12" lengthAdjust="spacing" textLength="159" x="522.75" y="232.6543">CloudformationConstants</text><line style="stroke:#A80036;stroke-width:1.5;" x1="451" x2="721" y1="244.5" y2="244.5"/><ellipse cx="461" cy="255.5" rx="3" ry="3" style="stroke:#038048;stroke-width:1.0;fill:none;"/><text fill="#000000" font-family="sans-serif" font-size="11" lengthAdjust="spacing" text-decoration="underline" textLength="244" x="470" y="258.7104">CFN_NAG_REPORT_FILES_PROPERTY: String</text><ellipse cx="461" cy="268.3047" rx="3" ry="3" style="stroke:#038048;stroke-width:1.0;fill:none;"/><text fill="#000000" font-family="sans-serif" font-size="11" lengthAdjust="spacing" text-decoration="underline" textLength="246" x="470" y="271.5151">CHECKOV_REPORT_FILES_PROPERTY: String</text><line style="stroke:#A80036;stroke-width:1.5;" x1="451" x2="721" y1="278.1094" y2="278.1094"/></a><!--MD5=[3cfb44042d48d9f7fa8fdc95f014b2f5]
link com.hack23.sonar.cloudformation.reports.process.CheckovProcessReports to com.hack23.sonar.cloudformation.reports.process.CheckovReportReader--><!--MD5=[e291c43eeb11a260cf9e2da03c15be1e]
link com.hack23.sonar.cloudformation.reports.process.CheckovReportReader to com.hack23.sonar.cloudformation.reports.process.CfnNagScanReportReader--><!--MD5=[abed2ef2e16421c0b3eb0fe8f8a73e21]
link com.hack23.sonar.cloudformation.reports.process.CheckovProcessReports to com.hack23.sonar.cloudformation.reports.process.CfnNagProcessReports--><!--MD5=[ef8d594ad3ca1adb4a443272a9d3b03d]
link com.hack23.sonar.cloudformation.reports.process.CfnNagProcessReports to com.hack23.sonar.cloudformation.reports.process.CloudformationConstants--><text fill="#888888" font-family="sans-serif" font-size="10" lengthAdjust="spacing" textLength="186" x="469.5" y="343.2822">UMLDoclet 2.0.14, PlantUML 1.2021.9</text><!--MD5=[25e30a8a6d84a42ef0a5f6a370679858]
@startuml
    namespace com.hack23.sonar.cloudformation.reports.process {

        class CheckovProcessReports [[CheckovProcessReports.html]] {
            {static} +SENSOR_NAME: String
            +CheckovProcessReports(FileSystem, PathResolver)
            +processCheckovReport(SensorContext, Optional<String>): void
        }

        class CheckovReportReader [[CheckovReportReader.html]] {
            +readReport(InputStream): List<CheckovReport>
        }

        class CfnNagScanReportReader [[CfnNagScanReportReader.html]] {
            +readReport(InputStream): List<CfnNagScanReport>
        }

        class CfnNagProcessReports [[CfnNagProcessReports.html]] {
            {static} +SUPPORTED_RULES: Set<String>
            {static} +UNDEFINED_FAILURE: String
            {static} +UNDEFINED_WARNING: String
            +CfnNagProcessReports(FileSystem, PathResolver)
            {static} +hasRule(String): boolean
            +processCfnNagReport(SensorContext, Optional<String>): void
        }

        class CloudformationConstants [[CloudformationConstants.html]] {
            {static} +CFN_NAG_REPORT_FILES_PROPERTY: String
            {static} +CHECKOV_REPORT_FILES_PROPERTY: String
        }

    }

    center footer UMLDoclet 2.0.14, PlantUML 1.2021.9
@enduml

PlantUML version 1.2021.9(Sun Jul 25 12:13:56 CEST 2021)
(APACHE source distribution)
Java Runtime: OpenJDK Runtime Environment
JVM: OpenJDK 64-Bit Server VM
Default Encoding: UTF-8
Language: en
Country: US
--></g></svg>