<?xml version="1.0" encoding="UTF-8" standalone="no"?><svg xmlns="http://www.w3.org/2000/svg" xmlns:xlink="http://www.w3.org/1999/xlink" contentScriptType="application/ecmascript" contentStyleType="text/css" height="267px" preserveAspectRatio="none" style="width:684px;height:267px;" version="1.1" viewBox="0 0 684 267" width="684px" zoomAndPan="magnify"><defs><filter height="300%" id="f1920s5wsletpf" width="300%" x="-1" y="-1"><feGaussianBlur result="blurOut" stdDeviation="2.0"/><feColorMatrix in="blurOut" result="blurOut2" type="matrix" values="0 0 0 0 0 0 0 0 0 0 0 0 0 0 0 0 0 0 .4 0"/><feOffset dx="4.0" dy="4.0" in="blurOut2" result="blurOut3"/><feBlend in="SourceGraphic" in2="blurOut3" mode="normal"/></filter></defs><g><!--MD5=[86c23535cef0a670b36a74106e524e06]
cluster com.hack23.sonar.cloudformation.reports.read--><polygon fill="#FFFFFF" filter="url(#f1920s5wsletpf)" points="16,6,396,6,403,28.2969,662,28.2969,662,239,16,239,16,6" style="stroke: #000000; stroke-width: 1.5;"/><line style="stroke: #000000; stroke-width: 1.5;" x1="16" x2="403" y1="28.2969" y2="28.2969"/><text fill="#000000" font-family="sans-serif" font-size="14" font-weight="bold" lengthAdjust="spacingAndGlyphs" textLength="374" x="20" y="20.9951">com.hack23.sonar.cloudformation.reports.read</text><!--MD5=[c2b3e8f2e2bf81389f746d74438a2913]
class com.hack23.sonar.cloudformation.reports.read.CheckovReportReader--><a href="CheckovReportReader.html" target="_top" title="CheckovReportReader.html" xlink:actuate="onRequest" xlink:href="CheckovReportReader.html" xlink:show="new" xlink:title="CheckovReportReader.html" xlink:type="simple"><rect codeLine="3" fill="#FEFECE" filter="url(#f1920s5wsletpf)" height="60.8047" id="com.hack23.sonar.cloudformation.reports.read.CheckovReportReader" style="stroke: #A80036; stroke-width: 1.5;" width="259" x="32.5" y="41"/><ellipse cx="88.25" cy="57" fill="#ADD1B2" rx="11" ry="11" style="stroke: #A80036; stroke-width: 1.0;"/><path d="M91.2188,62.6406 Q90.6406,62.9375 90,63.0781 Q89.3594,63.2344 88.6563,63.2344 Q86.1563,63.2344 84.8281,61.5938 Q83.5156,59.9375 83.5156,56.8125 Q83.5156,53.6875 84.8281,52.0313 Q86.1563,50.375 88.6563,50.375 Q89.3594,50.375 90,50.5313 Q90.6563,50.6875 91.2188,50.9844 L91.2188,53.7031 Q90.5938,53.125 90,52.8594 Q89.4063,52.5781 88.7813,52.5781 Q87.4375,52.5781 86.75,53.6563 Q86.0625,54.7188 86.0625,56.8125 Q86.0625,58.9063 86.75,59.9844 Q87.4375,61.0469 88.7813,61.0469 Q89.4063,61.0469 90,60.7813 Q90.5938,60.5 91.2188,59.9219 L91.2188,62.6406 Z "/><text fill="#000000" font-family="sans-serif" font-size="12" lengthAdjust="spacingAndGlyphs" textLength="139" x="108.75" y="61.1543">CheckovReportReader</text><line style="stroke: #A80036; stroke-width: 1.5;" x1="33.5" x2="290.5" y1="73" y2="73"/><line style="stroke: #A80036; stroke-width: 1.5;" x1="33.5" x2="290.5" y1="81" y2="81"/><ellipse cx="43.5" cy="92" fill="#84BE84" rx="3" ry="3" style="stroke: #038048; stroke-width: 1.0;"/><text fill="#000000" font-family="sans-serif" font-size="11" lengthAdjust="spacingAndGlyphs" textLength="233" x="52.5" y="95.2104">readReport(InputStream): CheckovReport</text></a><!--MD5=[4d16e448843df6520db8fb4807ec93d3]
class com.hack23.sonar.cloudformation.reports.read.CfnNagScanReportReader--><a href="CfnNagScanReportReader.html" target="_top" title="CfnNagScanReportReader.html" xlink:actuate="onRequest" xlink:href="CfnNagScanReportReader.html" xlink:show="new" xlink:title="CfnNagScanReportReader.html" xlink:type="simple"><rect codeLine="7" fill="#FEFECE" filter="url(#f1920s5wsletpf)" height="60.8047" id="com.hack23.sonar.cloudformation.reports.read.CfnNagScanReportReader" style="stroke: #A80036; stroke-width: 1.5;" width="319" x="326.5" y="41"/><ellipse cx="400.25" cy="57" fill="#ADD1B2" rx="11" ry="11" style="stroke: #A80036; stroke-width: 1.0;"/><path d="M403.2188,62.6406 Q402.6406,62.9375 402,63.0781 Q401.3594,63.2344 400.6563,63.2344 Q398.1563,63.2344 396.8281,61.5938 Q395.5156,59.9375 395.5156,56.8125 Q395.5156,53.6875 396.8281,52.0313 Q398.1563,50.375 400.6563,50.375 Q401.3594,50.375 402,50.5313 Q402.6563,50.6875 403.2188,50.9844 L403.2188,53.7031 Q402.5938,53.125 402,52.8594 Q401.4063,52.5781 400.7813,52.5781 Q399.4375,52.5781 398.75,53.6563 Q398.0625,54.7188 398.0625,56.8125 Q398.0625,58.9063 398.75,59.9844 Q399.4375,61.0469 400.7813,61.0469 Q401.4063,61.0469 402,60.7813 Q402.5938,60.5 403.2188,59.9219 L403.2188,62.6406 Z "/><text fill="#000000" font-family="sans-serif" font-size="12" lengthAdjust="spacingAndGlyphs" textLength="163" x="420.75" y="61.1543">CfnNagScanReportReader</text><line style="stroke: #A80036; stroke-width: 1.5;" x1="327.5" x2="644.5" y1="73" y2="73"/><line style="stroke: #A80036; stroke-width: 1.5;" x1="327.5" x2="644.5" y1="81" y2="81"/><ellipse cx="337.5" cy="92" fill="#84BE84" rx="3" ry="3" style="stroke: #038048; stroke-width: 1.0;"/><text fill="#000000" font-family="sans-serif" font-size="11" lengthAdjust="spacingAndGlyphs" textLength="293" x="346.5" y="95.2104">readReport(InputStream): List&lt;CfnNagScanReport&gt;</text></a><!--MD5=[8f220a6a0346e7faf0e4b2fe263cfc0a]
class com.hack23.sonar.cloudformation.reports.read.CfnNagReportReader--><a href="CfnNagReportReader.html" target="_top" title="CfnNagReportReader.html" xlink:actuate="onRequest" xlink:href="CfnNagReportReader.html" xlink:show="new" xlink:title="CfnNagReportReader.html" xlink:type="simple"><rect codeLine="11" fill="#FEFECE" filter="url(#f1920s5wsletpf)" height="60.8047" id="com.hack23.sonar.cloudformation.reports.read.CfnNagReportReader" style="stroke: #A80036; stroke-width: 1.5;" width="253" x="35.5" y="162"/><ellipse cx="91.75" cy="178" fill="#ADD1B2" rx="11" ry="11" style="stroke: #A80036; stroke-width: 1.0;"/><path d="M94.7188,183.6406 Q94.1406,183.9375 93.5,184.0781 Q92.8594,184.2344 92.1563,184.2344 Q89.6563,184.2344 88.3281,182.5938 Q87.0156,180.9375 87.0156,177.8125 Q87.0156,174.6875 88.3281,173.0313 Q89.6563,171.375 92.1563,171.375 Q92.8594,171.375 93.5,171.5313 Q94.1563,171.6875 94.7188,171.9844 L94.7188,174.7031 Q94.0938,174.125 93.5,173.8594 Q92.9063,173.5781 92.2813,173.5781 Q90.9375,173.5781 90.25,174.6563 Q89.5625,175.7188 89.5625,177.8125 Q89.5625,179.9063 90.25,180.9844 Q90.9375,182.0469 92.2813,182.0469 Q92.9063,182.0469 93.5,181.7813 Q94.0938,181.5 94.7188,180.9219 L94.7188,183.6406 Z "/><text fill="#000000" font-family="sans-serif" font-size="12" lengthAdjust="spacingAndGlyphs" textLength="132" x="112.25" y="182.1543">CfnNagReportReader</text><line style="stroke: #A80036; stroke-width: 1.5;" x1="36.5" x2="287.5" y1="194" y2="194"/><line style="stroke: #A80036; stroke-width: 1.5;" x1="36.5" x2="287.5" y1="202" y2="202"/><ellipse cx="46.5" cy="213" fill="#84BE84" rx="3" ry="3" style="stroke: #038048; stroke-width: 1.0;"/><text fill="#000000" font-family="sans-serif" font-size="11" lengthAdjust="spacingAndGlyphs" textLength="227" x="55.5" y="216.2104">readReport(InputStream): CfnNagReport</text></a><!--MD5=[040f0a3e90e07e509d59a5a0b3eab0ac]
link com.hack23.sonar.cloudformation.reports.read.CheckovReportReader to com.hack23.sonar.cloudformation.reports.read.CfnNagScanReportReader--><!--MD5=[79aa3f03b697f5f53dec9c55dcf95562]
link com.hack23.sonar.cloudformation.reports.read.CheckovReportReader to com.hack23.sonar.cloudformation.reports.read.CfnNagReportReader--><text fill="#888888" font-family="sans-serif" font-size="10" lengthAdjust="spacingAndGlyphs" textLength="192" x="237" y="254.2822">UMLDoclet 2.0.12, PlantUML 1.2020.16</text><!--MD5=[a82ea3a23d7d05cfba4954b9f26e4401]
@startuml
    namespace com.hack23.sonar.cloudformation.reports.read {

        class CheckovReportReader [[CheckovReportReader.html]] {
            +readReport(InputStream): CheckovReport
        }

        class CfnNagScanReportReader [[CfnNagScanReportReader.html]] {
            +readReport(InputStream): List<CfnNagScanReport>
        }

        class CfnNagReportReader [[CfnNagReportReader.html]] {
            +readReport(InputStream): CfnNagReport
        }

    }

    center footer UMLDoclet 2.0.12, PlantUML 1.2020.16
@enduml

PlantUML version 1.2020.16(Sun Aug 23 22:20:43 CEST 2020)
(APACHE source distribution)
Java Runtime: OpenJDK Runtime Environment
JVM: OpenJDK 64-Bit Server VM
Default Encoding: UTF-8
Language: en
Country: US
--></g></svg>