<?xml version="1.0" encoding="UTF-8" standalone="no"?><svg xmlns="http://www.w3.org/2000/svg" xmlns:xlink="http://www.w3.org/1999/xlink" contentScriptType="application/ecmascript" contentStyleType="text/css" height="214px" preserveAspectRatio="none" style="width:291px;height:214px;" version="1.1" viewBox="0 0 291 214" width="291px" zoomAndPan="magnify"><defs><filter height="300%" id="f1mc6iwvc9z8z8" width="300%" x="-1" y="-1"><feGaussianBlur result="blurOut" stdDeviation="2.0"/><feColorMatrix in="blurOut" result="blurOut2" type="matrix" values="0 0 0 0 0 0 0 0 0 0 0 0 0 0 0 0 0 0 .4 0"/><feOffset dx="4.0" dy="4.0" in="blurOut2" result="blurOut3"/><feBlend in="SourceGraphic" in2="blurOut3" mode="normal"/></filter></defs><g><!--class com.hack23.sonar.cloudformation.parser.CfnNagViolation--><a href="CfnNagViolation.html" target="_top" xlink:actuate="onRequest" xlink:show="new" xlink:title="CfnNagViolation.html" xlink:type="simple"><rect fill="#FEFECE" filter="url(#f1mc6iwvc9z8z8)" height="173.9844" id="com.hack23.sonar.cloudformation.parser.CfnNagViolation" style="stroke: #A80036; stroke-width: 1.5;" width="274" x="6" y="8"/><ellipse cx="40.8" cy="26.9688" fill="#ADD1B2" rx="11" ry="11" style="stroke: #A80036; stroke-width: 1.0;"/><path d="M43.7688,32.6094 Q43.1906,32.9063 42.55,33.0469 Q41.9094,33.2031 41.2063,33.2031 Q38.7063,33.2031 37.3781,31.5625 Q36.0656,29.9063 36.0656,26.7813 Q36.0656,23.6563 37.3781,22 Q38.7063,20.3438 41.2063,20.3438 Q41.9094,20.3438 42.55,20.5 Q43.2063,20.6563 43.7688,20.9531 L43.7688,23.6719 Q43.1438,23.0938 42.55,22.8281 Q41.9563,22.5469 41.3313,22.5469 Q39.9875,22.5469 39.3,23.625 Q38.6125,24.6875 38.6125,26.7813 Q38.6125,28.875 39.3,29.9531 Q39.9875,31.0156 41.3313,31.0156 Q41.9563,31.0156 42.55,30.75 Q43.1438,30.4688 43.7688,29.8906 L43.7688,32.6094 Z "/><text fill="#000000" font-family="sans-serif" font-size="14" lengthAdjust="spacingAndGlyphs" textLength="108" x="104.2" y="25.9951">CfnNagViolation</text><text fill="#000000" font-family="sans-serif" font-size="10" lengthAdjust="spacingAndGlyphs" textLength="198" x="59.2" y="38.5791">com.hack23.sonar.cloudformation.parser</text><line style="stroke: #A80036; stroke-width: 1.5;" x1="7" x2="279" y1="45.9375" y2="45.9375"/><ellipse cx="17" cy="57.8398" fill="#84BE84" rx="3" ry="3" style="stroke: #038048; stroke-width: 1.0;"/><text fill="#000000" font-family="sans-serif" font-size="11" lengthAdjust="spacingAndGlyphs" textLength="78" x="26" y="60.1479">getId(): String</text><ellipse cx="17" cy="70.6445" fill="#84BE84" rx="3" ry="3" style="stroke: #038048; stroke-width: 1.0;"/><text fill="#000000" font-family="sans-serif" font-size="11" lengthAdjust="spacingAndGlyphs" textLength="101" x="26" y="72.9526">setId(String): void</text><ellipse cx="17" cy="83.4492" fill="#84BE84" rx="3" ry="3" style="stroke: #038048; stroke-width: 1.0;"/><text fill="#000000" font-family="sans-serif" font-size="11" lengthAdjust="spacingAndGlyphs" textLength="95" x="26" y="85.7573">getType(): String</text><ellipse cx="17" cy="96.2539" fill="#84BE84" rx="3" ry="3" style="stroke: #038048; stroke-width: 1.0;"/><text fill="#000000" font-family="sans-serif" font-size="11" lengthAdjust="spacingAndGlyphs" textLength="118" x="26" y="98.562">setType(String): void</text><ellipse cx="17" cy="109.0586" fill="#84BE84" rx="3" ry="3" style="stroke: #038048; stroke-width: 1.0;"/><text fill="#000000" font-family="sans-serif" font-size="11" lengthAdjust="spacingAndGlyphs" textLength="119" x="26" y="111.3667">getMessage(): String</text><ellipse cx="17" cy="121.8633" fill="#84BE84" rx="3" ry="3" style="stroke: #038048; stroke-width: 1.0;"/><text fill="#000000" font-family="sans-serif" font-size="11" lengthAdjust="spacingAndGlyphs" textLength="142" x="26" y="124.1714">setMessage(String): void</text><ellipse cx="17" cy="134.668" fill="#84BE84" rx="3" ry="3" style="stroke: #038048; stroke-width: 1.0;"/><text fill="#000000" font-family="sans-serif" font-size="11" lengthAdjust="spacingAndGlyphs" textLength="225" x="26" y="136.9761">getLogical_resource_ids(): List&lt;String&gt;</text><ellipse cx="17" cy="147.4727" fill="#84BE84" rx="3" ry="3" style="stroke: #038048; stroke-width: 1.0;"/><text fill="#000000" font-family="sans-serif" font-size="11" lengthAdjust="spacingAndGlyphs" textLength="248" x="26" y="149.7808">setLogical_resource_ids(List&lt;String&gt;): void</text><ellipse cx="17" cy="160.2773" fill="#84BE84" rx="3" ry="3" style="stroke: #038048; stroke-width: 1.0;"/><text fill="#000000" font-family="sans-serif" font-size="11" lengthAdjust="spacingAndGlyphs" textLength="192" x="26" y="162.5854">getLine_numbers(): List&lt;Integer&gt;</text><ellipse cx="17" cy="173.082" fill="#84BE84" rx="3" ry="3" style="stroke: #038048; stroke-width: 1.0;"/><text fill="#000000" font-family="sans-serif" font-size="11" lengthAdjust="spacingAndGlyphs" textLength="215" x="26" y="175.3901">setLine_numbers(List&lt;Integer&gt;): void</text></a><text fill="#888888" font-family="sans-serif" font-size="10" lengthAdjust="spacingAndGlyphs" textLength="186" x="56" y="201.2822">UMLDoclet 2.0.5, PlantUML 1.2019.08</text><!--
@startuml
    set namespaceSeparator none
    hide empty fields
    hide empty methods

    class "<size:14>CfnNagViolation\n<size:10>com.hack23.sonar.cloudformation.parser" as com.hack23.sonar.cloudformation.parser.CfnNagViolation [[CfnNagViolation.html]] {
        +getId(): String
        +setId(String): void
        +getType(): String
        +setType(String): void
        +getMessage(): String
        +setMessage(String): void
        +getLogical_resource_ids(): List<String>
        +setLogical_resource_ids(List<String>): void
        +getLine_numbers(): List<Integer>
        +setLine_numbers(List<Integer>): void
    }

    center footer UMLDoclet 2.0.5, PlantUML 1.2019.08
@enduml

PlantUML version 1.2019.08(Sat Jul 13 21:25:14 CEST 2019)
(APACHE source distribution)
Java Runtime: OpenJDK Runtime Environment
JVM: OpenJDK 64-Bit Server VM
Java Version: 11.0.4+11-post-Ubuntu-1ubuntu219.04
Operating System: Linux
OS Version: 5.0.0-23-generic
Default Encoding: UTF-8
Language: en
Country: US
--></g></svg>