<?xml version="1.0" encoding="UTF-8" standalone="no"?><svg xmlns="http://www.w3.org/2000/svg" xmlns:xlink="http://www.w3.org/1999/xlink" contentScriptType="application/ecmascript" contentStyleType="text/css" height="99px" preserveAspectRatio="none" style="width:270px;height:99px;" version="1.1" viewBox="0 0 270 99" width="270px" zoomAndPan="magnify"><defs><filter height="300%" id="f169cmg8wwwpdp" width="300%" x="-1" y="-1"><feGaussianBlur result="blurOut" stdDeviation="2.0"/><feColorMatrix in="blurOut" result="blurOut2" type="matrix" values="0 0 0 0 0 0 0 0 0 0 0 0 0 0 0 0 0 0 .4 0"/><feOffset dx="4.0" dy="4.0" in="blurOut2" result="blurOut3"/><feBlend in="SourceGraphic" in2="blurOut3" mode="normal"/></filter></defs><g><!--class com.hack23.sonar.cloudformation.parser.CfnNagReportReader--><a href="CfnNagReportReader.html" target="_top" xlink:actuate="onRequest" xlink:show="new" xlink:title="CfnNagReportReader.html" xlink:type="simple"><rect fill="#FEFECE" filter="url(#f169cmg8wwwpdp)" height="58.7422" id="com.hack23.sonar.cloudformation.parser.CfnNagReportReader" style="stroke: #A80036; stroke-width: 1.5;" width="253" x="6" y="8"/><ellipse cx="31.35" cy="26.9688" fill="#ADD1B2" rx="11" ry="11" style="stroke: #A80036; stroke-width: 1.0;"/><path d="M34.3188,32.6094 Q33.7406,32.9063 33.1,33.0469 Q32.4594,33.2031 31.7563,33.2031 Q29.2563,33.2031 27.9281,31.5625 Q26.6156,29.9063 26.6156,26.7813 Q26.6156,23.6563 27.9281,22 Q29.2563,20.3438 31.7563,20.3438 Q32.4594,20.3438 33.1,20.5 Q33.7563,20.6563 34.3188,20.9531 L34.3188,23.6719 Q33.6938,23.0938 33.1,22.8281 Q32.5063,22.5469 31.8813,22.5469 Q30.5375,22.5469 29.85,23.625 Q29.1625,24.6875 29.1625,26.7813 Q29.1625,28.875 29.85,29.9531 Q30.5375,31.0156 31.8813,31.0156 Q32.5063,31.0156 33.1,30.75 Q33.6938,30.4688 34.3188,29.8906 L34.3188,32.6094 Z "/><text fill="#000000" font-family="sans-serif" font-size="14" lengthAdjust="spacingAndGlyphs" textLength="147" x="73.15" y="25.9951">CfnNagReportReader</text><text fill="#000000" font-family="sans-serif" font-size="10" lengthAdjust="spacingAndGlyphs" textLength="198" x="47.65" y="38.5791">com.hack23.sonar.cloudformation.parser</text><line style="stroke: #A80036; stroke-width: 1.5;" x1="7" x2="258" y1="45.9375" y2="45.9375"/><ellipse cx="17" cy="57.8398" fill="#84BE84" rx="3" ry="3" style="stroke: #038048; stroke-width: 1.0;"/><text fill="#000000" font-family="sans-serif" font-size="11" lengthAdjust="spacingAndGlyphs" textLength="227" x="26" y="60.1479">readReport(InputStream): CfnNagReport</text></a><text fill="#888888" font-family="sans-serif" font-size="10" lengthAdjust="spacingAndGlyphs" textLength="186" x="45.5" y="86.2822">UMLDoclet 2.0.4, PlantUML 1.2019.06</text><!--
@startuml
    set namespaceSeparator none
    hide empty fields
    hide empty methods

    class "<size:14>CfnNagReportReader\n<size:10>com.hack23.sonar.cloudformation.parser" as com.hack23.sonar.cloudformation.parser.CfnNagReportReader [[CfnNagReportReader.html]] {
        +readReport(InputStream): CfnNagReport
    }

    center footer UMLDoclet 2.0.4, PlantUML 1.2019.06
@enduml

PlantUML version 1.2019.06(Fri May 24 19:10:25 CEST 2019)
(APACHE source distribution)
Java Runtime: OpenJDK Runtime Environment
JVM: OpenJDK 64-Bit Server VM
Java Version: 11.0.3+7-Ubuntu-1ubuntu219.04.1
Operating System: Linux
OS Version: 5.0.0-16-generic
Default Encoding: UTF-8
Language: en
Country: US
--></g></svg>