<?xml version="1.0" encoding="UTF-8" standalone="no"?><svg xmlns="http://www.w3.org/2000/svg" xmlns:xlink="http://www.w3.org/1999/xlink" contentScriptType="application/ecmascript" contentStyleType="text/css" height="95px" preserveAspectRatio="none" style="width:337px;height:95px;" version="1.1" viewBox="0 0 337 95" width="337px" zoomAndPan="magnify"><defs><filter height="300%" id="f8p5vhbtp2qsg" width="300%" x="-1" y="-1"><feGaussianBlur result="blurOut" stdDeviation="2.0"/><feColorMatrix in="blurOut" result="blurOut2" type="matrix" values="0 0 0 0 0 0 0 0 0 0 0 0 0 0 0 0 0 0 .4 0"/><feOffset dx="4.0" dy="4.0" in="blurOut2" result="blurOut3"/><feBlend in="SourceGraphic" in2="blurOut3" mode="normal"/></filter></defs><g><!--MD5=[f7656aacb17008ea39cb5d52d37cf839]
class com.hack23.sonar.cloudformation.parser.CfnNagScanReportReader--><a href="CfnNagScanReportReader.html" target="_top" title="CfnNagScanReportReader.html" xlink:actuate="onRequest" xlink:href="CfnNagScanReportReader.html" xlink:show="new" xlink:title="CfnNagScanReportReader.html" xlink:type="simple"><rect fill="#FEFECE" filter="url(#f8p5vhbtp2qsg)" height="58.7422" id="com.hack23.sonar.cloudformation.parser.CfnNagScanReportReader" style="stroke: #A80036; stroke-width: 1.5;" width="319" x="7" y="7"/><ellipse cx="63.25" cy="25.9688" fill="#ADD1B2" rx="11" ry="11" style="stroke: #A80036; stroke-width: 1.0;"/><path d="M66.2188,31.6094 Q65.6406,31.9063 65,32.0469 Q64.3594,32.2031 63.6563,32.2031 Q61.1563,32.2031 59.8281,30.5625 Q58.5156,28.9063 58.5156,25.7813 Q58.5156,22.6563 59.8281,21 Q61.1563,19.3438 63.6563,19.3438 Q64.3594,19.3438 65,19.5 Q65.6563,19.6563 66.2188,19.9531 L66.2188,22.6719 Q65.5938,22.0938 65,21.8281 Q64.4063,21.5469 63.7813,21.5469 Q62.4375,21.5469 61.75,22.625 Q61.0625,23.6875 61.0625,25.7813 Q61.0625,27.875 61.75,28.9531 Q62.4375,30.0156 63.7813,30.0156 Q64.4063,30.0156 65,29.75 Q65.5938,29.4688 66.2188,28.8906 L66.2188,31.6094 Z "/><text fill="#000000" font-family="sans-serif" font-size="14" lengthAdjust="spacingAndGlyphs" textLength="181" x="92.25" y="24.9951">CfnNagScanReportReader</text><text fill="#000000" font-family="sans-serif" font-size="10" lengthAdjust="spacingAndGlyphs" textLength="198" x="83.75" y="37.5791">com.hack23.sonar.cloudformation.parser</text><line style="stroke: #A80036; stroke-width: 1.5;" x1="8" x2="325" y1="44.9375" y2="44.9375"/><ellipse cx="18" cy="55.9375" fill="#84BE84" rx="3" ry="3" style="stroke: #038048; stroke-width: 1.0;"/><text fill="#000000" font-family="sans-serif" font-size="11" lengthAdjust="spacingAndGlyphs" textLength="293" x="27" y="59.1479">readReport(InputStream): List&lt;CfnNagScanReport&gt;</text></a><text fill="#888888" font-family="sans-serif" font-size="10" lengthAdjust="spacingAndGlyphs" textLength="186" x="73.5" y="82.0244">UMLDoclet 2.0.9, PlantUML 1.2020.08</text><!--MD5=[745a55fcd2aa00fc894f991c1560e573]
@startuml
    set namespaceSeparator none
    hide empty fields
    hide empty methods

    class "<size:14>CfnNagScanReportReader\n<size:10>com.hack23.sonar.cloudformation.parser" as com.hack23.sonar.cloudformation.parser.CfnNagScanReportReader [[CfnNagScanReportReader.html]] {
        +readReport(InputStream): List<CfnNagScanReport>
    }

    center footer UMLDoclet 2.0.9, PlantUML 1.2020.08
@enduml

PlantUML version 1.2020.08(Sun Apr 26 16:08:22 CEST 2020)
(APACHE source distribution)
Java Runtime: OpenJDK Runtime Environment
JVM: OpenJDK 64-Bit Server VM
Java Version: 11.0.7+10-post-Ubuntu-3ubuntu1
Operating System: Linux
Default Encoding: UTF-8
Language: en
Country: US
--></g></svg>