<?xml version="1.0" encoding="UTF-8" standalone="no"?><svg xmlns="http://www.w3.org/2000/svg" xmlns:xlink="http://www.w3.org/1999/xlink" contentScriptType="application/ecmascript" contentStyleType="text/css" height="601px" preserveAspectRatio="none" style="width:888px;height:601px;" version="1.1" viewBox="0 0 888 601" width="888px" zoomAndPan="magnify"><defs><filter height="300%" id="f19c78sjnhiozl" width="300%" x="-1" y="-1"><feGaussianBlur result="blurOut" stdDeviation="2.0"/><feColorMatrix in="blurOut" result="blurOut2" type="matrix" values="0 0 0 0 0 0 0 0 0 0 0 0 0 0 0 0 0 0 .4 0"/><feOffset dx="4.0" dy="4.0" in="blurOut2" result="blurOut3"/><feBlend in="SourceGraphic" in2="blurOut3" mode="normal"/></filter></defs><g><!--MD5=[b7e5cc2d6be03424719e7139fcbae360]
cluster com.hack23.sonar.cloudformation.parser--><polygon fill="#FFFFFF" filter="url(#f19c78sjnhiozl)" points="22,24,354,24,361,46.2969,866,46.2969,866,553,22,553,22,24" style="stroke: #000000; stroke-width: 1.5;"/><line style="stroke: #000000; stroke-width: 1.5;" x1="22" x2="361" y1="46.2969" y2="46.2969"/><text fill="#000000" font-family="sans-serif" font-size="14" font-weight="bold" lengthAdjust="spacingAndGlyphs" textLength="326" x="26" y="38.9951">com.hack23.sonar.cloudformation.parser</text><!--MD5=[599cea475eb98603c869d13cf1b66d28]
class com.hack23.sonar.cloudformation.parser.CfnNagReportReader--><a href="CfnNagReportReader.html" target="_top" title="CfnNagReportReader.html" xlink:actuate="onRequest" xlink:href="CfnNagReportReader.html" xlink:show="new" xlink:title="CfnNagReportReader.html" xlink:type="simple"><rect fill="#FEFECE" filter="url(#f19c78sjnhiozl)" height="60.8047" id="com.hack23.sonar.cloudformation.parser.CfnNagReportReader" style="stroke: #A80036; stroke-width: 1.5;" width="253" x="596.5" y="65.5"/><ellipse cx="652.75" cy="81.5" fill="#ADD1B2" rx="11" ry="11" style="stroke: #A80036; stroke-width: 1.0;"/><path d="M655.7188,87.1406 Q655.1406,87.4375 654.5,87.5781 Q653.8594,87.7344 653.1563,87.7344 Q650.6563,87.7344 649.3281,86.0938 Q648.0156,84.4375 648.0156,81.3125 Q648.0156,78.1875 649.3281,76.5313 Q650.6563,74.875 653.1563,74.875 Q653.8594,74.875 654.5,75.0313 Q655.1563,75.1875 655.7188,75.4844 L655.7188,78.2031 Q655.0938,77.625 654.5,77.3594 Q653.9063,77.0781 653.2813,77.0781 Q651.9375,77.0781 651.25,78.1563 Q650.5625,79.2188 650.5625,81.3125 Q650.5625,83.4063 651.25,84.4844 Q651.9375,85.5469 653.2813,85.5469 Q653.9063,85.5469 654.5,85.2813 Q655.0938,85 655.7188,84.4219 L655.7188,87.1406 Z "/><text fill="#000000" font-family="sans-serif" font-size="12" lengthAdjust="spacingAndGlyphs" textLength="132" x="673.25" y="85.6543">CfnNagReportReader</text><line style="stroke: #A80036; stroke-width: 1.5;" x1="597.5" x2="848.5" y1="97.5" y2="97.5"/><line style="stroke: #A80036; stroke-width: 1.5;" x1="597.5" x2="848.5" y1="105.5" y2="105.5"/><ellipse cx="607.5" cy="116.5" fill="#84BE84" rx="3" ry="3" style="stroke: #038048; stroke-width: 1.0;"/><text fill="#000000" font-family="sans-serif" font-size="11" lengthAdjust="spacingAndGlyphs" textLength="227" x="616.5" y="119.7104">readReport(InputStream): CfnNagReport</text></a><!--MD5=[973012a9df9719381d34b30102ef99fb]
class com.hack23.sonar.cloudformation.parser.CfnNagScanReport--><a href="CfnNagScanReport.html" target="_top" title="CfnNagScanReport.html" xlink:actuate="onRequest" xlink:href="CfnNagScanReport.html" xlink:show="new" xlink:title="CfnNagScanReport.html" xlink:type="simple"><rect fill="#FEFECE" filter="url(#f19c78sjnhiozl)" height="73.6094" id="com.hack23.sonar.cloudformation.parser.CfnNagScanReport" style="stroke: #A80036; stroke-width: 1.5;" width="168" x="393" y="59"/><ellipse cx="416.1" cy="75" fill="#ADD1B2" rx="11" ry="11" style="stroke: #A80036; stroke-width: 1.0;"/><path d="M419.0688,80.6406 Q418.4906,80.9375 417.85,81.0781 Q417.2094,81.2344 416.5063,81.2344 Q414.0063,81.2344 412.6781,79.5938 Q411.3656,77.9375 411.3656,74.8125 Q411.3656,71.6875 412.6781,70.0313 Q414.0063,68.375 416.5063,68.375 Q417.2094,68.375 417.85,68.5313 Q418.5063,68.6875 419.0688,68.9844 L419.0688,71.7031 Q418.4438,71.125 417.85,70.8594 Q417.2563,70.5781 416.6313,70.5781 Q415.2875,70.5781 414.6,71.6563 Q413.9125,72.7188 413.9125,74.8125 Q413.9125,76.9063 414.6,77.9844 Q415.2875,79.0469 416.6313,79.0469 Q417.2563,79.0469 417.85,78.7813 Q418.4438,78.5 419.0688,77.9219 L419.0688,80.6406 Z "/><text fill="#000000" font-family="sans-serif" font-size="12" lengthAdjust="spacingAndGlyphs" textLength="118" x="431.9" y="79.1543">CfnNagScanReport</text><line style="stroke: #A80036; stroke-width: 1.5;" x1="394" x2="560" y1="91" y2="91"/><line style="stroke: #A80036; stroke-width: 1.5;" x1="394" x2="560" y1="99" y2="99"/><ellipse cx="404" cy="110" fill="#84BE84" rx="3" ry="3" style="stroke: #038048; stroke-width: 1.0;"/><text fill="#000000" font-family="sans-serif" font-size="11" lengthAdjust="spacingAndGlyphs" textLength="119" x="413" y="113.2104">getFilename(): String</text><ellipse cx="404" cy="122.8047" fill="#84BE84" rx="3" ry="3" style="stroke: #038048; stroke-width: 1.0;"/><text fill="#000000" font-family="sans-serif" font-size="11" lengthAdjust="spacingAndGlyphs" textLength="142" x="413" y="126.0151">setFilename(String): void</text></a><!--MD5=[6a13ec146c2dc674c74e56333cf988df]
class com.hack23.sonar.cloudformation.parser.CfnNagReport--><a href="CfnNagReport.html" target="_top" title="CfnNagReport.html" xlink:actuate="onRequest" xlink:href="CfnNagReport.html" xlink:show="new" xlink:title="CfnNagReport.html" xlink:type="simple"><rect fill="#FEFECE" filter="url(#f19c78sjnhiozl)" height="73.6094" id="com.hack23.sonar.cloudformation.parser.CfnNagReport" style="stroke: #A80036; stroke-width: 1.5;" width="172" x="391" y="210"/><ellipse cx="429.85" cy="226" fill="#ADD1B2" rx="11" ry="11" style="stroke: #A80036; stroke-width: 1.0;"/><path d="M432.8188,231.6406 Q432.2406,231.9375 431.6,232.0781 Q430.9594,232.2344 430.2563,232.2344 Q427.7563,232.2344 426.4281,230.5938 Q425.1156,228.9375 425.1156,225.8125 Q425.1156,222.6875 426.4281,221.0313 Q427.7563,219.375 430.2563,219.375 Q430.9594,219.375 431.6,219.5313 Q432.2563,219.6875 432.8188,219.9844 L432.8188,222.7031 Q432.1938,222.125 431.6,221.8594 Q431.0063,221.5781 430.3813,221.5781 Q429.0375,221.5781 428.35,222.6563 Q427.6625,223.7188 427.6625,225.8125 Q427.6625,227.9063 428.35,228.9844 Q429.0375,230.0469 430.3813,230.0469 Q431.0063,230.0469 431.6,229.7813 Q432.1938,229.5 432.8188,228.9219 L432.8188,231.6406 Z "/><text fill="#000000" font-family="sans-serif" font-size="12" lengthAdjust="spacingAndGlyphs" textLength="87" x="449.15" y="230.1543">CfnNagReport</text><line style="stroke: #A80036; stroke-width: 1.5;" x1="392" x2="562" y1="242" y2="242"/><line style="stroke: #A80036; stroke-width: 1.5;" x1="392" x2="562" y1="250" y2="250"/><ellipse cx="402" cy="261" fill="#84BE84" rx="3" ry="3" style="stroke: #038048; stroke-width: 1.0;"/><text fill="#000000" font-family="sans-serif" font-size="11" lengthAdjust="spacingAndGlyphs" textLength="123" x="411" y="264.2104">getFailure_count(): int</text><ellipse cx="402" cy="273.8047" fill="#84BE84" rx="3" ry="3" style="stroke: #038048; stroke-width: 1.0;"/><text fill="#000000" font-family="sans-serif" font-size="11" lengthAdjust="spacingAndGlyphs" textLength="146" x="411" y="277.0151">setFailure_count(int): void</text></a><!--MD5=[3ff67a89d4b7a817d5edc57d65b67c1e]
class com.hack23.sonar.cloudformation.parser.CfnNagViolation--><a href="CfnNagViolation.html" target="_top" title="CfnNagViolation.html" xlink:actuate="onRequest" xlink:href="CfnNagViolation.html" xlink:show="new" xlink:title="CfnNagViolation.html" xlink:type="simple"><rect fill="#FEFECE" filter="url(#f19c78sjnhiozl)" height="176.0469" id="com.hack23.sonar.cloudformation.parser.CfnNagViolation" style="stroke: #A80036; stroke-width: 1.5;" width="274" x="340" y="361"/><ellipse cx="423.25" cy="377" fill="#ADD1B2" rx="11" ry="11" style="stroke: #A80036; stroke-width: 1.0;"/><path d="M426.2188,382.6406 Q425.6406,382.9375 425,383.0781 Q424.3594,383.2344 423.6563,383.2344 Q421.1563,383.2344 419.8281,381.5938 Q418.5156,379.9375 418.5156,376.8125 Q418.5156,373.6875 419.8281,372.0313 Q421.1563,370.375 423.6563,370.375 Q424.3594,370.375 425,370.5313 Q425.6563,370.6875 426.2188,370.9844 L426.2188,373.7031 Q425.5938,373.125 425,372.8594 Q424.4063,372.5781 423.7813,372.5781 Q422.4375,372.5781 421.75,373.6563 Q421.0625,374.7188 421.0625,376.8125 Q421.0625,378.9063 421.75,379.9844 Q422.4375,381.0469 423.7813,381.0469 Q424.4063,381.0469 425,380.7813 Q425.5938,380.5 426.2188,379.9219 L426.2188,382.6406 Z "/><text fill="#000000" font-family="sans-serif" font-size="12" lengthAdjust="spacingAndGlyphs" textLength="99" x="443.75" y="381.1543">CfnNagViolation</text><line style="stroke: #A80036; stroke-width: 1.5;" x1="341" x2="613" y1="393" y2="393"/><line style="stroke: #A80036; stroke-width: 1.5;" x1="341" x2="613" y1="401" y2="401"/><ellipse cx="351" cy="412" fill="#84BE84" rx="3" ry="3" style="stroke: #038048; stroke-width: 1.0;"/><text fill="#000000" font-family="sans-serif" font-size="11" lengthAdjust="spacingAndGlyphs" textLength="78" x="360" y="415.2104">getId(): String</text><ellipse cx="351" cy="424.8047" fill="#84BE84" rx="3" ry="3" style="stroke: #038048; stroke-width: 1.0;"/><text fill="#000000" font-family="sans-serif" font-size="11" lengthAdjust="spacingAndGlyphs" textLength="101" x="360" y="428.0151">setId(String): void</text><ellipse cx="351" cy="437.6094" fill="#84BE84" rx="3" ry="3" style="stroke: #038048; stroke-width: 1.0;"/><text fill="#000000" font-family="sans-serif" font-size="11" lengthAdjust="spacingAndGlyphs" textLength="95" x="360" y="440.8198">getType(): String</text><ellipse cx="351" cy="450.4141" fill="#84BE84" rx="3" ry="3" style="stroke: #038048; stroke-width: 1.0;"/><text fill="#000000" font-family="sans-serif" font-size="11" lengthAdjust="spacingAndGlyphs" textLength="118" x="360" y="453.6245">setType(String): void</text><ellipse cx="351" cy="463.2188" fill="#84BE84" rx="3" ry="3" style="stroke: #038048; stroke-width: 1.0;"/><text fill="#000000" font-family="sans-serif" font-size="11" lengthAdjust="spacingAndGlyphs" textLength="119" x="360" y="466.4292">getMessage(): String</text><ellipse cx="351" cy="476.0234" fill="#84BE84" rx="3" ry="3" style="stroke: #038048; stroke-width: 1.0;"/><text fill="#000000" font-family="sans-serif" font-size="11" lengthAdjust="spacingAndGlyphs" textLength="142" x="360" y="479.2339">setMessage(String): void</text><ellipse cx="351" cy="488.8281" fill="#84BE84" rx="3" ry="3" style="stroke: #038048; stroke-width: 1.0;"/><text fill="#000000" font-family="sans-serif" font-size="11" lengthAdjust="spacingAndGlyphs" textLength="225" x="360" y="492.0386">getLogical_resource_ids(): List&lt;String&gt;</text><ellipse cx="351" cy="501.6328" fill="#84BE84" rx="3" ry="3" style="stroke: #038048; stroke-width: 1.0;"/><text fill="#000000" font-family="sans-serif" font-size="11" lengthAdjust="spacingAndGlyphs" textLength="248" x="360" y="504.8433">setLogical_resource_ids(List&lt;String&gt;): void</text><ellipse cx="351" cy="514.4375" fill="#84BE84" rx="3" ry="3" style="stroke: #038048; stroke-width: 1.0;"/><text fill="#000000" font-family="sans-serif" font-size="11" lengthAdjust="spacingAndGlyphs" textLength="192" x="360" y="517.6479">getLine_numbers(): List&lt;Integer&gt;</text><ellipse cx="351" cy="527.2422" fill="#84BE84" rx="3" ry="3" style="stroke: #038048; stroke-width: 1.0;"/><text fill="#000000" font-family="sans-serif" font-size="11" lengthAdjust="spacingAndGlyphs" textLength="215" x="360" y="530.4526">setLine_numbers(List&lt;Integer&gt;): void</text></a><!--MD5=[f7656aacb17008ea39cb5d52d37cf839]
class com.hack23.sonar.cloudformation.parser.CfnNagScanReportReader--><a href="CfnNagScanReportReader.html" target="_top" title="CfnNagScanReportReader.html" xlink:actuate="onRequest" xlink:href="CfnNagScanReportReader.html" xlink:show="new" xlink:title="CfnNagScanReportReader.html" xlink:type="simple"><rect fill="#FEFECE" filter="url(#f19c78sjnhiozl)" height="60.8047" id="com.hack23.sonar.cloudformation.parser.CfnNagScanReportReader" style="stroke: #A80036; stroke-width: 1.5;" width="319" x="38.5" y="65.5"/><ellipse cx="112.25" cy="81.5" fill="#ADD1B2" rx="11" ry="11" style="stroke: #A80036; stroke-width: 1.0;"/><path d="M115.2188,87.1406 Q114.6406,87.4375 114,87.5781 Q113.3594,87.7344 112.6563,87.7344 Q110.1563,87.7344 108.8281,86.0938 Q107.5156,84.4375 107.5156,81.3125 Q107.5156,78.1875 108.8281,76.5313 Q110.1563,74.875 112.6563,74.875 Q113.3594,74.875 114,75.0313 Q114.6563,75.1875 115.2188,75.4844 L115.2188,78.2031 Q114.5938,77.625 114,77.3594 Q113.4063,77.0781 112.7813,77.0781 Q111.4375,77.0781 110.75,78.1563 Q110.0625,79.2188 110.0625,81.3125 Q110.0625,83.4063 110.75,84.4844 Q111.4375,85.5469 112.7813,85.5469 Q113.4063,85.5469 114,85.2813 Q114.5938,85 115.2188,84.4219 L115.2188,87.1406 Z "/><text fill="#000000" font-family="sans-serif" font-size="12" lengthAdjust="spacingAndGlyphs" textLength="163" x="132.75" y="85.6543">CfnNagScanReportReader</text><line style="stroke: #A80036; stroke-width: 1.5;" x1="39.5" x2="356.5" y1="97.5" y2="97.5"/><line style="stroke: #A80036; stroke-width: 1.5;" x1="39.5" x2="356.5" y1="105.5" y2="105.5"/><ellipse cx="49.5" cy="116.5" fill="#84BE84" rx="3" ry="3" style="stroke: #038048; stroke-width: 1.0;"/><text fill="#000000" font-family="sans-serif" font-size="11" lengthAdjust="spacingAndGlyphs" textLength="293" x="58.5" y="119.7104">readReport(InputStream): List&lt;CfnNagScanReport&gt;</text></a><!--MD5=[98c58a8225cf257179c3ed7d7a39c653]
link com.hack23.sonar.cloudformation.parser.CfnNagScanReport to com.hack23.sonar.cloudformation.parser.CfnNagReport--><path d="M477,133.07 C477,154.69 477,182.25 477,204.74 " fill="none" id="com.hack23.sonar.cloudformation.parser.CfnNagScanReport-&gt;com.hack23.sonar.cloudformation.parser.CfnNagReport" style="stroke: #A80036; stroke-width: 1.0;"/><polygon fill="#A80036" points="477,209.75,481,200.75,477,204.75,473,200.75,477,209.75" style="stroke: #A80036; stroke-width: 1.0;"/><text fill="#000000" font-family="sans-serif" font-size="13" lengthAdjust="spacingAndGlyphs" textLength="68" x="478" y="176.0669">file_results</text><!--MD5=[561ec18d708f70a97eab48bc9fc1a956]
link com.hack23.sonar.cloudformation.parser.CfnNagReport to com.hack23.sonar.cloudformation.parser.CfnNagViolation--><path d="M477,284.22 C477,304.38 477,330.47 477,355.87 " fill="none" id="com.hack23.sonar.cloudformation.parser.CfnNagReport-&gt;com.hack23.sonar.cloudformation.parser.CfnNagViolation" style="stroke: #A80036; stroke-width: 1.0;"/><polygon fill="#A80036" points="477,360.94,481,351.94,477,355.94,473,351.94,477,360.94" style="stroke: #A80036; stroke-width: 1.0;"/><text fill="#000000" font-family="sans-serif" font-size="13" lengthAdjust="spacingAndGlyphs" textLength="60" x="478" y="327.0669">violations</text><text fill="#000000" font-family="sans-serif" font-size="13" lengthAdjust="spacingAndGlyphs" textLength="7" x="469.6992" y="349.7984">*</text><text fill="#888888" font-family="sans-serif" font-size="10" lengthAdjust="spacingAndGlyphs" textLength="186" x="357" y="588.2822">UMLDoclet 2.0.8, PlantUML 1.2020.01</text><!--MD5=[1de13c366f008ee710f77a6b3711eeda]
@startuml
    namespace com.hack23.sonar.cloudformation.parser {

        class CfnNagReportReader [[CfnNagReportReader.html]] {
            +readReport(InputStream): CfnNagReport
        }

        class CfnNagScanReport [[CfnNagScanReport.html]] {
            +getFilename(): String
            +setFilename(String): void
        }

        class CfnNagReport [[CfnNagReport.html]] {
            +getFailure_count(): int
            +setFailure_count(int): void
        }

        class CfnNagViolation [[CfnNagViolation.html]] {
            +getId(): String
            +setId(String): void
            +getType(): String
            +setType(String): void
            +getMessage(): String
            +setMessage(String): void
            +getLogical_resource_ids(): List<String>
            +setLogical_resource_ids(List<String>): void
            +getLine_numbers(): List<Integer>
            +setLine_numbers(List<Integer>): void
        }

        class CfnNagScanReportReader [[CfnNagScanReportReader.html]] {
            +readReport(InputStream): List<CfnNagScanReport>
        }

        CfnNagScanReport - -> CfnNagReport: file_results
        CfnNagReport - -> "*" CfnNagViolation: violations
    }

    center footer UMLDoclet 2.0.8, PlantUML 1.2020.01
@enduml

PlantUML version 1.2020.01(Sun Feb 16 18:40:32 CET 2020)
(APACHE source distribution)
Java Runtime: OpenJDK Runtime Environment
JVM: OpenJDK 64-Bit Server VM
Java Version: 11.0.7-ea+9-post-Ubuntu-1ubuntu1
Operating System: Linux
Default Encoding: UTF-8
Language: en
Country: US
--></g></svg>