<?xml version="1.0" encoding="UTF-8" standalone="no"?><svg xmlns="http://www.w3.org/2000/svg" xmlns:xlink="http://www.w3.org/1999/xlink" contentScriptType="application/ecmascript" contentStyleType="text/css" height="563px" preserveAspectRatio="none" style="width:881px;height:563px;" version="1.1" viewBox="0 0 881 563" width="881px" zoomAndPan="magnify"><defs><filter height="300%" id="fwa25zh5jjzk2" width="300%" x="-1" y="-1"><feGaussianBlur result="blurOut" stdDeviation="2.0"/><feColorMatrix in="blurOut" result="blurOut2" type="matrix" values="0 0 0 0 0 0 0 0 0 0 0 0 0 0 0 0 0 0 .4 0"/><feOffset dx="4.0" dy="4.0" in="blurOut2" result="blurOut3"/><feBlend in="SourceGraphic" in2="blurOut3" mode="normal"/></filter></defs><g><!--MD5=[b7e5cc2d6be03424719e7139fcbae360]
cluster com.hack23.sonar.cloudformation.parser--><polygon fill="#FFFFFF" filter="url(#fwa25zh5jjzk2)" points="16,6,348,6,355,28.2969,859,28.2969,859,535,16,535,16,6" style="stroke: #000000; stroke-width: 1.5;"/><line style="stroke: #000000; stroke-width: 1.5;" x1="16" x2="355" y1="28.2969" y2="28.2969"/><text fill="#000000" font-family="sans-serif" font-size="14" font-weight="bold" lengthAdjust="spacingAndGlyphs" textLength="326" x="20" y="20.9951">com.hack23.sonar.cloudformation.parser</text><!--MD5=[f7656aacb17008ea39cb5d52d37cf839]
class com.hack23.sonar.cloudformation.parser.CfnNagScanReportReader--><a href="CfnNagScanReportReader.html" target="_top" title="CfnNagScanReportReader.html" xlink:actuate="onRequest" xlink:href="CfnNagScanReportReader.html" xlink:show="new" xlink:title="CfnNagScanReportReader.html" xlink:type="simple"><rect codeLine="3" fill="#FEFECE" filter="url(#fwa25zh5jjzk2)" height="60.8047" id="com.hack23.sonar.cloudformation.parser.CfnNagScanReportReader" style="stroke: #A80036; stroke-width: 1.5;" width="319" x="523.5" y="47.5"/><ellipse cx="597.25" cy="63.5" fill="#ADD1B2" rx="11" ry="11" style="stroke: #A80036; stroke-width: 1.0;"/><path d="M600.2188,69.1406 Q599.6406,69.4375 599,69.5781 Q598.3594,69.7344 597.6563,69.7344 Q595.1563,69.7344 593.8281,68.0938 Q592.5156,66.4375 592.5156,63.3125 Q592.5156,60.1875 593.8281,58.5313 Q595.1563,56.875 597.6563,56.875 Q598.3594,56.875 599,57.0313 Q599.6563,57.1875 600.2188,57.4844 L600.2188,60.2031 Q599.5938,59.625 599,59.3594 Q598.4063,59.0781 597.7813,59.0781 Q596.4375,59.0781 595.75,60.1563 Q595.0625,61.2188 595.0625,63.3125 Q595.0625,65.4063 595.75,66.4844 Q596.4375,67.5469 597.7813,67.5469 Q598.4063,67.5469 599,67.2813 Q599.5938,67 600.2188,66.4219 L600.2188,69.1406 Z "/><text fill="#000000" font-family="sans-serif" font-size="12" lengthAdjust="spacingAndGlyphs" textLength="163" x="617.75" y="67.6543">CfnNagScanReportReader</text><line style="stroke: #A80036; stroke-width: 1.5;" x1="524.5" x2="841.5" y1="79.5" y2="79.5"/><line style="stroke: #A80036; stroke-width: 1.5;" x1="524.5" x2="841.5" y1="87.5" y2="87.5"/><ellipse cx="534.5" cy="98.5" fill="#84BE84" rx="3" ry="3" style="stroke: #038048; stroke-width: 1.0;"/><text fill="#000000" font-family="sans-serif" font-size="11" lengthAdjust="spacingAndGlyphs" textLength="293" x="543.5" y="101.7104">readReport(InputStream): List&lt;CfnNagScanReport&gt;</text></a><!--MD5=[599cea475eb98603c869d13cf1b66d28]
class com.hack23.sonar.cloudformation.parser.CfnNagReportReader--><a href="CfnNagReportReader.html" target="_top" title="CfnNagReportReader.html" xlink:actuate="onRequest" xlink:href="CfnNagReportReader.html" xlink:show="new" xlink:title="CfnNagReportReader.html" xlink:type="simple"><rect codeLine="7" fill="#FEFECE" filter="url(#fwa25zh5jjzk2)" height="60.8047" id="com.hack23.sonar.cloudformation.parser.CfnNagReportReader" style="stroke: #A80036; stroke-width: 1.5;" width="253" x="235.5" y="47.5"/><ellipse cx="291.75" cy="63.5" fill="#ADD1B2" rx="11" ry="11" style="stroke: #A80036; stroke-width: 1.0;"/><path d="M294.7188,69.1406 Q294.1406,69.4375 293.5,69.5781 Q292.8594,69.7344 292.1563,69.7344 Q289.6563,69.7344 288.3281,68.0938 Q287.0156,66.4375 287.0156,63.3125 Q287.0156,60.1875 288.3281,58.5313 Q289.6563,56.875 292.1563,56.875 Q292.8594,56.875 293.5,57.0313 Q294.1563,57.1875 294.7188,57.4844 L294.7188,60.2031 Q294.0938,59.625 293.5,59.3594 Q292.9063,59.0781 292.2813,59.0781 Q290.9375,59.0781 290.25,60.1563 Q289.5625,61.2188 289.5625,63.3125 Q289.5625,65.4063 290.25,66.4844 Q290.9375,67.5469 292.2813,67.5469 Q292.9063,67.5469 293.5,67.2813 Q294.0938,67 294.7188,66.4219 L294.7188,69.1406 Z "/><text fill="#000000" font-family="sans-serif" font-size="12" lengthAdjust="spacingAndGlyphs" textLength="132" x="312.25" y="67.6543">CfnNagReportReader</text><line style="stroke: #A80036; stroke-width: 1.5;" x1="236.5" x2="487.5" y1="79.5" y2="79.5"/><line style="stroke: #A80036; stroke-width: 1.5;" x1="236.5" x2="487.5" y1="87.5" y2="87.5"/><ellipse cx="246.5" cy="98.5" fill="#84BE84" rx="3" ry="3" style="stroke: #038048; stroke-width: 1.0;"/><text fill="#000000" font-family="sans-serif" font-size="11" lengthAdjust="spacingAndGlyphs" textLength="227" x="255.5" y="101.7104">readReport(InputStream): CfnNagReport</text></a><!--MD5=[6a13ec146c2dc674c74e56333cf988df]
class com.hack23.sonar.cloudformation.parser.CfnNagReport--><a href="CfnNagReport.html" target="_top" title="CfnNagReport.html" xlink:actuate="onRequest" xlink:href="CfnNagReport.html" xlink:show="new" xlink:title="CfnNagReport.html" xlink:type="simple"><rect codeLine="11" fill="#FEFECE" filter="url(#fwa25zh5jjzk2)" height="73.6094" id="com.hack23.sonar.cloudformation.parser.CfnNagReport" style="stroke: #A80036; stroke-width: 1.5;" width="172" x="57" y="192"/><ellipse cx="95.85" cy="208" fill="#ADD1B2" rx="11" ry="11" style="stroke: #A80036; stroke-width: 1.0;"/><path d="M98.8188,213.6406 Q98.2406,213.9375 97.6,214.0781 Q96.9594,214.2344 96.2563,214.2344 Q93.7563,214.2344 92.4281,212.5938 Q91.1156,210.9375 91.1156,207.8125 Q91.1156,204.6875 92.4281,203.0313 Q93.7563,201.375 96.2563,201.375 Q96.9594,201.375 97.6,201.5313 Q98.2563,201.6875 98.8188,201.9844 L98.8188,204.7031 Q98.1938,204.125 97.6,203.8594 Q97.0063,203.5781 96.3813,203.5781 Q95.0375,203.5781 94.35,204.6563 Q93.6625,205.7188 93.6625,207.8125 Q93.6625,209.9063 94.35,210.9844 Q95.0375,212.0469 96.3813,212.0469 Q97.0063,212.0469 97.6,211.7813 Q98.1938,211.5 98.8188,210.9219 L98.8188,213.6406 Z "/><text fill="#000000" font-family="sans-serif" font-size="12" lengthAdjust="spacingAndGlyphs" textLength="87" x="115.15" y="212.1543">CfnNagReport</text><line style="stroke: #A80036; stroke-width: 1.5;" x1="58" x2="228" y1="224" y2="224"/><line style="stroke: #A80036; stroke-width: 1.5;" x1="58" x2="228" y1="232" y2="232"/><ellipse cx="68" cy="243" fill="#84BE84" rx="3" ry="3" style="stroke: #038048; stroke-width: 1.0;"/><text fill="#000000" font-family="sans-serif" font-size="11" lengthAdjust="spacingAndGlyphs" textLength="123" x="77" y="246.2104">getFailure_count(): int</text><ellipse cx="68" cy="255.8047" fill="#84BE84" rx="3" ry="3" style="stroke: #038048; stroke-width: 1.0;"/><text fill="#000000" font-family="sans-serif" font-size="11" lengthAdjust="spacingAndGlyphs" textLength="146" x="77" y="259.0151">setFailure_count(int): void</text></a><!--MD5=[3ff67a89d4b7a817d5edc57d65b67c1e]
class com.hack23.sonar.cloudformation.parser.CfnNagViolation--><a href="CfnNagViolation.html" target="_top" title="CfnNagViolation.html" xlink:actuate="onRequest" xlink:href="CfnNagViolation.html" xlink:show="new" xlink:title="CfnNagViolation.html" xlink:type="simple"><rect codeLine="16" fill="#FEFECE" filter="url(#fwa25zh5jjzk2)" height="176.0469" id="com.hack23.sonar.cloudformation.parser.CfnNagViolation" style="stroke: #A80036; stroke-width: 1.5;" width="274" x="32" y="343"/><ellipse cx="115.25" cy="359" fill="#ADD1B2" rx="11" ry="11" style="stroke: #A80036; stroke-width: 1.0;"/><path d="M118.2188,364.6406 Q117.6406,364.9375 117,365.0781 Q116.3594,365.2344 115.6563,365.2344 Q113.1563,365.2344 111.8281,363.5938 Q110.5156,361.9375 110.5156,358.8125 Q110.5156,355.6875 111.8281,354.0313 Q113.1563,352.375 115.6563,352.375 Q116.3594,352.375 117,352.5313 Q117.6563,352.6875 118.2188,352.9844 L118.2188,355.7031 Q117.5938,355.125 117,354.8594 Q116.4063,354.5781 115.7813,354.5781 Q114.4375,354.5781 113.75,355.6563 Q113.0625,356.7188 113.0625,358.8125 Q113.0625,360.9063 113.75,361.9844 Q114.4375,363.0469 115.7813,363.0469 Q116.4063,363.0469 117,362.7813 Q117.5938,362.5 118.2188,361.9219 L118.2188,364.6406 Z "/><text fill="#000000" font-family="sans-serif" font-size="12" lengthAdjust="spacingAndGlyphs" textLength="99" x="135.75" y="363.1543">CfnNagViolation</text><line style="stroke: #A80036; stroke-width: 1.5;" x1="33" x2="305" y1="375" y2="375"/><line style="stroke: #A80036; stroke-width: 1.5;" x1="33" x2="305" y1="383" y2="383"/><ellipse cx="43" cy="394" fill="#84BE84" rx="3" ry="3" style="stroke: #038048; stroke-width: 1.0;"/><text fill="#000000" font-family="sans-serif" font-size="11" lengthAdjust="spacingAndGlyphs" textLength="78" x="52" y="397.2104">getId(): String</text><ellipse cx="43" cy="406.8047" fill="#84BE84" rx="3" ry="3" style="stroke: #038048; stroke-width: 1.0;"/><text fill="#000000" font-family="sans-serif" font-size="11" lengthAdjust="spacingAndGlyphs" textLength="101" x="52" y="410.0151">setId(String): void</text><ellipse cx="43" cy="419.6094" fill="#84BE84" rx="3" ry="3" style="stroke: #038048; stroke-width: 1.0;"/><text fill="#000000" font-family="sans-serif" font-size="11" lengthAdjust="spacingAndGlyphs" textLength="95" x="52" y="422.8198">getType(): String</text><ellipse cx="43" cy="432.4141" fill="#84BE84" rx="3" ry="3" style="stroke: #038048; stroke-width: 1.0;"/><text fill="#000000" font-family="sans-serif" font-size="11" lengthAdjust="spacingAndGlyphs" textLength="118" x="52" y="435.6245">setType(String): void</text><ellipse cx="43" cy="445.2188" fill="#84BE84" rx="3" ry="3" style="stroke: #038048; stroke-width: 1.0;"/><text fill="#000000" font-family="sans-serif" font-size="11" lengthAdjust="spacingAndGlyphs" textLength="119" x="52" y="448.4292">getMessage(): String</text><ellipse cx="43" cy="458.0234" fill="#84BE84" rx="3" ry="3" style="stroke: #038048; stroke-width: 1.0;"/><text fill="#000000" font-family="sans-serif" font-size="11" lengthAdjust="spacingAndGlyphs" textLength="142" x="52" y="461.2339">setMessage(String): void</text><ellipse cx="43" cy="470.8281" fill="#84BE84" rx="3" ry="3" style="stroke: #038048; stroke-width: 1.0;"/><text fill="#000000" font-family="sans-serif" font-size="11" lengthAdjust="spacingAndGlyphs" textLength="225" x="52" y="474.0386">getLogical_resource_ids(): List&lt;String&gt;</text><ellipse cx="43" cy="483.6328" fill="#84BE84" rx="3" ry="3" style="stroke: #038048; stroke-width: 1.0;"/><text fill="#000000" font-family="sans-serif" font-size="11" lengthAdjust="spacingAndGlyphs" textLength="248" x="52" y="486.8433">setLogical_resource_ids(List&lt;String&gt;): void</text><ellipse cx="43" cy="496.4375" fill="#84BE84" rx="3" ry="3" style="stroke: #038048; stroke-width: 1.0;"/><text fill="#000000" font-family="sans-serif" font-size="11" lengthAdjust="spacingAndGlyphs" textLength="192" x="52" y="499.6479">getLine_numbers(): List&lt;Integer&gt;</text><ellipse cx="43" cy="509.2422" fill="#84BE84" rx="3" ry="3" style="stroke: #038048; stroke-width: 1.0;"/><text fill="#000000" font-family="sans-serif" font-size="11" lengthAdjust="spacingAndGlyphs" textLength="215" x="52" y="512.4526">setLine_numbers(List&lt;Integer&gt;): void</text></a><!--MD5=[973012a9df9719381d34b30102ef99fb]
class com.hack23.sonar.cloudformation.parser.CfnNagScanReport--><a href="CfnNagScanReport.html" target="_top" title="CfnNagScanReport.html" xlink:actuate="onRequest" xlink:href="CfnNagScanReport.html" xlink:show="new" xlink:title="CfnNagScanReport.html" xlink:type="simple"><rect codeLine="29" fill="#FEFECE" filter="url(#fwa25zh5jjzk2)" height="73.6094" id="com.hack23.sonar.cloudformation.parser.CfnNagScanReport" style="stroke: #A80036; stroke-width: 1.5;" width="168" x="32" y="41"/><ellipse cx="55.1" cy="57" fill="#ADD1B2" rx="11" ry="11" style="stroke: #A80036; stroke-width: 1.0;"/><path d="M58.0688,62.6406 Q57.4906,62.9375 56.85,63.0781 Q56.2094,63.2344 55.5063,63.2344 Q53.0063,63.2344 51.6781,61.5938 Q50.3656,59.9375 50.3656,56.8125 Q50.3656,53.6875 51.6781,52.0313 Q53.0063,50.375 55.5063,50.375 Q56.2094,50.375 56.85,50.5313 Q57.5063,50.6875 58.0688,50.9844 L58.0688,53.7031 Q57.4438,53.125 56.85,52.8594 Q56.2563,52.5781 55.6313,52.5781 Q54.2875,52.5781 53.6,53.6563 Q52.9125,54.7188 52.9125,56.8125 Q52.9125,58.9063 53.6,59.9844 Q54.2875,61.0469 55.6313,61.0469 Q56.2563,61.0469 56.85,60.7813 Q57.4438,60.5 58.0688,59.9219 L58.0688,62.6406 Z "/><text fill="#000000" font-family="sans-serif" font-size="12" lengthAdjust="spacingAndGlyphs" textLength="118" x="70.9" y="61.1543">CfnNagScanReport</text><line style="stroke: #A80036; stroke-width: 1.5;" x1="33" x2="199" y1="73" y2="73"/><line style="stroke: #A80036; stroke-width: 1.5;" x1="33" x2="199" y1="81" y2="81"/><ellipse cx="43" cy="92" fill="#84BE84" rx="3" ry="3" style="stroke: #038048; stroke-width: 1.0;"/><text fill="#000000" font-family="sans-serif" font-size="11" lengthAdjust="spacingAndGlyphs" textLength="119" x="52" y="95.2104">getFilename(): String</text><ellipse cx="43" cy="104.8047" fill="#84BE84" rx="3" ry="3" style="stroke: #038048; stroke-width: 1.0;"/><text fill="#000000" font-family="sans-serif" font-size="11" lengthAdjust="spacingAndGlyphs" textLength="142" x="52" y="108.0151">setFilename(String): void</text></a><!--MD5=[561ec18d708f70a97eab48bc9fc1a956]
link com.hack23.sonar.cloudformation.parser.CfnNagReport to com.hack23.sonar.cloudformation.parser.CfnNagViolation--><path codeLine="34" d="M147.71,266.22 C150.33,286.38 153.72,312.47 157.02,337.87 " fill="none" id="com.hack23.sonar.cloudformation.parser.CfnNagReport-to-com.hack23.sonar.cloudformation.parser.CfnNagViolation" style="stroke: #A80036; stroke-width: 1.0;"/><polygon fill="#A80036" points="157.68,342.94,160.4893,333.5003,157.037,337.9815,152.5558,334.5292,157.68,342.94" style="stroke: #A80036; stroke-width: 1.0;"/><text fill="#000000" font-family="sans-serif" font-size="13" lengthAdjust="spacingAndGlyphs" textLength="60" x="154" y="309.0669">violations</text><text fill="#000000" font-family="sans-serif" font-size="13" lengthAdjust="spacingAndGlyphs" textLength="7" x="149.4064" y="331.7984">*</text><!--MD5=[98c58a8225cf257179c3ed7d7a39c653]
link com.hack23.sonar.cloudformation.parser.CfnNagScanReport to com.hack23.sonar.cloudformation.parser.CfnNagReport--><path codeLine="35" d="M122.54,115.07 C126.45,136.69 131.45,164.25 135.52,186.74 " fill="none" id="com.hack23.sonar.cloudformation.parser.CfnNagScanReport-to-com.hack23.sonar.cloudformation.parser.CfnNagReport" style="stroke: #A80036; stroke-width: 1.0;"/><polygon fill="#A80036" points="136.43,191.75,138.7702,182.1832,135.5431,186.8293,130.8971,183.6022,136.43,191.75" style="stroke: #A80036; stroke-width: 1.0;"/><text fill="#000000" font-family="sans-serif" font-size="13" lengthAdjust="spacingAndGlyphs" textLength="68" x="131" y="158.0669">file_results</text><text fill="#888888" font-family="sans-serif" font-size="10" lengthAdjust="spacingAndGlyphs" textLength="192" x="335.5" y="550.2822">UMLDoclet 2.0.12, PlantUML 1.2020.16</text><!--MD5=[760fb44c1c02b3b255a09d8d3dec306a]
@startuml
    namespace com.hack23.sonar.cloudformation.parser {

        class CfnNagScanReportReader [[CfnNagScanReportReader.html]] {
            +readReport(InputStream): List<CfnNagScanReport>
        }

        class CfnNagReportReader [[CfnNagReportReader.html]] {
            +readReport(InputStream): CfnNagReport
        }

        class CfnNagReport [[CfnNagReport.html]] {
            +getFailure_count(): int
            +setFailure_count(int): void
        }

        class CfnNagViolation [[CfnNagViolation.html]] {
            +getId(): String
            +setId(String): void
            +getType(): String
            +setType(String): void
            +getMessage(): String
            +setMessage(String): void
            +getLogical_resource_ids(): List<String>
            +setLogical_resource_ids(List<String>): void
            +getLine_numbers(): List<Integer>
            +setLine_numbers(List<Integer>): void
        }

        class CfnNagScanReport [[CfnNagScanReport.html]] {
            +getFilename(): String
            +setFilename(String): void
        }

        CfnNagReport - -> "*" CfnNagViolation: violations
        CfnNagScanReport - -> CfnNagReport: file_results
    }

    center footer UMLDoclet 2.0.12, PlantUML 1.2020.16
@enduml

PlantUML version 1.2020.16(Sun Aug 23 22:20:43 CEST 2020)
(APACHE source distribution)
Java Runtime: OpenJDK Runtime Environment
JVM: OpenJDK 64-Bit Server VM
Default Encoding: UTF-8
Language: en
Country: US
--></g></svg>