<?xml version="1.0" encoding="UTF-8" standalone="no"?><svg xmlns="http://www.w3.org/2000/svg" xmlns:xlink="http://www.w3.org/1999/xlink" contentScriptType="application/ecmascript" contentStyleType="text/css" height="693px" preserveAspectRatio="none" style="width:864px;height:693px;" version="1.1" viewBox="0 0 864 693" width="864px" zoomAndPan="magnify"><defs><filter height="300%" id="fi35sfhiq04no" width="300%" x="-1" y="-1"><feGaussianBlur result="blurOut" stdDeviation="2.0"/><feColorMatrix in="blurOut" result="blurOut2" type="matrix" values="0 0 0 0 0 0 0 0 0 0 0 0 0 0 0 0 0 0 .4 0"/><feOffset dx="4.0" dy="4.0" in="blurOut2" result="blurOut3"/><feBlend in="SourceGraphic" in2="blurOut3" mode="normal"/></filter></defs><g><!--MD5=[b7e5cc2d6be03424719e7139fcbae360]
cluster com.hack23.sonar.cloudformation.parser--><polygon fill="#FFFFFF" filter="url(#fi35sfhiq04no)" points="14,16,346,16,353,38.2969,842,38.2969,842,653,14,653,14,16" style="stroke: #000000; stroke-width: 1.5;"/><line style="stroke: #000000; stroke-width: 1.5;" x1="14" x2="353" y1="38.2969" y2="38.2969"/><text fill="#000000" font-family="sans-serif" font-size="14" font-weight="bold" lengthAdjust="spacingAndGlyphs" textLength="326" x="18" y="30.9951">com.hack23.sonar.cloudformation.parser</text><!--MD5=[599cea475eb98603c869d13cf1b66d28]
class com.hack23.sonar.cloudformation.parser.CfnNagReportReader--><a href="CfnNagReportReader.html" target="_top" title="CfnNagReportReader.html" xlink:actuate="onRequest" xlink:href="CfnNagReportReader.html" xlink:show="new" xlink:title="CfnNagReportReader.html" xlink:type="simple"><rect fill="#FEFECE" filter="url(#fi35sfhiq04no)" height="60.8047" id="com.hack23.sonar.cloudformation.parser.CfnNagReportReader" style="stroke: #A80036; stroke-width: 1.5;" width="253" x="580.5" y="49.5"/><ellipse cx="636.75" cy="65.5" fill="#ADD1B2" rx="11" ry="11" style="stroke: #A80036; stroke-width: 1.0;"/><path d="M639.7188,71.1406 Q639.1406,71.4375 638.5,71.5781 Q637.8594,71.7344 637.1563,71.7344 Q634.6563,71.7344 633.3281,70.0938 Q632.0156,68.4375 632.0156,65.3125 Q632.0156,62.1875 633.3281,60.5313 Q634.6563,58.875 637.1563,58.875 Q637.8594,58.875 638.5,59.0313 Q639.1563,59.1875 639.7188,59.4844 L639.7188,62.2031 Q639.0938,61.625 638.5,61.3594 Q637.9063,61.0781 637.2813,61.0781 Q635.9375,61.0781 635.25,62.1563 Q634.5625,63.2188 634.5625,65.3125 Q634.5625,67.4063 635.25,68.4844 Q635.9375,69.5469 637.2813,69.5469 Q637.9063,69.5469 638.5,69.2813 Q639.0938,69 639.7188,68.4219 L639.7188,71.1406 Z "/><text fill="#000000" font-family="sans-serif" font-size="12" lengthAdjust="spacingAndGlyphs" textLength="132" x="657.25" y="69.6543">CfnNagReportReader</text><line style="stroke: #A80036; stroke-width: 1.5;" x1="581.5" x2="832.5" y1="81.5" y2="81.5"/><line style="stroke: #A80036; stroke-width: 1.5;" x1="581.5" x2="832.5" y1="89.5" y2="89.5"/><ellipse cx="591.5" cy="100.5" fill="#84BE84" rx="3" ry="3" style="stroke: #038048; stroke-width: 1.0;"/><text fill="#000000" font-family="sans-serif" font-size="11" lengthAdjust="spacingAndGlyphs" textLength="227" x="600.5" y="103.7104">readReport(InputStream): CfnNagReport</text></a><!--MD5=[973012a9df9719381d34b30102ef99fb]
class com.hack23.sonar.cloudformation.parser.CfnNagScanReport--><a href="CfnNagScanReport.html" target="_top" title="CfnNagScanReport.html" xlink:actuate="onRequest" xlink:href="CfnNagScanReport.html" xlink:show="new" xlink:title="CfnNagScanReport.html" xlink:type="simple"><rect fill="#FEFECE" filter="url(#fi35sfhiq04no)" height="73.6094" id="com.hack23.sonar.cloudformation.parser.CfnNagScanReport" style="stroke: #A80036; stroke-width: 1.5;" width="168" x="377" y="43"/><ellipse cx="400.1" cy="59" fill="#ADD1B2" rx="11" ry="11" style="stroke: #A80036; stroke-width: 1.0;"/><path d="M403.0688,64.6406 Q402.4906,64.9375 401.85,65.0781 Q401.2094,65.2344 400.5063,65.2344 Q398.0063,65.2344 396.6781,63.5938 Q395.3656,61.9375 395.3656,58.8125 Q395.3656,55.6875 396.6781,54.0313 Q398.0063,52.375 400.5063,52.375 Q401.2094,52.375 401.85,52.5313 Q402.5063,52.6875 403.0688,52.9844 L403.0688,55.7031 Q402.4438,55.125 401.85,54.8594 Q401.2563,54.5781 400.6313,54.5781 Q399.2875,54.5781 398.6,55.6563 Q397.9125,56.7188 397.9125,58.8125 Q397.9125,60.9063 398.6,61.9844 Q399.2875,63.0469 400.6313,63.0469 Q401.2563,63.0469 401.85,62.7813 Q402.4438,62.5 403.0688,61.9219 L403.0688,64.6406 Z "/><text fill="#000000" font-family="sans-serif" font-size="12" lengthAdjust="spacingAndGlyphs" textLength="118" x="415.9" y="63.1543">CfnNagScanReport</text><line style="stroke: #A80036; stroke-width: 1.5;" x1="378" x2="544" y1="75" y2="75"/><line style="stroke: #A80036; stroke-width: 1.5;" x1="378" x2="544" y1="83" y2="83"/><ellipse cx="388" cy="94" fill="#84BE84" rx="3" ry="3" style="stroke: #038048; stroke-width: 1.0;"/><text fill="#000000" font-family="sans-serif" font-size="11" lengthAdjust="spacingAndGlyphs" textLength="119" x="397" y="97.2104">getFilename(): String</text><ellipse cx="388" cy="106.8047" fill="#84BE84" rx="3" ry="3" style="stroke: #038048; stroke-width: 1.0;"/><text fill="#000000" font-family="sans-serif" font-size="11" lengthAdjust="spacingAndGlyphs" textLength="142" x="397" y="110.0151">setFilename(String): void</text></a><!--MD5=[6a13ec146c2dc674c74e56333cf988df]
class com.hack23.sonar.cloudformation.parser.CfnNagReport--><a href="CfnNagReport.html" target="_top" title="CfnNagReport.html" xlink:actuate="onRequest" xlink:href="CfnNagReport.html" xlink:show="new" xlink:title="CfnNagReport.html" xlink:type="simple"><rect fill="#FEFECE" filter="url(#fi35sfhiq04no)" height="73.6094" id="com.hack23.sonar.cloudformation.parser.CfnNagReport" style="stroke: #A80036; stroke-width: 1.5;" width="172" x="375" y="256"/><ellipse cx="413.85" cy="272" fill="#ADD1B2" rx="11" ry="11" style="stroke: #A80036; stroke-width: 1.0;"/><path d="M416.8188,277.6406 Q416.2406,277.9375 415.6,278.0781 Q414.9594,278.2344 414.2563,278.2344 Q411.7563,278.2344 410.4281,276.5938 Q409.1156,274.9375 409.1156,271.8125 Q409.1156,268.6875 410.4281,267.0313 Q411.7563,265.375 414.2563,265.375 Q414.9594,265.375 415.6,265.5313 Q416.2563,265.6875 416.8188,265.9844 L416.8188,268.7031 Q416.1938,268.125 415.6,267.8594 Q415.0063,267.5781 414.3813,267.5781 Q413.0375,267.5781 412.35,268.6563 Q411.6625,269.7188 411.6625,271.8125 Q411.6625,273.9063 412.35,274.9844 Q413.0375,276.0469 414.3813,276.0469 Q415.0063,276.0469 415.6,275.7813 Q416.1938,275.5 416.8188,274.9219 L416.8188,277.6406 Z "/><text fill="#000000" font-family="sans-serif" font-size="12" lengthAdjust="spacingAndGlyphs" textLength="87" x="433.15" y="276.1543">CfnNagReport</text><line style="stroke: #A80036; stroke-width: 1.5;" x1="376" x2="546" y1="288" y2="288"/><line style="stroke: #A80036; stroke-width: 1.5;" x1="376" x2="546" y1="296" y2="296"/><ellipse cx="386" cy="307" fill="#84BE84" rx="3" ry="3" style="stroke: #038048; stroke-width: 1.0;"/><text fill="#000000" font-family="sans-serif" font-size="11" lengthAdjust="spacingAndGlyphs" textLength="123" x="395" y="310.2104">getFailure_count(): int</text><ellipse cx="386" cy="319.8047" fill="#84BE84" rx="3" ry="3" style="stroke: #038048; stroke-width: 1.0;"/><text fill="#000000" font-family="sans-serif" font-size="11" lengthAdjust="spacingAndGlyphs" textLength="146" x="395" y="323.0151">setFailure_count(int): void</text></a><!--MD5=[3ff67a89d4b7a817d5edc57d65b67c1e]
class com.hack23.sonar.cloudformation.parser.CfnNagViolation--><a href="CfnNagViolation.html" target="_top" title="CfnNagViolation.html" xlink:actuate="onRequest" xlink:href="CfnNagViolation.html" xlink:show="new" xlink:title="CfnNagViolation.html" xlink:type="simple"><rect fill="#FEFECE" filter="url(#fi35sfhiq04no)" height="176.0469" id="com.hack23.sonar.cloudformation.parser.CfnNagViolation" style="stroke: #A80036; stroke-width: 1.5;" width="274" x="324" y="469"/><ellipse cx="407.25" cy="485" fill="#ADD1B2" rx="11" ry="11" style="stroke: #A80036; stroke-width: 1.0;"/><path d="M410.2188,490.6406 Q409.6406,490.9375 409,491.0781 Q408.3594,491.2344 407.6563,491.2344 Q405.1563,491.2344 403.8281,489.5938 Q402.5156,487.9375 402.5156,484.8125 Q402.5156,481.6875 403.8281,480.0313 Q405.1563,478.375 407.6563,478.375 Q408.3594,478.375 409,478.5313 Q409.6563,478.6875 410.2188,478.9844 L410.2188,481.7031 Q409.5938,481.125 409,480.8594 Q408.4063,480.5781 407.7813,480.5781 Q406.4375,480.5781 405.75,481.6563 Q405.0625,482.7188 405.0625,484.8125 Q405.0625,486.9063 405.75,487.9844 Q406.4375,489.0469 407.7813,489.0469 Q408.4063,489.0469 409,488.7813 Q409.5938,488.5 410.2188,487.9219 L410.2188,490.6406 Z "/><text fill="#000000" font-family="sans-serif" font-size="12" lengthAdjust="spacingAndGlyphs" textLength="99" x="427.75" y="489.1543">CfnNagViolation</text><line style="stroke: #A80036; stroke-width: 1.5;" x1="325" x2="597" y1="501" y2="501"/><line style="stroke: #A80036; stroke-width: 1.5;" x1="325" x2="597" y1="509" y2="509"/><ellipse cx="335" cy="520" fill="#84BE84" rx="3" ry="3" style="stroke: #038048; stroke-width: 1.0;"/><text fill="#000000" font-family="sans-serif" font-size="11" lengthAdjust="spacingAndGlyphs" textLength="78" x="344" y="523.2104">getId(): String</text><ellipse cx="335" cy="532.8047" fill="#84BE84" rx="3" ry="3" style="stroke: #038048; stroke-width: 1.0;"/><text fill="#000000" font-family="sans-serif" font-size="11" lengthAdjust="spacingAndGlyphs" textLength="101" x="344" y="536.0151">setId(String): void</text><ellipse cx="335" cy="545.6094" fill="#84BE84" rx="3" ry="3" style="stroke: #038048; stroke-width: 1.0;"/><text fill="#000000" font-family="sans-serif" font-size="11" lengthAdjust="spacingAndGlyphs" textLength="95" x="344" y="548.8198">getType(): String</text><ellipse cx="335" cy="558.4141" fill="#84BE84" rx="3" ry="3" style="stroke: #038048; stroke-width: 1.0;"/><text fill="#000000" font-family="sans-serif" font-size="11" lengthAdjust="spacingAndGlyphs" textLength="118" x="344" y="561.6245">setType(String): void</text><ellipse cx="335" cy="571.2188" fill="#84BE84" rx="3" ry="3" style="stroke: #038048; stroke-width: 1.0;"/><text fill="#000000" font-family="sans-serif" font-size="11" lengthAdjust="spacingAndGlyphs" textLength="119" x="344" y="574.4292">getMessage(): String</text><ellipse cx="335" cy="584.0234" fill="#84BE84" rx="3" ry="3" style="stroke: #038048; stroke-width: 1.0;"/><text fill="#000000" font-family="sans-serif" font-size="11" lengthAdjust="spacingAndGlyphs" textLength="142" x="344" y="587.2339">setMessage(String): void</text><ellipse cx="335" cy="596.8281" fill="#84BE84" rx="3" ry="3" style="stroke: #038048; stroke-width: 1.0;"/><text fill="#000000" font-family="sans-serif" font-size="11" lengthAdjust="spacingAndGlyphs" textLength="225" x="344" y="600.0386">getLogical_resource_ids(): List&lt;String&gt;</text><ellipse cx="335" cy="609.6328" fill="#84BE84" rx="3" ry="3" style="stroke: #038048; stroke-width: 1.0;"/><text fill="#000000" font-family="sans-serif" font-size="11" lengthAdjust="spacingAndGlyphs" textLength="248" x="344" y="612.8433">setLogical_resource_ids(List&lt;String&gt;): void</text><ellipse cx="335" cy="622.4375" fill="#84BE84" rx="3" ry="3" style="stroke: #038048; stroke-width: 1.0;"/><text fill="#000000" font-family="sans-serif" font-size="11" lengthAdjust="spacingAndGlyphs" textLength="192" x="344" y="625.6479">getLine_numbers(): List&lt;Integer&gt;</text><ellipse cx="335" cy="635.2422" fill="#84BE84" rx="3" ry="3" style="stroke: #038048; stroke-width: 1.0;"/><text fill="#000000" font-family="sans-serif" font-size="11" lengthAdjust="spacingAndGlyphs" textLength="215" x="344" y="638.4526">setLine_numbers(List&lt;Integer&gt;): void</text></a><!--MD5=[f7656aacb17008ea39cb5d52d37cf839]
class com.hack23.sonar.cloudformation.parser.CfnNagScanReportReader--><a href="CfnNagScanReportReader.html" target="_top" title="CfnNagScanReportReader.html" xlink:actuate="onRequest" xlink:href="CfnNagScanReportReader.html" xlink:show="new" xlink:title="CfnNagScanReportReader.html" xlink:type="simple"><rect fill="#FEFECE" filter="url(#fi35sfhiq04no)" height="60.8047" id="com.hack23.sonar.cloudformation.parser.CfnNagScanReportReader" style="stroke: #A80036; stroke-width: 1.5;" width="319" x="22.5" y="49.5"/><ellipse cx="96.25" cy="65.5" fill="#ADD1B2" rx="11" ry="11" style="stroke: #A80036; stroke-width: 1.0;"/><path d="M99.2188,71.1406 Q98.6406,71.4375 98,71.5781 Q97.3594,71.7344 96.6563,71.7344 Q94.1563,71.7344 92.8281,70.0938 Q91.5156,68.4375 91.5156,65.3125 Q91.5156,62.1875 92.8281,60.5313 Q94.1563,58.875 96.6563,58.875 Q97.3594,58.875 98,59.0313 Q98.6563,59.1875 99.2188,59.4844 L99.2188,62.2031 Q98.5938,61.625 98,61.3594 Q97.4063,61.0781 96.7813,61.0781 Q95.4375,61.0781 94.75,62.1563 Q94.0625,63.2188 94.0625,65.3125 Q94.0625,67.4063 94.75,68.4844 Q95.4375,69.5469 96.7813,69.5469 Q97.4063,69.5469 98,69.2813 Q98.5938,69 99.2188,68.4219 L99.2188,71.1406 Z "/><text fill="#000000" font-family="sans-serif" font-size="12" lengthAdjust="spacingAndGlyphs" textLength="163" x="116.75" y="69.6543">CfnNagScanReportReader</text><line style="stroke: #A80036; stroke-width: 1.5;" x1="23.5" x2="340.5" y1="81.5" y2="81.5"/><line style="stroke: #A80036; stroke-width: 1.5;" x1="23.5" x2="340.5" y1="89.5" y2="89.5"/><ellipse cx="33.5" cy="100.5" fill="#84BE84" rx="3" ry="3" style="stroke: #038048; stroke-width: 1.0;"/><text fill="#000000" font-family="sans-serif" font-size="11" lengthAdjust="spacingAndGlyphs" textLength="293" x="42.5" y="103.7104">readReport(InputStream): List&lt;CfnNagScanReport&gt;</text></a><!--MD5=[98c58a8225cf257179c3ed7d7a39c653]
link com.hack23.sonar.cloudformation.parser.CfnNagScanReport to com.hack23.sonar.cloudformation.parser.CfnNagReport--><path d="M461,117.1018 C461,154.4026 461,211.8204 461,250.8275 " fill="none" id="com.hack23.sonar.cloudformation.parser.CfnNagScanReport-&gt;com.hack23.sonar.cloudformation.parser.CfnNagReport" style="stroke: #A80036; stroke-width: 1.0;"/><polygon fill="#A80036" points="461,255.9667,465,246.9667,461,250.9667,457,246.9667,461,255.9667" style="stroke: #A80036; stroke-width: 1.0;"/><text fill="#000000" font-family="sans-serif" font-size="13" lengthAdjust="spacingAndGlyphs" textLength="68" x="462" y="191.0669">file_results</text><!--MD5=[561ec18d708f70a97eab48bc9fc1a956]
link com.hack23.sonar.cloudformation.parser.CfnNagReport to com.hack23.sonar.cloudformation.parser.CfnNagViolation--><path d="M461,330.2648 C461,364.8915 461,417.9009 461,463.9592 " fill="none" id="com.hack23.sonar.cloudformation.parser.CfnNagReport-&gt;com.hack23.sonar.cloudformation.parser.CfnNagViolation" style="stroke: #A80036; stroke-width: 1.0;"/><polygon fill="#A80036" points="461,468.965,465,459.965,461,463.965,457,459.965,461,468.965" style="stroke: #A80036; stroke-width: 1.0;"/><text fill="#000000" font-family="sans-serif" font-size="13" lengthAdjust="spacingAndGlyphs" textLength="60" x="462" y="404.0669">violations</text><text fill="#000000" font-family="sans-serif" font-size="13" lengthAdjust="spacingAndGlyphs" textLength="7" x="453.6992" y="457.8255">*</text><text fill="#888888" font-family="sans-serif" font-size="10" lengthAdjust="spacingAndGlyphs" textLength="186" x="341" y="680.2822">UMLDoclet 2.0.7, PlantUML 1.2019.12</text><!--MD5=[08157478fcc875234f43c860998ddd7e]
@startuml
    namespace com.hack23.sonar.cloudformation.parser {

        class CfnNagReportReader [[CfnNagReportReader.html]] {
            +readReport(InputStream): CfnNagReport
        }

        class CfnNagScanReport [[CfnNagScanReport.html]] {
            +getFilename(): String
            +setFilename(String): void
        }

        class CfnNagReport [[CfnNagReport.html]] {
            +getFailure_count(): int
            +setFailure_count(int): void
        }

        class CfnNagViolation [[CfnNagViolation.html]] {
            +getId(): String
            +setId(String): void
            +getType(): String
            +setType(String): void
            +getMessage(): String
            +setMessage(String): void
            +getLogical_resource_ids(): List<String>
            +setLogical_resource_ids(List<String>): void
            +getLine_numbers(): List<Integer>
            +setLine_numbers(List<Integer>): void
        }

        class CfnNagScanReportReader [[CfnNagScanReportReader.html]] {
            +readReport(InputStream): List<CfnNagScanReport>
        }

        CfnNagScanReport - -> CfnNagReport: file_results
        CfnNagReport - -> "*" CfnNagViolation: violations
    }

    center footer UMLDoclet 2.0.7, PlantUML 1.2019.12
@enduml

PlantUML version 1.2019.12(Sun Nov 03 11:24:54 CET 2019)
(APACHE source distribution)
Java Runtime: OpenJDK Runtime Environment
JVM: OpenJDK 64-Bit Server VM
Java Version: 11.0.5-ea+10-post-Ubuntu-0ubuntu1
Operating System: Linux
Default Encoding: UTF-8
Language: en
Country: US
--></g></svg>