<?xml version="1.0" encoding="UTF-8" standalone="no"?><svg xmlns="http://www.w3.org/2000/svg" xmlns:xlink="http://www.w3.org/1999/xlink" contentStyleType="text/css" height="209px" preserveAspectRatio="none" style="width:421px;height:209px;background:#FFFFFF;" version="1.1" viewBox="0 0 421 209" width="421px" zoomAndPan="magnify"><defs/><g><!--MD5=[c74014599f47dcfe064d3bca15d7673f]
class com.hack23.sonar.cloudformation.reports.checkov.CheckovResults--><a href="CheckovResults.html" target="_top" title="CheckovResults.html" xlink:actuate="onRequest" xlink:href="CheckovResults.html" xlink:show="new" xlink:title="CheckovResults.html" xlink:type="simple"><g id="elem_com.hack23.sonar.cloudformation.reports.checkov.CheckovResults"><rect codeLine="5" fill="#F1F1F1" height="176.3125" id="com.hack23.sonar.cloudformation.reports.checkov.CheckovResults" rx="2.5" ry="2.5" style="stroke:#181818;stroke-width:0.5;" width="400" x="7" y="7"/><ellipse cx="80.75" cy="25.9688" fill="#ADD1B2" rx="11" ry="11" style="stroke:#181818;stroke-width:1.0;"/><path d="M83.7188,31.6094 Q83.1406,31.9063 82.5,32.0469 Q81.8594,32.2031 81.1563,32.2031 Q78.6563,32.2031 77.3281,30.5625 Q76.0156,28.9063 76.0156,25.7813 Q76.0156,22.6563 77.3281,21 Q78.6563,19.3438 81.1563,19.3438 Q81.8594,19.3438 82.5,19.5 Q83.1563,19.6563 83.7188,19.9531 L83.7188,22.6719 Q83.0938,22.0938 82.5,21.8281 Q81.9063,21.5469 81.2813,21.5469 Q79.9375,21.5469 79.25,22.625 Q78.5625,23.6875 78.5625,25.7813 Q78.5625,27.875 79.25,28.9531 Q79.9375,30.0156 81.2813,30.0156 Q81.9063,30.0156 82.5,29.75 Q83.0938,29.4688 83.7188,28.8906 L83.7188,31.6094 Z " fill="#000000"/><text fill="#000000" font-family="sans-serif" font-size="14" lengthAdjust="spacing" textLength="112" x="167.25" y="24.9951">CheckovResults</text><text fill="#000000" font-family="sans-serif" font-size="10" lengthAdjust="spacing" textLength="244" x="101.25" y="37.5791">com.hack23.sonar.cloudformation.reports.checkov</text><line style="stroke:#181818;stroke-width:0.5;" x1="8" x2="406" y1="44.9375" y2="44.9375"/><ellipse cx="18" cy="55.9375" fill="#84BE84" rx="3" ry="3" style="stroke:#038048;stroke-width:1.0;"/><text fill="#000000" font-family="sans-serif" font-size="14" lengthAdjust="spacing" textLength="347" x="27" y="61.9326">getPassedChecks(): List&lt;CheckovPassedCheck&gt;</text><ellipse cx="18" cy="72.2344" fill="#84BE84" rx="3" ry="3" style="stroke:#038048;stroke-width:1.0;"/><text fill="#000000" font-family="sans-serif" font-size="14" lengthAdjust="spacing" textLength="374" x="27" y="78.2295">setPassedChecks(List&lt;CheckovPassedCheck&gt;): void</text><ellipse cx="18" cy="88.5313" fill="#84BE84" rx="3" ry="3" style="stroke:#038048;stroke-width:1.0;"/><text fill="#000000" font-family="sans-serif" font-size="14" lengthAdjust="spacing" textLength="336" x="27" y="94.5264">getFailedChecks(): List&lt;CheckovPassedCheck&gt;</text><ellipse cx="18" cy="104.8281" fill="#84BE84" rx="3" ry="3" style="stroke:#038048;stroke-width:1.0;"/><text fill="#000000" font-family="sans-serif" font-size="14" lengthAdjust="spacing" textLength="363" x="27" y="110.8232">setFailedChecks(List&lt;CheckovPassedCheck&gt;): void</text><ellipse cx="18" cy="121.125" fill="#84BE84" rx="3" ry="3" style="stroke:#038048;stroke-width:1.0;"/><text fill="#000000" font-family="sans-serif" font-size="14" lengthAdjust="spacing" textLength="237" x="27" y="127.1201">getSkippedChecks(): List&lt;String&gt;</text><ellipse cx="18" cy="137.4219" fill="#84BE84" rx="3" ry="3" style="stroke:#038048;stroke-width:1.0;"/><text fill="#000000" font-family="sans-serif" font-size="14" lengthAdjust="spacing" textLength="264" x="27" y="143.417">setSkippedChecks(List&lt;String&gt;): void</text><ellipse cx="18" cy="153.7188" fill="#84BE84" rx="3" ry="3" style="stroke:#038048;stroke-width:1.0;"/><text fill="#000000" font-family="sans-serif" font-size="14" lengthAdjust="spacing" textLength="221" x="27" y="159.7139">getParsingErrors(): List&lt;String&gt;</text><ellipse cx="18" cy="170.0156" fill="#84BE84" rx="3" ry="3" style="stroke:#038048;stroke-width:1.0;"/><text fill="#000000" font-family="sans-serif" font-size="14" lengthAdjust="spacing" textLength="248" x="27" y="176.0107">setParsingErrors(List&lt;String&gt;): void</text></g></a><rect height="11.6406" style="stroke:#00000000;stroke-width:1.0;fill:none;" width="186" x="113.5" y="190.3125"/><text fill="#888888" font-family="sans-serif" font-size="10" lengthAdjust="spacing" textLength="186" x="113.5" y="199.5947">UMLDoclet 2.0.18, PlantUML 1.2022.6</text><!--MD5=[ce51eb69e51b010b64e1463b71bca04e]
@startuml
    set namespaceSeparator none
    hide empty fields
    hide empty methods

    class "<size:14>CheckovResults\n<size:10>com.hack23.sonar.cloudformation.reports.checkov" as com.hack23.sonar.cloudformation.reports.checkov.CheckovResults [[CheckovResults.html]] {
        +getPassedChecks(): List<CheckovPassedCheck>
        +setPassedChecks(List<CheckovPassedCheck>): void
        +getFailedChecks(): List<CheckovPassedCheck>
        +setFailedChecks(List<CheckovPassedCheck>): void
        +getSkippedChecks(): List<String>
        +setSkippedChecks(List<String>): void
        +getParsingErrors(): List<String>
        +setParsingErrors(List<String>): void
    }

    center footer UMLDoclet 2.0.18, PlantUML 1.2022.6
@enduml

PlantUML version 1.2022.6(Tue Jun 21 19:34:49 CEST 2022)
(APACHE source distribution)
Java Runtime: OpenJDK Runtime Environment
JVM: OpenJDK 64-Bit Server VM
Default Encoding: ANSI_X3.4-1968
Language: en
Country: US
--></g></svg>