<?xml version="1.0" encoding="UTF-8" standalone="no"?><svg xmlns="http://www.w3.org/2000/svg" xmlns:xlink="http://www.w3.org/1999/xlink" contentStyleType="text/css" height="275px" preserveAspectRatio="none" style="width:297px;height:275px;background:#FFFFFF;" version="1.1" viewBox="0 0 297 275" width="297px" zoomAndPan="magnify"><defs/><g><!--MD5=[ad83b05fc8aff98b395babf705662c95]
class com.hack23.sonar.cloudformation.reports.checkov.CheckovSummary--><a href="CheckovSummary.html" target="_top" title="CheckovSummary.html" xlink:actuate="onRequest" xlink:href="CheckovSummary.html" xlink:show="new" xlink:title="CheckovSummary.html" xlink:type="simple"><g id="elem_com.hack23.sonar.cloudformation.reports.checkov.CheckovSummary"><rect codeLine="5" fill="#F1F1F1" height="241.5" id="com.hack23.sonar.cloudformation.reports.checkov.CheckovSummary" rx="2.5" ry="2.5" style="stroke:#181818;stroke-width:0.5;" width="276" x="7" y="7"/><ellipse cx="22" cy="25.9688" fill="#ADD1B2" rx="11" ry="11" style="stroke:#181818;stroke-width:1.0;"/><path d="M24.9688,31.6094 Q24.3906,31.9063 23.75,32.0469 Q23.1094,32.2031 22.4063,32.2031 Q19.9063,32.2031 18.5781,30.5625 Q17.2656,28.9063 17.2656,25.7813 Q17.2656,22.6563 18.5781,21 Q19.9063,19.3438 22.4063,19.3438 Q23.1094,19.3438 23.75,19.5 Q24.4063,19.6563 24.9688,19.9531 L24.9688,22.6719 Q24.3438,22.0938 23.75,21.8281 Q23.1563,21.5469 22.5313,21.5469 Q21.1875,21.5469 20.5,22.625 Q19.8125,23.6875 19.8125,25.7813 Q19.8125,27.875 20.5,28.9531 Q21.1875,30.0156 22.5313,30.0156 Q23.1563,30.0156 23.75,29.75 Q24.3438,29.4688 24.9688,28.8906 L24.9688,31.6094 Z " fill="#000000"/><text fill="#000000" font-family="sans-serif" font-size="14" lengthAdjust="spacing" textLength="124" x="96" y="24.9951">CheckovSummary</text><text fill="#000000" font-family="sans-serif" font-size="10" lengthAdjust="spacing" textLength="244" x="36" y="37.5791">com.hack23.sonar.cloudformation.reports.checkov</text><line style="stroke:#181818;stroke-width:0.5;" x1="8" x2="282" y1="44.9375" y2="44.9375"/><ellipse cx="18" cy="58.5859" fill="#84BE84" rx="3" ry="3" style="stroke:#038048;stroke-width:1.0;"/><text fill="#000000" font-family="sans-serif" font-size="14" lengthAdjust="spacing" textLength="110" x="27" y="61.9326">getPassed(): int</text><ellipse cx="18" cy="74.8828" fill="#84BE84" rx="3" ry="3" style="stroke:#038048;stroke-width:1.0;"/><text fill="#000000" font-family="sans-serif" font-size="14" lengthAdjust="spacing" textLength="137" x="27" y="78.2295">setPassed(int): void</text><ellipse cx="18" cy="91.1797" fill="#84BE84" rx="3" ry="3" style="stroke:#038048;stroke-width:1.0;"/><text fill="#000000" font-family="sans-serif" font-size="14" lengthAdjust="spacing" textLength="99" x="27" y="94.5264">getFailed(): int</text><ellipse cx="18" cy="107.4766" fill="#84BE84" rx="3" ry="3" style="stroke:#038048;stroke-width:1.0;"/><text fill="#000000" font-family="sans-serif" font-size="14" lengthAdjust="spacing" textLength="126" x="27" y="110.8232">setFailed(int): void</text><ellipse cx="18" cy="123.7734" fill="#84BE84" rx="3" ry="3" style="stroke:#038048;stroke-width:1.0;"/><text fill="#000000" font-family="sans-serif" font-size="14" lengthAdjust="spacing" textLength="115" x="27" y="127.1201">getSkipped(): int</text><ellipse cx="18" cy="140.0703" fill="#84BE84" rx="3" ry="3" style="stroke:#038048;stroke-width:1.0;"/><text fill="#000000" font-family="sans-serif" font-size="14" lengthAdjust="spacing" textLength="142" x="27" y="143.417">setSkipped(int): void</text><ellipse cx="18" cy="156.3672" fill="#84BE84" rx="3" ry="3" style="stroke:#038048;stroke-width:1.0;"/><text fill="#000000" font-family="sans-serif" font-size="14" lengthAdjust="spacing" textLength="151" x="27" y="159.7139">getParsingErrors(): int</text><ellipse cx="18" cy="172.6641" fill="#84BE84" rx="3" ry="3" style="stroke:#038048;stroke-width:1.0;"/><text fill="#000000" font-family="sans-serif" font-size="14" lengthAdjust="spacing" textLength="178" x="27" y="176.0107">setParsingErrors(int): void</text><ellipse cx="18" cy="188.9609" fill="#84BE84" rx="3" ry="3" style="stroke:#038048;stroke-width:1.0;"/><text fill="#000000" font-family="sans-serif" font-size="14" lengthAdjust="spacing" textLength="168" x="27" y="192.3076">getResourceCount(): int</text><ellipse cx="18" cy="205.2578" fill="#84BE84" rx="3" ry="3" style="stroke:#038048;stroke-width:1.0;"/><text fill="#000000" font-family="sans-serif" font-size="14" lengthAdjust="spacing" textLength="195" x="27" y="208.6045">setResourceCount(int): void</text><ellipse cx="18" cy="221.5547" fill="#84BE84" rx="3" ry="3" style="stroke:#038048;stroke-width:1.0;"/><text fill="#000000" font-family="sans-serif" font-size="14" lengthAdjust="spacing" textLength="194" x="27" y="224.9014">getCheckovVersion(): String</text><ellipse cx="18" cy="237.8516" fill="#84BE84" rx="3" ry="3" style="stroke:#038048;stroke-width:1.0;"/><text fill="#000000" font-family="sans-serif" font-size="14" lengthAdjust="spacing" textLength="221" x="27" y="241.1982">setCheckovVersion(String): void</text></g></a><rect fill="none" height="11.6406" style="stroke:none;stroke-width:1.0;" width="192" x="48.5" y="255.5"/><text fill="#888888" font-family="sans-serif" font-size="10" lengthAdjust="spacing" textLength="192" x="48.5" y="264.7822">UMLDoclet 2.0.20, PlantUML 1.2022.12</text><!--MD5=[97d4192894ea1255c07d39061bd9c53f]
@startuml
    set namespaceSeparator none
    hide empty fields
    hide empty methods

    class "<size:14>CheckovSummary\n<size:10>com.hack23.sonar.cloudformation.reports.checkov" as com.hack23.sonar.cloudformation.reports.checkov.CheckovSummary [[CheckovSummary.html]] {
        +getPassed(): int
        +setPassed(int): void
        +getFailed(): int
        +setFailed(int): void
        +getSkipped(): int
        +setSkipped(int): void
        +getParsingErrors(): int
        +setParsingErrors(int): void
        +getResourceCount(): int
        +setResourceCount(int): void
        +getCheckovVersion(): String
        +setCheckovVersion(String): void
    }

    center footer UMLDoclet 2.0.20, PlantUML 1.2022.12
@enduml

PlantUML version 1.2022.12(Sun Oct 23 20:12:26 CEST 2022)
(APACHE source distribution)
Java Runtime: OpenJDK Runtime Environment
JVM: OpenJDK 64-Bit Server VM
Default Encoding: UTF-8
Language: en
Country: US
--></g></svg>