<?xml version="1.0" encoding="UTF-8" standalone="no"?><svg xmlns="http://www.w3.org/2000/svg" xmlns:xlink="http://www.w3.org/1999/xlink" contentStyleType="text/css" height="1303px" preserveAspectRatio="none" style="width:618px;height:1303px;background:#FFFFFF;" version="1.1" viewBox="0 0 618 1303" width="618px" zoomAndPan="magnify"><defs/><g><!--MD5=[d1dcc449d80ae90eefdb164fa2dfcc08]
cluster com.hack23.sonar.cloudformation.reports.checkov--><g id="cluster_com.hack23.sonar.cloudformation.reports.checkov"><path d="M8.5,6 L413.5,6 A3.75,3.75 0 0 1 416,8.5 L423,28.2969 L608.5,28.2969 A2.5,2.5 0 0 1 611,30.7969 L611,1275.5 A2.5,2.5 0 0 1 608.5,1278 L8.5,1278 A2.5,2.5 0 0 1 6,1275.5 L6,8.5 A2.5,2.5 0 0 1 8.5,6 " style="stroke:#000000;stroke-width:1.5;fill:none;"/><line style="stroke:#000000;stroke-width:1.5;fill:none;" x1="6" x2="423" y1="28.2969" y2="28.2969"/><text fill="#000000" font-family="sans-serif" font-size="14" font-weight="bold" lengthAdjust="spacing" textLength="404" x="10" y="20.9951">com.hack23.sonar.cloudformation.reports.checkov</text></g><!--MD5=[a29940e79b95c51a6d00bb8be297f12e]
class com.hack23.sonar.cloudformation.reports.checkov.EntityTags--><a href="EntityTags.html" target="_top" title="EntityTags.html" xlink:actuate="onRequest" xlink:href="EntityTags.html" xlink:show="new" xlink:title="EntityTags.html" xlink:type="simple"><g id="elem_com.hack23.sonar.cloudformation.reports.checkov.EntityTags"><rect codeLine="3" fill="#F1F1F1" height="80.5938" id="com.hack23.sonar.cloudformation.reports.checkov.EntityTags" rx="2.5" ry="2.5" style="stroke:#181818;stroke-width:0.5;" width="175" x="79.5" y="1181"/><ellipse cx="126.75" cy="1197" fill="#ADD1B2" rx="11" ry="11" style="stroke:#181818;stroke-width:1.0;"/><path d="M129.7188,1202.6406 Q129.1406,1202.9375 128.5,1203.0781 Q127.8594,1203.2344 127.1563,1203.2344 Q124.6563,1203.2344 123.3281,1201.5938 Q122.0156,1199.9375 122.0156,1196.8125 Q122.0156,1193.6875 123.3281,1192.0313 Q124.6563,1190.375 127.1563,1190.375 Q127.8594,1190.375 128.5,1190.5313 Q129.1563,1190.6875 129.7188,1190.9844 L129.7188,1193.7031 Q129.0938,1193.125 128.5,1192.8594 Q127.9063,1192.5781 127.2813,1192.5781 Q125.9375,1192.5781 125.25,1193.6563 Q124.5625,1194.7188 124.5625,1196.8125 Q124.5625,1198.9063 125.25,1199.9844 Q125.9375,1201.0469 127.2813,1201.0469 Q127.9063,1201.0469 128.5,1200.7813 Q129.0938,1200.5 129.7188,1199.9219 L129.7188,1202.6406 Z " fill="#000000"/><text fill="#000000" font-family="sans-serif" font-size="14" lengthAdjust="spacing" textLength="72" x="147.25" y="1201.8467">EntityTags</text><line style="stroke:#181818;stroke-width:0.5;" x1="80.5" x2="253.5" y1="1213" y2="1213"/><line style="stroke:#181818;stroke-width:0.5;" x1="80.5" x2="253.5" y1="1221" y2="1221"/><ellipse cx="90.5" cy="1232" fill="#84BE84" rx="3" ry="3" style="stroke:#038048;stroke-width:1.0;"/><text fill="#000000" font-family="sans-serif" font-size="14" lengthAdjust="spacing" textLength="122" x="99.5" y="1237.9951">getName(): String</text><ellipse cx="90.5" cy="1248.2969" fill="#84BE84" rx="3" ry="3" style="stroke:#038048;stroke-width:1.0;"/><text fill="#000000" font-family="sans-serif" font-size="14" lengthAdjust="spacing" textLength="149" x="99.5" y="1254.292">setName(String): void</text></g></a><!--MD5=[c74014599f47dcfe064d3bca15d7673f]
class com.hack23.sonar.cloudformation.reports.checkov.CheckovResults--><a href="CheckovResults.html" target="_top" title="CheckovResults.html" xlink:actuate="onRequest" xlink:href="CheckovResults.html" xlink:show="new" xlink:title="CheckovResults.html" xlink:type="simple"><g id="elem_com.hack23.sonar.cloudformation.reports.checkov.CheckovResults"><rect codeLine="8" fill="#F1F1F1" height="113.1875" id="com.hack23.sonar.cloudformation.reports.checkov.CheckovResults" rx="2.5" ry="2.5" style="stroke:#181818;stroke-width:0.5;" width="290" x="22" y="264.5"/><ellipse cx="106.75" cy="280.5" fill="#ADD1B2" rx="11" ry="11" style="stroke:#181818;stroke-width:1.0;"/><path d="M109.7188,286.1406 Q109.1406,286.4375 108.5,286.5781 Q107.8594,286.7344 107.1563,286.7344 Q104.6563,286.7344 103.3281,285.0938 Q102.0156,283.4375 102.0156,280.3125 Q102.0156,277.1875 103.3281,275.5313 Q104.6563,273.875 107.1563,273.875 Q107.8594,273.875 108.5,274.0313 Q109.1563,274.1875 109.7188,274.4844 L109.7188,277.2031 Q109.0938,276.625 108.5,276.3594 Q107.9063,276.0781 107.2813,276.0781 Q105.9375,276.0781 105.25,277.1563 Q104.5625,278.2188 104.5625,280.3125 Q104.5625,282.4063 105.25,283.4844 Q105.9375,284.5469 107.2813,284.5469 Q107.9063,284.5469 108.5,284.2813 Q109.0938,284 109.7188,283.4219 L109.7188,286.1406 Z " fill="#000000"/><text fill="#000000" font-family="sans-serif" font-size="14" lengthAdjust="spacing" textLength="112" x="127.25" y="285.3467">CheckovResults</text><line style="stroke:#181818;stroke-width:0.5;" x1="23" x2="311" y1="296.5" y2="296.5"/><line style="stroke:#181818;stroke-width:0.5;" x1="23" x2="311" y1="304.5" y2="304.5"/><ellipse cx="33" cy="315.5" fill="#84BE84" rx="3" ry="3" style="stroke:#038048;stroke-width:1.0;"/><text fill="#000000" font-family="sans-serif" font-size="14" lengthAdjust="spacing" textLength="237" x="42" y="321.4951">getSkippedChecks(): List&lt;String&gt;</text><ellipse cx="33" cy="331.7969" fill="#84BE84" rx="3" ry="3" style="stroke:#038048;stroke-width:1.0;"/><text fill="#000000" font-family="sans-serif" font-size="14" lengthAdjust="spacing" textLength="264" x="42" y="337.792">setSkippedChecks(List&lt;String&gt;): void</text><ellipse cx="33" cy="348.0938" fill="#84BE84" rx="3" ry="3" style="stroke:#038048;stroke-width:1.0;"/><text fill="#000000" font-family="sans-serif" font-size="14" lengthAdjust="spacing" textLength="221" x="42" y="354.0889">getParsingErrors(): List&lt;String&gt;</text><ellipse cx="33" cy="364.3906" fill="#84BE84" rx="3" ry="3" style="stroke:#038048;stroke-width:1.0;"/><text fill="#000000" font-family="sans-serif" font-size="14" lengthAdjust="spacing" textLength="248" x="42" y="370.3857">setParsingErrors(List&lt;String&gt;): void</text></g></a><!--MD5=[0de1c28b19c66f18248dce4527ec581d]
class com.hack23.sonar.cloudformation.reports.checkov.CheckovPassedCheck--><a href="CheckovPassedCheck.html" target="_top" title="CheckovPassedCheck.html" xlink:actuate="onRequest" xlink:href="CheckovPassedCheck.html" xlink:show="new" xlink:title="CheckovPassedCheck.html" xlink:type="simple"><g id="elem_com.hack23.sonar.cloudformation.reports.checkov.CheckovPassedCheck"><rect codeLine="15" fill="#F1F1F1" height="569.5" id="com.hack23.sonar.cloudformation.reports.checkov.CheckovPassedCheck" rx="2.5" ry="2.5" style="stroke:#181818;stroke-width:0.5;" width="287" x="23.5" y="535"/><ellipse cx="85.25" cy="551" fill="#ADD1B2" rx="11" ry="11" style="stroke:#181818;stroke-width:1.0;"/><path d="M88.2188,556.6406 Q87.6406,556.9375 87,557.0781 Q86.3594,557.2344 85.6563,557.2344 Q83.1563,557.2344 81.8281,555.5938 Q80.5156,553.9375 80.5156,550.8125 Q80.5156,547.6875 81.8281,546.0313 Q83.1563,544.375 85.6563,544.375 Q86.3594,544.375 87,544.5313 Q87.6563,544.6875 88.2188,544.9844 L88.2188,547.7031 Q87.5938,547.125 87,546.8594 Q86.4063,546.5781 85.7813,546.5781 Q84.4375,546.5781 83.75,547.6563 Q83.0625,548.7188 83.0625,550.8125 Q83.0625,552.9063 83.75,553.9844 Q84.4375,555.0469 85.7813,555.0469 Q86.4063,555.0469 87,554.7813 Q87.5938,554.5 88.2188,553.9219 L88.2188,556.6406 Z " fill="#000000"/><text fill="#000000" font-family="sans-serif" font-size="14" lengthAdjust="spacing" textLength="155" x="105.75" y="555.8467">CheckovPassedCheck</text><line style="stroke:#181818;stroke-width:0.5;" x1="24.5" x2="309.5" y1="567" y2="567"/><line style="stroke:#181818;stroke-width:0.5;" x1="24.5" x2="309.5" y1="575" y2="575"/><ellipse cx="34.5" cy="586" fill="#84BE84" rx="3" ry="3" style="stroke:#038048;stroke-width:1.0;"/><text fill="#000000" font-family="sans-serif" font-size="14" lengthAdjust="spacing" textLength="138" x="43.5" y="591.9951">getCheckId(): String</text><ellipse cx="34.5" cy="602.2969" fill="#84BE84" rx="3" ry="3" style="stroke:#038048;stroke-width:1.0;"/><text fill="#000000" font-family="sans-serif" font-size="14" lengthAdjust="spacing" textLength="165" x="43.5" y="608.292">setCheckId(String): void</text><ellipse cx="34.5" cy="618.5938" fill="#84BE84" rx="3" ry="3" style="stroke:#038048;stroke-width:1.0;"/><text fill="#000000" font-family="sans-serif" font-size="14" lengthAdjust="spacing" textLength="156" x="43.5" y="624.5889">getBcCheckId(): String</text><ellipse cx="34.5" cy="634.8906" fill="#84BE84" rx="3" ry="3" style="stroke:#038048;stroke-width:1.0;"/><text fill="#000000" font-family="sans-serif" font-size="14" lengthAdjust="spacing" textLength="183" x="43.5" y="640.8857">setBcCheckId(String): void</text><ellipse cx="34.5" cy="651.1875" fill="#84BE84" rx="3" ry="3" style="stroke:#038048;stroke-width:1.0;"/><text fill="#000000" font-family="sans-serif" font-size="14" lengthAdjust="spacing" textLength="166" x="43.5" y="657.1826">getCheckName(): String</text><ellipse cx="34.5" cy="667.4844" fill="#84BE84" rx="3" ry="3" style="stroke:#038048;stroke-width:1.0;"/><text fill="#000000" font-family="sans-serif" font-size="14" lengthAdjust="spacing" textLength="193" x="43.5" y="673.4795">setCheckName(String): void</text><ellipse cx="34.5" cy="683.7813" fill="#84BE84" rx="3" ry="3" style="stroke:#038048;stroke-width:1.0;"/><text fill="#000000" font-family="sans-serif" font-size="14" lengthAdjust="spacing" textLength="175" x="43.5" y="689.7764">getCheckResult(): Object</text><ellipse cx="34.5" cy="700.0781" fill="#84BE84" rx="3" ry="3" style="stroke:#038048;stroke-width:1.0;"/><text fill="#000000" font-family="sans-serif" font-size="14" lengthAdjust="spacing" textLength="202" x="43.5" y="706.0732">setCheckResult(Object): void</text><ellipse cx="34.5" cy="716.375" fill="#84BE84" rx="3" ry="3" style="stroke:#038048;stroke-width:1.0;"/><text fill="#000000" font-family="sans-serif" font-size="14" lengthAdjust="spacing" textLength="209" x="43.5" y="722.3701">getCodeBlock(): List&lt;Object&gt;</text><ellipse cx="34.5" cy="732.6719" fill="#84BE84" rx="3" ry="3" style="stroke:#038048;stroke-width:1.0;"/><text fill="#000000" font-family="sans-serif" font-size="14" lengthAdjust="spacing" textLength="236" x="43.5" y="738.667">setCodeBlock(List&lt;Object&gt;): void</text><ellipse cx="34.5" cy="748.9688" fill="#84BE84" rx="3" ry="3" style="stroke:#038048;stroke-width:1.0;"/><text fill="#000000" font-family="sans-serif" font-size="14" lengthAdjust="spacing" textLength="136" x="43.5" y="754.9639">getFilePath(): String</text><ellipse cx="34.5" cy="765.2656" fill="#84BE84" rx="3" ry="3" style="stroke:#038048;stroke-width:1.0;"/><text fill="#000000" font-family="sans-serif" font-size="14" lengthAdjust="spacing" textLength="163" x="43.5" y="771.2607">setFilePath(String): void</text><ellipse cx="34.5" cy="781.5625" fill="#84BE84" rx="3" ry="3" style="stroke:#038048;stroke-width:1.0;"/><text fill="#000000" font-family="sans-serif" font-size="14" lengthAdjust="spacing" textLength="173" x="43.5" y="787.5576">getRepoFilePath(): String</text><ellipse cx="34.5" cy="797.8594" fill="#84BE84" rx="3" ry="3" style="stroke:#038048;stroke-width:1.0;"/><text fill="#000000" font-family="sans-serif" font-size="14" lengthAdjust="spacing" textLength="200" x="43.5" y="803.8545">setRepoFilePath(String): void</text><ellipse cx="34.5" cy="814.1563" fill="#84BE84" rx="3" ry="3" style="stroke:#038048;stroke-width:1.0;"/><text fill="#000000" font-family="sans-serif" font-size="14" lengthAdjust="spacing" textLength="234" x="43.5" y="820.1514">getFileLineRange(): List&lt;Integer&gt;</text><ellipse cx="34.5" cy="830.4531" fill="#84BE84" rx="3" ry="3" style="stroke:#038048;stroke-width:1.0;"/><text fill="#000000" font-family="sans-serif" font-size="14" lengthAdjust="spacing" textLength="261" x="43.5" y="836.4482">setFileLineRange(List&lt;Integer&gt;): void</text><ellipse cx="34.5" cy="846.75" fill="#84BE84" rx="3" ry="3" style="stroke:#038048;stroke-width:1.0;"/><text fill="#000000" font-family="sans-serif" font-size="14" lengthAdjust="spacing" textLength="149" x="43.5" y="852.7451">getResource(): String</text><ellipse cx="34.5" cy="863.0469" fill="#84BE84" rx="3" ry="3" style="stroke:#038048;stroke-width:1.0;"/><text fill="#000000" font-family="sans-serif" font-size="14" lengthAdjust="spacing" textLength="176" x="43.5" y="869.042">setResource(String): void</text><ellipse cx="34.5" cy="879.3438" fill="#84BE84" rx="3" ry="3" style="stroke:#038048;stroke-width:1.0;"/><text fill="#000000" font-family="sans-serif" font-size="14" lengthAdjust="spacing" textLength="165" x="43.5" y="885.3389">getEvaluations(): Object</text><ellipse cx="34.5" cy="895.6406" fill="#84BE84" rx="3" ry="3" style="stroke:#038048;stroke-width:1.0;"/><text fill="#000000" font-family="sans-serif" font-size="14" lengthAdjust="spacing" textLength="192" x="43.5" y="901.6357">setEvaluations(Object): void</text><ellipse cx="34.5" cy="911.9375" fill="#84BE84" rx="3" ry="3" style="stroke:#038048;stroke-width:1.0;"/><text fill="#000000" font-family="sans-serif" font-size="14" lengthAdjust="spacing" textLength="163" x="43.5" y="917.9326">getCheckClass(): String</text><ellipse cx="34.5" cy="928.2344" fill="#84BE84" rx="3" ry="3" style="stroke:#038048;stroke-width:1.0;"/><text fill="#000000" font-family="sans-serif" font-size="14" lengthAdjust="spacing" textLength="190" x="43.5" y="934.2295">setCheckClass(String): void</text><ellipse cx="34.5" cy="944.5313" fill="#84BE84" rx="3" ry="3" style="stroke:#038048;stroke-width:1.0;"/><text fill="#000000" font-family="sans-serif" font-size="14" lengthAdjust="spacing" textLength="147" x="43.5" y="950.5264">getGuideline(): String</text><ellipse cx="34.5" cy="960.8281" fill="#84BE84" rx="3" ry="3" style="stroke:#038048;stroke-width:1.0;"/><text fill="#000000" font-family="sans-serif" font-size="14" lengthAdjust="spacing" textLength="174" x="43.5" y="966.8232">setGuideline(String): void</text><ellipse cx="34.5" cy="977.125" fill="#84BE84" rx="3" ry="3" style="stroke:#038048;stroke-width:1.0;"/><text fill="#000000" font-family="sans-serif" font-size="14" lengthAdjust="spacing" textLength="162" x="43.5" y="983.1201">getFileAbsPath(): String</text><ellipse cx="34.5" cy="993.4219" fill="#84BE84" rx="3" ry="3" style="stroke:#038048;stroke-width:1.0;"/><text fill="#000000" font-family="sans-serif" font-size="14" lengthAdjust="spacing" textLength="189" x="43.5" y="999.417">setFileAbsPath(String): void</text><ellipse cx="34.5" cy="1009.7188" fill="#84BE84" rx="3" ry="3" style="stroke:#038048;stroke-width:1.0;"/><text fill="#000000" font-family="sans-serif" font-size="14" lengthAdjust="spacing" textLength="174" x="43.5" y="1015.7139">getCallerFilePath(): String</text><ellipse cx="34.5" cy="1026.0156" fill="#84BE84" rx="3" ry="3" style="stroke:#038048;stroke-width:1.0;"/><text fill="#000000" font-family="sans-serif" font-size="14" lengthAdjust="spacing" textLength="201" x="43.5" y="1032.0107">setCallerFilePath(String): void</text><ellipse cx="34.5" cy="1042.3125" fill="#84BE84" rx="3" ry="3" style="stroke:#038048;stroke-width:1.0;"/><text fill="#000000" font-family="sans-serif" font-size="14" lengthAdjust="spacing" textLength="216" x="43.5" y="1048.3076">getCallerFileLineRange(): String</text><ellipse cx="34.5" cy="1058.6094" fill="#84BE84" rx="3" ry="3" style="stroke:#038048;stroke-width:1.0;"/><text fill="#000000" font-family="sans-serif" font-size="14" lengthAdjust="spacing" textLength="243" x="43.5" y="1064.6045">setCallerFileLineRange(String): void</text><ellipse cx="34.5" cy="1074.9063" fill="#84BE84" rx="3" ry="3" style="stroke:#038048;stroke-width:1.0;"/><text fill="#000000" font-family="sans-serif" font-size="14" lengthAdjust="spacing" textLength="183" x="43.5" y="1080.9014">getFixedDefinition(): String</text><ellipse cx="34.5" cy="1091.2031" fill="#84BE84" rx="3" ry="3" style="stroke:#038048;stroke-width:1.0;"/><text fill="#000000" font-family="sans-serif" font-size="14" lengthAdjust="spacing" textLength="210" x="43.5" y="1097.1982">setFixedDefinition(String): void</text></g></a><!--MD5=[0afdf3c3f8fe468c0602aded5fcb1252]
class com.hack23.sonar.cloudformation.reports.checkov.CheckovReport--><a href="CheckovReport.html" target="_top" title="CheckovReport.html" xlink:actuate="onRequest" xlink:href="CheckovReport.html" xlink:show="new" xlink:title="CheckovReport.html" xlink:type="simple"><g id="elem_com.hack23.sonar.cloudformation.reports.checkov.CheckovReport"><rect codeLine="50" fill="#F1F1F1" height="80.5938" id="com.hack23.sonar.cloudformation.reports.checkov.CheckovReport" rx="2.5" ry="2.5" style="stroke:#181818;stroke-width:0.5;" width="213" x="157.5" y="41"/><ellipse cx="206.25" cy="57" fill="#ADD1B2" rx="11" ry="11" style="stroke:#181818;stroke-width:1.0;"/><path d="M209.2188,62.6406 Q208.6406,62.9375 208,63.0781 Q207.3594,63.2344 206.6563,63.2344 Q204.1563,63.2344 202.8281,61.5938 Q201.5156,59.9375 201.5156,56.8125 Q201.5156,53.6875 202.8281,52.0313 Q204.1563,50.375 206.6563,50.375 Q207.3594,50.375 208,50.5313 Q208.6563,50.6875 209.2188,50.9844 L209.2188,53.7031 Q208.5938,53.125 208,52.8594 Q207.4063,52.5781 206.7813,52.5781 Q205.4375,52.5781 204.75,53.6563 Q204.0625,54.7188 204.0625,56.8125 Q204.0625,58.9063 204.75,59.9844 Q205.4375,61.0469 206.7813,61.0469 Q207.4063,61.0469 208,60.7813 Q208.5938,60.5 209.2188,59.9219 L209.2188,62.6406 Z " fill="#000000"/><text fill="#000000" font-family="sans-serif" font-size="14" lengthAdjust="spacing" textLength="107" x="226.75" y="61.8467">CheckovReport</text><line style="stroke:#181818;stroke-width:0.5;" x1="158.5" x2="369.5" y1="73" y2="73"/><line style="stroke:#181818;stroke-width:0.5;" x1="158.5" x2="369.5" y1="81" y2="81"/><ellipse cx="168.5" cy="92" fill="#84BE84" rx="3" ry="3" style="stroke:#038048;stroke-width:1.0;"/><text fill="#000000" font-family="sans-serif" font-size="14" lengthAdjust="spacing" textLength="160" x="177.5" y="97.9951">getCheckType(): String</text><ellipse cx="168.5" cy="108.2969" fill="#84BE84" rx="3" ry="3" style="stroke:#038048;stroke-width:1.0;"/><text fill="#000000" font-family="sans-serif" font-size="14" lengthAdjust="spacing" textLength="187" x="177.5" y="114.292">setCheckType(String): void</text></g></a><!--MD5=[ad83b05fc8aff98b395babf705662c95]
class com.hack23.sonar.cloudformation.reports.checkov.CheckovSummary--><a href="CheckovSummary.html" target="_top" title="CheckovSummary.html" xlink:actuate="onRequest" xlink:href="CheckovSummary.html" xlink:show="new" xlink:title="CheckovSummary.html" xlink:type="simple"><g id="elem_com.hack23.sonar.cloudformation.reports.checkov.CheckovSummary"><rect codeLine="55" fill="#F1F1F1" height="243.5625" id="com.hack23.sonar.cloudformation.reports.checkov.CheckovSummary" rx="2.5" ry="2.5" style="stroke:#181818;stroke-width:0.5;" width="247" x="347.5" y="199"/><ellipse cx="404.75" cy="215" fill="#ADD1B2" rx="11" ry="11" style="stroke:#181818;stroke-width:1.0;"/><path d="M407.7188,220.6406 Q407.1406,220.9375 406.5,221.0781 Q405.8594,221.2344 405.1563,221.2344 Q402.6563,221.2344 401.3281,219.5938 Q400.0156,217.9375 400.0156,214.8125 Q400.0156,211.6875 401.3281,210.0313 Q402.6563,208.375 405.1563,208.375 Q405.8594,208.375 406.5,208.5313 Q407.1563,208.6875 407.7188,208.9844 L407.7188,211.7031 Q407.0938,211.125 406.5,210.8594 Q405.9063,210.5781 405.2813,210.5781 Q403.9375,210.5781 403.25,211.6563 Q402.5625,212.7188 402.5625,214.8125 Q402.5625,216.9063 403.25,217.9844 Q403.9375,219.0469 405.2813,219.0469 Q405.9063,219.0469 406.5,218.7813 Q407.0938,218.5 407.7188,217.9219 L407.7188,220.6406 Z " fill="#000000"/><text fill="#000000" font-family="sans-serif" font-size="14" lengthAdjust="spacing" textLength="124" x="425.25" y="219.8467">CheckovSummary</text><line style="stroke:#181818;stroke-width:0.5;" x1="348.5" x2="593.5" y1="231" y2="231"/><line style="stroke:#181818;stroke-width:0.5;" x1="348.5" x2="593.5" y1="239" y2="239"/><ellipse cx="358.5" cy="250" fill="#84BE84" rx="3" ry="3" style="stroke:#038048;stroke-width:1.0;"/><text fill="#000000" font-family="sans-serif" font-size="14" lengthAdjust="spacing" textLength="110" x="367.5" y="255.9951">getPassed(): int</text><ellipse cx="358.5" cy="266.2969" fill="#84BE84" rx="3" ry="3" style="stroke:#038048;stroke-width:1.0;"/><text fill="#000000" font-family="sans-serif" font-size="14" lengthAdjust="spacing" textLength="137" x="367.5" y="272.292">setPassed(int): void</text><ellipse cx="358.5" cy="282.5938" fill="#84BE84" rx="3" ry="3" style="stroke:#038048;stroke-width:1.0;"/><text fill="#000000" font-family="sans-serif" font-size="14" lengthAdjust="spacing" textLength="99" x="367.5" y="288.5889">getFailed(): int</text><ellipse cx="358.5" cy="298.8906" fill="#84BE84" rx="3" ry="3" style="stroke:#038048;stroke-width:1.0;"/><text fill="#000000" font-family="sans-serif" font-size="14" lengthAdjust="spacing" textLength="126" x="367.5" y="304.8857">setFailed(int): void</text><ellipse cx="358.5" cy="315.1875" fill="#84BE84" rx="3" ry="3" style="stroke:#038048;stroke-width:1.0;"/><text fill="#000000" font-family="sans-serif" font-size="14" lengthAdjust="spacing" textLength="115" x="367.5" y="321.1826">getSkipped(): int</text><ellipse cx="358.5" cy="331.4844" fill="#84BE84" rx="3" ry="3" style="stroke:#038048;stroke-width:1.0;"/><text fill="#000000" font-family="sans-serif" font-size="14" lengthAdjust="spacing" textLength="142" x="367.5" y="337.4795">setSkipped(int): void</text><ellipse cx="358.5" cy="347.7813" fill="#84BE84" rx="3" ry="3" style="stroke:#038048;stroke-width:1.0;"/><text fill="#000000" font-family="sans-serif" font-size="14" lengthAdjust="spacing" textLength="151" x="367.5" y="353.7764">getParsingErrors(): int</text><ellipse cx="358.5" cy="364.0781" fill="#84BE84" rx="3" ry="3" style="stroke:#038048;stroke-width:1.0;"/><text fill="#000000" font-family="sans-serif" font-size="14" lengthAdjust="spacing" textLength="178" x="367.5" y="370.0732">setParsingErrors(int): void</text><ellipse cx="358.5" cy="380.375" fill="#84BE84" rx="3" ry="3" style="stroke:#038048;stroke-width:1.0;"/><text fill="#000000" font-family="sans-serif" font-size="14" lengthAdjust="spacing" textLength="168" x="367.5" y="386.3701">getResourceCount(): int</text><ellipse cx="358.5" cy="396.6719" fill="#84BE84" rx="3" ry="3" style="stroke:#038048;stroke-width:1.0;"/><text fill="#000000" font-family="sans-serif" font-size="14" lengthAdjust="spacing" textLength="195" x="367.5" y="402.667">setResourceCount(int): void</text><ellipse cx="358.5" cy="412.9688" fill="#84BE84" rx="3" ry="3" style="stroke:#038048;stroke-width:1.0;"/><text fill="#000000" font-family="sans-serif" font-size="14" lengthAdjust="spacing" textLength="194" x="367.5" y="418.9639">getCheckovVersion(): String</text><ellipse cx="358.5" cy="429.2656" fill="#84BE84" rx="3" ry="3" style="stroke:#038048;stroke-width:1.0;"/><text fill="#000000" font-family="sans-serif" font-size="14" lengthAdjust="spacing" textLength="221" x="367.5" y="435.2607">setCheckovVersion(String): void</text></g></a><!--MD5=[a7a24f5fb7429f8e4dae50dab90b73af]
link com.hack23.sonar.cloudformation.reports.checkov.CheckovResults to com.hack23.sonar.cloudformation.reports.checkov.CheckovPassedCheck--><g id="link_com.hack23.sonar.cloudformation.reports.checkov.CheckovResults_com.hack23.sonar.cloudformation.reports.checkov.CheckovPassedCheck"><path codeLine="70" d="M167,377.51 C167,416.32 167,471.45 167,529.64 " fill="none" id="com.hack23.sonar.cloudformation.reports.checkov.CheckovResults-to-com.hack23.sonar.cloudformation.reports.checkov.CheckovPassedCheck" style="stroke:#181818;stroke-width:1.0;"/><polygon fill="#181818" points="167,534.92,171,525.92,167,529.92,163,525.92,167,534.92" style="stroke:#181818;stroke-width:1.0;"/><text fill="#000000" font-family="sans-serif" font-size="13" lengthAdjust="spacing" textLength="92" x="168" y="486.0669">passedChecks</text><text fill="#000000" font-family="sans-serif" font-size="13" lengthAdjust="spacing" textLength="80" x="174" y="501.1997">failedChecks</text><text fill="#000000" font-family="sans-serif" font-size="13" lengthAdjust="spacing" textLength="7" x="159.907" y="524.2236">*</text></g><!--MD5=[b145551561d096d1a879aea0f8602de5]
link com.hack23.sonar.cloudformation.reports.checkov.CheckovPassedCheck to com.hack23.sonar.cloudformation.reports.checkov.EntityTags--><g id="link_com.hack23.sonar.cloudformation.reports.checkov.CheckovPassedCheck_com.hack23.sonar.cloudformation.reports.checkov.EntityTags"><path codeLine="71" d="M167,1104.27 C167,1131.36 167,1155.95 167,1175.46 " fill="none" id="com.hack23.sonar.cloudformation.reports.checkov.CheckovPassedCheck-to-com.hack23.sonar.cloudformation.reports.checkov.EntityTags" style="stroke:#181818;stroke-width:1.0;"/><polygon fill="#181818" points="167,1180.83,171,1171.83,167,1175.83,163,1171.83,167,1180.83" style="stroke:#181818;stroke-width:1.0;"/><text fill="#000000" font-family="sans-serif" font-size="13" lengthAdjust="spacing" textLength="66" x="168" y="1147.0669">entityTags</text></g><!--MD5=[8d6217af91f0e484a8507768ea5b56d1]
link com.hack23.sonar.cloudformation.reports.checkov.CheckovReport to com.hack23.sonar.cloudformation.reports.checkov.CheckovSummary--><g id="link_com.hack23.sonar.cloudformation.reports.checkov.CheckovReport_com.hack23.sonar.cloudformation.reports.checkov.CheckovSummary"><path codeLine="72" d="M298.65,122.25 C316.36,142.58 339.01,168.56 362.01,194.95 " fill="none" id="com.hack23.sonar.cloudformation.reports.checkov.CheckovReport-to-com.hack23.sonar.cloudformation.reports.checkov.CheckovSummary" style="stroke:#181818;stroke-width:1.0;"/><polygon fill="#181818" points="365.41,198.85,362.514,189.4365,362.1256,195.08,356.4821,194.6916,365.41,198.85" style="stroke:#181818;stroke-width:1.0;"/><text fill="#000000" font-family="sans-serif" font-size="13" lengthAdjust="spacing" textLength="61" x="337" y="165.0669">summary</text></g><!--MD5=[d4a11ab686159495f89bce84b47e3036]
link com.hack23.sonar.cloudformation.reports.checkov.CheckovReport to com.hack23.sonar.cloudformation.reports.checkov.CheckovResults--><g id="link_com.hack23.sonar.cloudformation.reports.checkov.CheckovReport_com.hack23.sonar.cloudformation.reports.checkov.CheckovResults"><path codeLine="73" d="M247.76,122.25 C232.47,159.71 209.33,216.36 191.73,259.44 " fill="none" id="com.hack23.sonar.cloudformation.reports.checkov.CheckovReport-to-com.hack23.sonar.cloudformation.reports.checkov.CheckovResults" style="stroke:#181818;stroke-width:1.0;"/><polygon fill="#181818" points="189.83,264.09,196.9481,257.2832,191.7287,259.4645,189.5473,254.2452,189.83,264.09" style="stroke:#181818;stroke-width:1.0;"/><text fill="#000000" font-family="sans-serif" font-size="13" lengthAdjust="spacing" textLength="43" x="236" y="165.0669">results</text></g><rect height="11.6406" style="stroke:#00000000;stroke-width:1.0;fill:none;" width="186" x="209" y="1284"/><text fill="#888888" font-family="sans-serif" font-size="10" lengthAdjust="spacing" textLength="186" x="209" y="1293.2822">UMLDoclet 2.0.18, PlantUML 1.2022.6</text><!--MD5=[cb10a29f5fd6f9db41020a7a239af2a0]
@startuml
    namespace com.hack23.sonar.cloudformation.reports.checkov {

        class EntityTags [[EntityTags.html]] {
            +getName(): String
            +setName(String): void
        }

        class CheckovResults [[CheckovResults.html]] {
            +getSkippedChecks(): List<String>
            +setSkippedChecks(List<String>): void
            +getParsingErrors(): List<String>
            +setParsingErrors(List<String>): void
        }

        class CheckovPassedCheck [[CheckovPassedCheck.html]] {
            +getCheckId(): String
            +setCheckId(String): void
            +getBcCheckId(): String
            +setBcCheckId(String): void
            +getCheckName(): String
            +setCheckName(String): void
            +getCheckResult(): Object
            +setCheckResult(Object): void
            +getCodeBlock(): List<Object>
            +setCodeBlock(List<Object>): void
            +getFilePath(): String
            +setFilePath(String): void
            +getRepoFilePath(): String
            +setRepoFilePath(String): void
            +getFileLineRange(): List<Integer>
            +setFileLineRange(List<Integer>): void
            +getResource(): String
            +setResource(String): void
            +getEvaluations(): Object
            +setEvaluations(Object): void
            +getCheckClass(): String
            +setCheckClass(String): void
            +getGuideline(): String
            +setGuideline(String): void
            +getFileAbsPath(): String
            +setFileAbsPath(String): void
            +getCallerFilePath(): String
            +setCallerFilePath(String): void
            +getCallerFileLineRange(): String
            +setCallerFileLineRange(String): void
            +getFixedDefinition(): String
            +setFixedDefinition(String): void
        }

        class CheckovReport [[CheckovReport.html]] {
            +getCheckType(): String
            +setCheckType(String): void
        }

        class CheckovSummary [[CheckovSummary.html]] {
            +getPassed(): int
            +setPassed(int): void
            +getFailed(): int
            +setFailed(int): void
            +getSkipped(): int
            +setSkipped(int): void
            +getParsingErrors(): int
            +setParsingErrors(int): void
            +getResourceCount(): int
            +setResourceCount(int): void
            +getCheckovVersion(): String
            +setCheckovVersion(String): void
        }

        CheckovResults - -> "*" CheckovPassedCheck: passedChecks\nfailedChecks
        CheckovPassedCheck - -> EntityTags: entityTags
        CheckovReport - -> CheckovSummary: summary
        CheckovReport - -> CheckovResults: results
    }

    center footer UMLDoclet 2.0.18, PlantUML 1.2022.6
@enduml

PlantUML version 1.2022.6(Tue Jun 21 19:34:49 CEST 2022)
(APACHE source distribution)
Java Runtime: OpenJDK Runtime Environment
JVM: OpenJDK 64-Bit Server VM
Default Encoding: ANSI_X3.4-1968
Language: en
Country: US
--></g></svg>