<?xml version="1.0" encoding="UTF-8" standalone="no"?><svg xmlns="http://www.w3.org/2000/svg" xmlns:xlink="http://www.w3.org/1999/xlink" contentScriptType="application/ecmascript" contentStyleType="text/css" height="133px" preserveAspectRatio="none" style="width:283px;height:133px;" version="1.1" viewBox="0 0 283 133" width="283px" zoomAndPan="magnify"><defs><filter height="300%" id="f1cc3z8fgrb4un" width="300%" x="-1" y="-1"><feGaussianBlur result="blurOut" stdDeviation="2.0"/><feColorMatrix in="blurOut" result="blurOut2" type="matrix" values="0 0 0 0 0 0 0 0 0 0 0 0 0 0 0 0 0 0 .4 0"/><feOffset dx="4.0" dy="4.0" in="blurOut2" result="blurOut3"/><feBlend in="SourceGraphic" in2="blurOut3" mode="normal"/></filter></defs><g><!--MD5=[6a13ec146c2dc674c74e56333cf988df]
class com.hack23.sonar.cloudformation.parser.CfnNagReport--><a href="CfnNagReport.html" target="_top" title="CfnNagReport.html" xlink:actuate="onRequest" xlink:href="CfnNagReport.html" xlink:show="new" xlink:title="CfnNagReport.html" xlink:type="simple"><rect fill="#FEFECE" filter="url(#f1cc3z8fgrb4un)" height="97.1563" id="com.hack23.sonar.cloudformation.parser.CfnNagReport" style="stroke: #A80036; stroke-width: 1.5;" width="265" x="7" y="7"/><ellipse cx="37.75" cy="25.9688" fill="#ADD1B2" rx="11" ry="11" style="stroke: #A80036; stroke-width: 1.0;"/><path d="M40.7188,31.6094 Q40.1406,31.9063 39.5,32.0469 Q38.8594,32.2031 38.1563,32.2031 Q35.6563,32.2031 34.3281,30.5625 Q33.0156,28.9063 33.0156,25.7813 Q33.0156,22.6563 34.3281,21 Q35.6563,19.3438 38.1563,19.3438 Q38.8594,19.3438 39.5,19.5 Q40.1563,19.6563 40.7188,19.9531 L40.7188,22.6719 Q40.0938,22.0938 39.5,21.8281 Q38.9063,21.5469 38.2813,21.5469 Q36.9375,21.5469 36.25,22.625 Q35.5625,23.6875 35.5625,25.7813 Q35.5625,27.875 36.25,28.9531 Q36.9375,30.0156 38.2813,30.0156 Q38.9063,30.0156 39.5,29.75 Q40.0938,29.4688 40.7188,28.8906 L40.7188,31.6094 Z "/><text fill="#000000" font-family="sans-serif" font-size="14" lengthAdjust="spacingAndGlyphs" textLength="97" x="105.75" y="24.9951">CfnNagReport</text><text fill="#000000" font-family="sans-serif" font-size="10" lengthAdjust="spacingAndGlyphs" textLength="198" x="55.25" y="37.5791">com.hack23.sonar.cloudformation.parser</text><line style="stroke: #A80036; stroke-width: 1.5;" x1="8" x2="271" y1="44.9375" y2="44.9375"/><ellipse cx="18" cy="55.9375" fill="#84BE84" rx="3" ry="3" style="stroke: #038048; stroke-width: 1.0;"/><text fill="#000000" font-family="sans-serif" font-size="11" lengthAdjust="spacingAndGlyphs" textLength="123" x="27" y="59.1479">getFailure_count(): int</text><ellipse cx="18" cy="68.7422" fill="#84BE84" rx="3" ry="3" style="stroke: #038048; stroke-width: 1.0;"/><text fill="#000000" font-family="sans-serif" font-size="11" lengthAdjust="spacingAndGlyphs" textLength="146" x="27" y="71.9526">setFailure_count(int): void</text><ellipse cx="18" cy="81.5469" fill="#84BE84" rx="3" ry="3" style="stroke: #038048; stroke-width: 1.0;"/><text fill="#000000" font-family="sans-serif" font-size="11" lengthAdjust="spacingAndGlyphs" textLength="216" x="27" y="84.7573">getViolations(): List&lt;CfnNagViolation&gt;</text><ellipse cx="18" cy="94.3516" fill="#84BE84" rx="3" ry="3" style="stroke: #038048; stroke-width: 1.0;"/><text fill="#000000" font-family="sans-serif" font-size="11" lengthAdjust="spacingAndGlyphs" textLength="239" x="27" y="97.562">setViolations(List&lt;CfnNagViolation&gt;): void</text></a><text fill="#888888" font-family="sans-serif" font-size="10" lengthAdjust="spacingAndGlyphs" textLength="186" x="46.5" y="120.4385">UMLDoclet 2.0.8, PlantUML 1.2020.01</text><!--MD5=[17c6f3da241d0dfcf85a7d4a9a8d0097]
@startuml
    set namespaceSeparator none
    hide empty fields
    hide empty methods

    class "<size:14>CfnNagReport\n<size:10>com.hack23.sonar.cloudformation.parser" as com.hack23.sonar.cloudformation.parser.CfnNagReport [[CfnNagReport.html]] {
        +getFailure_count(): int
        +setFailure_count(int): void
        +getViolations(): List<CfnNagViolation>
        +setViolations(List<CfnNagViolation>): void
    }

    center footer UMLDoclet 2.0.8, PlantUML 1.2020.01
@enduml

PlantUML version 1.2020.01(Sun Feb 16 18:40:32 CET 2020)
(APACHE source distribution)
Java Runtime: OpenJDK Runtime Environment
JVM: OpenJDK 64-Bit Server VM
Java Version: 11.0.7-ea+9-post-Ubuntu-1ubuntu1
Operating System: Linux
Default Encoding: UTF-8
Language: en
Country: US
--></g></svg>