<?xml version="1.0" encoding="UTF-8" standalone="no"?><svg xmlns="http://www.w3.org/2000/svg" xmlns:xlink="http://www.w3.org/1999/xlink" contentScriptType="application/ecmascript" contentStyleType="text/css" height="137px" preserveAspectRatio="none" style="width:282px;height:137px;" version="1.1" viewBox="0 0 282 137" width="282px" zoomAndPan="magnify"><defs><filter height="300%" id="fb66hqp0w6r2e" width="300%" x="-1" y="-1"><feGaussianBlur result="blurOut" stdDeviation="2.0"/><feColorMatrix in="blurOut" result="blurOut2" type="matrix" values="0 0 0 0 0 0 0 0 0 0 0 0 0 0 0 0 0 0 .4 0"/><feOffset dx="4.0" dy="4.0" in="blurOut2" result="blurOut3"/><feBlend in="SourceGraphic" in2="blurOut3" mode="normal"/></filter></defs><g><!--class com.hack23.sonar.cloudformation.parser.CfnNagReport--><a href="CfnNagReport.html" target="_top" xlink:actuate="onRequest" xlink:show="new" xlink:title="CfnNagReport.html" xlink:type="simple"><rect fill="#FEFECE" filter="url(#fb66hqp0w6r2e)" height="97.1563" id="com.hack23.sonar.cloudformation.parser.CfnNagReport" style="stroke: #A80036; stroke-width: 1.5;" width="265" x="6" y="8"/><ellipse cx="36.75" cy="26.9688" fill="#ADD1B2" rx="11" ry="11" style="stroke: #A80036; stroke-width: 1.0;"/><path d="M39.7188,32.6094 Q39.1406,32.9063 38.5,33.0469 Q37.8594,33.2031 37.1563,33.2031 Q34.6563,33.2031 33.3281,31.5625 Q32.0156,29.9063 32.0156,26.7813 Q32.0156,23.6563 33.3281,22 Q34.6563,20.3438 37.1563,20.3438 Q37.8594,20.3438 38.5,20.5 Q39.1563,20.6563 39.7188,20.9531 L39.7188,23.6719 Q39.0938,23.0938 38.5,22.8281 Q37.9063,22.5469 37.2813,22.5469 Q35.9375,22.5469 35.25,23.625 Q34.5625,24.6875 34.5625,26.7813 Q34.5625,28.875 35.25,29.9531 Q35.9375,31.0156 37.2813,31.0156 Q37.9063,31.0156 38.5,30.75 Q39.0938,30.4688 39.7188,29.8906 L39.7188,32.6094 Z "/><text fill="#000000" font-family="sans-serif" font-size="14" lengthAdjust="spacingAndGlyphs" textLength="97" x="104.75" y="25.9951">CfnNagReport</text><text fill="#000000" font-family="sans-serif" font-size="10" lengthAdjust="spacingAndGlyphs" textLength="198" x="54.25" y="38.5791">com.hack23.sonar.cloudformation.parser</text><line style="stroke: #A80036; stroke-width: 1.5;" x1="7" x2="270" y1="45.9375" y2="45.9375"/><ellipse cx="17" cy="57.8398" fill="#84BE84" rx="3" ry="3" style="stroke: #038048; stroke-width: 1.0;"/><text fill="#000000" font-family="sans-serif" font-size="11" lengthAdjust="spacingAndGlyphs" textLength="123" x="26" y="60.1479">getFailure_count(): int</text><ellipse cx="17" cy="70.6445" fill="#84BE84" rx="3" ry="3" style="stroke: #038048; stroke-width: 1.0;"/><text fill="#000000" font-family="sans-serif" font-size="11" lengthAdjust="spacingAndGlyphs" textLength="146" x="26" y="72.9526">setFailure_count(int): void</text><ellipse cx="17" cy="83.4492" fill="#84BE84" rx="3" ry="3" style="stroke: #038048; stroke-width: 1.0;"/><text fill="#000000" font-family="sans-serif" font-size="11" lengthAdjust="spacingAndGlyphs" textLength="216" x="26" y="85.7573">getViolations(): List&lt;CfnNagViolation&gt;</text><ellipse cx="17" cy="96.2539" fill="#84BE84" rx="3" ry="3" style="stroke: #038048; stroke-width: 1.0;"/><text fill="#000000" font-family="sans-serif" font-size="11" lengthAdjust="spacingAndGlyphs" textLength="239" x="26" y="98.562">setViolations(List&lt;CfnNagViolation&gt;): void</text></a><text fill="#888888" font-family="sans-serif" font-size="10" lengthAdjust="spacingAndGlyphs" textLength="186" x="51.5" y="124.2822">UMLDoclet 2.0.4, PlantUML 1.2019.06</text><!--
@startuml
    set namespaceSeparator none
    hide empty fields
    hide empty methods

    class "<size:14>CfnNagReport\n<size:10>com.hack23.sonar.cloudformation.parser" as com.hack23.sonar.cloudformation.parser.CfnNagReport [[CfnNagReport.html]] {
        +getFailure_count(): int
        +setFailure_count(int): void
        +getViolations(): List<CfnNagViolation>
        +setViolations(List<CfnNagViolation>): void
    }

    center footer UMLDoclet 2.0.4, PlantUML 1.2019.06
@enduml

PlantUML version 1.2019.06(Fri May 24 19:10:25 CEST 2019)
(APACHE source distribution)
Java Runtime: OpenJDK Runtime Environment
JVM: OpenJDK 64-Bit Server VM
Java Version: 11.0.3+7-Ubuntu-1ubuntu219.04.1
Operating System: Linux
OS Version: 5.0.0-16-generic
Default Encoding: UTF-8
Language: en
Country: US
--></g></svg>