<?xml version="1.0" encoding="UTF-8" standalone="no"?><svg xmlns="http://www.w3.org/2000/svg" xmlns:xlink="http://www.w3.org/1999/xlink" contentScriptType="application/ecmascript" contentStyleType="text/css" height="95px" preserveAspectRatio="none" style="width:271px;height:95px;" version="1.1" viewBox="0 0 271 95" width="271px" zoomAndPan="magnify"><defs><filter height="300%" id="f53f4yih1sblg" width="300%" x="-1" y="-1"><feGaussianBlur result="blurOut" stdDeviation="2.0"/><feColorMatrix in="blurOut" result="blurOut2" type="matrix" values="0 0 0 0 0 0 0 0 0 0 0 0 0 0 0 0 0 0 .4 0"/><feOffset dx="4.0" dy="4.0" in="blurOut2" result="blurOut3"/><feBlend in="SourceGraphic" in2="blurOut3" mode="normal"/></filter></defs><g><!--MD5=[599cea475eb98603c869d13cf1b66d28]
class com.hack23.sonar.cloudformation.parser.CfnNagReportReader--><a href="CfnNagReportReader.html" target="_top" title="CfnNagReportReader.html" xlink:actuate="onRequest" xlink:href="CfnNagReportReader.html" xlink:show="new" xlink:title="CfnNagReportReader.html" xlink:type="simple"><rect fill="#FEFECE" filter="url(#f53f4yih1sblg)" height="58.7422" id="com.hack23.sonar.cloudformation.parser.CfnNagReportReader" style="stroke: #A80036; stroke-width: 1.5;" width="253" x="7" y="7"/><ellipse cx="32.35" cy="25.9688" fill="#ADD1B2" rx="11" ry="11" style="stroke: #A80036; stroke-width: 1.0;"/><path d="M35.3188,31.6094 Q34.7406,31.9063 34.1,32.0469 Q33.4594,32.2031 32.7563,32.2031 Q30.2563,32.2031 28.9281,30.5625 Q27.6156,28.9063 27.6156,25.7813 Q27.6156,22.6563 28.9281,21 Q30.2563,19.3438 32.7563,19.3438 Q33.4594,19.3438 34.1,19.5 Q34.7563,19.6563 35.3188,19.9531 L35.3188,22.6719 Q34.6938,22.0938 34.1,21.8281 Q33.5063,21.5469 32.8813,21.5469 Q31.5375,21.5469 30.85,22.625 Q30.1625,23.6875 30.1625,25.7813 Q30.1625,27.875 30.85,28.9531 Q31.5375,30.0156 32.8813,30.0156 Q33.5063,30.0156 34.1,29.75 Q34.6938,29.4688 35.3188,28.8906 L35.3188,31.6094 Z "/><text fill="#000000" font-family="sans-serif" font-size="14" lengthAdjust="spacingAndGlyphs" textLength="147" x="74.15" y="24.9951">CfnNagReportReader</text><text fill="#000000" font-family="sans-serif" font-size="10" lengthAdjust="spacingAndGlyphs" textLength="198" x="48.65" y="37.5791">com.hack23.sonar.cloudformation.parser</text><line style="stroke: #A80036; stroke-width: 1.5;" x1="8" x2="259" y1="44.9375" y2="44.9375"/><ellipse cx="18" cy="55.9375" fill="#84BE84" rx="3" ry="3" style="stroke: #038048; stroke-width: 1.0;"/><text fill="#000000" font-family="sans-serif" font-size="11" lengthAdjust="spacingAndGlyphs" textLength="227" x="27" y="59.1479">readReport(InputStream): CfnNagReport</text></a><text fill="#888888" font-family="sans-serif" font-size="10" lengthAdjust="spacingAndGlyphs" textLength="186" x="40.5" y="82.0244">UMLDoclet 2.0.8, PlantUML 1.2020.01</text><!--MD5=[37ff459c27bcd9d80fad1b6d6b622223]
@startuml
    set namespaceSeparator none
    hide empty fields
    hide empty methods

    class "<size:14>CfnNagReportReader\n<size:10>com.hack23.sonar.cloudformation.parser" as com.hack23.sonar.cloudformation.parser.CfnNagReportReader [[CfnNagReportReader.html]] {
        +readReport(InputStream): CfnNagReport
    }

    center footer UMLDoclet 2.0.8, PlantUML 1.2020.01
@enduml

PlantUML version 1.2020.01(Sun Feb 16 18:40:32 CET 2020)
(APACHE source distribution)
Java Runtime: OpenJDK Runtime Environment
JVM: OpenJDK 64-Bit Server VM
Java Version: 11.0.7-ea+9-post-Ubuntu-1ubuntu1
Operating System: Linux
Default Encoding: UTF-8
Language: en
Country: US
--></g></svg>