<?xml version="1.0" encoding="UTF-8" standalone="no"?><svg xmlns="http://www.w3.org/2000/svg" xmlns:xlink="http://www.w3.org/1999/xlink" contentScriptType="application/ecmascript" contentStyleType="text/css" height="693px" preserveAspectRatio="none" style="width:863px;height:693px;" version="1.1" viewBox="0 0 863 693" width="863px" zoomAndPan="magnify"><defs><filter height="300%" id="f10pebryghyfnq" width="300%" x="-1" y="-1"><feGaussianBlur result="blurOut" stdDeviation="2.0"/><feColorMatrix in="blurOut" result="blurOut2" type="matrix" values="0 0 0 0 0 0 0 0 0 0 0 0 0 0 0 0 0 0 .4 0"/><feOffset dx="4.0" dy="4.0" in="blurOut2" result="blurOut3"/><feBlend in="SourceGraphic" in2="blurOut3" mode="normal"/></filter></defs><g><!--cluster com.hack23.sonar.cloudformation.parser--><polygon fill="#FFFFFF" filter="url(#f10pebryghyfnq)" points="14,16,346,16,353,38.2969,841,38.2969,841,653,14,653,14,16" style="stroke: #000000; stroke-width: 1.5;"/><line style="stroke: #000000; stroke-width: 1.5;" x1="14" x2="353" y1="38.2969" y2="38.2969"/><text fill="#000000" font-family="sans-serif" font-size="14" font-weight="bold" lengthAdjust="spacingAndGlyphs" textLength="326" x="18" y="30.9951">com.hack23.sonar.cloudformation.parser</text><!--class com.hack23.sonar.cloudformation.parser.CfnNagReport--><a href="CfnNagReport.html" target="_top" xlink:actuate="onRequest" xlink:show="new" xlink:title="CfnNagReport.html" xlink:type="simple"><rect fill="#FEFECE" filter="url(#f10pebryghyfnq)" height="73.6094" id="com.hack23.sonar.cloudformation.parser.CfnNagReport" style="stroke: #A80036; stroke-width: 1.5;" width="172" x="648" y="256"/><ellipse cx="686.85" cy="272" fill="#ADD1B2" rx="11" ry="11" style="stroke: #A80036; stroke-width: 1.0;"/><path d="M689.8188,277.6406 Q689.2406,277.9375 688.6,278.0781 Q687.9594,278.2344 687.2563,278.2344 Q684.7563,278.2344 683.4281,276.5938 Q682.1156,274.9375 682.1156,271.8125 Q682.1156,268.6875 683.4281,267.0313 Q684.7563,265.375 687.2563,265.375 Q687.9594,265.375 688.6,265.5313 Q689.2563,265.6875 689.8188,265.9844 L689.8188,268.7031 Q689.1938,268.125 688.6,267.8594 Q688.0063,267.5781 687.3813,267.5781 Q686.0375,267.5781 685.35,268.6563 Q684.6625,269.7188 684.6625,271.8125 Q684.6625,273.9063 685.35,274.9844 Q686.0375,276.0469 687.3813,276.0469 Q688.0063,276.0469 688.6,275.7813 Q689.1938,275.5 689.8188,274.9219 L689.8188,277.6406 Z "/><text fill="#000000" font-family="sans-serif" font-size="12" lengthAdjust="spacingAndGlyphs" textLength="87" x="706.15" y="276.1543">CfnNagReport</text><line style="stroke: #A80036; stroke-width: 1.5;" x1="649" x2="819" y1="288" y2="288"/><line style="stroke: #A80036; stroke-width: 1.5;" x1="649" x2="819" y1="296" y2="296"/><ellipse cx="659" cy="307.9023" fill="#84BE84" rx="3" ry="3" style="stroke: #038048; stroke-width: 1.0;"/><text fill="#000000" font-family="sans-serif" font-size="11" lengthAdjust="spacingAndGlyphs" textLength="123" x="668" y="310.2104">getFailure_count(): int</text><ellipse cx="659" cy="320.707" fill="#84BE84" rx="3" ry="3" style="stroke: #038048; stroke-width: 1.0;"/><text fill="#000000" font-family="sans-serif" font-size="11" lengthAdjust="spacingAndGlyphs" textLength="146" x="668" y="323.0151">setFailure_count(int): void</text></a><!--class com.hack23.sonar.cloudformation.parser.CfnNagScanReport--><a href="CfnNagScanReport.html" target="_top" xlink:actuate="onRequest" xlink:show="new" xlink:title="CfnNagScanReport.html" xlink:type="simple"><rect fill="#FEFECE" filter="url(#f10pebryghyfnq)" height="73.6094" id="com.hack23.sonar.cloudformation.parser.CfnNagScanReport" style="stroke: #A80036; stroke-width: 1.5;" width="168" x="665" y="43"/><ellipse cx="688.1" cy="59" fill="#ADD1B2" rx="11" ry="11" style="stroke: #A80036; stroke-width: 1.0;"/><path d="M691.0688,64.6406 Q690.4906,64.9375 689.85,65.0781 Q689.2094,65.2344 688.5063,65.2344 Q686.0063,65.2344 684.6781,63.5938 Q683.3656,61.9375 683.3656,58.8125 Q683.3656,55.6875 684.6781,54.0313 Q686.0063,52.375 688.5063,52.375 Q689.2094,52.375 689.85,52.5313 Q690.5063,52.6875 691.0688,52.9844 L691.0688,55.7031 Q690.4438,55.125 689.85,54.8594 Q689.2563,54.5781 688.6313,54.5781 Q687.2875,54.5781 686.6,55.6563 Q685.9125,56.7188 685.9125,58.8125 Q685.9125,60.9063 686.6,61.9844 Q687.2875,63.0469 688.6313,63.0469 Q689.2563,63.0469 689.85,62.7813 Q690.4438,62.5 691.0688,61.9219 L691.0688,64.6406 Z "/><text fill="#000000" font-family="sans-serif" font-size="12" lengthAdjust="spacingAndGlyphs" textLength="118" x="703.9" y="63.1543">CfnNagScanReport</text><line style="stroke: #A80036; stroke-width: 1.5;" x1="666" x2="832" y1="75" y2="75"/><line style="stroke: #A80036; stroke-width: 1.5;" x1="666" x2="832" y1="83" y2="83"/><ellipse cx="676" cy="94.9023" fill="#84BE84" rx="3" ry="3" style="stroke: #038048; stroke-width: 1.0;"/><text fill="#000000" font-family="sans-serif" font-size="11" lengthAdjust="spacingAndGlyphs" textLength="119" x="685" y="97.2104">getFilename(): String</text><ellipse cx="676" cy="107.707" fill="#84BE84" rx="3" ry="3" style="stroke: #038048; stroke-width: 1.0;"/><text fill="#000000" font-family="sans-serif" font-size="11" lengthAdjust="spacingAndGlyphs" textLength="142" x="685" y="110.0151">setFilename(String): void</text></a><!--class com.hack23.sonar.cloudformation.parser.CfnNagScanReportReader--><a href="CfnNagScanReportReader.html" target="_top" xlink:actuate="onRequest" xlink:show="new" xlink:title="CfnNagScanReportReader.html" xlink:type="simple"><rect fill="#FEFECE" filter="url(#f10pebryghyfnq)" height="60.8047" id="com.hack23.sonar.cloudformation.parser.CfnNagScanReportReader" style="stroke: #A80036; stroke-width: 1.5;" width="319" x="310.5" y="49.5"/><ellipse cx="384.25" cy="65.5" fill="#ADD1B2" rx="11" ry="11" style="stroke: #A80036; stroke-width: 1.0;"/><path d="M387.2188,71.1406 Q386.6406,71.4375 386,71.5781 Q385.3594,71.7344 384.6563,71.7344 Q382.1563,71.7344 380.8281,70.0938 Q379.5156,68.4375 379.5156,65.3125 Q379.5156,62.1875 380.8281,60.5313 Q382.1563,58.875 384.6563,58.875 Q385.3594,58.875 386,59.0313 Q386.6563,59.1875 387.2188,59.4844 L387.2188,62.2031 Q386.5938,61.625 386,61.3594 Q385.4063,61.0781 384.7813,61.0781 Q383.4375,61.0781 382.75,62.1563 Q382.0625,63.2188 382.0625,65.3125 Q382.0625,67.4063 382.75,68.4844 Q383.4375,69.5469 384.7813,69.5469 Q385.4063,69.5469 386,69.2813 Q386.5938,69 387.2188,68.4219 L387.2188,71.1406 Z "/><text fill="#000000" font-family="sans-serif" font-size="12" lengthAdjust="spacingAndGlyphs" textLength="163" x="404.75" y="69.6543">CfnNagScanReportReader</text><line style="stroke: #A80036; stroke-width: 1.5;" x1="311.5" x2="628.5" y1="81.5" y2="81.5"/><line style="stroke: #A80036; stroke-width: 1.5;" x1="311.5" x2="628.5" y1="89.5" y2="89.5"/><ellipse cx="321.5" cy="101.4023" fill="#84BE84" rx="3" ry="3" style="stroke: #038048; stroke-width: 1.0;"/><text fill="#000000" font-family="sans-serif" font-size="11" lengthAdjust="spacingAndGlyphs" textLength="293" x="330.5" y="103.7104">readReport(InputStream): List&lt;CfnNagScanReport&gt;</text></a><!--class com.hack23.sonar.cloudformation.parser.CfnNagReportReader--><a href="CfnNagReportReader.html" target="_top" xlink:actuate="onRequest" xlink:show="new" xlink:title="CfnNagReportReader.html" xlink:type="simple"><rect fill="#FEFECE" filter="url(#f10pebryghyfnq)" height="60.8047" id="com.hack23.sonar.cloudformation.parser.CfnNagReportReader" style="stroke: #A80036; stroke-width: 1.5;" width="253" x="22.5" y="49.5"/><ellipse cx="78.75" cy="65.5" fill="#ADD1B2" rx="11" ry="11" style="stroke: #A80036; stroke-width: 1.0;"/><path d="M81.7188,71.1406 Q81.1406,71.4375 80.5,71.5781 Q79.8594,71.7344 79.1563,71.7344 Q76.6563,71.7344 75.3281,70.0938 Q74.0156,68.4375 74.0156,65.3125 Q74.0156,62.1875 75.3281,60.5313 Q76.6563,58.875 79.1563,58.875 Q79.8594,58.875 80.5,59.0313 Q81.1563,59.1875 81.7188,59.4844 L81.7188,62.2031 Q81.0938,61.625 80.5,61.3594 Q79.9063,61.0781 79.2813,61.0781 Q77.9375,61.0781 77.25,62.1563 Q76.5625,63.2188 76.5625,65.3125 Q76.5625,67.4063 77.25,68.4844 Q77.9375,69.5469 79.2813,69.5469 Q79.9063,69.5469 80.5,69.2813 Q81.0938,69 81.7188,68.4219 L81.7188,71.1406 Z "/><text fill="#000000" font-family="sans-serif" font-size="12" lengthAdjust="spacingAndGlyphs" textLength="132" x="99.25" y="69.6543">CfnNagReportReader</text><line style="stroke: #A80036; stroke-width: 1.5;" x1="23.5" x2="274.5" y1="81.5" y2="81.5"/><line style="stroke: #A80036; stroke-width: 1.5;" x1="23.5" x2="274.5" y1="89.5" y2="89.5"/><ellipse cx="33.5" cy="101.4023" fill="#84BE84" rx="3" ry="3" style="stroke: #038048; stroke-width: 1.0;"/><text fill="#000000" font-family="sans-serif" font-size="11" lengthAdjust="spacingAndGlyphs" textLength="227" x="42.5" y="103.7104">readReport(InputStream): CfnNagReport</text></a><!--class com.hack23.sonar.cloudformation.parser.CfnNagViolation--><a href="CfnNagViolation.html" target="_top" xlink:actuate="onRequest" xlink:show="new" xlink:title="CfnNagViolation.html" xlink:type="simple"><rect fill="#FEFECE" filter="url(#f10pebryghyfnq)" height="176.0469" id="com.hack23.sonar.cloudformation.parser.CfnNagViolation" style="stroke: #A80036; stroke-width: 1.5;" width="274" x="559" y="469"/><ellipse cx="642.25" cy="485" fill="#ADD1B2" rx="11" ry="11" style="stroke: #A80036; stroke-width: 1.0;"/><path d="M645.2188,490.6406 Q644.6406,490.9375 644,491.0781 Q643.3594,491.2344 642.6563,491.2344 Q640.1563,491.2344 638.8281,489.5938 Q637.5156,487.9375 637.5156,484.8125 Q637.5156,481.6875 638.8281,480.0313 Q640.1563,478.375 642.6563,478.375 Q643.3594,478.375 644,478.5313 Q644.6563,478.6875 645.2188,478.9844 L645.2188,481.7031 Q644.5938,481.125 644,480.8594 Q643.4063,480.5781 642.7813,480.5781 Q641.4375,480.5781 640.75,481.6563 Q640.0625,482.7188 640.0625,484.8125 Q640.0625,486.9063 640.75,487.9844 Q641.4375,489.0469 642.7813,489.0469 Q643.4063,489.0469 644,488.7813 Q644.5938,488.5 645.2188,487.9219 L645.2188,490.6406 Z "/><text fill="#000000" font-family="sans-serif" font-size="12" lengthAdjust="spacingAndGlyphs" textLength="99" x="662.75" y="489.1543">CfnNagViolation</text><line style="stroke: #A80036; stroke-width: 1.5;" x1="560" x2="832" y1="501" y2="501"/><line style="stroke: #A80036; stroke-width: 1.5;" x1="560" x2="832" y1="509" y2="509"/><ellipse cx="570" cy="520.9023" fill="#84BE84" rx="3" ry="3" style="stroke: #038048; stroke-width: 1.0;"/><text fill="#000000" font-family="sans-serif" font-size="11" lengthAdjust="spacingAndGlyphs" textLength="78" x="579" y="523.2104">getId(): String</text><ellipse cx="570" cy="533.707" fill="#84BE84" rx="3" ry="3" style="stroke: #038048; stroke-width: 1.0;"/><text fill="#000000" font-family="sans-serif" font-size="11" lengthAdjust="spacingAndGlyphs" textLength="101" x="579" y="536.0151">setId(String): void</text><ellipse cx="570" cy="546.5117" fill="#84BE84" rx="3" ry="3" style="stroke: #038048; stroke-width: 1.0;"/><text fill="#000000" font-family="sans-serif" font-size="11" lengthAdjust="spacingAndGlyphs" textLength="95" x="579" y="548.8198">getType(): String</text><ellipse cx="570" cy="559.3164" fill="#84BE84" rx="3" ry="3" style="stroke: #038048; stroke-width: 1.0;"/><text fill="#000000" font-family="sans-serif" font-size="11" lengthAdjust="spacingAndGlyphs" textLength="118" x="579" y="561.6245">setType(String): void</text><ellipse cx="570" cy="572.1211" fill="#84BE84" rx="3" ry="3" style="stroke: #038048; stroke-width: 1.0;"/><text fill="#000000" font-family="sans-serif" font-size="11" lengthAdjust="spacingAndGlyphs" textLength="119" x="579" y="574.4292">getMessage(): String</text><ellipse cx="570" cy="584.9258" fill="#84BE84" rx="3" ry="3" style="stroke: #038048; stroke-width: 1.0;"/><text fill="#000000" font-family="sans-serif" font-size="11" lengthAdjust="spacingAndGlyphs" textLength="142" x="579" y="587.2339">setMessage(String): void</text><ellipse cx="570" cy="597.7305" fill="#84BE84" rx="3" ry="3" style="stroke: #038048; stroke-width: 1.0;"/><text fill="#000000" font-family="sans-serif" font-size="11" lengthAdjust="spacingAndGlyphs" textLength="225" x="579" y="600.0386">getLogical_resource_ids(): List&lt;String&gt;</text><ellipse cx="570" cy="610.5352" fill="#84BE84" rx="3" ry="3" style="stroke: #038048; stroke-width: 1.0;"/><text fill="#000000" font-family="sans-serif" font-size="11" lengthAdjust="spacingAndGlyphs" textLength="248" x="579" y="612.8433">setLogical_resource_ids(List&lt;String&gt;): void</text><ellipse cx="570" cy="623.3398" fill="#84BE84" rx="3" ry="3" style="stroke: #038048; stroke-width: 1.0;"/><text fill="#000000" font-family="sans-serif" font-size="11" lengthAdjust="spacingAndGlyphs" textLength="192" x="579" y="625.6479">getLine_numbers(): List&lt;Integer&gt;</text><ellipse cx="570" cy="636.1445" fill="#84BE84" rx="3" ry="3" style="stroke: #038048; stroke-width: 1.0;"/><text fill="#000000" font-family="sans-serif" font-size="11" lengthAdjust="spacingAndGlyphs" textLength="215" x="579" y="638.4526">setLine_numbers(List&lt;Integer&gt;): void</text></a><!--link com.hack23.sonar.cloudformation.parser.CfnNagReport to com.hack23.sonar.cloudformation.parser.CfnNagViolation--><path d="M728.6361,330.2648 C723.652,364.8915 716.0218,417.9009 709.3922,463.9592 " fill="none" id="com.hack23.sonar.cloudformation.parser.CfnNagReport-com.hack23.sonar.cloudformation.parser.CfnNagViolation" style="stroke: #A80036; stroke-width: 1.0;"/><polygon fill="#A80036" points="708.6717,468.965,713.9133,460.6268,709.3841,464.016,705.9949,459.4869,708.6717,468.965" style="stroke: #A80036; stroke-width: 1.0;"/><text fill="#000000" font-family="sans-serif" font-size="13" lengthAdjust="spacingAndGlyphs" textLength="60" x="720" y="404.0669">violations</text><text fill="#000000" font-family="sans-serif" font-size="13" lengthAdjust="spacingAndGlyphs" textLength="7" x="702.4599" y="457.8255">*</text><!--link com.hack23.sonar.cloudformation.parser.CfnNagScanReport to com.hack23.sonar.cloudformation.parser.CfnNagReport--><path d="M746.3872,117.1018 C743.7604,154.4026 739.7169,211.8204 736.9699,250.8275 " fill="none" id="com.hack23.sonar.cloudformation.parser.CfnNagScanReport-com.hack23.sonar.cloudformation.parser.CfnNagReport" style="stroke: #A80036; stroke-width: 1.0;"/><polygon fill="#A80036" points="736.608,255.9667,741.2304,247.27,736.9593,250.9791,733.2502,246.7079,736.608,255.9667" style="stroke: #A80036; stroke-width: 1.0;"/><text fill="#000000" font-family="sans-serif" font-size="13" lengthAdjust="spacingAndGlyphs" textLength="68" x="743" y="191.0669">file_results</text><text fill="#888888" font-family="sans-serif" font-size="10" lengthAdjust="spacingAndGlyphs" textLength="186" x="340.5" y="680.2822">UMLDoclet 2.0.4, PlantUML 1.2019.06</text><!--
@startuml
    namespace com.hack23.sonar.cloudformation.parser {

        class CfnNagReport [[CfnNagReport.html]] {
            +getFailure_count(): int
            +setFailure_count(int): void
        }

        class CfnNagScanReport [[CfnNagScanReport.html]] {
            +getFilename(): String
            +setFilename(String): void
        }

        class CfnNagScanReportReader [[CfnNagScanReportReader.html]] {
            +readReport(InputStream): List<CfnNagScanReport>
        }

        class CfnNagReportReader [[CfnNagReportReader.html]] {
            +readReport(InputStream): CfnNagReport
        }

        class CfnNagViolation [[CfnNagViolation.html]] {
            +getId(): String
            +setId(String): void
            +getType(): String
            +setType(String): void
            +getMessage(): String
            +setMessage(String): void
            +getLogical_resource_ids(): List<String>
            +setLogical_resource_ids(List<String>): void
            +getLine_numbers(): List<Integer>
            +setLine_numbers(List<Integer>): void
        }

        CfnNagReport - -> "*" CfnNagViolation: violations
        CfnNagScanReport - -> CfnNagReport: file_results
    }

    center footer UMLDoclet 2.0.4, PlantUML 1.2019.06
@enduml

PlantUML version 1.2019.06(Fri May 24 19:10:25 CEST 2019)
(APACHE source distribution)
Java Runtime: OpenJDK Runtime Environment
JVM: OpenJDK 64-Bit Server VM
Java Version: 11.0.3+7-Ubuntu-1ubuntu219.04.1
Operating System: Linux
OS Version: 5.0.0-16-generic
Default Encoding: UTF-8
Language: en
Country: US
--></g></svg>