<?xml version="1.0" encoding="UTF-8" standalone="no"?><svg xmlns="http://www.w3.org/2000/svg" xmlns:xlink="http://www.w3.org/1999/xlink" contentScriptType="application/ecmascript" contentStyleType="text/css" height="601px" preserveAspectRatio="none" style="width:887px;height:601px;" version="1.1" viewBox="0 0 887 601" width="887px" zoomAndPan="magnify"><defs><filter height="300%" id="fydj127h7f4i3" width="300%" x="-1" y="-1"><feGaussianBlur result="blurOut" stdDeviation="2.0"/><feColorMatrix in="blurOut" result="blurOut2" type="matrix" values="0 0 0 0 0 0 0 0 0 0 0 0 0 0 0 0 0 0 .4 0"/><feOffset dx="4.0" dy="4.0" in="blurOut2" result="blurOut3"/><feBlend in="SourceGraphic" in2="blurOut3" mode="normal"/></filter></defs><g><!--MD5=[b7e5cc2d6be03424719e7139fcbae360]
cluster com.hack23.sonar.cloudformation.parser--><polygon fill="#FFFFFF" filter="url(#fydj127h7f4i3)" points="22,24,354,24,361,46.2969,865,46.2969,865,553,22,553,22,24" style="stroke: #000000; stroke-width: 1.5;"/><line style="stroke: #000000; stroke-width: 1.5;" x1="22" x2="361" y1="46.2969" y2="46.2969"/><text fill="#000000" font-family="sans-serif" font-size="14" font-weight="bold" lengthAdjust="spacingAndGlyphs" textLength="326" x="26" y="38.9951">com.hack23.sonar.cloudformation.parser</text><!--MD5=[6a13ec146c2dc674c74e56333cf988df]
class com.hack23.sonar.cloudformation.parser.CfnNagReport--><a href="CfnNagReport.html" target="_top" title="CfnNagReport.html" xlink:actuate="onRequest" xlink:href="CfnNagReport.html" xlink:show="new" xlink:title="CfnNagReport.html" xlink:type="simple"><rect fill="#FEFECE" filter="url(#fydj127h7f4i3)" height="73.6094" id="com.hack23.sonar.cloudformation.parser.CfnNagReport" style="stroke: #A80036; stroke-width: 1.5;" width="172" x="658" y="210"/><ellipse cx="696.85" cy="226" fill="#ADD1B2" rx="11" ry="11" style="stroke: #A80036; stroke-width: 1.0;"/><path d="M699.8188,231.6406 Q699.2406,231.9375 698.6,232.0781 Q697.9594,232.2344 697.2563,232.2344 Q694.7563,232.2344 693.4281,230.5938 Q692.1156,228.9375 692.1156,225.8125 Q692.1156,222.6875 693.4281,221.0313 Q694.7563,219.375 697.2563,219.375 Q697.9594,219.375 698.6,219.5313 Q699.2563,219.6875 699.8188,219.9844 L699.8188,222.7031 Q699.1938,222.125 698.6,221.8594 Q698.0063,221.5781 697.3813,221.5781 Q696.0375,221.5781 695.35,222.6563 Q694.6625,223.7188 694.6625,225.8125 Q694.6625,227.9063 695.35,228.9844 Q696.0375,230.0469 697.3813,230.0469 Q698.0063,230.0469 698.6,229.7813 Q699.1938,229.5 699.8188,228.9219 L699.8188,231.6406 Z "/><text fill="#000000" font-family="sans-serif" font-size="12" lengthAdjust="spacingAndGlyphs" textLength="87" x="716.15" y="230.1543">CfnNagReport</text><line style="stroke: #A80036; stroke-width: 1.5;" x1="659" x2="829" y1="242" y2="242"/><line style="stroke: #A80036; stroke-width: 1.5;" x1="659" x2="829" y1="250" y2="250"/><ellipse cx="669" cy="261" fill="#84BE84" rx="3" ry="3" style="stroke: #038048; stroke-width: 1.0;"/><text fill="#000000" font-family="sans-serif" font-size="11" lengthAdjust="spacingAndGlyphs" textLength="123" x="678" y="264.2104">getFailure_count(): int</text><ellipse cx="669" cy="273.8047" fill="#84BE84" rx="3" ry="3" style="stroke: #038048; stroke-width: 1.0;"/><text fill="#000000" font-family="sans-serif" font-size="11" lengthAdjust="spacingAndGlyphs" textLength="146" x="678" y="277.0151">setFailure_count(int): void</text></a><!--MD5=[973012a9df9719381d34b30102ef99fb]
class com.hack23.sonar.cloudformation.parser.CfnNagScanReport--><a href="CfnNagScanReport.html" target="_top" title="CfnNagScanReport.html" xlink:actuate="onRequest" xlink:href="CfnNagScanReport.html" xlink:show="new" xlink:title="CfnNagScanReport.html" xlink:type="simple"><rect fill="#FEFECE" filter="url(#fydj127h7f4i3)" height="73.6094" id="com.hack23.sonar.cloudformation.parser.CfnNagScanReport" style="stroke: #A80036; stroke-width: 1.5;" width="168" x="681" y="59"/><ellipse cx="704.1" cy="75" fill="#ADD1B2" rx="11" ry="11" style="stroke: #A80036; stroke-width: 1.0;"/><path d="M707.0688,80.6406 Q706.4906,80.9375 705.85,81.0781 Q705.2094,81.2344 704.5063,81.2344 Q702.0063,81.2344 700.6781,79.5938 Q699.3656,77.9375 699.3656,74.8125 Q699.3656,71.6875 700.6781,70.0313 Q702.0063,68.375 704.5063,68.375 Q705.2094,68.375 705.85,68.5313 Q706.5063,68.6875 707.0688,68.9844 L707.0688,71.7031 Q706.4438,71.125 705.85,70.8594 Q705.2563,70.5781 704.6313,70.5781 Q703.2875,70.5781 702.6,71.6563 Q701.9125,72.7188 701.9125,74.8125 Q701.9125,76.9063 702.6,77.9844 Q703.2875,79.0469 704.6313,79.0469 Q705.2563,79.0469 705.85,78.7813 Q706.4438,78.5 707.0688,77.9219 L707.0688,80.6406 Z "/><text fill="#000000" font-family="sans-serif" font-size="12" lengthAdjust="spacingAndGlyphs" textLength="118" x="719.9" y="79.1543">CfnNagScanReport</text><line style="stroke: #A80036; stroke-width: 1.5;" x1="682" x2="848" y1="91" y2="91"/><line style="stroke: #A80036; stroke-width: 1.5;" x1="682" x2="848" y1="99" y2="99"/><ellipse cx="692" cy="110" fill="#84BE84" rx="3" ry="3" style="stroke: #038048; stroke-width: 1.0;"/><text fill="#000000" font-family="sans-serif" font-size="11" lengthAdjust="spacingAndGlyphs" textLength="119" x="701" y="113.2104">getFilename(): String</text><ellipse cx="692" cy="122.8047" fill="#84BE84" rx="3" ry="3" style="stroke: #038048; stroke-width: 1.0;"/><text fill="#000000" font-family="sans-serif" font-size="11" lengthAdjust="spacingAndGlyphs" textLength="142" x="701" y="126.0151">setFilename(String): void</text></a><!--MD5=[f7656aacb17008ea39cb5d52d37cf839]
class com.hack23.sonar.cloudformation.parser.CfnNagScanReportReader--><a href="CfnNagScanReportReader.html" target="_top" title="CfnNagScanReportReader.html" xlink:actuate="onRequest" xlink:href="CfnNagScanReportReader.html" xlink:show="new" xlink:title="CfnNagScanReportReader.html" xlink:type="simple"><rect fill="#FEFECE" filter="url(#fydj127h7f4i3)" height="60.8047" id="com.hack23.sonar.cloudformation.parser.CfnNagScanReportReader" style="stroke: #A80036; stroke-width: 1.5;" width="319" x="326.5" y="65.5"/><ellipse cx="400.25" cy="81.5" fill="#ADD1B2" rx="11" ry="11" style="stroke: #A80036; stroke-width: 1.0;"/><path d="M403.2188,87.1406 Q402.6406,87.4375 402,87.5781 Q401.3594,87.7344 400.6563,87.7344 Q398.1563,87.7344 396.8281,86.0938 Q395.5156,84.4375 395.5156,81.3125 Q395.5156,78.1875 396.8281,76.5313 Q398.1563,74.875 400.6563,74.875 Q401.3594,74.875 402,75.0313 Q402.6563,75.1875 403.2188,75.4844 L403.2188,78.2031 Q402.5938,77.625 402,77.3594 Q401.4063,77.0781 400.7813,77.0781 Q399.4375,77.0781 398.75,78.1563 Q398.0625,79.2188 398.0625,81.3125 Q398.0625,83.4063 398.75,84.4844 Q399.4375,85.5469 400.7813,85.5469 Q401.4063,85.5469 402,85.2813 Q402.5938,85 403.2188,84.4219 L403.2188,87.1406 Z "/><text fill="#000000" font-family="sans-serif" font-size="12" lengthAdjust="spacingAndGlyphs" textLength="163" x="420.75" y="85.6543">CfnNagScanReportReader</text><line style="stroke: #A80036; stroke-width: 1.5;" x1="327.5" x2="644.5" y1="97.5" y2="97.5"/><line style="stroke: #A80036; stroke-width: 1.5;" x1="327.5" x2="644.5" y1="105.5" y2="105.5"/><ellipse cx="337.5" cy="116.5" fill="#84BE84" rx="3" ry="3" style="stroke: #038048; stroke-width: 1.0;"/><text fill="#000000" font-family="sans-serif" font-size="11" lengthAdjust="spacingAndGlyphs" textLength="293" x="346.5" y="119.7104">readReport(InputStream): List&lt;CfnNagScanReport&gt;</text></a><!--MD5=[599cea475eb98603c869d13cf1b66d28]
class com.hack23.sonar.cloudformation.parser.CfnNagReportReader--><a href="CfnNagReportReader.html" target="_top" title="CfnNagReportReader.html" xlink:actuate="onRequest" xlink:href="CfnNagReportReader.html" xlink:show="new" xlink:title="CfnNagReportReader.html" xlink:type="simple"><rect fill="#FEFECE" filter="url(#fydj127h7f4i3)" height="60.8047" id="com.hack23.sonar.cloudformation.parser.CfnNagReportReader" style="stroke: #A80036; stroke-width: 1.5;" width="253" x="38.5" y="65.5"/><ellipse cx="94.75" cy="81.5" fill="#ADD1B2" rx="11" ry="11" style="stroke: #A80036; stroke-width: 1.0;"/><path d="M97.7188,87.1406 Q97.1406,87.4375 96.5,87.5781 Q95.8594,87.7344 95.1563,87.7344 Q92.6563,87.7344 91.3281,86.0938 Q90.0156,84.4375 90.0156,81.3125 Q90.0156,78.1875 91.3281,76.5313 Q92.6563,74.875 95.1563,74.875 Q95.8594,74.875 96.5,75.0313 Q97.1563,75.1875 97.7188,75.4844 L97.7188,78.2031 Q97.0938,77.625 96.5,77.3594 Q95.9063,77.0781 95.2813,77.0781 Q93.9375,77.0781 93.25,78.1563 Q92.5625,79.2188 92.5625,81.3125 Q92.5625,83.4063 93.25,84.4844 Q93.9375,85.5469 95.2813,85.5469 Q95.9063,85.5469 96.5,85.2813 Q97.0938,85 97.7188,84.4219 L97.7188,87.1406 Z "/><text fill="#000000" font-family="sans-serif" font-size="12" lengthAdjust="spacingAndGlyphs" textLength="132" x="115.25" y="85.6543">CfnNagReportReader</text><line style="stroke: #A80036; stroke-width: 1.5;" x1="39.5" x2="290.5" y1="97.5" y2="97.5"/><line style="stroke: #A80036; stroke-width: 1.5;" x1="39.5" x2="290.5" y1="105.5" y2="105.5"/><ellipse cx="49.5" cy="116.5" fill="#84BE84" rx="3" ry="3" style="stroke: #038048; stroke-width: 1.0;"/><text fill="#000000" font-family="sans-serif" font-size="11" lengthAdjust="spacingAndGlyphs" textLength="227" x="58.5" y="119.7104">readReport(InputStream): CfnNagReport</text></a><!--MD5=[3ff67a89d4b7a817d5edc57d65b67c1e]
class com.hack23.sonar.cloudformation.parser.CfnNagViolation--><a href="CfnNagViolation.html" target="_top" title="CfnNagViolation.html" xlink:actuate="onRequest" xlink:href="CfnNagViolation.html" xlink:show="new" xlink:title="CfnNagViolation.html" xlink:type="simple"><rect fill="#FEFECE" filter="url(#fydj127h7f4i3)" height="176.0469" id="com.hack23.sonar.cloudformation.parser.CfnNagViolation" style="stroke: #A80036; stroke-width: 1.5;" width="274" x="575" y="361"/><ellipse cx="658.25" cy="377" fill="#ADD1B2" rx="11" ry="11" style="stroke: #A80036; stroke-width: 1.0;"/><path d="M661.2188,382.6406 Q660.6406,382.9375 660,383.0781 Q659.3594,383.2344 658.6563,383.2344 Q656.1563,383.2344 654.8281,381.5938 Q653.5156,379.9375 653.5156,376.8125 Q653.5156,373.6875 654.8281,372.0313 Q656.1563,370.375 658.6563,370.375 Q659.3594,370.375 660,370.5313 Q660.6563,370.6875 661.2188,370.9844 L661.2188,373.7031 Q660.5938,373.125 660,372.8594 Q659.4063,372.5781 658.7813,372.5781 Q657.4375,372.5781 656.75,373.6563 Q656.0625,374.7188 656.0625,376.8125 Q656.0625,378.9063 656.75,379.9844 Q657.4375,381.0469 658.7813,381.0469 Q659.4063,381.0469 660,380.7813 Q660.5938,380.5 661.2188,379.9219 L661.2188,382.6406 Z "/><text fill="#000000" font-family="sans-serif" font-size="12" lengthAdjust="spacingAndGlyphs" textLength="99" x="678.75" y="381.1543">CfnNagViolation</text><line style="stroke: #A80036; stroke-width: 1.5;" x1="576" x2="848" y1="393" y2="393"/><line style="stroke: #A80036; stroke-width: 1.5;" x1="576" x2="848" y1="401" y2="401"/><ellipse cx="586" cy="412" fill="#84BE84" rx="3" ry="3" style="stroke: #038048; stroke-width: 1.0;"/><text fill="#000000" font-family="sans-serif" font-size="11" lengthAdjust="spacingAndGlyphs" textLength="78" x="595" y="415.2104">getId(): String</text><ellipse cx="586" cy="424.8047" fill="#84BE84" rx="3" ry="3" style="stroke: #038048; stroke-width: 1.0;"/><text fill="#000000" font-family="sans-serif" font-size="11" lengthAdjust="spacingAndGlyphs" textLength="101" x="595" y="428.0151">setId(String): void</text><ellipse cx="586" cy="437.6094" fill="#84BE84" rx="3" ry="3" style="stroke: #038048; stroke-width: 1.0;"/><text fill="#000000" font-family="sans-serif" font-size="11" lengthAdjust="spacingAndGlyphs" textLength="95" x="595" y="440.8198">getType(): String</text><ellipse cx="586" cy="450.4141" fill="#84BE84" rx="3" ry="3" style="stroke: #038048; stroke-width: 1.0;"/><text fill="#000000" font-family="sans-serif" font-size="11" lengthAdjust="spacingAndGlyphs" textLength="118" x="595" y="453.6245">setType(String): void</text><ellipse cx="586" cy="463.2188" fill="#84BE84" rx="3" ry="3" style="stroke: #038048; stroke-width: 1.0;"/><text fill="#000000" font-family="sans-serif" font-size="11" lengthAdjust="spacingAndGlyphs" textLength="119" x="595" y="466.4292">getMessage(): String</text><ellipse cx="586" cy="476.0234" fill="#84BE84" rx="3" ry="3" style="stroke: #038048; stroke-width: 1.0;"/><text fill="#000000" font-family="sans-serif" font-size="11" lengthAdjust="spacingAndGlyphs" textLength="142" x="595" y="479.2339">setMessage(String): void</text><ellipse cx="586" cy="488.8281" fill="#84BE84" rx="3" ry="3" style="stroke: #038048; stroke-width: 1.0;"/><text fill="#000000" font-family="sans-serif" font-size="11" lengthAdjust="spacingAndGlyphs" textLength="225" x="595" y="492.0386">getLogical_resource_ids(): List&lt;String&gt;</text><ellipse cx="586" cy="501.6328" fill="#84BE84" rx="3" ry="3" style="stroke: #038048; stroke-width: 1.0;"/><text fill="#000000" font-family="sans-serif" font-size="11" lengthAdjust="spacingAndGlyphs" textLength="248" x="595" y="504.8433">setLogical_resource_ids(List&lt;String&gt;): void</text><ellipse cx="586" cy="514.4375" fill="#84BE84" rx="3" ry="3" style="stroke: #038048; stroke-width: 1.0;"/><text fill="#000000" font-family="sans-serif" font-size="11" lengthAdjust="spacingAndGlyphs" textLength="192" x="595" y="517.6479">getLine_numbers(): List&lt;Integer&gt;</text><ellipse cx="586" cy="527.2422" fill="#84BE84" rx="3" ry="3" style="stroke: #038048; stroke-width: 1.0;"/><text fill="#000000" font-family="sans-serif" font-size="11" lengthAdjust="spacingAndGlyphs" textLength="215" x="595" y="530.4526">setLine_numbers(List&lt;Integer&gt;): void</text></a><!--MD5=[561ec18d708f70a97eab48bc9fc1a956]
link com.hack23.sonar.cloudformation.parser.CfnNagReport to com.hack23.sonar.cloudformation.parser.CfnNagViolation--><path d="M738.21,284.22 C734.98,304.38 730.81,330.47 726.74,355.87 " fill="none" id="com.hack23.sonar.cloudformation.parser.CfnNagReport-&gt;com.hack23.sonar.cloudformation.parser.CfnNagViolation" style="stroke: #A80036; stroke-width: 1.0;"/><polygon fill="#A80036" points="725.93,360.94,731.2933,352.6796,726.7149,356.002,723.3925,351.4236,725.93,360.94" style="stroke: #A80036; stroke-width: 1.0;"/><text fill="#000000" font-family="sans-serif" font-size="13" lengthAdjust="spacingAndGlyphs" textLength="60" x="733" y="327.0669">violations</text><text fill="#000000" font-family="sans-serif" font-size="13" lengthAdjust="spacingAndGlyphs" textLength="7" x="719.8263" y="349.7984">*</text><!--MD5=[98c58a8225cf257179c3ed7d7a39c653]
link com.hack23.sonar.cloudformation.parser.CfnNagScanReport to com.hack23.sonar.cloudformation.parser.CfnNagReport--><path d="M759.92,133.07 C756.87,154.69 752.98,182.25 749.82,204.74 " fill="none" id="com.hack23.sonar.cloudformation.parser.CfnNagScanReport-&gt;com.hack23.sonar.cloudformation.parser.CfnNagReport" style="stroke: #A80036; stroke-width: 1.0;"/><polygon fill="#A80036" points="749.11,209.75,754.3291,201.3977,749.8091,204.7991,746.4077,200.2791,749.11,209.75" style="stroke: #A80036; stroke-width: 1.0;"/><text fill="#000000" font-family="sans-serif" font-size="13" lengthAdjust="spacingAndGlyphs" textLength="68" x="756" y="176.0669">file_results</text><text fill="#888888" font-family="sans-serif" font-size="10" lengthAdjust="spacingAndGlyphs" textLength="186" x="356.5" y="588.2822">UMLDoclet 2.0.9, PlantUML 1.2020.08</text><!--MD5=[4abbc1d6661a0b84cad057ce702c43d1]
@startuml
    namespace com.hack23.sonar.cloudformation.parser {

        class CfnNagReport [[CfnNagReport.html]] {
            +getFailure_count(): int
            +setFailure_count(int): void
        }

        class CfnNagScanReport [[CfnNagScanReport.html]] {
            +getFilename(): String
            +setFilename(String): void
        }

        class CfnNagScanReportReader [[CfnNagScanReportReader.html]] {
            +readReport(InputStream): List<CfnNagScanReport>
        }

        class CfnNagReportReader [[CfnNagReportReader.html]] {
            +readReport(InputStream): CfnNagReport
        }

        class CfnNagViolation [[CfnNagViolation.html]] {
            +getId(): String
            +setId(String): void
            +getType(): String
            +setType(String): void
            +getMessage(): String
            +setMessage(String): void
            +getLogical_resource_ids(): List<String>
            +setLogical_resource_ids(List<String>): void
            +getLine_numbers(): List<Integer>
            +setLine_numbers(List<Integer>): void
        }

        CfnNagReport - -> "*" CfnNagViolation: violations
        CfnNagScanReport - -> CfnNagReport: file_results
    }

    center footer UMLDoclet 2.0.9, PlantUML 1.2020.08
@enduml

PlantUML version 1.2020.08(Sun Apr 26 16:08:22 CEST 2020)
(APACHE source distribution)
Java Runtime: OpenJDK Runtime Environment
JVM: OpenJDK 64-Bit Server VM
Java Version: 11.0.7+10-post-Ubuntu-3ubuntu1
Operating System: Linux
Default Encoding: UTF-8
Language: en
Country: US
--></g></svg>