<?xml version="1.0" encoding="UTF-8" standalone="no"?><svg xmlns="http://www.w3.org/2000/svg" xmlns:xlink="http://www.w3.org/1999/xlink" contentStyleType="text/css" height="144px" preserveAspectRatio="none" style="width:337px;height:144px;background:#FFFFFF;" version="1.1" viewBox="0 0 337 144" width="337px" zoomAndPan="magnify"><defs/><g><!--MD5=[1855bfbf47708599c5606b4788c33a32]
class com.hack23.sonar.cloudformation.reports.cfnnag.CfnNagReport--><a href="CfnNagReport.html" target="_top" title="CfnNagReport.html" xlink:actuate="onRequest" xlink:href="CfnNagReport.html" xlink:show="new" xlink:title="CfnNagReport.html" xlink:type="simple"><g id="elem_com.hack23.sonar.cloudformation.reports.cfnnag.CfnNagReport"><rect codeLine="5" fill="#F1F1F1" height="111.125" id="com.hack23.sonar.cloudformation.reports.cfnnag.CfnNagReport" rx="2.5" ry="2.5" style="stroke:#181818;stroke-width:0.5;" width="316" x="7" y="7"/><ellipse cx="42.7" cy="25.9688" fill="#ADD1B2" rx="11" ry="11" style="stroke:#181818;stroke-width:1.0;"/><path d="M45.6688,31.6094 Q45.0906,31.9063 44.45,32.0469 Q43.8094,32.2031 43.1063,32.2031 Q40.6063,32.2031 39.2781,30.5625 Q37.9656,28.9063 37.9656,25.7813 Q37.9656,22.6563 39.2781,21 Q40.6063,19.3438 43.1063,19.3438 Q43.8094,19.3438 44.45,19.5 Q45.1063,19.6563 45.6688,19.9531 L45.6688,22.6719 Q45.0438,22.0938 44.45,21.8281 Q43.8563,21.5469 43.2313,21.5469 Q41.8875,21.5469 41.2,22.625 Q40.5125,23.6875 40.5125,25.7813 Q40.5125,27.875 41.2,28.9531 Q41.8875,30.0156 43.2313,30.0156 Q43.8563,30.0156 44.45,29.75 Q45.0438,29.4688 45.6688,28.8906 L45.6688,31.6094 Z " fill="#000000"/><text fill="#000000" font-family="sans-serif" font-size="14" lengthAdjust="spacing" textLength="97" x="131.8" y="24.9951">CfnNagReport</text><text fill="#000000" font-family="sans-serif" font-size="10" lengthAdjust="spacing" textLength="238" x="61.3" y="37.5791">com.hack23.sonar.cloudformation.reports.cfnnag</text><line style="stroke:#181818;stroke-width:0.5;" x1="8" x2="322" y1="44.9375" y2="44.9375"/><ellipse cx="18" cy="58.5859" fill="#84BE84" rx="3" ry="3" style="stroke:#038048;stroke-width:1.0;"/><text fill="#000000" font-family="sans-serif" font-size="14" lengthAdjust="spacing" textLength="146" x="27" y="61.9326">getFailureCount(): int</text><ellipse cx="18" cy="74.8828" fill="#84BE84" rx="3" ry="3" style="stroke:#038048;stroke-width:1.0;"/><text fill="#000000" font-family="sans-serif" font-size="14" lengthAdjust="spacing" textLength="173" x="27" y="78.2295">setFailureCount(int): void</text><ellipse cx="18" cy="91.1797" fill="#84BE84" rx="3" ry="3" style="stroke:#038048;stroke-width:1.0;"/><text fill="#000000" font-family="sans-serif" font-size="14" lengthAdjust="spacing" textLength="263" x="27" y="94.5264">getViolations(): List&lt;CfnNagViolation&gt;</text><ellipse cx="18" cy="107.4766" fill="#84BE84" rx="3" ry="3" style="stroke:#038048;stroke-width:1.0;"/><text fill="#000000" font-family="sans-serif" font-size="14" lengthAdjust="spacing" textLength="290" x="27" y="110.8232">setViolations(List&lt;CfnNagViolation&gt;): void</text></g></a><rect fill="none" height="11.6406" style="stroke:none;stroke-width:1.0;" width="192" x="68.5" y="125.125"/><text fill="#888888" font-family="sans-serif" font-size="10" lengthAdjust="spacing" textLength="192" x="68.5" y="134.4072">UMLDoclet 2.0.20, PlantUML 1.2022.12</text><!--MD5=[6c9789bf736911d95ec6d98999902352]
@startuml
    set namespaceSeparator none
    hide empty fields
    hide empty methods

    class "<size:14>CfnNagReport\n<size:10>com.hack23.sonar.cloudformation.reports.cfnnag" as com.hack23.sonar.cloudformation.reports.cfnnag.CfnNagReport [[CfnNagReport.html]] {
        +getFailureCount(): int
        +setFailureCount(int): void
        +getViolations(): List<CfnNagViolation>
        +setViolations(List<CfnNagViolation>): void
    }

    center footer UMLDoclet 2.0.20, PlantUML 1.2022.12
@enduml

PlantUML version 1.2022.12(Sun Oct 23 20:12:26 CEST 2022)
(APACHE source distribution)
Java Runtime: OpenJDK Runtime Environment
JVM: OpenJDK 64-Bit Server VM
Default Encoding: UTF-8
Language: en
Country: US
--></g></svg>