<?xml version="1.0" encoding="UTF-8" standalone="no"?><svg xmlns="http://www.w3.org/2000/svg" xmlns:xlink="http://www.w3.org/1999/xlink" contentStyleType="text/css" height="609px" preserveAspectRatio="none" style="width:421px;height:609px;background:#FFFFFF;" version="1.1" viewBox="0 0 421 609" width="421px" zoomAndPan="magnify"><defs/><g><!--MD5=[3128702138103ac5e709a27351e765d6]
cluster com.hack23.sonar.cloudformation.reports.cfnnag--><g id="cluster_com.hack23.sonar.cloudformation.reports.cfnnag"><path d="M8.5,6 L401.5,6 A3.75,3.75 0 0 1 404,8.5 L411,28.2969 L411.5,28.2969 A2.5,2.5 0 0 1 414,30.7969 L414,581.5 A2.5,2.5 0 0 1 411.5,584 L8.5,584 A2.5,2.5 0 0 1 6,581.5 L6,8.5 A2.5,2.5 0 0 1 8.5,6 " fill="none" style="stroke:#000000;stroke-width:1.5;"/><line style="stroke:#000000;stroke-width:1.5;" x1="6" x2="411" y1="28.2969" y2="28.2969"/><text fill="#000000" font-family="sans-serif" font-size="14" font-weight="bold" lengthAdjust="spacing" textLength="392" x="10" y="20.9951">com.hack23.sonar.cloudformation.reports.cfnnag</text></g><!--MD5=[6751a8f7715516ddce03ec294f80122c]
class com.hack23.sonar.cloudformation.reports.cfnnag.CfnNagViolation--><a href="CfnNagViolation.html" target="_top" title="CfnNagViolation.html" xlink:actuate="onRequest" xlink:href="CfnNagViolation.html" xlink:show="new" xlink:title="CfnNagViolation.html" xlink:type="simple"><g id="elem_com.hack23.sonar.cloudformation.reports.cfnnag.CfnNagViolation"><rect codeLine="3" fill="#F1F1F1" height="210.9688" id="com.hack23.sonar.cloudformation.reports.cfnnag.CfnNagViolation" rx="2.5" ry="2.5" style="stroke:#181818;stroke-width:0.5;" width="316" x="52" y="357"/><ellipse cx="151.75" cy="373" fill="#ADD1B2" rx="11" ry="11" style="stroke:#181818;stroke-width:1.0;"/><path d="M154.7188,378.6406 Q154.1406,378.9375 153.5,379.0781 Q152.8594,379.2344 152.1563,379.2344 Q149.6563,379.2344 148.3281,377.5938 Q147.0156,375.9375 147.0156,372.8125 Q147.0156,369.6875 148.3281,368.0313 Q149.6563,366.375 152.1563,366.375 Q152.8594,366.375 153.5,366.5313 Q154.1563,366.6875 154.7188,366.9844 L154.7188,369.7031 Q154.0938,369.125 153.5,368.8594 Q152.9063,368.5781 152.2813,368.5781 Q150.9375,368.5781 150.25,369.6563 Q149.5625,370.7188 149.5625,372.8125 Q149.5625,374.9063 150.25,375.9844 Q150.9375,377.0469 152.2813,377.0469 Q152.9063,377.0469 153.5,376.7813 Q154.0938,376.5 154.7188,375.9219 L154.7188,378.6406 Z " fill="#000000"/><text fill="#000000" font-family="sans-serif" font-size="14" lengthAdjust="spacing" textLength="108" x="172.25" y="377.8467">CfnNagViolation</text><line style="stroke:#181818;stroke-width:0.5;" x1="53" x2="367" y1="389" y2="389"/><line style="stroke:#181818;stroke-width:0.5;" x1="53" x2="367" y1="397" y2="397"/><ellipse cx="63" cy="410.6484" fill="#84BE84" rx="3" ry="3" style="stroke:#038048;stroke-width:1.0;"/><text fill="#000000" font-family="sans-serif" font-size="14" lengthAdjust="spacing" textLength="94" x="72" y="413.9951">getId(): String</text><ellipse cx="63" cy="426.9453" fill="#84BE84" rx="3" ry="3" style="stroke:#038048;stroke-width:1.0;"/><text fill="#000000" font-family="sans-serif" font-size="14" lengthAdjust="spacing" textLength="121" x="72" y="430.292">setId(String): void</text><ellipse cx="63" cy="443.2422" fill="#84BE84" rx="3" ry="3" style="stroke:#038048;stroke-width:1.0;"/><text fill="#000000" font-family="sans-serif" font-size="14" lengthAdjust="spacing" textLength="116" x="72" y="446.5889">getType(): String</text><ellipse cx="63" cy="459.5391" fill="#84BE84" rx="3" ry="3" style="stroke:#038048;stroke-width:1.0;"/><text fill="#000000" font-family="sans-serif" font-size="14" lengthAdjust="spacing" textLength="143" x="72" y="462.8857">setType(String): void</text><ellipse cx="63" cy="475.8359" fill="#84BE84" rx="3" ry="3" style="stroke:#038048;stroke-width:1.0;"/><text fill="#000000" font-family="sans-serif" font-size="14" lengthAdjust="spacing" textLength="145" x="72" y="479.1826">getMessage(): String</text><ellipse cx="63" cy="492.1328" fill="#84BE84" rx="3" ry="3" style="stroke:#038048;stroke-width:1.0;"/><text fill="#000000" font-family="sans-serif" font-size="14" lengthAdjust="spacing" textLength="172" x="72" y="495.4795">setMessage(String): void</text><ellipse cx="63" cy="508.4297" fill="#84BE84" rx="3" ry="3" style="stroke:#038048;stroke-width:1.0;"/><text fill="#000000" font-family="sans-serif" font-size="14" lengthAdjust="spacing" textLength="263" x="72" y="511.7764">getLogicalResourceIds(): List&lt;String&gt;</text><ellipse cx="63" cy="524.7266" fill="#84BE84" rx="3" ry="3" style="stroke:#038048;stroke-width:1.0;"/><text fill="#000000" font-family="sans-serif" font-size="14" lengthAdjust="spacing" textLength="290" x="72" y="528.0732">setLogicalResourceIds(List&lt;String&gt;): void</text><ellipse cx="63" cy="541.0234" fill="#84BE84" rx="3" ry="3" style="stroke:#038048;stroke-width:1.0;"/><text fill="#000000" font-family="sans-serif" font-size="14" lengthAdjust="spacing" textLength="229" x="72" y="544.3701">getLineNumbers(): List&lt;Integer&gt;</text><ellipse cx="63" cy="557.3203" fill="#84BE84" rx="3" ry="3" style="stroke:#038048;stroke-width:1.0;"/><text fill="#000000" font-family="sans-serif" font-size="14" lengthAdjust="spacing" textLength="256" x="72" y="560.667">setLineNumbers(List&lt;Integer&gt;): void</text></g></a><!--MD5=[1855bfbf47708599c5606b4788c33a32]
class com.hack23.sonar.cloudformation.reports.cfnnag.CfnNagReport--><a href="CfnNagReport.html" target="_top" title="CfnNagReport.html" xlink:actuate="onRequest" xlink:href="CfnNagReport.html" xlink:show="new" xlink:title="CfnNagReport.html" xlink:type="simple"><g id="elem_com.hack23.sonar.cloudformation.reports.cfnnag.CfnNagReport"><rect codeLine="16" fill="#F1F1F1" height="80.5938" id="com.hack23.sonar.cloudformation.reports.cfnnag.CfnNagReport" rx="2.5" ry="2.5" style="stroke:#181818;stroke-width:0.5;" width="199" x="110.5" y="199"/><ellipse cx="157.25" cy="215" fill="#ADD1B2" rx="11" ry="11" style="stroke:#181818;stroke-width:1.0;"/><path d="M160.2188,220.6406 Q159.6406,220.9375 159,221.0781 Q158.3594,221.2344 157.6563,221.2344 Q155.1563,221.2344 153.8281,219.5938 Q152.5156,217.9375 152.5156,214.8125 Q152.5156,211.6875 153.8281,210.0313 Q155.1563,208.375 157.6563,208.375 Q158.3594,208.375 159,208.5313 Q159.6563,208.6875 160.2188,208.9844 L160.2188,211.7031 Q159.5938,211.125 159,210.8594 Q158.4063,210.5781 157.7813,210.5781 Q156.4375,210.5781 155.75,211.6563 Q155.0625,212.7188 155.0625,214.8125 Q155.0625,216.9063 155.75,217.9844 Q156.4375,219.0469 157.7813,219.0469 Q158.4063,219.0469 159,218.7813 Q159.5938,218.5 160.2188,217.9219 L160.2188,220.6406 Z " fill="#000000"/><text fill="#000000" font-family="sans-serif" font-size="14" lengthAdjust="spacing" textLength="97" x="177.75" y="219.8467">CfnNagReport</text><line style="stroke:#181818;stroke-width:0.5;" x1="111.5" x2="308.5" y1="231" y2="231"/><line style="stroke:#181818;stroke-width:0.5;" x1="111.5" x2="308.5" y1="239" y2="239"/><ellipse cx="121.5" cy="252.6484" fill="#84BE84" rx="3" ry="3" style="stroke:#038048;stroke-width:1.0;"/><text fill="#000000" font-family="sans-serif" font-size="14" lengthAdjust="spacing" textLength="146" x="130.5" y="255.9951">getFailureCount(): int</text><ellipse cx="121.5" cy="268.9453" fill="#84BE84" rx="3" ry="3" style="stroke:#038048;stroke-width:1.0;"/><text fill="#000000" font-family="sans-serif" font-size="14" lengthAdjust="spacing" textLength="173" x="130.5" y="272.292">setFailureCount(int): void</text></g></a><!--MD5=[7eacc2ef0975b83551f46ab0dc394a89]
class com.hack23.sonar.cloudformation.reports.cfnnag.CfnNagScanReport--><a href="CfnNagScanReport.html" target="_top" title="CfnNagScanReport.html" xlink:actuate="onRequest" xlink:href="CfnNagScanReport.html" xlink:show="new" xlink:title="CfnNagScanReport.html" xlink:type="simple"><g id="elem_com.hack23.sonar.cloudformation.reports.cfnnag.CfnNagScanReport"><rect codeLine="21" fill="#F1F1F1" height="80.5938" id="com.hack23.sonar.cloudformation.reports.cfnnag.CfnNagScanReport" rx="2.5" ry="2.5" style="stroke:#181818;stroke-width:0.5;" width="197" x="111.5" y="41"/><ellipse cx="141.8" cy="57" fill="#ADD1B2" rx="11" ry="11" style="stroke:#181818;stroke-width:1.0;"/><path d="M144.7688,62.6406 Q144.1906,62.9375 143.55,63.0781 Q142.9094,63.2344 142.2063,63.2344 Q139.7063,63.2344 138.3781,61.5938 Q137.0656,59.9375 137.0656,56.8125 Q137.0656,53.6875 138.3781,52.0313 Q139.7063,50.375 142.2063,50.375 Q142.9094,50.375 143.55,50.5313 Q144.2063,50.6875 144.7688,50.9844 L144.7688,53.7031 Q144.1438,53.125 143.55,52.8594 Q142.9563,52.5781 142.3313,52.5781 Q140.9875,52.5781 140.3,53.6563 Q139.6125,54.7188 139.6125,56.8125 Q139.6125,58.9063 140.3,59.9844 Q140.9875,61.0469 142.3313,61.0469 Q142.9563,61.0469 143.55,60.7813 Q144.1438,60.5 144.7688,59.9219 L144.7688,62.6406 Z " fill="#000000"/><text fill="#000000" font-family="sans-serif" font-size="14" lengthAdjust="spacing" textLength="131" x="159.2" y="61.8467">CfnNagScanReport</text><line style="stroke:#181818;stroke-width:0.5;" x1="112.5" x2="307.5" y1="73" y2="73"/><line style="stroke:#181818;stroke-width:0.5;" x1="112.5" x2="307.5" y1="81" y2="81"/><ellipse cx="122.5" cy="94.6484" fill="#84BE84" rx="3" ry="3" style="stroke:#038048;stroke-width:1.0;"/><text fill="#000000" font-family="sans-serif" font-size="14" lengthAdjust="spacing" textLength="144" x="131.5" y="97.9951">getFilename(): String</text><ellipse cx="122.5" cy="110.9453" fill="#84BE84" rx="3" ry="3" style="stroke:#038048;stroke-width:1.0;"/><text fill="#000000" font-family="sans-serif" font-size="14" lengthAdjust="spacing" textLength="171" x="131.5" y="114.292">setFilename(String): void</text></g></a><!--MD5=[dd8951e13207d00b273c62111f7f646c]
link com.hack23.sonar.cloudformation.reports.cfnnag.CfnNagReport to com.hack23.sonar.cloudformation.reports.cfnnag.CfnNagViolation--><g id="link_com.hack23.sonar.cloudformation.reports.cfnnag.CfnNagReport_com.hack23.sonar.cloudformation.reports.cfnnag.CfnNagViolation"><path codeLine="26" d="M210,280.01 C210,300.26 210,326.03 210,351.75 " fill="none" id="com.hack23.sonar.cloudformation.reports.cfnnag.CfnNagReport-to-com.hack23.sonar.cloudformation.reports.cfnnag.CfnNagViolation" style="stroke:#181818;stroke-width:1.0;"/><polygon fill="#181818" points="210,356.89,214,347.89,210,351.89,206,347.89,210,356.89" style="stroke:#181818;stroke-width:1.0;"/><text fill="#000000" font-family="sans-serif" font-size="13" lengthAdjust="spacing" textLength="60" x="211" y="323.0669">violations</text><text fill="#000000" font-family="sans-serif" font-size="13" lengthAdjust="spacing" textLength="7" x="202.7539" y="346.0096">*</text></g><!--MD5=[3887fbe6851e7cfb8d6ce865d7c7c8b0]
link com.hack23.sonar.cloudformation.reports.cfnnag.CfnNagScanReport to com.hack23.sonar.cloudformation.reports.cfnnag.CfnNagReport--><g id="link_com.hack23.sonar.cloudformation.reports.cfnnag.CfnNagScanReport_com.hack23.sonar.cloudformation.reports.cfnnag.CfnNagReport"><path codeLine="27" d="M210,122.27 C210,144.09 210,171.21 210,193.77 " fill="none" id="com.hack23.sonar.cloudformation.reports.cfnnag.CfnNagScanReport-to-com.hack23.sonar.cloudformation.reports.cfnnag.CfnNagReport" style="stroke:#181818;stroke-width:1.0;"/><polygon fill="#181818" points="210,198.8,214,189.8,210,193.8,206,189.8,210,198.8" style="stroke:#181818;stroke-width:1.0;"/><text fill="#000000" font-family="sans-serif" font-size="13" lengthAdjust="spacing" textLength="64" x="211" y="165.0669">fileResults</text></g><rect fill="none" height="11.6406" style="stroke:none;stroke-width:1.0;" width="192" x="107.5" y="590"/><text fill="#888888" font-family="sans-serif" font-size="10" lengthAdjust="spacing" textLength="192" x="107.5" y="599.2822">UMLDoclet 2.0.20, PlantUML 1.2022.12</text><!--MD5=[f69445489f8d5d70abb1162d196e7cb9]
@startuml
    namespace com.hack23.sonar.cloudformation.reports.cfnnag {

        class CfnNagViolation [[CfnNagViolation.html]] {
            +getId(): String
            +setId(String): void
            +getType(): String
            +setType(String): void
            +getMessage(): String
            +setMessage(String): void
            +getLogicalResourceIds(): List<String>
            +setLogicalResourceIds(List<String>): void
            +getLineNumbers(): List<Integer>
            +setLineNumbers(List<Integer>): void
        }

        class CfnNagReport [[CfnNagReport.html]] {
            +getFailureCount(): int
            +setFailureCount(int): void
        }

        class CfnNagScanReport [[CfnNagScanReport.html]] {
            +getFilename(): String
            +setFilename(String): void
        }

        CfnNagReport - -> "*" CfnNagViolation: violations
        CfnNagScanReport - -> CfnNagReport: fileResults
    }

    center footer UMLDoclet 2.0.20, PlantUML 1.2022.12
@enduml

PlantUML version 1.2022.12(Sun Oct 23 20:12:26 CEST 2022)
(APACHE source distribution)
Java Runtime: OpenJDK Runtime Environment
JVM: OpenJDK 64-Bit Server VM
Default Encoding: UTF-8
Language: en
Country: US
--></g></svg>