<?xml version="1.0" encoding="UTF-8" standalone="no"?><svg xmlns="http://www.w3.org/2000/svg" xmlns:xlink="http://www.w3.org/1999/xlink" contentScriptType="application/ecmascript" contentStyleType="text/css" height="558px" preserveAspectRatio="none" style="width:441px;height:558px;background:#FFFFFF;" version="1.1" viewBox="0 0 441 558" width="441px" zoomAndPan="magnify"><defs><filter height="300%" id="fdd2ur3kdwqr0" width="300%" x="-1" y="-1"><feGaussianBlur result="blurOut" stdDeviation="2.0"/><feColorMatrix in="blurOut" result="blurOut2" type="matrix" values="0 0 0 0 0 0 0 0 0 0 0 0 0 0 0 0 0 0 .4 0"/><feOffset dx="4.0" dy="4.0" in="blurOut2" result="blurOut3"/><feBlend in="SourceGraphic" in2="blurOut3" mode="normal"/></filter></defs><g><!--MD5=[3128702138103ac5e709a27351e765d6]
cluster com.hack23.sonar.cloudformation.reports.cfnnag--><polygon fill="#FFFFFF" filter="url(#fdd2ur3kdwqr0)" points="16,6,414,6,421,28.2969,424,28.2969,424,535,16,535,16,6" style="stroke:#000000;stroke-width:1.5;"/><line style="stroke:#000000;stroke-width:1.5;" x1="16" x2="421" y1="28.2969" y2="28.2969"/><text fill="#000000" font-family="sans-serif" font-size="14" font-weight="bold" lengthAdjust="spacing" textLength="392" x="20" y="20.9951">com.hack23.sonar.cloudformation.reports.cfnnag</text><!--MD5=[1855bfbf47708599c5606b4788c33a32]
class com.hack23.sonar.cloudformation.reports.cfnnag.CfnNagReport--><a href="CfnNagReport.html" target="_top" title="CfnNagReport.html" xlink:actuate="onRequest" xlink:href="CfnNagReport.html" xlink:show="new" xlink:title="CfnNagReport.html" xlink:type="simple"><rect codeLine="3" fill="#FEFECE" filter="url(#fdd2ur3kdwqr0)" height="73.6094" id="com.hack23.sonar.cloudformation.reports.cfnnag.CfnNagReport" style="stroke:#A80036;stroke-width:1.5;" width="168" x="136" y="192"/><ellipse cx="173.05" cy="208" fill="#ADD1B2" rx="11" ry="11" style="stroke:#A80036;stroke-width:1.0;"/><path d="M176.0188,213.6406 Q175.4406,213.9375 174.8,214.0781 Q174.1594,214.2344 173.4563,214.2344 Q170.9563,214.2344 169.6281,212.5938 Q168.3156,210.9375 168.3156,207.8125 Q168.3156,204.6875 169.6281,203.0313 Q170.9563,201.375 173.4563,201.375 Q174.1594,201.375 174.8,201.5313 Q175.4563,201.6875 176.0188,201.9844 L176.0188,204.7031 Q175.3938,204.125 174.8,203.8594 Q174.2063,203.5781 173.5813,203.5781 Q172.2375,203.5781 171.55,204.6563 Q170.8625,205.7188 170.8625,207.8125 Q170.8625,209.9063 171.55,210.9844 Q172.2375,212.0469 173.5813,212.0469 Q174.2063,212.0469 174.8,211.7813 Q175.3938,211.5 176.0188,210.9219 L176.0188,213.6406 Z " fill="#000000"/><text fill="#000000" font-family="sans-serif" font-size="12" lengthAdjust="spacing" textLength="87" x="191.95" y="212.1543">CfnNagReport</text><line style="stroke:#A80036;stroke-width:1.5;" x1="137" x2="303" y1="224" y2="224"/><line style="stroke:#A80036;stroke-width:1.5;" x1="137" x2="303" y1="232" y2="232"/><ellipse cx="147" cy="243" fill="#84BE84" rx="3" ry="3" style="stroke:#038048;stroke-width:1.0;"/><text fill="#000000" font-family="sans-serif" font-size="11" lengthAdjust="spacing" textLength="119" x="156" y="246.2104">getFailureCount(): int</text><ellipse cx="147" cy="255.8047" fill="#84BE84" rx="3" ry="3" style="stroke:#038048;stroke-width:1.0;"/><text fill="#000000" font-family="sans-serif" font-size="11" lengthAdjust="spacing" textLength="142" x="156" y="259.0151">setFailureCount(int): void</text></a><!--MD5=[6751a8f7715516ddce03ec294f80122c]
class com.hack23.sonar.cloudformation.reports.cfnnag.CfnNagViolation--><a href="CfnNagViolation.html" target="_top" title="CfnNagViolation.html" xlink:actuate="onRequest" xlink:href="CfnNagViolation.html" xlink:show="new" xlink:title="CfnNagViolation.html" xlink:type="simple"><rect codeLine="8" fill="#FEFECE" filter="url(#fdd2ur3kdwqr0)" height="176.0469" id="com.hack23.sonar.cloudformation.reports.cfnnag.CfnNagViolation" style="stroke:#A80036;stroke-width:1.5;" width="264" x="88" y="343"/><ellipse cx="166.25" cy="359" fill="#ADD1B2" rx="11" ry="11" style="stroke:#A80036;stroke-width:1.0;"/><path d="M169.2188,364.6406 Q168.6406,364.9375 168,365.0781 Q167.3594,365.2344 166.6563,365.2344 Q164.1563,365.2344 162.8281,363.5938 Q161.5156,361.9375 161.5156,358.8125 Q161.5156,355.6875 162.8281,354.0313 Q164.1563,352.375 166.6563,352.375 Q167.3594,352.375 168,352.5313 Q168.6563,352.6875 169.2188,352.9844 L169.2188,355.7031 Q168.5938,355.125 168,354.8594 Q167.4063,354.5781 166.7813,354.5781 Q165.4375,354.5781 164.75,355.6563 Q164.0625,356.7188 164.0625,358.8125 Q164.0625,360.9063 164.75,361.9844 Q165.4375,363.0469 166.7813,363.0469 Q167.4063,363.0469 168,362.7813 Q168.5938,362.5 169.2188,361.9219 L169.2188,364.6406 Z " fill="#000000"/><text fill="#000000" font-family="sans-serif" font-size="12" lengthAdjust="spacing" textLength="99" x="186.75" y="363.1543">CfnNagViolation</text><line style="stroke:#A80036;stroke-width:1.5;" x1="89" x2="351" y1="375" y2="375"/><line style="stroke:#A80036;stroke-width:1.5;" x1="89" x2="351" y1="383" y2="383"/><ellipse cx="99" cy="394" fill="#84BE84" rx="3" ry="3" style="stroke:#038048;stroke-width:1.0;"/><text fill="#000000" font-family="sans-serif" font-size="11" lengthAdjust="spacing" textLength="78" x="108" y="397.2104">getId(): String</text><ellipse cx="99" cy="406.8047" fill="#84BE84" rx="3" ry="3" style="stroke:#038048;stroke-width:1.0;"/><text fill="#000000" font-family="sans-serif" font-size="11" lengthAdjust="spacing" textLength="101" x="108" y="410.0151">setId(String): void</text><ellipse cx="99" cy="419.6094" fill="#84BE84" rx="3" ry="3" style="stroke:#038048;stroke-width:1.0;"/><text fill="#000000" font-family="sans-serif" font-size="11" lengthAdjust="spacing" textLength="95" x="108" y="422.8198">getType(): String</text><ellipse cx="99" cy="432.4141" fill="#84BE84" rx="3" ry="3" style="stroke:#038048;stroke-width:1.0;"/><text fill="#000000" font-family="sans-serif" font-size="11" lengthAdjust="spacing" textLength="118" x="108" y="435.6245">setType(String): void</text><ellipse cx="99" cy="445.2188" fill="#84BE84" rx="3" ry="3" style="stroke:#038048;stroke-width:1.0;"/><text fill="#000000" font-family="sans-serif" font-size="11" lengthAdjust="spacing" textLength="119" x="108" y="448.4292">getMessage(): String</text><ellipse cx="99" cy="458.0234" fill="#84BE84" rx="3" ry="3" style="stroke:#038048;stroke-width:1.0;"/><text fill="#000000" font-family="sans-serif" font-size="11" lengthAdjust="spacing" textLength="142" x="108" y="461.2339">setMessage(String): void</text><ellipse cx="99" cy="470.8281" fill="#84BE84" rx="3" ry="3" style="stroke:#038048;stroke-width:1.0;"/><text fill="#000000" font-family="sans-serif" font-size="11" lengthAdjust="spacing" textLength="215" x="108" y="474.0386">getLogicalResourceIds(): List&lt;String&gt;</text><ellipse cx="99" cy="483.6328" fill="#84BE84" rx="3" ry="3" style="stroke:#038048;stroke-width:1.0;"/><text fill="#000000" font-family="sans-serif" font-size="11" lengthAdjust="spacing" textLength="238" x="108" y="486.8433">setLogicalResourceIds(List&lt;String&gt;): void</text><ellipse cx="99" cy="496.4375" fill="#84BE84" rx="3" ry="3" style="stroke:#038048;stroke-width:1.0;"/><text fill="#000000" font-family="sans-serif" font-size="11" lengthAdjust="spacing" textLength="187" x="108" y="499.6479">getLineNumbers(): List&lt;Integer&gt;</text><ellipse cx="99" cy="509.2422" fill="#84BE84" rx="3" ry="3" style="stroke:#038048;stroke-width:1.0;"/><text fill="#000000" font-family="sans-serif" font-size="11" lengthAdjust="spacing" textLength="210" x="108" y="512.4526">setLineNumbers(List&lt;Integer&gt;): void</text></a><!--MD5=[7eacc2ef0975b83551f46ab0dc394a89]
class com.hack23.sonar.cloudformation.reports.cfnnag.CfnNagScanReport--><a href="CfnNagScanReport.html" target="_top" title="CfnNagScanReport.html" xlink:actuate="onRequest" xlink:href="CfnNagScanReport.html" xlink:show="new" xlink:title="CfnNagScanReport.html" xlink:type="simple"><rect codeLine="21" fill="#FEFECE" filter="url(#fdd2ur3kdwqr0)" height="73.6094" id="com.hack23.sonar.cloudformation.reports.cfnnag.CfnNagScanReport" style="stroke:#A80036;stroke-width:1.5;" width="168" x="136" y="41"/><ellipse cx="159.1" cy="57" fill="#ADD1B2" rx="11" ry="11" style="stroke:#A80036;stroke-width:1.0;"/><path d="M162.0688,62.6406 Q161.4906,62.9375 160.85,63.0781 Q160.2094,63.2344 159.5063,63.2344 Q157.0063,63.2344 155.6781,61.5938 Q154.3656,59.9375 154.3656,56.8125 Q154.3656,53.6875 155.6781,52.0313 Q157.0063,50.375 159.5063,50.375 Q160.2094,50.375 160.85,50.5313 Q161.5063,50.6875 162.0688,50.9844 L162.0688,53.7031 Q161.4438,53.125 160.85,52.8594 Q160.2563,52.5781 159.6313,52.5781 Q158.2875,52.5781 157.6,53.6563 Q156.9125,54.7188 156.9125,56.8125 Q156.9125,58.9063 157.6,59.9844 Q158.2875,61.0469 159.6313,61.0469 Q160.2563,61.0469 160.85,60.7813 Q161.4438,60.5 162.0688,59.9219 L162.0688,62.6406 Z " fill="#000000"/><text fill="#000000" font-family="sans-serif" font-size="12" lengthAdjust="spacing" textLength="118" x="174.9" y="61.1543">CfnNagScanReport</text><line style="stroke:#A80036;stroke-width:1.5;" x1="137" x2="303" y1="73" y2="73"/><line style="stroke:#A80036;stroke-width:1.5;" x1="137" x2="303" y1="81" y2="81"/><ellipse cx="147" cy="92" fill="#84BE84" rx="3" ry="3" style="stroke:#038048;stroke-width:1.0;"/><text fill="#000000" font-family="sans-serif" font-size="11" lengthAdjust="spacing" textLength="119" x="156" y="95.2104">getFilename(): String</text><ellipse cx="147" cy="104.8047" fill="#84BE84" rx="3" ry="3" style="stroke:#038048;stroke-width:1.0;"/><text fill="#000000" font-family="sans-serif" font-size="11" lengthAdjust="spacing" textLength="142" x="156" y="108.0151">setFilename(String): void</text></a><!--MD5=[dd8951e13207d00b273c62111f7f646c]
link com.hack23.sonar.cloudformation.reports.cfnnag.CfnNagReport to com.hack23.sonar.cloudformation.reports.cfnnag.CfnNagViolation--><path codeLine="26" d="M220,266.22 C220,286.38 220,312.47 220,337.87 " fill="none" id="com.hack23.sonar.cloudformation.reports.cfnnag.CfnNagReport-to-com.hack23.sonar.cloudformation.reports.cfnnag.CfnNagViolation" style="stroke:#A80036;stroke-width:1.0;"/><polygon fill="#A80036" points="220,342.94,224,333.94,220,337.94,216,333.94,220,342.94" style="stroke:#A80036;stroke-width:1.0;"/><text fill="#000000" font-family="sans-serif" font-size="13" lengthAdjust="spacing" textLength="60" x="221" y="309.0669">violations</text><text fill="#000000" font-family="sans-serif" font-size="13" lengthAdjust="spacing" textLength="7" x="212.6992" y="331.7984">*</text><!--MD5=[3887fbe6851e7cfb8d6ce865d7c7c8b0]
link com.hack23.sonar.cloudformation.reports.cfnnag.CfnNagScanReport to com.hack23.sonar.cloudformation.reports.cfnnag.CfnNagReport--><path codeLine="27" d="M220,115.07 C220,136.69 220,164.25 220,186.74 " fill="none" id="com.hack23.sonar.cloudformation.reports.cfnnag.CfnNagScanReport-to-com.hack23.sonar.cloudformation.reports.cfnnag.CfnNagReport" style="stroke:#A80036;stroke-width:1.0;"/><polygon fill="#A80036" points="220,191.75,224,182.75,220,186.75,216,182.75,220,191.75" style="stroke:#A80036;stroke-width:1.0;"/><text fill="#000000" font-family="sans-serif" font-size="13" lengthAdjust="spacing" textLength="64" x="221" y="158.0669">fileResults</text><text fill="#888888" font-family="sans-serif" font-size="10" lengthAdjust="spacing" textLength="186" x="121" y="550.2822">UMLDoclet 2.0.14, PlantUML 1.2021.9</text><!--MD5=[97956344a9682bf8726af8460ad3e45b]
@startuml
    namespace com.hack23.sonar.cloudformation.reports.cfnnag {

        class CfnNagReport [[CfnNagReport.html]] {
            +getFailureCount(): int
            +setFailureCount(int): void
        }

        class CfnNagViolation [[CfnNagViolation.html]] {
            +getId(): String
            +setId(String): void
            +getType(): String
            +setType(String): void
            +getMessage(): String
            +setMessage(String): void
            +getLogicalResourceIds(): List<String>
            +setLogicalResourceIds(List<String>): void
            +getLineNumbers(): List<Integer>
            +setLineNumbers(List<Integer>): void
        }

        class CfnNagScanReport [[CfnNagScanReport.html]] {
            +getFilename(): String
            +setFilename(String): void
        }

        CfnNagReport - -> "*" CfnNagViolation: violations
        CfnNagScanReport - -> CfnNagReport: fileResults
    }

    center footer UMLDoclet 2.0.14, PlantUML 1.2021.9
@enduml

PlantUML version 1.2021.9(Sun Jul 25 12:13:56 CEST 2021)
(APACHE source distribution)
Java Runtime: OpenJDK Runtime Environment
JVM: OpenJDK 64-Bit Server VM
Default Encoding: UTF-8
Language: en
Country: US
--></g></svg>