<?xml version="1.0" encoding="UTF-8" standalone="no"?><svg xmlns="http://www.w3.org/2000/svg" xmlns:xlink="http://www.w3.org/1999/xlink" contentScriptType="application/ecmascript" contentStyleType="text/css" height="99px" preserveAspectRatio="none" style="width:259px;height:99px;" version="1.1" viewBox="0 0 259 99" width="259px" zoomAndPan="magnify"><defs><filter height="300%" id="f5ijzl88p0109" width="300%" x="-1" y="-1"><feGaussianBlur result="blurOut" stdDeviation="2.0"/><feColorMatrix in="blurOut" result="blurOut2" type="matrix" values="0 0 0 0 0 0 0 0 0 0 0 0 0 0 0 0 0 0 .4 0"/><feOffset dx="4.0" dy="4.0" in="blurOut2" result="blurOut3"/><feBlend in="SourceGraphic" in2="blurOut3" mode="normal"/></filter></defs><g><!--class com.hack23.sonar.cloudformation.CloudformationConstants--><a href="CloudformationConstants.html" target="_top" xlink:actuate="onRequest" xlink:show="new" xlink:title="CloudformationConstants.html" xlink:type="simple"><rect fill="#FEFECE" filter="url(#f5ijzl88p0109)" height="58.7422" id="com.hack23.sonar.cloudformation.CloudformationConstants" style="stroke: #A80036; stroke-width: 1.5;" width="212" x="11.5" y="8"/><ellipse cx="28.3" cy="26.9688" fill="#ADD1B2" rx="11" ry="11" style="stroke: #A80036; stroke-width: 1.0;"/><path d="M31.2688,32.6094 Q30.6906,32.9063 30.05,33.0469 Q29.4094,33.2031 28.7063,33.2031 Q26.2063,33.2031 24.8781,31.5625 Q23.5656,29.9063 23.5656,26.7813 Q23.5656,23.6563 24.8781,22 Q26.2063,20.3438 28.7063,20.3438 Q29.4094,20.3438 30.05,20.5 Q30.7063,20.6563 31.2688,20.9531 L31.2688,23.6719 Q30.6438,23.0938 30.05,22.8281 Q29.4563,22.5469 28.8313,22.5469 Q27.4875,22.5469 26.8,23.625 Q26.1125,24.6875 26.1125,26.7813 Q26.1125,28.875 26.8,29.9531 Q27.4875,31.0156 28.8313,31.0156 Q29.4563,31.0156 30.05,30.75 Q30.6438,30.4688 31.2688,29.8906 L31.2688,32.6094 Z "/><text fill="#000000" font-family="sans-serif" font-size="14" lengthAdjust="spacingAndGlyphs" textLength="176" x="42.7" y="25.9951">CloudformationConstants</text><text fill="#000000" font-family="sans-serif" font-size="10" lengthAdjust="spacingAndGlyphs" textLength="164" x="48.7" y="38.5791">com.hack23.sonar.cloudformation</text><line style="stroke: #A80036; stroke-width: 1.5;" x1="12.5" x2="222.5" y1="45.9375" y2="45.9375"/><ellipse cx="22.5" cy="57.8398" fill="none" rx="3" ry="3" style="stroke: #038048; stroke-width: 1.0;"/><text fill="#000000" font-family="sans-serif" font-size="11" lengthAdjust="spacingAndGlyphs" text-decoration="underline" textLength="186" x="31.5" y="60.1479">REPORT_FILES_PROPERTY: String</text></a><text fill="#888888" font-family="sans-serif" font-size="10" lengthAdjust="spacingAndGlyphs" textLength="247" x="0" y="86.2822">UMLDoclet 2.0.3-SNAPSHOT, PlantUML 1.2019.06</text><!--
@startuml
    set namespaceSeparator none
    hide empty fields
    hide empty methods

    class "<size:14>CloudformationConstants\n<size:10>com.hack23.sonar.cloudformation" as com.hack23.sonar.cloudformation.CloudformationConstants [[CloudformationConstants.html]] {
        {static} +REPORT_FILES_PROPERTY: String
    }

    center footer UMLDoclet 2.0.3-SNAPSHOT, PlantUML 1.2019.06
@enduml

PlantUML version 1.2019.06(Fri May 24 19:10:25 CEST 2019)
(GPL source distribution)
Java Runtime: Java(TM) SE Runtime Environment
JVM: Java HotSpot(TM) 64-Bit Server VM
Java Version: 11-ea+5
Operating System: Linux
OS Version: 5.0.0-15-generic
Default Encoding: UTF-8
Language: en
Country: US
--></g></svg>