<?xml version="1.0" encoding="UTF-8" standalone="no"?><svg xmlns="http://www.w3.org/2000/svg" xmlns:xlink="http://www.w3.org/1999/xlink" contentStyleType="text/css" height="290px" preserveAspectRatio="none" style="width:631px;height:290px;background:#FFFFFF;" version="1.1" viewBox="0 0 631 290" width="631px" zoomAndPan="magnify"><defs/><g><!--MD5=[5cd76e2d5be102320ba6d55700009822]
class com.hack23.sonar.cloudformation.CloudformationSensor--><a href="CloudformationSensor.html" target="_top" title="CloudformationSensor.html" xlink:actuate="onRequest" xlink:href="CloudformationSensor.html" xlink:show="new" xlink:title="CloudformationSensor.html" xlink:type="simple"><g id="elem_com.hack23.sonar.cloudformation.CloudformationSensor"><rect codeLine="5" fill="#F1F1F1" height="119.125" id="com.hack23.sonar.cloudformation.CloudformationSensor" rx="2.5" ry="2.5" style="stroke:#181818;stroke-width:0.5;" width="617" x="7" y="146"/><ellipse cx="229.25" cy="164.9688" fill="#ADD1B2" rx="11" ry="11" style="stroke:#181818;stroke-width:1.0;"/><path d="M232.2188,170.6094 Q231.6406,170.9063 231,171.0469 Q230.3594,171.2031 229.6563,171.2031 Q227.1563,171.2031 225.8281,169.5625 Q224.5156,167.9063 224.5156,164.7813 Q224.5156,161.6563 225.8281,160 Q227.1563,158.3438 229.6563,158.3438 Q230.3594,158.3438 231,158.5 Q231.6563,158.6563 232.2188,158.9531 L232.2188,161.6719 Q231.5938,161.0938 231,160.8281 Q230.4063,160.5469 229.7813,160.5469 Q228.4375,160.5469 227.75,161.625 Q227.0625,162.6875 227.0625,164.7813 Q227.0625,166.875 227.75,167.9531 Q228.4375,169.0156 229.7813,169.0156 Q230.4063,169.0156 231,168.75 Q231.5938,168.4688 232.2188,167.8906 L232.2188,170.6094 Z " fill="#000000"/><text fill="#000000" font-family="sans-serif" font-size="14" lengthAdjust="spacing" textLength="154" x="254.75" y="163.9951">CloudformationSensor</text><text fill="#000000" font-family="sans-serif" font-size="10" lengthAdjust="spacing" textLength="164" x="249.75" y="176.5791">com.hack23.sonar.cloudformation</text><line style="stroke:#181818;stroke-width:0.5;" x1="8" x2="623" y1="183.9375" y2="183.9375"/><ellipse cx="18" cy="194.9375" fill="none" rx="3" ry="3" style="stroke:#038048;stroke-width:1.0;"/><text fill="#000000" font-family="sans-serif" font-size="14" lengthAdjust="spacing" text-decoration="underline" textLength="154" x="27" y="200.9326">SENSOR_NAME: String</text><line style="stroke:#181818;stroke-width:0.5;" x1="8" x2="623" y1="208.2344" y2="208.2344"/><ellipse cx="18" cy="219.2344" fill="#84BE84" rx="3" ry="3" style="stroke:#038048;stroke-width:1.0;"/><text fill="#000000" font-family="sans-serif" font-size="14" lengthAdjust="spacing" textLength="591" x="27" y="225.2295">CloudformationSensor(CloudformationSensorConfiguration, FileSystem, PathResolver)</text><ellipse cx="18" cy="235.5313" fill="#84BE84" rx="3" ry="3" style="stroke:#038048;stroke-width:1.0;"/><text fill="#000000" font-family="sans-serif" font-size="14" lengthAdjust="spacing" textLength="228" x="27" y="241.5264">describe(SensorDescriptor): void</text><ellipse cx="18" cy="251.8281" fill="#84BE84" rx="3" ry="3" style="stroke:#038048;stroke-width:1.0;"/><text fill="#000000" font-family="sans-serif" font-size="14" lengthAdjust="spacing" textLength="206" x="27" y="257.8232">execute(SensorContext): void</text></g></a><!--MD5=[f8b565af0d68398934f95a4a7e456578]
class org.sonar.api.batch.sensor.Sensor--><g id="elem_org.sonar.api.batch.sensor.Sensor"><rect codeLine="12" fill="#F1F1F1" height="78.5313" id="org.sonar.api.batch.sensor.Sensor" rx="2.5" ry="2.5" style="stroke:#181818;stroke-width:0.5;" width="252" x="189.5" y="7"/><ellipse cx="246.25" cy="25.9688" fill="#B4A7E5" rx="11" ry="11" style="stroke:#181818;stroke-width:1.0;"/><path d="M242.1719,21.7344 L242.1719,19.5781 L249.5625,19.5781 L249.5625,21.7344 L247.0938,21.7344 L247.0938,29.8125 L249.5625,29.8125 L249.5625,31.9688 L242.1719,31.9688 L242.1719,29.8125 L244.6406,29.8125 L244.6406,21.7344 L242.1719,21.7344 Z " fill="#000000"/><text fill="#000000" font-family="sans-serif" font-size="14" font-style="italic" lengthAdjust="spacing" textLength="48" x="307.75" y="24.9951">Sensor</text><text fill="#000000" font-family="sans-serif" font-size="10" font-style="italic" lengthAdjust="spacing" textLength="130" x="266.75" y="37.5791">org.sonar.api.batch.sensor</text><line style="stroke:#181818;stroke-width:0.5;" x1="190.5" x2="440.5" y1="44.9375" y2="44.9375"/><ellipse cx="200.5" cy="55.9375" fill="#84BE84" rx="3" ry="3" style="stroke:#038048;stroke-width:1.0;"/><text fill="#000000" font-family="sans-serif" font-size="14" font-style="italic" lengthAdjust="spacing" textLength="226" x="209.5" y="61.9326">describe(SensorDescriptor): void</text><ellipse cx="200.5" cy="72.2344" fill="#84BE84" rx="3" ry="3" style="stroke:#038048;stroke-width:1.0;"/><text fill="#000000" font-family="sans-serif" font-size="14" font-style="italic" lengthAdjust="spacing" textLength="208" x="209.5" y="78.2295">execute(SensorContext): void</text></g><!--MD5=[3685ffe233817ba259f4776860359136]
reverse link org.sonar.api.batch.sensor.Sensor to com.hack23.sonar.cloudformation.CloudformationSensor--><g id="link_org.sonar.api.batch.sensor.Sensor_com.hack23.sonar.cloudformation.CloudformationSensor"><path codeLine="17" d="M315.5,106.43 C315.5,119.35 315.5,133.04 315.5,145.95 " fill="none" id="org.sonar.api.batch.sensor.Sensor-backto-com.hack23.sonar.cloudformation.CloudformationSensor" style="stroke:#181818;stroke-width:1.0;stroke-dasharray:7.0,7.0;"/><polygon fill="none" points="308.5,106.31,315.5,86.31,322.5,106.31,308.5,106.31" style="stroke:#181818;stroke-width:1.0;"/></g><rect height="11.6406" style="stroke:#00000000;stroke-width:1.0;fill:none;" width="186" x="215.5" y="271.125"/><text fill="#888888" font-family="sans-serif" font-size="10" lengthAdjust="spacing" textLength="186" x="215.5" y="280.4072">UMLDoclet 2.0.18, PlantUML 1.2022.6</text><!--MD5=[1344e805a57d026277459f146b63e33c]
@startuml
    set namespaceSeparator none
    hide empty fields
    hide empty methods

    class "<size:14>CloudformationSensor\n<size:10>com.hack23.sonar.cloudformation" as com.hack23.sonar.cloudformation.CloudformationSensor [[CloudformationSensor.html]] {
        {static} +SENSOR_NAME: String
        +CloudformationSensor(CloudformationSensorConfiguration, FileSystem, PathResolver)
        +describe(SensorDescriptor): void
        +execute(SensorContext): void
    }

    interface "<size:14>Sensor\n<size:10>org.sonar.api.batch.sensor" as org.sonar.api.batch.sensor.Sensor {
        {abstract} +describe(SensorDescriptor): void
        {abstract} +execute(SensorContext): void
    }

    org.sonar.api.batch.sensor.Sensor <|.. com.hack23.sonar.cloudformation.CloudformationSensor

    center footer UMLDoclet 2.0.18, PlantUML 1.2022.6
@enduml

PlantUML version 1.2022.6(Tue Jun 21 19:34:49 CEST 2022)
(APACHE source distribution)
Java Runtime: OpenJDK Runtime Environment
JVM: OpenJDK 64-Bit Server VM
Default Encoding: ANSI_X3.4-1968
Language: en
Country: US
--></g></svg>