<?xml version="1.0" encoding="UTF-8" standalone="no"?><svg xmlns="http://www.w3.org/2000/svg" xmlns:xlink="http://www.w3.org/1999/xlink" contentScriptType="application/ecmascript" contentStyleType="text/css" height="231px" preserveAspectRatio="none" style="width:252px;height:231px;" version="1.1" viewBox="0 0 252 231" width="252px" zoomAndPan="magnify"><defs><filter height="300%" id="fqo27qqmfmytq" width="300%" x="-1" y="-1"><feGaussianBlur result="blurOut" stdDeviation="2.0"/><feColorMatrix in="blurOut" result="blurOut2" type="matrix" values="0 0 0 0 0 0 0 0 0 0 0 0 0 0 0 0 0 0 .4 0"/><feOffset dx="4.0" dy="4.0" in="blurOut2" result="blurOut3"/><feBlend in="SourceGraphic" in2="blurOut3" mode="normal"/></filter></defs><g><!--MD5=[fe768997cbfd64bbe9e45e6331c668d3]
class com.hack23.sonar.cloudformation.CloudformationQualityProfile--><a href="CloudformationQualityProfile.html" target="_top" title="CloudformationQualityProfile.html" xlink:actuate="onRequest" xlink:href="CloudformationQualityProfile.html" xlink:show="new" xlink:title="CloudformationQualityProfile.html" xlink:type="simple"><rect fill="#FEFECE" filter="url(#fqo27qqmfmytq)" height="71.5469" id="com.hack23.sonar.cloudformation.CloudformationQualityProfile" style="stroke: #A80036; stroke-width: 1.5;" width="225" x="11" y="127"/><ellipse cx="26" cy="145.9688" fill="#ADD1B2" rx="11" ry="11" style="stroke: #A80036; stroke-width: 1.0;"/><path d="M28.9688,151.6094 Q28.3906,151.9063 27.75,152.0469 Q27.1094,152.2031 26.4063,152.2031 Q23.9063,152.2031 22.5781,150.5625 Q21.2656,148.9063 21.2656,145.7813 Q21.2656,142.6563 22.5781,141 Q23.9063,139.3438 26.4063,139.3438 Q27.1094,139.3438 27.75,139.5 Q28.4063,139.6563 28.9688,139.9531 L28.9688,142.6719 Q28.3438,142.0938 27.75,141.8281 Q27.1563,141.5469 26.5313,141.5469 Q25.1875,141.5469 24.5,142.625 Q23.8125,143.6875 23.8125,145.7813 Q23.8125,147.875 24.5,148.9531 Q25.1875,150.0156 26.5313,150.0156 Q27.1563,150.0156 27.75,149.75 Q28.3438,149.4688 28.9688,148.8906 L28.9688,151.6094 Z "/><text fill="#000000" font-family="sans-serif" font-size="14" lengthAdjust="spacingAndGlyphs" textLength="193" x="40" y="144.9951">CloudformationQualityProfile</text><text fill="#000000" font-family="sans-serif" font-size="10" lengthAdjust="spacingAndGlyphs" textLength="164" x="54.5" y="157.5791">com.hack23.sonar.cloudformation</text><line style="stroke: #A80036; stroke-width: 1.5;" x1="12" x2="235" y1="164.9375" y2="164.9375"/><ellipse cx="22" cy="175.9375" fill="#84BE84" rx="3" ry="3" style="stroke: #038048; stroke-width: 1.0;"/><text fill="#000000" font-family="sans-serif" font-size="11" lengthAdjust="spacingAndGlyphs" text-decoration="underline" textLength="140" x="31" y="179.1479">hasRule(String): boolean</text><ellipse cx="22" cy="188.7422" fill="#84BE84" rx="3" ry="3" style="stroke: #038048; stroke-width: 1.0;"/><text fill="#000000" font-family="sans-serif" font-size="11" lengthAdjust="spacingAndGlyphs" textLength="117" x="31" y="191.9526">define(Context): void</text></a><!--MD5=[bccf4df98d34ca024eaa4f9d7ebedb88]
class org.sonar.api.server.profile.BuiltInQualityProfilesDefinition--><rect fill="#FEFECE" filter="url(#fqo27qqmfmytq)" height="58.7422" id="org.sonar.api.server.profile.BuiltInQualityProfilesDefinition" style="stroke: #A80036; stroke-width: 1.5;" width="235" x="6" y="8"/><ellipse cx="21" cy="26.9688" fill="#B4A7E5" rx="11" ry="11" style="stroke: #A80036; stroke-width: 1.0;"/><path d="M16.9219,22.7344 L16.9219,20.5781 L24.3125,20.5781 L24.3125,22.7344 L21.8438,22.7344 L21.8438,30.8125 L24.3125,30.8125 L24.3125,32.9688 L16.9219,32.9688 L16.9219,30.8125 L19.3906,30.8125 L19.3906,22.7344 L16.9219,22.7344 Z "/><text fill="#000000" font-family="sans-serif" font-size="14" font-style="italic" lengthAdjust="spacingAndGlyphs" textLength="203" x="35" y="25.9951">BuiltInQualityProfilesDefinition</text><text fill="#000000" font-family="sans-serif" font-size="10" font-style="italic" lengthAdjust="spacingAndGlyphs" textLength="133" x="70" y="38.5791">org.sonar.api.server.profile</text><line style="stroke: #A80036; stroke-width: 1.5;" x1="7" x2="240" y1="45.9375" y2="45.9375"/><ellipse cx="17" cy="56.9375" fill="#84BE84" rx="3" ry="3" style="stroke: #038048; stroke-width: 1.0;"/><text fill="#000000" font-family="sans-serif" font-size="11" font-style="italic" lengthAdjust="spacingAndGlyphs" textLength="119" x="26" y="60.1479">define(Context): void</text><!--MD5=[63fe7b739a87e21952d62265d328e55c]
reverse link org.sonar.api.server.profile.BuiltInQualityProfilesDefinition to com.hack23.sonar.cloudformation.CloudformationQualityProfile--><path d="M123.5,87.46 C123.5,100.64 123.5,114.64 123.5,126.9 " fill="none" id="org.sonar.api.server.profile.BuiltInQualityProfilesDefinition&lt;-com.hack23.sonar.cloudformation.CloudformationQualityProfile" style="stroke: #A80036; stroke-width: 1.0; stroke-dasharray: 7.0,7.0;"/><polygon fill="none" points="116.5,87.14,123.5,67.14,130.5,87.14,116.5,87.14" style="stroke: #A80036; stroke-width: 1.0;"/><text fill="#888888" font-family="sans-serif" font-size="10" lengthAdjust="spacingAndGlyphs" textLength="186" x="36.5" y="218.2822">UMLDoclet 2.0.8, PlantUML 1.2020.01</text><!--MD5=[f6c53a3cfb0f9e5a46b043b3f02a86d7]
@startuml
    set namespaceSeparator none
    hide empty fields
    hide empty methods

    class "<size:14>CloudformationQualityProfile\n<size:10>com.hack23.sonar.cloudformation" as com.hack23.sonar.cloudformation.CloudformationQualityProfile [[CloudformationQualityProfile.html]] {
        {static} +hasRule(String): boolean
        +define(Context): void
    }

    interface "<size:14>BuiltInQualityProfilesDefinition\n<size:10>org.sonar.api.server.profile" as org.sonar.api.server.profile.BuiltInQualityProfilesDefinition {
        {abstract} +define(Context): void
    }

    org.sonar.api.server.profile.BuiltInQualityProfilesDefinition <|.. com.hack23.sonar.cloudformation.CloudformationQualityProfile

    center footer UMLDoclet 2.0.8, PlantUML 1.2020.01
@enduml

PlantUML version 1.2020.01(Sun Feb 16 18:40:32 CET 2020)
(APACHE source distribution)
Java Runtime: OpenJDK Runtime Environment
JVM: OpenJDK 64-Bit Server VM
Java Version: 11.0.7-ea+9-post-Ubuntu-1ubuntu1
Operating System: Linux
Default Encoding: UTF-8
Language: en
Country: US
--></g></svg>