<?xml version="1.0" encoding="UTF-8" standalone="no"?><svg xmlns="http://www.w3.org/2000/svg" xmlns:xlink="http://www.w3.org/1999/xlink" contentScriptType="application/ecmascript" contentStyleType="text/css" height="261px" preserveAspectRatio="none" style="width:262px;height:261px;background:#FFFFFF;" version="1.1" viewBox="0 0 262 261" width="262px" zoomAndPan="magnify"><defs><filter height="300%" id="f1s3igs0w770lx" width="300%" x="-1" y="-1"><feGaussianBlur result="blurOut" stdDeviation="2.0"/><feColorMatrix in="blurOut" result="blurOut2" type="matrix" values="0 0 0 0 0 0 0 0 0 0 0 0 0 0 0 0 0 0 .4 0"/><feOffset dx="4.0" dy="4.0" in="blurOut2" result="blurOut3"/><feBlend in="SourceGraphic" in2="blurOut3" mode="normal"/></filter></defs><g><!--MD5=[9ad602e740eec67d73c5d598917426ba]
class com.hack23.sonar.cloudformation.CloudformationRulesDefinition--><a href="CloudformationRulesDefinition.html" target="_top" title="CloudformationRulesDefinition.html" xlink:actuate="onRequest" xlink:href="CloudformationRulesDefinition.html" xlink:show="new" xlink:title="CloudformationRulesDefinition.html" xlink:type="simple"><rect codeLine="5" fill="#FEFECE" filter="url(#f1s3igs0w770lx)" height="105.1563" id="com.hack23.sonar.cloudformation.CloudformationRulesDefinition" style="stroke:#A80036;stroke-width:1.5;" width="241" x="7" y="126"/><ellipse cx="22" cy="144.9688" fill="#ADD1B2" rx="11" ry="11" style="stroke:#A80036;stroke-width:1.0;"/><path d="M24.9688,150.6094 Q24.3906,150.9063 23.75,151.0469 Q23.1094,151.2031 22.4063,151.2031 Q19.9063,151.2031 18.5781,149.5625 Q17.2656,147.9063 17.2656,144.7813 Q17.2656,141.6563 18.5781,140 Q19.9063,138.3438 22.4063,138.3438 Q23.1094,138.3438 23.75,138.5 Q24.4063,138.6563 24.9688,138.9531 L24.9688,141.6719 Q24.3438,141.0938 23.75,140.8281 Q23.1563,140.5469 22.5313,140.5469 Q21.1875,140.5469 20.5,141.625 Q19.8125,142.6875 19.8125,144.7813 Q19.8125,146.875 20.5,147.9531 Q21.1875,149.0156 22.5313,149.0156 Q23.1563,149.0156 23.75,148.75 Q24.3438,148.4688 24.9688,147.8906 L24.9688,150.6094 Z " fill="#000000"/><text fill="#000000" font-family="sans-serif" font-size="14" lengthAdjust="spacing" textLength="209" x="36" y="143.9951">CloudformationRulesDefinition</text><text fill="#000000" font-family="sans-serif" font-size="10" lengthAdjust="spacing" textLength="164" x="58.5" y="156.5791">com.hack23.sonar.cloudformation</text><line style="stroke:#A80036;stroke-width:1.5;" x1="8" x2="247" y1="163.9375" y2="163.9375"/><ellipse cx="18" cy="174.9375" rx="3" ry="3" style="stroke:#038048;stroke-width:1.0;fill:none;"/><text fill="#000000" font-family="sans-serif" font-size="11" lengthAdjust="spacing" text-decoration="underline" textLength="63" x="27" y="178.1479">KEY: String</text><ellipse cx="18" cy="187.7422" rx="3" ry="3" style="stroke:#038048;stroke-width:1.0;fill:none;"/><text fill="#000000" font-family="sans-serif" font-size="11" lengthAdjust="spacing" text-decoration="underline" textLength="73" x="27" y="190.9526">NAME: String</text><line style="stroke:#A80036;stroke-width:1.5;" x1="8" x2="247" y1="197.5469" y2="197.5469"/><ellipse cx="18" cy="208.5469" fill="#84BE84" rx="3" ry="3" style="stroke:#038048;stroke-width:1.0;"/><text fill="#000000" font-family="sans-serif" font-size="11" lengthAdjust="spacing" textLength="120" x="27" y="211.7573">getContext(): Context</text><ellipse cx="18" cy="221.3516" fill="#84BE84" rx="3" ry="3" style="stroke:#038048;stroke-width:1.0;"/><text fill="#000000" font-family="sans-serif" font-size="11" lengthAdjust="spacing" textLength="117" x="27" y="224.562">define(Context): void</text></a><!--MD5=[0c41336916cc93e234215d73ea118e70]
class org.sonar.api.server.rule.RulesDefinition--><rect codeLine="12" fill="#FEFECE" filter="url(#f1s3igs0w770lx)" height="58.7422" id="org.sonar.api.server.rule.RulesDefinition" style="stroke:#A80036;stroke-width:1.5;" width="152" x="51.5" y="7"/><ellipse cx="66.5" cy="25.9688" fill="#B4A7E5" rx="11" ry="11" style="stroke:#A80036;stroke-width:1.0;"/><path d="M62.4219,21.7344 L62.4219,19.5781 L69.8125,19.5781 L69.8125,21.7344 L67.3438,21.7344 L67.3438,29.8125 L69.8125,29.8125 L69.8125,31.9688 L62.4219,31.9688 L62.4219,29.8125 L64.8906,29.8125 L64.8906,21.7344 L62.4219,21.7344 Z " fill="#000000"/><text fill="#000000" font-family="sans-serif" font-size="14" font-style="italic" lengthAdjust="spacing" textLength="103" x="89" y="24.9951">RulesDefinition</text><text fill="#000000" font-family="sans-serif" font-size="10" font-style="italic" lengthAdjust="spacing" textLength="120" x="80.5" y="37.5791">org.sonar.api.server.rule</text><line style="stroke:#A80036;stroke-width:1.5;" x1="52.5" x2="202.5" y1="44.9375" y2="44.9375"/><ellipse cx="62.5" cy="55.9375" fill="#84BE84" rx="3" ry="3" style="stroke:#038048;stroke-width:1.0;"/><text fill="#000000" font-family="sans-serif" font-size="11" font-style="italic" lengthAdjust="spacing" textLength="119" x="71.5" y="59.1479">define(Context): void</text><!--MD5=[2bdc00f05ffbda222481780920a1d1de]
reverse link org.sonar.api.server.rule.RulesDefinition to com.hack23.sonar.cloudformation.CloudformationRulesDefinition--><path codeLine="16" d="M127.5,86.38 C127.5,99.17 127.5,113.01 127.5,125.94 " fill="none" id="org.sonar.api.server.rule.RulesDefinition-backto-com.hack23.sonar.cloudformation.CloudformationRulesDefinition" style="stroke:#A80036;stroke-width:1.0;stroke-dasharray:7.0,7.0;"/><polygon fill="none" points="120.5,86.17,127.5,66.17,134.5,86.17,120.5,86.17" style="stroke:#A80036;stroke-width:1.0;"/><text fill="#888888" font-family="sans-serif" font-size="10" lengthAdjust="spacing" textLength="186" x="31.5" y="253.4385">UMLDoclet 2.0.14, PlantUML 1.2021.9</text><!--MD5=[395687eb465f073cde4f251cf194aea4]
@startuml
    set namespaceSeparator none
    hide empty fields
    hide empty methods

    class "<size:14>CloudformationRulesDefinition\n<size:10>com.hack23.sonar.cloudformation" as com.hack23.sonar.cloudformation.CloudformationRulesDefinition [[CloudformationRulesDefinition.html]] {
        {static} +KEY: String
        {static} +NAME: String
        +getContext(): Context
        +define(Context): void
    }

    interface "<size:14>RulesDefinition\n<size:10>org.sonar.api.server.rule" as org.sonar.api.server.rule.RulesDefinition {
        {abstract} +define(Context): void
    }

    org.sonar.api.server.rule.RulesDefinition <|.. com.hack23.sonar.cloudformation.CloudformationRulesDefinition

    center footer UMLDoclet 2.0.14, PlantUML 1.2021.9
@enduml

PlantUML version 1.2021.9(Sun Jul 25 12:13:56 CEST 2021)
(APACHE source distribution)
Java Runtime: OpenJDK Runtime Environment
JVM: OpenJDK 64-Bit Server VM
Default Encoding: UTF-8
Language: en
Country: US
--></g></svg>