<?xml version="1.0" encoding="UTF-8" standalone="no"?><svg xmlns="http://www.w3.org/2000/svg" xmlns:xlink="http://www.w3.org/1999/xlink" contentScriptType="application/ecmascript" contentStyleType="text/css" height="243px" preserveAspectRatio="none" style="width:269px;height:243px;" version="1.1" viewBox="0 0 269 243" width="269px" zoomAndPan="magnify"><defs><filter height="300%" id="f1b1b60i45pril" width="300%" x="-1" y="-1"><feGaussianBlur result="blurOut" stdDeviation="2.0"/><feColorMatrix in="blurOut" result="blurOut2" type="matrix" values="0 0 0 0 0 0 0 0 0 0 0 0 0 0 0 0 0 0 .4 0"/><feOffset dx="4.0" dy="4.0" in="blurOut2" result="blurOut3"/><feBlend in="SourceGraphic" in2="blurOut3" mode="normal"/></filter></defs><g><!--MD5=[7855ddd67fbdcedf10db43e001c684f0]
class com.hack23.sonar.cloudformation.CloudformationLanguage--><a href="CloudformationLanguage.html" target="_top" title="CloudformationLanguage.html" xlink:actuate="onRequest" xlink:href="CloudformationLanguage.html" xlink:show="new" xlink:title="CloudformationLanguage.html" xlink:type="simple"><rect fill="#FEFECE" filter="url(#f1b1b60i45pril)" height="105.1563" id="com.hack23.sonar.cloudformation.CloudformationLanguage" style="stroke: #A80036; stroke-width: 1.5;" width="252" x="6" y="106"/><ellipse cx="42.15" cy="124.9688" fill="#ADD1B2" rx="11" ry="11" style="stroke: #A80036; stroke-width: 1.0;"/><path d="M45.1188,130.6094 Q44.5406,130.9063 43.9,131.0469 Q43.2594,131.2031 42.5563,131.2031 Q40.0563,131.2031 38.7281,129.5625 Q37.4156,127.9063 37.4156,124.7813 Q37.4156,121.6563 38.7281,120 Q40.0563,118.3438 42.5563,118.3438 Q43.2594,118.3438 43.9,118.5 Q44.5563,118.6563 45.1188,118.9531 L45.1188,121.6719 Q44.4938,121.0938 43.9,120.8281 Q43.3063,120.5469 42.6813,120.5469 Q41.3375,120.5469 40.65,121.625 Q39.9625,122.6875 39.9625,124.7813 Q39.9625,126.875 40.65,127.9531 Q41.3375,129.0156 42.6813,129.0156 Q43.3063,129.0156 43.9,128.75 Q44.4938,128.4688 45.1188,127.8906 L45.1188,130.6094 Z "/><text fill="#000000" font-family="sans-serif" font-size="14" lengthAdjust="spacingAndGlyphs" textLength="173" x="60.85" y="123.9951">CloudformationLanguage</text><text fill="#000000" font-family="sans-serif" font-size="10" lengthAdjust="spacingAndGlyphs" textLength="164" x="65.35" y="136.5791">com.hack23.sonar.cloudformation</text><line style="stroke: #A80036; stroke-width: 1.5;" x1="7" x2="257" y1="143.9375" y2="143.9375"/><ellipse cx="17" cy="154.9375" fill="none" rx="3" ry="3" style="stroke: #038048; stroke-width: 1.0;"/><text fill="#000000" font-family="sans-serif" font-size="11" lengthAdjust="spacingAndGlyphs" text-decoration="underline" textLength="73" x="26" y="158.1479">NAME: String</text><ellipse cx="17" cy="167.7422" fill="none" rx="3" ry="3" style="stroke: #038048; stroke-width: 1.0;"/><text fill="#000000" font-family="sans-serif" font-size="11" lengthAdjust="spacingAndGlyphs" text-decoration="underline" textLength="63" x="26" y="170.9526">KEY: String</text><line style="stroke: #A80036; stroke-width: 1.5;" x1="7" x2="257" y1="177.5469" y2="177.5469"/><ellipse cx="17" cy="188.5469" fill="#84BE84" rx="3" ry="3" style="stroke: #038048; stroke-width: 1.0;"/><text fill="#000000" font-family="sans-serif" font-size="11" lengthAdjust="spacingAndGlyphs" textLength="226" x="26" y="191.7573">CloudformationLanguage(Configuration)</text><ellipse cx="17" cy="201.3516" fill="#84BE84" rx="3" ry="3" style="stroke: #038048; stroke-width: 1.0;"/><text fill="#000000" font-family="sans-serif" font-size="11" lengthAdjust="spacingAndGlyphs" textLength="141" x="26" y="204.562">getFileSuffixes(): String[]</text></a><!--MD5=[d268db411bb458887690271ba8537971]
class org.sonar.api.resources.AbstractLanguage--><rect fill="#FEFECE" filter="url(#f1b1b60i45pril)" height="37.9375" id="org.sonar.api.resources.AbstractLanguage" style="stroke: #A80036; stroke-width: 1.5;" width="158" x="53" y="8"/><ellipse cx="68" cy="26.9688" fill="#A9DCDF" rx="11" ry="11" style="stroke: #A80036; stroke-width: 1.0;"/><path d="M68.1094,22.3125 L66.9531,27.3906 L69.2813,27.3906 L68.1094,22.3125 Z M66.625,20.0781 L69.6094,20.0781 L72.9688,32.4688 L70.5156,32.4688 L69.75,29.4063 L66.4688,29.4063 L65.7188,32.4688 L63.2813,32.4688 L66.625,20.0781 Z "/><text fill="#000000" font-family="sans-serif" font-size="14" font-style="italic" lengthAdjust="spacingAndGlyphs" textLength="126" x="82" y="25.9951">AbstractLanguage</text><text fill="#000000" font-family="sans-serif" font-size="10" font-style="italic" lengthAdjust="spacingAndGlyphs" textLength="115" x="87.5" y="38.5791">org.sonar.api.resources</text><!--MD5=[0b800428fc8ca5679a760478e4357ee9]
reverse link org.sonar.api.resources.AbstractLanguage to com.hack23.sonar.cloudformation.CloudformationLanguage--><path d="M132,66.3406 C132,78.7439 132,92.651 132,105.8278 " fill="none" id="org.sonar.api.resources.AbstractLanguage&lt;-com.hack23.sonar.cloudformation.CloudformationLanguage" style="stroke: #A80036; stroke-width: 1.0;"/><polygon fill="none" points="125.0001,66.1213,132,46.1212,139.0001,66.1212,125.0001,66.1213" style="stroke: #A80036; stroke-width: 1.0;"/><text fill="#888888" font-family="sans-serif" font-size="10" lengthAdjust="spacingAndGlyphs" textLength="186" x="45" y="230.2822">UMLDoclet 2.0.7, PlantUML 1.2019.12</text><!--MD5=[269ed176a26121b1dfe657d7626fd2b1]
@startuml
    set namespaceSeparator none
    hide empty fields
    hide empty methods

    class "<size:14>CloudformationLanguage\n<size:10>com.hack23.sonar.cloudformation" as com.hack23.sonar.cloudformation.CloudformationLanguage [[CloudformationLanguage.html]] {
        {static} +NAME: String
        {static} +KEY: String
        +CloudformationLanguage(Configuration)
        +getFileSuffixes(): String[]
    }

    abstract class "<size:14>AbstractLanguage\n<size:10>org.sonar.api.resources" as org.sonar.api.resources.AbstractLanguage

    org.sonar.api.resources.AbstractLanguage <|- - com.hack23.sonar.cloudformation.CloudformationLanguage

    center footer UMLDoclet 2.0.7, PlantUML 1.2019.12
@enduml

PlantUML version 1.2019.12(Sun Nov 03 11:24:54 CET 2019)
(APACHE source distribution)
Java Runtime: OpenJDK Runtime Environment
JVM: OpenJDK 64-Bit Server VM
Java Version: 11.0.5+10-post-Ubuntu-0ubuntu1.1
Operating System: Linux
Default Encoding: UTF-8
Language: en
Country: US
--></g></svg>