<?xml version="1.0" encoding="UTF-8" standalone="no"?><svg xmlns="http://www.w3.org/2000/svg" xmlns:xlink="http://www.w3.org/1999/xlink" contentScriptType="application/ecmascript" contentStyleType="text/css" height="124px" preserveAspectRatio="none" style="width:331px;height:124px;" version="1.1" viewBox="0 0 331 124" width="331px" zoomAndPan="magnify"><defs><filter height="300%" id="f9q212inc48vv" width="300%" x="-1" y="-1"><feGaussianBlur result="blurOut" stdDeviation="2.0"/><feColorMatrix in="blurOut" result="blurOut2" type="matrix" values="0 0 0 0 0 0 0 0 0 0 0 0 0 0 0 0 0 0 .4 0"/><feOffset dx="4.0" dy="4.0" in="blurOut2" result="blurOut3"/><feBlend in="SourceGraphic" in2="blurOut3" mode="normal"/></filter></defs><g><!--class com.hack23.sonar.cloudformation.CloudformationSensorConfiguration--><a target="_top" xlink:actuate="onRequest" xlink:href="CloudformationSensorConfiguration.html" xlink:show="new" xlink:title="CloudformationSensorConfiguration.html" xlink:type="simple"><rect fill="#FEFECE" filter="url(#f9q212inc48vv)" height="84.3516" id="com.hack23.sonar.cloudformation.CloudformationSensorConfiguration" style="stroke: #A80036; stroke-width: 1.5;" width="314" x="6" y="8"/><ellipse cx="37.2" cy="26.9688" fill="#ADD1B2" rx="11" ry="11" style="stroke: #A80036; stroke-width: 1.0;"/><path d="M40.1688,32.6094 Q39.5906,32.9063 38.95,33.0469 Q38.3094,33.2031 37.6063,33.2031 Q35.1063,33.2031 33.7781,31.5625 Q32.4656,29.9063 32.4656,26.7813 Q32.4656,23.6563 33.7781,22 Q35.1063,20.3438 37.6063,20.3438 Q38.3094,20.3438 38.95,20.5 Q39.6063,20.6563 40.1688,20.9531 L40.1688,23.6719 Q39.5438,23.0938 38.95,22.8281 Q38.3563,22.5469 37.7313,22.5469 Q36.3875,22.5469 35.7,23.625 Q35.0125,24.6875 35.0125,26.7813 Q35.0125,28.875 35.7,29.9531 Q36.3875,31.0156 37.7313,31.0156 Q38.3563,31.0156 38.95,30.75 Q39.5438,30.4688 40.1688,29.8906 L40.1688,32.6094 Z "/><text fill="#000000" font-family="sans-serif" font-size="14" lengthAdjust="spacingAndGlyphs" textLength="246" x="54.8" y="25.9951">CloudformationSensorConfiguration</text><text fill="#000000" font-family="sans-serif" font-size="10" lengthAdjust="spacingAndGlyphs" textLength="164" x="95.8" y="38.5791">com.hack23.sonar.cloudformation</text><line style="stroke: #A80036; stroke-width: 1.5;" x1="7" x2="319" y1="45.9375" y2="45.9375"/><ellipse cx="17" cy="57.8398" fill="#84BE84" rx="3" ry="3" style="stroke: #038048; stroke-width: 1.0;"/><text fill="#000000" font-family="sans-serif" font-size="11" lengthAdjust="spacingAndGlyphs" textLength="288" x="26" y="60.1479">CloudformationSensorConfiguration(Configuration)</text><ellipse cx="17" cy="70.6445" fill="#84BE84" rx="3" ry="3" style="stroke: #038048; stroke-width: 1.0;"/><text fill="#000000" font-family="sans-serif" font-size="11" lengthAdjust="spacingAndGlyphs" textLength="186" x="26" y="72.9526">getReportDir(): Optional&lt;String&gt;</text><ellipse cx="17" cy="83.4492" fill="#84BE84" rx="3" ry="3" style="stroke: #038048; stroke-width: 1.0;"/><text fill="#000000" font-family="sans-serif" font-size="11" lengthAdjust="spacingAndGlyphs" textLength="196" x="26" y="85.7573">getReportFiles(): Optional&lt;String&gt;</text></a><text fill="#888888" font-family="sans-serif" font-size="10" lengthAdjust="spacingAndGlyphs" textLength="186" x="76" y="111.2822">UMLDoclet 2.0.2, PlantUML 1.2019.01</text><!--
@startuml
    set namespaceSeparator none
    hide empty fields
    hide empty methods

    class "<size:14>CloudformationSensorConfiguration\n<size:10>com.hack23.sonar.cloudformation" as com.hack23.sonar.cloudformation.CloudformationSensorConfiguration [[CloudformationSensorConfiguration.html]] {
        +CloudformationSensorConfiguration(Configuration)
        +getReportDir(): Optional<String>
        +getReportFiles(): Optional<String>
    }

    center footer UMLDoclet 2.0.2, PlantUML 1.2019.01
@enduml

PlantUML version 1.2019.01(Sat Feb 09 16:32:04 CET 2019)
(APACHE source distribution)
Java Runtime: OpenJDK Runtime Environment
JVM: OpenJDK 64-Bit Server VM
Java Version: 11.0.3+7-Ubuntu-1ubuntu219.04.1
Operating System: Linux
OS Version: 5.0.0-15-generic
Default Encoding: UTF-8
Language: en
Country: US
--></g></svg>