<?xml version="1.0" encoding="UTF-8" standalone="no"?><svg xmlns="http://www.w3.org/2000/svg" xmlns:xlink="http://www.w3.org/1999/xlink" contentScriptType="application/ecmascript" contentStyleType="text/css" height="112px" preserveAspectRatio="none" style="width:229px;height:112px;" version="1.1" viewBox="0 0 229 112" width="229px" zoomAndPan="magnify"><defs><filter height="300%" id="frdngc3rl1jhx" width="300%" x="-1" y="-1"><feGaussianBlur result="blurOut" stdDeviation="2.0"/><feColorMatrix in="blurOut" result="blurOut2" type="matrix" values="0 0 0 0 0 0 0 0 0 0 0 0 0 0 0 0 0 0 .4 0"/><feOffset dx="4.0" dy="4.0" in="blurOut2" result="blurOut3"/><feBlend in="SourceGraphic" in2="blurOut3" mode="normal"/></filter></defs><g><!--class com.hack23.sonar.cloudformation.CloudformationConstants--><a target="_top" xlink:actuate="onRequest" xlink:href="CloudformationConstants.html" xlink:show="new" xlink:title="CloudformationConstants.html" xlink:type="simple"><rect fill="#FEFECE" filter="url(#frdngc3rl1jhx)" height="71.5469" id="com.hack23.sonar.cloudformation.CloudformationConstants" style="stroke: #A80036; stroke-width: 1.5;" width="212" x="6" y="8"/><ellipse cx="22.8" cy="26.9688" fill="#ADD1B2" rx="11" ry="11" style="stroke: #A80036; stroke-width: 1.0;"/><path d="M25.7688,32.6094 Q25.1906,32.9063 24.55,33.0469 Q23.9094,33.2031 23.2063,33.2031 Q20.7063,33.2031 19.3781,31.5625 Q18.0656,29.9063 18.0656,26.7813 Q18.0656,23.6563 19.3781,22 Q20.7063,20.3438 23.2063,20.3438 Q23.9094,20.3438 24.55,20.5 Q25.2063,20.6563 25.7688,20.9531 L25.7688,23.6719 Q25.1438,23.0938 24.55,22.8281 Q23.9563,22.5469 23.3313,22.5469 Q21.9875,22.5469 21.3,23.625 Q20.6125,24.6875 20.6125,26.7813 Q20.6125,28.875 21.3,29.9531 Q21.9875,31.0156 23.3313,31.0156 Q23.9563,31.0156 24.55,30.75 Q25.1438,30.4688 25.7688,29.8906 L25.7688,32.6094 Z "/><text fill="#000000" font-family="sans-serif" font-size="14" lengthAdjust="spacingAndGlyphs" textLength="176" x="37.2" y="25.9951">CloudformationConstants</text><text fill="#000000" font-family="sans-serif" font-size="10" lengthAdjust="spacingAndGlyphs" textLength="164" x="43.2" y="38.5791">com.hack23.sonar.cloudformation</text><line style="stroke: #A80036; stroke-width: 1.5;" x1="7" x2="217" y1="45.9375" y2="45.9375"/><ellipse cx="17" cy="57.8398" fill="none" rx="3" ry="3" style="stroke: #038048; stroke-width: 1.0;"/><text fill="#000000" font-family="sans-serif" font-size="11" lengthAdjust="spacingAndGlyphs" text-decoration="underline" textLength="186" x="26" y="60.1479">REPORT_FILES_PROPERTY: String</text><line style="stroke: #000000; stroke-width: 1.0;" x1="26" x2="212" y1="62.1479" y2="62.1479"/><ellipse cx="17" cy="70.6445" fill="none" rx="3" ry="3" style="stroke: #038048; stroke-width: 1.0;"/><text fill="#000000" font-family="sans-serif" font-size="11" lengthAdjust="spacingAndGlyphs" text-decoration="underline" textLength="174" x="26" y="72.9526">REPORT_DIR_PROPERTY: String</text><line style="stroke: #000000; stroke-width: 1.0;" x1="26" x2="200" y1="74.9526" y2="74.9526"/></a><text fill="#888888" font-family="sans-serif" font-size="10" lengthAdjust="spacingAndGlyphs" textLength="186" x="25" y="99.2822">UMLDoclet 2.0.2, PlantUML 1.2019.01</text><!--
@startuml
    set namespaceSeparator none
    hide empty fields
    hide empty methods

    class "<size:14>CloudformationConstants\n<size:10>com.hack23.sonar.cloudformation" as com.hack23.sonar.cloudformation.CloudformationConstants [[CloudformationConstants.html]] {
        {static} +REPORT_FILES_PROPERTY: String
        {static} +REPORT_DIR_PROPERTY: String
    }

    center footer UMLDoclet 2.0.2, PlantUML 1.2019.01
@enduml

PlantUML version 1.2019.01(Sat Feb 09 16:32:04 CET 2019)
(APACHE source distribution)
Java Runtime: OpenJDK Runtime Environment
JVM: OpenJDK 64-Bit Server VM
Java Version: 11.0.3+7-Ubuntu-1ubuntu219.04.1
Operating System: Linux
OS Version: 5.0.0-15-generic
Default Encoding: UTF-8
Language: en
Country: US
--></g></svg>