<?xml version="1.0" encoding="UTF-8" standalone="no"?><svg xmlns="http://www.w3.org/2000/svg" xmlns:xlink="http://www.w3.org/1999/xlink" contentScriptType="application/ecmascript" contentStyleType="text/css" height="132px" preserveAspectRatio="none" style="width:276px;height:132px;" version="1.1" viewBox="0 0 276 132" width="276px" zoomAndPan="magnify"><defs><filter height="300%" id="f1ba3pz6hld9xy" width="300%" x="-1" y="-1"><feGaussianBlur result="blurOut" stdDeviation="2.0"/><feColorMatrix in="blurOut" result="blurOut2" type="matrix" values="0 0 0 0 0 0 0 0 0 0 0 0 0 0 0 0 0 0 .4 0"/><feOffset dx="4.0" dy="4.0" in="blurOut2" result="blurOut3"/><feBlend in="SourceGraphic" in2="blurOut3" mode="normal"/></filter></defs><g><!--class com.hack23.sonar.cloudformation.CloudformationProperties--><a href="CloudformationProperties.html" target="_top" xlink:actuate="onRequest" xlink:show="new" xlink:title="CloudformationProperties.html" xlink:type="simple"><rect fill="#FEFECE" filter="url(#f1ba3pz6hld9xy)" height="92.3516" id="com.hack23.sonar.cloudformation.CloudformationProperties" style="stroke: #A80036; stroke-width: 1.5;" width="258" x="6" y="8"/><ellipse cx="43.5" cy="26.9688" fill="#ADD1B2" rx="11" ry="11" style="stroke: #A80036; stroke-width: 1.0;"/><path d="M46.4688,32.6094 Q45.8906,32.9063 45.25,33.0469 Q44.6094,33.2031 43.9063,33.2031 Q41.4063,33.2031 40.0781,31.5625 Q38.7656,29.9063 38.7656,26.7813 Q38.7656,23.6563 40.0781,22 Q41.4063,20.3438 43.9063,20.3438 Q44.6094,20.3438 45.25,20.5 Q45.9063,20.6563 46.4688,20.9531 L46.4688,23.6719 Q45.8438,23.0938 45.25,22.8281 Q44.6563,22.5469 44.0313,22.5469 Q42.6875,22.5469 42,23.625 Q41.3125,24.6875 41.3125,26.7813 Q41.3125,28.875 42,29.9531 Q42.6875,31.0156 44.0313,31.0156 Q44.6563,31.0156 45.25,30.75 Q45.8438,30.4688 46.4688,29.8906 L46.4688,32.6094 Z "/><text fill="#000000" font-family="sans-serif" font-size="14" lengthAdjust="spacingAndGlyphs" textLength="176" x="62.5" y="25.9951">CloudformationProperties</text><text fill="#000000" font-family="sans-serif" font-size="10" lengthAdjust="spacingAndGlyphs" textLength="164" x="68.5" y="38.5791">com.hack23.sonar.cloudformation</text><line style="stroke: #A80036; stroke-width: 1.5;" x1="7" x2="263" y1="45.9375" y2="45.9375"/><ellipse cx="17" cy="57.8398" fill="none" rx="3" ry="3" style="stroke: #038048; stroke-width: 1.0;"/><text fill="#000000" font-family="sans-serif" font-size="11" lengthAdjust="spacingAndGlyphs" text-decoration="underline" textLength="150" x="26" y="60.1479">FILE_SUFFIXES_KEY: String</text><ellipse cx="17" cy="70.6445" fill="none" rx="3" ry="3" style="stroke: #038048; stroke-width: 1.0;"/><text fill="#000000" font-family="sans-serif" font-size="11" lengthAdjust="spacingAndGlyphs" text-decoration="underline" textLength="219" x="26" y="72.9526">FILE_SUFFIXES_DEFAULT_VALUE: String</text><line style="stroke: #A80036; stroke-width: 1.5;" x1="7" x2="263" y1="79.5469" y2="79.5469"/><ellipse cx="17" cy="91.4492" fill="#84BE84" rx="3" ry="3" style="stroke: #038048; stroke-width: 1.0;"/><text fill="#000000" font-family="sans-serif" font-size="11" lengthAdjust="spacingAndGlyphs" text-decoration="underline" textLength="232" x="26" y="93.7573">getProperties(): List&lt;PropertyDefinition&gt;</text></a><text fill="#888888" font-family="sans-serif" font-size="10" lengthAdjust="spacingAndGlyphs" textLength="247" x="17.5" y="119.2822">UMLDoclet 2.0.3-SNAPSHOT, PlantUML 1.2019.06</text><!--
@startuml
    set namespaceSeparator none
    hide empty fields
    hide empty methods

    class "<size:14>CloudformationProperties\n<size:10>com.hack23.sonar.cloudformation" as com.hack23.sonar.cloudformation.CloudformationProperties [[CloudformationProperties.html]] {
        {static} +FILE_SUFFIXES_KEY: String
        {static} +FILE_SUFFIXES_DEFAULT_VALUE: String
        {static} +getProperties(): List<PropertyDefinition>
    }

    center footer UMLDoclet 2.0.3-SNAPSHOT, PlantUML 1.2019.06
@enduml

PlantUML version 1.2019.06(Fri May 24 19:10:25 CEST 2019)
(GPL source distribution)
Java Runtime: Java(TM) SE Runtime Environment
JVM: Java HotSpot(TM) 64-Bit Server VM
Java Version: 11-ea+5
Operating System: Linux
OS Version: 5.0.0-15-generic
Default Encoding: UTF-8
Language: en
Country: US
--></g></svg>