<?xml version="1.0" encoding="UTF-8" standalone="no"?><svg xmlns="http://www.w3.org/2000/svg" xmlns:xlink="http://www.w3.org/1999/xlink" contentStyleType="text/css" height="290px" preserveAspectRatio="none" style="width:435px;height:290px;background:#FFFFFF;" version="1.1" viewBox="0 0 435 290" width="435px" zoomAndPan="magnify"><defs/><g><!--MD5=[9ad602e740eec67d73c5d598917426ba]
class com.hack23.sonar.cloudformation.CloudformationRulesDefinition--><a href="CloudformationRulesDefinition.html" target="_top" title="CloudformationRulesDefinition.html" xlink:actuate="onRequest" xlink:href="CloudformationRulesDefinition.html" xlink:show="new" xlink:title="CloudformationRulesDefinition.html" xlink:type="simple"><g id="elem_com.hack23.sonar.cloudformation.CloudformationRulesDefinition"><rect codeLine="5" fill="#F1F1F1" height="135.4219" id="com.hack23.sonar.cloudformation.CloudformationRulesDefinition" rx="2.5" ry="2.5" style="stroke:#181818;stroke-width:0.5;" width="421" x="7" y="129"/><ellipse cx="108.75" cy="147.9688" fill="#ADD1B2" rx="11" ry="11" style="stroke:#181818;stroke-width:1.0;"/><path d="M111.7188,153.6094 Q111.1406,153.9063 110.5,154.0469 Q109.8594,154.2031 109.1563,154.2031 Q106.6563,154.2031 105.3281,152.5625 Q104.0156,150.9063 104.0156,147.7813 Q104.0156,144.6563 105.3281,143 Q106.6563,141.3438 109.1563,141.3438 Q109.8594,141.3438 110.5,141.5 Q111.1563,141.6563 111.7188,141.9531 L111.7188,144.6719 Q111.0938,144.0938 110.5,143.8281 Q109.9063,143.5469 109.2813,143.5469 Q107.9375,143.5469 107.25,144.625 Q106.5625,145.6875 106.5625,147.7813 Q106.5625,149.875 107.25,150.9531 Q107.9375,152.0156 109.2813,152.0156 Q109.9063,152.0156 110.5,151.75 Q111.0938,151.4688 111.7188,150.8906 L111.7188,153.6094 Z " fill="#000000"/><text fill="#000000" font-family="sans-serif" font-size="14" lengthAdjust="spacing" textLength="209" x="129.25" y="146.9951">CloudformationRulesDefinition</text><text fill="#000000" font-family="sans-serif" font-size="10" lengthAdjust="spacing" textLength="164" x="151.75" y="159.5791">com.hack23.sonar.cloudformation</text><line style="stroke:#181818;stroke-width:0.5;" x1="8" x2="427" y1="166.9375" y2="166.9375"/><ellipse cx="18" cy="180.5859" fill="none" rx="3" ry="3" style="stroke:#038048;stroke-width:1.0;"/><text fill="#000000" font-family="sans-serif" font-size="14" lengthAdjust="spacing" text-decoration="underline" textLength="76" x="27" y="183.9326">KEY: String</text><ellipse cx="18" cy="196.8828" fill="none" rx="3" ry="3" style="stroke:#038048;stroke-width:1.0;"/><text fill="#000000" font-family="sans-serif" font-size="14" lengthAdjust="spacing" text-decoration="underline" textLength="89" x="27" y="200.2295">NAME: String</text><line style="stroke:#181818;stroke-width:0.5;" x1="8" x2="427" y1="207.5313" y2="207.5313"/><ellipse cx="18" cy="221.1797" fill="#84BE84" rx="3" ry="3" style="stroke:#038048;stroke-width:1.0;"/><text fill="#000000" font-family="sans-serif" font-size="14" lengthAdjust="spacing" textLength="395" x="27" y="224.5264">CloudformationRulesDefinition(RulesDefinitionXmlLoader)</text><ellipse cx="18" cy="237.4766" fill="#84BE84" rx="3" ry="3" style="stroke:#038048;stroke-width:1.0;"/><text fill="#000000" font-family="sans-serif" font-size="14" lengthAdjust="spacing" textLength="150" x="27" y="240.8232">getContext(): Context</text><ellipse cx="18" cy="253.7734" fill="#84BE84" rx="3" ry="3" style="stroke:#038048;stroke-width:1.0;"/><text fill="#000000" font-family="sans-serif" font-size="14" lengthAdjust="spacing" textLength="144" x="27" y="257.1201">define(Context): void</text></g></a><!--MD5=[0c41336916cc93e234215d73ea118e70]
class org.sonar.api.server.rule.RulesDefinition--><g id="elem_org.sonar.api.server.rule.RulesDefinition"><rect codeLine="13" fill="#F1F1F1" height="62.2344" id="org.sonar.api.server.rule.RulesDefinition" rx="2.5" ry="2.5" style="stroke:#181818;stroke-width:0.5;" width="172" x="131.5" y="7"/><ellipse cx="155.5" cy="25.9688" fill="#B4A7E5" rx="11" ry="11" style="stroke:#181818;stroke-width:1.0;"/><path d="M151.4219,21.7344 L151.4219,19.5781 L158.8125,19.5781 L158.8125,21.7344 L156.3438,21.7344 L156.3438,29.8125 L158.8125,29.8125 L158.8125,31.9688 L151.4219,31.9688 L151.4219,29.8125 L153.8906,29.8125 L153.8906,21.7344 L151.4219,21.7344 Z " fill="#000000"/><text fill="#000000" font-family="sans-serif" font-size="14" font-style="italic" lengthAdjust="spacing" textLength="103" x="180" y="24.9951">RulesDefinition</text><text fill="#000000" font-family="sans-serif" font-size="10" font-style="italic" lengthAdjust="spacing" textLength="120" x="171.5" y="37.5791">org.sonar.api.server.rule</text><line style="stroke:#181818;stroke-width:0.5;" x1="132.5" x2="302.5" y1="44.9375" y2="44.9375"/><ellipse cx="142.5" cy="58.5859" fill="#84BE84" rx="3" ry="3" style="stroke:#038048;stroke-width:1.0;"/><text fill="#000000" font-family="sans-serif" font-size="14" font-style="italic" lengthAdjust="spacing" textLength="146" x="151.5" y="61.9326">define(Context): void</text></g><!--MD5=[2bdc00f05ffbda222481780920a1d1de]
reverse link org.sonar.api.server.rule.RulesDefinition to com.hack23.sonar.cloudformation.CloudformationRulesDefinition--><g id="link_org.sonar.api.server.rule.RulesDefinition_com.hack23.sonar.cloudformation.CloudformationRulesDefinition"><path codeLine="17" d="M217.5,89.56 C217.5,102.06 217.5,115.66 217.5,128.8 " fill="none" id="org.sonar.api.server.rule.RulesDefinition-backto-com.hack23.sonar.cloudformation.CloudformationRulesDefinition" style="stroke:#181818;stroke-width:1.0;stroke-dasharray:7.0,7.0;"/><polygon fill="none" points="210.5,89.17,217.5,69.17,224.5,89.17,210.5,89.17" style="stroke:#181818;stroke-width:1.0;"/></g><rect fill="none" height="11.6406" style="stroke:none;stroke-width:1.0;" width="192" x="114.5" y="270.4219"/><text fill="#888888" font-family="sans-serif" font-size="10" lengthAdjust="spacing" textLength="192" x="114.5" y="279.7041">UMLDoclet 2.0.20, PlantUML 1.2022.12</text><!--MD5=[8286ce49a72ff43a612056b182c42796]
@startuml
    set namespaceSeparator none
    hide empty fields
    hide empty methods

    class "<size:14>CloudformationRulesDefinition\n<size:10>com.hack23.sonar.cloudformation" as com.hack23.sonar.cloudformation.CloudformationRulesDefinition [[CloudformationRulesDefinition.html]] {
        {static} +KEY: String
        {static} +NAME: String
        +CloudformationRulesDefinition(RulesDefinitionXmlLoader)
        +getContext(): Context
        +define(Context): void
    }

    interface "<size:14>RulesDefinition\n<size:10>org.sonar.api.server.rule" as org.sonar.api.server.rule.RulesDefinition {
        {abstract} +define(Context): void
    }

    org.sonar.api.server.rule.RulesDefinition <|.. com.hack23.sonar.cloudformation.CloudformationRulesDefinition

    center footer UMLDoclet 2.0.20, PlantUML 1.2022.12
@enduml

PlantUML version 1.2022.12(Sun Oct 23 20:12:26 CEST 2022)
(APACHE source distribution)
Java Runtime: OpenJDK Runtime Environment
JVM: OpenJDK 64-Bit Server VM
Default Encoding: UTF-8
Language: en
Country: US
--></g></svg>