<?xml version="1.0" encoding="UTF-8" standalone="no"?><svg xmlns="http://www.w3.org/2000/svg" xmlns:xlink="http://www.w3.org/1999/xlink" contentScriptType="application/ecmascript" contentStyleType="text/css" height="218px" preserveAspectRatio="none" style="width:215px;height:218px;" version="1.1" viewBox="0 0 215 218" width="215px" zoomAndPan="magnify"><defs><filter height="300%" id="f1ep4xkhquacmi" width="300%" x="-1" y="-1"><feGaussianBlur result="blurOut" stdDeviation="2.0"/><feColorMatrix in="blurOut" result="blurOut2" type="matrix" values="0 0 0 0 0 0 0 0 0 0 0 0 0 0 0 0 0 0 .4 0"/><feOffset dx="4.0" dy="4.0" in="blurOut2" result="blurOut3"/><feBlend in="SourceGraphic" in2="blurOut3" mode="normal"/></filter></defs><g><!--MD5=[4e78556fd0fd0f12622aab97e46ad39c]
class com.hack23.sonar.cloudformation.CloudformationPlugin--><a href="CloudformationPlugin.html" target="_top" title="CloudformationPlugin.html" xlink:actuate="onRequest" xlink:href="CloudformationPlugin.html" xlink:show="new" xlink:title="CloudformationPlugin.html" xlink:type="simple"><rect fill="#FEFECE" filter="url(#f1ep4xkhquacmi)" height="58.7422" id="com.hack23.sonar.cloudformation.CloudformationPlugin" style="stroke: #A80036; stroke-width: 1.5;" width="196" x="6" y="127"/><ellipse cx="21" cy="145.9688" fill="#ADD1B2" rx="11" ry="11" style="stroke: #A80036; stroke-width: 1.0;"/><path d="M23.9688,151.6094 Q23.3906,151.9063 22.75,152.0469 Q22.1094,152.2031 21.4063,152.2031 Q18.9063,152.2031 17.5781,150.5625 Q16.2656,148.9063 16.2656,145.7813 Q16.2656,142.6563 17.5781,141 Q18.9063,139.3438 21.4063,139.3438 Q22.1094,139.3438 22.75,139.5 Q23.4063,139.6563 23.9688,139.9531 L23.9688,142.6719 Q23.3438,142.0938 22.75,141.8281 Q22.1563,141.5469 21.5313,141.5469 Q20.1875,141.5469 19.5,142.625 Q18.8125,143.6875 18.8125,145.7813 Q18.8125,147.875 19.5,148.9531 Q20.1875,150.0156 21.5313,150.0156 Q22.1563,150.0156 22.75,149.75 Q23.3438,149.4688 23.9688,148.8906 L23.9688,151.6094 Z "/><text fill="#000000" font-family="sans-serif" font-size="14" lengthAdjust="spacingAndGlyphs" textLength="147" x="43.5" y="144.9951">CloudformationPlugin</text><text fill="#000000" font-family="sans-serif" font-size="10" lengthAdjust="spacingAndGlyphs" textLength="164" x="35" y="157.5791">com.hack23.sonar.cloudformation</text><line style="stroke: #A80036; stroke-width: 1.5;" x1="7" x2="201" y1="164.9375" y2="164.9375"/><ellipse cx="17" cy="175.9375" fill="#84BE84" rx="3" ry="3" style="stroke: #038048; stroke-width: 1.0;"/><text fill="#000000" font-family="sans-serif" font-size="11" lengthAdjust="spacingAndGlyphs" textLength="117" x="26" y="179.1479">define(Context): void</text></a><!--MD5=[357bc6d468bbe4af181e679b5a7d4bc8]
class org.sonar.api.Plugin--><rect fill="#FEFECE" filter="url(#f1ep4xkhquacmi)" height="58.7422" id="org.sonar.api.Plugin" style="stroke: #A80036; stroke-width: 1.5;" width="145" x="31.5" y="8"/><ellipse cx="68.55" cy="26.9688" fill="#B4A7E5" rx="11" ry="11" style="stroke: #A80036; stroke-width: 1.0;"/><path d="M64.4719,22.7344 L64.4719,20.5781 L71.8625,20.5781 L71.8625,22.7344 L69.3938,22.7344 L69.3938,30.8125 L71.8625,30.8125 L71.8625,32.9688 L64.4719,32.9688 L64.4719,30.8125 L66.9406,30.8125 L66.9406,22.7344 L64.4719,22.7344 Z "/><text fill="#000000" font-family="sans-serif" font-size="14" font-style="italic" lengthAdjust="spacingAndGlyphs" textLength="41" x="98.95" y="25.9951">Plugin</text><text fill="#000000" font-family="sans-serif" font-size="10" font-style="italic" lengthAdjust="spacingAndGlyphs" textLength="64" x="87.45" y="38.5791">org.sonar.api</text><line style="stroke: #A80036; stroke-width: 1.5;" x1="32.5" x2="175.5" y1="45.9375" y2="45.9375"/><ellipse cx="42.5" cy="56.9375" fill="#84BE84" rx="3" ry="3" style="stroke: #038048; stroke-width: 1.0;"/><text fill="#000000" font-family="sans-serif" font-size="11" font-style="italic" lengthAdjust="spacingAndGlyphs" textLength="119" x="51.5" y="60.1479">define(Context): void</text><!--MD5=[a0a45c0a895aca957ae22b311196540e]
reverse link org.sonar.api.Plugin to com.hack23.sonar.cloudformation.CloudformationPlugin--><path d="M104,87.25 C104,100.7 104,114.86 104,126.77 " fill="none" id="org.sonar.api.Plugin&lt;-com.hack23.sonar.cloudformation.CloudformationPlugin" style="stroke: #A80036; stroke-width: 1.0; stroke-dasharray: 7.0,7.0;"/><polygon fill="none" points="97,87.12,104,67.12,111,87.12,97,87.12" style="stroke: #A80036; stroke-width: 1.0;"/><text fill="#888888" font-family="sans-serif" font-size="10" lengthAdjust="spacingAndGlyphs" textLength="186" x="17" y="205.2822">UMLDoclet 2.0.9, PlantUML 1.2020.08</text><!--MD5=[b0debdea7ca415b564cffec5ac0f190f]
@startuml
    set namespaceSeparator none
    hide empty fields
    hide empty methods

    class "<size:14>CloudformationPlugin\n<size:10>com.hack23.sonar.cloudformation" as com.hack23.sonar.cloudformation.CloudformationPlugin [[CloudformationPlugin.html]] {
        +define(Context): void
    }

    interface "<size:14>Plugin\n<size:10>org.sonar.api" as org.sonar.api.Plugin {
        {abstract} +define(Context): void
    }

    org.sonar.api.Plugin <|.. com.hack23.sonar.cloudformation.CloudformationPlugin

    center footer UMLDoclet 2.0.9, PlantUML 1.2020.08
@enduml

PlantUML version 1.2020.08(Sun Apr 26 16:08:22 CEST 2020)
(APACHE source distribution)
Java Runtime: OpenJDK Runtime Environment
JVM: OpenJDK 64-Bit Server VM
Java Version: 11.0.7+10-post-Ubuntu-3ubuntu1
Operating System: Linux
Default Encoding: UTF-8
Language: en
Country: US
--></g></svg>