<?xml version="1.0" encoding="UTF-8" standalone="no"?><svg xmlns="http://www.w3.org/2000/svg" xmlns:xlink="http://www.w3.org/1999/xlink" contentStyleType="text/css" height="233px" preserveAspectRatio="none" style="width:452px;height:233px;background:#FFFFFF;" version="1.1" viewBox="0 0 452 233" width="452px" zoomAndPan="magnify"><defs/><g><!--MD5=[fe768997cbfd64bbe9e45e6331c668d3]
class com.hack23.sonar.cloudformation.CloudformationQualityProfile--><a href="CloudformationQualityProfile.html" target="_top" title="CloudformationQualityProfile.html" xlink:actuate="onRequest" xlink:href="CloudformationQualityProfile.html" xlink:show="new" xlink:title="CloudformationQualityProfile.html" xlink:type="simple"><g id="elem_com.hack23.sonar.cloudformation.CloudformationQualityProfile"><rect codeLine="5" fill="#F1F1F1" height="78.5313" id="com.hack23.sonar.cloudformation.CloudformationQualityProfile" rx="2.5" ry="2.5" style="stroke:#181818;stroke-width:0.5;" width="438" x="7" y="129"/><ellipse cx="125.25" cy="147.9688" fill="#ADD1B2" rx="11" ry="11" style="stroke:#181818;stroke-width:1.0;"/><path d="M128.2188,153.6094 Q127.6406,153.9063 127,154.0469 Q126.3594,154.2031 125.6563,154.2031 Q123.1563,154.2031 121.8281,152.5625 Q120.5156,150.9063 120.5156,147.7813 Q120.5156,144.6563 121.8281,143 Q123.1563,141.3438 125.6563,141.3438 Q126.3594,141.3438 127,141.5 Q127.6563,141.6563 128.2188,141.9531 L128.2188,144.6719 Q127.5938,144.0938 127,143.8281 Q126.4063,143.5469 125.7813,143.5469 Q124.4375,143.5469 123.75,144.625 Q123.0625,145.6875 123.0625,147.7813 Q123.0625,149.875 123.75,150.9531 Q124.4375,152.0156 125.7813,152.0156 Q126.4063,152.0156 127,151.75 Q127.5938,151.4688 128.2188,150.8906 L128.2188,153.6094 Z " fill="#000000"/><text fill="#000000" font-family="sans-serif" font-size="14" lengthAdjust="spacing" textLength="193" x="145.75" y="146.9951">CloudformationQualityProfile</text><text fill="#000000" font-family="sans-serif" font-size="10" lengthAdjust="spacing" textLength="164" x="160.25" y="159.5791">com.hack23.sonar.cloudformation</text><line style="stroke:#181818;stroke-width:0.5;" x1="8" x2="444" y1="166.9375" y2="166.9375"/><ellipse cx="18" cy="180.5859" fill="#84BE84" rx="3" ry="3" style="stroke:#038048;stroke-width:1.0;"/><text fill="#000000" font-family="sans-serif" font-size="14" lengthAdjust="spacing" textLength="412" x="27" y="183.9326">CloudformationQualityProfile(CloudformationRulesDefinition)</text><ellipse cx="18" cy="196.8828" fill="#84BE84" rx="3" ry="3" style="stroke:#038048;stroke-width:1.0;"/><text fill="#000000" font-family="sans-serif" font-size="14" lengthAdjust="spacing" textLength="144" x="27" y="200.2295">define(Context): void</text></g></a><!--MD5=[bccf4df98d34ca024eaa4f9d7ebedb88]
class org.sonar.api.server.profile.BuiltInQualityProfilesDefinition--><g id="elem_org.sonar.api.server.profile.BuiltInQualityProfilesDefinition"><rect codeLine="10" fill="#F1F1F1" height="62.2344" id="org.sonar.api.server.profile.BuiltInQualityProfilesDefinition" rx="2.5" ry="2.5" style="stroke:#181818;stroke-width:0.5;" width="235" x="108.5" y="7"/><ellipse cx="123.5" cy="25.9688" fill="#B4A7E5" rx="11" ry="11" style="stroke:#181818;stroke-width:1.0;"/><path d="M119.4219,21.7344 L119.4219,19.5781 L126.8125,19.5781 L126.8125,21.7344 L124.3438,21.7344 L124.3438,29.8125 L126.8125,29.8125 L126.8125,31.9688 L119.4219,31.9688 L119.4219,29.8125 L121.8906,29.8125 L121.8906,21.7344 L119.4219,21.7344 Z " fill="#000000"/><text fill="#000000" font-family="sans-serif" font-size="14" font-style="italic" lengthAdjust="spacing" textLength="203" x="137.5" y="24.9951">BuiltInQualityProfilesDefinition</text><text fill="#000000" font-family="sans-serif" font-size="10" font-style="italic" lengthAdjust="spacing" textLength="133" x="172.5" y="37.5791">org.sonar.api.server.profile</text><line style="stroke:#181818;stroke-width:0.5;" x1="109.5" x2="342.5" y1="44.9375" y2="44.9375"/><ellipse cx="119.5" cy="58.5859" fill="#84BE84" rx="3" ry="3" style="stroke:#038048;stroke-width:1.0;"/><text fill="#000000" font-family="sans-serif" font-size="14" font-style="italic" lengthAdjust="spacing" textLength="146" x="128.5" y="61.9326">define(Context): void</text></g><!--MD5=[63fe7b739a87e21952d62265d328e55c]
reverse link org.sonar.api.server.profile.BuiltInQualityProfilesDefinition to com.hack23.sonar.cloudformation.CloudformationQualityProfile--><g id="link_org.sonar.api.server.profile.BuiltInQualityProfilesDefinition_com.hack23.sonar.cloudformation.CloudformationQualityProfile"><path codeLine="14" d="M226,89.36 C226,102.47 226,116.38 226,128.78 " fill="none" id="org.sonar.api.server.profile.BuiltInQualityProfilesDefinition-backto-com.hack23.sonar.cloudformation.CloudformationQualityProfile" style="stroke:#181818;stroke-width:1.0;stroke-dasharray:7.0,7.0;"/><polygon fill="none" points="219,89.13,226,69.13,233,89.13,219,89.13" style="stroke:#181818;stroke-width:1.0;"/></g><rect fill="none" height="11.6406" style="stroke:none;stroke-width:1.0;" width="192" x="123" y="213.5313"/><text fill="#888888" font-family="sans-serif" font-size="10" lengthAdjust="spacing" textLength="192" x="123" y="222.8135">UMLDoclet 2.0.20, PlantUML 1.2022.12</text><!--MD5=[d48a5c66a63e898aa7bf65042587e7b8]
@startuml
    set namespaceSeparator none
    hide empty fields
    hide empty methods

    class "<size:14>CloudformationQualityProfile\n<size:10>com.hack23.sonar.cloudformation" as com.hack23.sonar.cloudformation.CloudformationQualityProfile [[CloudformationQualityProfile.html]] {
        +CloudformationQualityProfile(CloudformationRulesDefinition)
        +define(Context): void
    }

    interface "<size:14>BuiltInQualityProfilesDefinition\n<size:10>org.sonar.api.server.profile" as org.sonar.api.server.profile.BuiltInQualityProfilesDefinition {
        {abstract} +define(Context): void
    }

    org.sonar.api.server.profile.BuiltInQualityProfilesDefinition <|.. com.hack23.sonar.cloudformation.CloudformationQualityProfile

    center footer UMLDoclet 2.0.20, PlantUML 1.2022.12
@enduml

PlantUML version 1.2022.12(Sun Oct 23 20:12:26 CEST 2022)
(APACHE source distribution)
Java Runtime: OpenJDK Runtime Environment
JVM: OpenJDK 64-Bit Server VM
Default Encoding: UTF-8
Language: en
Country: US
--></g></svg>