<?xml version="1.0" encoding="UTF-8" standalone="no"?><svg xmlns="http://www.w3.org/2000/svg" xmlns:xlink="http://www.w3.org/1999/xlink" contentScriptType="application/ecmascript" contentStyleType="text/css" height="480px" preserveAspectRatio="none" style="width:2089px;height:480px;" version="1.1" viewBox="0 0 2089 480" width="2089px" zoomAndPan="magnify"><defs><filter height="300%" id="f14jkpn7g8jmcg" width="300%" x="-1" y="-1"><feGaussianBlur result="blurOut" stdDeviation="2.0"/><feColorMatrix in="blurOut" result="blurOut2" type="matrix" values="0 0 0 0 0 0 0 0 0 0 0 0 0 0 0 0 0 0 .4 0"/><feOffset dx="4.0" dy="4.0" in="blurOut2" result="blurOut3"/><feBlend in="SourceGraphic" in2="blurOut3" mode="normal"/></filter></defs><g><!--MD5=[7efd255d87f67ac79da5c4891114ef95]
cluster com.hack23.sonar.cloudformation--><polygon fill="#FFFFFF" filter="url(#f14jkpn7g8jmcg)" points="16,155,291,155,298,177.2969,2067,177.2969,2067,452,16,452,16,155" style="stroke: #000000; stroke-width: 1.5;"/><line style="stroke: #000000; stroke-width: 1.5;" x1="16" x2="298" y1="177.2969" y2="177.2969"/><text fill="#000000" font-family="sans-serif" font-size="14" font-weight="bold" lengthAdjust="spacingAndGlyphs" textLength="269" x="20" y="169.9951">com.hack23.sonar.cloudformation</text><!--MD5=[d3bfeb526ca1008dfb54863d3a7224f6]
cluster org.sonar.api.server.rule--><polygon fill="#FFFFFF" filter="url(#f14jkpn7g8jmcg)" points="30,12.5,234,12.5,241,34.7969,244,34.7969,244,124.5,30,124.5,30,12.5" style="stroke: #000000; stroke-width: 1.5;"/><line style="stroke: #000000; stroke-width: 1.5;" x1="30" x2="241" y1="34.7969" y2="34.7969"/><text fill="#000000" font-family="sans-serif" font-size="14" font-weight="bold" lengthAdjust="spacingAndGlyphs" textLength="198" x="34" y="27.4951">org.sonar.api.server.rule</text><!--MD5=[6a86e12f8c3573ef90e7334d9e934390]
cluster org.sonar.api--><polygon fill="#FFFFFF" filter="url(#f14jkpn7g8jmcg)" points="281,12.5,392,12.5,399,34.7969,459,34.7969,459,124.5,281,124.5,281,12.5" style="stroke: #000000; stroke-width: 1.5;"/><line style="stroke: #000000; stroke-width: 1.5;" x1="281" x2="399" y1="34.7969" y2="34.7969"/><text fill="#000000" font-family="sans-serif" font-size="14" font-weight="bold" lengthAdjust="spacingAndGlyphs" textLength="105" x="285" y="27.4951">org.sonar.api</text><!--MD5=[069966ec46c27c575c0e14a62cc3970a]
cluster org.sonar.api.batch.sensor--><polygon fill="#FFFFFF" filter="url(#f14jkpn7g8jmcg)" points="625,6,845,6,852,28.2969,869,28.2969,869,131,625,131,625,6" style="stroke: #000000; stroke-width: 1.5;"/><line style="stroke: #000000; stroke-width: 1.5;" x1="625" x2="852" y1="28.2969" y2="28.2969"/><text fill="#000000" font-family="sans-serif" font-size="14" font-weight="bold" lengthAdjust="spacingAndGlyphs" textLength="214" x="629" y="20.9951">org.sonar.api.batch.sensor</text><!--MD5=[ed82d9bf0a7e82c39fc0b923e4deffa3]
cluster org.sonar.api.server.profile--><polygon fill="#FFFFFF" filter="url(#f14jkpn7g8jmcg)" points="1101,12.5,1325,12.5,1332,34.7969,1349,34.7969,1349,124.5,1101,124.5,1101,12.5" style="stroke: #000000; stroke-width: 1.5;"/><line style="stroke: #000000; stroke-width: 1.5;" x1="1101" x2="1332" y1="34.7969" y2="34.7969"/><text fill="#000000" font-family="sans-serif" font-size="14" font-weight="bold" lengthAdjust="spacingAndGlyphs" textLength="218" x="1105" y="27.4951">org.sonar.api.server.profile</text><!--MD5=[9ad602e740eec67d73c5d598917426ba]
class com.hack23.sonar.cloudformation.CloudformationRulesDefinition--><a href="CloudformationRulesDefinition.html" target="_top" title="CloudformationRulesDefinition.html" xlink:actuate="onRequest" xlink:href="CloudformationRulesDefinition.html" xlink:show="new" xlink:title="CloudformationRulesDefinition.html" xlink:type="simple"><rect codeLine="3" fill="#FEFECE" filter="url(#f14jkpn7g8jmcg)" height="99.2188" id="com.hack23.sonar.cloudformation.CloudformationRulesDefinition" style="stroke: #A80036; stroke-width: 1.5;" width="220" x="32" y="196.5"/><ellipse cx="47" cy="212.5" fill="#ADD1B2" rx="11" ry="11" style="stroke: #A80036; stroke-width: 1.0;"/><path d="M49.9688,218.1406 Q49.3906,218.4375 48.75,218.5781 Q48.1094,218.7344 47.4063,218.7344 Q44.9063,218.7344 43.5781,217.0938 Q42.2656,215.4375 42.2656,212.3125 Q42.2656,209.1875 43.5781,207.5313 Q44.9063,205.875 47.4063,205.875 Q48.1094,205.875 48.75,206.0313 Q49.4063,206.1875 49.9688,206.4844 L49.9688,209.2031 Q49.3438,208.625 48.75,208.3594 Q48.1563,208.0781 47.5313,208.0781 Q46.1875,208.0781 45.5,209.1563 Q44.8125,210.2188 44.8125,212.3125 Q44.8125,214.4063 45.5,215.4844 Q46.1875,216.5469 47.5313,216.5469 Q48.1563,216.5469 48.75,216.2813 Q49.3438,216 49.9688,215.4219 L49.9688,218.1406 Z "/><text fill="#000000" font-family="sans-serif" font-size="12" lengthAdjust="spacingAndGlyphs" textLength="188" x="61" y="216.6543">CloudformationRulesDefinition</text><line style="stroke: #A80036; stroke-width: 1.5;" x1="33" x2="251" y1="228.5" y2="228.5"/><ellipse cx="43" cy="239.5" fill="none" rx="3" ry="3" style="stroke: #038048; stroke-width: 1.0;"/><text fill="#000000" font-family="sans-serif" font-size="11" lengthAdjust="spacingAndGlyphs" text-decoration="underline" textLength="63" x="52" y="242.7104">KEY: String</text><ellipse cx="43" cy="252.3047" fill="none" rx="3" ry="3" style="stroke: #038048; stroke-width: 1.0;"/><text fill="#000000" font-family="sans-serif" font-size="11" lengthAdjust="spacingAndGlyphs" text-decoration="underline" textLength="73" x="52" y="255.5151">NAME: String</text><line style="stroke: #A80036; stroke-width: 1.5;" x1="33" x2="251" y1="262.1094" y2="262.1094"/><ellipse cx="43" cy="273.1094" fill="#84BE84" rx="3" ry="3" style="stroke: #038048; stroke-width: 1.0;"/><text fill="#000000" font-family="sans-serif" font-size="11" lengthAdjust="spacingAndGlyphs" textLength="120" x="52" y="276.3198">getContext(): Context</text><ellipse cx="43" cy="285.9141" fill="#84BE84" rx="3" ry="3" style="stroke: #038048; stroke-width: 1.0;"/><text fill="#000000" font-family="sans-serif" font-size="11" lengthAdjust="spacingAndGlyphs" textLength="117" x="52" y="289.1245">define(Context): void</text></a><!--MD5=[c3108af317c2c934cdb7e0b2dc4ec977]
class com.hack23.sonar.cloudformation.CloudformationSensorConfiguration--><a href="CloudformationSensorConfiguration.html" target="_top" title="CloudformationSensorConfiguration.html" xlink:actuate="onRequest" xlink:href="CloudformationSensorConfiguration.html" xlink:show="new" xlink:title="CloudformationSensorConfiguration.html" xlink:type="simple"><rect codeLine="10" fill="#FEFECE" filter="url(#f14jkpn7g8jmcg)" height="86.4141" id="com.hack23.sonar.cloudformation.CloudformationSensorConfiguration" style="stroke: #A80036; stroke-width: 1.5;" width="314" x="1444" y="203"/><ellipse cx="1485.55" cy="219" fill="#ADD1B2" rx="11" ry="11" style="stroke: #A80036; stroke-width: 1.0;"/><path d="M1488.5188,224.6406 Q1487.9406,224.9375 1487.3,225.0781 Q1486.6594,225.2344 1485.9563,225.2344 Q1483.4563,225.2344 1482.1281,223.5938 Q1480.8156,221.9375 1480.8156,218.8125 Q1480.8156,215.6875 1482.1281,214.0313 Q1483.4563,212.375 1485.9563,212.375 Q1486.6594,212.375 1487.3,212.5313 Q1487.9563,212.6875 1488.5188,212.9844 L1488.5188,215.7031 Q1487.8938,215.125 1487.3,214.8594 Q1486.7063,214.5781 1486.0813,214.5781 Q1484.7375,214.5781 1484.05,215.6563 Q1483.3625,216.7188 1483.3625,218.8125 Q1483.3625,220.9063 1484.05,221.9844 Q1484.7375,223.0469 1486.0813,223.0469 Q1486.7063,223.0469 1487.3,222.7813 Q1487.8938,222.5 1488.5188,221.9219 L1488.5188,224.6406 Z "/><text fill="#000000" font-family="sans-serif" font-size="12" lengthAdjust="spacingAndGlyphs" textLength="223" x="1505.45" y="223.1543">CloudformationSensorConfiguration</text><line style="stroke: #A80036; stroke-width: 1.5;" x1="1445" x2="1757" y1="235" y2="235"/><line style="stroke: #A80036; stroke-width: 1.5;" x1="1445" x2="1757" y1="243" y2="243"/><ellipse cx="1455" cy="254" fill="#84BE84" rx="3" ry="3" style="stroke: #038048; stroke-width: 1.0;"/><text fill="#000000" font-family="sans-serif" font-size="11" lengthAdjust="spacingAndGlyphs" textLength="288" x="1464" y="257.2104">CloudformationSensorConfiguration(Configuration)</text><ellipse cx="1455" cy="266.8047" fill="#84BE84" rx="3" ry="3" style="stroke: #038048; stroke-width: 1.0;"/><text fill="#000000" font-family="sans-serif" font-size="11" lengthAdjust="spacingAndGlyphs" textLength="237" x="1464" y="270.0151">getCfnNagReportFiles(): Optional&lt;String&gt;</text><ellipse cx="1455" cy="279.6094" fill="#84BE84" rx="3" ry="3" style="stroke: #038048; stroke-width: 1.0;"/><text fill="#000000" font-family="sans-serif" font-size="11" lengthAdjust="spacingAndGlyphs" textLength="243" x="1464" y="282.8198">getCheckovReportFiles(): Optional&lt;String&gt;</text></a><!--MD5=[4e78556fd0fd0f12622aab97e46ad39c]
class com.hack23.sonar.cloudformation.CloudformationPlugin--><a href="CloudformationPlugin.html" target="_top" title="CloudformationPlugin.html" xlink:actuate="onRequest" xlink:href="CloudformationPlugin.html" xlink:show="new" xlink:title="CloudformationPlugin.html" xlink:type="simple"><rect codeLine="16" fill="#FEFECE" filter="url(#f14jkpn7g8jmcg)" height="60.8047" id="com.hack23.sonar.cloudformation.CloudformationPlugin" style="stroke: #A80036; stroke-width: 1.5;" width="165" x="287.5" y="215.5"/><ellipse cx="302.5" cy="231.5" fill="#ADD1B2" rx="11" ry="11" style="stroke: #A80036; stroke-width: 1.0;"/><path d="M305.4688,237.1406 Q304.8906,237.4375 304.25,237.5781 Q303.6094,237.7344 302.9063,237.7344 Q300.4063,237.7344 299.0781,236.0938 Q297.7656,234.4375 297.7656,231.3125 Q297.7656,228.1875 299.0781,226.5313 Q300.4063,224.875 302.9063,224.875 Q303.6094,224.875 304.25,225.0313 Q304.9063,225.1875 305.4688,225.4844 L305.4688,228.2031 Q304.8438,227.625 304.25,227.3594 Q303.6563,227.0781 303.0313,227.0781 Q301.6875,227.0781 301,228.1563 Q300.3125,229.2188 300.3125,231.3125 Q300.3125,233.4063 301,234.4844 Q301.6875,235.5469 303.0313,235.5469 Q303.6563,235.5469 304.25,235.2813 Q304.8438,235 305.4688,234.4219 L305.4688,237.1406 Z "/><text fill="#000000" font-family="sans-serif" font-size="12" lengthAdjust="spacingAndGlyphs" textLength="133" x="316.5" y="235.6543">CloudformationPlugin</text><line style="stroke: #A80036; stroke-width: 1.5;" x1="288.5" x2="451.5" y1="247.5" y2="247.5"/><line style="stroke: #A80036; stroke-width: 1.5;" x1="288.5" x2="451.5" y1="255.5" y2="255.5"/><ellipse cx="298.5" cy="266.5" fill="#84BE84" rx="3" ry="3" style="stroke: #038048; stroke-width: 1.0;"/><text fill="#000000" font-family="sans-serif" font-size="11" lengthAdjust="spacingAndGlyphs" textLength="117" x="307.5" y="269.7104">define(Context): void</text></a><!--MD5=[17b8c490b45d6f269308ea962cf0181d]
class com.hack23.sonar.cloudformation.CloudformationProperties--><a href="CloudformationProperties.html" target="_top" title="CloudformationProperties.html" xlink:actuate="onRequest" xlink:href="CloudformationProperties.html" xlink:show="new" xlink:title="CloudformationProperties.html" xlink:type="simple"><rect codeLine="20" fill="#FEFECE" filter="url(#f14jkpn7g8jmcg)" height="60.8047" id="com.hack23.sonar.cloudformation.CloudformationProperties" style="stroke: #A80036; stroke-width: 1.5;" width="258" x="1793" y="215.5"/><ellipse cx="1837.75" cy="231.5" fill="#ADD1B2" rx="11" ry="11" style="stroke: #A80036; stroke-width: 1.0;"/><path d="M1840.7188,237.1406 Q1840.1406,237.4375 1839.5,237.5781 Q1838.8594,237.7344 1838.1563,237.7344 Q1835.6563,237.7344 1834.3281,236.0938 Q1833.0156,234.4375 1833.0156,231.3125 Q1833.0156,228.1875 1834.3281,226.5313 Q1835.6563,224.875 1838.1563,224.875 Q1838.8594,224.875 1839.5,225.0313 Q1840.1563,225.1875 1840.7188,225.4844 L1840.7188,228.2031 Q1840.0938,227.625 1839.5,227.3594 Q1838.9063,227.0781 1838.2813,227.0781 Q1836.9375,227.0781 1836.25,228.1563 Q1835.5625,229.2188 1835.5625,231.3125 Q1835.5625,233.4063 1836.25,234.4844 Q1836.9375,235.5469 1838.2813,235.5469 Q1838.9063,235.5469 1839.5,235.2813 Q1840.0938,235 1840.7188,234.4219 L1840.7188,237.1406 Z "/><text fill="#000000" font-family="sans-serif" font-size="12" lengthAdjust="spacingAndGlyphs" textLength="160" x="1858.25" y="235.6543">CloudformationProperties</text><line style="stroke: #A80036; stroke-width: 1.5;" x1="1794" x2="2050" y1="247.5" y2="247.5"/><line style="stroke: #A80036; stroke-width: 1.5;" x1="1794" x2="2050" y1="255.5" y2="255.5"/><ellipse cx="1804" cy="266.5" fill="#84BE84" rx="3" ry="3" style="stroke: #038048; stroke-width: 1.0;"/><text fill="#000000" font-family="sans-serif" font-size="11" lengthAdjust="spacingAndGlyphs" text-decoration="underline" textLength="232" x="1813" y="269.7104">getProperties(): List&lt;PropertyDefinition&gt;</text></a><!--MD5=[0d6d0e5b973745eeb597137a51ee0af0]
class com.hack23.sonar.cloudformation.CloudformationConstants--><a href="CloudformationConstants.html" target="_top" title="CloudformationConstants.html" xlink:actuate="onRequest" xlink:href="CloudformationConstants.html" xlink:show="new" xlink:title="CloudformationConstants.html" xlink:type="simple"><rect codeLine="24" fill="#FEFECE" filter="url(#f14jkpn7g8jmcg)" height="73.6094" id="com.hack23.sonar.cloudformation.CloudformationConstants" style="stroke: #A80036; stroke-width: 1.5;" width="272" x="1465" y="362"/><ellipse cx="1517.25" cy="378" fill="#ADD1B2" rx="11" ry="11" style="stroke: #A80036; stroke-width: 1.0;"/><path d="M1520.2188,383.6406 Q1519.6406,383.9375 1519,384.0781 Q1518.3594,384.2344 1517.6563,384.2344 Q1515.1563,384.2344 1513.8281,382.5938 Q1512.5156,380.9375 1512.5156,377.8125 Q1512.5156,374.6875 1513.8281,373.0313 Q1515.1563,371.375 1517.6563,371.375 Q1518.3594,371.375 1519,371.5313 Q1519.6563,371.6875 1520.2188,371.9844 L1520.2188,374.7031 Q1519.5938,374.125 1519,373.8594 Q1518.4063,373.5781 1517.7813,373.5781 Q1516.4375,373.5781 1515.75,374.6563 Q1515.0625,375.7188 1515.0625,377.8125 Q1515.0625,379.9063 1515.75,380.9844 Q1516.4375,382.0469 1517.7813,382.0469 Q1518.4063,382.0469 1519,381.7813 Q1519.5938,381.5 1520.2188,380.9219 L1520.2188,383.6406 Z "/><text fill="#000000" font-family="sans-serif" font-size="12" lengthAdjust="spacingAndGlyphs" textLength="159" x="1537.75" y="382.1543">CloudformationConstants</text><line style="stroke: #A80036; stroke-width: 1.5;" x1="1466" x2="1736" y1="394" y2="394"/><ellipse cx="1476" cy="405" fill="none" rx="3" ry="3" style="stroke: #038048; stroke-width: 1.0;"/><text fill="#000000" font-family="sans-serif" font-size="11" lengthAdjust="spacingAndGlyphs" text-decoration="underline" textLength="244" x="1485" y="408.2104">CFN_NAG_REPORT_FILES_PROPERTY: String</text><ellipse cx="1476" cy="417.8047" fill="none" rx="3" ry="3" style="stroke: #038048; stroke-width: 1.0;"/><text fill="#000000" font-family="sans-serif" font-size="11" lengthAdjust="spacingAndGlyphs" text-decoration="underline" textLength="246" x="1485" y="421.0151">CHECKOV_REPORT_FILES_PROPERTY: String</text><line style="stroke: #A80036; stroke-width: 1.5;" x1="1466" x2="1736" y1="427.6094" y2="427.6094"/></a><!--MD5=[5cd76e2d5be102320ba6d55700009822]
class com.hack23.sonar.cloudformation.CloudformationSensor--><a href="CloudformationSensor.html" target="_top" title="CloudformationSensor.html" xlink:actuate="onRequest" xlink:href="CloudformationSensor.html" xlink:show="new" xlink:title="CloudformationSensor.html" xlink:type="simple"><rect codeLine="29" fill="#FEFECE" filter="url(#f14jkpn7g8jmcg)" height="99.2188" id="com.hack23.sonar.cloudformation.CloudformationSensor" style="stroke: #A80036; stroke-width: 1.5;" width="518" x="488" y="196.5"/><ellipse cx="673.25" cy="212.5" fill="#ADD1B2" rx="11" ry="11" style="stroke: #A80036; stroke-width: 1.0;"/><path d="M676.2188,218.1406 Q675.6406,218.4375 675,218.5781 Q674.3594,218.7344 673.6563,218.7344 Q671.1563,218.7344 669.8281,217.0938 Q668.5156,215.4375 668.5156,212.3125 Q668.5156,209.1875 669.8281,207.5313 Q671.1563,205.875 673.6563,205.875 Q674.3594,205.875 675,206.0313 Q675.6563,206.1875 676.2188,206.4844 L676.2188,209.2031 Q675.5938,208.625 675,208.3594 Q674.4063,208.0781 673.7813,208.0781 Q672.4375,208.0781 671.75,209.1563 Q671.0625,210.2188 671.0625,212.3125 Q671.0625,214.4063 671.75,215.4844 Q672.4375,216.5469 673.7813,216.5469 Q674.4063,216.5469 675,216.2813 Q675.5938,216 676.2188,215.4219 L676.2188,218.1406 Z "/><text fill="#000000" font-family="sans-serif" font-size="12" lengthAdjust="spacingAndGlyphs" textLength="139" x="693.75" y="216.6543">CloudformationSensor</text><line style="stroke: #A80036; stroke-width: 1.5;" x1="489" x2="1005" y1="228.5" y2="228.5"/><ellipse cx="499" cy="239.5" fill="none" rx="3" ry="3" style="stroke: #038048; stroke-width: 1.0;"/><text fill="#000000" font-family="sans-serif" font-size="11" lengthAdjust="spacingAndGlyphs" text-decoration="underline" textLength="126" x="508" y="242.7104">SENSOR_NAME: String</text><line style="stroke: #A80036; stroke-width: 1.5;" x1="489" x2="1005" y1="249.3047" y2="249.3047"/><ellipse cx="499" cy="260.3047" fill="#84BE84" rx="3" ry="3" style="stroke: #038048; stroke-width: 1.0;"/><text fill="#000000" font-family="sans-serif" font-size="11" lengthAdjust="spacingAndGlyphs" textLength="492" x="508" y="263.5151">CloudformationSensor(CloudformationSensorConfiguration, FileSystem, PathResolver)</text><ellipse cx="499" cy="273.1094" fill="#84BE84" rx="3" ry="3" style="stroke: #038048; stroke-width: 1.0;"/><text fill="#000000" font-family="sans-serif" font-size="11" lengthAdjust="spacingAndGlyphs" textLength="188" x="508" y="276.3198">describe(SensorDescriptor): void</text><ellipse cx="499" cy="285.9141" fill="#84BE84" rx="3" ry="3" style="stroke: #038048; stroke-width: 1.0;"/><text fill="#000000" font-family="sans-serif" font-size="11" lengthAdjust="spacingAndGlyphs" textLength="167" x="508" y="289.1245">execute(SensorContext): void</text></a><!--MD5=[fe768997cbfd64bbe9e45e6331c668d3]
class com.hack23.sonar.cloudformation.CloudformationQualityProfile--><a href="CloudformationQualityProfile.html" target="_top" title="CloudformationQualityProfile.html" xlink:actuate="onRequest" xlink:href="CloudformationQualityProfile.html" xlink:show="new" xlink:title="CloudformationQualityProfile.html" xlink:type="simple"><rect codeLine="36" fill="#FEFECE" filter="url(#f14jkpn7g8jmcg)" height="112.0234" id="com.hack23.sonar.cloudformation.CloudformationQualityProfile" style="stroke: #A80036; stroke-width: 1.5;" width="367" x="1041.5" y="190"/><ellipse cx="1132.75" cy="206" fill="#ADD1B2" rx="11" ry="11" style="stroke: #A80036; stroke-width: 1.0;"/><path d="M1135.7188,211.6406 Q1135.1406,211.9375 1134.5,212.0781 Q1133.8594,212.2344 1133.1563,212.2344 Q1130.6563,212.2344 1129.3281,210.5938 Q1128.0156,208.9375 1128.0156,205.8125 Q1128.0156,202.6875 1129.3281,201.0313 Q1130.6563,199.375 1133.1563,199.375 Q1133.8594,199.375 1134.5,199.5313 Q1135.1563,199.6875 1135.7188,199.9844 L1135.7188,202.7031 Q1135.0938,202.125 1134.5,201.8594 Q1133.9063,201.5781 1133.2813,201.5781 Q1131.9375,201.5781 1131.25,202.6563 Q1130.5625,203.7188 1130.5625,205.8125 Q1130.5625,207.9063 1131.25,208.9844 Q1131.9375,210.0469 1133.2813,210.0469 Q1133.9063,210.0469 1134.5,209.7813 Q1135.0938,209.5 1135.7188,208.9219 L1135.7188,211.6406 Z "/><text fill="#000000" font-family="sans-serif" font-size="12" lengthAdjust="spacingAndGlyphs" textLength="176" x="1153.25" y="210.1543">CloudformationQualityProfile</text><line style="stroke: #A80036; stroke-width: 1.5;" x1="1042.5" x2="1407.5" y1="222" y2="222"/><ellipse cx="1052.5" cy="233" fill="none" rx="3" ry="3" style="stroke: #038048; stroke-width: 1.0;"/><text fill="#000000" font-family="sans-serif" font-size="11" lengthAdjust="spacingAndGlyphs" text-decoration="underline" textLength="155" x="1061.5" y="236.2104">UNDEFINED_FAILURE: String</text><ellipse cx="1052.5" cy="245.8047" fill="none" rx="3" ry="3" style="stroke: #038048; stroke-width: 1.0;"/><text fill="#000000" font-family="sans-serif" font-size="11" lengthAdjust="spacingAndGlyphs" text-decoration="underline" textLength="162" x="1061.5" y="249.0151">UNDEFINED_WARNING: String</text><line style="stroke: #A80036; stroke-width: 1.5;" x1="1042.5" x2="1407.5" y1="255.6094" y2="255.6094"/><ellipse cx="1052.5" cy="266.6094" fill="#84BE84" rx="3" ry="3" style="stroke: #038048; stroke-width: 1.0;"/><text fill="#000000" font-family="sans-serif" font-size="11" lengthAdjust="spacingAndGlyphs" textLength="341" x="1061.5" y="269.8198">CloudformationQualityProfile(CloudformationRulesDefinition)</text><ellipse cx="1052.5" cy="279.4141" fill="#84BE84" rx="3" ry="3" style="stroke: #038048; stroke-width: 1.0;"/><text fill="#000000" font-family="sans-serif" font-size="11" lengthAdjust="spacingAndGlyphs" text-decoration="underline" textLength="140" x="1061.5" y="282.6245">hasRule(String): boolean</text><ellipse cx="1052.5" cy="292.2188" fill="#84BE84" rx="3" ry="3" style="stroke: #038048; stroke-width: 1.0;"/><text fill="#000000" font-family="sans-serif" font-size="11" lengthAdjust="spacingAndGlyphs" textLength="117" x="1061.5" y="295.4292">define(Context): void</text></a><!--MD5=[0c41336916cc93e234215d73ea118e70]
class org.sonar.api.server.rule.RulesDefinition--><rect codeLine="51" fill="#FEFECE" filter="url(#f14jkpn7g8jmcg)" height="60.8047" id="org.sonar.api.server.rule.RulesDefinition" style="stroke: #A80036; stroke-width: 1.5;" width="145" x="69.5" y="47.5"/><ellipse cx="93.95" cy="63.5" fill="#B4A7E5" rx="11" ry="11" style="stroke: #A80036; stroke-width: 1.0;"/><path d="M89.8719,59.2656 L89.8719,57.1094 L97.2625,57.1094 L97.2625,59.2656 L94.7938,59.2656 L94.7938,67.3438 L97.2625,67.3438 L97.2625,69.5 L89.8719,69.5 L89.8719,67.3438 L92.3406,67.3438 L92.3406,59.2656 L89.8719,59.2656 Z "/><text fill="#000000" font-family="sans-serif" font-size="12" font-style="italic" lengthAdjust="spacingAndGlyphs" textLength="92" x="110.05" y="67.6543">RulesDefinition</text><line style="stroke: #A80036; stroke-width: 1.5;" x1="70.5" x2="213.5" y1="79.5" y2="79.5"/><line style="stroke: #A80036; stroke-width: 1.5;" x1="70.5" x2="213.5" y1="87.5" y2="87.5"/><ellipse cx="80.5" cy="98.5" fill="#84BE84" rx="3" ry="3" style="stroke: #038048; stroke-width: 1.0;"/><text fill="#000000" font-family="sans-serif" font-size="11" font-style="italic" lengthAdjust="spacingAndGlyphs" textLength="119" x="89.5" y="101.7104">define(Context): void</text><!--MD5=[357bc6d468bbe4af181e679b5a7d4bc8]
class org.sonar.api.Plugin--><rect codeLine="57" fill="#FEFECE" filter="url(#f14jkpn7g8jmcg)" height="60.8047" id="org.sonar.api.Plugin" style="stroke: #A80036; stroke-width: 1.5;" width="145" x="297.5" y="47.5"/><ellipse cx="347.25" cy="63.5" fill="#B4A7E5" rx="11" ry="11" style="stroke: #A80036; stroke-width: 1.0;"/><path d="M343.1719,59.2656 L343.1719,57.1094 L350.5625,57.1094 L350.5625,59.2656 L348.0938,59.2656 L348.0938,67.3438 L350.5625,67.3438 L350.5625,69.5 L343.1719,69.5 L343.1719,67.3438 L345.6406,67.3438 L345.6406,59.2656 L343.1719,59.2656 Z "/><text fill="#000000" font-family="sans-serif" font-size="12" font-style="italic" lengthAdjust="spacingAndGlyphs" textLength="37" x="367.75" y="67.6543">Plugin</text><line style="stroke: #A80036; stroke-width: 1.5;" x1="298.5" x2="441.5" y1="79.5" y2="79.5"/><line style="stroke: #A80036; stroke-width: 1.5;" x1="298.5" x2="441.5" y1="87.5" y2="87.5"/><ellipse cx="308.5" cy="98.5" fill="#84BE84" rx="3" ry="3" style="stroke: #038048; stroke-width: 1.0;"/><text fill="#000000" font-family="sans-serif" font-size="11" font-style="italic" lengthAdjust="spacingAndGlyphs" textLength="119" x="317.5" y="101.7104">define(Context): void</text><!--MD5=[f8b565af0d68398934f95a4a7e456578]
class org.sonar.api.batch.sensor.Sensor--><rect codeLine="63" fill="#FEFECE" filter="url(#f14jkpn7g8jmcg)" height="73.6094" id="org.sonar.api.batch.sensor.Sensor" style="stroke: #A80036; stroke-width: 1.5;" width="211" x="641.5" y="41"/><ellipse cx="721.25" cy="57" fill="#B4A7E5" rx="11" ry="11" style="stroke: #A80036; stroke-width: 1.0;"/><path d="M717.1719,52.7656 L717.1719,50.6094 L724.5625,50.6094 L724.5625,52.7656 L722.0938,52.7656 L722.0938,60.8438 L724.5625,60.8438 L724.5625,63 L717.1719,63 L717.1719,60.8438 L719.6406,60.8438 L719.6406,52.7656 L717.1719,52.7656 Z "/><text fill="#000000" font-family="sans-serif" font-size="12" font-style="italic" lengthAdjust="spacingAndGlyphs" textLength="43" x="741.75" y="61.1543">Sensor</text><line style="stroke: #A80036; stroke-width: 1.5;" x1="642.5" x2="851.5" y1="73" y2="73"/><line style="stroke: #A80036; stroke-width: 1.5;" x1="642.5" x2="851.5" y1="81" y2="81"/><ellipse cx="652.5" cy="92" fill="#84BE84" rx="3" ry="3" style="stroke: #038048; stroke-width: 1.0;"/><text fill="#000000" font-family="sans-serif" font-size="11" font-style="italic" lengthAdjust="spacingAndGlyphs" textLength="185" x="661.5" y="95.2104">describe(SensorDescriptor): void</text><ellipse cx="652.5" cy="104.8047" fill="#84BE84" rx="3" ry="3" style="stroke: #038048; stroke-width: 1.0;"/><text fill="#000000" font-family="sans-serif" font-size="11" font-style="italic" lengthAdjust="spacingAndGlyphs" textLength="168" x="661.5" y="108.0151">execute(SensorContext): void</text><!--MD5=[bccf4df98d34ca024eaa4f9d7ebedb88]
class org.sonar.api.server.profile.BuiltInQualityProfilesDefinition--><rect codeLine="70" fill="#FEFECE" filter="url(#f14jkpn7g8jmcg)" height="60.8047" id="org.sonar.api.server.profile.BuiltInQualityProfilesDefinition" style="stroke: #A80036; stroke-width: 1.5;" width="216" x="1117" y="47.5"/><ellipse cx="1132" cy="63.5" fill="#B4A7E5" rx="11" ry="11" style="stroke: #A80036; stroke-width: 1.0;"/><path d="M1127.9219,59.2656 L1127.9219,57.1094 L1135.3125,57.1094 L1135.3125,59.2656 L1132.8438,59.2656 L1132.8438,67.3438 L1135.3125,67.3438 L1135.3125,69.5 L1127.9219,69.5 L1127.9219,67.3438 L1130.3906,67.3438 L1130.3906,59.2656 L1127.9219,59.2656 Z "/><text fill="#000000" font-family="sans-serif" font-size="12" font-style="italic" lengthAdjust="spacingAndGlyphs" textLength="184" x="1146" y="67.6543">BuiltInQualityProfilesDefinition</text><line style="stroke: #A80036; stroke-width: 1.5;" x1="1118" x2="1332" y1="79.5" y2="79.5"/><line style="stroke: #A80036; stroke-width: 1.5;" x1="1118" x2="1332" y1="87.5" y2="87.5"/><ellipse cx="1128" cy="98.5" fill="#84BE84" rx="3" ry="3" style="stroke: #038048; stroke-width: 1.0;"/><text fill="#000000" font-family="sans-serif" font-size="11" font-style="italic" lengthAdjust="spacingAndGlyphs" textLength="119" x="1137" y="101.7104">define(Context): void</text><!--MD5=[2bdc00f05ffbda222481780920a1d1de]
reverse link org.sonar.api.server.rule.RulesDefinition to com.hack23.sonar.cloudformation.CloudformationRulesDefinition--><path codeLine="44" d="M142,128.99 C142,150.34 142,175.18 142,196.38 " fill="none" id="org.sonar.api.server.rule.RulesDefinition-backto-com.hack23.sonar.cloudformation.CloudformationRulesDefinition" style="stroke: #A80036; stroke-width: 1.0; stroke-dasharray: 7.0,7.0;"/><polygon fill="none" points="135,128.68,142,108.68,149,128.68,135,128.68" style="stroke: #A80036; stroke-width: 1.0;"/><!--MD5=[a0a45c0a895aca957ae22b311196540e]
reverse link org.sonar.api.Plugin to com.hack23.sonar.cloudformation.CloudformationPlugin--><path codeLine="45" d="M370,128.77 C370,156.97 370,191.29 370,215.3 " fill="none" id="org.sonar.api.Plugin-backto-com.hack23.sonar.cloudformation.CloudformationPlugin" style="stroke: #A80036; stroke-width: 1.0; stroke-dasharray: 7.0,7.0;"/><polygon fill="none" points="363,128.68,370,108.68,377,128.68,363,128.68" style="stroke: #A80036; stroke-width: 1.0;"/><!--MD5=[3685ffe233817ba259f4776860359136]
reverse link org.sonar.api.batch.sensor.Sensor to com.hack23.sonar.cloudformation.CloudformationSensor--><path codeLine="46" d="M747,135.08 C747,155 747,177.22 747,196.45 " fill="none" id="org.sonar.api.batch.sensor.Sensor-backto-com.hack23.sonar.cloudformation.CloudformationSensor" style="stroke: #A80036; stroke-width: 1.0; stroke-dasharray: 7.0,7.0;"/><polygon fill="none" points="740,135.02,747,115.02,754,135.02,740,135.02" style="stroke: #A80036; stroke-width: 1.0;"/><!--MD5=[63fe7b739a87e21952d62265d328e55c]
reverse link org.sonar.api.server.profile.BuiltInQualityProfilesDefinition to com.hack23.sonar.cloudformation.CloudformationQualityProfile--><path codeLine="47" d="M1225,128.87 C1225,148.06 1225,170.08 1225,189.74 " fill="none" id="org.sonar.api.server.profile.BuiltInQualityProfilesDefinition-backto-com.hack23.sonar.cloudformation.CloudformationQualityProfile" style="stroke: #A80036; stroke-width: 1.0; stroke-dasharray: 7.0,7.0;"/><polygon fill="none" points="1218,128.68,1225,108.68,1232,128.68,1218,128.68" style="stroke: #A80036; stroke-width: 1.0;"/><!--MD5=[4267c0e0e1c496da44e4719aff5857d4]
link com.hack23.sonar.cloudformation.CloudformationSensorConfiguration to com.hack23.sonar.cloudformation.CloudformationProperties--><!--MD5=[ccf7d02e476674fce818001880d01f60]
link com.hack23.sonar.cloudformation.CloudformationSensorConfiguration to com.hack23.sonar.cloudformation.CloudformationConstants--><text fill="#888888" font-family="sans-serif" font-size="10" lengthAdjust="spacingAndGlyphs" textLength="192" x="939.5" y="467.2822">UMLDoclet 2.0.12, PlantUML 1.2020.16</text><!--MD5=[ecfca7219bfb392928d35f623e672053]
@startuml
    namespace com.hack23.sonar.cloudformation {

        class CloudformationRulesDefinition [[CloudformationRulesDefinition.html]] {
            {static} +KEY: String
            {static} +NAME: String
            +getContext(): Context
            +define(Context): void
        }

        class CloudformationSensorConfiguration [[CloudformationSensorConfiguration.html]] {
            +CloudformationSensorConfiguration(Configuration)
            +getCfnNagReportFiles(): Optional<String>
            +getCheckovReportFiles(): Optional<String>
        }

        class CloudformationPlugin [[CloudformationPlugin.html]] {
            +define(Context): void
        }

        class CloudformationProperties [[CloudformationProperties.html]] {
            {static} +getProperties(): List<PropertyDefinition>
        }

        class CloudformationConstants [[CloudformationConstants.html]] {
            {static} +CFN_NAG_REPORT_FILES_PROPERTY: String
            {static} +CHECKOV_REPORT_FILES_PROPERTY: String
        }

        class CloudformationSensor [[CloudformationSensor.html]] {
            {static} +SENSOR_NAME: String
            +CloudformationSensor(CloudformationSensorConfiguration, FileSystem, PathResolver)
            +describe(SensorDescriptor): void
            +execute(SensorContext): void
        }

        class CloudformationQualityProfile [[CloudformationQualityProfile.html]] {
            {static} +UNDEFINED_FAILURE: String
            {static} +UNDEFINED_WARNING: String
            +CloudformationQualityProfile(CloudformationRulesDefinition)
            {static} +hasRule(String): boolean
            +define(Context): void
        }

        org.sonar.api.server.rule.RulesDefinition <|.. CloudformationRulesDefinition
        org.sonar.api.Plugin <|.. CloudformationPlugin
        org.sonar.api.batch.sensor.Sensor <|.. CloudformationSensor
        org.sonar.api.server.profile.BuiltInQualityProfilesDefinition <|.. CloudformationQualityProfile
    }

    namespace org.sonar.api.server.rule {
        interface RulesDefinition {
            {abstract} +define(Context): void
        }
    }

    namespace org.sonar.api {
        interface Plugin {
            {abstract} +define(Context): void
        }
    }

    namespace org.sonar.api.batch.sensor {
        interface Sensor {
            {abstract} +describe(SensorDescriptor): void
            {abstract} +execute(SensorContext): void
        }
    }

    namespace org.sonar.api.server.profile {
        interface BuiltInQualityProfilesDefinition {
            {abstract} +define(Context): void
        }
    }

    center footer UMLDoclet 2.0.12, PlantUML 1.2020.16
@enduml

PlantUML version 1.2020.16(Sun Aug 23 22:20:43 CEST 2020)
(APACHE source distribution)
Java Runtime: OpenJDK Runtime Environment
JVM: OpenJDK 64-Bit Server VM
Default Encoding: UTF-8
Language: en
Country: US
--></g></svg>