<?xml version="1.0" encoding="UTF-8" standalone="no"?><svg xmlns="http://www.w3.org/2000/svg" xmlns:xlink="http://www.w3.org/1999/xlink" contentScriptType="application/ecmascript" contentStyleType="text/css" height="530px" preserveAspectRatio="none" style="width:2176px;height:530px;" version="1.1" viewBox="0 0 2176 530" width="2176px" zoomAndPan="magnify"><defs><filter height="300%" id="fzqs8ag9sowsx" width="300%" x="-1" y="-1"><feGaussianBlur result="blurOut" stdDeviation="2.0"/><feColorMatrix in="blurOut" result="blurOut2" type="matrix" values="0 0 0 0 0 0 0 0 0 0 0 0 0 0 0 0 0 0 .4 0"/><feOffset dx="4.0" dy="4.0" in="blurOut2" result="blurOut3"/><feBlend in="SourceGraphic" in2="blurOut3" mode="normal"/></filter></defs><g><!--MD5=[7efd255d87f67ac79da5c4891114ef95]
cluster com.hack23.sonar.cloudformation--><polygon fill="#FFFFFF" filter="url(#fzqs8ag9sowsx)" points="22,173,297,173,304,195.2969,2154,195.2969,2154,482,22,482,22,173" style="stroke: #000000; stroke-width: 1.5;"/><line style="stroke: #000000; stroke-width: 1.5;" x1="22" x2="304" y1="195.2969" y2="195.2969"/><text fill="#000000" font-family="sans-serif" font-size="14" font-weight="bold" lengthAdjust="spacingAndGlyphs" textLength="269" x="26" y="187.9951">com.hack23.sonar.cloudformation</text><!--MD5=[069966ec46c27c575c0e14a62cc3970a]
cluster org.sonar.api.batch.sensor--><polygon fill="#FFFFFF" filter="url(#fzqs8ag9sowsx)" points="175,24,395,24,402,46.2969,419,46.2969,419,149,175,149,175,24" style="stroke: #000000; stroke-width: 1.5;"/><line style="stroke: #000000; stroke-width: 1.5;" x1="175" x2="402" y1="46.2969" y2="46.2969"/><text fill="#000000" font-family="sans-serif" font-size="14" font-weight="bold" lengthAdjust="spacingAndGlyphs" textLength="214" x="179" y="38.9951">org.sonar.api.batch.sensor</text><!--MD5=[ed82d9bf0a7e82c39fc0b923e4deffa3]
cluster org.sonar.api.server.profile--><polygon fill="#FFFFFF" filter="url(#fzqs8ag9sowsx)" points="571,30.5,795,30.5,802,52.7969,819,52.7969,819,142.5,571,142.5,571,30.5" style="stroke: #000000; stroke-width: 1.5;"/><line style="stroke: #000000; stroke-width: 1.5;" x1="571" x2="802" y1="52.7969" y2="52.7969"/><text fill="#000000" font-family="sans-serif" font-size="14" font-weight="bold" lengthAdjust="spacingAndGlyphs" textLength="218" x="575" y="45.4951">org.sonar.api.server.profile</text><!--MD5=[d3bfeb526ca1008dfb54863d3a7224f6]
cluster org.sonar.api.server.rule--><polygon fill="#FFFFFF" filter="url(#fzqs8ag9sowsx)" points="1051,30.5,1255,30.5,1262,52.7969,1265,52.7969,1265,142.5,1051,142.5,1051,30.5" style="stroke: #000000; stroke-width: 1.5;"/><line style="stroke: #000000; stroke-width: 1.5;" x1="1051" x2="1262" y1="52.7969" y2="52.7969"/><text fill="#000000" font-family="sans-serif" font-size="14" font-weight="bold" lengthAdjust="spacingAndGlyphs" textLength="198" x="1055" y="45.4951">org.sonar.api.server.rule</text><!--MD5=[6a86e12f8c3573ef90e7334d9e934390]
cluster org.sonar.api--><polygon fill="#FFFFFF" filter="url(#fzqs8ag9sowsx)" points="1289,30.5,1400,30.5,1407,52.7969,1603,52.7969,1603,142.5,1289,142.5,1289,30.5" style="stroke: #000000; stroke-width: 1.5;"/><line style="stroke: #000000; stroke-width: 1.5;" x1="1289" x2="1407" y1="52.7969" y2="52.7969"/><text fill="#000000" font-family="sans-serif" font-size="14" font-weight="bold" lengthAdjust="spacingAndGlyphs" textLength="105" x="1293" y="45.4951">org.sonar.api</text><!--MD5=[5cd76e2d5be102320ba6d55700009822]
class com.hack23.sonar.cloudformation.CloudformationSensor--><a href="CloudformationSensor.html" target="_top" title="CloudformationSensor.html" xlink:actuate="onRequest" xlink:href="CloudformationSensor.html" xlink:show="new" xlink:title="CloudformationSensor.html" xlink:type="simple"><rect fill="#FEFECE" filter="url(#fzqs8ag9sowsx)" height="99.2188" id="com.hack23.sonar.cloudformation.CloudformationSensor" style="stroke: #A80036; stroke-width: 1.5;" width="518" x="38" y="214.5"/><ellipse cx="223.25" cy="230.5" fill="#ADD1B2" rx="11" ry="11" style="stroke: #A80036; stroke-width: 1.0;"/><path d="M226.2188,236.1406 Q225.6406,236.4375 225,236.5781 Q224.3594,236.7344 223.6563,236.7344 Q221.1563,236.7344 219.8281,235.0938 Q218.5156,233.4375 218.5156,230.3125 Q218.5156,227.1875 219.8281,225.5313 Q221.1563,223.875 223.6563,223.875 Q224.3594,223.875 225,224.0313 Q225.6563,224.1875 226.2188,224.4844 L226.2188,227.2031 Q225.5938,226.625 225,226.3594 Q224.4063,226.0781 223.7813,226.0781 Q222.4375,226.0781 221.75,227.1563 Q221.0625,228.2188 221.0625,230.3125 Q221.0625,232.4063 221.75,233.4844 Q222.4375,234.5469 223.7813,234.5469 Q224.4063,234.5469 225,234.2813 Q225.5938,234 226.2188,233.4219 L226.2188,236.1406 Z "/><text fill="#000000" font-family="sans-serif" font-size="12" lengthAdjust="spacingAndGlyphs" textLength="139" x="243.75" y="234.6543">CloudformationSensor</text><line style="stroke: #A80036; stroke-width: 1.5;" x1="39" x2="555" y1="246.5" y2="246.5"/><ellipse cx="49" cy="257.5" fill="none" rx="3" ry="3" style="stroke: #038048; stroke-width: 1.0;"/><text fill="#000000" font-family="sans-serif" font-size="11" lengthAdjust="spacingAndGlyphs" text-decoration="underline" textLength="126" x="58" y="260.7104">SENSOR_NAME: String</text><line style="stroke: #A80036; stroke-width: 1.5;" x1="39" x2="555" y1="267.3047" y2="267.3047"/><ellipse cx="49" cy="278.3047" fill="#84BE84" rx="3" ry="3" style="stroke: #038048; stroke-width: 1.0;"/><text fill="#000000" font-family="sans-serif" font-size="11" lengthAdjust="spacingAndGlyphs" textLength="492" x="58" y="281.5151">CloudformationSensor(CloudformationSensorConfiguration, FileSystem, PathResolver)</text><ellipse cx="49" cy="291.1094" fill="#84BE84" rx="3" ry="3" style="stroke: #038048; stroke-width: 1.0;"/><text fill="#000000" font-family="sans-serif" font-size="11" lengthAdjust="spacingAndGlyphs" textLength="188" x="58" y="294.3198">describe(SensorDescriptor): void</text><ellipse cx="49" cy="303.9141" fill="#84BE84" rx="3" ry="3" style="stroke: #038048; stroke-width: 1.0;"/><text fill="#000000" font-family="sans-serif" font-size="11" lengthAdjust="spacingAndGlyphs" textLength="167" x="58" y="307.1245">execute(SensorContext): void</text></a><!--MD5=[fe768997cbfd64bbe9e45e6331c668d3]
class com.hack23.sonar.cloudformation.CloudformationQualityProfile--><a href="CloudformationQualityProfile.html" target="_top" title="CloudformationQualityProfile.html" xlink:actuate="onRequest" xlink:href="CloudformationQualityProfile.html" xlink:show="new" xlink:title="CloudformationQualityProfile.html" xlink:type="simple"><rect fill="#FEFECE" filter="url(#fzqs8ag9sowsx)" height="73.6094" id="com.hack23.sonar.cloudformation.CloudformationQualityProfile" style="stroke: #A80036; stroke-width: 1.5;" width="208" x="591" y="227"/><ellipse cx="606" cy="243" fill="#ADD1B2" rx="11" ry="11" style="stroke: #A80036; stroke-width: 1.0;"/><path d="M608.9688,248.6406 Q608.3906,248.9375 607.75,249.0781 Q607.1094,249.2344 606.4063,249.2344 Q603.9063,249.2344 602.5781,247.5938 Q601.2656,245.9375 601.2656,242.8125 Q601.2656,239.6875 602.5781,238.0313 Q603.9063,236.375 606.4063,236.375 Q607.1094,236.375 607.75,236.5313 Q608.4063,236.6875 608.9688,236.9844 L608.9688,239.7031 Q608.3438,239.125 607.75,238.8594 Q607.1563,238.5781 606.5313,238.5781 Q605.1875,238.5781 604.5,239.6563 Q603.8125,240.7188 603.8125,242.8125 Q603.8125,244.9063 604.5,245.9844 Q605.1875,247.0469 606.5313,247.0469 Q607.1563,247.0469 607.75,246.7813 Q608.3438,246.5 608.9688,245.9219 L608.9688,248.6406 Z "/><text fill="#000000" font-family="sans-serif" font-size="12" lengthAdjust="spacingAndGlyphs" textLength="176" x="620" y="247.1543">CloudformationQualityProfile</text><line style="stroke: #A80036; stroke-width: 1.5;" x1="592" x2="798" y1="259" y2="259"/><line style="stroke: #A80036; stroke-width: 1.5;" x1="592" x2="798" y1="267" y2="267"/><ellipse cx="602" cy="278" fill="#84BE84" rx="3" ry="3" style="stroke: #038048; stroke-width: 1.0;"/><text fill="#000000" font-family="sans-serif" font-size="11" lengthAdjust="spacingAndGlyphs" text-decoration="underline" textLength="140" x="611" y="281.2104">hasRule(String): boolean</text><ellipse cx="602" cy="290.8047" fill="#84BE84" rx="3" ry="3" style="stroke: #038048; stroke-width: 1.0;"/><text fill="#000000" font-family="sans-serif" font-size="11" lengthAdjust="spacingAndGlyphs" textLength="117" x="611" y="294.0151">define(Context): void</text></a><!--MD5=[7855ddd67fbdcedf10db43e001c684f0]
class com.hack23.sonar.cloudformation.CloudformationLanguage--><a href="CloudformationLanguage.html" target="_top" title="CloudformationLanguage.html" xlink:actuate="onRequest" xlink:href="CloudformationLanguage.html" xlink:show="new" xlink:title="CloudformationLanguage.html" xlink:type="simple"><rect fill="#FEFECE" filter="url(#fzqs8ag9sowsx)" height="99.2188" id="com.hack23.sonar.cloudformation.CloudformationLanguage" style="stroke: #A80036; stroke-width: 1.5;" width="252" x="834" y="214.5"/><ellipse cx="877.35" cy="230.5" fill="#ADD1B2" rx="11" ry="11" style="stroke: #A80036; stroke-width: 1.0;"/><path d="M880.3188,236.1406 Q879.7406,236.4375 879.1,236.5781 Q878.4594,236.7344 877.7563,236.7344 Q875.2563,236.7344 873.9281,235.0938 Q872.6156,233.4375 872.6156,230.3125 Q872.6156,227.1875 873.9281,225.5313 Q875.2563,223.875 877.7563,223.875 Q878.4594,223.875 879.1,224.0313 Q879.7563,224.1875 880.3188,224.4844 L880.3188,227.2031 Q879.6938,226.625 879.1,226.3594 Q878.5063,226.0781 877.8813,226.0781 Q876.5375,226.0781 875.85,227.1563 Q875.1625,228.2188 875.1625,230.3125 Q875.1625,232.4063 875.85,233.4844 Q876.5375,234.5469 877.8813,234.5469 Q878.5063,234.5469 879.1,234.2813 Q879.6938,234 880.3188,233.4219 L880.3188,236.1406 Z "/><text fill="#000000" font-family="sans-serif" font-size="12" lengthAdjust="spacingAndGlyphs" textLength="157" x="897.65" y="234.6543">CloudformationLanguage</text><line style="stroke: #A80036; stroke-width: 1.5;" x1="835" x2="1085" y1="246.5" y2="246.5"/><ellipse cx="845" cy="257.5" fill="none" rx="3" ry="3" style="stroke: #038048; stroke-width: 1.0;"/><text fill="#000000" font-family="sans-serif" font-size="11" lengthAdjust="spacingAndGlyphs" text-decoration="underline" textLength="73" x="854" y="260.7104">NAME: String</text><ellipse cx="845" cy="270.3047" fill="none" rx="3" ry="3" style="stroke: #038048; stroke-width: 1.0;"/><text fill="#000000" font-family="sans-serif" font-size="11" lengthAdjust="spacingAndGlyphs" text-decoration="underline" textLength="63" x="854" y="273.5151">KEY: String</text><line style="stroke: #A80036; stroke-width: 1.5;" x1="835" x2="1085" y1="280.1094" y2="280.1094"/><ellipse cx="845" cy="291.1094" fill="#84BE84" rx="3" ry="3" style="stroke: #038048; stroke-width: 1.0;"/><text fill="#000000" font-family="sans-serif" font-size="11" lengthAdjust="spacingAndGlyphs" textLength="226" x="854" y="294.3198">CloudformationLanguage(Configuration)</text><ellipse cx="845" cy="303.9141" fill="#84BE84" rx="3" ry="3" style="stroke: #038048; stroke-width: 1.0;"/><text fill="#000000" font-family="sans-serif" font-size="11" lengthAdjust="spacingAndGlyphs" textLength="141" x="854" y="307.1245">getFileSuffixes(): String[]</text></a><!--MD5=[c3108af317c2c934cdb7e0b2dc4ec977]
class com.hack23.sonar.cloudformation.CloudformationSensorConfiguration--><a href="CloudformationSensorConfiguration.html" target="_top" title="CloudformationSensorConfiguration.html" xlink:actuate="onRequest" xlink:href="CloudformationSensorConfiguration.html" xlink:show="new" xlink:title="CloudformationSensorConfiguration.html" xlink:type="simple"><rect fill="#FEFECE" filter="url(#fzqs8ag9sowsx)" height="73.6094" id="com.hack23.sonar.cloudformation.CloudformationSensorConfiguration" style="stroke: #A80036; stroke-width: 1.5;" width="314" x="1577" y="227"/><ellipse cx="1618.55" cy="243" fill="#ADD1B2" rx="11" ry="11" style="stroke: #A80036; stroke-width: 1.0;"/><path d="M1621.5188,248.6406 Q1620.9406,248.9375 1620.3,249.0781 Q1619.6594,249.2344 1618.9563,249.2344 Q1616.4563,249.2344 1615.1281,247.5938 Q1613.8156,245.9375 1613.8156,242.8125 Q1613.8156,239.6875 1615.1281,238.0313 Q1616.4563,236.375 1618.9563,236.375 Q1619.6594,236.375 1620.3,236.5313 Q1620.9563,236.6875 1621.5188,236.9844 L1621.5188,239.7031 Q1620.8938,239.125 1620.3,238.8594 Q1619.7063,238.5781 1619.0813,238.5781 Q1617.7375,238.5781 1617.05,239.6563 Q1616.3625,240.7188 1616.3625,242.8125 Q1616.3625,244.9063 1617.05,245.9844 Q1617.7375,247.0469 1619.0813,247.0469 Q1619.7063,247.0469 1620.3,246.7813 Q1620.8938,246.5 1621.5188,245.9219 L1621.5188,248.6406 Z "/><text fill="#000000" font-family="sans-serif" font-size="12" lengthAdjust="spacingAndGlyphs" textLength="223" x="1638.45" y="247.1543">CloudformationSensorConfiguration</text><line style="stroke: #A80036; stroke-width: 1.5;" x1="1578" x2="1890" y1="259" y2="259"/><line style="stroke: #A80036; stroke-width: 1.5;" x1="1578" x2="1890" y1="267" y2="267"/><ellipse cx="1588" cy="278" fill="#84BE84" rx="3" ry="3" style="stroke: #038048; stroke-width: 1.0;"/><text fill="#000000" font-family="sans-serif" font-size="11" lengthAdjust="spacingAndGlyphs" textLength="288" x="1597" y="281.2104">CloudformationSensorConfiguration(Configuration)</text><ellipse cx="1588" cy="290.8047" fill="#84BE84" rx="3" ry="3" style="stroke: #038048; stroke-width: 1.0;"/><text fill="#000000" font-family="sans-serif" font-size="11" lengthAdjust="spacingAndGlyphs" textLength="196" x="1597" y="294.0151">getReportFiles(): Optional&lt;String&gt;</text></a><!--MD5=[0d6d0e5b973745eeb597137a51ee0af0]
class com.hack23.sonar.cloudformation.CloudformationConstants--><a href="CloudformationConstants.html" target="_top" title="CloudformationConstants.html" xlink:actuate="onRequest" xlink:href="CloudformationConstants.html" xlink:show="new" xlink:title="CloudformationConstants.html" xlink:type="simple"><rect fill="#FEFECE" filter="url(#fzqs8ag9sowsx)" height="60.8047" id="com.hack23.sonar.cloudformation.CloudformationConstants" style="stroke: #A80036; stroke-width: 1.5;" width="212" x="1926" y="233.5"/><ellipse cx="1950.45" cy="249.5" fill="#ADD1B2" rx="11" ry="11" style="stroke: #A80036; stroke-width: 1.0;"/><path d="M1953.4188,255.1406 Q1952.8406,255.4375 1952.2,255.5781 Q1951.5594,255.7344 1950.8563,255.7344 Q1948.3563,255.7344 1947.0281,254.0938 Q1945.7156,252.4375 1945.7156,249.3125 Q1945.7156,246.1875 1947.0281,244.5313 Q1948.3563,242.875 1950.8563,242.875 Q1951.5594,242.875 1952.2,243.0313 Q1952.8563,243.1875 1953.4188,243.4844 L1953.4188,246.2031 Q1952.7938,245.625 1952.2,245.3594 Q1951.6063,245.0781 1950.9813,245.0781 Q1949.6375,245.0781 1948.95,246.1563 Q1948.2625,247.2188 1948.2625,249.3125 Q1948.2625,251.4063 1948.95,252.4844 Q1949.6375,253.5469 1950.9813,253.5469 Q1951.6063,253.5469 1952.2,253.2813 Q1952.7938,253 1953.4188,252.4219 L1953.4188,255.1406 Z "/><text fill="#000000" font-family="sans-serif" font-size="12" lengthAdjust="spacingAndGlyphs" textLength="159" x="1966.55" y="253.6543">CloudformationConstants</text><line style="stroke: #A80036; stroke-width: 1.5;" x1="1927" x2="2137" y1="265.5" y2="265.5"/><ellipse cx="1937" cy="276.5" fill="none" rx="3" ry="3" style="stroke: #038048; stroke-width: 1.0;"/><text fill="#000000" font-family="sans-serif" font-size="11" lengthAdjust="spacingAndGlyphs" text-decoration="underline" textLength="186" x="1946" y="279.7104">REPORT_FILES_PROPERTY: String</text><line style="stroke: #A80036; stroke-width: 1.5;" x1="1927" x2="2137" y1="286.3047" y2="286.3047"/></a><!--MD5=[9ad602e740eec67d73c5d598917426ba]
class com.hack23.sonar.cloudformation.CloudformationRulesDefinition--><a href="CloudformationRulesDefinition.html" target="_top" title="CloudformationRulesDefinition.html" xlink:actuate="onRequest" xlink:href="CloudformationRulesDefinition.html" xlink:show="new" xlink:title="CloudformationRulesDefinition.html" xlink:type="simple"><rect fill="#FEFECE" filter="url(#fzqs8ag9sowsx)" height="112.0234" id="com.hack23.sonar.cloudformation.CloudformationRulesDefinition" style="stroke: #A80036; stroke-width: 1.5;" width="220" x="1121" y="208"/><ellipse cx="1136" cy="224" fill="#ADD1B2" rx="11" ry="11" style="stroke: #A80036; stroke-width: 1.0;"/><path d="M1138.9688,229.6406 Q1138.3906,229.9375 1137.75,230.0781 Q1137.1094,230.2344 1136.4063,230.2344 Q1133.9063,230.2344 1132.5781,228.5938 Q1131.2656,226.9375 1131.2656,223.8125 Q1131.2656,220.6875 1132.5781,219.0313 Q1133.9063,217.375 1136.4063,217.375 Q1137.1094,217.375 1137.75,217.5313 Q1138.4063,217.6875 1138.9688,217.9844 L1138.9688,220.7031 Q1138.3438,220.125 1137.75,219.8594 Q1137.1563,219.5781 1136.5313,219.5781 Q1135.1875,219.5781 1134.5,220.6563 Q1133.8125,221.7188 1133.8125,223.8125 Q1133.8125,225.9063 1134.5,226.9844 Q1135.1875,228.0469 1136.5313,228.0469 Q1137.1563,228.0469 1137.75,227.7813 Q1138.3438,227.5 1138.9688,226.9219 L1138.9688,229.6406 Z "/><text fill="#000000" font-family="sans-serif" font-size="12" lengthAdjust="spacingAndGlyphs" textLength="188" x="1150" y="228.1543">CloudformationRulesDefinition</text><line style="stroke: #A80036; stroke-width: 1.5;" x1="1122" x2="1340" y1="240" y2="240"/><ellipse cx="1132" cy="251" fill="none" rx="3" ry="3" style="stroke: #038048; stroke-width: 1.0;"/><text fill="#000000" font-family="sans-serif" font-size="11" lengthAdjust="spacingAndGlyphs" text-decoration="underline" textLength="63" x="1141" y="254.2104">KEY: String</text><ellipse cx="1132" cy="263.8047" fill="none" rx="3" ry="3" style="stroke: #038048; stroke-width: 1.0;"/><text fill="#000000" font-family="sans-serif" font-size="11" lengthAdjust="spacingAndGlyphs" text-decoration="underline" textLength="73" x="1141" y="267.0151">NAME: String</text><ellipse cx="1132" cy="276.6094" fill="none" rx="3" ry="3" style="stroke: #038048; stroke-width: 1.0;"/><text fill="#000000" font-family="sans-serif" font-size="11" lengthAdjust="spacingAndGlyphs" text-decoration="underline" textLength="99" x="1141" y="279.8198">REPO_KEY: String</text><ellipse cx="1132" cy="289.4141" fill="none" rx="3" ry="3" style="stroke: #038048; stroke-width: 1.0;"/><text fill="#000000" font-family="sans-serif" font-size="11" lengthAdjust="spacingAndGlyphs" text-decoration="underline" textLength="109" x="1141" y="292.6245">REPO_NAME: String</text><line style="stroke: #A80036; stroke-width: 1.5;" x1="1122" x2="1340" y1="299.2188" y2="299.2188"/><ellipse cx="1132" cy="310.2188" fill="#84BE84" rx="3" ry="3" style="stroke: #038048; stroke-width: 1.0;"/><text fill="#000000" font-family="sans-serif" font-size="11" lengthAdjust="spacingAndGlyphs" textLength="117" x="1141" y="313.4292">define(Context): void</text></a><!--MD5=[4e78556fd0fd0f12622aab97e46ad39c]
class com.hack23.sonar.cloudformation.CloudformationPlugin--><a href="CloudformationPlugin.html" target="_top" title="CloudformationPlugin.html" xlink:actuate="onRequest" xlink:href="CloudformationPlugin.html" xlink:show="new" xlink:title="CloudformationPlugin.html" xlink:type="simple"><rect fill="#FEFECE" filter="url(#fzqs8ag9sowsx)" height="60.8047" id="com.hack23.sonar.cloudformation.CloudformationPlugin" style="stroke: #A80036; stroke-width: 1.5;" width="165" x="1376.5" y="233.5"/><ellipse cx="1391.5" cy="249.5" fill="#ADD1B2" rx="11" ry="11" style="stroke: #A80036; stroke-width: 1.0;"/><path d="M1394.4688,255.1406 Q1393.8906,255.4375 1393.25,255.5781 Q1392.6094,255.7344 1391.9063,255.7344 Q1389.4063,255.7344 1388.0781,254.0938 Q1386.7656,252.4375 1386.7656,249.3125 Q1386.7656,246.1875 1388.0781,244.5313 Q1389.4063,242.875 1391.9063,242.875 Q1392.6094,242.875 1393.25,243.0313 Q1393.9063,243.1875 1394.4688,243.4844 L1394.4688,246.2031 Q1393.8438,245.625 1393.25,245.3594 Q1392.6563,245.0781 1392.0313,245.0781 Q1390.6875,245.0781 1390,246.1563 Q1389.3125,247.2188 1389.3125,249.3125 Q1389.3125,251.4063 1390,252.4844 Q1390.6875,253.5469 1392.0313,253.5469 Q1392.6563,253.5469 1393.25,253.2813 Q1393.8438,253 1394.4688,252.4219 L1394.4688,255.1406 Z "/><text fill="#000000" font-family="sans-serif" font-size="12" lengthAdjust="spacingAndGlyphs" textLength="133" x="1405.5" y="253.6543">CloudformationPlugin</text><line style="stroke: #A80036; stroke-width: 1.5;" x1="1377.5" x2="1540.5" y1="265.5" y2="265.5"/><line style="stroke: #A80036; stroke-width: 1.5;" x1="1377.5" x2="1540.5" y1="273.5" y2="273.5"/><ellipse cx="1387.5" cy="284.5" fill="#84BE84" rx="3" ry="3" style="stroke: #038048; stroke-width: 1.0;"/><text fill="#000000" font-family="sans-serif" font-size="11" lengthAdjust="spacingAndGlyphs" textLength="117" x="1396.5" y="287.7104">define(Context): void</text></a><!--MD5=[17b8c490b45d6f269308ea962cf0181d]
class com.hack23.sonar.cloudformation.CloudformationProperties--><a href="CloudformationProperties.html" target="_top" title="CloudformationProperties.html" xlink:actuate="onRequest" xlink:href="CloudformationProperties.html" xlink:show="new" xlink:title="CloudformationProperties.html" xlink:type="simple"><rect fill="#FEFECE" filter="url(#fzqs8ag9sowsx)" height="86.4141" id="com.hack23.sonar.cloudformation.CloudformationProperties" style="stroke: #A80036; stroke-width: 1.5;" width="258" x="1605" y="380"/><ellipse cx="1649.75" cy="396" fill="#ADD1B2" rx="11" ry="11" style="stroke: #A80036; stroke-width: 1.0;"/><path d="M1652.7188,401.6406 Q1652.1406,401.9375 1651.5,402.0781 Q1650.8594,402.2344 1650.1563,402.2344 Q1647.6563,402.2344 1646.3281,400.5938 Q1645.0156,398.9375 1645.0156,395.8125 Q1645.0156,392.6875 1646.3281,391.0313 Q1647.6563,389.375 1650.1563,389.375 Q1650.8594,389.375 1651.5,389.5313 Q1652.1563,389.6875 1652.7188,389.9844 L1652.7188,392.7031 Q1652.0938,392.125 1651.5,391.8594 Q1650.9063,391.5781 1650.2813,391.5781 Q1648.9375,391.5781 1648.25,392.6563 Q1647.5625,393.7188 1647.5625,395.8125 Q1647.5625,397.9063 1648.25,398.9844 Q1648.9375,400.0469 1650.2813,400.0469 Q1650.9063,400.0469 1651.5,399.7813 Q1652.0938,399.5 1652.7188,398.9219 L1652.7188,401.6406 Z "/><text fill="#000000" font-family="sans-serif" font-size="12" lengthAdjust="spacingAndGlyphs" textLength="160" x="1670.25" y="400.1543">CloudformationProperties</text><line style="stroke: #A80036; stroke-width: 1.5;" x1="1606" x2="1862" y1="412" y2="412"/><ellipse cx="1616" cy="423" fill="none" rx="3" ry="3" style="stroke: #038048; stroke-width: 1.0;"/><text fill="#000000" font-family="sans-serif" font-size="11" lengthAdjust="spacingAndGlyphs" text-decoration="underline" textLength="150" x="1625" y="426.2104">FILE_SUFFIXES_KEY: String</text><ellipse cx="1616" cy="435.8047" fill="none" rx="3" ry="3" style="stroke: #038048; stroke-width: 1.0;"/><text fill="#000000" font-family="sans-serif" font-size="11" lengthAdjust="spacingAndGlyphs" text-decoration="underline" textLength="219" x="1625" y="439.0151">FILE_SUFFIXES_DEFAULT_VALUE: String</text><line style="stroke: #A80036; stroke-width: 1.5;" x1="1606" x2="1862" y1="445.6094" y2="445.6094"/><ellipse cx="1616" cy="456.6094" fill="#84BE84" rx="3" ry="3" style="stroke: #038048; stroke-width: 1.0;"/><text fill="#000000" font-family="sans-serif" font-size="11" lengthAdjust="spacingAndGlyphs" text-decoration="underline" textLength="232" x="1625" y="459.8198">getProperties(): List&lt;PropertyDefinition&gt;</text></a><!--MD5=[f8b565af0d68398934f95a4a7e456578]
class org.sonar.api.batch.sensor.Sensor--><rect fill="#FEFECE" filter="url(#fzqs8ag9sowsx)" height="73.6094" id="org.sonar.api.batch.sensor.Sensor" style="stroke: #A80036; stroke-width: 1.5;" width="211" x="191.5" y="59"/><ellipse cx="271.25" cy="75" fill="#B4A7E5" rx="11" ry="11" style="stroke: #A80036; stroke-width: 1.0;"/><path d="M267.1719,70.7656 L267.1719,68.6094 L274.5625,68.6094 L274.5625,70.7656 L272.0938,70.7656 L272.0938,78.8438 L274.5625,78.8438 L274.5625,81 L267.1719,81 L267.1719,78.8438 L269.6406,78.8438 L269.6406,70.7656 L267.1719,70.7656 Z "/><text fill="#000000" font-family="sans-serif" font-size="12" font-style="italic" lengthAdjust="spacingAndGlyphs" textLength="43" x="291.75" y="79.1543">Sensor</text><line style="stroke: #A80036; stroke-width: 1.5;" x1="192.5" x2="401.5" y1="91" y2="91"/><line style="stroke: #A80036; stroke-width: 1.5;" x1="192.5" x2="401.5" y1="99" y2="99"/><ellipse cx="202.5" cy="110" fill="#84BE84" rx="3" ry="3" style="stroke: #038048; stroke-width: 1.0;"/><text fill="#000000" font-family="sans-serif" font-size="11" font-style="italic" lengthAdjust="spacingAndGlyphs" textLength="185" x="211.5" y="113.2104">describe(SensorDescriptor): void</text><ellipse cx="202.5" cy="122.8047" fill="#84BE84" rx="3" ry="3" style="stroke: #038048; stroke-width: 1.0;"/><text fill="#000000" font-family="sans-serif" font-size="11" font-style="italic" lengthAdjust="spacingAndGlyphs" textLength="168" x="211.5" y="126.0151">execute(SensorContext): void</text><!--MD5=[bccf4df98d34ca024eaa4f9d7ebedb88]
class org.sonar.api.server.profile.BuiltInQualityProfilesDefinition--><rect fill="#FEFECE" filter="url(#fzqs8ag9sowsx)" height="60.8047" id="org.sonar.api.server.profile.BuiltInQualityProfilesDefinition" style="stroke: #A80036; stroke-width: 1.5;" width="216" x="587" y="65.5"/><ellipse cx="602" cy="81.5" fill="#B4A7E5" rx="11" ry="11" style="stroke: #A80036; stroke-width: 1.0;"/><path d="M597.9219,77.2656 L597.9219,75.1094 L605.3125,75.1094 L605.3125,77.2656 L602.8438,77.2656 L602.8438,85.3438 L605.3125,85.3438 L605.3125,87.5 L597.9219,87.5 L597.9219,85.3438 L600.3906,85.3438 L600.3906,77.2656 L597.9219,77.2656 Z "/><text fill="#000000" font-family="sans-serif" font-size="12" font-style="italic" lengthAdjust="spacingAndGlyphs" textLength="184" x="616" y="85.6543">BuiltInQualityProfilesDefinition</text><line style="stroke: #A80036; stroke-width: 1.5;" x1="588" x2="802" y1="97.5" y2="97.5"/><line style="stroke: #A80036; stroke-width: 1.5;" x1="588" x2="802" y1="105.5" y2="105.5"/><ellipse cx="598" cy="116.5" fill="#84BE84" rx="3" ry="3" style="stroke: #038048; stroke-width: 1.0;"/><text fill="#000000" font-family="sans-serif" font-size="11" font-style="italic" lengthAdjust="spacingAndGlyphs" textLength="119" x="607" y="119.7104">define(Context): void</text><!--MD5=[0c41336916cc93e234215d73ea118e70]
class org.sonar.api.server.rule.RulesDefinition--><rect fill="#FEFECE" filter="url(#fzqs8ag9sowsx)" height="60.8047" id="org.sonar.api.server.rule.RulesDefinition" style="stroke: #A80036; stroke-width: 1.5;" width="145" x="1103.5" y="65.5"/><ellipse cx="1127.95" cy="81.5" fill="#B4A7E5" rx="11" ry="11" style="stroke: #A80036; stroke-width: 1.0;"/><path d="M1123.8719,77.2656 L1123.8719,75.1094 L1131.2625,75.1094 L1131.2625,77.2656 L1128.7938,77.2656 L1128.7938,85.3438 L1131.2625,85.3438 L1131.2625,87.5 L1123.8719,87.5 L1123.8719,85.3438 L1126.3406,85.3438 L1126.3406,77.2656 L1123.8719,77.2656 Z "/><text fill="#000000" font-family="sans-serif" font-size="12" font-style="italic" lengthAdjust="spacingAndGlyphs" textLength="92" x="1144.05" y="85.6543">RulesDefinition</text><line style="stroke: #A80036; stroke-width: 1.5;" x1="1104.5" x2="1247.5" y1="97.5" y2="97.5"/><line style="stroke: #A80036; stroke-width: 1.5;" x1="1104.5" x2="1247.5" y1="105.5" y2="105.5"/><ellipse cx="1114.5" cy="116.5" fill="#84BE84" rx="3" ry="3" style="stroke: #038048; stroke-width: 1.0;"/><text fill="#000000" font-family="sans-serif" font-size="11" font-style="italic" lengthAdjust="spacingAndGlyphs" textLength="119" x="1123.5" y="119.7104">define(Context): void</text><!--MD5=[357bc6d468bbe4af181e679b5a7d4bc8]
class org.sonar.api.Plugin--><rect fill="#FEFECE" filter="url(#fzqs8ag9sowsx)" height="60.8047" id="org.sonar.api.Plugin" style="stroke: #A80036; stroke-width: 1.5;" width="145" x="1441.5" y="65.5"/><ellipse cx="1491.25" cy="81.5" fill="#B4A7E5" rx="11" ry="11" style="stroke: #A80036; stroke-width: 1.0;"/><path d="M1487.1719,77.2656 L1487.1719,75.1094 L1494.5625,75.1094 L1494.5625,77.2656 L1492.0938,77.2656 L1492.0938,85.3438 L1494.5625,85.3438 L1494.5625,87.5 L1487.1719,87.5 L1487.1719,85.3438 L1489.6406,85.3438 L1489.6406,77.2656 L1487.1719,77.2656 Z "/><text fill="#000000" font-family="sans-serif" font-size="12" font-style="italic" lengthAdjust="spacingAndGlyphs" textLength="37" x="1511.75" y="85.6543">Plugin</text><line style="stroke: #A80036; stroke-width: 1.5;" x1="1442.5" x2="1585.5" y1="97.5" y2="97.5"/><line style="stroke: #A80036; stroke-width: 1.5;" x1="1442.5" x2="1585.5" y1="105.5" y2="105.5"/><ellipse cx="1452.5" cy="116.5" fill="#84BE84" rx="3" ry="3" style="stroke: #038048; stroke-width: 1.0;"/><text fill="#000000" font-family="sans-serif" font-size="11" font-style="italic" lengthAdjust="spacingAndGlyphs" textLength="119" x="1461.5" y="119.7104">define(Context): void</text><polygon fill="#FFFFFF" filter="url(#fzqs8ag9sowsx)" points="1305.5,69.5,1392.5,69.5,1399.5,91.7969,1406.5,91.7969,1406.5,122.0938,1305.5,122.0938,1305.5,69.5" style="stroke: #000000; stroke-width: 1.5;"/><line style="stroke: #000000; stroke-width: 1.5;" x1="1305.5" x2="1399.5" y1="91.7969" y2="91.7969"/><text fill="#000000" font-family="sans-serif" font-size="14" font-weight="bold" lengthAdjust="spacingAndGlyphs" textLength="81" x="1309.5" y="84.4951">resources</text><!--MD5=[3685ffe233817ba259f4776860359136]
reverse link org.sonar.api.batch.sensor.Sensor to com.hack23.sonar.cloudformation.CloudformationSensor--><path d="M297,153.08 C297,173 297,195.22 297,214.45 " fill="none" id="org.sonar.api.batch.sensor.Sensor&lt;-com.hack23.sonar.cloudformation.CloudformationSensor" style="stroke: #A80036; stroke-width: 1.0; stroke-dasharray: 7.0,7.0;"/><polygon fill="none" points="290,153.02,297,133.02,304,153.02,290,153.02" style="stroke: #A80036; stroke-width: 1.0;"/><!--MD5=[63fe7b739a87e21952d62265d328e55c]
reverse link org.sonar.api.server.profile.BuiltInQualityProfilesDefinition to com.hack23.sonar.cloudformation.CloudformationQualityProfile--><path d="M695,146.85 C695,172.62 695,203.49 695,226.93 " fill="none" id="org.sonar.api.server.profile.BuiltInQualityProfilesDefinition&lt;-com.hack23.sonar.cloudformation.CloudformationQualityProfile" style="stroke: #A80036; stroke-width: 1.0; stroke-dasharray: 7.0,7.0;"/><polygon fill="none" points="688,146.68,695,126.68,702,146.68,688,146.68" style="stroke: #A80036; stroke-width: 1.0;"/><!--MD5=[2bdc00f05ffbda222481780920a1d1de]
reverse link org.sonar.api.server.rule.RulesDefinition to com.hack23.sonar.cloudformation.CloudformationRulesDefinition--><path d="M1192.22,145.94 C1198.64,165.35 1206.07,187.76 1212.69,207.74 " fill="none" id="org.sonar.api.server.rule.RulesDefinition&lt;-com.hack23.sonar.cloudformation.CloudformationRulesDefinition" style="stroke: #A80036; stroke-width: 1.0; stroke-dasharray: 7.0,7.0;"/><polygon fill="none" points="1185.48,147.86,1185.83,126.68,1198.77,143.46,1185.48,147.86" style="stroke: #A80036; stroke-width: 1.0;"/><!--MD5=[a0a45c0a895aca957ae22b311196540e]
reverse link org.sonar.api.Plugin to com.hack23.sonar.cloudformation.CloudformationPlugin--><path d="M1497.78,145.94 C1488.39,174.29 1476.87,209.05 1468.84,233.3 " fill="none" id="org.sonar.api.Plugin&lt;-com.hack23.sonar.cloudformation.CloudformationPlugin" style="stroke: #A80036; stroke-width: 1.0; stroke-dasharray: 7.0,7.0;"/><polygon fill="none" points="1491.23,143.46,1504.17,126.68,1504.52,147.86,1491.23,143.46" style="stroke: #A80036; stroke-width: 1.0;"/><!--MD5=[ccf7d02e476674fce818001880d01f60]
link com.hack23.sonar.cloudformation.CloudformationSensorConfiguration to com.hack23.sonar.cloudformation.CloudformationConstants--><!--MD5=[4267c0e0e1c496da44e4719aff5857d4]
link com.hack23.sonar.cloudformation.CloudformationSensorConfiguration to com.hack23.sonar.cloudformation.CloudformationProperties--><text fill="#888888" font-family="sans-serif" font-size="10" lengthAdjust="spacingAndGlyphs" textLength="186" x="1001" y="517.2822">UMLDoclet 2.0.8, PlantUML 1.2020.01</text><!--MD5=[0088978806c954064ce9f9ce5aee2d79]
@startuml
    namespace com.hack23.sonar.cloudformation {

        class CloudformationSensor [[CloudformationSensor.html]] {
            {static} +SENSOR_NAME: String
            +CloudformationSensor(CloudformationSensorConfiguration, FileSystem, PathResolver)
            +describe(SensorDescriptor): void
            +execute(SensorContext): void
        }

        class CloudformationQualityProfile [[CloudformationQualityProfile.html]] {
            {static} +hasRule(String): boolean
            +define(Context): void
        }

        class CloudformationLanguage [[CloudformationLanguage.html]] {
            {static} +NAME: String
            {static} +KEY: String
            +CloudformationLanguage(Configuration)
            +getFileSuffixes(): String[]
        }

        class CloudformationSensorConfiguration [[CloudformationSensorConfiguration.html]] {
            +CloudformationSensorConfiguration(Configuration)
            +getReportFiles(): Optional<String>
        }

        class CloudformationConstants [[CloudformationConstants.html]] {
            {static} +REPORT_FILES_PROPERTY: String
        }

        class CloudformationRulesDefinition [[CloudformationRulesDefinition.html]] {
            {static} +KEY: String
            {static} +NAME: String
            {static} +REPO_KEY: String
            {static} +REPO_NAME: String
            +define(Context): void
        }

        class CloudformationPlugin [[CloudformationPlugin.html]] {
            +define(Context): void
        }

        class CloudformationProperties [[CloudformationProperties.html]] {
            {static} +FILE_SUFFIXES_KEY: String
            {static} +FILE_SUFFIXES_DEFAULT_VALUE: String
            {static} +getProperties(): List<PropertyDefinition>
        }

        org.sonar.api.batch.sensor.Sensor <|.. CloudformationSensor
        org.sonar.api.server.profile.BuiltInQualityProfilesDefinition <|.. CloudformationQualityProfile
        org.sonar.api.resources.AbstractLanguage <|- - CloudformationLanguage
        org.sonar.api.server.rule.RulesDefinition <|.. CloudformationRulesDefinition
        org.sonar.api.Plugin <|.. CloudformationPlugin
    }

    namespace org.sonar.api.batch.sensor {
        interface Sensor {
            {abstract} +describe(SensorDescriptor): void
            {abstract} +execute(SensorContext): void
        }
    }

    namespace org.sonar.api.server.profile {
        interface BuiltInQualityProfilesDefinition {
            {abstract} +define(Context): void
        }
    }

    namespace org.sonar.api.resources {
        abstract class AbstractLanguage {
        }
    }

    namespace org.sonar.api.server.rule {
        interface RulesDefinition {
            {abstract} +define(Context): void
        }
    }

    namespace org.sonar.api {
        interface Plugin {
            {abstract} +define(Context): void
        }
    }

    center footer UMLDoclet 2.0.8, PlantUML 1.2020.01
@enduml

PlantUML version 1.2020.01(Sun Feb 16 18:40:32 CET 2020)
(APACHE source distribution)
Java Runtime: OpenJDK Runtime Environment
JVM: OpenJDK 64-Bit Server VM
Java Version: 11.0.6+10-post-Ubuntu-2ubuntu2
Operating System: Linux
Default Encoding: UTF-8
Language: en
Country: US
--></g></svg>