<?xml version="1.0" encoding="UTF-8" standalone="no"?><svg xmlns="http://www.w3.org/2000/svg" xmlns:xlink="http://www.w3.org/1999/xlink" contentScriptType="application/ecmascript" contentStyleType="text/css" height="483px" preserveAspectRatio="none" style="width:2152px;height:483px;" version="1.1" viewBox="0 0 2152 483" width="2152px" zoomAndPan="magnify"><defs><filter height="300%" id="froksxkwetwuc" width="300%" x="-1" y="-1"><feGaussianBlur result="blurOut" stdDeviation="2.0"/><feColorMatrix in="blurOut" result="blurOut2" type="matrix" values="0 0 0 0 0 0 0 0 0 0 0 0 0 0 0 0 0 0 .4 0"/><feOffset dx="4.0" dy="4.0" in="blurOut2" result="blurOut3"/><feBlend in="SourceGraphic" in2="blurOut3" mode="normal"/></filter></defs><g><!--MD5=[7efd255d87f67ac79da5c4891114ef95]
cluster com.hack23.sonar.cloudformation--><polygon fill="#FFFFFF" filter="url(#froksxkwetwuc)" points="14,150,289,150,296,172.2969,2130,172.2969,2130,443,14,443,14,150" style="stroke: #000000; stroke-width: 1.5;"/><line style="stroke: #000000; stroke-width: 1.5;" x1="14" x2="296" y1="172.2969" y2="172.2969"/><text fill="#000000" font-family="sans-serif" font-size="14" font-weight="bold" lengthAdjust="spacingAndGlyphs" textLength="269" x="18" y="164.9951">com.hack23.sonar.cloudformation</text><!--MD5=[069966ec46c27c575c0e14a62cc3970a]
cluster org.sonar.api.batch.sensor--><polygon fill="#FFFFFF" filter="url(#froksxkwetwuc)" points="166,16,386,16,393,38.2969,396,38.2969,396,125,166,125,166,16" style="stroke: #000000; stroke-width: 1.5;"/><line style="stroke: #000000; stroke-width: 1.5;" x1="166" x2="393" y1="38.2969" y2="38.2969"/><text fill="#000000" font-family="sans-serif" font-size="14" font-weight="bold" lengthAdjust="spacingAndGlyphs" textLength="214" x="170" y="30.9951">org.sonar.api.batch.sensor</text><!--MD5=[ed82d9bf0a7e82c39fc0b923e4deffa3]
cluster org.sonar.api.server.profile--><polygon fill="#FFFFFF" filter="url(#froksxkwetwuc)" points="562,22.5,786,22.5,793,44.7969,796,44.7969,796,118.5,562,118.5,562,22.5" style="stroke: #000000; stroke-width: 1.5;"/><line style="stroke: #000000; stroke-width: 1.5;" x1="562" x2="793" y1="44.7969" y2="44.7969"/><text fill="#000000" font-family="sans-serif" font-size="14" font-weight="bold" lengthAdjust="spacingAndGlyphs" textLength="218" x="566" y="37.4951">org.sonar.api.server.profile</text><!--MD5=[d3bfeb526ca1008dfb54863d3a7224f6]
cluster org.sonar.api.server.rule--><polygon fill="#FFFFFF" filter="url(#froksxkwetwuc)" points="1043,22.5,1247,22.5,1254,44.7969,1257,44.7969,1257,118.5,1043,118.5,1043,22.5" style="stroke: #000000; stroke-width: 1.5;"/><line style="stroke: #000000; stroke-width: 1.5;" x1="1043" x2="1254" y1="44.7969" y2="44.7969"/><text fill="#000000" font-family="sans-serif" font-size="14" font-weight="bold" lengthAdjust="spacingAndGlyphs" textLength="198" x="1047" y="37.4951">org.sonar.api.server.rule</text><!--MD5=[6a86e12f8c3573ef90e7334d9e934390]
cluster org.sonar.api--><polygon fill="#FFFFFF" filter="url(#froksxkwetwuc)" points="1270,22.5,1381,22.5,1388,44.7969,1568,44.7969,1568,118.5,1270,118.5,1270,22.5" style="stroke: #000000; stroke-width: 1.5;"/><line style="stroke: #000000; stroke-width: 1.5;" x1="1270" x2="1388" y1="44.7969" y2="44.7969"/><text fill="#000000" font-family="sans-serif" font-size="14" font-weight="bold" lengthAdjust="spacingAndGlyphs" textLength="105" x="1274" y="37.4951">org.sonar.api</text><!--MD5=[5cd76e2d5be102320ba6d55700009822]
class com.hack23.sonar.cloudformation.CloudformationSensor--><a href="CloudformationSensor.html" target="_top" title="CloudformationSensor.html" xlink:actuate="onRequest" xlink:href="CloudformationSensor.html" xlink:show="new" xlink:title="CloudformationSensor.html" xlink:type="simple"><rect fill="#FEFECE" filter="url(#froksxkwetwuc)" height="99.2188" id="com.hack23.sonar.cloudformation.CloudformationSensor" style="stroke: #A80036; stroke-width: 1.5;" width="518" x="22" y="183.5"/><ellipse cx="207.25" cy="199.5" fill="#ADD1B2" rx="11" ry="11" style="stroke: #A80036; stroke-width: 1.0;"/><path d="M210.2188,205.1406 Q209.6406,205.4375 209,205.5781 Q208.3594,205.7344 207.6563,205.7344 Q205.1563,205.7344 203.8281,204.0938 Q202.5156,202.4375 202.5156,199.3125 Q202.5156,196.1875 203.8281,194.5313 Q205.1563,192.875 207.6563,192.875 Q208.3594,192.875 209,193.0313 Q209.6563,193.1875 210.2188,193.4844 L210.2188,196.2031 Q209.5938,195.625 209,195.3594 Q208.4063,195.0781 207.7813,195.0781 Q206.4375,195.0781 205.75,196.1563 Q205.0625,197.2188 205.0625,199.3125 Q205.0625,201.4063 205.75,202.4844 Q206.4375,203.5469 207.7813,203.5469 Q208.4063,203.5469 209,203.2813 Q209.5938,203 210.2188,202.4219 L210.2188,205.1406 Z "/><text fill="#000000" font-family="sans-serif" font-size="12" lengthAdjust="spacingAndGlyphs" textLength="139" x="227.75" y="203.6543">CloudformationSensor</text><line style="stroke: #A80036; stroke-width: 1.5;" x1="23" x2="539" y1="215.5" y2="215.5"/><ellipse cx="33" cy="226.5" fill="none" rx="3" ry="3" style="stroke: #038048; stroke-width: 1.0;"/><text fill="#000000" font-family="sans-serif" font-size="11" lengthAdjust="spacingAndGlyphs" text-decoration="underline" textLength="126" x="42" y="229.7104">SENSOR_NAME: String</text><line style="stroke: #A80036; stroke-width: 1.5;" x1="23" x2="539" y1="236.3047" y2="236.3047"/><ellipse cx="33" cy="247.3047" fill="#84BE84" rx="3" ry="3" style="stroke: #038048; stroke-width: 1.0;"/><text fill="#000000" font-family="sans-serif" font-size="11" lengthAdjust="spacingAndGlyphs" textLength="492" x="42" y="250.5151">CloudformationSensor(CloudformationSensorConfiguration, FileSystem, PathResolver)</text><ellipse cx="33" cy="260.1094" fill="#84BE84" rx="3" ry="3" style="stroke: #038048; stroke-width: 1.0;"/><text fill="#000000" font-family="sans-serif" font-size="11" lengthAdjust="spacingAndGlyphs" textLength="188" x="42" y="263.3198">describe(SensorDescriptor): void</text><ellipse cx="33" cy="272.9141" fill="#84BE84" rx="3" ry="3" style="stroke: #038048; stroke-width: 1.0;"/><text fill="#000000" font-family="sans-serif" font-size="11" lengthAdjust="spacingAndGlyphs" textLength="167" x="42" y="276.1245">execute(SensorContext): void</text></a><!--MD5=[fe768997cbfd64bbe9e45e6331c668d3]
class com.hack23.sonar.cloudformation.CloudformationQualityProfile--><a href="CloudformationQualityProfile.html" target="_top" title="CloudformationQualityProfile.html" xlink:actuate="onRequest" xlink:href="CloudformationQualityProfile.html" xlink:show="new" xlink:title="CloudformationQualityProfile.html" xlink:type="simple"><rect fill="#FEFECE" filter="url(#froksxkwetwuc)" height="73.6094" id="com.hack23.sonar.cloudformation.CloudformationQualityProfile" style="stroke: #A80036; stroke-width: 1.5;" width="208" x="575" y="196"/><ellipse cx="590" cy="212" fill="#ADD1B2" rx="11" ry="11" style="stroke: #A80036; stroke-width: 1.0;"/><path d="M592.9688,217.6406 Q592.3906,217.9375 591.75,218.0781 Q591.1094,218.2344 590.4063,218.2344 Q587.9063,218.2344 586.5781,216.5938 Q585.2656,214.9375 585.2656,211.8125 Q585.2656,208.6875 586.5781,207.0313 Q587.9063,205.375 590.4063,205.375 Q591.1094,205.375 591.75,205.5313 Q592.4063,205.6875 592.9688,205.9844 L592.9688,208.7031 Q592.3438,208.125 591.75,207.8594 Q591.1563,207.5781 590.5313,207.5781 Q589.1875,207.5781 588.5,208.6563 Q587.8125,209.7188 587.8125,211.8125 Q587.8125,213.9063 588.5,214.9844 Q589.1875,216.0469 590.5313,216.0469 Q591.1563,216.0469 591.75,215.7813 Q592.3438,215.5 592.9688,214.9219 L592.9688,217.6406 Z "/><text fill="#000000" font-family="sans-serif" font-size="12" lengthAdjust="spacingAndGlyphs" textLength="176" x="604" y="216.1543">CloudformationQualityProfile</text><line style="stroke: #A80036; stroke-width: 1.5;" x1="576" x2="782" y1="228" y2="228"/><line style="stroke: #A80036; stroke-width: 1.5;" x1="576" x2="782" y1="236" y2="236"/><ellipse cx="586" cy="247" fill="#84BE84" rx="3" ry="3" style="stroke: #038048; stroke-width: 1.0;"/><text fill="#000000" font-family="sans-serif" font-size="11" lengthAdjust="spacingAndGlyphs" text-decoration="underline" textLength="140" x="595" y="250.2104">hasRule(String): boolean</text><ellipse cx="586" cy="259.8047" fill="#84BE84" rx="3" ry="3" style="stroke: #038048; stroke-width: 1.0;"/><text fill="#000000" font-family="sans-serif" font-size="11" lengthAdjust="spacingAndGlyphs" textLength="117" x="595" y="263.0151">define(Context): void</text></a><!--MD5=[7855ddd67fbdcedf10db43e001c684f0]
class com.hack23.sonar.cloudformation.CloudformationLanguage--><a href="CloudformationLanguage.html" target="_top" title="CloudformationLanguage.html" xlink:actuate="onRequest" xlink:href="CloudformationLanguage.html" xlink:show="new" xlink:title="CloudformationLanguage.html" xlink:type="simple"><rect fill="#FEFECE" filter="url(#froksxkwetwuc)" height="99.2188" id="com.hack23.sonar.cloudformation.CloudformationLanguage" style="stroke: #A80036; stroke-width: 1.5;" width="252" x="818" y="183.5"/><ellipse cx="861.35" cy="199.5" fill="#ADD1B2" rx="11" ry="11" style="stroke: #A80036; stroke-width: 1.0;"/><path d="M864.3188,205.1406 Q863.7406,205.4375 863.1,205.5781 Q862.4594,205.7344 861.7563,205.7344 Q859.2563,205.7344 857.9281,204.0938 Q856.6156,202.4375 856.6156,199.3125 Q856.6156,196.1875 857.9281,194.5313 Q859.2563,192.875 861.7563,192.875 Q862.4594,192.875 863.1,193.0313 Q863.7563,193.1875 864.3188,193.4844 L864.3188,196.2031 Q863.6938,195.625 863.1,195.3594 Q862.5063,195.0781 861.8813,195.0781 Q860.5375,195.0781 859.85,196.1563 Q859.1625,197.2188 859.1625,199.3125 Q859.1625,201.4063 859.85,202.4844 Q860.5375,203.5469 861.8813,203.5469 Q862.5063,203.5469 863.1,203.2813 Q863.6938,203 864.3188,202.4219 L864.3188,205.1406 Z "/><text fill="#000000" font-family="sans-serif" font-size="12" lengthAdjust="spacingAndGlyphs" textLength="157" x="881.65" y="203.6543">CloudformationLanguage</text><line style="stroke: #A80036; stroke-width: 1.5;" x1="819" x2="1069" y1="215.5" y2="215.5"/><ellipse cx="829" cy="226.5" fill="none" rx="3" ry="3" style="stroke: #038048; stroke-width: 1.0;"/><text fill="#000000" font-family="sans-serif" font-size="11" lengthAdjust="spacingAndGlyphs" text-decoration="underline" textLength="73" x="838" y="229.7104">NAME: String</text><ellipse cx="829" cy="239.3047" fill="none" rx="3" ry="3" style="stroke: #038048; stroke-width: 1.0;"/><text fill="#000000" font-family="sans-serif" font-size="11" lengthAdjust="spacingAndGlyphs" text-decoration="underline" textLength="63" x="838" y="242.5151">KEY: String</text><line style="stroke: #A80036; stroke-width: 1.5;" x1="819" x2="1069" y1="249.1094" y2="249.1094"/><ellipse cx="829" cy="260.1094" fill="#84BE84" rx="3" ry="3" style="stroke: #038048; stroke-width: 1.0;"/><text fill="#000000" font-family="sans-serif" font-size="11" lengthAdjust="spacingAndGlyphs" textLength="226" x="838" y="263.3198">CloudformationLanguage(Configuration)</text><ellipse cx="829" cy="272.9141" fill="#84BE84" rx="3" ry="3" style="stroke: #038048; stroke-width: 1.0;"/><text fill="#000000" font-family="sans-serif" font-size="11" lengthAdjust="spacingAndGlyphs" textLength="141" x="838" y="276.1245">getFileSuffixes(): String[]</text></a><!--MD5=[c3108af317c2c934cdb7e0b2dc4ec977]
class com.hack23.sonar.cloudformation.CloudformationSensorConfiguration--><a href="CloudformationSensorConfiguration.html" target="_top" title="CloudformationSensorConfiguration.html" xlink:actuate="onRequest" xlink:href="CloudformationSensorConfiguration.html" xlink:show="new" xlink:title="CloudformationSensorConfiguration.html" xlink:type="simple"><rect fill="#FEFECE" filter="url(#froksxkwetwuc)" height="73.6094" id="com.hack23.sonar.cloudformation.CloudformationSensorConfiguration" style="stroke: #A80036; stroke-width: 1.5;" width="314" x="1561" y="196"/><ellipse cx="1602.55" cy="212" fill="#ADD1B2" rx="11" ry="11" style="stroke: #A80036; stroke-width: 1.0;"/><path d="M1605.5188,217.6406 Q1604.9406,217.9375 1604.3,218.0781 Q1603.6594,218.2344 1602.9563,218.2344 Q1600.4563,218.2344 1599.1281,216.5938 Q1597.8156,214.9375 1597.8156,211.8125 Q1597.8156,208.6875 1599.1281,207.0313 Q1600.4563,205.375 1602.9563,205.375 Q1603.6594,205.375 1604.3,205.5313 Q1604.9563,205.6875 1605.5188,205.9844 L1605.5188,208.7031 Q1604.8938,208.125 1604.3,207.8594 Q1603.7063,207.5781 1603.0813,207.5781 Q1601.7375,207.5781 1601.05,208.6563 Q1600.3625,209.7188 1600.3625,211.8125 Q1600.3625,213.9063 1601.05,214.9844 Q1601.7375,216.0469 1603.0813,216.0469 Q1603.7063,216.0469 1604.3,215.7813 Q1604.8938,215.5 1605.5188,214.9219 L1605.5188,217.6406 Z "/><text fill="#000000" font-family="sans-serif" font-size="12" lengthAdjust="spacingAndGlyphs" textLength="223" x="1622.45" y="216.1543">CloudformationSensorConfiguration</text><line style="stroke: #A80036; stroke-width: 1.5;" x1="1562" x2="1874" y1="228" y2="228"/><line style="stroke: #A80036; stroke-width: 1.5;" x1="1562" x2="1874" y1="236" y2="236"/><ellipse cx="1572" cy="247" fill="#84BE84" rx="3" ry="3" style="stroke: #038048; stroke-width: 1.0;"/><text fill="#000000" font-family="sans-serif" font-size="11" lengthAdjust="spacingAndGlyphs" textLength="288" x="1581" y="250.2104">CloudformationSensorConfiguration(Configuration)</text><ellipse cx="1572" cy="259.8047" fill="#84BE84" rx="3" ry="3" style="stroke: #038048; stroke-width: 1.0;"/><text fill="#000000" font-family="sans-serif" font-size="11" lengthAdjust="spacingAndGlyphs" textLength="196" x="1581" y="263.0151">getReportFiles(): Optional&lt;String&gt;</text></a><!--MD5=[0d6d0e5b973745eeb597137a51ee0af0]
class com.hack23.sonar.cloudformation.CloudformationConstants--><a href="CloudformationConstants.html" target="_top" title="CloudformationConstants.html" xlink:actuate="onRequest" xlink:href="CloudformationConstants.html" xlink:show="new" xlink:title="CloudformationConstants.html" xlink:type="simple"><rect fill="#FEFECE" filter="url(#froksxkwetwuc)" height="60.8047" id="com.hack23.sonar.cloudformation.CloudformationConstants" style="stroke: #A80036; stroke-width: 1.5;" width="212" x="1910" y="202.5"/><ellipse cx="1934.45" cy="218.5" fill="#ADD1B2" rx="11" ry="11" style="stroke: #A80036; stroke-width: 1.0;"/><path d="M1937.4188,224.1406 Q1936.8406,224.4375 1936.2,224.5781 Q1935.5594,224.7344 1934.8563,224.7344 Q1932.3563,224.7344 1931.0281,223.0938 Q1929.7156,221.4375 1929.7156,218.3125 Q1929.7156,215.1875 1931.0281,213.5313 Q1932.3563,211.875 1934.8563,211.875 Q1935.5594,211.875 1936.2,212.0313 Q1936.8563,212.1875 1937.4188,212.4844 L1937.4188,215.2031 Q1936.7938,214.625 1936.2,214.3594 Q1935.6063,214.0781 1934.9813,214.0781 Q1933.6375,214.0781 1932.95,215.1563 Q1932.2625,216.2188 1932.2625,218.3125 Q1932.2625,220.4063 1932.95,221.4844 Q1933.6375,222.5469 1934.9813,222.5469 Q1935.6063,222.5469 1936.2,222.2813 Q1936.7938,222 1937.4188,221.4219 L1937.4188,224.1406 Z "/><text fill="#000000" font-family="sans-serif" font-size="12" lengthAdjust="spacingAndGlyphs" textLength="159" x="1950.55" y="222.6543">CloudformationConstants</text><line style="stroke: #A80036; stroke-width: 1.5;" x1="1911" x2="2121" y1="234.5" y2="234.5"/><ellipse cx="1921" cy="245.5" fill="none" rx="3" ry="3" style="stroke: #038048; stroke-width: 1.0;"/><text fill="#000000" font-family="sans-serif" font-size="11" lengthAdjust="spacingAndGlyphs" text-decoration="underline" textLength="186" x="1930" y="248.7104">REPORT_FILES_PROPERTY: String</text><line style="stroke: #A80036; stroke-width: 1.5;" x1="1911" x2="2121" y1="255.3047" y2="255.3047"/></a><!--MD5=[9ad602e740eec67d73c5d598917426ba]
class com.hack23.sonar.cloudformation.CloudformationRulesDefinition--><a href="CloudformationRulesDefinition.html" target="_top" title="CloudformationRulesDefinition.html" xlink:actuate="onRequest" xlink:href="CloudformationRulesDefinition.html" xlink:show="new" xlink:title="CloudformationRulesDefinition.html" xlink:type="simple"><rect fill="#FEFECE" filter="url(#froksxkwetwuc)" height="112.0234" id="com.hack23.sonar.cloudformation.CloudformationRulesDefinition" style="stroke: #A80036; stroke-width: 1.5;" width="220" x="1105" y="177"/><ellipse cx="1120" cy="193" fill="#ADD1B2" rx="11" ry="11" style="stroke: #A80036; stroke-width: 1.0;"/><path d="M1122.9688,198.6406 Q1122.3906,198.9375 1121.75,199.0781 Q1121.1094,199.2344 1120.4063,199.2344 Q1117.9063,199.2344 1116.5781,197.5938 Q1115.2656,195.9375 1115.2656,192.8125 Q1115.2656,189.6875 1116.5781,188.0313 Q1117.9063,186.375 1120.4063,186.375 Q1121.1094,186.375 1121.75,186.5313 Q1122.4063,186.6875 1122.9688,186.9844 L1122.9688,189.7031 Q1122.3438,189.125 1121.75,188.8594 Q1121.1563,188.5781 1120.5313,188.5781 Q1119.1875,188.5781 1118.5,189.6563 Q1117.8125,190.7188 1117.8125,192.8125 Q1117.8125,194.9063 1118.5,195.9844 Q1119.1875,197.0469 1120.5313,197.0469 Q1121.1563,197.0469 1121.75,196.7813 Q1122.3438,196.5 1122.9688,195.9219 L1122.9688,198.6406 Z "/><text fill="#000000" font-family="sans-serif" font-size="12" lengthAdjust="spacingAndGlyphs" textLength="188" x="1134" y="197.1543">CloudformationRulesDefinition</text><line style="stroke: #A80036; stroke-width: 1.5;" x1="1106" x2="1324" y1="209" y2="209"/><ellipse cx="1116" cy="220" fill="none" rx="3" ry="3" style="stroke: #038048; stroke-width: 1.0;"/><text fill="#000000" font-family="sans-serif" font-size="11" lengthAdjust="spacingAndGlyphs" text-decoration="underline" textLength="63" x="1125" y="223.2104">KEY: String</text><ellipse cx="1116" cy="232.8047" fill="none" rx="3" ry="3" style="stroke: #038048; stroke-width: 1.0;"/><text fill="#000000" font-family="sans-serif" font-size="11" lengthAdjust="spacingAndGlyphs" text-decoration="underline" textLength="73" x="1125" y="236.0151">NAME: String</text><ellipse cx="1116" cy="245.6094" fill="none" rx="3" ry="3" style="stroke: #038048; stroke-width: 1.0;"/><text fill="#000000" font-family="sans-serif" font-size="11" lengthAdjust="spacingAndGlyphs" text-decoration="underline" textLength="99" x="1125" y="248.8198">REPO_KEY: String</text><ellipse cx="1116" cy="258.4141" fill="none" rx="3" ry="3" style="stroke: #038048; stroke-width: 1.0;"/><text fill="#000000" font-family="sans-serif" font-size="11" lengthAdjust="spacingAndGlyphs" text-decoration="underline" textLength="109" x="1125" y="261.6245">REPO_NAME: String</text><line style="stroke: #A80036; stroke-width: 1.5;" x1="1106" x2="1324" y1="268.2188" y2="268.2188"/><ellipse cx="1116" cy="279.2188" fill="#84BE84" rx="3" ry="3" style="stroke: #038048; stroke-width: 1.0;"/><text fill="#000000" font-family="sans-serif" font-size="11" lengthAdjust="spacingAndGlyphs" textLength="117" x="1125" y="282.4292">define(Context): void</text></a><!--MD5=[4e78556fd0fd0f12622aab97e46ad39c]
class com.hack23.sonar.cloudformation.CloudformationPlugin--><a href="CloudformationPlugin.html" target="_top" title="CloudformationPlugin.html" xlink:actuate="onRequest" xlink:href="CloudformationPlugin.html" xlink:show="new" xlink:title="CloudformationPlugin.html" xlink:type="simple"><rect fill="#FEFECE" filter="url(#froksxkwetwuc)" height="60.8047" id="com.hack23.sonar.cloudformation.CloudformationPlugin" style="stroke: #A80036; stroke-width: 1.5;" width="165" x="1360.5" y="202.5"/><ellipse cx="1375.5" cy="218.5" fill="#ADD1B2" rx="11" ry="11" style="stroke: #A80036; stroke-width: 1.0;"/><path d="M1378.4688,224.1406 Q1377.8906,224.4375 1377.25,224.5781 Q1376.6094,224.7344 1375.9063,224.7344 Q1373.4063,224.7344 1372.0781,223.0938 Q1370.7656,221.4375 1370.7656,218.3125 Q1370.7656,215.1875 1372.0781,213.5313 Q1373.4063,211.875 1375.9063,211.875 Q1376.6094,211.875 1377.25,212.0313 Q1377.9063,212.1875 1378.4688,212.4844 L1378.4688,215.2031 Q1377.8438,214.625 1377.25,214.3594 Q1376.6563,214.0781 1376.0313,214.0781 Q1374.6875,214.0781 1374,215.1563 Q1373.3125,216.2188 1373.3125,218.3125 Q1373.3125,220.4063 1374,221.4844 Q1374.6875,222.5469 1376.0313,222.5469 Q1376.6563,222.5469 1377.25,222.2813 Q1377.8438,222 1378.4688,221.4219 L1378.4688,224.1406 Z "/><text fill="#000000" font-family="sans-serif" font-size="12" lengthAdjust="spacingAndGlyphs" textLength="133" x="1389.5" y="222.6543">CloudformationPlugin</text><line style="stroke: #A80036; stroke-width: 1.5;" x1="1361.5" x2="1524.5" y1="234.5" y2="234.5"/><line style="stroke: #A80036; stroke-width: 1.5;" x1="1361.5" x2="1524.5" y1="242.5" y2="242.5"/><ellipse cx="1371.5" cy="253.5" fill="#84BE84" rx="3" ry="3" style="stroke: #038048; stroke-width: 1.0;"/><text fill="#000000" font-family="sans-serif" font-size="11" lengthAdjust="spacingAndGlyphs" textLength="117" x="1380.5" y="256.7104">define(Context): void</text></a><!--MD5=[17b8c490b45d6f269308ea962cf0181d]
class com.hack23.sonar.cloudformation.CloudformationProperties--><a href="CloudformationProperties.html" target="_top" title="CloudformationProperties.html" xlink:actuate="onRequest" xlink:href="CloudformationProperties.html" xlink:show="new" xlink:title="CloudformationProperties.html" xlink:type="simple"><rect fill="#FEFECE" filter="url(#froksxkwetwuc)" height="86.4141" id="com.hack23.sonar.cloudformation.CloudformationProperties" style="stroke: #A80036; stroke-width: 1.5;" width="258" x="1589" y="349"/><ellipse cx="1633.75" cy="365" fill="#ADD1B2" rx="11" ry="11" style="stroke: #A80036; stroke-width: 1.0;"/><path d="M1636.7188,370.6406 Q1636.1406,370.9375 1635.5,371.0781 Q1634.8594,371.2344 1634.1563,371.2344 Q1631.6563,371.2344 1630.3281,369.5938 Q1629.0156,367.9375 1629.0156,364.8125 Q1629.0156,361.6875 1630.3281,360.0313 Q1631.6563,358.375 1634.1563,358.375 Q1634.8594,358.375 1635.5,358.5313 Q1636.1563,358.6875 1636.7188,358.9844 L1636.7188,361.7031 Q1636.0938,361.125 1635.5,360.8594 Q1634.9063,360.5781 1634.2813,360.5781 Q1632.9375,360.5781 1632.25,361.6563 Q1631.5625,362.7188 1631.5625,364.8125 Q1631.5625,366.9063 1632.25,367.9844 Q1632.9375,369.0469 1634.2813,369.0469 Q1634.9063,369.0469 1635.5,368.7813 Q1636.0938,368.5 1636.7188,367.9219 L1636.7188,370.6406 Z "/><text fill="#000000" font-family="sans-serif" font-size="12" lengthAdjust="spacingAndGlyphs" textLength="160" x="1654.25" y="369.1543">CloudformationProperties</text><line style="stroke: #A80036; stroke-width: 1.5;" x1="1590" x2="1846" y1="381" y2="381"/><ellipse cx="1600" cy="392" fill="none" rx="3" ry="3" style="stroke: #038048; stroke-width: 1.0;"/><text fill="#000000" font-family="sans-serif" font-size="11" lengthAdjust="spacingAndGlyphs" text-decoration="underline" textLength="150" x="1609" y="395.2104">FILE_SUFFIXES_KEY: String</text><ellipse cx="1600" cy="404.8047" fill="none" rx="3" ry="3" style="stroke: #038048; stroke-width: 1.0;"/><text fill="#000000" font-family="sans-serif" font-size="11" lengthAdjust="spacingAndGlyphs" text-decoration="underline" textLength="219" x="1609" y="408.0151">FILE_SUFFIXES_DEFAULT_VALUE: String</text><line style="stroke: #A80036; stroke-width: 1.5;" x1="1590" x2="1846" y1="414.6094" y2="414.6094"/><ellipse cx="1600" cy="425.6094" fill="#84BE84" rx="3" ry="3" style="stroke: #038048; stroke-width: 1.0;"/><text fill="#000000" font-family="sans-serif" font-size="11" lengthAdjust="spacingAndGlyphs" text-decoration="underline" textLength="232" x="1609" y="428.8198">getProperties(): List&lt;PropertyDefinition&gt;</text></a><!--MD5=[f8b565af0d68398934f95a4a7e456578]
class org.sonar.api.batch.sensor.Sensor--><rect fill="#FEFECE" filter="url(#froksxkwetwuc)" height="73.6094" id="org.sonar.api.batch.sensor.Sensor" style="stroke: #A80036; stroke-width: 1.5;" width="211" x="175.5" y="43"/><ellipse cx="255.25" cy="59" fill="#B4A7E5" rx="11" ry="11" style="stroke: #A80036; stroke-width: 1.0;"/><path d="M251.1719,54.7656 L251.1719,52.6094 L258.5625,52.6094 L258.5625,54.7656 L256.0938,54.7656 L256.0938,62.8438 L258.5625,62.8438 L258.5625,65 L251.1719,65 L251.1719,62.8438 L253.6406,62.8438 L253.6406,54.7656 L251.1719,54.7656 Z "/><text fill="#000000" font-family="sans-serif" font-size="12" font-style="italic" lengthAdjust="spacingAndGlyphs" textLength="43" x="275.75" y="63.1543">Sensor</text><line style="stroke: #A80036; stroke-width: 1.5;" x1="176.5" x2="385.5" y1="75" y2="75"/><line style="stroke: #A80036; stroke-width: 1.5;" x1="176.5" x2="385.5" y1="83" y2="83"/><ellipse cx="186.5" cy="94" fill="#84BE84" rx="3" ry="3" style="stroke: #038048; stroke-width: 1.0;"/><text fill="#000000" font-family="sans-serif" font-size="11" font-style="italic" lengthAdjust="spacingAndGlyphs" textLength="185" x="195.5" y="97.2104">describe(SensorDescriptor): void</text><ellipse cx="186.5" cy="106.8047" fill="#84BE84" rx="3" ry="3" style="stroke: #038048; stroke-width: 1.0;"/><text fill="#000000" font-family="sans-serif" font-size="11" font-style="italic" lengthAdjust="spacingAndGlyphs" textLength="168" x="195.5" y="110.0151">execute(SensorContext): void</text><!--MD5=[bccf4df98d34ca024eaa4f9d7ebedb88]
class org.sonar.api.server.profile.BuiltInQualityProfilesDefinition--><rect fill="#FEFECE" filter="url(#froksxkwetwuc)" height="60.8047" id="org.sonar.api.server.profile.BuiltInQualityProfilesDefinition" style="stroke: #A80036; stroke-width: 1.5;" width="216" x="571" y="49.5"/><ellipse cx="586" cy="65.5" fill="#B4A7E5" rx="11" ry="11" style="stroke: #A80036; stroke-width: 1.0;"/><path d="M581.9219,61.2656 L581.9219,59.1094 L589.3125,59.1094 L589.3125,61.2656 L586.8438,61.2656 L586.8438,69.3438 L589.3125,69.3438 L589.3125,71.5 L581.9219,71.5 L581.9219,69.3438 L584.3906,69.3438 L584.3906,61.2656 L581.9219,61.2656 Z "/><text fill="#000000" font-family="sans-serif" font-size="12" font-style="italic" lengthAdjust="spacingAndGlyphs" textLength="184" x="600" y="69.6543">BuiltInQualityProfilesDefinition</text><line style="stroke: #A80036; stroke-width: 1.5;" x1="572" x2="786" y1="81.5" y2="81.5"/><line style="stroke: #A80036; stroke-width: 1.5;" x1="572" x2="786" y1="89.5" y2="89.5"/><ellipse cx="582" cy="100.5" fill="#84BE84" rx="3" ry="3" style="stroke: #038048; stroke-width: 1.0;"/><text fill="#000000" font-family="sans-serif" font-size="11" font-style="italic" lengthAdjust="spacingAndGlyphs" textLength="119" x="591" y="103.7104">define(Context): void</text><!--MD5=[0c41336916cc93e234215d73ea118e70]
class org.sonar.api.server.rule.RulesDefinition--><rect fill="#FEFECE" filter="url(#froksxkwetwuc)" height="60.8047" id="org.sonar.api.server.rule.RulesDefinition" style="stroke: #A80036; stroke-width: 1.5;" width="145" x="1098.5" y="49.5"/><ellipse cx="1122.95" cy="65.5" fill="#B4A7E5" rx="11" ry="11" style="stroke: #A80036; stroke-width: 1.0;"/><path d="M1118.8719,61.2656 L1118.8719,59.1094 L1126.2625,59.1094 L1126.2625,61.2656 L1123.7938,61.2656 L1123.7938,69.3438 L1126.2625,69.3438 L1126.2625,71.5 L1118.8719,71.5 L1118.8719,69.3438 L1121.3406,69.3438 L1121.3406,61.2656 L1118.8719,61.2656 Z "/><text fill="#000000" font-family="sans-serif" font-size="12" font-style="italic" lengthAdjust="spacingAndGlyphs" textLength="92" x="1139.05" y="69.6543">RulesDefinition</text><line style="stroke: #A80036; stroke-width: 1.5;" x1="1099.5" x2="1242.5" y1="81.5" y2="81.5"/><line style="stroke: #A80036; stroke-width: 1.5;" x1="1099.5" x2="1242.5" y1="89.5" y2="89.5"/><ellipse cx="1109.5" cy="100.5" fill="#84BE84" rx="3" ry="3" style="stroke: #038048; stroke-width: 1.0;"/><text fill="#000000" font-family="sans-serif" font-size="11" font-style="italic" lengthAdjust="spacingAndGlyphs" textLength="119" x="1118.5" y="103.7104">define(Context): void</text><!--MD5=[357bc6d468bbe4af181e679b5a7d4bc8]
class org.sonar.api.Plugin--><rect fill="#FEFECE" filter="url(#froksxkwetwuc)" height="60.8047" id="org.sonar.api.Plugin" style="stroke: #A80036; stroke-width: 1.5;" width="145" x="1414.5" y="49.5"/><ellipse cx="1464.25" cy="65.5" fill="#B4A7E5" rx="11" ry="11" style="stroke: #A80036; stroke-width: 1.0;"/><path d="M1460.1719,61.2656 L1460.1719,59.1094 L1467.5625,59.1094 L1467.5625,61.2656 L1465.0938,61.2656 L1465.0938,69.3438 L1467.5625,69.3438 L1467.5625,71.5 L1460.1719,71.5 L1460.1719,69.3438 L1462.6406,69.3438 L1462.6406,61.2656 L1460.1719,61.2656 Z "/><text fill="#000000" font-family="sans-serif" font-size="12" font-style="italic" lengthAdjust="spacingAndGlyphs" textLength="37" x="1484.75" y="69.6543">Plugin</text><line style="stroke: #A80036; stroke-width: 1.5;" x1="1415.5" x2="1558.5" y1="81.5" y2="81.5"/><line style="stroke: #A80036; stroke-width: 1.5;" x1="1415.5" x2="1558.5" y1="89.5" y2="89.5"/><ellipse cx="1425.5" cy="100.5" fill="#84BE84" rx="3" ry="3" style="stroke: #038048; stroke-width: 1.0;"/><text fill="#000000" font-family="sans-serif" font-size="11" font-style="italic" lengthAdjust="spacingAndGlyphs" textLength="119" x="1434.5" y="103.7104">define(Context): void</text><polygon fill="#FFFFFF" filter="url(#froksxkwetwuc)" points="1278.5,53.5,1365.5,53.5,1372.5,75.7969,1379.5,75.7969,1379.5,106.0938,1278.5,106.0938,1278.5,53.5" style="stroke: #000000; stroke-width: 1.5;"/><line style="stroke: #000000; stroke-width: 1.5;" x1="1278.5" x2="1372.5" y1="75.7969" y2="75.7969"/><text fill="#000000" font-family="sans-serif" font-size="14" font-weight="bold" lengthAdjust="spacingAndGlyphs" textLength="81" x="1282.5" y="68.4951">resources</text><!--MD5=[3685ffe233817ba259f4776860359136]
reverse link org.sonar.api.batch.sensor.Sensor to com.hack23.sonar.cloudformation.CloudformationSensor--><path d="M281,137.1403 C281,152.307 281,168.5604 281,183.2956 " fill="none" id="org.sonar.api.batch.sensor.Sensor&lt;-com.hack23.sonar.cloudformation.CloudformationSensor" style="stroke: #A80036; stroke-width: 1.0; stroke-dasharray: 7.0,7.0;"/><polygon fill="none" points="274.0001,137.0371,281,117.037,288.0001,137.037,274.0001,137.0371" style="stroke: #A80036; stroke-width: 1.0;"/><!--MD5=[63fe7b739a87e21952d62265d328e55c]
reverse link org.sonar.api.server.profile.BuiltInQualityProfilesDefinition to com.hack23.sonar.cloudformation.CloudformationQualityProfile--><path d="M679,130.6318 C679,151.9738 679,176.3603 679,195.9767 " fill="none" id="org.sonar.api.server.profile.BuiltInQualityProfilesDefinition&lt;-com.hack23.sonar.cloudformation.CloudformationQualityProfile" style="stroke: #A80036; stroke-width: 1.0; stroke-dasharray: 7.0,7.0;"/><polygon fill="none" points="672.0001,130.5941,679,110.5941,686.0001,130.5941,672.0001,130.5941" style="stroke: #A80036; stroke-width: 1.0;"/><!--MD5=[2bdc00f05ffbda222481780920a1d1de]
reverse link org.sonar.api.server.rule.RulesDefinition to com.hack23.sonar.cloudformation.CloudformationRulesDefinition--><path d="M1185.3272,129.8197 C1189.6406,144.8184 1194.4038,161.3814 1198.8281,176.7659 " fill="none" id="org.sonar.api.server.rule.RulesDefinition&lt;-com.hack23.sonar.cloudformation.CloudformationRulesDefinition" style="stroke: #A80036; stroke-width: 1.0; stroke-dasharray: 7.0,7.0;"/><polygon fill="none" points="1178.5986,131.7498,1179.7983,110.5941,1192.0533,127.8804,1178.5986,131.7498" style="stroke: #A80036; stroke-width: 1.0;"/><!--MD5=[a0a45c0a895aca957ae22b311196540e]
reverse link org.sonar.api.Plugin to com.hack23.sonar.cloudformation.CloudformationPlugin--><path d="M1472.645,129.9164 C1465.7646,153.8413 1457.745,181.7277 1451.7831,202.4589 " fill="none" id="org.sonar.api.Plugin&lt;-com.hack23.sonar.cloudformation.CloudformationPlugin" style="stroke: #A80036; stroke-width: 1.0; stroke-dasharray: 7.0,7.0;"/><polygon fill="none" points="1465.9467,127.8804,1478.2017,110.5941,1479.4014,131.7498,1465.9467,127.8804" style="stroke: #A80036; stroke-width: 1.0;"/><!--MD5=[ccf7d02e476674fce818001880d01f60]
link com.hack23.sonar.cloudformation.CloudformationSensorConfiguration to com.hack23.sonar.cloudformation.CloudformationConstants--><!--MD5=[4267c0e0e1c496da44e4719aff5857d4]
link com.hack23.sonar.cloudformation.CloudformationSensorConfiguration to com.hack23.sonar.cloudformation.CloudformationProperties--><text fill="#888888" font-family="sans-serif" font-size="10" lengthAdjust="spacingAndGlyphs" textLength="186" x="985" y="470.2822">UMLDoclet 2.0.7, PlantUML 1.2019.12</text><!--MD5=[6df962f5416f4150345f02cb8761d5c7]
@startuml
    namespace com.hack23.sonar.cloudformation {

        class CloudformationSensor [[CloudformationSensor.html]] {
            {static} +SENSOR_NAME: String
            +CloudformationSensor(CloudformationSensorConfiguration, FileSystem, PathResolver)
            +describe(SensorDescriptor): void
            +execute(SensorContext): void
        }

        class CloudformationQualityProfile [[CloudformationQualityProfile.html]] {
            {static} +hasRule(String): boolean
            +define(Context): void
        }

        class CloudformationLanguage [[CloudformationLanguage.html]] {
            {static} +NAME: String
            {static} +KEY: String
            +CloudformationLanguage(Configuration)
            +getFileSuffixes(): String[]
        }

        class CloudformationSensorConfiguration [[CloudformationSensorConfiguration.html]] {
            +CloudformationSensorConfiguration(Configuration)
            +getReportFiles(): Optional<String>
        }

        class CloudformationConstants [[CloudformationConstants.html]] {
            {static} +REPORT_FILES_PROPERTY: String
        }

        class CloudformationRulesDefinition [[CloudformationRulesDefinition.html]] {
            {static} +KEY: String
            {static} +NAME: String
            {static} +REPO_KEY: String
            {static} +REPO_NAME: String
            +define(Context): void
        }

        class CloudformationPlugin [[CloudformationPlugin.html]] {
            +define(Context): void
        }

        class CloudformationProperties [[CloudformationProperties.html]] {
            {static} +FILE_SUFFIXES_KEY: String
            {static} +FILE_SUFFIXES_DEFAULT_VALUE: String
            {static} +getProperties(): List<PropertyDefinition>
        }

        org.sonar.api.batch.sensor.Sensor <|.. CloudformationSensor
        org.sonar.api.server.profile.BuiltInQualityProfilesDefinition <|.. CloudformationQualityProfile
        org.sonar.api.resources.AbstractLanguage <|- - CloudformationLanguage
        org.sonar.api.server.rule.RulesDefinition <|.. CloudformationRulesDefinition
        org.sonar.api.Plugin <|.. CloudformationPlugin
    }

    namespace org.sonar.api.batch.sensor {
        interface Sensor {
            {abstract} +describe(SensorDescriptor): void
            {abstract} +execute(SensorContext): void
        }
    }

    namespace org.sonar.api.server.profile {
        interface BuiltInQualityProfilesDefinition {
            {abstract} +define(Context): void
        }
    }

    namespace org.sonar.api.resources {
        abstract class AbstractLanguage {
        }
    }

    namespace org.sonar.api.server.rule {
        interface RulesDefinition {
            {abstract} +define(Context): void
        }
    }

    namespace org.sonar.api {
        interface Plugin {
            {abstract} +define(Context): void
        }
    }

    center footer UMLDoclet 2.0.7, PlantUML 1.2019.12
@enduml

PlantUML version 1.2019.12(Sun Nov 03 11:24:54 CET 2019)
(APACHE source distribution)
Java Runtime: OpenJDK Runtime Environment
JVM: OpenJDK 64-Bit Server VM
Java Version: 11.0.6+10-post-Ubuntu-1ubuntu119.10.1
Operating System: Linux
Default Encoding: UTF-8
Language: en
Country: US
--></g></svg>