<?xml version="1.0" encoding="UTF-8" standalone="no"?><svg xmlns="http://www.w3.org/2000/svg" xmlns:xlink="http://www.w3.org/1999/xlink" contentScriptType="application/ecmascript" contentStyleType="text/css" height="333px" preserveAspectRatio="none" style="width:2089px;height:333px;" version="1.1" viewBox="0 0 2089 333" width="2089px" zoomAndPan="magnify"><defs><filter height="300%" id="fi069wg6luf0t" width="300%" x="-1" y="-1"><feGaussianBlur result="blurOut" stdDeviation="2.0"/><feColorMatrix in="blurOut" result="blurOut2" type="matrix" values="0 0 0 0 0 0 0 0 0 0 0 0 0 0 0 0 0 0 .4 0"/><feOffset dx="4.0" dy="4.0" in="blurOut2" result="blurOut3"/><feBlend in="SourceGraphic" in2="blurOut3" mode="normal"/></filter></defs><g><!--MD5=[7efd255d87f67ac79da5c4891114ef95]
cluster com.hack23.sonar.cloudformation--><polygon fill="#FFFFFF" filter="url(#fi069wg6luf0t)" points="16,155,291,155,298,177.2969,2067,177.2969,2067,305,16,305,16,155" style="stroke: #000000; stroke-width: 1.5;"/><line style="stroke: #000000; stroke-width: 1.5;" x1="16" x2="298" y1="177.2969" y2="177.2969"/><text fill="#000000" font-family="sans-serif" font-size="14" font-weight="bold" lengthAdjust="spacingAndGlyphs" textLength="269" x="20" y="169.9951">com.hack23.sonar.cloudformation</text><!--MD5=[d3bfeb526ca1008dfb54863d3a7224f6]
cluster org.sonar.api.server.rule--><polygon fill="#FFFFFF" filter="url(#fi069wg6luf0t)" points="30,12.5,234,12.5,241,34.7969,244,34.7969,244,124.5,30,124.5,30,12.5" style="stroke: #000000; stroke-width: 1.5;"/><line style="stroke: #000000; stroke-width: 1.5;" x1="30" x2="241" y1="34.7969" y2="34.7969"/><text fill="#000000" font-family="sans-serif" font-size="14" font-weight="bold" lengthAdjust="spacingAndGlyphs" textLength="198" x="34" y="27.4951">org.sonar.api.server.rule</text><!--MD5=[6a86e12f8c3573ef90e7334d9e934390]
cluster org.sonar.api--><polygon fill="#FFFFFF" filter="url(#fi069wg6luf0t)" points="281,12.5,392,12.5,399,34.7969,459,34.7969,459,124.5,281,124.5,281,12.5" style="stroke: #000000; stroke-width: 1.5;"/><line style="stroke: #000000; stroke-width: 1.5;" x1="281" x2="399" y1="34.7969" y2="34.7969"/><text fill="#000000" font-family="sans-serif" font-size="14" font-weight="bold" lengthAdjust="spacingAndGlyphs" textLength="105" x="285" y="27.4951">org.sonar.api</text><!--MD5=[069966ec46c27c575c0e14a62cc3970a]
cluster org.sonar.api.batch.sensor--><polygon fill="#FFFFFF" filter="url(#fi069wg6luf0t)" points="918,6,1138,6,1145,28.2969,1162,28.2969,1162,131,918,131,918,6" style="stroke: #000000; stroke-width: 1.5;"/><line style="stroke: #000000; stroke-width: 1.5;" x1="918" x2="1145" y1="28.2969" y2="28.2969"/><text fill="#000000" font-family="sans-serif" font-size="14" font-weight="bold" lengthAdjust="spacingAndGlyphs" textLength="214" x="922" y="20.9951">org.sonar.api.batch.sensor</text><!--MD5=[ed82d9bf0a7e82c39fc0b923e4deffa3]
cluster org.sonar.api.server.profile--><polygon fill="#FFFFFF" filter="url(#fi069wg6luf0t)" points="1743,12.5,1967,12.5,1974,34.7969,1991,34.7969,1991,124.5,1743,124.5,1743,12.5" style="stroke: #000000; stroke-width: 1.5;"/><line style="stroke: #000000; stroke-width: 1.5;" x1="1743" x2="1974" y1="34.7969" y2="34.7969"/><text fill="#000000" font-family="sans-serif" font-size="14" font-weight="bold" lengthAdjust="spacingAndGlyphs" textLength="218" x="1747" y="27.4951">org.sonar.api.server.profile</text><!--MD5=[9ad602e740eec67d73c5d598917426ba]
class com.hack23.sonar.cloudformation.CloudformationRulesDefinition--><a href="CloudformationRulesDefinition.html" target="_top" title="CloudformationRulesDefinition.html" xlink:actuate="onRequest" xlink:href="CloudformationRulesDefinition.html" xlink:show="new" xlink:title="CloudformationRulesDefinition.html" xlink:type="simple"><rect codeLine="3" fill="#FEFECE" filter="url(#fi069wg6luf0t)" height="99.2188" id="com.hack23.sonar.cloudformation.CloudformationRulesDefinition" style="stroke: #A80036; stroke-width: 1.5;" width="220" x="32" y="190"/><ellipse cx="47" cy="206" fill="#ADD1B2" rx="11" ry="11" style="stroke: #A80036; stroke-width: 1.0;"/><path d="M49.9688,211.6406 Q49.3906,211.9375 48.75,212.0781 Q48.1094,212.2344 47.4063,212.2344 Q44.9063,212.2344 43.5781,210.5938 Q42.2656,208.9375 42.2656,205.8125 Q42.2656,202.6875 43.5781,201.0313 Q44.9063,199.375 47.4063,199.375 Q48.1094,199.375 48.75,199.5313 Q49.4063,199.6875 49.9688,199.9844 L49.9688,202.7031 Q49.3438,202.125 48.75,201.8594 Q48.1563,201.5781 47.5313,201.5781 Q46.1875,201.5781 45.5,202.6563 Q44.8125,203.7188 44.8125,205.8125 Q44.8125,207.9063 45.5,208.9844 Q46.1875,210.0469 47.5313,210.0469 Q48.1563,210.0469 48.75,209.7813 Q49.3438,209.5 49.9688,208.9219 L49.9688,211.6406 Z "/><text fill="#000000" font-family="sans-serif" font-size="12" lengthAdjust="spacingAndGlyphs" textLength="188" x="61" y="210.1543">CloudformationRulesDefinition</text><line style="stroke: #A80036; stroke-width: 1.5;" x1="33" x2="251" y1="222" y2="222"/><ellipse cx="43" cy="233" fill="none" rx="3" ry="3" style="stroke: #038048; stroke-width: 1.0;"/><text fill="#000000" font-family="sans-serif" font-size="11" lengthAdjust="spacingAndGlyphs" text-decoration="underline" textLength="63" x="52" y="236.2104">KEY: String</text><ellipse cx="43" cy="245.8047" fill="none" rx="3" ry="3" style="stroke: #038048; stroke-width: 1.0;"/><text fill="#000000" font-family="sans-serif" font-size="11" lengthAdjust="spacingAndGlyphs" text-decoration="underline" textLength="73" x="52" y="249.0151">NAME: String</text><line style="stroke: #A80036; stroke-width: 1.5;" x1="33" x2="251" y1="255.6094" y2="255.6094"/><ellipse cx="43" cy="266.6094" fill="#84BE84" rx="3" ry="3" style="stroke: #038048; stroke-width: 1.0;"/><text fill="#000000" font-family="sans-serif" font-size="11" lengthAdjust="spacingAndGlyphs" textLength="120" x="52" y="269.8198">getContext(): Context</text><ellipse cx="43" cy="279.4141" fill="#84BE84" rx="3" ry="3" style="stroke: #038048; stroke-width: 1.0;"/><text fill="#000000" font-family="sans-serif" font-size="11" lengthAdjust="spacingAndGlyphs" textLength="117" x="52" y="282.6245">define(Context): void</text></a><!--MD5=[c3108af317c2c934cdb7e0b2dc4ec977]
class com.hack23.sonar.cloudformation.CloudformationSensorConfiguration--><a href="CloudformationSensorConfiguration.html" target="_top" title="CloudformationSensorConfiguration.html" xlink:actuate="onRequest" xlink:href="CloudformationSensorConfiguration.html" xlink:show="new" xlink:title="CloudformationSensorConfiguration.html" xlink:type="simple"><rect codeLine="10" fill="#FEFECE" filter="url(#fi069wg6luf0t)" height="86.4141" id="com.hack23.sonar.cloudformation.CloudformationSensorConfiguration" style="stroke: #A80036; stroke-width: 1.5;" width="314" x="1334" y="196.5"/><ellipse cx="1375.55" cy="212.5" fill="#ADD1B2" rx="11" ry="11" style="stroke: #A80036; stroke-width: 1.0;"/><path d="M1378.5188,218.1406 Q1377.9406,218.4375 1377.3,218.5781 Q1376.6594,218.7344 1375.9563,218.7344 Q1373.4563,218.7344 1372.1281,217.0938 Q1370.8156,215.4375 1370.8156,212.3125 Q1370.8156,209.1875 1372.1281,207.5313 Q1373.4563,205.875 1375.9563,205.875 Q1376.6594,205.875 1377.3,206.0313 Q1377.9563,206.1875 1378.5188,206.4844 L1378.5188,209.2031 Q1377.8938,208.625 1377.3,208.3594 Q1376.7063,208.0781 1376.0813,208.0781 Q1374.7375,208.0781 1374.05,209.1563 Q1373.3625,210.2188 1373.3625,212.3125 Q1373.3625,214.4063 1374.05,215.4844 Q1374.7375,216.5469 1376.0813,216.5469 Q1376.7063,216.5469 1377.3,216.2813 Q1377.8938,216 1378.5188,215.4219 L1378.5188,218.1406 Z "/><text fill="#000000" font-family="sans-serif" font-size="12" lengthAdjust="spacingAndGlyphs" textLength="223" x="1395.45" y="216.6543">CloudformationSensorConfiguration</text><line style="stroke: #A80036; stroke-width: 1.5;" x1="1335" x2="1647" y1="228.5" y2="228.5"/><line style="stroke: #A80036; stroke-width: 1.5;" x1="1335" x2="1647" y1="236.5" y2="236.5"/><ellipse cx="1345" cy="247.5" fill="#84BE84" rx="3" ry="3" style="stroke: #038048; stroke-width: 1.0;"/><text fill="#000000" font-family="sans-serif" font-size="11" lengthAdjust="spacingAndGlyphs" textLength="288" x="1354" y="250.7104">CloudformationSensorConfiguration(Configuration)</text><ellipse cx="1345" cy="260.3047" fill="#84BE84" rx="3" ry="3" style="stroke: #038048; stroke-width: 1.0;"/><text fill="#000000" font-family="sans-serif" font-size="11" lengthAdjust="spacingAndGlyphs" textLength="237" x="1354" y="263.5151">getCfnNagReportFiles(): Optional&lt;String&gt;</text><ellipse cx="1345" cy="273.1094" fill="#84BE84" rx="3" ry="3" style="stroke: #038048; stroke-width: 1.0;"/><text fill="#000000" font-family="sans-serif" font-size="11" lengthAdjust="spacingAndGlyphs" textLength="243" x="1354" y="276.3198">getCheckovReportFiles(): Optional&lt;String&gt;</text></a><!--MD5=[4e78556fd0fd0f12622aab97e46ad39c]
class com.hack23.sonar.cloudformation.CloudformationPlugin--><a href="CloudformationPlugin.html" target="_top" title="CloudformationPlugin.html" xlink:actuate="onRequest" xlink:href="CloudformationPlugin.html" xlink:show="new" xlink:title="CloudformationPlugin.html" xlink:type="simple"><rect codeLine="16" fill="#FEFECE" filter="url(#fi069wg6luf0t)" height="60.8047" id="com.hack23.sonar.cloudformation.CloudformationPlugin" style="stroke: #A80036; stroke-width: 1.5;" width="165" x="287.5" y="209"/><ellipse cx="302.5" cy="225" fill="#ADD1B2" rx="11" ry="11" style="stroke: #A80036; stroke-width: 1.0;"/><path d="M305.4688,230.6406 Q304.8906,230.9375 304.25,231.0781 Q303.6094,231.2344 302.9063,231.2344 Q300.4063,231.2344 299.0781,229.5938 Q297.7656,227.9375 297.7656,224.8125 Q297.7656,221.6875 299.0781,220.0313 Q300.4063,218.375 302.9063,218.375 Q303.6094,218.375 304.25,218.5313 Q304.9063,218.6875 305.4688,218.9844 L305.4688,221.7031 Q304.8438,221.125 304.25,220.8594 Q303.6563,220.5781 303.0313,220.5781 Q301.6875,220.5781 301,221.6563 Q300.3125,222.7188 300.3125,224.8125 Q300.3125,226.9063 301,227.9844 Q301.6875,229.0469 303.0313,229.0469 Q303.6563,229.0469 304.25,228.7813 Q304.8438,228.5 305.4688,227.9219 L305.4688,230.6406 Z "/><text fill="#000000" font-family="sans-serif" font-size="12" lengthAdjust="spacingAndGlyphs" textLength="133" x="316.5" y="229.1543">CloudformationPlugin</text><line style="stroke: #A80036; stroke-width: 1.5;" x1="288.5" x2="451.5" y1="241" y2="241"/><line style="stroke: #A80036; stroke-width: 1.5;" x1="288.5" x2="451.5" y1="249" y2="249"/><ellipse cx="298.5" cy="260" fill="#84BE84" rx="3" ry="3" style="stroke: #038048; stroke-width: 1.0;"/><text fill="#000000" font-family="sans-serif" font-size="11" lengthAdjust="spacingAndGlyphs" textLength="117" x="307.5" y="263.2104">define(Context): void</text></a><!--MD5=[17b8c490b45d6f269308ea962cf0181d]
class com.hack23.sonar.cloudformation.CloudformationProperties--><a href="CloudformationProperties.html" target="_top" title="CloudformationProperties.html" xlink:actuate="onRequest" xlink:href="CloudformationProperties.html" xlink:show="new" xlink:title="CloudformationProperties.html" xlink:type="simple"><rect codeLine="20" fill="#FEFECE" filter="url(#fi069wg6luf0t)" height="60.8047" id="com.hack23.sonar.cloudformation.CloudformationProperties" style="stroke: #A80036; stroke-width: 1.5;" width="258" x="488" y="209"/><ellipse cx="532.75" cy="225" fill="#ADD1B2" rx="11" ry="11" style="stroke: #A80036; stroke-width: 1.0;"/><path d="M535.7188,230.6406 Q535.1406,230.9375 534.5,231.0781 Q533.8594,231.2344 533.1563,231.2344 Q530.6563,231.2344 529.3281,229.5938 Q528.0156,227.9375 528.0156,224.8125 Q528.0156,221.6875 529.3281,220.0313 Q530.6563,218.375 533.1563,218.375 Q533.8594,218.375 534.5,218.5313 Q535.1563,218.6875 535.7188,218.9844 L535.7188,221.7031 Q535.0938,221.125 534.5,220.8594 Q533.9063,220.5781 533.2813,220.5781 Q531.9375,220.5781 531.25,221.6563 Q530.5625,222.7188 530.5625,224.8125 Q530.5625,226.9063 531.25,227.9844 Q531.9375,229.0469 533.2813,229.0469 Q533.9063,229.0469 534.5,228.7813 Q535.0938,228.5 535.7188,227.9219 L535.7188,230.6406 Z "/><text fill="#000000" font-family="sans-serif" font-size="12" lengthAdjust="spacingAndGlyphs" textLength="160" x="553.25" y="229.1543">CloudformationProperties</text><line style="stroke: #A80036; stroke-width: 1.5;" x1="489" x2="745" y1="241" y2="241"/><line style="stroke: #A80036; stroke-width: 1.5;" x1="489" x2="745" y1="249" y2="249"/><ellipse cx="499" cy="260" fill="#84BE84" rx="3" ry="3" style="stroke: #038048; stroke-width: 1.0;"/><text fill="#000000" font-family="sans-serif" font-size="11" lengthAdjust="spacingAndGlyphs" text-decoration="underline" textLength="232" x="508" y="263.2104">getProperties(): List&lt;PropertyDefinition&gt;</text></a><!--MD5=[5cd76e2d5be102320ba6d55700009822]
class com.hack23.sonar.cloudformation.CloudformationSensor--><a href="CloudformationSensor.html" target="_top" title="CloudformationSensor.html" xlink:actuate="onRequest" xlink:href="CloudformationSensor.html" xlink:show="new" xlink:title="CloudformationSensor.html" xlink:type="simple"><rect codeLine="24" fill="#FEFECE" filter="url(#fi069wg6luf0t)" height="99.2188" id="com.hack23.sonar.cloudformation.CloudformationSensor" style="stroke: #A80036; stroke-width: 1.5;" width="518" x="781" y="190"/><ellipse cx="966.25" cy="206" fill="#ADD1B2" rx="11" ry="11" style="stroke: #A80036; stroke-width: 1.0;"/><path d="M969.2188,211.6406 Q968.6406,211.9375 968,212.0781 Q967.3594,212.2344 966.6563,212.2344 Q964.1563,212.2344 962.8281,210.5938 Q961.5156,208.9375 961.5156,205.8125 Q961.5156,202.6875 962.8281,201.0313 Q964.1563,199.375 966.6563,199.375 Q967.3594,199.375 968,199.5313 Q968.6563,199.6875 969.2188,199.9844 L969.2188,202.7031 Q968.5938,202.125 968,201.8594 Q967.4063,201.5781 966.7813,201.5781 Q965.4375,201.5781 964.75,202.6563 Q964.0625,203.7188 964.0625,205.8125 Q964.0625,207.9063 964.75,208.9844 Q965.4375,210.0469 966.7813,210.0469 Q967.4063,210.0469 968,209.7813 Q968.5938,209.5 969.2188,208.9219 L969.2188,211.6406 Z "/><text fill="#000000" font-family="sans-serif" font-size="12" lengthAdjust="spacingAndGlyphs" textLength="139" x="986.75" y="210.1543">CloudformationSensor</text><line style="stroke: #A80036; stroke-width: 1.5;" x1="782" x2="1298" y1="222" y2="222"/><ellipse cx="792" cy="233" fill="none" rx="3" ry="3" style="stroke: #038048; stroke-width: 1.0;"/><text fill="#000000" font-family="sans-serif" font-size="11" lengthAdjust="spacingAndGlyphs" text-decoration="underline" textLength="126" x="801" y="236.2104">SENSOR_NAME: String</text><line style="stroke: #A80036; stroke-width: 1.5;" x1="782" x2="1298" y1="242.8047" y2="242.8047"/><ellipse cx="792" cy="253.8047" fill="#84BE84" rx="3" ry="3" style="stroke: #038048; stroke-width: 1.0;"/><text fill="#000000" font-family="sans-serif" font-size="11" lengthAdjust="spacingAndGlyphs" textLength="492" x="801" y="257.0151">CloudformationSensor(CloudformationSensorConfiguration, FileSystem, PathResolver)</text><ellipse cx="792" cy="266.6094" fill="#84BE84" rx="3" ry="3" style="stroke: #038048; stroke-width: 1.0;"/><text fill="#000000" font-family="sans-serif" font-size="11" lengthAdjust="spacingAndGlyphs" textLength="188" x="801" y="269.8198">describe(SensorDescriptor): void</text><ellipse cx="792" cy="279.4141" fill="#84BE84" rx="3" ry="3" style="stroke: #038048; stroke-width: 1.0;"/><text fill="#000000" font-family="sans-serif" font-size="11" lengthAdjust="spacingAndGlyphs" textLength="167" x="801" y="282.6245">execute(SensorContext): void</text></a><!--MD5=[fe768997cbfd64bbe9e45e6331c668d3]
class com.hack23.sonar.cloudformation.CloudformationQualityProfile--><a href="CloudformationQualityProfile.html" target="_top" title="CloudformationQualityProfile.html" xlink:actuate="onRequest" xlink:href="CloudformationQualityProfile.html" xlink:show="new" xlink:title="CloudformationQualityProfile.html" xlink:type="simple"><rect codeLine="31" fill="#FEFECE" filter="url(#fi069wg6luf0t)" height="73.6094" id="com.hack23.sonar.cloudformation.CloudformationQualityProfile" style="stroke: #A80036; stroke-width: 1.5;" width="367" x="1683.5" y="202.5"/><ellipse cx="1774.75" cy="218.5" fill="#ADD1B2" rx="11" ry="11" style="stroke: #A80036; stroke-width: 1.0;"/><path d="M1777.7188,224.1406 Q1777.1406,224.4375 1776.5,224.5781 Q1775.8594,224.7344 1775.1563,224.7344 Q1772.6563,224.7344 1771.3281,223.0938 Q1770.0156,221.4375 1770.0156,218.3125 Q1770.0156,215.1875 1771.3281,213.5313 Q1772.6563,211.875 1775.1563,211.875 Q1775.8594,211.875 1776.5,212.0313 Q1777.1563,212.1875 1777.7188,212.4844 L1777.7188,215.2031 Q1777.0938,214.625 1776.5,214.3594 Q1775.9063,214.0781 1775.2813,214.0781 Q1773.9375,214.0781 1773.25,215.1563 Q1772.5625,216.2188 1772.5625,218.3125 Q1772.5625,220.4063 1773.25,221.4844 Q1773.9375,222.5469 1775.2813,222.5469 Q1775.9063,222.5469 1776.5,222.2813 Q1777.0938,222 1777.7188,221.4219 L1777.7188,224.1406 Z "/><text fill="#000000" font-family="sans-serif" font-size="12" lengthAdjust="spacingAndGlyphs" textLength="176" x="1795.25" y="222.6543">CloudformationQualityProfile</text><line style="stroke: #A80036; stroke-width: 1.5;" x1="1684.5" x2="2049.5" y1="234.5" y2="234.5"/><line style="stroke: #A80036; stroke-width: 1.5;" x1="1684.5" x2="2049.5" y1="242.5" y2="242.5"/><ellipse cx="1694.5" cy="253.5" fill="#84BE84" rx="3" ry="3" style="stroke: #038048; stroke-width: 1.0;"/><text fill="#000000" font-family="sans-serif" font-size="11" lengthAdjust="spacingAndGlyphs" textLength="341" x="1703.5" y="256.7104">CloudformationQualityProfile(CloudformationRulesDefinition)</text><ellipse cx="1694.5" cy="266.3047" fill="#84BE84" rx="3" ry="3" style="stroke: #038048; stroke-width: 1.0;"/><text fill="#000000" font-family="sans-serif" font-size="11" lengthAdjust="spacingAndGlyphs" textLength="117" x="1703.5" y="269.5151">define(Context): void</text></a><!--MD5=[0c41336916cc93e234215d73ea118e70]
class org.sonar.api.server.rule.RulesDefinition--><rect codeLine="43" fill="#FEFECE" filter="url(#fi069wg6luf0t)" height="60.8047" id="org.sonar.api.server.rule.RulesDefinition" style="stroke: #A80036; stroke-width: 1.5;" width="145" x="69.5" y="47.5"/><ellipse cx="93.95" cy="63.5" fill="#B4A7E5" rx="11" ry="11" style="stroke: #A80036; stroke-width: 1.0;"/><path d="M89.8719,59.2656 L89.8719,57.1094 L97.2625,57.1094 L97.2625,59.2656 L94.7938,59.2656 L94.7938,67.3438 L97.2625,67.3438 L97.2625,69.5 L89.8719,69.5 L89.8719,67.3438 L92.3406,67.3438 L92.3406,59.2656 L89.8719,59.2656 Z "/><text fill="#000000" font-family="sans-serif" font-size="12" font-style="italic" lengthAdjust="spacingAndGlyphs" textLength="92" x="110.05" y="67.6543">RulesDefinition</text><line style="stroke: #A80036; stroke-width: 1.5;" x1="70.5" x2="213.5" y1="79.5" y2="79.5"/><line style="stroke: #A80036; stroke-width: 1.5;" x1="70.5" x2="213.5" y1="87.5" y2="87.5"/><ellipse cx="80.5" cy="98.5" fill="#84BE84" rx="3" ry="3" style="stroke: #038048; stroke-width: 1.0;"/><text fill="#000000" font-family="sans-serif" font-size="11" font-style="italic" lengthAdjust="spacingAndGlyphs" textLength="119" x="89.5" y="101.7104">define(Context): void</text><!--MD5=[357bc6d468bbe4af181e679b5a7d4bc8]
class org.sonar.api.Plugin--><rect codeLine="49" fill="#FEFECE" filter="url(#fi069wg6luf0t)" height="60.8047" id="org.sonar.api.Plugin" style="stroke: #A80036; stroke-width: 1.5;" width="145" x="297.5" y="47.5"/><ellipse cx="347.25" cy="63.5" fill="#B4A7E5" rx="11" ry="11" style="stroke: #A80036; stroke-width: 1.0;"/><path d="M343.1719,59.2656 L343.1719,57.1094 L350.5625,57.1094 L350.5625,59.2656 L348.0938,59.2656 L348.0938,67.3438 L350.5625,67.3438 L350.5625,69.5 L343.1719,69.5 L343.1719,67.3438 L345.6406,67.3438 L345.6406,59.2656 L343.1719,59.2656 Z "/><text fill="#000000" font-family="sans-serif" font-size="12" font-style="italic" lengthAdjust="spacingAndGlyphs" textLength="37" x="367.75" y="67.6543">Plugin</text><line style="stroke: #A80036; stroke-width: 1.5;" x1="298.5" x2="441.5" y1="79.5" y2="79.5"/><line style="stroke: #A80036; stroke-width: 1.5;" x1="298.5" x2="441.5" y1="87.5" y2="87.5"/><ellipse cx="308.5" cy="98.5" fill="#84BE84" rx="3" ry="3" style="stroke: #038048; stroke-width: 1.0;"/><text fill="#000000" font-family="sans-serif" font-size="11" font-style="italic" lengthAdjust="spacingAndGlyphs" textLength="119" x="317.5" y="101.7104">define(Context): void</text><!--MD5=[f8b565af0d68398934f95a4a7e456578]
class org.sonar.api.batch.sensor.Sensor--><rect codeLine="55" fill="#FEFECE" filter="url(#fi069wg6luf0t)" height="73.6094" id="org.sonar.api.batch.sensor.Sensor" style="stroke: #A80036; stroke-width: 1.5;" width="211" x="934.5" y="41"/><ellipse cx="1014.25" cy="57" fill="#B4A7E5" rx="11" ry="11" style="stroke: #A80036; stroke-width: 1.0;"/><path d="M1010.1719,52.7656 L1010.1719,50.6094 L1017.5625,50.6094 L1017.5625,52.7656 L1015.0938,52.7656 L1015.0938,60.8438 L1017.5625,60.8438 L1017.5625,63 L1010.1719,63 L1010.1719,60.8438 L1012.6406,60.8438 L1012.6406,52.7656 L1010.1719,52.7656 Z "/><text fill="#000000" font-family="sans-serif" font-size="12" font-style="italic" lengthAdjust="spacingAndGlyphs" textLength="43" x="1034.75" y="61.1543">Sensor</text><line style="stroke: #A80036; stroke-width: 1.5;" x1="935.5" x2="1144.5" y1="73" y2="73"/><line style="stroke: #A80036; stroke-width: 1.5;" x1="935.5" x2="1144.5" y1="81" y2="81"/><ellipse cx="945.5" cy="92" fill="#84BE84" rx="3" ry="3" style="stroke: #038048; stroke-width: 1.0;"/><text fill="#000000" font-family="sans-serif" font-size="11" font-style="italic" lengthAdjust="spacingAndGlyphs" textLength="185" x="954.5" y="95.2104">describe(SensorDescriptor): void</text><ellipse cx="945.5" cy="104.8047" fill="#84BE84" rx="3" ry="3" style="stroke: #038048; stroke-width: 1.0;"/><text fill="#000000" font-family="sans-serif" font-size="11" font-style="italic" lengthAdjust="spacingAndGlyphs" textLength="168" x="954.5" y="108.0151">execute(SensorContext): void</text><!--MD5=[bccf4df98d34ca024eaa4f9d7ebedb88]
class org.sonar.api.server.profile.BuiltInQualityProfilesDefinition--><rect codeLine="62" fill="#FEFECE" filter="url(#fi069wg6luf0t)" height="60.8047" id="org.sonar.api.server.profile.BuiltInQualityProfilesDefinition" style="stroke: #A80036; stroke-width: 1.5;" width="216" x="1759" y="47.5"/><ellipse cx="1774" cy="63.5" fill="#B4A7E5" rx="11" ry="11" style="stroke: #A80036; stroke-width: 1.0;"/><path d="M1769.9219,59.2656 L1769.9219,57.1094 L1777.3125,57.1094 L1777.3125,59.2656 L1774.8438,59.2656 L1774.8438,67.3438 L1777.3125,67.3438 L1777.3125,69.5 L1769.9219,69.5 L1769.9219,67.3438 L1772.3906,67.3438 L1772.3906,59.2656 L1769.9219,59.2656 Z "/><text fill="#000000" font-family="sans-serif" font-size="12" font-style="italic" lengthAdjust="spacingAndGlyphs" textLength="184" x="1788" y="67.6543">BuiltInQualityProfilesDefinition</text><line style="stroke: #A80036; stroke-width: 1.5;" x1="1760" x2="1974" y1="79.5" y2="79.5"/><line style="stroke: #A80036; stroke-width: 1.5;" x1="1760" x2="1974" y1="87.5" y2="87.5"/><ellipse cx="1770" cy="98.5" fill="#84BE84" rx="3" ry="3" style="stroke: #038048; stroke-width: 1.0;"/><text fill="#000000" font-family="sans-serif" font-size="11" font-style="italic" lengthAdjust="spacingAndGlyphs" textLength="119" x="1779" y="101.7104">define(Context): void</text><!--MD5=[2bdc00f05ffbda222481780920a1d1de]
reverse link org.sonar.api.server.rule.RulesDefinition to com.hack23.sonar.cloudformation.CloudformationRulesDefinition--><path codeLine="36" d="M142,128.77 C142,148.26 142,170.55 142,189.92 " fill="none" id="org.sonar.api.server.rule.RulesDefinition-backto-com.hack23.sonar.cloudformation.CloudformationRulesDefinition" style="stroke: #A80036; stroke-width: 1.0; stroke-dasharray: 7.0,7.0;"/><polygon fill="none" points="135,128.63,142,108.63,149,128.63,135,128.63" style="stroke: #A80036; stroke-width: 1.0;"/><!--MD5=[a0a45c0a895aca957ae22b311196540e]
reverse link org.sonar.api.Plugin to com.hack23.sonar.cloudformation.CloudformationPlugin--><path codeLine="37" d="M370,128.75 C370,154.99 370,186.31 370,208.76 " fill="none" id="org.sonar.api.Plugin-backto-com.hack23.sonar.cloudformation.CloudformationPlugin" style="stroke: #A80036; stroke-width: 1.0; stroke-dasharray: 7.0,7.0;"/><polygon fill="none" points="363,128.63,370,108.63,377,128.63,363,128.63" style="stroke: #A80036; stroke-width: 1.0;"/><!--MD5=[3685ffe233817ba259f4776860359136]
reverse link org.sonar.api.batch.sensor.Sensor to com.hack23.sonar.cloudformation.CloudformationSensor--><path codeLine="38" d="M1040,135.38 C1040,153.13 1040,172.58 1040,189.75 " fill="none" id="org.sonar.api.batch.sensor.Sensor-backto-com.hack23.sonar.cloudformation.CloudformationSensor" style="stroke: #A80036; stroke-width: 1.0; stroke-dasharray: 7.0,7.0;"/><polygon fill="none" points="1033,135.19,1040,115.19,1047,135.19,1033,135.19" style="stroke: #A80036; stroke-width: 1.0;"/><!--MD5=[63fe7b739a87e21952d62265d328e55c]
reverse link org.sonar.api.server.profile.BuiltInQualityProfilesDefinition to com.hack23.sonar.cloudformation.CloudformationQualityProfile--><path codeLine="39" d="M1867,128.64 C1867,152.48 1867,180.53 1867,202.32 " fill="none" id="org.sonar.api.server.profile.BuiltInQualityProfilesDefinition-backto-com.hack23.sonar.cloudformation.CloudformationQualityProfile" style="stroke: #A80036; stroke-width: 1.0; stroke-dasharray: 7.0,7.0;"/><polygon fill="none" points="1860,128.63,1867,108.63,1874,128.63,1860,128.63" style="stroke: #A80036; stroke-width: 1.0;"/><text fill="#888888" font-family="sans-serif" font-size="10" lengthAdjust="spacingAndGlyphs" textLength="192" x="939.5" y="320.2822">UMLDoclet 2.0.12, PlantUML 1.2020.16</text><!--MD5=[cd2e138e0555fcc19f7678988a73e2b3]
@startuml
    namespace com.hack23.sonar.cloudformation {

        class CloudformationRulesDefinition [[CloudformationRulesDefinition.html]] {
            {static} +KEY: String
            {static} +NAME: String
            +getContext(): Context
            +define(Context): void
        }

        class CloudformationSensorConfiguration [[CloudformationSensorConfiguration.html]] {
            +CloudformationSensorConfiguration(Configuration)
            +getCfnNagReportFiles(): Optional<String>
            +getCheckovReportFiles(): Optional<String>
        }

        class CloudformationPlugin [[CloudformationPlugin.html]] {
            +define(Context): void
        }

        class CloudformationProperties [[CloudformationProperties.html]] {
            {static} +getProperties(): List<PropertyDefinition>
        }

        class CloudformationSensor [[CloudformationSensor.html]] {
            {static} +SENSOR_NAME: String
            +CloudformationSensor(CloudformationSensorConfiguration, FileSystem, PathResolver)
            +describe(SensorDescriptor): void
            +execute(SensorContext): void
        }

        class CloudformationQualityProfile [[CloudformationQualityProfile.html]] {
            +CloudformationQualityProfile(CloudformationRulesDefinition)
            +define(Context): void
        }

        org.sonar.api.server.rule.RulesDefinition <|.. CloudformationRulesDefinition
        org.sonar.api.Plugin <|.. CloudformationPlugin
        org.sonar.api.batch.sensor.Sensor <|.. CloudformationSensor
        org.sonar.api.server.profile.BuiltInQualityProfilesDefinition <|.. CloudformationQualityProfile
    }

    namespace org.sonar.api.server.rule {
        interface RulesDefinition {
            {abstract} +define(Context): void
        }
    }

    namespace org.sonar.api {
        interface Plugin {
            {abstract} +define(Context): void
        }
    }

    namespace org.sonar.api.batch.sensor {
        interface Sensor {
            {abstract} +describe(SensorDescriptor): void
            {abstract} +execute(SensorContext): void
        }
    }

    namespace org.sonar.api.server.profile {
        interface BuiltInQualityProfilesDefinition {
            {abstract} +define(Context): void
        }
    }

    center footer UMLDoclet 2.0.12, PlantUML 1.2020.16
@enduml

PlantUML version 1.2020.16(Sun Aug 23 22:20:43 CEST 2020)
(APACHE source distribution)
Java Runtime: OpenJDK Runtime Environment
JVM: OpenJDK 64-Bit Server VM
Default Encoding: UTF-8
Language: en
Country: US
--></g></svg>