<?xml version="1.0" encoding="UTF-8" standalone="no"?><svg xmlns="http://www.w3.org/2000/svg" xmlns:xlink="http://www.w3.org/1999/xlink" contentScriptType="application/ecmascript" contentStyleType="text/css" height="496px" preserveAspectRatio="none" style="width:2160px;height:496px;" version="1.1" viewBox="0 0 2160 496" width="2160px" zoomAndPan="magnify"><defs><filter height="300%" id="f13fd3e3qk9wz5" width="300%" x="-1" y="-1"><feGaussianBlur result="blurOut" stdDeviation="2.0"/><feColorMatrix in="blurOut" result="blurOut2" type="matrix" values="0 0 0 0 0 0 0 0 0 0 0 0 0 0 0 0 0 0 .4 0"/><feOffset dx="4.0" dy="4.0" in="blurOut2" result="blurOut3"/><feBlend in="SourceGraphic" in2="blurOut3" mode="normal"/></filter></defs><g><!--cluster com.hack23.sonar.cloudformation--><polygon fill="#FFFFFF" filter="url(#f13fd3e3qk9wz5)" points="14,150,289,150,296,172.2969,2138,172.2969,2138,456,14,456,14,150" style="stroke: #000000; stroke-width: 1.5;"/><line style="stroke: #000000; stroke-width: 1.5;" x1="14" x2="296" y1="172.2969" y2="172.2969"/><text fill="#000000" font-family="sans-serif" font-size="14" font-weight="bold" lengthAdjust="spacingAndGlyphs" textLength="269" x="18" y="164.9951">com.hack23.sonar.cloudformation</text><!--cluster org.sonar.api.batch.sensor--><polygon fill="#FFFFFF" filter="url(#f13fd3e3qk9wz5)" points="166,16,386,16,393,38.2969,396,38.2969,396,125,166,125,166,16" style="stroke: #000000; stroke-width: 1.5;"/><line style="stroke: #000000; stroke-width: 1.5;" x1="166" x2="393" y1="38.2969" y2="38.2969"/><text fill="#000000" font-family="sans-serif" font-size="14" font-weight="bold" lengthAdjust="spacingAndGlyphs" textLength="214" x="170" y="30.9951">org.sonar.api.batch.sensor</text><!--cluster org.sonar.api.server.profile--><polygon fill="#FFFFFF" filter="url(#f13fd3e3qk9wz5)" points="566,22.5,790,22.5,797,44.7969,800,44.7969,800,118.5,566,118.5,566,22.5" style="stroke: #000000; stroke-width: 1.5;"/><line style="stroke: #000000; stroke-width: 1.5;" x1="566" x2="797" y1="44.7969" y2="44.7969"/><text fill="#000000" font-family="sans-serif" font-size="14" font-weight="bold" lengthAdjust="spacingAndGlyphs" textLength="218" x="570" y="37.4951">org.sonar.api.server.profile</text><!--cluster org.sonar.api.resources--><polygon fill="#FFFFFF" filter="url(#f13fd3e3qk9wz5)" points="849,29,1046,29,1053,51.2969,1056,51.2969,1056,112,849,112,849,29" style="stroke: #000000; stroke-width: 1.5;"/><line style="stroke: #000000; stroke-width: 1.5;" x1="849" x2="1053" y1="51.2969" y2="51.2969"/><text fill="#000000" font-family="sans-serif" font-size="14" font-weight="bold" lengthAdjust="spacingAndGlyphs" textLength="191" x="853" y="43.9951">org.sonar.api.resources</text><!--cluster org.sonar.api.server.rule--><polygon fill="#FFFFFF" filter="url(#f13fd3e3qk9wz5)" points="1116,22.5,1320,22.5,1327,44.7969,1330,44.7969,1330,118.5,1116,118.5,1116,22.5" style="stroke: #000000; stroke-width: 1.5;"/><line style="stroke: #000000; stroke-width: 1.5;" x1="1116" x2="1327" y1="44.7969" y2="44.7969"/><text fill="#000000" font-family="sans-serif" font-size="14" font-weight="bold" lengthAdjust="spacingAndGlyphs" textLength="198" x="1120" y="37.4951">org.sonar.api.server.rule</text><!--cluster org.sonar.api--><polygon fill="#FFFFFF" filter="url(#f13fd3e3qk9wz5)" points="1370,22.5,1481,22.5,1488,44.7969,1532,44.7969,1532,118.5,1370,118.5,1370,22.5" style="stroke: #000000; stroke-width: 1.5;"/><line style="stroke: #000000; stroke-width: 1.5;" x1="1370" x2="1488" y1="44.7969" y2="44.7969"/><text fill="#000000" font-family="sans-serif" font-size="14" font-weight="bold" lengthAdjust="spacingAndGlyphs" textLength="105" x="1374" y="37.4951">org.sonar.api</text><!--class com.hack23.sonar.cloudformation.CloudformationSensor--><a target="_top" xlink:actuate="onRequest" xlink:href="CloudformationSensor.html" xlink:show="new" xlink:title="CloudformationSensor.html" xlink:type="simple"><rect fill="#FEFECE" filter="url(#f13fd3e3qk9wz5)" height="99.2188" id="com.hack23.sonar.cloudformation.CloudformationSensor" style="stroke: #A80036; stroke-width: 1.5;" width="518" x="22" y="190"/><ellipse cx="207.25" cy="206" fill="#ADD1B2" rx="11" ry="11" style="stroke: #A80036; stroke-width: 1.0;"/><path d="M210.2188,211.6406 Q209.6406,211.9375 209,212.0781 Q208.3594,212.2344 207.6563,212.2344 Q205.1563,212.2344 203.8281,210.5938 Q202.5156,208.9375 202.5156,205.8125 Q202.5156,202.6875 203.8281,201.0313 Q205.1563,199.375 207.6563,199.375 Q208.3594,199.375 209,199.5313 Q209.6563,199.6875 210.2188,199.9844 L210.2188,202.7031 Q209.5938,202.125 209,201.8594 Q208.4063,201.5781 207.7813,201.5781 Q206.4375,201.5781 205.75,202.6563 Q205.0625,203.7188 205.0625,205.8125 Q205.0625,207.9063 205.75,208.9844 Q206.4375,210.0469 207.7813,210.0469 Q208.4063,210.0469 209,209.7813 Q209.5938,209.5 210.2188,208.9219 L210.2188,211.6406 Z "/><text fill="#000000" font-family="sans-serif" font-size="12" lengthAdjust="spacingAndGlyphs" textLength="139" x="227.75" y="210.1543">CloudformationSensor</text><line style="stroke: #A80036; stroke-width: 1.5;" x1="23" x2="539" y1="222" y2="222"/><ellipse cx="33" cy="233.9023" fill="none" rx="3" ry="3" style="stroke: #038048; stroke-width: 1.0;"/><text fill="#000000" font-family="sans-serif" font-size="11" lengthAdjust="spacingAndGlyphs" text-decoration="underline" textLength="126" x="42" y="236.2104">SENSOR_NAME: String</text><line style="stroke: #000000; stroke-width: 1.0;" x1="42" x2="168" y1="238.2104" y2="238.2104"/><line style="stroke: #A80036; stroke-width: 1.5;" x1="23" x2="539" y1="242.8047" y2="242.8047"/><ellipse cx="33" cy="254.707" fill="#84BE84" rx="3" ry="3" style="stroke: #038048; stroke-width: 1.0;"/><text fill="#000000" font-family="sans-serif" font-size="11" lengthAdjust="spacingAndGlyphs" textLength="492" x="42" y="257.0151">CloudformationSensor(CloudformationSensorConfiguration, FileSystem, PathResolver)</text><ellipse cx="33" cy="267.5117" fill="#84BE84" rx="3" ry="3" style="stroke: #038048; stroke-width: 1.0;"/><text fill="#000000" font-family="sans-serif" font-size="11" lengthAdjust="spacingAndGlyphs" textLength="188" x="42" y="269.8198">describe(SensorDescriptor): void</text><ellipse cx="33" cy="280.3164" fill="#84BE84" rx="3" ry="3" style="stroke: #038048; stroke-width: 1.0;"/><text fill="#000000" font-family="sans-serif" font-size="11" lengthAdjust="spacingAndGlyphs" textLength="167" x="42" y="282.6245">execute(SensorContext): void</text></a><!--class com.hack23.sonar.cloudformation.CloudformationQualityProfile--><a target="_top" xlink:actuate="onRequest" xlink:href="CloudformationQualityProfile.html" xlink:show="new" xlink:title="CloudformationQualityProfile.html" xlink:type="simple"><rect fill="#FEFECE" filter="url(#f13fd3e3qk9wz5)" height="73.6094" id="com.hack23.sonar.cloudformation.CloudformationQualityProfile" style="stroke: #A80036; stroke-width: 1.5;" width="215" x="575.5" y="202.5"/><ellipse cx="593.65" cy="218.5" fill="#ADD1B2" rx="11" ry="11" style="stroke: #A80036; stroke-width: 1.0;"/><path d="M596.6188,224.1406 Q596.0406,224.4375 595.4,224.5781 Q594.7594,224.7344 594.0563,224.7344 Q591.5563,224.7344 590.2281,223.0938 Q588.9156,221.4375 588.9156,218.3125 Q588.9156,215.1875 590.2281,213.5313 Q591.5563,211.875 594.0563,211.875 Q594.7594,211.875 595.4,212.0313 Q596.0563,212.1875 596.6188,212.4844 L596.6188,215.2031 Q595.9938,214.625 595.4,214.3594 Q594.8063,214.0781 594.1813,214.0781 Q592.8375,214.0781 592.15,215.1563 Q591.4625,216.2188 591.4625,218.3125 Q591.4625,220.4063 592.15,221.4844 Q592.8375,222.5469 594.1813,222.5469 Q594.8063,222.5469 595.4,222.2813 Q595.9938,222 596.6188,221.4219 L596.6188,224.1406 Z "/><text fill="#000000" font-family="sans-serif" font-size="12" lengthAdjust="spacingAndGlyphs" textLength="176" x="608.35" y="222.6543">CloudformationQualityProfile</text><line style="stroke: #A80036; stroke-width: 1.5;" x1="576.5" x2="789.5" y1="234.5" y2="234.5"/><ellipse cx="586.5" cy="246.4023" fill="none" rx="3" ry="3" style="stroke: #038048; stroke-width: 1.0;"/><text fill="#000000" font-family="sans-serif" font-size="11" lengthAdjust="spacingAndGlyphs" text-decoration="underline" textLength="189" x="595.5" y="248.7104">SUPPORTED_RULES: Set&lt;String&gt;</text><line style="stroke: #000000; stroke-width: 1.0;" x1="595.5" x2="784.5" y1="250.7104" y2="250.7104"/><line style="stroke: #A80036; stroke-width: 1.5;" x1="576.5" x2="789.5" y1="255.3047" y2="255.3047"/><ellipse cx="586.5" cy="267.207" fill="#84BE84" rx="3" ry="3" style="stroke: #038048; stroke-width: 1.0;"/><text fill="#000000" font-family="sans-serif" font-size="11" lengthAdjust="spacingAndGlyphs" textLength="117" x="595.5" y="269.5151">define(Context): void</text></a><!--class com.hack23.sonar.cloudformation.CloudformationLanguage--><a target="_top" xlink:actuate="onRequest" xlink:href="CloudformationLanguage.html" xlink:show="new" xlink:title="CloudformationLanguage.html" xlink:type="simple"><rect fill="#FEFECE" filter="url(#f13fd3e3qk9wz5)" height="99.2188" id="com.hack23.sonar.cloudformation.CloudformationLanguage" style="stroke: #A80036; stroke-width: 1.5;" width="252" x="826" y="190"/><ellipse cx="869.35" cy="206" fill="#ADD1B2" rx="11" ry="11" style="stroke: #A80036; stroke-width: 1.0;"/><path d="M872.3188,211.6406 Q871.7406,211.9375 871.1,212.0781 Q870.4594,212.2344 869.7563,212.2344 Q867.2563,212.2344 865.9281,210.5938 Q864.6156,208.9375 864.6156,205.8125 Q864.6156,202.6875 865.9281,201.0313 Q867.2563,199.375 869.7563,199.375 Q870.4594,199.375 871.1,199.5313 Q871.7563,199.6875 872.3188,199.9844 L872.3188,202.7031 Q871.6938,202.125 871.1,201.8594 Q870.5063,201.5781 869.8813,201.5781 Q868.5375,201.5781 867.85,202.6563 Q867.1625,203.7188 867.1625,205.8125 Q867.1625,207.9063 867.85,208.9844 Q868.5375,210.0469 869.8813,210.0469 Q870.5063,210.0469 871.1,209.7813 Q871.6938,209.5 872.3188,208.9219 L872.3188,211.6406 Z "/><text fill="#000000" font-family="sans-serif" font-size="12" lengthAdjust="spacingAndGlyphs" textLength="157" x="889.65" y="210.1543">CloudformationLanguage</text><line style="stroke: #A80036; stroke-width: 1.5;" x1="827" x2="1077" y1="222" y2="222"/><ellipse cx="837" cy="233.9023" fill="none" rx="3" ry="3" style="stroke: #038048; stroke-width: 1.0;"/><text fill="#000000" font-family="sans-serif" font-size="11" lengthAdjust="spacingAndGlyphs" text-decoration="underline" textLength="73" x="846" y="236.2104">NAME: String</text><line style="stroke: #000000; stroke-width: 1.0;" x1="846" x2="919" y1="238.2104" y2="238.2104"/><ellipse cx="837" cy="246.707" fill="none" rx="3" ry="3" style="stroke: #038048; stroke-width: 1.0;"/><text fill="#000000" font-family="sans-serif" font-size="11" lengthAdjust="spacingAndGlyphs" text-decoration="underline" textLength="63" x="846" y="249.0151">KEY: String</text><line style="stroke: #000000; stroke-width: 1.0;" x1="846" x2="909" y1="251.0151" y2="251.0151"/><line style="stroke: #A80036; stroke-width: 1.5;" x1="827" x2="1077" y1="255.6094" y2="255.6094"/><ellipse cx="837" cy="267.5117" fill="#84BE84" rx="3" ry="3" style="stroke: #038048; stroke-width: 1.0;"/><text fill="#000000" font-family="sans-serif" font-size="11" lengthAdjust="spacingAndGlyphs" textLength="226" x="846" y="269.8198">CloudformationLanguage(Configuration)</text><ellipse cx="837" cy="280.3164" fill="#84BE84" rx="3" ry="3" style="stroke: #038048; stroke-width: 1.0;"/><text fill="#000000" font-family="sans-serif" font-size="11" lengthAdjust="spacingAndGlyphs" textLength="141" x="846" y="282.6245">getFileSuffixes(): String[]</text></a><!--class com.hack23.sonar.cloudformation.CloudformationSensorConfiguration--><a target="_top" xlink:actuate="onRequest" xlink:href="CloudformationSensorConfiguration.html" xlink:show="new" xlink:title="CloudformationSensorConfiguration.html" xlink:type="simple"><rect fill="#FEFECE" filter="url(#f13fd3e3qk9wz5)" height="73.6094" id="com.hack23.sonar.cloudformation.CloudformationSensorConfiguration" style="stroke: #A80036; stroke-width: 1.5;" width="314" x="1569" y="202.5"/><ellipse cx="1610.55" cy="218.5" fill="#ADD1B2" rx="11" ry="11" style="stroke: #A80036; stroke-width: 1.0;"/><path d="M1613.5188,224.1406 Q1612.9406,224.4375 1612.3,224.5781 Q1611.6594,224.7344 1610.9563,224.7344 Q1608.4563,224.7344 1607.1281,223.0938 Q1605.8156,221.4375 1605.8156,218.3125 Q1605.8156,215.1875 1607.1281,213.5313 Q1608.4563,211.875 1610.9563,211.875 Q1611.6594,211.875 1612.3,212.0313 Q1612.9563,212.1875 1613.5188,212.4844 L1613.5188,215.2031 Q1612.8938,214.625 1612.3,214.3594 Q1611.7063,214.0781 1611.0813,214.0781 Q1609.7375,214.0781 1609.05,215.1563 Q1608.3625,216.2188 1608.3625,218.3125 Q1608.3625,220.4063 1609.05,221.4844 Q1609.7375,222.5469 1611.0813,222.5469 Q1611.7063,222.5469 1612.3,222.2813 Q1612.8938,222 1613.5188,221.4219 L1613.5188,224.1406 Z "/><text fill="#000000" font-family="sans-serif" font-size="12" lengthAdjust="spacingAndGlyphs" textLength="223" x="1630.45" y="222.6543">CloudformationSensorConfiguration</text><line style="stroke: #A80036; stroke-width: 1.5;" x1="1570" x2="1882" y1="234.5" y2="234.5"/><line style="stroke: #A80036; stroke-width: 1.5;" x1="1570" x2="1882" y1="242.5" y2="242.5"/><ellipse cx="1580" cy="254.4023" fill="#84BE84" rx="3" ry="3" style="stroke: #038048; stroke-width: 1.0;"/><text fill="#000000" font-family="sans-serif" font-size="11" lengthAdjust="spacingAndGlyphs" textLength="288" x="1589" y="256.7104">CloudformationSensorConfiguration(Configuration)</text><ellipse cx="1580" cy="267.207" fill="#84BE84" rx="3" ry="3" style="stroke: #038048; stroke-width: 1.0;"/><text fill="#000000" font-family="sans-serif" font-size="11" lengthAdjust="spacingAndGlyphs" textLength="196" x="1589" y="269.5151">getReportFiles(): Optional&lt;String&gt;</text></a><!--class com.hack23.sonar.cloudformation.CloudformationConstants--><a target="_top" xlink:actuate="onRequest" xlink:href="CloudformationConstants.html" xlink:show="new" xlink:title="CloudformationConstants.html" xlink:type="simple"><rect fill="#FEFECE" filter="url(#f13fd3e3qk9wz5)" height="60.8047" id="com.hack23.sonar.cloudformation.CloudformationConstants" style="stroke: #A80036; stroke-width: 1.5;" width="212" x="1918" y="209"/><ellipse cx="1942.45" cy="225" fill="#ADD1B2" rx="11" ry="11" style="stroke: #A80036; stroke-width: 1.0;"/><path d="M1945.4188,230.6406 Q1944.8406,230.9375 1944.2,231.0781 Q1943.5594,231.2344 1942.8563,231.2344 Q1940.3563,231.2344 1939.0281,229.5938 Q1937.7156,227.9375 1937.7156,224.8125 Q1937.7156,221.6875 1939.0281,220.0313 Q1940.3563,218.375 1942.8563,218.375 Q1943.5594,218.375 1944.2,218.5313 Q1944.8563,218.6875 1945.4188,218.9844 L1945.4188,221.7031 Q1944.7938,221.125 1944.2,220.8594 Q1943.6063,220.5781 1942.9813,220.5781 Q1941.6375,220.5781 1940.95,221.6563 Q1940.2625,222.7188 1940.2625,224.8125 Q1940.2625,226.9063 1940.95,227.9844 Q1941.6375,229.0469 1942.9813,229.0469 Q1943.6063,229.0469 1944.2,228.7813 Q1944.7938,228.5 1945.4188,227.9219 L1945.4188,230.6406 Z "/><text fill="#000000" font-family="sans-serif" font-size="12" lengthAdjust="spacingAndGlyphs" textLength="159" x="1958.55" y="229.1543">CloudformationConstants</text><line style="stroke: #A80036; stroke-width: 1.5;" x1="1919" x2="2129" y1="241" y2="241"/><ellipse cx="1929" cy="252.9023" fill="none" rx="3" ry="3" style="stroke: #038048; stroke-width: 1.0;"/><text fill="#000000" font-family="sans-serif" font-size="11" lengthAdjust="spacingAndGlyphs" text-decoration="underline" textLength="186" x="1938" y="255.2104">REPORT_FILES_PROPERTY: String</text><line style="stroke: #000000; stroke-width: 1.0;" x1="1938" x2="2124" y1="257.2104" y2="257.2104"/><line style="stroke: #A80036; stroke-width: 1.5;" x1="1919" x2="2129" y1="261.8047" y2="261.8047"/></a><!--class com.hack23.sonar.cloudformation.CloudformationRulesDefinition--><a target="_top" xlink:actuate="onRequest" xlink:href="CloudformationRulesDefinition.html" xlink:show="new" xlink:title="CloudformationRulesDefinition.html" xlink:type="simple"><rect fill="#FEFECE" filter="url(#f13fd3e3qk9wz5)" height="124.8281" id="com.hack23.sonar.cloudformation.CloudformationRulesDefinition" style="stroke: #A80036; stroke-width: 1.5;" width="220" x="1113" y="177"/><ellipse cx="1128" cy="193" fill="#ADD1B2" rx="11" ry="11" style="stroke: #A80036; stroke-width: 1.0;"/><path d="M1130.9688,198.6406 Q1130.3906,198.9375 1129.75,199.0781 Q1129.1094,199.2344 1128.4063,199.2344 Q1125.9063,199.2344 1124.5781,197.5938 Q1123.2656,195.9375 1123.2656,192.8125 Q1123.2656,189.6875 1124.5781,188.0313 Q1125.9063,186.375 1128.4063,186.375 Q1129.1094,186.375 1129.75,186.5313 Q1130.4063,186.6875 1130.9688,186.9844 L1130.9688,189.7031 Q1130.3438,189.125 1129.75,188.8594 Q1129.1563,188.5781 1128.5313,188.5781 Q1127.1875,188.5781 1126.5,189.6563 Q1125.8125,190.7188 1125.8125,192.8125 Q1125.8125,194.9063 1126.5,195.9844 Q1127.1875,197.0469 1128.5313,197.0469 Q1129.1563,197.0469 1129.75,196.7813 Q1130.3438,196.5 1130.9688,195.9219 L1130.9688,198.6406 Z "/><text fill="#000000" font-family="sans-serif" font-size="12" lengthAdjust="spacingAndGlyphs" textLength="188" x="1142" y="197.1543">CloudformationRulesDefinition</text><line style="stroke: #A80036; stroke-width: 1.5;" x1="1114" x2="1332" y1="209" y2="209"/><polygon fill="none" points="1124,215.9023,1128,219.9023,1124,223.9023,1120,219.9023" style="stroke: #B38D22; stroke-width: 1.0;"/><text fill="#000000" font-family="sans-serif" font-size="11" lengthAdjust="spacingAndGlyphs" text-decoration="underline" textLength="63" x="1133" y="223.2104">KEY: String</text><line style="stroke: #000000; stroke-width: 1.0;" x1="1133" x2="1196" y1="225.2104" y2="225.2104"/><polygon fill="none" points="1124,228.707,1128,232.707,1124,236.707,1120,232.707" style="stroke: #B38D22; stroke-width: 1.0;"/><text fill="#000000" font-family="sans-serif" font-size="11" lengthAdjust="spacingAndGlyphs" text-decoration="underline" textLength="73" x="1133" y="236.0151">NAME: String</text><line style="stroke: #000000; stroke-width: 1.0;" x1="1133" x2="1206" y1="238.0151" y2="238.0151"/><ellipse cx="1124" cy="246.5117" fill="none" rx="3" ry="3" style="stroke: #038048; stroke-width: 1.0;"/><text fill="#000000" font-family="sans-serif" font-size="11" lengthAdjust="spacingAndGlyphs" text-decoration="underline" textLength="99" x="1133" y="248.8198">REPO_KEY: String</text><line style="stroke: #000000; stroke-width: 1.0;" x1="1133" x2="1232" y1="250.8198" y2="250.8198"/><polygon fill="none" points="1124,254.3164,1128,258.3164,1124,262.3164,1120,258.3164" style="stroke: #B38D22; stroke-width: 1.0;"/><text fill="#000000" font-family="sans-serif" font-size="11" lengthAdjust="spacingAndGlyphs" text-decoration="underline" textLength="109" x="1133" y="261.6245">REPO_NAME: String</text><line style="stroke: #000000; stroke-width: 1.0;" x1="1133" x2="1242" y1="263.6245" y2="263.6245"/><line style="stroke: #A80036; stroke-width: 1.5;" x1="1114" x2="1332" y1="268.2188" y2="268.2188"/><polygon fill="#FFFF44" points="1124,275.1211,1128,279.1211,1124,283.1211,1120,279.1211" style="stroke: #B38D22; stroke-width: 1.0;"/><text fill="#000000" font-family="sans-serif" font-size="11" lengthAdjust="spacingAndGlyphs" textLength="176" x="1133" y="282.4292">rulesDefinitionFilePath(): String</text><ellipse cx="1124" cy="292.9258" fill="#84BE84" rx="3" ry="3" style="stroke: #038048; stroke-width: 1.0;"/><text fill="#000000" font-family="sans-serif" font-size="11" lengthAdjust="spacingAndGlyphs" textLength="117" x="1133" y="295.2339">define(Context): void</text></a><!--class com.hack23.sonar.cloudformation.CloudformationPlugin--><a target="_top" xlink:actuate="onRequest" xlink:href="CloudformationPlugin.html" xlink:show="new" xlink:title="CloudformationPlugin.html" xlink:type="simple"><rect fill="#FEFECE" filter="url(#f13fd3e3qk9wz5)" height="60.8047" id="com.hack23.sonar.cloudformation.CloudformationPlugin" style="stroke: #A80036; stroke-width: 1.5;" width="165" x="1368.5" y="209"/><ellipse cx="1383.5" cy="225" fill="#ADD1B2" rx="11" ry="11" style="stroke: #A80036; stroke-width: 1.0;"/><path d="M1386.4688,230.6406 Q1385.8906,230.9375 1385.25,231.0781 Q1384.6094,231.2344 1383.9063,231.2344 Q1381.4063,231.2344 1380.0781,229.5938 Q1378.7656,227.9375 1378.7656,224.8125 Q1378.7656,221.6875 1380.0781,220.0313 Q1381.4063,218.375 1383.9063,218.375 Q1384.6094,218.375 1385.25,218.5313 Q1385.9063,218.6875 1386.4688,218.9844 L1386.4688,221.7031 Q1385.8438,221.125 1385.25,220.8594 Q1384.6563,220.5781 1384.0313,220.5781 Q1382.6875,220.5781 1382,221.6563 Q1381.3125,222.7188 1381.3125,224.8125 Q1381.3125,226.9063 1382,227.9844 Q1382.6875,229.0469 1384.0313,229.0469 Q1384.6563,229.0469 1385.25,228.7813 Q1385.8438,228.5 1386.4688,227.9219 L1386.4688,230.6406 Z "/><text fill="#000000" font-family="sans-serif" font-size="12" lengthAdjust="spacingAndGlyphs" textLength="133" x="1397.5" y="229.1543">CloudformationPlugin</text><line style="stroke: #A80036; stroke-width: 1.5;" x1="1369.5" x2="1532.5" y1="241" y2="241"/><line style="stroke: #A80036; stroke-width: 1.5;" x1="1369.5" x2="1532.5" y1="249" y2="249"/><ellipse cx="1379.5" cy="260.9023" fill="#84BE84" rx="3" ry="3" style="stroke: #038048; stroke-width: 1.0;"/><text fill="#000000" font-family="sans-serif" font-size="11" lengthAdjust="spacingAndGlyphs" textLength="117" x="1388.5" y="263.2104">define(Context): void</text></a><!--class com.hack23.sonar.cloudformation.CloudformationProperties--><a target="_top" xlink:actuate="onRequest" xlink:href="CloudformationProperties.html" xlink:show="new" xlink:title="CloudformationProperties.html" xlink:type="simple"><rect fill="#FEFECE" filter="url(#f13fd3e3qk9wz5)" height="86.4141" id="com.hack23.sonar.cloudformation.CloudformationProperties" style="stroke: #A80036; stroke-width: 1.5;" width="258" x="1597" y="362"/><ellipse cx="1641.75" cy="378" fill="#ADD1B2" rx="11" ry="11" style="stroke: #A80036; stroke-width: 1.0;"/><path d="M1644.7188,383.6406 Q1644.1406,383.9375 1643.5,384.0781 Q1642.8594,384.2344 1642.1563,384.2344 Q1639.6563,384.2344 1638.3281,382.5938 Q1637.0156,380.9375 1637.0156,377.8125 Q1637.0156,374.6875 1638.3281,373.0313 Q1639.6563,371.375 1642.1563,371.375 Q1642.8594,371.375 1643.5,371.5313 Q1644.1563,371.6875 1644.7188,371.9844 L1644.7188,374.7031 Q1644.0938,374.125 1643.5,373.8594 Q1642.9063,373.5781 1642.2813,373.5781 Q1640.9375,373.5781 1640.25,374.6563 Q1639.5625,375.7188 1639.5625,377.8125 Q1639.5625,379.9063 1640.25,380.9844 Q1640.9375,382.0469 1642.2813,382.0469 Q1642.9063,382.0469 1643.5,381.7813 Q1644.0938,381.5 1644.7188,380.9219 L1644.7188,383.6406 Z "/><text fill="#000000" font-family="sans-serif" font-size="12" lengthAdjust="spacingAndGlyphs" textLength="160" x="1662.25" y="382.1543">CloudformationProperties</text><line style="stroke: #A80036; stroke-width: 1.5;" x1="1598" x2="1854" y1="394" y2="394"/><ellipse cx="1608" cy="405.9023" fill="none" rx="3" ry="3" style="stroke: #038048; stroke-width: 1.0;"/><text fill="#000000" font-family="sans-serif" font-size="11" lengthAdjust="spacingAndGlyphs" text-decoration="underline" textLength="150" x="1617" y="408.2104">FILE_SUFFIXES_KEY: String</text><line style="stroke: #000000; stroke-width: 1.0;" x1="1617" x2="1767" y1="410.2104" y2="410.2104"/><ellipse cx="1608" cy="418.707" fill="none" rx="3" ry="3" style="stroke: #038048; stroke-width: 1.0;"/><text fill="#000000" font-family="sans-serif" font-size="11" lengthAdjust="spacingAndGlyphs" text-decoration="underline" textLength="219" x="1617" y="421.0151">FILE_SUFFIXES_DEFAULT_VALUE: String</text><line style="stroke: #000000; stroke-width: 1.0;" x1="1617" x2="1836" y1="423.0151" y2="423.0151"/><line style="stroke: #A80036; stroke-width: 1.5;" x1="1598" x2="1854" y1="427.6094" y2="427.6094"/><ellipse cx="1608" cy="439.5117" fill="#84BE84" rx="3" ry="3" style="stroke: #038048; stroke-width: 1.0;"/><text fill="#000000" font-family="sans-serif" font-size="11" lengthAdjust="spacingAndGlyphs" text-decoration="underline" textLength="232" x="1617" y="441.8198">getProperties(): List&lt;PropertyDefinition&gt;</text><line style="stroke: #000000; stroke-width: 1.0;" x1="1617" x2="1849" y1="443.8198" y2="443.8198"/></a><!--class org.sonar.api.batch.sensor.Sensor--><rect fill="#FEFECE" filter="url(#f13fd3e3qk9wz5)" height="73.6094" id="org.sonar.api.batch.sensor.Sensor" style="stroke: #A80036; stroke-width: 1.5;" width="211" x="175.5" y="43"/><ellipse cx="255.25" cy="59" fill="#B4A7E5" rx="11" ry="11" style="stroke: #A80036; stroke-width: 1.0;"/><path d="M251.1719,54.7656 L251.1719,52.6094 L258.5625,52.6094 L258.5625,54.7656 L256.0938,54.7656 L256.0938,62.8438 L258.5625,62.8438 L258.5625,65 L251.1719,65 L251.1719,62.8438 L253.6406,62.8438 L253.6406,54.7656 L251.1719,54.7656 Z "/><text fill="#000000" font-family="sans-serif" font-size="12" font-style="italic" lengthAdjust="spacingAndGlyphs" textLength="43" x="275.75" y="63.1543">Sensor</text><line style="stroke: #A80036; stroke-width: 1.5;" x1="176.5" x2="385.5" y1="75" y2="75"/><line style="stroke: #A80036; stroke-width: 1.5;" x1="176.5" x2="385.5" y1="83" y2="83"/><ellipse cx="186.5" cy="94.9023" fill="#84BE84" rx="3" ry="3" style="stroke: #038048; stroke-width: 1.0;"/><text fill="#000000" font-family="sans-serif" font-size="11" font-style="italic" lengthAdjust="spacingAndGlyphs" textLength="185" x="195.5" y="97.2104">describe(SensorDescriptor): void</text><ellipse cx="186.5" cy="107.707" fill="#84BE84" rx="3" ry="3" style="stroke: #038048; stroke-width: 1.0;"/><text fill="#000000" font-family="sans-serif" font-size="11" font-style="italic" lengthAdjust="spacingAndGlyphs" textLength="168" x="195.5" y="110.0151">execute(SensorContext): void</text><!--class org.sonar.api.server.profile.BuiltInQualityProfilesDefinition--><rect fill="#FEFECE" filter="url(#f13fd3e3qk9wz5)" height="60.8047" id="org.sonar.api.server.profile.BuiltInQualityProfilesDefinition" style="stroke: #A80036; stroke-width: 1.5;" width="216" x="575" y="49.5"/><ellipse cx="590" cy="65.5" fill="#B4A7E5" rx="11" ry="11" style="stroke: #A80036; stroke-width: 1.0;"/><path d="M585.9219,61.2656 L585.9219,59.1094 L593.3125,59.1094 L593.3125,61.2656 L590.8438,61.2656 L590.8438,69.3438 L593.3125,69.3438 L593.3125,71.5 L585.9219,71.5 L585.9219,69.3438 L588.3906,69.3438 L588.3906,61.2656 L585.9219,61.2656 Z "/><text fill="#000000" font-family="sans-serif" font-size="12" font-style="italic" lengthAdjust="spacingAndGlyphs" textLength="184" x="604" y="69.6543">BuiltInQualityProfilesDefinition</text><line style="stroke: #A80036; stroke-width: 1.5;" x1="576" x2="790" y1="81.5" y2="81.5"/><line style="stroke: #A80036; stroke-width: 1.5;" x1="576" x2="790" y1="89.5" y2="89.5"/><ellipse cx="586" cy="101.4023" fill="#84BE84" rx="3" ry="3" style="stroke: #038048; stroke-width: 1.0;"/><text fill="#000000" font-family="sans-serif" font-size="11" font-style="italic" lengthAdjust="spacingAndGlyphs" textLength="119" x="595" y="103.7104">define(Context): void</text><!--class org.sonar.api.resources.AbstractLanguage--><rect fill="#FEFECE" filter="url(#f13fd3e3qk9wz5)" height="48" id="org.sonar.api.resources.AbstractLanguage" style="stroke: #A80036; stroke-width: 1.5;" width="147" x="878.5" y="56"/><ellipse cx="893.5" cy="72" fill="#A9DCDF" rx="11" ry="11" style="stroke: #A80036; stroke-width: 1.0;"/><path d="M893.6094,67.3438 L892.4531,72.4219 L894.7813,72.4219 L893.6094,67.3438 Z M892.125,65.1094 L895.1094,65.1094 L898.4688,77.5 L896.0156,77.5 L895.25,74.4375 L891.9688,74.4375 L891.2188,77.5 L888.7813,77.5 L892.125,65.1094 Z "/><text fill="#000000" font-family="sans-serif" font-size="12" font-style="italic" lengthAdjust="spacingAndGlyphs" textLength="115" x="907.5" y="76.1543">AbstractLanguage</text><line style="stroke: #A80036; stroke-width: 1.5;" x1="879.5" x2="1024.5" y1="88" y2="88"/><line style="stroke: #A80036; stroke-width: 1.5;" x1="879.5" x2="1024.5" y1="96" y2="96"/><!--class org.sonar.api.server.rule.RulesDefinition--><rect fill="#FEFECE" filter="url(#f13fd3e3qk9wz5)" height="60.8047" id="org.sonar.api.server.rule.RulesDefinition" style="stroke: #A80036; stroke-width: 1.5;" width="145" x="1150.5" y="49.5"/><ellipse cx="1174.95" cy="65.5" fill="#B4A7E5" rx="11" ry="11" style="stroke: #A80036; stroke-width: 1.0;"/><path d="M1170.8719,61.2656 L1170.8719,59.1094 L1178.2625,59.1094 L1178.2625,61.2656 L1175.7938,61.2656 L1175.7938,69.3438 L1178.2625,69.3438 L1178.2625,71.5 L1170.8719,71.5 L1170.8719,69.3438 L1173.3406,69.3438 L1173.3406,61.2656 L1170.8719,61.2656 Z "/><text fill="#000000" font-family="sans-serif" font-size="12" font-style="italic" lengthAdjust="spacingAndGlyphs" textLength="92" x="1191.05" y="69.6543">RulesDefinition</text><line style="stroke: #A80036; stroke-width: 1.5;" x1="1151.5" x2="1294.5" y1="81.5" y2="81.5"/><line style="stroke: #A80036; stroke-width: 1.5;" x1="1151.5" x2="1294.5" y1="89.5" y2="89.5"/><ellipse cx="1161.5" cy="101.4023" fill="#84BE84" rx="3" ry="3" style="stroke: #038048; stroke-width: 1.0;"/><text fill="#000000" font-family="sans-serif" font-size="11" font-style="italic" lengthAdjust="spacingAndGlyphs" textLength="119" x="1170.5" y="103.7104">define(Context): void</text><!--class org.sonar.api.Plugin--><rect fill="#FEFECE" filter="url(#f13fd3e3qk9wz5)" height="60.8047" id="org.sonar.api.Plugin" style="stroke: #A80036; stroke-width: 1.5;" width="145" x="1378.5" y="49.5"/><ellipse cx="1428.25" cy="65.5" fill="#B4A7E5" rx="11" ry="11" style="stroke: #A80036; stroke-width: 1.0;"/><path d="M1424.1719,61.2656 L1424.1719,59.1094 L1431.5625,59.1094 L1431.5625,61.2656 L1429.0938,61.2656 L1429.0938,69.3438 L1431.5625,69.3438 L1431.5625,71.5 L1424.1719,71.5 L1424.1719,69.3438 L1426.6406,69.3438 L1426.6406,61.2656 L1424.1719,61.2656 Z "/><text fill="#000000" font-family="sans-serif" font-size="12" font-style="italic" lengthAdjust="spacingAndGlyphs" textLength="37" x="1448.75" y="69.6543">Plugin</text><line style="stroke: #A80036; stroke-width: 1.5;" x1="1379.5" x2="1522.5" y1="81.5" y2="81.5"/><line style="stroke: #A80036; stroke-width: 1.5;" x1="1379.5" x2="1522.5" y1="89.5" y2="89.5"/><ellipse cx="1389.5" cy="101.4023" fill="#84BE84" rx="3" ry="3" style="stroke: #038048; stroke-width: 1.0;"/><text fill="#000000" font-family="sans-serif" font-size="11" font-style="italic" lengthAdjust="spacingAndGlyphs" textLength="119" x="1398.5" y="103.7104">define(Context): void</text><!--link org.sonar.api.batch.sensor.Sensor to com.hack23.sonar.cloudformation.CloudformationSensor--><path d="M281,137.6726 C281,154.796 281,173.3936 281,189.9527 " fill="none" id="org.sonar.api.batch.sensor.Sensor-com.hack23.sonar.cloudformation.CloudformationSensor" style="stroke: #A80036; stroke-width: 1.0; stroke-dasharray: 7.0,7.0;"/><polygon fill="none" points="274.0001,137.3957,281,117.3957,288.0001,137.3956,274.0001,137.3957" style="stroke: #A80036; stroke-width: 1.0;"/><!--link org.sonar.api.server.profile.BuiltInQualityProfilesDefinition to com.hack23.sonar.cloudformation.CloudformationQualityProfile--><path d="M683,130.7667 C683,154.0229 683,181.0852 683,202.3936 " fill="none" id="org.sonar.api.server.profile.BuiltInQualityProfilesDefinition-com.hack23.sonar.cloudformation.CloudformationQualityProfile" style="stroke: #A80036; stroke-width: 1.0; stroke-dasharray: 7.0,7.0;"/><polygon fill="none" points="676.0001,130.7532,683,110.7532,690.0001,130.7532,676.0001,130.7532" style="stroke: #A80036; stroke-width: 1.0;"/><!--link org.sonar.api.resources.AbstractLanguage to com.hack23.sonar.cloudformation.CloudformationLanguage--><path d="M952,124.4579 C952,144.8017 952,168.9836 952,189.9143 " fill="none" id="org.sonar.api.resources.AbstractLanguage-com.hack23.sonar.cloudformation.CloudformationLanguage" style="stroke: #A80036; stroke-width: 1.0;"/><polygon fill="none" points="945.0001,124.2247,952,104.2246,959.0001,124.2246,945.0001,124.2247" style="stroke: #A80036; stroke-width: 1.0;"/><!--link org.sonar.api.server.rule.RulesDefinition to com.hack23.sonar.cloudformation.CloudformationRulesDefinition--><path d="M1223,130.8258 C1223,145.4477 1223,161.5702 1223,176.8191 " fill="none" id="org.sonar.api.server.rule.RulesDefinition-com.hack23.sonar.cloudformation.CloudformationRulesDefinition" style="stroke: #A80036; stroke-width: 1.0; stroke-dasharray: 7.0,7.0;"/><polygon fill="none" points="1216.0001,130.7532,1223,110.7532,1230.0001,130.7532,1216.0001,130.7532" style="stroke: #A80036; stroke-width: 1.0;"/><!--link org.sonar.api.Plugin to com.hack23.sonar.cloudformation.CloudformationPlugin--><path d="M1451,130.9293 C1451,156.5683 1451,186.7991 1451,208.8412 " fill="none" id="org.sonar.api.Plugin-com.hack23.sonar.cloudformation.CloudformationPlugin" style="stroke: #A80036; stroke-width: 1.0; stroke-dasharray: 7.0,7.0;"/><polygon fill="none" points="1444.0001,130.7532,1451,110.7532,1458.0001,130.7532,1444.0001,130.7532" style="stroke: #A80036; stroke-width: 1.0;"/><!--link com.hack23.sonar.cloudformation.CloudformationSensorConfiguration to com.hack23.sonar.cloudformation.CloudformationConstants--><!--link com.hack23.sonar.cloudformation.CloudformationSensorConfiguration to com.hack23.sonar.cloudformation.CloudformationProperties--><text fill="#888888" font-family="sans-serif" font-size="10" lengthAdjust="spacingAndGlyphs" textLength="186" x="989" y="483.2822">UMLDoclet 2.0.2, PlantUML 1.2019.01</text><!--
@startuml
    namespace com.hack23.sonar.cloudformation {

        class CloudformationSensor [[CloudformationSensor.html]] {
            {static} +SENSOR_NAME: String
            +CloudformationSensor(CloudformationSensorConfiguration, FileSystem, PathResolver)
            +describe(SensorDescriptor): void
            +execute(SensorContext): void
        }

        class CloudformationQualityProfile [[CloudformationQualityProfile.html]] {
            {static} +SUPPORTED_RULES: Set<String>
            +define(Context): void
        }

        class CloudformationLanguage [[CloudformationLanguage.html]] {
            {static} +NAME: String
            {static} +KEY: String
            +CloudformationLanguage(Configuration)
            +getFileSuffixes(): String[]
        }

        class CloudformationSensorConfiguration [[CloudformationSensorConfiguration.html]] {
            +CloudformationSensorConfiguration(Configuration)
            +getReportFiles(): Optional<String>
        }

        class CloudformationConstants [[CloudformationConstants.html]] {
            {static} +REPORT_FILES_PROPERTY: String
        }

        class CloudformationRulesDefinition [[CloudformationRulesDefinition.html]] {
            {static} #KEY: String
            {static} #NAME: String
            {static} +REPO_KEY: String
            {static} #REPO_NAME: String
            #rulesDefinitionFilePath(): String
            +define(Context): void
        }

        class CloudformationPlugin [[CloudformationPlugin.html]] {
            +define(Context): void
        }

        class CloudformationProperties [[CloudformationProperties.html]] {
            {static} +FILE_SUFFIXES_KEY: String
            {static} +FILE_SUFFIXES_DEFAULT_VALUE: String
            {static} +getProperties(): List<PropertyDefinition>
        }

        org.sonar.api.batch.sensor.Sensor <|.. CloudformationSensor
        org.sonar.api.server.profile.BuiltInQualityProfilesDefinition <|.. CloudformationQualityProfile
        org.sonar.api.resources.AbstractLanguage <|- - CloudformationLanguage
        org.sonar.api.server.rule.RulesDefinition <|.. CloudformationRulesDefinition
        org.sonar.api.Plugin <|.. CloudformationPlugin
    }

    namespace org.sonar.api.batch.sensor {
        interface Sensor {
            {abstract} +describe(SensorDescriptor): void
            {abstract} +execute(SensorContext): void
        }
    }

    namespace org.sonar.api.server.profile {
        interface BuiltInQualityProfilesDefinition {
            {abstract} +define(Context): void
        }
    }

    namespace org.sonar.api.resources {
        abstract class AbstractLanguage {
        }
    }

    namespace org.sonar.api.server.rule {
        interface RulesDefinition {
            {abstract} +define(Context): void
        }
    }

    namespace org.sonar.api {
        interface Plugin {
            {abstract} +define(Context): void
        }
    }

    center footer UMLDoclet 2.0.2, PlantUML 1.2019.01
@enduml

PlantUML version 1.2019.01(Sat Feb 09 16:32:04 CET 2019)
(APACHE source distribution)
Java Runtime: OpenJDK Runtime Environment
JVM: OpenJDK 64-Bit Server VM
Java Version: 11.0.3+7-Ubuntu-1ubuntu219.04.1
Operating System: Linux
OS Version: 5.0.0-15-generic
Default Encoding: UTF-8
Language: en
Country: US
--></g></svg>