<?xml version="1.0" encoding="UTF-8" standalone="no"?><svg xmlns="http://www.w3.org/2000/svg" xmlns:xlink="http://www.w3.org/1999/xlink" contentScriptType="application/ecmascript" contentStyleType="text/css" height="454px" preserveAspectRatio="none" style="width:1929px;height:454px;" version="1.1" viewBox="0 0 1929 454" width="1929px" zoomAndPan="magnify"><defs><filter height="300%" id="f1g26l012ujhs7" width="300%" x="-1" y="-1"><feGaussianBlur result="blurOut" stdDeviation="2.0"/><feColorMatrix in="blurOut" result="blurOut2" type="matrix" values="0 0 0 0 0 0 0 0 0 0 0 0 0 0 0 0 0 0 .4 0"/><feOffset dx="4.0" dy="4.0" in="blurOut2" result="blurOut3"/><feBlend in="SourceGraphic" in2="blurOut3" mode="normal"/></filter></defs><g><!--MD5=[7efd255d87f67ac79da5c4891114ef95]
cluster com.hack23.sonar.cloudformation--><polygon fill="#FFFFFF" filter="url(#f1g26l012ujhs7)" points="16,155,291,155,298,177.2969,1907,177.2969,1907,426,16,426,16,155" style="stroke: #000000; stroke-width: 1.5;"/><line style="stroke: #000000; stroke-width: 1.5;" x1="16" x2="298" y1="177.2969" y2="177.2969"/><text fill="#000000" font-family="sans-serif" font-size="14" font-weight="bold" lengthAdjust="spacingAndGlyphs" textLength="269" x="20" y="169.9951">com.hack23.sonar.cloudformation</text><!--MD5=[d3bfeb526ca1008dfb54863d3a7224f6]
cluster org.sonar.api.server.rule--><polygon fill="#FFFFFF" filter="url(#f1g26l012ujhs7)" points="30,12.5,234,12.5,241,34.7969,244,34.7969,244,124.5,30,124.5,30,12.5" style="stroke: #000000; stroke-width: 1.5;"/><line style="stroke: #000000; stroke-width: 1.5;" x1="30" x2="241" y1="34.7969" y2="34.7969"/><text fill="#000000" font-family="sans-serif" font-size="14" font-weight="bold" lengthAdjust="spacingAndGlyphs" textLength="198" x="34" y="27.4951">org.sonar.api.server.rule</text><!--MD5=[6a86e12f8c3573ef90e7334d9e934390]
cluster org.sonar.api--><polygon fill="#FFFFFF" filter="url(#f1g26l012ujhs7)" points="281,12.5,392,12.5,399,34.7969,459,34.7969,459,124.5,281,124.5,281,12.5" style="stroke: #000000; stroke-width: 1.5;"/><line style="stroke: #000000; stroke-width: 1.5;" x1="281" x2="399" y1="34.7969" y2="34.7969"/><text fill="#000000" font-family="sans-serif" font-size="14" font-weight="bold" lengthAdjust="spacingAndGlyphs" textLength="105" x="285" y="27.4951">org.sonar.api</text><!--MD5=[069966ec46c27c575c0e14a62cc3970a]
cluster org.sonar.api.batch.sensor--><polygon fill="#FFFFFF" filter="url(#f1g26l012ujhs7)" points="625,6,845,6,852,28.2969,869,28.2969,869,131,625,131,625,6" style="stroke: #000000; stroke-width: 1.5;"/><line style="stroke: #000000; stroke-width: 1.5;" x1="625" x2="852" y1="28.2969" y2="28.2969"/><text fill="#000000" font-family="sans-serif" font-size="14" font-weight="bold" lengthAdjust="spacingAndGlyphs" textLength="214" x="629" y="20.9951">org.sonar.api.batch.sensor</text><!--MD5=[ed82d9bf0a7e82c39fc0b923e4deffa3]
cluster org.sonar.api.server.profile--><polygon fill="#FFFFFF" filter="url(#f1g26l012ujhs7)" points="1021,12.5,1245,12.5,1252,34.7969,1269,34.7969,1269,124.5,1021,124.5,1021,12.5" style="stroke: #000000; stroke-width: 1.5;"/><line style="stroke: #000000; stroke-width: 1.5;" x1="1021" x2="1252" y1="34.7969" y2="34.7969"/><text fill="#000000" font-family="sans-serif" font-size="14" font-weight="bold" lengthAdjust="spacingAndGlyphs" textLength="218" x="1025" y="27.4951">org.sonar.api.server.profile</text><!--MD5=[9ad602e740eec67d73c5d598917426ba]
class com.hack23.sonar.cloudformation.CloudformationRulesDefinition--><a href="CloudformationRulesDefinition.html" target="_top" title="CloudformationRulesDefinition.html" xlink:actuate="onRequest" xlink:href="CloudformationRulesDefinition.html" xlink:show="new" xlink:title="CloudformationRulesDefinition.html" xlink:type="simple"><rect codeLine="3" fill="#FEFECE" filter="url(#f1g26l012ujhs7)" height="86.4141" id="com.hack23.sonar.cloudformation.CloudformationRulesDefinition" style="stroke: #A80036; stroke-width: 1.5;" width="220" x="32" y="196.5"/><ellipse cx="47" cy="212.5" fill="#ADD1B2" rx="11" ry="11" style="stroke: #A80036; stroke-width: 1.0;"/><path d="M49.9688,218.1406 Q49.3906,218.4375 48.75,218.5781 Q48.1094,218.7344 47.4063,218.7344 Q44.9063,218.7344 43.5781,217.0938 Q42.2656,215.4375 42.2656,212.3125 Q42.2656,209.1875 43.5781,207.5313 Q44.9063,205.875 47.4063,205.875 Q48.1094,205.875 48.75,206.0313 Q49.4063,206.1875 49.9688,206.4844 L49.9688,209.2031 Q49.3438,208.625 48.75,208.3594 Q48.1563,208.0781 47.5313,208.0781 Q46.1875,208.0781 45.5,209.1563 Q44.8125,210.2188 44.8125,212.3125 Q44.8125,214.4063 45.5,215.4844 Q46.1875,216.5469 47.5313,216.5469 Q48.1563,216.5469 48.75,216.2813 Q49.3438,216 49.9688,215.4219 L49.9688,218.1406 Z "/><text fill="#000000" font-family="sans-serif" font-size="12" lengthAdjust="spacingAndGlyphs" textLength="188" x="61" y="216.6543">CloudformationRulesDefinition</text><line style="stroke: #A80036; stroke-width: 1.5;" x1="33" x2="251" y1="228.5" y2="228.5"/><ellipse cx="43" cy="239.5" fill="none" rx="3" ry="3" style="stroke: #038048; stroke-width: 1.0;"/><text fill="#000000" font-family="sans-serif" font-size="11" lengthAdjust="spacingAndGlyphs" text-decoration="underline" textLength="63" x="52" y="242.7104">KEY: String</text><ellipse cx="43" cy="252.3047" fill="none" rx="3" ry="3" style="stroke: #038048; stroke-width: 1.0;"/><text fill="#000000" font-family="sans-serif" font-size="11" lengthAdjust="spacingAndGlyphs" text-decoration="underline" textLength="73" x="52" y="255.5151">NAME: String</text><line style="stroke: #A80036; stroke-width: 1.5;" x1="33" x2="251" y1="262.1094" y2="262.1094"/><ellipse cx="43" cy="273.1094" fill="#84BE84" rx="3" ry="3" style="stroke: #038048; stroke-width: 1.0;"/><text fill="#000000" font-family="sans-serif" font-size="11" lengthAdjust="spacingAndGlyphs" textLength="117" x="52" y="276.3198">define(Context): void</text></a><!--MD5=[c3108af317c2c934cdb7e0b2dc4ec977]
class com.hack23.sonar.cloudformation.CloudformationSensorConfiguration--><a href="CloudformationSensorConfiguration.html" target="_top" title="CloudformationSensorConfiguration.html" xlink:actuate="onRequest" xlink:href="CloudformationSensorConfiguration.html" xlink:show="new" xlink:title="CloudformationSensorConfiguration.html" xlink:type="simple"><rect codeLine="9" fill="#FEFECE" filter="url(#f1g26l012ujhs7)" height="73.6094" id="com.hack23.sonar.cloudformation.CloudformationSensorConfiguration" style="stroke: #A80036; stroke-width: 1.5;" width="314" x="1284" y="202.5"/><ellipse cx="1325.55" cy="218.5" fill="#ADD1B2" rx="11" ry="11" style="stroke: #A80036; stroke-width: 1.0;"/><path d="M1328.5188,224.1406 Q1327.9406,224.4375 1327.3,224.5781 Q1326.6594,224.7344 1325.9563,224.7344 Q1323.4563,224.7344 1322.1281,223.0938 Q1320.8156,221.4375 1320.8156,218.3125 Q1320.8156,215.1875 1322.1281,213.5313 Q1323.4563,211.875 1325.9563,211.875 Q1326.6594,211.875 1327.3,212.0313 Q1327.9563,212.1875 1328.5188,212.4844 L1328.5188,215.2031 Q1327.8938,214.625 1327.3,214.3594 Q1326.7063,214.0781 1326.0813,214.0781 Q1324.7375,214.0781 1324.05,215.1563 Q1323.3625,216.2188 1323.3625,218.3125 Q1323.3625,220.4063 1324.05,221.4844 Q1324.7375,222.5469 1326.0813,222.5469 Q1326.7063,222.5469 1327.3,222.2813 Q1327.8938,222 1328.5188,221.4219 L1328.5188,224.1406 Z "/><text fill="#000000" font-family="sans-serif" font-size="12" lengthAdjust="spacingAndGlyphs" textLength="223" x="1345.45" y="222.6543">CloudformationSensorConfiguration</text><line style="stroke: #A80036; stroke-width: 1.5;" x1="1285" x2="1597" y1="234.5" y2="234.5"/><line style="stroke: #A80036; stroke-width: 1.5;" x1="1285" x2="1597" y1="242.5" y2="242.5"/><ellipse cx="1295" cy="253.5" fill="#84BE84" rx="3" ry="3" style="stroke: #038048; stroke-width: 1.0;"/><text fill="#000000" font-family="sans-serif" font-size="11" lengthAdjust="spacingAndGlyphs" textLength="288" x="1304" y="256.7104">CloudformationSensorConfiguration(Configuration)</text><ellipse cx="1295" cy="266.3047" fill="#84BE84" rx="3" ry="3" style="stroke: #038048; stroke-width: 1.0;"/><text fill="#000000" font-family="sans-serif" font-size="11" lengthAdjust="spacingAndGlyphs" textLength="196" x="1304" y="269.5151">getReportFiles(): Optional&lt;String&gt;</text></a><!--MD5=[4e78556fd0fd0f12622aab97e46ad39c]
class com.hack23.sonar.cloudformation.CloudformationPlugin--><a href="CloudformationPlugin.html" target="_top" title="CloudformationPlugin.html" xlink:actuate="onRequest" xlink:href="CloudformationPlugin.html" xlink:show="new" xlink:title="CloudformationPlugin.html" xlink:type="simple"><rect codeLine="14" fill="#FEFECE" filter="url(#f1g26l012ujhs7)" height="60.8047" id="com.hack23.sonar.cloudformation.CloudformationPlugin" style="stroke: #A80036; stroke-width: 1.5;" width="165" x="287.5" y="209"/><ellipse cx="302.5" cy="225" fill="#ADD1B2" rx="11" ry="11" style="stroke: #A80036; stroke-width: 1.0;"/><path d="M305.4688,230.6406 Q304.8906,230.9375 304.25,231.0781 Q303.6094,231.2344 302.9063,231.2344 Q300.4063,231.2344 299.0781,229.5938 Q297.7656,227.9375 297.7656,224.8125 Q297.7656,221.6875 299.0781,220.0313 Q300.4063,218.375 302.9063,218.375 Q303.6094,218.375 304.25,218.5313 Q304.9063,218.6875 305.4688,218.9844 L305.4688,221.7031 Q304.8438,221.125 304.25,220.8594 Q303.6563,220.5781 303.0313,220.5781 Q301.6875,220.5781 301,221.6563 Q300.3125,222.7188 300.3125,224.8125 Q300.3125,226.9063 301,227.9844 Q301.6875,229.0469 303.0313,229.0469 Q303.6563,229.0469 304.25,228.7813 Q304.8438,228.5 305.4688,227.9219 L305.4688,230.6406 Z "/><text fill="#000000" font-family="sans-serif" font-size="12" lengthAdjust="spacingAndGlyphs" textLength="133" x="316.5" y="229.1543">CloudformationPlugin</text><line style="stroke: #A80036; stroke-width: 1.5;" x1="288.5" x2="451.5" y1="241" y2="241"/><line style="stroke: #A80036; stroke-width: 1.5;" x1="288.5" x2="451.5" y1="249" y2="249"/><ellipse cx="298.5" cy="260" fill="#84BE84" rx="3" ry="3" style="stroke: #038048; stroke-width: 1.0;"/><text fill="#000000" font-family="sans-serif" font-size="11" lengthAdjust="spacingAndGlyphs" textLength="117" x="307.5" y="263.2104">define(Context): void</text></a><!--MD5=[17b8c490b45d6f269308ea962cf0181d]
class com.hack23.sonar.cloudformation.CloudformationProperties--><a href="CloudformationProperties.html" target="_top" title="CloudformationProperties.html" xlink:actuate="onRequest" xlink:href="CloudformationProperties.html" xlink:show="new" xlink:title="CloudformationProperties.html" xlink:type="simple"><rect codeLine="18" fill="#FEFECE" filter="url(#f1g26l012ujhs7)" height="60.8047" id="com.hack23.sonar.cloudformation.CloudformationProperties" style="stroke: #A80036; stroke-width: 1.5;" width="258" x="1633" y="209"/><ellipse cx="1677.75" cy="225" fill="#ADD1B2" rx="11" ry="11" style="stroke: #A80036; stroke-width: 1.0;"/><path d="M1680.7188,230.6406 Q1680.1406,230.9375 1679.5,231.0781 Q1678.8594,231.2344 1678.1563,231.2344 Q1675.6563,231.2344 1674.3281,229.5938 Q1673.0156,227.9375 1673.0156,224.8125 Q1673.0156,221.6875 1674.3281,220.0313 Q1675.6563,218.375 1678.1563,218.375 Q1678.8594,218.375 1679.5,218.5313 Q1680.1563,218.6875 1680.7188,218.9844 L1680.7188,221.7031 Q1680.0938,221.125 1679.5,220.8594 Q1678.9063,220.5781 1678.2813,220.5781 Q1676.9375,220.5781 1676.25,221.6563 Q1675.5625,222.7188 1675.5625,224.8125 Q1675.5625,226.9063 1676.25,227.9844 Q1676.9375,229.0469 1678.2813,229.0469 Q1678.9063,229.0469 1679.5,228.7813 Q1680.0938,228.5 1680.7188,227.9219 L1680.7188,230.6406 Z "/><text fill="#000000" font-family="sans-serif" font-size="12" lengthAdjust="spacingAndGlyphs" textLength="160" x="1698.25" y="229.1543">CloudformationProperties</text><line style="stroke: #A80036; stroke-width: 1.5;" x1="1634" x2="1890" y1="241" y2="241"/><line style="stroke: #A80036; stroke-width: 1.5;" x1="1634" x2="1890" y1="249" y2="249"/><ellipse cx="1644" cy="260" fill="#84BE84" rx="3" ry="3" style="stroke: #038048; stroke-width: 1.0;"/><text fill="#000000" font-family="sans-serif" font-size="11" lengthAdjust="spacingAndGlyphs" text-decoration="underline" textLength="232" x="1653" y="263.2104">getProperties(): List&lt;PropertyDefinition&gt;</text></a><!--MD5=[0d6d0e5b973745eeb597137a51ee0af0]
class com.hack23.sonar.cloudformation.CloudformationConstants--><a href="CloudformationConstants.html" target="_top" title="CloudformationConstants.html" xlink:actuate="onRequest" xlink:href="CloudformationConstants.html" xlink:show="new" xlink:title="CloudformationConstants.html" xlink:type="simple"><rect codeLine="22" fill="#FEFECE" filter="url(#f1g26l012ujhs7)" height="60.8047" id="com.hack23.sonar.cloudformation.CloudformationConstants" style="stroke: #A80036; stroke-width: 1.5;" width="212" x="1335" y="349"/><ellipse cx="1359.45" cy="365" fill="#ADD1B2" rx="11" ry="11" style="stroke: #A80036; stroke-width: 1.0;"/><path d="M1362.4188,370.6406 Q1361.8406,370.9375 1361.2,371.0781 Q1360.5594,371.2344 1359.8563,371.2344 Q1357.3563,371.2344 1356.0281,369.5938 Q1354.7156,367.9375 1354.7156,364.8125 Q1354.7156,361.6875 1356.0281,360.0313 Q1357.3563,358.375 1359.8563,358.375 Q1360.5594,358.375 1361.2,358.5313 Q1361.8563,358.6875 1362.4188,358.9844 L1362.4188,361.7031 Q1361.7938,361.125 1361.2,360.8594 Q1360.6063,360.5781 1359.9813,360.5781 Q1358.6375,360.5781 1357.95,361.6563 Q1357.2625,362.7188 1357.2625,364.8125 Q1357.2625,366.9063 1357.95,367.9844 Q1358.6375,369.0469 1359.9813,369.0469 Q1360.6063,369.0469 1361.2,368.7813 Q1361.7938,368.5 1362.4188,367.9219 L1362.4188,370.6406 Z "/><text fill="#000000" font-family="sans-serif" font-size="12" lengthAdjust="spacingAndGlyphs" textLength="159" x="1375.55" y="369.1543">CloudformationConstants</text><line style="stroke: #A80036; stroke-width: 1.5;" x1="1336" x2="1546" y1="381" y2="381"/><ellipse cx="1346" cy="392" fill="none" rx="3" ry="3" style="stroke: #038048; stroke-width: 1.0;"/><text fill="#000000" font-family="sans-serif" font-size="11" lengthAdjust="spacingAndGlyphs" text-decoration="underline" textLength="186" x="1355" y="395.2104">REPORT_FILES_PROPERTY: String</text><line style="stroke: #A80036; stroke-width: 1.5;" x1="1336" x2="1546" y1="401.8047" y2="401.8047"/></a><!--MD5=[5cd76e2d5be102320ba6d55700009822]
class com.hack23.sonar.cloudformation.CloudformationSensor--><a href="CloudformationSensor.html" target="_top" title="CloudformationSensor.html" xlink:actuate="onRequest" xlink:href="CloudformationSensor.html" xlink:show="new" xlink:title="CloudformationSensor.html" xlink:type="simple"><rect codeLine="26" fill="#FEFECE" filter="url(#f1g26l012ujhs7)" height="99.2188" id="com.hack23.sonar.cloudformation.CloudformationSensor" style="stroke: #A80036; stroke-width: 1.5;" width="518" x="488" y="190"/><ellipse cx="673.25" cy="206" fill="#ADD1B2" rx="11" ry="11" style="stroke: #A80036; stroke-width: 1.0;"/><path d="M676.2188,211.6406 Q675.6406,211.9375 675,212.0781 Q674.3594,212.2344 673.6563,212.2344 Q671.1563,212.2344 669.8281,210.5938 Q668.5156,208.9375 668.5156,205.8125 Q668.5156,202.6875 669.8281,201.0313 Q671.1563,199.375 673.6563,199.375 Q674.3594,199.375 675,199.5313 Q675.6563,199.6875 676.2188,199.9844 L676.2188,202.7031 Q675.5938,202.125 675,201.8594 Q674.4063,201.5781 673.7813,201.5781 Q672.4375,201.5781 671.75,202.6563 Q671.0625,203.7188 671.0625,205.8125 Q671.0625,207.9063 671.75,208.9844 Q672.4375,210.0469 673.7813,210.0469 Q674.4063,210.0469 675,209.7813 Q675.5938,209.5 676.2188,208.9219 L676.2188,211.6406 Z "/><text fill="#000000" font-family="sans-serif" font-size="12" lengthAdjust="spacingAndGlyphs" textLength="139" x="693.75" y="210.1543">CloudformationSensor</text><line style="stroke: #A80036; stroke-width: 1.5;" x1="489" x2="1005" y1="222" y2="222"/><ellipse cx="499" cy="233" fill="none" rx="3" ry="3" style="stroke: #038048; stroke-width: 1.0;"/><text fill="#000000" font-family="sans-serif" font-size="11" lengthAdjust="spacingAndGlyphs" text-decoration="underline" textLength="126" x="508" y="236.2104">SENSOR_NAME: String</text><line style="stroke: #A80036; stroke-width: 1.5;" x1="489" x2="1005" y1="242.8047" y2="242.8047"/><ellipse cx="499" cy="253.8047" fill="#84BE84" rx="3" ry="3" style="stroke: #038048; stroke-width: 1.0;"/><text fill="#000000" font-family="sans-serif" font-size="11" lengthAdjust="spacingAndGlyphs" textLength="492" x="508" y="257.0151">CloudformationSensor(CloudformationSensorConfiguration, FileSystem, PathResolver)</text><ellipse cx="499" cy="266.6094" fill="#84BE84" rx="3" ry="3" style="stroke: #038048; stroke-width: 1.0;"/><text fill="#000000" font-family="sans-serif" font-size="11" lengthAdjust="spacingAndGlyphs" textLength="188" x="508" y="269.8198">describe(SensorDescriptor): void</text><ellipse cx="499" cy="279.4141" fill="#84BE84" rx="3" ry="3" style="stroke: #038048; stroke-width: 1.0;"/><text fill="#000000" font-family="sans-serif" font-size="11" lengthAdjust="spacingAndGlyphs" textLength="167" x="508" y="282.6245">execute(SensorContext): void</text></a><!--MD5=[fe768997cbfd64bbe9e45e6331c668d3]
class com.hack23.sonar.cloudformation.CloudformationQualityProfile--><a href="CloudformationQualityProfile.html" target="_top" title="CloudformationQualityProfile.html" xlink:actuate="onRequest" xlink:href="CloudformationQualityProfile.html" xlink:show="new" xlink:title="CloudformationQualityProfile.html" xlink:type="simple"><rect codeLine="33" fill="#FEFECE" filter="url(#f1g26l012ujhs7)" height="73.6094" id="com.hack23.sonar.cloudformation.CloudformationQualityProfile" style="stroke: #A80036; stroke-width: 1.5;" width="208" x="1041" y="202.5"/><ellipse cx="1056" cy="218.5" fill="#ADD1B2" rx="11" ry="11" style="stroke: #A80036; stroke-width: 1.0;"/><path d="M1058.9688,224.1406 Q1058.3906,224.4375 1057.75,224.5781 Q1057.1094,224.7344 1056.4063,224.7344 Q1053.9063,224.7344 1052.5781,223.0938 Q1051.2656,221.4375 1051.2656,218.3125 Q1051.2656,215.1875 1052.5781,213.5313 Q1053.9063,211.875 1056.4063,211.875 Q1057.1094,211.875 1057.75,212.0313 Q1058.4063,212.1875 1058.9688,212.4844 L1058.9688,215.2031 Q1058.3438,214.625 1057.75,214.3594 Q1057.1563,214.0781 1056.5313,214.0781 Q1055.1875,214.0781 1054.5,215.1563 Q1053.8125,216.2188 1053.8125,218.3125 Q1053.8125,220.4063 1054.5,221.4844 Q1055.1875,222.5469 1056.5313,222.5469 Q1057.1563,222.5469 1057.75,222.2813 Q1058.3438,222 1058.9688,221.4219 L1058.9688,224.1406 Z "/><text fill="#000000" font-family="sans-serif" font-size="12" lengthAdjust="spacingAndGlyphs" textLength="176" x="1070" y="222.6543">CloudformationQualityProfile</text><line style="stroke: #A80036; stroke-width: 1.5;" x1="1042" x2="1248" y1="234.5" y2="234.5"/><line style="stroke: #A80036; stroke-width: 1.5;" x1="1042" x2="1248" y1="242.5" y2="242.5"/><ellipse cx="1052" cy="253.5" fill="#84BE84" rx="3" ry="3" style="stroke: #038048; stroke-width: 1.0;"/><text fill="#000000" font-family="sans-serif" font-size="11" lengthAdjust="spacingAndGlyphs" text-decoration="underline" textLength="140" x="1061" y="256.7104">hasRule(String): boolean</text><ellipse cx="1052" cy="266.3047" fill="#84BE84" rx="3" ry="3" style="stroke: #038048; stroke-width: 1.0;"/><text fill="#000000" font-family="sans-serif" font-size="11" lengthAdjust="spacingAndGlyphs" textLength="117" x="1061" y="269.5151">define(Context): void</text></a><!--MD5=[0c41336916cc93e234215d73ea118e70]
class org.sonar.api.server.rule.RulesDefinition--><rect codeLine="45" fill="#FEFECE" filter="url(#f1g26l012ujhs7)" height="60.8047" id="org.sonar.api.server.rule.RulesDefinition" style="stroke: #A80036; stroke-width: 1.5;" width="145" x="69.5" y="47.5"/><ellipse cx="93.95" cy="63.5" fill="#B4A7E5" rx="11" ry="11" style="stroke: #A80036; stroke-width: 1.0;"/><path d="M89.8719,59.2656 L89.8719,57.1094 L97.2625,57.1094 L97.2625,59.2656 L94.7938,59.2656 L94.7938,67.3438 L97.2625,67.3438 L97.2625,69.5 L89.8719,69.5 L89.8719,67.3438 L92.3406,67.3438 L92.3406,59.2656 L89.8719,59.2656 Z "/><text fill="#000000" font-family="sans-serif" font-size="12" font-style="italic" lengthAdjust="spacingAndGlyphs" textLength="92" x="110.05" y="67.6543">RulesDefinition</text><line style="stroke: #A80036; stroke-width: 1.5;" x1="70.5" x2="213.5" y1="79.5" y2="79.5"/><line style="stroke: #A80036; stroke-width: 1.5;" x1="70.5" x2="213.5" y1="87.5" y2="87.5"/><ellipse cx="80.5" cy="98.5" fill="#84BE84" rx="3" ry="3" style="stroke: #038048; stroke-width: 1.0;"/><text fill="#000000" font-family="sans-serif" font-size="11" font-style="italic" lengthAdjust="spacingAndGlyphs" textLength="119" x="89.5" y="101.7104">define(Context): void</text><!--MD5=[357bc6d468bbe4af181e679b5a7d4bc8]
class org.sonar.api.Plugin--><rect codeLine="51" fill="#FEFECE" filter="url(#f1g26l012ujhs7)" height="60.8047" id="org.sonar.api.Plugin" style="stroke: #A80036; stroke-width: 1.5;" width="145" x="297.5" y="47.5"/><ellipse cx="347.25" cy="63.5" fill="#B4A7E5" rx="11" ry="11" style="stroke: #A80036; stroke-width: 1.0;"/><path d="M343.1719,59.2656 L343.1719,57.1094 L350.5625,57.1094 L350.5625,59.2656 L348.0938,59.2656 L348.0938,67.3438 L350.5625,67.3438 L350.5625,69.5 L343.1719,69.5 L343.1719,67.3438 L345.6406,67.3438 L345.6406,59.2656 L343.1719,59.2656 Z "/><text fill="#000000" font-family="sans-serif" font-size="12" font-style="italic" lengthAdjust="spacingAndGlyphs" textLength="37" x="367.75" y="67.6543">Plugin</text><line style="stroke: #A80036; stroke-width: 1.5;" x1="298.5" x2="441.5" y1="79.5" y2="79.5"/><line style="stroke: #A80036; stroke-width: 1.5;" x1="298.5" x2="441.5" y1="87.5" y2="87.5"/><ellipse cx="308.5" cy="98.5" fill="#84BE84" rx="3" ry="3" style="stroke: #038048; stroke-width: 1.0;"/><text fill="#000000" font-family="sans-serif" font-size="11" font-style="italic" lengthAdjust="spacingAndGlyphs" textLength="119" x="317.5" y="101.7104">define(Context): void</text><!--MD5=[f8b565af0d68398934f95a4a7e456578]
class org.sonar.api.batch.sensor.Sensor--><rect codeLine="57" fill="#FEFECE" filter="url(#f1g26l012ujhs7)" height="73.6094" id="org.sonar.api.batch.sensor.Sensor" style="stroke: #A80036; stroke-width: 1.5;" width="211" x="641.5" y="41"/><ellipse cx="721.25" cy="57" fill="#B4A7E5" rx="11" ry="11" style="stroke: #A80036; stroke-width: 1.0;"/><path d="M717.1719,52.7656 L717.1719,50.6094 L724.5625,50.6094 L724.5625,52.7656 L722.0938,52.7656 L722.0938,60.8438 L724.5625,60.8438 L724.5625,63 L717.1719,63 L717.1719,60.8438 L719.6406,60.8438 L719.6406,52.7656 L717.1719,52.7656 Z "/><text fill="#000000" font-family="sans-serif" font-size="12" font-style="italic" lengthAdjust="spacingAndGlyphs" textLength="43" x="741.75" y="61.1543">Sensor</text><line style="stroke: #A80036; stroke-width: 1.5;" x1="642.5" x2="851.5" y1="73" y2="73"/><line style="stroke: #A80036; stroke-width: 1.5;" x1="642.5" x2="851.5" y1="81" y2="81"/><ellipse cx="652.5" cy="92" fill="#84BE84" rx="3" ry="3" style="stroke: #038048; stroke-width: 1.0;"/><text fill="#000000" font-family="sans-serif" font-size="11" font-style="italic" lengthAdjust="spacingAndGlyphs" textLength="185" x="661.5" y="95.2104">describe(SensorDescriptor): void</text><ellipse cx="652.5" cy="104.8047" fill="#84BE84" rx="3" ry="3" style="stroke: #038048; stroke-width: 1.0;"/><text fill="#000000" font-family="sans-serif" font-size="11" font-style="italic" lengthAdjust="spacingAndGlyphs" textLength="168" x="661.5" y="108.0151">execute(SensorContext): void</text><!--MD5=[bccf4df98d34ca024eaa4f9d7ebedb88]
class org.sonar.api.server.profile.BuiltInQualityProfilesDefinition--><rect codeLine="64" fill="#FEFECE" filter="url(#f1g26l012ujhs7)" height="60.8047" id="org.sonar.api.server.profile.BuiltInQualityProfilesDefinition" style="stroke: #A80036; stroke-width: 1.5;" width="216" x="1037" y="47.5"/><ellipse cx="1052" cy="63.5" fill="#B4A7E5" rx="11" ry="11" style="stroke: #A80036; stroke-width: 1.0;"/><path d="M1047.9219,59.2656 L1047.9219,57.1094 L1055.3125,57.1094 L1055.3125,59.2656 L1052.8438,59.2656 L1052.8438,67.3438 L1055.3125,67.3438 L1055.3125,69.5 L1047.9219,69.5 L1047.9219,67.3438 L1050.3906,67.3438 L1050.3906,59.2656 L1047.9219,59.2656 Z "/><text fill="#000000" font-family="sans-serif" font-size="12" font-style="italic" lengthAdjust="spacingAndGlyphs" textLength="184" x="1066" y="67.6543">BuiltInQualityProfilesDefinition</text><line style="stroke: #A80036; stroke-width: 1.5;" x1="1038" x2="1252" y1="79.5" y2="79.5"/><line style="stroke: #A80036; stroke-width: 1.5;" x1="1038" x2="1252" y1="87.5" y2="87.5"/><ellipse cx="1048" cy="98.5" fill="#84BE84" rx="3" ry="3" style="stroke: #038048; stroke-width: 1.0;"/><text fill="#000000" font-family="sans-serif" font-size="11" font-style="italic" lengthAdjust="spacingAndGlyphs" textLength="119" x="1057" y="101.7104">define(Context): void</text><!--MD5=[2bdc00f05ffbda222481780920a1d1de]
reverse link org.sonar.api.server.rule.RulesDefinition to com.hack23.sonar.cloudformation.CloudformationRulesDefinition--><path codeLine="38" d="M142,128.87 C142,150.55 142,175.68 142,196.4 " fill="none" id="org.sonar.api.server.rule.RulesDefinition-backto-com.hack23.sonar.cloudformation.CloudformationRulesDefinition" style="stroke: #A80036; stroke-width: 1.0; stroke-dasharray: 7.0,7.0;"/><polygon fill="none" points="135,128.63,142,108.63,149,128.63,135,128.63" style="stroke: #A80036; stroke-width: 1.0;"/><!--MD5=[a0a45c0a895aca957ae22b311196540e]
reverse link org.sonar.api.Plugin to com.hack23.sonar.cloudformation.CloudformationPlugin--><path codeLine="39" d="M370,128.75 C370,154.99 370,186.31 370,208.76 " fill="none" id="org.sonar.api.Plugin-backto-com.hack23.sonar.cloudformation.CloudformationPlugin" style="stroke: #A80036; stroke-width: 1.0; stroke-dasharray: 7.0,7.0;"/><polygon fill="none" points="363,128.63,370,108.63,377,128.63,363,128.63" style="stroke: #A80036; stroke-width: 1.0;"/><!--MD5=[3685ffe233817ba259f4776860359136]
reverse link org.sonar.api.batch.sensor.Sensor to com.hack23.sonar.cloudformation.CloudformationSensor--><path codeLine="40" d="M747,135.38 C747,153.13 747,172.58 747,189.75 " fill="none" id="org.sonar.api.batch.sensor.Sensor-backto-com.hack23.sonar.cloudformation.CloudformationSensor" style="stroke: #A80036; stroke-width: 1.0; stroke-dasharray: 7.0,7.0;"/><polygon fill="none" points="740,135.19,747,115.19,754,135.19,740,135.19" style="stroke: #A80036; stroke-width: 1.0;"/><!--MD5=[63fe7b739a87e21952d62265d328e55c]
reverse link org.sonar.api.server.profile.BuiltInQualityProfilesDefinition to com.hack23.sonar.cloudformation.CloudformationQualityProfile--><path codeLine="41" d="M1145,128.64 C1145,152.48 1145,180.53 1145,202.32 " fill="none" id="org.sonar.api.server.profile.BuiltInQualityProfilesDefinition-backto-com.hack23.sonar.cloudformation.CloudformationQualityProfile" style="stroke: #A80036; stroke-width: 1.0; stroke-dasharray: 7.0,7.0;"/><polygon fill="none" points="1138,128.63,1145,108.63,1152,128.63,1138,128.63" style="stroke: #A80036; stroke-width: 1.0;"/><!--MD5=[4267c0e0e1c496da44e4719aff5857d4]
link com.hack23.sonar.cloudformation.CloudformationSensorConfiguration to com.hack23.sonar.cloudformation.CloudformationProperties--><!--MD5=[ccf7d02e476674fce818001880d01f60]
link com.hack23.sonar.cloudformation.CloudformationSensorConfiguration to com.hack23.sonar.cloudformation.CloudformationConstants--><text fill="#888888" font-family="sans-serif" font-size="10" lengthAdjust="spacingAndGlyphs" textLength="192" x="859.5" y="441.2822">UMLDoclet 2.0.12, PlantUML 1.2020.16</text><!--MD5=[9e377fd3fda2f19ab16219eafa56caac]
@startuml
    namespace com.hack23.sonar.cloudformation {

        class CloudformationRulesDefinition [[CloudformationRulesDefinition.html]] {
            {static} +KEY: String
            {static} +NAME: String
            +define(Context): void
        }

        class CloudformationSensorConfiguration [[CloudformationSensorConfiguration.html]] {
            +CloudformationSensorConfiguration(Configuration)
            +getReportFiles(): Optional<String>
        }

        class CloudformationPlugin [[CloudformationPlugin.html]] {
            +define(Context): void
        }

        class CloudformationProperties [[CloudformationProperties.html]] {
            {static} +getProperties(): List<PropertyDefinition>
        }

        class CloudformationConstants [[CloudformationConstants.html]] {
            {static} +REPORT_FILES_PROPERTY: String
        }

        class CloudformationSensor [[CloudformationSensor.html]] {
            {static} +SENSOR_NAME: String
            +CloudformationSensor(CloudformationSensorConfiguration, FileSystem, PathResolver)
            +describe(SensorDescriptor): void
            +execute(SensorContext): void
        }

        class CloudformationQualityProfile [[CloudformationQualityProfile.html]] {
            {static} +hasRule(String): boolean
            +define(Context): void
        }

        org.sonar.api.server.rule.RulesDefinition <|.. CloudformationRulesDefinition
        org.sonar.api.Plugin <|.. CloudformationPlugin
        org.sonar.api.batch.sensor.Sensor <|.. CloudformationSensor
        org.sonar.api.server.profile.BuiltInQualityProfilesDefinition <|.. CloudformationQualityProfile
    }

    namespace org.sonar.api.server.rule {
        interface RulesDefinition {
            {abstract} +define(Context): void
        }
    }

    namespace org.sonar.api {
        interface Plugin {
            {abstract} +define(Context): void
        }
    }

    namespace org.sonar.api.batch.sensor {
        interface Sensor {
            {abstract} +describe(SensorDescriptor): void
            {abstract} +execute(SensorContext): void
        }
    }

    namespace org.sonar.api.server.profile {
        interface BuiltInQualityProfilesDefinition {
            {abstract} +define(Context): void
        }
    }

    center footer UMLDoclet 2.0.12, PlantUML 1.2020.16
@enduml

PlantUML version 1.2020.16(Sun Aug 23 22:20:43 CEST 2020)
(APACHE source distribution)
Java Runtime: OpenJDK Runtime Environment
JVM: OpenJDK 64-Bit Server VM
Default Encoding: UTF-8
Language: en
Country: US
--></g></svg>