<?xml version="1.0" encoding="UTF-8" standalone="no"?><svg xmlns="http://www.w3.org/2000/svg" xmlns:xlink="http://www.w3.org/1999/xlink" contentScriptType="application/ecmascript" contentStyleType="text/css" height="496px" preserveAspectRatio="none" style="width:2152px;height:496px;" version="1.1" viewBox="0 0 2152 496" width="2152px" zoomAndPan="magnify"><defs><filter height="300%" id="fdnaz8s92waup" width="300%" x="-1" y="-1"><feGaussianBlur result="blurOut" stdDeviation="2.0"/><feColorMatrix in="blurOut" result="blurOut2" type="matrix" values="0 0 0 0 0 0 0 0 0 0 0 0 0 0 0 0 0 0 .4 0"/><feOffset dx="4.0" dy="4.0" in="blurOut2" result="blurOut3"/><feBlend in="SourceGraphic" in2="blurOut3" mode="normal"/></filter></defs><g><!--cluster com.hack23.sonar.cloudformation--><polygon fill="#FFFFFF" filter="url(#fdnaz8s92waup)" points="14,150,289,150,296,172.2969,2130,172.2969,2130,456,14,456,14,150" style="stroke: #000000; stroke-width: 1.5;"/><line style="stroke: #000000; stroke-width: 1.5;" x1="14" x2="296" y1="172.2969" y2="172.2969"/><text fill="#000000" font-family="sans-serif" font-size="14" font-weight="bold" lengthAdjust="spacingAndGlyphs" textLength="269" x="18" y="164.9951">com.hack23.sonar.cloudformation</text><!--cluster org.sonar.api.batch.sensor--><polygon fill="#FFFFFF" filter="url(#fdnaz8s92waup)" points="166,16,386,16,393,38.2969,396,38.2969,396,125,166,125,166,16" style="stroke: #000000; stroke-width: 1.5;"/><line style="stroke: #000000; stroke-width: 1.5;" x1="166" x2="393" y1="38.2969" y2="38.2969"/><text fill="#000000" font-family="sans-serif" font-size="14" font-weight="bold" lengthAdjust="spacingAndGlyphs" textLength="214" x="170" y="30.9951">org.sonar.api.batch.sensor</text><!--cluster org.sonar.api.server.profile--><polygon fill="#FFFFFF" filter="url(#fdnaz8s92waup)" points="562,22.5,786,22.5,793,44.7969,796,44.7969,796,118.5,562,118.5,562,22.5" style="stroke: #000000; stroke-width: 1.5;"/><line style="stroke: #000000; stroke-width: 1.5;" x1="562" x2="793" y1="44.7969" y2="44.7969"/><text fill="#000000" font-family="sans-serif" font-size="14" font-weight="bold" lengthAdjust="spacingAndGlyphs" textLength="218" x="566" y="37.4951">org.sonar.api.server.profile</text><!--cluster org.sonar.api.resources--><polygon fill="#FFFFFF" filter="url(#fdnaz8s92waup)" points="841,29,1038,29,1045,51.2969,1048,51.2969,1048,112,841,112,841,29" style="stroke: #000000; stroke-width: 1.5;"/><line style="stroke: #000000; stroke-width: 1.5;" x1="841" x2="1045" y1="51.2969" y2="51.2969"/><text fill="#000000" font-family="sans-serif" font-size="14" font-weight="bold" lengthAdjust="spacingAndGlyphs" textLength="191" x="845" y="43.9951">org.sonar.api.resources</text><!--cluster org.sonar.api.server.rule--><polygon fill="#FFFFFF" filter="url(#fdnaz8s92waup)" points="1108,22.5,1312,22.5,1319,44.7969,1322,44.7969,1322,118.5,1108,118.5,1108,22.5" style="stroke: #000000; stroke-width: 1.5;"/><line style="stroke: #000000; stroke-width: 1.5;" x1="1108" x2="1319" y1="44.7969" y2="44.7969"/><text fill="#000000" font-family="sans-serif" font-size="14" font-weight="bold" lengthAdjust="spacingAndGlyphs" textLength="198" x="1112" y="37.4951">org.sonar.api.server.rule</text><!--cluster org.sonar.api--><polygon fill="#FFFFFF" filter="url(#fdnaz8s92waup)" points="1362,22.5,1473,22.5,1480,44.7969,1524,44.7969,1524,118.5,1362,118.5,1362,22.5" style="stroke: #000000; stroke-width: 1.5;"/><line style="stroke: #000000; stroke-width: 1.5;" x1="1362" x2="1480" y1="44.7969" y2="44.7969"/><text fill="#000000" font-family="sans-serif" font-size="14" font-weight="bold" lengthAdjust="spacingAndGlyphs" textLength="105" x="1366" y="37.4951">org.sonar.api</text><!--class com.hack23.sonar.cloudformation.CloudformationSensor--><a href="CloudformationSensor.html" target="_top" xlink:actuate="onRequest" xlink:show="new" xlink:title="CloudformationSensor.html" xlink:type="simple"><rect fill="#FEFECE" filter="url(#fdnaz8s92waup)" height="99.2188" id="com.hack23.sonar.cloudformation.CloudformationSensor" style="stroke: #A80036; stroke-width: 1.5;" width="518" x="22" y="190"/><ellipse cx="207.25" cy="206" fill="#ADD1B2" rx="11" ry="11" style="stroke: #A80036; stroke-width: 1.0;"/><path d="M210.2188,211.6406 Q209.6406,211.9375 209,212.0781 Q208.3594,212.2344 207.6563,212.2344 Q205.1563,212.2344 203.8281,210.5938 Q202.5156,208.9375 202.5156,205.8125 Q202.5156,202.6875 203.8281,201.0313 Q205.1563,199.375 207.6563,199.375 Q208.3594,199.375 209,199.5313 Q209.6563,199.6875 210.2188,199.9844 L210.2188,202.7031 Q209.5938,202.125 209,201.8594 Q208.4063,201.5781 207.7813,201.5781 Q206.4375,201.5781 205.75,202.6563 Q205.0625,203.7188 205.0625,205.8125 Q205.0625,207.9063 205.75,208.9844 Q206.4375,210.0469 207.7813,210.0469 Q208.4063,210.0469 209,209.7813 Q209.5938,209.5 210.2188,208.9219 L210.2188,211.6406 Z "/><text fill="#000000" font-family="sans-serif" font-size="12" lengthAdjust="spacingAndGlyphs" textLength="139" x="227.75" y="210.1543">CloudformationSensor</text><line style="stroke: #A80036; stroke-width: 1.5;" x1="23" x2="539" y1="222" y2="222"/><ellipse cx="33" cy="233.9023" fill="none" rx="3" ry="3" style="stroke: #038048; stroke-width: 1.0;"/><text fill="#000000" font-family="sans-serif" font-size="11" lengthAdjust="spacingAndGlyphs" text-decoration="underline" textLength="126" x="42" y="236.2104">SENSOR_NAME: String</text><line style="stroke: #A80036; stroke-width: 1.5;" x1="23" x2="539" y1="242.8047" y2="242.8047"/><ellipse cx="33" cy="254.707" fill="#84BE84" rx="3" ry="3" style="stroke: #038048; stroke-width: 1.0;"/><text fill="#000000" font-family="sans-serif" font-size="11" lengthAdjust="spacingAndGlyphs" textLength="492" x="42" y="257.0151">CloudformationSensor(CloudformationSensorConfiguration, FileSystem, PathResolver)</text><ellipse cx="33" cy="267.5117" fill="#84BE84" rx="3" ry="3" style="stroke: #038048; stroke-width: 1.0;"/><text fill="#000000" font-family="sans-serif" font-size="11" lengthAdjust="spacingAndGlyphs" textLength="188" x="42" y="269.8198">describe(SensorDescriptor): void</text><ellipse cx="33" cy="280.3164" fill="#84BE84" rx="3" ry="3" style="stroke: #038048; stroke-width: 1.0;"/><text fill="#000000" font-family="sans-serif" font-size="11" lengthAdjust="spacingAndGlyphs" textLength="167" x="42" y="282.6245">execute(SensorContext): void</text></a><!--class com.hack23.sonar.cloudformation.CloudformationQualityProfile--><a href="CloudformationQualityProfile.html" target="_top" xlink:actuate="onRequest" xlink:show="new" xlink:title="CloudformationQualityProfile.html" xlink:type="simple"><rect fill="#FEFECE" filter="url(#fdnaz8s92waup)" height="73.6094" id="com.hack23.sonar.cloudformation.CloudformationQualityProfile" style="stroke: #A80036; stroke-width: 1.5;" width="208" x="575" y="202.5"/><ellipse cx="590" cy="218.5" fill="#ADD1B2" rx="11" ry="11" style="stroke: #A80036; stroke-width: 1.0;"/><path d="M592.9688,224.1406 Q592.3906,224.4375 591.75,224.5781 Q591.1094,224.7344 590.4063,224.7344 Q587.9063,224.7344 586.5781,223.0938 Q585.2656,221.4375 585.2656,218.3125 Q585.2656,215.1875 586.5781,213.5313 Q587.9063,211.875 590.4063,211.875 Q591.1094,211.875 591.75,212.0313 Q592.4063,212.1875 592.9688,212.4844 L592.9688,215.2031 Q592.3438,214.625 591.75,214.3594 Q591.1563,214.0781 590.5313,214.0781 Q589.1875,214.0781 588.5,215.1563 Q587.8125,216.2188 587.8125,218.3125 Q587.8125,220.4063 588.5,221.4844 Q589.1875,222.5469 590.5313,222.5469 Q591.1563,222.5469 591.75,222.2813 Q592.3438,222 592.9688,221.4219 L592.9688,224.1406 Z "/><text fill="#000000" font-family="sans-serif" font-size="12" lengthAdjust="spacingAndGlyphs" textLength="176" x="604" y="222.6543">CloudformationQualityProfile</text><line style="stroke: #A80036; stroke-width: 1.5;" x1="576" x2="782" y1="234.5" y2="234.5"/><line style="stroke: #A80036; stroke-width: 1.5;" x1="576" x2="782" y1="242.5" y2="242.5"/><ellipse cx="586" cy="254.4023" fill="#84BE84" rx="3" ry="3" style="stroke: #038048; stroke-width: 1.0;"/><text fill="#000000" font-family="sans-serif" font-size="11" lengthAdjust="spacingAndGlyphs" text-decoration="underline" textLength="140" x="595" y="256.7104">hasRule(String): boolean</text><ellipse cx="586" cy="267.207" fill="#84BE84" rx="3" ry="3" style="stroke: #038048; stroke-width: 1.0;"/><text fill="#000000" font-family="sans-serif" font-size="11" lengthAdjust="spacingAndGlyphs" textLength="117" x="595" y="269.5151">define(Context): void</text></a><!--class com.hack23.sonar.cloudformation.CloudformationLanguage--><a href="CloudformationLanguage.html" target="_top" xlink:actuate="onRequest" xlink:show="new" xlink:title="CloudformationLanguage.html" xlink:type="simple"><rect fill="#FEFECE" filter="url(#fdnaz8s92waup)" height="99.2188" id="com.hack23.sonar.cloudformation.CloudformationLanguage" style="stroke: #A80036; stroke-width: 1.5;" width="252" x="818" y="190"/><ellipse cx="861.35" cy="206" fill="#ADD1B2" rx="11" ry="11" style="stroke: #A80036; stroke-width: 1.0;"/><path d="M864.3188,211.6406 Q863.7406,211.9375 863.1,212.0781 Q862.4594,212.2344 861.7563,212.2344 Q859.2563,212.2344 857.9281,210.5938 Q856.6156,208.9375 856.6156,205.8125 Q856.6156,202.6875 857.9281,201.0313 Q859.2563,199.375 861.7563,199.375 Q862.4594,199.375 863.1,199.5313 Q863.7563,199.6875 864.3188,199.9844 L864.3188,202.7031 Q863.6938,202.125 863.1,201.8594 Q862.5063,201.5781 861.8813,201.5781 Q860.5375,201.5781 859.85,202.6563 Q859.1625,203.7188 859.1625,205.8125 Q859.1625,207.9063 859.85,208.9844 Q860.5375,210.0469 861.8813,210.0469 Q862.5063,210.0469 863.1,209.7813 Q863.6938,209.5 864.3188,208.9219 L864.3188,211.6406 Z "/><text fill="#000000" font-family="sans-serif" font-size="12" lengthAdjust="spacingAndGlyphs" textLength="157" x="881.65" y="210.1543">CloudformationLanguage</text><line style="stroke: #A80036; stroke-width: 1.5;" x1="819" x2="1069" y1="222" y2="222"/><ellipse cx="829" cy="233.9023" fill="none" rx="3" ry="3" style="stroke: #038048; stroke-width: 1.0;"/><text fill="#000000" font-family="sans-serif" font-size="11" lengthAdjust="spacingAndGlyphs" text-decoration="underline" textLength="73" x="838" y="236.2104">NAME: String</text><ellipse cx="829" cy="246.707" fill="none" rx="3" ry="3" style="stroke: #038048; stroke-width: 1.0;"/><text fill="#000000" font-family="sans-serif" font-size="11" lengthAdjust="spacingAndGlyphs" text-decoration="underline" textLength="63" x="838" y="249.0151">KEY: String</text><line style="stroke: #A80036; stroke-width: 1.5;" x1="819" x2="1069" y1="255.6094" y2="255.6094"/><ellipse cx="829" cy="267.5117" fill="#84BE84" rx="3" ry="3" style="stroke: #038048; stroke-width: 1.0;"/><text fill="#000000" font-family="sans-serif" font-size="11" lengthAdjust="spacingAndGlyphs" textLength="226" x="838" y="269.8198">CloudformationLanguage(Configuration)</text><ellipse cx="829" cy="280.3164" fill="#84BE84" rx="3" ry="3" style="stroke: #038048; stroke-width: 1.0;"/><text fill="#000000" font-family="sans-serif" font-size="11" lengthAdjust="spacingAndGlyphs" textLength="141" x="838" y="282.6245">getFileSuffixes(): String[]</text></a><!--class com.hack23.sonar.cloudformation.CloudformationSensorConfiguration--><a href="CloudformationSensorConfiguration.html" target="_top" xlink:actuate="onRequest" xlink:show="new" xlink:title="CloudformationSensorConfiguration.html" xlink:type="simple"><rect fill="#FEFECE" filter="url(#fdnaz8s92waup)" height="73.6094" id="com.hack23.sonar.cloudformation.CloudformationSensorConfiguration" style="stroke: #A80036; stroke-width: 1.5;" width="314" x="1561" y="202.5"/><ellipse cx="1602.55" cy="218.5" fill="#ADD1B2" rx="11" ry="11" style="stroke: #A80036; stroke-width: 1.0;"/><path d="M1605.5188,224.1406 Q1604.9406,224.4375 1604.3,224.5781 Q1603.6594,224.7344 1602.9563,224.7344 Q1600.4563,224.7344 1599.1281,223.0938 Q1597.8156,221.4375 1597.8156,218.3125 Q1597.8156,215.1875 1599.1281,213.5313 Q1600.4563,211.875 1602.9563,211.875 Q1603.6594,211.875 1604.3,212.0313 Q1604.9563,212.1875 1605.5188,212.4844 L1605.5188,215.2031 Q1604.8938,214.625 1604.3,214.3594 Q1603.7063,214.0781 1603.0813,214.0781 Q1601.7375,214.0781 1601.05,215.1563 Q1600.3625,216.2188 1600.3625,218.3125 Q1600.3625,220.4063 1601.05,221.4844 Q1601.7375,222.5469 1603.0813,222.5469 Q1603.7063,222.5469 1604.3,222.2813 Q1604.8938,222 1605.5188,221.4219 L1605.5188,224.1406 Z "/><text fill="#000000" font-family="sans-serif" font-size="12" lengthAdjust="spacingAndGlyphs" textLength="223" x="1622.45" y="222.6543">CloudformationSensorConfiguration</text><line style="stroke: #A80036; stroke-width: 1.5;" x1="1562" x2="1874" y1="234.5" y2="234.5"/><line style="stroke: #A80036; stroke-width: 1.5;" x1="1562" x2="1874" y1="242.5" y2="242.5"/><ellipse cx="1572" cy="254.4023" fill="#84BE84" rx="3" ry="3" style="stroke: #038048; stroke-width: 1.0;"/><text fill="#000000" font-family="sans-serif" font-size="11" lengthAdjust="spacingAndGlyphs" textLength="288" x="1581" y="256.7104">CloudformationSensorConfiguration(Configuration)</text><ellipse cx="1572" cy="267.207" fill="#84BE84" rx="3" ry="3" style="stroke: #038048; stroke-width: 1.0;"/><text fill="#000000" font-family="sans-serif" font-size="11" lengthAdjust="spacingAndGlyphs" textLength="196" x="1581" y="269.5151">getReportFiles(): Optional&lt;String&gt;</text></a><!--class com.hack23.sonar.cloudformation.CloudformationConstants--><a href="CloudformationConstants.html" target="_top" xlink:actuate="onRequest" xlink:show="new" xlink:title="CloudformationConstants.html" xlink:type="simple"><rect fill="#FEFECE" filter="url(#fdnaz8s92waup)" height="60.8047" id="com.hack23.sonar.cloudformation.CloudformationConstants" style="stroke: #A80036; stroke-width: 1.5;" width="212" x="1910" y="209"/><ellipse cx="1934.45" cy="225" fill="#ADD1B2" rx="11" ry="11" style="stroke: #A80036; stroke-width: 1.0;"/><path d="M1937.4188,230.6406 Q1936.8406,230.9375 1936.2,231.0781 Q1935.5594,231.2344 1934.8563,231.2344 Q1932.3563,231.2344 1931.0281,229.5938 Q1929.7156,227.9375 1929.7156,224.8125 Q1929.7156,221.6875 1931.0281,220.0313 Q1932.3563,218.375 1934.8563,218.375 Q1935.5594,218.375 1936.2,218.5313 Q1936.8563,218.6875 1937.4188,218.9844 L1937.4188,221.7031 Q1936.7938,221.125 1936.2,220.8594 Q1935.6063,220.5781 1934.9813,220.5781 Q1933.6375,220.5781 1932.95,221.6563 Q1932.2625,222.7188 1932.2625,224.8125 Q1932.2625,226.9063 1932.95,227.9844 Q1933.6375,229.0469 1934.9813,229.0469 Q1935.6063,229.0469 1936.2,228.7813 Q1936.7938,228.5 1937.4188,227.9219 L1937.4188,230.6406 Z "/><text fill="#000000" font-family="sans-serif" font-size="12" lengthAdjust="spacingAndGlyphs" textLength="159" x="1950.55" y="229.1543">CloudformationConstants</text><line style="stroke: #A80036; stroke-width: 1.5;" x1="1911" x2="2121" y1="241" y2="241"/><ellipse cx="1921" cy="252.9023" fill="none" rx="3" ry="3" style="stroke: #038048; stroke-width: 1.0;"/><text fill="#000000" font-family="sans-serif" font-size="11" lengthAdjust="spacingAndGlyphs" text-decoration="underline" textLength="186" x="1930" y="255.2104">REPORT_FILES_PROPERTY: String</text><line style="stroke: #A80036; stroke-width: 1.5;" x1="1911" x2="2121" y1="261.8047" y2="261.8047"/></a><!--class com.hack23.sonar.cloudformation.CloudformationRulesDefinition--><a href="CloudformationRulesDefinition.html" target="_top" xlink:actuate="onRequest" xlink:show="new" xlink:title="CloudformationRulesDefinition.html" xlink:type="simple"><rect fill="#FEFECE" filter="url(#fdnaz8s92waup)" height="124.8281" id="com.hack23.sonar.cloudformation.CloudformationRulesDefinition" style="stroke: #A80036; stroke-width: 1.5;" width="220" x="1105" y="177"/><ellipse cx="1120" cy="193" fill="#ADD1B2" rx="11" ry="11" style="stroke: #A80036; stroke-width: 1.0;"/><path d="M1122.9688,198.6406 Q1122.3906,198.9375 1121.75,199.0781 Q1121.1094,199.2344 1120.4063,199.2344 Q1117.9063,199.2344 1116.5781,197.5938 Q1115.2656,195.9375 1115.2656,192.8125 Q1115.2656,189.6875 1116.5781,188.0313 Q1117.9063,186.375 1120.4063,186.375 Q1121.1094,186.375 1121.75,186.5313 Q1122.4063,186.6875 1122.9688,186.9844 L1122.9688,189.7031 Q1122.3438,189.125 1121.75,188.8594 Q1121.1563,188.5781 1120.5313,188.5781 Q1119.1875,188.5781 1118.5,189.6563 Q1117.8125,190.7188 1117.8125,192.8125 Q1117.8125,194.9063 1118.5,195.9844 Q1119.1875,197.0469 1120.5313,197.0469 Q1121.1563,197.0469 1121.75,196.7813 Q1122.3438,196.5 1122.9688,195.9219 L1122.9688,198.6406 Z "/><text fill="#000000" font-family="sans-serif" font-size="12" lengthAdjust="spacingAndGlyphs" textLength="188" x="1134" y="197.1543">CloudformationRulesDefinition</text><line style="stroke: #A80036; stroke-width: 1.5;" x1="1106" x2="1324" y1="209" y2="209"/><polygon fill="none" points="1116,215.9023,1120,219.9023,1116,223.9023,1112,219.9023" style="stroke: #B38D22; stroke-width: 1.0;"/><text fill="#000000" font-family="sans-serif" font-size="11" lengthAdjust="spacingAndGlyphs" text-decoration="underline" textLength="63" x="1125" y="223.2104">KEY: String</text><polygon fill="none" points="1116,228.707,1120,232.707,1116,236.707,1112,232.707" style="stroke: #B38D22; stroke-width: 1.0;"/><text fill="#000000" font-family="sans-serif" font-size="11" lengthAdjust="spacingAndGlyphs" text-decoration="underline" textLength="73" x="1125" y="236.0151">NAME: String</text><ellipse cx="1116" cy="246.5117" fill="none" rx="3" ry="3" style="stroke: #038048; stroke-width: 1.0;"/><text fill="#000000" font-family="sans-serif" font-size="11" lengthAdjust="spacingAndGlyphs" text-decoration="underline" textLength="99" x="1125" y="248.8198">REPO_KEY: String</text><polygon fill="none" points="1116,254.3164,1120,258.3164,1116,262.3164,1112,258.3164" style="stroke: #B38D22; stroke-width: 1.0;"/><text fill="#000000" font-family="sans-serif" font-size="11" lengthAdjust="spacingAndGlyphs" text-decoration="underline" textLength="109" x="1125" y="261.6245">REPO_NAME: String</text><line style="stroke: #A80036; stroke-width: 1.5;" x1="1106" x2="1324" y1="268.2188" y2="268.2188"/><polygon fill="#FFFF44" points="1116,275.1211,1120,279.1211,1116,283.1211,1112,279.1211" style="stroke: #B38D22; stroke-width: 1.0;"/><text fill="#000000" font-family="sans-serif" font-size="11" lengthAdjust="spacingAndGlyphs" textLength="176" x="1125" y="282.4292">rulesDefinitionFilePath(): String</text><ellipse cx="1116" cy="292.9258" fill="#84BE84" rx="3" ry="3" style="stroke: #038048; stroke-width: 1.0;"/><text fill="#000000" font-family="sans-serif" font-size="11" lengthAdjust="spacingAndGlyphs" textLength="117" x="1125" y="295.2339">define(Context): void</text></a><!--class com.hack23.sonar.cloudformation.CloudformationPlugin--><a href="CloudformationPlugin.html" target="_top" xlink:actuate="onRequest" xlink:show="new" xlink:title="CloudformationPlugin.html" xlink:type="simple"><rect fill="#FEFECE" filter="url(#fdnaz8s92waup)" height="60.8047" id="com.hack23.sonar.cloudformation.CloudformationPlugin" style="stroke: #A80036; stroke-width: 1.5;" width="165" x="1360.5" y="209"/><ellipse cx="1375.5" cy="225" fill="#ADD1B2" rx="11" ry="11" style="stroke: #A80036; stroke-width: 1.0;"/><path d="M1378.4688,230.6406 Q1377.8906,230.9375 1377.25,231.0781 Q1376.6094,231.2344 1375.9063,231.2344 Q1373.4063,231.2344 1372.0781,229.5938 Q1370.7656,227.9375 1370.7656,224.8125 Q1370.7656,221.6875 1372.0781,220.0313 Q1373.4063,218.375 1375.9063,218.375 Q1376.6094,218.375 1377.25,218.5313 Q1377.9063,218.6875 1378.4688,218.9844 L1378.4688,221.7031 Q1377.8438,221.125 1377.25,220.8594 Q1376.6563,220.5781 1376.0313,220.5781 Q1374.6875,220.5781 1374,221.6563 Q1373.3125,222.7188 1373.3125,224.8125 Q1373.3125,226.9063 1374,227.9844 Q1374.6875,229.0469 1376.0313,229.0469 Q1376.6563,229.0469 1377.25,228.7813 Q1377.8438,228.5 1378.4688,227.9219 L1378.4688,230.6406 Z "/><text fill="#000000" font-family="sans-serif" font-size="12" lengthAdjust="spacingAndGlyphs" textLength="133" x="1389.5" y="229.1543">CloudformationPlugin</text><line style="stroke: #A80036; stroke-width: 1.5;" x1="1361.5" x2="1524.5" y1="241" y2="241"/><line style="stroke: #A80036; stroke-width: 1.5;" x1="1361.5" x2="1524.5" y1="249" y2="249"/><ellipse cx="1371.5" cy="260.9023" fill="#84BE84" rx="3" ry="3" style="stroke: #038048; stroke-width: 1.0;"/><text fill="#000000" font-family="sans-serif" font-size="11" lengthAdjust="spacingAndGlyphs" textLength="117" x="1380.5" y="263.2104">define(Context): void</text></a><!--class com.hack23.sonar.cloudformation.CloudformationProperties--><a href="CloudformationProperties.html" target="_top" xlink:actuate="onRequest" xlink:show="new" xlink:title="CloudformationProperties.html" xlink:type="simple"><rect fill="#FEFECE" filter="url(#fdnaz8s92waup)" height="86.4141" id="com.hack23.sonar.cloudformation.CloudformationProperties" style="stroke: #A80036; stroke-width: 1.5;" width="258" x="1589" y="362"/><ellipse cx="1633.75" cy="378" fill="#ADD1B2" rx="11" ry="11" style="stroke: #A80036; stroke-width: 1.0;"/><path d="M1636.7188,383.6406 Q1636.1406,383.9375 1635.5,384.0781 Q1634.8594,384.2344 1634.1563,384.2344 Q1631.6563,384.2344 1630.3281,382.5938 Q1629.0156,380.9375 1629.0156,377.8125 Q1629.0156,374.6875 1630.3281,373.0313 Q1631.6563,371.375 1634.1563,371.375 Q1634.8594,371.375 1635.5,371.5313 Q1636.1563,371.6875 1636.7188,371.9844 L1636.7188,374.7031 Q1636.0938,374.125 1635.5,373.8594 Q1634.9063,373.5781 1634.2813,373.5781 Q1632.9375,373.5781 1632.25,374.6563 Q1631.5625,375.7188 1631.5625,377.8125 Q1631.5625,379.9063 1632.25,380.9844 Q1632.9375,382.0469 1634.2813,382.0469 Q1634.9063,382.0469 1635.5,381.7813 Q1636.0938,381.5 1636.7188,380.9219 L1636.7188,383.6406 Z "/><text fill="#000000" font-family="sans-serif" font-size="12" lengthAdjust="spacingAndGlyphs" textLength="160" x="1654.25" y="382.1543">CloudformationProperties</text><line style="stroke: #A80036; stroke-width: 1.5;" x1="1590" x2="1846" y1="394" y2="394"/><ellipse cx="1600" cy="405.9023" fill="none" rx="3" ry="3" style="stroke: #038048; stroke-width: 1.0;"/><text fill="#000000" font-family="sans-serif" font-size="11" lengthAdjust="spacingAndGlyphs" text-decoration="underline" textLength="150" x="1609" y="408.2104">FILE_SUFFIXES_KEY: String</text><ellipse cx="1600" cy="418.707" fill="none" rx="3" ry="3" style="stroke: #038048; stroke-width: 1.0;"/><text fill="#000000" font-family="sans-serif" font-size="11" lengthAdjust="spacingAndGlyphs" text-decoration="underline" textLength="219" x="1609" y="421.0151">FILE_SUFFIXES_DEFAULT_VALUE: String</text><line style="stroke: #A80036; stroke-width: 1.5;" x1="1590" x2="1846" y1="427.6094" y2="427.6094"/><ellipse cx="1600" cy="439.5117" fill="#84BE84" rx="3" ry="3" style="stroke: #038048; stroke-width: 1.0;"/><text fill="#000000" font-family="sans-serif" font-size="11" lengthAdjust="spacingAndGlyphs" text-decoration="underline" textLength="232" x="1609" y="441.8198">getProperties(): List&lt;PropertyDefinition&gt;</text></a><!--class org.sonar.api.batch.sensor.Sensor--><rect fill="#FEFECE" filter="url(#fdnaz8s92waup)" height="73.6094" id="org.sonar.api.batch.sensor.Sensor" style="stroke: #A80036; stroke-width: 1.5;" width="211" x="175.5" y="43"/><ellipse cx="255.25" cy="59" fill="#B4A7E5" rx="11" ry="11" style="stroke: #A80036; stroke-width: 1.0;"/><path d="M251.1719,54.7656 L251.1719,52.6094 L258.5625,52.6094 L258.5625,54.7656 L256.0938,54.7656 L256.0938,62.8438 L258.5625,62.8438 L258.5625,65 L251.1719,65 L251.1719,62.8438 L253.6406,62.8438 L253.6406,54.7656 L251.1719,54.7656 Z "/><text fill="#000000" font-family="sans-serif" font-size="12" font-style="italic" lengthAdjust="spacingAndGlyphs" textLength="43" x="275.75" y="63.1543">Sensor</text><line style="stroke: #A80036; stroke-width: 1.5;" x1="176.5" x2="385.5" y1="75" y2="75"/><line style="stroke: #A80036; stroke-width: 1.5;" x1="176.5" x2="385.5" y1="83" y2="83"/><ellipse cx="186.5" cy="94.9023" fill="#84BE84" rx="3" ry="3" style="stroke: #038048; stroke-width: 1.0;"/><text fill="#000000" font-family="sans-serif" font-size="11" font-style="italic" lengthAdjust="spacingAndGlyphs" textLength="185" x="195.5" y="97.2104">describe(SensorDescriptor): void</text><ellipse cx="186.5" cy="107.707" fill="#84BE84" rx="3" ry="3" style="stroke: #038048; stroke-width: 1.0;"/><text fill="#000000" font-family="sans-serif" font-size="11" font-style="italic" lengthAdjust="spacingAndGlyphs" textLength="168" x="195.5" y="110.0151">execute(SensorContext): void</text><!--class org.sonar.api.server.profile.BuiltInQualityProfilesDefinition--><rect fill="#FEFECE" filter="url(#fdnaz8s92waup)" height="60.8047" id="org.sonar.api.server.profile.BuiltInQualityProfilesDefinition" style="stroke: #A80036; stroke-width: 1.5;" width="216" x="571" y="49.5"/><ellipse cx="586" cy="65.5" fill="#B4A7E5" rx="11" ry="11" style="stroke: #A80036; stroke-width: 1.0;"/><path d="M581.9219,61.2656 L581.9219,59.1094 L589.3125,59.1094 L589.3125,61.2656 L586.8438,61.2656 L586.8438,69.3438 L589.3125,69.3438 L589.3125,71.5 L581.9219,71.5 L581.9219,69.3438 L584.3906,69.3438 L584.3906,61.2656 L581.9219,61.2656 Z "/><text fill="#000000" font-family="sans-serif" font-size="12" font-style="italic" lengthAdjust="spacingAndGlyphs" textLength="184" x="600" y="69.6543">BuiltInQualityProfilesDefinition</text><line style="stroke: #A80036; stroke-width: 1.5;" x1="572" x2="786" y1="81.5" y2="81.5"/><line style="stroke: #A80036; stroke-width: 1.5;" x1="572" x2="786" y1="89.5" y2="89.5"/><ellipse cx="582" cy="101.4023" fill="#84BE84" rx="3" ry="3" style="stroke: #038048; stroke-width: 1.0;"/><text fill="#000000" font-family="sans-serif" font-size="11" font-style="italic" lengthAdjust="spacingAndGlyphs" textLength="119" x="591" y="103.7104">define(Context): void</text><!--class org.sonar.api.resources.AbstractLanguage--><rect fill="#FEFECE" filter="url(#fdnaz8s92waup)" height="48" id="org.sonar.api.resources.AbstractLanguage" style="stroke: #A80036; stroke-width: 1.5;" width="147" x="870.5" y="56"/><ellipse cx="885.5" cy="72" fill="#A9DCDF" rx="11" ry="11" style="stroke: #A80036; stroke-width: 1.0;"/><path d="M885.6094,67.3438 L884.4531,72.4219 L886.7813,72.4219 L885.6094,67.3438 Z M884.125,65.1094 L887.1094,65.1094 L890.4688,77.5 L888.0156,77.5 L887.25,74.4375 L883.9688,74.4375 L883.2188,77.5 L880.7813,77.5 L884.125,65.1094 Z "/><text fill="#000000" font-family="sans-serif" font-size="12" font-style="italic" lengthAdjust="spacingAndGlyphs" textLength="115" x="899.5" y="76.1543">AbstractLanguage</text><line style="stroke: #A80036; stroke-width: 1.5;" x1="871.5" x2="1016.5" y1="88" y2="88"/><line style="stroke: #A80036; stroke-width: 1.5;" x1="871.5" x2="1016.5" y1="96" y2="96"/><!--class org.sonar.api.server.rule.RulesDefinition--><rect fill="#FEFECE" filter="url(#fdnaz8s92waup)" height="60.8047" id="org.sonar.api.server.rule.RulesDefinition" style="stroke: #A80036; stroke-width: 1.5;" width="145" x="1142.5" y="49.5"/><ellipse cx="1166.95" cy="65.5" fill="#B4A7E5" rx="11" ry="11" style="stroke: #A80036; stroke-width: 1.0;"/><path d="M1162.8719,61.2656 L1162.8719,59.1094 L1170.2625,59.1094 L1170.2625,61.2656 L1167.7938,61.2656 L1167.7938,69.3438 L1170.2625,69.3438 L1170.2625,71.5 L1162.8719,71.5 L1162.8719,69.3438 L1165.3406,69.3438 L1165.3406,61.2656 L1162.8719,61.2656 Z "/><text fill="#000000" font-family="sans-serif" font-size="12" font-style="italic" lengthAdjust="spacingAndGlyphs" textLength="92" x="1183.05" y="69.6543">RulesDefinition</text><line style="stroke: #A80036; stroke-width: 1.5;" x1="1143.5" x2="1286.5" y1="81.5" y2="81.5"/><line style="stroke: #A80036; stroke-width: 1.5;" x1="1143.5" x2="1286.5" y1="89.5" y2="89.5"/><ellipse cx="1153.5" cy="101.4023" fill="#84BE84" rx="3" ry="3" style="stroke: #038048; stroke-width: 1.0;"/><text fill="#000000" font-family="sans-serif" font-size="11" font-style="italic" lengthAdjust="spacingAndGlyphs" textLength="119" x="1162.5" y="103.7104">define(Context): void</text><!--class org.sonar.api.Plugin--><rect fill="#FEFECE" filter="url(#fdnaz8s92waup)" height="60.8047" id="org.sonar.api.Plugin" style="stroke: #A80036; stroke-width: 1.5;" width="145" x="1370.5" y="49.5"/><ellipse cx="1420.25" cy="65.5" fill="#B4A7E5" rx="11" ry="11" style="stroke: #A80036; stroke-width: 1.0;"/><path d="M1416.1719,61.2656 L1416.1719,59.1094 L1423.5625,59.1094 L1423.5625,61.2656 L1421.0938,61.2656 L1421.0938,69.3438 L1423.5625,69.3438 L1423.5625,71.5 L1416.1719,71.5 L1416.1719,69.3438 L1418.6406,69.3438 L1418.6406,61.2656 L1416.1719,61.2656 Z "/><text fill="#000000" font-family="sans-serif" font-size="12" font-style="italic" lengthAdjust="spacingAndGlyphs" textLength="37" x="1440.75" y="69.6543">Plugin</text><line style="stroke: #A80036; stroke-width: 1.5;" x1="1371.5" x2="1514.5" y1="81.5" y2="81.5"/><line style="stroke: #A80036; stroke-width: 1.5;" x1="1371.5" x2="1514.5" y1="89.5" y2="89.5"/><ellipse cx="1381.5" cy="101.4023" fill="#84BE84" rx="3" ry="3" style="stroke: #038048; stroke-width: 1.0;"/><text fill="#000000" font-family="sans-serif" font-size="11" font-style="italic" lengthAdjust="spacingAndGlyphs" textLength="119" x="1390.5" y="103.7104">define(Context): void</text><!--link org.sonar.api.batch.sensor.Sensor to com.hack23.sonar.cloudformation.CloudformationSensor--><path d="M281,137.6726 C281,154.796 281,173.3936 281,189.9527 " fill="none" id="org.sonar.api.batch.sensor.Sensor-com.hack23.sonar.cloudformation.CloudformationSensor" style="stroke: #A80036; stroke-width: 1.0; stroke-dasharray: 7.0,7.0;"/><polygon fill="none" points="274.0001,137.3957,281,117.3957,288.0001,137.3956,274.0001,137.3957" style="stroke: #A80036; stroke-width: 1.0;"/><!--link org.sonar.api.server.profile.BuiltInQualityProfilesDefinition to com.hack23.sonar.cloudformation.CloudformationQualityProfile--><path d="M679,130.7667 C679,154.0229 679,181.0852 679,202.3936 " fill="none" id="org.sonar.api.server.profile.BuiltInQualityProfilesDefinition-com.hack23.sonar.cloudformation.CloudformationQualityProfile" style="stroke: #A80036; stroke-width: 1.0; stroke-dasharray: 7.0,7.0;"/><polygon fill="none" points="672.0001,130.7532,679,110.7532,686.0001,130.7532,672.0001,130.7532" style="stroke: #A80036; stroke-width: 1.0;"/><!--link org.sonar.api.resources.AbstractLanguage to com.hack23.sonar.cloudformation.CloudformationLanguage--><path d="M944,124.4579 C944,144.8017 944,168.9836 944,189.9143 " fill="none" id="org.sonar.api.resources.AbstractLanguage-com.hack23.sonar.cloudformation.CloudformationLanguage" style="stroke: #A80036; stroke-width: 1.0;"/><polygon fill="none" points="937.0001,124.2247,944,104.2246,951.0001,124.2246,937.0001,124.2247" style="stroke: #A80036; stroke-width: 1.0;"/><!--link org.sonar.api.server.rule.RulesDefinition to com.hack23.sonar.cloudformation.CloudformationRulesDefinition--><path d="M1215,130.8258 C1215,145.4477 1215,161.5702 1215,176.8191 " fill="none" id="org.sonar.api.server.rule.RulesDefinition-com.hack23.sonar.cloudformation.CloudformationRulesDefinition" style="stroke: #A80036; stroke-width: 1.0; stroke-dasharray: 7.0,7.0;"/><polygon fill="none" points="1208.0001,130.7532,1215,110.7532,1222.0001,130.7532,1208.0001,130.7532" style="stroke: #A80036; stroke-width: 1.0;"/><!--link org.sonar.api.Plugin to com.hack23.sonar.cloudformation.CloudformationPlugin--><path d="M1443,130.9293 C1443,156.5683 1443,186.7991 1443,208.8412 " fill="none" id="org.sonar.api.Plugin-com.hack23.sonar.cloudformation.CloudformationPlugin" style="stroke: #A80036; stroke-width: 1.0; stroke-dasharray: 7.0,7.0;"/><polygon fill="none" points="1436.0001,130.7532,1443,110.7532,1450.0001,130.7532,1436.0001,130.7532" style="stroke: #A80036; stroke-width: 1.0;"/><!--link com.hack23.sonar.cloudformation.CloudformationSensorConfiguration to com.hack23.sonar.cloudformation.CloudformationConstants--><!--link com.hack23.sonar.cloudformation.CloudformationSensorConfiguration to com.hack23.sonar.cloudformation.CloudformationProperties--><text fill="#888888" font-family="sans-serif" font-size="10" lengthAdjust="spacingAndGlyphs" textLength="247" x="954.5" y="483.2822">UMLDoclet 2.0.3-SNAPSHOT, PlantUML 1.2019.06</text><!--
@startuml
    namespace com.hack23.sonar.cloudformation {

        class CloudformationSensor [[CloudformationSensor.html]] {
            {static} +SENSOR_NAME: String
            +CloudformationSensor(CloudformationSensorConfiguration, FileSystem, PathResolver)
            +describe(SensorDescriptor): void
            +execute(SensorContext): void
        }

        class CloudformationQualityProfile [[CloudformationQualityProfile.html]] {
            {static} +hasRule(String): boolean
            +define(Context): void
        }

        class CloudformationLanguage [[CloudformationLanguage.html]] {
            {static} +NAME: String
            {static} +KEY: String
            +CloudformationLanguage(Configuration)
            +getFileSuffixes(): String[]
        }

        class CloudformationSensorConfiguration [[CloudformationSensorConfiguration.html]] {
            +CloudformationSensorConfiguration(Configuration)
            +getReportFiles(): Optional<String>
        }

        class CloudformationConstants [[CloudformationConstants.html]] {
            {static} +REPORT_FILES_PROPERTY: String
        }

        class CloudformationRulesDefinition [[CloudformationRulesDefinition.html]] {
            {static} #KEY: String
            {static} #NAME: String
            {static} +REPO_KEY: String
            {static} #REPO_NAME: String
            #rulesDefinitionFilePath(): String
            +define(Context): void
        }

        class CloudformationPlugin [[CloudformationPlugin.html]] {
            +define(Context): void
        }

        class CloudformationProperties [[CloudformationProperties.html]] {
            {static} +FILE_SUFFIXES_KEY: String
            {static} +FILE_SUFFIXES_DEFAULT_VALUE: String
            {static} +getProperties(): List<PropertyDefinition>
        }

        org.sonar.api.batch.sensor.Sensor <|.. CloudformationSensor
        org.sonar.api.server.profile.BuiltInQualityProfilesDefinition <|.. CloudformationQualityProfile
        org.sonar.api.resources.AbstractLanguage <|- - CloudformationLanguage
        org.sonar.api.server.rule.RulesDefinition <|.. CloudformationRulesDefinition
        org.sonar.api.Plugin <|.. CloudformationPlugin
    }

    namespace org.sonar.api.batch.sensor {
        interface Sensor {
            {abstract} +describe(SensorDescriptor): void
            {abstract} +execute(SensorContext): void
        }
    }

    namespace org.sonar.api.server.profile {
        interface BuiltInQualityProfilesDefinition {
            {abstract} +define(Context): void
        }
    }

    namespace org.sonar.api.resources {
        abstract class AbstractLanguage {
        }
    }

    namespace org.sonar.api.server.rule {
        interface RulesDefinition {
            {abstract} +define(Context): void
        }
    }

    namespace org.sonar.api {
        interface Plugin {
            {abstract} +define(Context): void
        }
    }

    center footer UMLDoclet 2.0.3-SNAPSHOT, PlantUML 1.2019.06
@enduml

PlantUML version 1.2019.06(Fri May 24 19:10:25 CEST 2019)
(GPL source distribution)
Java Runtime: Java(TM) SE Runtime Environment
JVM: Java HotSpot(TM) 64-Bit Server VM
Java Version: 11-ea+5
Operating System: Linux
OS Version: 5.0.0-15-generic
Default Encoding: UTF-8
Language: en
Country: US
--></g></svg>