<?xml version="1.0" encoding="UTF-8" standalone="no"?><svg xmlns="http://www.w3.org/2000/svg" xmlns:xlink="http://www.w3.org/1999/xlink" contentScriptType="application/ecmascript" contentStyleType="text/css" height="341px" preserveAspectRatio="none" style="width:2213px;height:341px;background:#FFFFFF;" version="1.1" viewBox="0 0 2213 341" width="2213px" zoomAndPan="magnify"><defs><filter height="300%" id="f1fx27979mbph1" width="300%" x="-1" y="-1"><feGaussianBlur result="blurOut" stdDeviation="2.0"/><feColorMatrix in="blurOut" result="blurOut2" type="matrix" values="0 0 0 0 0 0 0 0 0 0 0 0 0 0 0 0 0 0 .4 0"/><feOffset dx="4.0" dy="4.0" in="blurOut2" result="blurOut3"/><feBlend in="SourceGraphic" in2="blurOut3" mode="normal"/></filter></defs><g><!--MD5=[7efd255d87f67ac79da5c4891114ef95]
cluster com.hack23.sonar.cloudformation--><polygon fill="#FFFFFF" filter="url(#f1fx27979mbph1)" points="16,155,291,155,298,177.2969,2196,177.2969,2196,318,16,318,16,155" style="stroke:#000000;stroke-width:1.5;"/><line style="stroke:#000000;stroke-width:1.5;" x1="16" x2="298" y1="177.2969" y2="177.2969"/><text fill="#000000" font-family="sans-serif" font-size="14" font-weight="bold" lengthAdjust="spacing" textLength="269" x="20" y="169.9951">com.hack23.sonar.cloudformation</text><!--MD5=[d3bfeb526ca1008dfb54863d3a7224f6]
cluster org.sonar.api.server.rule--><polygon fill="#FFFFFF" filter="url(#f1fx27979mbph1)" points="100,12.5,304,12.5,311,34.7969,314,34.7969,314,124.5,100,124.5,100,12.5" style="stroke:#000000;stroke-width:1.5;"/><line style="stroke:#000000;stroke-width:1.5;" x1="100" x2="311" y1="34.7969" y2="34.7969"/><text fill="#000000" font-family="sans-serif" font-size="14" font-weight="bold" lengthAdjust="spacing" textLength="198" x="104" y="27.4951">org.sonar.api.server.rule</text><!--MD5=[6a86e12f8c3573ef90e7334d9e934390]
cluster org.sonar.api--><polygon fill="#FFFFFF" filter="url(#f1fx27979mbph1)" points="410,12.5,521,12.5,528,34.7969,588,34.7969,588,124.5,410,124.5,410,12.5" style="stroke:#000000;stroke-width:1.5;"/><line style="stroke:#000000;stroke-width:1.5;" x1="410" x2="528" y1="34.7969" y2="34.7969"/><text fill="#000000" font-family="sans-serif" font-size="14" font-weight="bold" lengthAdjust="spacing" textLength="105" x="414" y="27.4951">org.sonar.api</text><!--MD5=[069966ec46c27c575c0e14a62cc3970a]
cluster org.sonar.api.batch.sensor--><polygon fill="#FFFFFF" filter="url(#f1fx27979mbph1)" points="1047,6,1267,6,1274,28.2969,1291,28.2969,1291,131,1047,131,1047,6" style="stroke:#000000;stroke-width:1.5;"/><line style="stroke:#000000;stroke-width:1.5;" x1="1047" x2="1274" y1="28.2969" y2="28.2969"/><text fill="#000000" font-family="sans-serif" font-size="14" font-weight="bold" lengthAdjust="spacing" textLength="214" x="1051" y="20.9951">org.sonar.api.batch.sensor</text><!--MD5=[ed82d9bf0a7e82c39fc0b923e4deffa3]
cluster org.sonar.api.server.profile--><polygon fill="#FFFFFF" filter="url(#f1fx27979mbph1)" points="1872,12.5,2096,12.5,2103,34.7969,2120,34.7969,2120,124.5,1872,124.5,1872,12.5" style="stroke:#000000;stroke-width:1.5;"/><line style="stroke:#000000;stroke-width:1.5;" x1="1872" x2="2103" y1="34.7969" y2="34.7969"/><text fill="#000000" font-family="sans-serif" font-size="14" font-weight="bold" lengthAdjust="spacing" textLength="218" x="1876" y="27.4951">org.sonar.api.server.profile</text><!--MD5=[9ad602e740eec67d73c5d598917426ba]
class com.hack23.sonar.cloudformation.CloudformationRulesDefinition--><a href="CloudformationRulesDefinition.html" target="_top" title="CloudformationRulesDefinition.html" xlink:actuate="onRequest" xlink:href="CloudformationRulesDefinition.html" xlink:show="new" xlink:title="CloudformationRulesDefinition.html" xlink:type="simple"><rect codeLine="3" fill="#FEFECE" filter="url(#f1fx27979mbph1)" height="112.0234" id="com.hack23.sonar.cloudformation.CloudformationRulesDefinition" style="stroke:#A80036;stroke-width:1.5;" width="349" x="32.5" y="190"/><ellipse cx="108.75" cy="206" fill="#ADD1B2" rx="11" ry="11" style="stroke:#A80036;stroke-width:1.0;"/><path d="M111.7188,211.6406 Q111.1406,211.9375 110.5,212.0781 Q109.8594,212.2344 109.1563,212.2344 Q106.6563,212.2344 105.3281,210.5938 Q104.0156,208.9375 104.0156,205.8125 Q104.0156,202.6875 105.3281,201.0313 Q106.6563,199.375 109.1563,199.375 Q109.8594,199.375 110.5,199.5313 Q111.1563,199.6875 111.7188,199.9844 L111.7188,202.7031 Q111.0938,202.125 110.5,201.8594 Q109.9063,201.5781 109.2813,201.5781 Q107.9375,201.5781 107.25,202.6563 Q106.5625,203.7188 106.5625,205.8125 Q106.5625,207.9063 107.25,208.9844 Q107.9375,210.0469 109.2813,210.0469 Q109.9063,210.0469 110.5,209.7813 Q111.0938,209.5 111.7188,208.9219 L111.7188,211.6406 Z " fill="#000000"/><text fill="#000000" font-family="sans-serif" font-size="12" lengthAdjust="spacing" textLength="188" x="129.25" y="210.1543">CloudformationRulesDefinition</text><line style="stroke:#A80036;stroke-width:1.5;" x1="33.5" x2="380.5" y1="222" y2="222"/><ellipse cx="43.5" cy="233" rx="3" ry="3" style="stroke:#038048;stroke-width:1.0;fill:none;"/><text fill="#000000" font-family="sans-serif" font-size="11" lengthAdjust="spacing" text-decoration="underline" textLength="63" x="52.5" y="236.2104">KEY: String</text><ellipse cx="43.5" cy="245.8047" rx="3" ry="3" style="stroke:#038048;stroke-width:1.0;fill:none;"/><text fill="#000000" font-family="sans-serif" font-size="11" lengthAdjust="spacing" text-decoration="underline" textLength="73" x="52.5" y="249.0151">NAME: String</text><line style="stroke:#A80036;stroke-width:1.5;" x1="33.5" x2="380.5" y1="255.6094" y2="255.6094"/><ellipse cx="43.5" cy="266.6094" fill="#84BE84" rx="3" ry="3" style="stroke:#038048;stroke-width:1.0;"/><text fill="#000000" font-family="sans-serif" font-size="11" lengthAdjust="spacing" textLength="323" x="52.5" y="269.8198">CloudformationRulesDefinition(RulesDefinitionXmlLoader)</text><ellipse cx="43.5" cy="279.4141" fill="#84BE84" rx="3" ry="3" style="stroke:#038048;stroke-width:1.0;"/><text fill="#000000" font-family="sans-serif" font-size="11" lengthAdjust="spacing" textLength="120" x="52.5" y="282.6245">getContext(): Context</text><ellipse cx="43.5" cy="292.2188" fill="#84BE84" rx="3" ry="3" style="stroke:#038048;stroke-width:1.0;"/><text fill="#000000" font-family="sans-serif" font-size="11" lengthAdjust="spacing" textLength="117" x="52.5" y="295.4292">define(Context): void</text></a><!--MD5=[c3108af317c2c934cdb7e0b2dc4ec977]
class com.hack23.sonar.cloudformation.CloudformationSensorConfiguration--><a href="CloudformationSensorConfiguration.html" target="_top" title="CloudformationSensorConfiguration.html" xlink:actuate="onRequest" xlink:href="CloudformationSensorConfiguration.html" xlink:show="new" xlink:title="CloudformationSensorConfiguration.html" xlink:type="simple"><rect codeLine="11" fill="#FEFECE" filter="url(#f1fx27979mbph1)" height="86.4141" id="com.hack23.sonar.cloudformation.CloudformationSensorConfiguration" style="stroke:#A80036;stroke-width:1.5;" width="314" x="1463" y="203"/><ellipse cx="1504.55" cy="219" fill="#ADD1B2" rx="11" ry="11" style="stroke:#A80036;stroke-width:1.0;"/><path d="M1507.5188,224.6406 Q1506.9406,224.9375 1506.3,225.0781 Q1505.6594,225.2344 1504.9563,225.2344 Q1502.4563,225.2344 1501.1281,223.5938 Q1499.8156,221.9375 1499.8156,218.8125 Q1499.8156,215.6875 1501.1281,214.0313 Q1502.4563,212.375 1504.9563,212.375 Q1505.6594,212.375 1506.3,212.5313 Q1506.9563,212.6875 1507.5188,212.9844 L1507.5188,215.7031 Q1506.8938,215.125 1506.3,214.8594 Q1505.7063,214.5781 1505.0813,214.5781 Q1503.7375,214.5781 1503.05,215.6563 Q1502.3625,216.7188 1502.3625,218.8125 Q1502.3625,220.9063 1503.05,221.9844 Q1503.7375,223.0469 1505.0813,223.0469 Q1505.7063,223.0469 1506.3,222.7813 Q1506.8938,222.5 1507.5188,221.9219 L1507.5188,224.6406 Z " fill="#000000"/><text fill="#000000" font-family="sans-serif" font-size="12" lengthAdjust="spacing" textLength="223" x="1524.45" y="223.1543">CloudformationSensorConfiguration</text><line style="stroke:#A80036;stroke-width:1.5;" x1="1464" x2="1776" y1="235" y2="235"/><line style="stroke:#A80036;stroke-width:1.5;" x1="1464" x2="1776" y1="243" y2="243"/><ellipse cx="1474" cy="254" fill="#84BE84" rx="3" ry="3" style="stroke:#038048;stroke-width:1.0;"/><text fill="#000000" font-family="sans-serif" font-size="11" lengthAdjust="spacing" textLength="288" x="1483" y="257.2104">CloudformationSensorConfiguration(Configuration)</text><ellipse cx="1474" cy="266.8047" fill="#84BE84" rx="3" ry="3" style="stroke:#038048;stroke-width:1.0;"/><text fill="#000000" font-family="sans-serif" font-size="11" lengthAdjust="spacing" textLength="237" x="1483" y="270.0151">getCfnNagReportFiles(): Optional&lt;String&gt;</text><ellipse cx="1474" cy="279.6094" fill="#84BE84" rx="3" ry="3" style="stroke:#038048;stroke-width:1.0;"/><text fill="#000000" font-family="sans-serif" font-size="11" lengthAdjust="spacing" textLength="243" x="1483" y="282.8198">getCheckovReportFiles(): Optional&lt;String&gt;</text></a><!--MD5=[4e78556fd0fd0f12622aab97e46ad39c]
class com.hack23.sonar.cloudformation.CloudformationPlugin--><a href="CloudformationPlugin.html" target="_top" title="CloudformationPlugin.html" xlink:actuate="onRequest" xlink:href="CloudformationPlugin.html" xlink:show="new" xlink:title="CloudformationPlugin.html" xlink:type="simple"><rect codeLine="17" fill="#FEFECE" filter="url(#f1fx27979mbph1)" height="60.8047" id="com.hack23.sonar.cloudformation.CloudformationPlugin" style="stroke:#A80036;stroke-width:1.5;" width="165" x="416.5" y="215.5"/><ellipse cx="431.5" cy="231.5" fill="#ADD1B2" rx="11" ry="11" style="stroke:#A80036;stroke-width:1.0;"/><path d="M434.4688,237.1406 Q433.8906,237.4375 433.25,237.5781 Q432.6094,237.7344 431.9063,237.7344 Q429.4063,237.7344 428.0781,236.0938 Q426.7656,234.4375 426.7656,231.3125 Q426.7656,228.1875 428.0781,226.5313 Q429.4063,224.875 431.9063,224.875 Q432.6094,224.875 433.25,225.0313 Q433.9063,225.1875 434.4688,225.4844 L434.4688,228.2031 Q433.8438,227.625 433.25,227.3594 Q432.6563,227.0781 432.0313,227.0781 Q430.6875,227.0781 430,228.1563 Q429.3125,229.2188 429.3125,231.3125 Q429.3125,233.4063 430,234.4844 Q430.6875,235.5469 432.0313,235.5469 Q432.6563,235.5469 433.25,235.2813 Q433.8438,235 434.4688,234.4219 L434.4688,237.1406 Z " fill="#000000"/><text fill="#000000" font-family="sans-serif" font-size="12" lengthAdjust="spacing" textLength="133" x="445.5" y="235.6543">CloudformationPlugin</text><line style="stroke:#A80036;stroke-width:1.5;" x1="417.5" x2="580.5" y1="247.5" y2="247.5"/><line style="stroke:#A80036;stroke-width:1.5;" x1="417.5" x2="580.5" y1="255.5" y2="255.5"/><ellipse cx="427.5" cy="266.5" fill="#84BE84" rx="3" ry="3" style="stroke:#038048;stroke-width:1.0;"/><text fill="#000000" font-family="sans-serif" font-size="11" lengthAdjust="spacing" textLength="117" x="436.5" y="269.7104">define(Context): void</text></a><!--MD5=[17b8c490b45d6f269308ea962cf0181d]
class com.hack23.sonar.cloudformation.CloudformationProperties--><a href="CloudformationProperties.html" target="_top" title="CloudformationProperties.html" xlink:actuate="onRequest" xlink:href="CloudformationProperties.html" xlink:show="new" xlink:title="CloudformationProperties.html" xlink:type="simple"><rect codeLine="21" fill="#FEFECE" filter="url(#f1fx27979mbph1)" height="60.8047" id="com.hack23.sonar.cloudformation.CloudformationProperties" style="stroke:#A80036;stroke-width:1.5;" width="258" x="617" y="215.5"/><ellipse cx="661.75" cy="231.5" fill="#ADD1B2" rx="11" ry="11" style="stroke:#A80036;stroke-width:1.0;"/><path d="M664.7188,237.1406 Q664.1406,237.4375 663.5,237.5781 Q662.8594,237.7344 662.1563,237.7344 Q659.6563,237.7344 658.3281,236.0938 Q657.0156,234.4375 657.0156,231.3125 Q657.0156,228.1875 658.3281,226.5313 Q659.6563,224.875 662.1563,224.875 Q662.8594,224.875 663.5,225.0313 Q664.1563,225.1875 664.7188,225.4844 L664.7188,228.2031 Q664.0938,227.625 663.5,227.3594 Q662.9063,227.0781 662.2813,227.0781 Q660.9375,227.0781 660.25,228.1563 Q659.5625,229.2188 659.5625,231.3125 Q659.5625,233.4063 660.25,234.4844 Q660.9375,235.5469 662.2813,235.5469 Q662.9063,235.5469 663.5,235.2813 Q664.0938,235 664.7188,234.4219 L664.7188,237.1406 Z " fill="#000000"/><text fill="#000000" font-family="sans-serif" font-size="12" lengthAdjust="spacing" textLength="160" x="682.25" y="235.6543">CloudformationProperties</text><line style="stroke:#A80036;stroke-width:1.5;" x1="618" x2="874" y1="247.5" y2="247.5"/><line style="stroke:#A80036;stroke-width:1.5;" x1="618" x2="874" y1="255.5" y2="255.5"/><ellipse cx="628" cy="266.5" fill="#84BE84" rx="3" ry="3" style="stroke:#038048;stroke-width:1.0;"/><text fill="#000000" font-family="sans-serif" font-size="11" lengthAdjust="spacing" text-decoration="underline" textLength="232" x="637" y="269.7104">getProperties(): List&lt;PropertyDefinition&gt;</text></a><!--MD5=[5cd76e2d5be102320ba6d55700009822]
class com.hack23.sonar.cloudformation.CloudformationSensor--><a href="CloudformationSensor.html" target="_top" title="CloudformationSensor.html" xlink:actuate="onRequest" xlink:href="CloudformationSensor.html" xlink:show="new" xlink:title="CloudformationSensor.html" xlink:type="simple"><rect codeLine="25" fill="#FEFECE" filter="url(#f1fx27979mbph1)" height="99.2188" id="com.hack23.sonar.cloudformation.CloudformationSensor" style="stroke:#A80036;stroke-width:1.5;" width="518" x="910" y="196.5"/><ellipse cx="1095.25" cy="212.5" fill="#ADD1B2" rx="11" ry="11" style="stroke:#A80036;stroke-width:1.0;"/><path d="M1098.2188,218.1406 Q1097.6406,218.4375 1097,218.5781 Q1096.3594,218.7344 1095.6563,218.7344 Q1093.1563,218.7344 1091.8281,217.0938 Q1090.5156,215.4375 1090.5156,212.3125 Q1090.5156,209.1875 1091.8281,207.5313 Q1093.1563,205.875 1095.6563,205.875 Q1096.3594,205.875 1097,206.0313 Q1097.6563,206.1875 1098.2188,206.4844 L1098.2188,209.2031 Q1097.5938,208.625 1097,208.3594 Q1096.4063,208.0781 1095.7813,208.0781 Q1094.4375,208.0781 1093.75,209.1563 Q1093.0625,210.2188 1093.0625,212.3125 Q1093.0625,214.4063 1093.75,215.4844 Q1094.4375,216.5469 1095.7813,216.5469 Q1096.4063,216.5469 1097,216.2813 Q1097.5938,216 1098.2188,215.4219 L1098.2188,218.1406 Z " fill="#000000"/><text fill="#000000" font-family="sans-serif" font-size="12" lengthAdjust="spacing" textLength="139" x="1115.75" y="216.6543">CloudformationSensor</text><line style="stroke:#A80036;stroke-width:1.5;" x1="911" x2="1427" y1="228.5" y2="228.5"/><ellipse cx="921" cy="239.5" rx="3" ry="3" style="stroke:#038048;stroke-width:1.0;fill:none;"/><text fill="#000000" font-family="sans-serif" font-size="11" lengthAdjust="spacing" text-decoration="underline" textLength="126" x="930" y="242.7104">SENSOR_NAME: String</text><line style="stroke:#A80036;stroke-width:1.5;" x1="911" x2="1427" y1="249.3047" y2="249.3047"/><ellipse cx="921" cy="260.3047" fill="#84BE84" rx="3" ry="3" style="stroke:#038048;stroke-width:1.0;"/><text fill="#000000" font-family="sans-serif" font-size="11" lengthAdjust="spacing" textLength="492" x="930" y="263.5151">CloudformationSensor(CloudformationSensorConfiguration, FileSystem, PathResolver)</text><ellipse cx="921" cy="273.1094" fill="#84BE84" rx="3" ry="3" style="stroke:#038048;stroke-width:1.0;"/><text fill="#000000" font-family="sans-serif" font-size="11" lengthAdjust="spacing" textLength="188" x="930" y="276.3198">describe(SensorDescriptor): void</text><ellipse cx="921" cy="285.9141" fill="#84BE84" rx="3" ry="3" style="stroke:#038048;stroke-width:1.0;"/><text fill="#000000" font-family="sans-serif" font-size="11" lengthAdjust="spacing" textLength="167" x="930" y="289.1245">execute(SensorContext): void</text></a><!--MD5=[fe768997cbfd64bbe9e45e6331c668d3]
class com.hack23.sonar.cloudformation.CloudformationQualityProfile--><a href="CloudformationQualityProfile.html" target="_top" title="CloudformationQualityProfile.html" xlink:actuate="onRequest" xlink:href="CloudformationQualityProfile.html" xlink:show="new" xlink:title="CloudformationQualityProfile.html" xlink:type="simple"><rect codeLine="32" fill="#FEFECE" filter="url(#f1fx27979mbph1)" height="73.6094" id="com.hack23.sonar.cloudformation.CloudformationQualityProfile" style="stroke:#A80036;stroke-width:1.5;" width="367" x="1812.5" y="209"/><ellipse cx="1903.75" cy="225" fill="#ADD1B2" rx="11" ry="11" style="stroke:#A80036;stroke-width:1.0;"/><path d="M1906.7188,230.6406 Q1906.1406,230.9375 1905.5,231.0781 Q1904.8594,231.2344 1904.1563,231.2344 Q1901.6563,231.2344 1900.3281,229.5938 Q1899.0156,227.9375 1899.0156,224.8125 Q1899.0156,221.6875 1900.3281,220.0313 Q1901.6563,218.375 1904.1563,218.375 Q1904.8594,218.375 1905.5,218.5313 Q1906.1563,218.6875 1906.7188,218.9844 L1906.7188,221.7031 Q1906.0938,221.125 1905.5,220.8594 Q1904.9063,220.5781 1904.2813,220.5781 Q1902.9375,220.5781 1902.25,221.6563 Q1901.5625,222.7188 1901.5625,224.8125 Q1901.5625,226.9063 1902.25,227.9844 Q1902.9375,229.0469 1904.2813,229.0469 Q1904.9063,229.0469 1905.5,228.7813 Q1906.0938,228.5 1906.7188,227.9219 L1906.7188,230.6406 Z " fill="#000000"/><text fill="#000000" font-family="sans-serif" font-size="12" lengthAdjust="spacing" textLength="176" x="1924.25" y="229.1543">CloudformationQualityProfile</text><line style="stroke:#A80036;stroke-width:1.5;" x1="1813.5" x2="2178.5" y1="241" y2="241"/><line style="stroke:#A80036;stroke-width:1.5;" x1="1813.5" x2="2178.5" y1="249" y2="249"/><ellipse cx="1823.5" cy="260" fill="#84BE84" rx="3" ry="3" style="stroke:#038048;stroke-width:1.0;"/><text fill="#000000" font-family="sans-serif" font-size="11" lengthAdjust="spacing" textLength="341" x="1832.5" y="263.2104">CloudformationQualityProfile(CloudformationRulesDefinition)</text><ellipse cx="1823.5" cy="272.8047" fill="#84BE84" rx="3" ry="3" style="stroke:#038048;stroke-width:1.0;"/><text fill="#000000" font-family="sans-serif" font-size="11" lengthAdjust="spacing" textLength="117" x="1832.5" y="276.0151">define(Context): void</text></a><!--MD5=[0c41336916cc93e234215d73ea118e70]
class org.sonar.api.server.rule.RulesDefinition--><rect codeLine="44" fill="#FEFECE" filter="url(#f1fx27979mbph1)" height="60.8047" id="org.sonar.api.server.rule.RulesDefinition" style="stroke:#A80036;stroke-width:1.5;" width="145" x="134.5" y="47.5"/><ellipse cx="158.95" cy="63.5" fill="#B4A7E5" rx="11" ry="11" style="stroke:#A80036;stroke-width:1.0;"/><path d="M154.8719,59.2656 L154.8719,57.1094 L162.2625,57.1094 L162.2625,59.2656 L159.7938,59.2656 L159.7938,67.3438 L162.2625,67.3438 L162.2625,69.5 L154.8719,69.5 L154.8719,67.3438 L157.3406,67.3438 L157.3406,59.2656 L154.8719,59.2656 Z " fill="#000000"/><text fill="#000000" font-family="sans-serif" font-size="12" font-style="italic" lengthAdjust="spacing" textLength="92" x="175.05" y="67.6543">RulesDefinition</text><line style="stroke:#A80036;stroke-width:1.5;" x1="135.5" x2="278.5" y1="79.5" y2="79.5"/><line style="stroke:#A80036;stroke-width:1.5;" x1="135.5" x2="278.5" y1="87.5" y2="87.5"/><ellipse cx="145.5" cy="98.5" fill="#84BE84" rx="3" ry="3" style="stroke:#038048;stroke-width:1.0;"/><text fill="#000000" font-family="sans-serif" font-size="11" font-style="italic" lengthAdjust="spacing" textLength="119" x="154.5" y="101.7104">define(Context): void</text><!--MD5=[357bc6d468bbe4af181e679b5a7d4bc8]
class org.sonar.api.Plugin--><rect codeLine="50" fill="#FEFECE" filter="url(#f1fx27979mbph1)" height="60.8047" id="org.sonar.api.Plugin" style="stroke:#A80036;stroke-width:1.5;" width="145" x="426.5" y="47.5"/><ellipse cx="476.25" cy="63.5" fill="#B4A7E5" rx="11" ry="11" style="stroke:#A80036;stroke-width:1.0;"/><path d="M472.1719,59.2656 L472.1719,57.1094 L479.5625,57.1094 L479.5625,59.2656 L477.0938,59.2656 L477.0938,67.3438 L479.5625,67.3438 L479.5625,69.5 L472.1719,69.5 L472.1719,67.3438 L474.6406,67.3438 L474.6406,59.2656 L472.1719,59.2656 Z " fill="#000000"/><text fill="#000000" font-family="sans-serif" font-size="12" font-style="italic" lengthAdjust="spacing" textLength="37" x="496.75" y="67.6543">Plugin</text><line style="stroke:#A80036;stroke-width:1.5;" x1="427.5" x2="570.5" y1="79.5" y2="79.5"/><line style="stroke:#A80036;stroke-width:1.5;" x1="427.5" x2="570.5" y1="87.5" y2="87.5"/><ellipse cx="437.5" cy="98.5" fill="#84BE84" rx="3" ry="3" style="stroke:#038048;stroke-width:1.0;"/><text fill="#000000" font-family="sans-serif" font-size="11" font-style="italic" lengthAdjust="spacing" textLength="119" x="446.5" y="101.7104">define(Context): void</text><!--MD5=[f8b565af0d68398934f95a4a7e456578]
class org.sonar.api.batch.sensor.Sensor--><rect codeLine="56" fill="#FEFECE" filter="url(#f1fx27979mbph1)" height="73.6094" id="org.sonar.api.batch.sensor.Sensor" style="stroke:#A80036;stroke-width:1.5;" width="211" x="1063.5" y="41"/><ellipse cx="1143.25" cy="57" fill="#B4A7E5" rx="11" ry="11" style="stroke:#A80036;stroke-width:1.0;"/><path d="M1139.1719,52.7656 L1139.1719,50.6094 L1146.5625,50.6094 L1146.5625,52.7656 L1144.0938,52.7656 L1144.0938,60.8438 L1146.5625,60.8438 L1146.5625,63 L1139.1719,63 L1139.1719,60.8438 L1141.6406,60.8438 L1141.6406,52.7656 L1139.1719,52.7656 Z " fill="#000000"/><text fill="#000000" font-family="sans-serif" font-size="12" font-style="italic" lengthAdjust="spacing" textLength="43" x="1163.75" y="61.1543">Sensor</text><line style="stroke:#A80036;stroke-width:1.5;" x1="1064.5" x2="1273.5" y1="73" y2="73"/><line style="stroke:#A80036;stroke-width:1.5;" x1="1064.5" x2="1273.5" y1="81" y2="81"/><ellipse cx="1074.5" cy="92" fill="#84BE84" rx="3" ry="3" style="stroke:#038048;stroke-width:1.0;"/><text fill="#000000" font-family="sans-serif" font-size="11" font-style="italic" lengthAdjust="spacing" textLength="185" x="1083.5" y="95.2104">describe(SensorDescriptor): void</text><ellipse cx="1074.5" cy="104.8047" fill="#84BE84" rx="3" ry="3" style="stroke:#038048;stroke-width:1.0;"/><text fill="#000000" font-family="sans-serif" font-size="11" font-style="italic" lengthAdjust="spacing" textLength="168" x="1083.5" y="108.0151">execute(SensorContext): void</text><!--MD5=[bccf4df98d34ca024eaa4f9d7ebedb88]
class org.sonar.api.server.profile.BuiltInQualityProfilesDefinition--><rect codeLine="63" fill="#FEFECE" filter="url(#f1fx27979mbph1)" height="60.8047" id="org.sonar.api.server.profile.BuiltInQualityProfilesDefinition" style="stroke:#A80036;stroke-width:1.5;" width="216" x="1888" y="47.5"/><ellipse cx="1903" cy="63.5" fill="#B4A7E5" rx="11" ry="11" style="stroke:#A80036;stroke-width:1.0;"/><path d="M1898.9219,59.2656 L1898.9219,57.1094 L1906.3125,57.1094 L1906.3125,59.2656 L1903.8438,59.2656 L1903.8438,67.3438 L1906.3125,67.3438 L1906.3125,69.5 L1898.9219,69.5 L1898.9219,67.3438 L1901.3906,67.3438 L1901.3906,59.2656 L1898.9219,59.2656 Z " fill="#000000"/><text fill="#000000" font-family="sans-serif" font-size="12" font-style="italic" lengthAdjust="spacing" textLength="184" x="1917" y="67.6543">BuiltInQualityProfilesDefinition</text><line style="stroke:#A80036;stroke-width:1.5;" x1="1889" x2="2103" y1="79.5" y2="79.5"/><line style="stroke:#A80036;stroke-width:1.5;" x1="1889" x2="2103" y1="87.5" y2="87.5"/><ellipse cx="1899" cy="98.5" fill="#84BE84" rx="3" ry="3" style="stroke:#038048;stroke-width:1.0;"/><text fill="#000000" font-family="sans-serif" font-size="11" font-style="italic" lengthAdjust="spacing" textLength="119" x="1908" y="101.7104">define(Context): void</text><!--MD5=[2bdc00f05ffbda222481780920a1d1de]
reverse link org.sonar.api.server.rule.RulesDefinition to com.hack23.sonar.cloudformation.CloudformationRulesDefinition--><path codeLine="37" d="M207,128.87 C207,148.06 207,170.08 207,189.74 " fill="none" id="org.sonar.api.server.rule.RulesDefinition-backto-com.hack23.sonar.cloudformation.CloudformationRulesDefinition" style="stroke:#A80036;stroke-width:1.0;stroke-dasharray:7.0,7.0;"/><polygon fill="none" points="200,128.68,207,108.68,214,128.68,200,128.68" style="stroke:#A80036;stroke-width:1.0;"/><!--MD5=[a0a45c0a895aca957ae22b311196540e]
reverse link org.sonar.api.Plugin to com.hack23.sonar.cloudformation.CloudformationPlugin--><path codeLine="38" d="M499,128.77 C499,156.97 499,191.29 499,215.3 " fill="none" id="org.sonar.api.Plugin-backto-com.hack23.sonar.cloudformation.CloudformationPlugin" style="stroke:#A80036;stroke-width:1.0;stroke-dasharray:7.0,7.0;"/><polygon fill="none" points="492,128.68,499,108.68,506,128.68,492,128.68" style="stroke:#A80036;stroke-width:1.0;"/><!--MD5=[3685ffe233817ba259f4776860359136]
reverse link org.sonar.api.batch.sensor.Sensor to com.hack23.sonar.cloudformation.CloudformationSensor--><path codeLine="39" d="M1169,135.08 C1169,155 1169,177.22 1169,196.45 " fill="none" id="org.sonar.api.batch.sensor.Sensor-backto-com.hack23.sonar.cloudformation.CloudformationSensor" style="stroke:#A80036;stroke-width:1.0;stroke-dasharray:7.0,7.0;"/><polygon fill="none" points="1162,135.02,1169,115.02,1176,135.02,1162,135.02" style="stroke:#A80036;stroke-width:1.0;"/><!--MD5=[63fe7b739a87e21952d62265d328e55c]
reverse link org.sonar.api.server.profile.BuiltInQualityProfilesDefinition to com.hack23.sonar.cloudformation.CloudformationQualityProfile--><path codeLine="40" d="M1996,128.85 C1996,154.62 1996,185.49 1996,208.93 " fill="none" id="org.sonar.api.server.profile.BuiltInQualityProfilesDefinition-backto-com.hack23.sonar.cloudformation.CloudformationQualityProfile" style="stroke:#A80036;stroke-width:1.0;stroke-dasharray:7.0,7.0;"/><polygon fill="none" points="1989,128.68,1996,108.68,2003,128.68,1989,128.68" style="stroke:#A80036;stroke-width:1.0;"/><text fill="#888888" font-family="sans-serif" font-size="10" lengthAdjust="spacing" textLength="192" x="1004" y="333.2822">UMLDoclet 2.0.15, PlantUML 1.2021.13</text><!--MD5=[838ec2d080ba144abeffe0a5b5bf3975]
@startuml
    namespace com.hack23.sonar.cloudformation {

        class CloudformationRulesDefinition [[CloudformationRulesDefinition.html]] {
            {static} +KEY: String
            {static} +NAME: String
            +CloudformationRulesDefinition(RulesDefinitionXmlLoader)
            +getContext(): Context
            +define(Context): void
        }

        class CloudformationSensorConfiguration [[CloudformationSensorConfiguration.html]] {
            +CloudformationSensorConfiguration(Configuration)
            +getCfnNagReportFiles(): Optional<String>
            +getCheckovReportFiles(): Optional<String>
        }

        class CloudformationPlugin [[CloudformationPlugin.html]] {
            +define(Context): void
        }

        class CloudformationProperties [[CloudformationProperties.html]] {
            {static} +getProperties(): List<PropertyDefinition>
        }

        class CloudformationSensor [[CloudformationSensor.html]] {
            {static} +SENSOR_NAME: String
            +CloudformationSensor(CloudformationSensorConfiguration, FileSystem, PathResolver)
            +describe(SensorDescriptor): void
            +execute(SensorContext): void
        }

        class CloudformationQualityProfile [[CloudformationQualityProfile.html]] {
            +CloudformationQualityProfile(CloudformationRulesDefinition)
            +define(Context): void
        }

        org.sonar.api.server.rule.RulesDefinition <|.. CloudformationRulesDefinition
        org.sonar.api.Plugin <|.. CloudformationPlugin
        org.sonar.api.batch.sensor.Sensor <|.. CloudformationSensor
        org.sonar.api.server.profile.BuiltInQualityProfilesDefinition <|.. CloudformationQualityProfile
    }

    namespace org.sonar.api.server.rule {
        interface RulesDefinition {
            {abstract} +define(Context): void
        }
    }

    namespace org.sonar.api {
        interface Plugin {
            {abstract} +define(Context): void
        }
    }

    namespace org.sonar.api.batch.sensor {
        interface Sensor {
            {abstract} +describe(SensorDescriptor): void
            {abstract} +execute(SensorContext): void
        }
    }

    namespace org.sonar.api.server.profile {
        interface BuiltInQualityProfilesDefinition {
            {abstract} +define(Context): void
        }
    }

    center footer UMLDoclet 2.0.15, PlantUML 1.2021.13
@enduml

PlantUML version 1.2021.13(Mon Nov 01 12:38:45 CET 2021)
(APACHE source distribution)
Java Runtime: OpenJDK Runtime Environment
JVM: OpenJDK 64-Bit Server VM
Default Encoding: UTF-8
Language: en
Country: US
--></g></svg>