<?xml version="1.0" encoding="UTF-8" standalone="no"?><svg xmlns="http://www.w3.org/2000/svg" xmlns:xlink="http://www.w3.org/1999/xlink" contentStyleType="text/css" height="177px" preserveAspectRatio="none" style="width:304px;height:177px;background:#FFFFFF;" version="1.1" viewBox="0 0 304 177" width="304px" zoomAndPan="magnify"><defs/><g><!--MD5=[0afdf3c3f8fe468c0602aded5fcb1252]
class com.hack23.sonar.cloudformation.reports.checkov.CheckovReport--><a href="CheckovReport.html" target="_top" title="CheckovReport.html" xlink:actuate="onRequest" xlink:href="CheckovReport.html" xlink:show="new" xlink:title="CheckovReport.html" xlink:type="simple"><g id="elem_com.hack23.sonar.cloudformation.reports.checkov.CheckovReport"><rect codeLine="5" fill="#F1F1F1" height="143.7188" id="com.hack23.sonar.cloudformation.reports.checkov.CheckovReport" rx="2.5" ry="2.5" style="stroke:#181818;stroke-width:0.5;" width="283" x="7" y="7"/><ellipse cx="25.15" cy="25.9688" fill="#ADD1B2" rx="11" ry="11" style="stroke:#181818;stroke-width:1.0;"/><path d="M28.1188,31.6094 Q27.5406,31.9063 26.9,32.0469 Q26.2594,32.2031 25.5563,32.2031 Q23.0563,32.2031 21.7281,30.5625 Q20.4156,28.9063 20.4156,25.7813 Q20.4156,22.6563 21.7281,21 Q23.0563,19.3438 25.5563,19.3438 Q26.2594,19.3438 26.9,19.5 Q27.5563,19.6563 28.1188,19.9531 L28.1188,22.6719 Q27.4938,22.0938 26.9,21.8281 Q26.3063,21.5469 25.6813,21.5469 Q24.3375,21.5469 23.65,22.625 Q22.9625,23.6875 22.9625,25.7813 Q22.9625,27.875 23.65,28.9531 Q24.3375,30.0156 25.6813,30.0156 Q26.3063,30.0156 26.9,29.75 Q27.4938,29.4688 28.1188,28.8906 L28.1188,31.6094 Z " fill="#000000"/><text fill="#000000" font-family="sans-serif" font-size="14" lengthAdjust="spacing" textLength="107" x="108.35" y="24.9951">CheckovReport</text><text fill="#000000" font-family="sans-serif" font-size="10" lengthAdjust="spacing" textLength="244" x="39.85" y="37.5791">com.hack23.sonar.cloudformation.reports.checkov</text><line style="stroke:#181818;stroke-width:0.5;" x1="8" x2="289" y1="44.9375" y2="44.9375"/><ellipse cx="18" cy="58.5859" fill="#84BE84" rx="3" ry="3" style="stroke:#038048;stroke-width:1.0;"/><text fill="#000000" font-family="sans-serif" font-size="14" lengthAdjust="spacing" textLength="160" x="27" y="61.9326">getCheckType(): String</text><ellipse cx="18" cy="74.8828" fill="#84BE84" rx="3" ry="3" style="stroke:#038048;stroke-width:1.0;"/><text fill="#000000" font-family="sans-serif" font-size="14" lengthAdjust="spacing" textLength="187" x="27" y="78.2295">setCheckType(String): void</text><ellipse cx="18" cy="91.1797" fill="#84BE84" rx="3" ry="3" style="stroke:#038048;stroke-width:1.0;"/><text fill="#000000" font-family="sans-serif" font-size="14" lengthAdjust="spacing" textLength="230" x="27" y="94.5264">getSummary(): CheckovSummary</text><ellipse cx="18" cy="107.4766" fill="#84BE84" rx="3" ry="3" style="stroke:#038048;stroke-width:1.0;"/><text fill="#000000" font-family="sans-serif" font-size="14" lengthAdjust="spacing" textLength="257" x="27" y="110.8232">setSummary(CheckovSummary): void</text><ellipse cx="18" cy="123.7734" fill="#84BE84" rx="3" ry="3" style="stroke:#038048;stroke-width:1.0;"/><text fill="#000000" font-family="sans-serif" font-size="14" lengthAdjust="spacing" textLength="206" x="27" y="127.1201">getResults(): CheckovResults</text><ellipse cx="18" cy="140.0703" fill="#84BE84" rx="3" ry="3" style="stroke:#038048;stroke-width:1.0;"/><text fill="#000000" font-family="sans-serif" font-size="14" lengthAdjust="spacing" textLength="233" x="27" y="143.417">setResults(CheckovResults): void</text></g></a><rect fill="none" height="11.6406" style="stroke:none;stroke-width:1.0;" width="186" x="55" y="157.7188"/><text fill="#888888" font-family="sans-serif" font-size="10" lengthAdjust="spacing" textLength="186" x="55" y="167.001">UMLDoclet 2.0.19, PlantUML 1.2022.8</text><!--MD5=[09593b21de0be2853203f81dfbb72374]
@startuml
    set namespaceSeparator none
    hide empty fields
    hide empty methods

    class "<size:14>CheckovReport\n<size:10>com.hack23.sonar.cloudformation.reports.checkov" as com.hack23.sonar.cloudformation.reports.checkov.CheckovReport [[CheckovReport.html]] {
        +getCheckType(): String
        +setCheckType(String): void
        +getSummary(): CheckovSummary
        +setSummary(CheckovSummary): void
        +getResults(): CheckovResults
        +setResults(CheckovResults): void
    }

    center footer UMLDoclet 2.0.19, PlantUML 1.2022.8
@enduml

PlantUML version 1.2022.8(Sun Sep 25 11:00:33 CEST 2022)
(APACHE source distribution)
Java Runtime: OpenJDK Runtime Environment
JVM: OpenJDK 64-Bit Server VM
Default Encoding: ANSI_X3.4-1968
Language: en
Country: US
--></g></svg>