<?xml version="1.0" encoding="UTF-8" standalone="no"?><svg xmlns="http://www.w3.org/2000/svg" xmlns:xlink="http://www.w3.org/1999/xlink" contentScriptType="application/ecmascript" contentStyleType="text/css" height="1139px" preserveAspectRatio="none" style="width:554px;height:1139px;" version="1.1" viewBox="0 0 554 1139" width="554px" zoomAndPan="magnify"><defs><filter height="300%" id="f1m8ksu3vpgurh" width="300%" x="-1" y="-1"><feGaussianBlur result="blurOut" stdDeviation="2.0"/><feColorMatrix in="blurOut" result="blurOut2" type="matrix" values="0 0 0 0 0 0 0 0 0 0 0 0 0 0 0 0 0 0 .4 0"/><feOffset dx="4.0" dy="4.0" in="blurOut2" result="blurOut3"/><feBlend in="SourceGraphic" in2="blurOut3" mode="normal"/></filter></defs><g><!--MD5=[d1dcc449d80ae90eefdb164fa2dfcc08]
cluster com.hack23.sonar.cloudformation.reports.checkov--><polygon fill="#FFFFFF" filter="url(#f1m8ksu3vpgurh)" points="16,6,426,6,433,28.2969,532,28.2969,532,1111,16,1111,16,6" style="stroke: #000000; stroke-width: 1.5;"/><line style="stroke: #000000; stroke-width: 1.5;" x1="16" x2="433" y1="28.2969" y2="28.2969"/><text fill="#000000" font-family="sans-serif" font-size="14" font-weight="bold" lengthAdjust="spacingAndGlyphs" textLength="404" x="20" y="20.9951">com.hack23.sonar.cloudformation.reports.checkov</text><!--MD5=[ad83b05fc8aff98b395babf705662c95]
class com.hack23.sonar.cloudformation.reports.checkov.CheckovSummary--><a href="CheckovSummary.html" target="_top" title="CheckovSummary.html" xlink:actuate="onRequest" xlink:href="CheckovSummary.html" xlink:show="new" xlink:title="CheckovSummary.html" xlink:type="simple"><rect codeLine="3" fill="#FEFECE" filter="url(#f1m8ksu3vpgurh)" height="201.6563" id="com.hack23.sonar.cloudformation.reports.checkov.CheckovSummary" style="stroke: #A80036; stroke-width: 1.5;" width="207" x="32.5" y="192"/><ellipse cx="77.25" cy="208" fill="#ADD1B2" rx="11" ry="11" style="stroke: #A80036; stroke-width: 1.0;"/><path d="M80.2188,213.6406 Q79.6406,213.9375 79,214.0781 Q78.3594,214.2344 77.6563,214.2344 Q75.1563,214.2344 73.8281,212.5938 Q72.5156,210.9375 72.5156,207.8125 Q72.5156,204.6875 73.8281,203.0313 Q75.1563,201.375 77.6563,201.375 Q78.3594,201.375 79,201.5313 Q79.6563,201.6875 80.2188,201.9844 L80.2188,204.7031 Q79.5938,204.125 79,203.8594 Q78.4063,203.5781 77.7813,203.5781 Q76.4375,203.5781 75.75,204.6563 Q75.0625,205.7188 75.0625,207.8125 Q75.0625,209.9063 75.75,210.9844 Q76.4375,212.0469 77.7813,212.0469 Q78.4063,212.0469 79,211.7813 Q79.5938,211.5 80.2188,210.9219 L80.2188,213.6406 Z "/><text fill="#000000" font-family="sans-serif" font-size="12" lengthAdjust="spacingAndGlyphs" textLength="109" x="97.75" y="212.1543">CheckovSummary</text><line style="stroke: #A80036; stroke-width: 1.5;" x1="33.5" x2="238.5" y1="224" y2="224"/><line style="stroke: #A80036; stroke-width: 1.5;" x1="33.5" x2="238.5" y1="232" y2="232"/><ellipse cx="43.5" cy="243" fill="#84BE84" rx="3" ry="3" style="stroke: #038048; stroke-width: 1.0;"/><text fill="#000000" font-family="sans-serif" font-size="11" lengthAdjust="spacingAndGlyphs" textLength="90" x="52.5" y="246.2104">getPassed(): int</text><ellipse cx="43.5" cy="255.8047" fill="#84BE84" rx="3" ry="3" style="stroke: #038048; stroke-width: 1.0;"/><text fill="#000000" font-family="sans-serif" font-size="11" lengthAdjust="spacingAndGlyphs" textLength="113" x="52.5" y="259.0151">setPassed(int): void</text><ellipse cx="43.5" cy="268.6094" fill="#84BE84" rx="3" ry="3" style="stroke: #038048; stroke-width: 1.0;"/><text fill="#000000" font-family="sans-serif" font-size="11" lengthAdjust="spacingAndGlyphs" textLength="81" x="52.5" y="271.8198">getFailed(): int</text><ellipse cx="43.5" cy="281.4141" fill="#84BE84" rx="3" ry="3" style="stroke: #038048; stroke-width: 1.0;"/><text fill="#000000" font-family="sans-serif" font-size="11" lengthAdjust="spacingAndGlyphs" textLength="104" x="52.5" y="284.6245">setFailed(int): void</text><ellipse cx="43.5" cy="294.2188" fill="#84BE84" rx="3" ry="3" style="stroke: #038048; stroke-width: 1.0;"/><text fill="#000000" font-family="sans-serif" font-size="11" lengthAdjust="spacingAndGlyphs" textLength="93" x="52.5" y="297.4292">getSkipped(): int</text><ellipse cx="43.5" cy="307.0234" fill="#84BE84" rx="3" ry="3" style="stroke: #038048; stroke-width: 1.0;"/><text fill="#000000" font-family="sans-serif" font-size="11" lengthAdjust="spacingAndGlyphs" textLength="116" x="52.5" y="310.2339">setSkipped(int): void</text><ellipse cx="43.5" cy="319.8281" fill="#84BE84" rx="3" ry="3" style="stroke: #038048; stroke-width: 1.0;"/><text fill="#000000" font-family="sans-serif" font-size="11" lengthAdjust="spacingAndGlyphs" textLength="127" x="52.5" y="323.0386">getParsingErrors(): int</text><ellipse cx="43.5" cy="332.6328" fill="#84BE84" rx="3" ry="3" style="stroke: #038048; stroke-width: 1.0;"/><text fill="#000000" font-family="sans-serif" font-size="11" lengthAdjust="spacingAndGlyphs" textLength="150" x="52.5" y="335.8433">setParsingErrors(int): void</text><ellipse cx="43.5" cy="345.4375" fill="#84BE84" rx="3" ry="3" style="stroke: #038048; stroke-width: 1.0;"/><text fill="#000000" font-family="sans-serif" font-size="11" lengthAdjust="spacingAndGlyphs" textLength="134" x="52.5" y="348.6479">getResourceCount(): int</text><ellipse cx="43.5" cy="358.2422" fill="#84BE84" rx="3" ry="3" style="stroke: #038048; stroke-width: 1.0;"/><text fill="#000000" font-family="sans-serif" font-size="11" lengthAdjust="spacingAndGlyphs" textLength="157" x="52.5" y="361.4526">setResourceCount(int): void</text><ellipse cx="43.5" cy="371.0469" fill="#84BE84" rx="3" ry="3" style="stroke: #038048; stroke-width: 1.0;"/><text fill="#000000" font-family="sans-serif" font-size="11" lengthAdjust="spacingAndGlyphs" textLength="158" x="52.5" y="374.2573">getCheckovVersion(): String</text><ellipse cx="43.5" cy="383.8516" fill="#84BE84" rx="3" ry="3" style="stroke: #038048; stroke-width: 1.0;"/><text fill="#000000" font-family="sans-serif" font-size="11" lengthAdjust="spacingAndGlyphs" textLength="181" x="52.5" y="387.062">setCheckovVersion(String): void</text></a><!--MD5=[c74014599f47dcfe064d3bca15d7673f]
class com.hack23.sonar.cloudformation.reports.checkov.CheckovResults--><a href="CheckovResults.html" target="_top" title="CheckovResults.html" xlink:actuate="onRequest" xlink:href="CheckovResults.html" xlink:show="new" xlink:title="CheckovResults.html" xlink:type="simple"><rect codeLine="18" fill="#FEFECE" filter="url(#f1m8ksu3vpgurh)" height="99.2188" id="com.hack23.sonar.cloudformation.reports.checkov.CheckovResults" style="stroke: #A80036; stroke-width: 1.5;" width="241" x="274.5" y="243.5"/><ellipse cx="341.75" cy="259.5" fill="#ADD1B2" rx="11" ry="11" style="stroke: #A80036; stroke-width: 1.0;"/><path d="M344.7188,265.1406 Q344.1406,265.4375 343.5,265.5781 Q342.8594,265.7344 342.1563,265.7344 Q339.6563,265.7344 338.3281,264.0938 Q337.0156,262.4375 337.0156,259.3125 Q337.0156,256.1875 338.3281,254.5313 Q339.6563,252.875 342.1563,252.875 Q342.8594,252.875 343.5,253.0313 Q344.1563,253.1875 344.7188,253.4844 L344.7188,256.2031 Q344.0938,255.625 343.5,255.3594 Q342.9063,255.0781 342.2813,255.0781 Q340.9375,255.0781 340.25,256.1563 Q339.5625,257.2188 339.5625,259.3125 Q339.5625,261.4063 340.25,262.4844 Q340.9375,263.5469 342.2813,263.5469 Q342.9063,263.5469 343.5,263.2813 Q344.0938,263 344.7188,262.4219 L344.7188,265.1406 Z "/><text fill="#000000" font-family="sans-serif" font-size="12" lengthAdjust="spacingAndGlyphs" textLength="98" x="362.25" y="263.6543">CheckovResults</text><line style="stroke: #A80036; stroke-width: 1.5;" x1="275.5" x2="514.5" y1="275.5" y2="275.5"/><line style="stroke: #A80036; stroke-width: 1.5;" x1="275.5" x2="514.5" y1="283.5" y2="283.5"/><ellipse cx="285.5" cy="294.5" fill="#84BE84" rx="3" ry="3" style="stroke: #038048; stroke-width: 1.0;"/><text fill="#000000" font-family="sans-serif" font-size="11" lengthAdjust="spacingAndGlyphs" textLength="192" x="294.5" y="297.7104">getSkippedChecks(): List&lt;String&gt;</text><ellipse cx="285.5" cy="307.3047" fill="#84BE84" rx="3" ry="3" style="stroke: #038048; stroke-width: 1.0;"/><text fill="#000000" font-family="sans-serif" font-size="11" lengthAdjust="spacingAndGlyphs" textLength="215" x="294.5" y="310.5151">setSkippedChecks(List&lt;String&gt;): void</text><ellipse cx="285.5" cy="320.1094" fill="#84BE84" rx="3" ry="3" style="stroke: #038048; stroke-width: 1.0;"/><text fill="#000000" font-family="sans-serif" font-size="11" lengthAdjust="spacingAndGlyphs" textLength="185" x="294.5" y="323.3198">getParsingErrors(): List&lt;String&gt;</text><ellipse cx="285.5" cy="332.9141" fill="#84BE84" rx="3" ry="3" style="stroke: #038048; stroke-width: 1.0;"/><text fill="#000000" font-family="sans-serif" font-size="11" lengthAdjust="spacingAndGlyphs" textLength="208" x="294.5" y="336.1245">setParsingErrors(List&lt;String&gt;): void</text></a><!--MD5=[0de1c28b19c66f18248dce4527ec581d]
class com.hack23.sonar.cloudformation.reports.checkov.CheckovPassedCheck--><a href="CheckovPassedCheck.html" target="_top" title="CheckovPassedCheck.html" xlink:actuate="onRequest" xlink:href="CheckovPassedCheck.html" xlink:show="new" xlink:title="CheckovPassedCheck.html" xlink:type="simple"><rect codeLine="25" fill="#FEFECE" filter="url(#f1m8ksu3vpgurh)" height="457.75" id="com.hack23.sonar.cloudformation.reports.checkov.CheckovPassedCheck" style="stroke: #A80036; stroke-width: 1.5;" width="238" x="276" y="486"/><ellipse cx="322.75" cy="502" fill="#ADD1B2" rx="11" ry="11" style="stroke: #A80036; stroke-width: 1.0;"/><path d="M325.7188,507.6406 Q325.1406,507.9375 324.5,508.0781 Q323.8594,508.2344 323.1563,508.2344 Q320.6563,508.2344 319.3281,506.5938 Q318.0156,504.9375 318.0156,501.8125 Q318.0156,498.6875 319.3281,497.0313 Q320.6563,495.375 323.1563,495.375 Q323.8594,495.375 324.5,495.5313 Q325.1563,495.6875 325.7188,495.9844 L325.7188,498.7031 Q325.0938,498.125 324.5,497.8594 Q323.9063,497.5781 323.2813,497.5781 Q321.9375,497.5781 321.25,498.6563 Q320.5625,499.7188 320.5625,501.8125 Q320.5625,503.9063 321.25,504.9844 Q321.9375,506.0469 323.2813,506.0469 Q323.9063,506.0469 324.5,505.7813 Q325.0938,505.5 325.7188,504.9219 L325.7188,507.6406 Z "/><text fill="#000000" font-family="sans-serif" font-size="12" lengthAdjust="spacingAndGlyphs" textLength="136" x="343.25" y="506.1543">CheckovPassedCheck</text><line style="stroke: #A80036; stroke-width: 1.5;" x1="277" x2="513" y1="518" y2="518"/><line style="stroke: #A80036; stroke-width: 1.5;" x1="277" x2="513" y1="526" y2="526"/><ellipse cx="287" cy="537" fill="#84BE84" rx="3" ry="3" style="stroke: #038048; stroke-width: 1.0;"/><text fill="#000000" font-family="sans-serif" font-size="11" lengthAdjust="spacingAndGlyphs" textLength="112" x="296" y="540.2104">getCheckId(): String</text><ellipse cx="287" cy="549.8047" fill="#84BE84" rx="3" ry="3" style="stroke: #038048; stroke-width: 1.0;"/><text fill="#000000" font-family="sans-serif" font-size="11" lengthAdjust="spacingAndGlyphs" textLength="135" x="296" y="553.0151">setCheckId(String): void</text><ellipse cx="287" cy="562.6094" fill="#84BE84" rx="3" ry="3" style="stroke: #038048; stroke-width: 1.0;"/><text fill="#000000" font-family="sans-serif" font-size="11" lengthAdjust="spacingAndGlyphs" textLength="126" x="296" y="565.8198">getBcCheckId(): String</text><ellipse cx="287" cy="575.4141" fill="#84BE84" rx="3" ry="3" style="stroke: #038048; stroke-width: 1.0;"/><text fill="#000000" font-family="sans-serif" font-size="11" lengthAdjust="spacingAndGlyphs" textLength="149" x="296" y="578.6245">setBcCheckId(String): void</text><ellipse cx="287" cy="588.2188" fill="#84BE84" rx="3" ry="3" style="stroke: #038048; stroke-width: 1.0;"/><text fill="#000000" font-family="sans-serif" font-size="11" lengthAdjust="spacingAndGlyphs" textLength="135" x="296" y="591.4292">getCheckName(): String</text><ellipse cx="287" cy="601.0234" fill="#84BE84" rx="3" ry="3" style="stroke: #038048; stroke-width: 1.0;"/><text fill="#000000" font-family="sans-serif" font-size="11" lengthAdjust="spacingAndGlyphs" textLength="158" x="296" y="604.2339">setCheckName(String): void</text><ellipse cx="287" cy="613.8281" fill="#84BE84" rx="3" ry="3" style="stroke: #038048; stroke-width: 1.0;"/><text fill="#000000" font-family="sans-serif" font-size="11" lengthAdjust="spacingAndGlyphs" textLength="139" x="296" y="617.0386">getCheckResult(): Object</text><ellipse cx="287" cy="626.6328" fill="#84BE84" rx="3" ry="3" style="stroke: #038048; stroke-width: 1.0;"/><text fill="#000000" font-family="sans-serif" font-size="11" lengthAdjust="spacingAndGlyphs" textLength="162" x="296" y="629.8433">setCheckResult(Object): void</text><ellipse cx="287" cy="639.4375" fill="#84BE84" rx="3" ry="3" style="stroke: #038048; stroke-width: 1.0;"/><text fill="#000000" font-family="sans-serif" font-size="11" lengthAdjust="spacingAndGlyphs" textLength="167" x="296" y="642.6479">getCodeBlock(): List&lt;Object&gt;</text><ellipse cx="287" cy="652.2422" fill="#84BE84" rx="3" ry="3" style="stroke: #038048; stroke-width: 1.0;"/><text fill="#000000" font-family="sans-serif" font-size="11" lengthAdjust="spacingAndGlyphs" textLength="190" x="296" y="655.4526">setCodeBlock(List&lt;Object&gt;): void</text><ellipse cx="287" cy="665.0469" fill="#84BE84" rx="3" ry="3" style="stroke: #038048; stroke-width: 1.0;"/><text fill="#000000" font-family="sans-serif" font-size="11" lengthAdjust="spacingAndGlyphs" textLength="112" x="296" y="668.2573">getFilePath(): String</text><ellipse cx="287" cy="677.8516" fill="#84BE84" rx="3" ry="3" style="stroke: #038048; stroke-width: 1.0;"/><text fill="#000000" font-family="sans-serif" font-size="11" lengthAdjust="spacingAndGlyphs" textLength="135" x="296" y="681.062">setFilePath(String): void</text><ellipse cx="287" cy="690.6563" fill="#84BE84" rx="3" ry="3" style="stroke: #038048; stroke-width: 1.0;"/><text fill="#000000" font-family="sans-serif" font-size="11" lengthAdjust="spacingAndGlyphs" textLength="140" x="296" y="693.8667">getRepoFilePath(): String</text><ellipse cx="287" cy="703.4609" fill="#84BE84" rx="3" ry="3" style="stroke: #038048; stroke-width: 1.0;"/><text fill="#000000" font-family="sans-serif" font-size="11" lengthAdjust="spacingAndGlyphs" textLength="163" x="296" y="706.6714">setRepoFilePath(String): void</text><ellipse cx="287" cy="716.2656" fill="#84BE84" rx="3" ry="3" style="stroke: #038048; stroke-width: 1.0;"/><text fill="#000000" font-family="sans-serif" font-size="11" lengthAdjust="spacingAndGlyphs" textLength="189" x="296" y="719.4761">getFileLineRange(): List&lt;Integer&gt;</text><ellipse cx="287" cy="729.0703" fill="#84BE84" rx="3" ry="3" style="stroke: #038048; stroke-width: 1.0;"/><text fill="#000000" font-family="sans-serif" font-size="11" lengthAdjust="spacingAndGlyphs" textLength="212" x="296" y="732.2808">setFileLineRange(List&lt;Integer&gt;): void</text><ellipse cx="287" cy="741.875" fill="#84BE84" rx="3" ry="3" style="stroke: #038048; stroke-width: 1.0;"/><text fill="#000000" font-family="sans-serif" font-size="11" lengthAdjust="spacingAndGlyphs" textLength="121" x="296" y="745.0854">getResource(): String</text><ellipse cx="287" cy="754.6797" fill="#84BE84" rx="3" ry="3" style="stroke: #038048; stroke-width: 1.0;"/><text fill="#000000" font-family="sans-serif" font-size="11" lengthAdjust="spacingAndGlyphs" textLength="144" x="296" y="757.8901">setResource(String): void</text><ellipse cx="287" cy="767.4844" fill="#84BE84" rx="3" ry="3" style="stroke: #038048; stroke-width: 1.0;"/><text fill="#000000" font-family="sans-serif" font-size="11" lengthAdjust="spacingAndGlyphs" textLength="135" x="296" y="770.6948">getEvaluations(): Object</text><ellipse cx="287" cy="780.2891" fill="#84BE84" rx="3" ry="3" style="stroke: #038048; stroke-width: 1.0;"/><text fill="#000000" font-family="sans-serif" font-size="11" lengthAdjust="spacingAndGlyphs" textLength="158" x="296" y="783.4995">setEvaluations(Object): void</text><ellipse cx="287" cy="793.0938" fill="#84BE84" rx="3" ry="3" style="stroke: #038048; stroke-width: 1.0;"/><text fill="#000000" font-family="sans-serif" font-size="11" lengthAdjust="spacingAndGlyphs" textLength="134" x="296" y="796.3042">getCheckClass(): String</text><ellipse cx="287" cy="805.8984" fill="#84BE84" rx="3" ry="3" style="stroke: #038048; stroke-width: 1.0;"/><text fill="#000000" font-family="sans-serif" font-size="11" lengthAdjust="spacingAndGlyphs" textLength="157" x="296" y="809.1089">setCheckClass(String): void</text><ellipse cx="287" cy="818.7031" fill="#84BE84" rx="3" ry="3" style="stroke: #038048; stroke-width: 1.0;"/><text fill="#000000" font-family="sans-serif" font-size="11" lengthAdjust="spacingAndGlyphs" textLength="121" x="296" y="821.9136">getGuideline(): String</text><ellipse cx="287" cy="831.5078" fill="#84BE84" rx="3" ry="3" style="stroke: #038048; stroke-width: 1.0;"/><text fill="#000000" font-family="sans-serif" font-size="11" lengthAdjust="spacingAndGlyphs" textLength="144" x="296" y="834.7183">setGuideline(String): void</text><ellipse cx="287" cy="844.3125" fill="#84BE84" rx="3" ry="3" style="stroke: #038048; stroke-width: 1.0;"/><text fill="#000000" font-family="sans-serif" font-size="11" lengthAdjust="spacingAndGlyphs" textLength="133" x="296" y="847.5229">getFileAbsPath(): String</text><ellipse cx="287" cy="857.1172" fill="#84BE84" rx="3" ry="3" style="stroke: #038048; stroke-width: 1.0;"/><text fill="#000000" font-family="sans-serif" font-size="11" lengthAdjust="spacingAndGlyphs" textLength="156" x="296" y="860.3276">setFileAbsPath(String): void</text><ellipse cx="287" cy="869.9219" fill="#84BE84" rx="3" ry="3" style="stroke: #038048; stroke-width: 1.0;"/><text fill="#000000" font-family="sans-serif" font-size="11" lengthAdjust="spacingAndGlyphs" textLength="145" x="296" y="873.1323">getCallerFilePath(): String</text><ellipse cx="287" cy="882.7266" fill="#84BE84" rx="3" ry="3" style="stroke: #038048; stroke-width: 1.0;"/><text fill="#000000" font-family="sans-serif" font-size="11" lengthAdjust="spacingAndGlyphs" textLength="168" x="296" y="885.937">setCallerFilePath(String): void</text><ellipse cx="287" cy="895.5313" fill="#84BE84" rx="3" ry="3" style="stroke: #038048; stroke-width: 1.0;"/><text fill="#000000" font-family="sans-serif" font-size="11" lengthAdjust="spacingAndGlyphs" textLength="178" x="296" y="898.7417">getCallerFileLineRange(): String</text><ellipse cx="287" cy="908.3359" fill="#84BE84" rx="3" ry="3" style="stroke: #038048; stroke-width: 1.0;"/><text fill="#000000" font-family="sans-serif" font-size="11" lengthAdjust="spacingAndGlyphs" textLength="201" x="296" y="911.5464">setCallerFileLineRange(String): void</text><ellipse cx="287" cy="921.1406" fill="#84BE84" rx="3" ry="3" style="stroke: #038048; stroke-width: 1.0;"/><text fill="#000000" font-family="sans-serif" font-size="11" lengthAdjust="spacingAndGlyphs" textLength="150" x="296" y="924.3511">getFixedDefinition(): String</text><ellipse cx="287" cy="933.9453" fill="#84BE84" rx="3" ry="3" style="stroke: #038048; stroke-width: 1.0;"/><text fill="#000000" font-family="sans-serif" font-size="11" lengthAdjust="spacingAndGlyphs" textLength="173" x="296" y="937.1558">setFixedDefinition(String): void</text></a><!--MD5=[a29940e79b95c51a6d00bb8be297f12e]
class com.hack23.sonar.cloudformation.reports.checkov.EntityTags--><a href="EntityTags.html" target="_top" title="EntityTags.html" xlink:actuate="onRequest" xlink:href="EntityTags.html" xlink:show="new" xlink:title="EntityTags.html" xlink:type="simple"><rect codeLine="60" fill="#FEFECE" filter="url(#f1m8ksu3vpgurh)" height="73.6094" id="com.hack23.sonar.cloudformation.reports.checkov.EntityTags" style="stroke: #A80036; stroke-width: 1.5;" width="150" x="320" y="1021"/><ellipse cx="358.85" cy="1037" fill="#ADD1B2" rx="11" ry="11" style="stroke: #A80036; stroke-width: 1.0;"/><path d="M361.8188,1042.6406 Q361.2406,1042.9375 360.6,1043.0781 Q359.9594,1043.2344 359.2563,1043.2344 Q356.7563,1043.2344 355.4281,1041.5938 Q354.1156,1039.9375 354.1156,1036.8125 Q354.1156,1033.6875 355.4281,1032.0313 Q356.7563,1030.375 359.2563,1030.375 Q359.9594,1030.375 360.6,1030.5313 Q361.2563,1030.6875 361.8188,1030.9844 L361.8188,1033.7031 Q361.1938,1033.125 360.6,1032.8594 Q360.0063,1032.5781 359.3813,1032.5781 Q358.0375,1032.5781 357.35,1033.6563 Q356.6625,1034.7188 356.6625,1036.8125 Q356.6625,1038.9063 357.35,1039.9844 Q358.0375,1041.0469 359.3813,1041.0469 Q360.0063,1041.0469 360.6,1040.7813 Q361.1938,1040.5 361.8188,1039.9219 L361.8188,1042.6406 Z "/><text fill="#000000" font-family="sans-serif" font-size="12" lengthAdjust="spacingAndGlyphs" textLength="65" x="378.15" y="1041.1543">EntityTags</text><line style="stroke: #A80036; stroke-width: 1.5;" x1="321" x2="469" y1="1053" y2="1053"/><line style="stroke: #A80036; stroke-width: 1.5;" x1="321" x2="469" y1="1061" y2="1061"/><ellipse cx="331" cy="1072" fill="#84BE84" rx="3" ry="3" style="stroke: #038048; stroke-width: 1.0;"/><text fill="#000000" font-family="sans-serif" font-size="11" lengthAdjust="spacingAndGlyphs" textLength="101" x="340" y="1075.2104">getName(): String</text><ellipse cx="331" cy="1084.8047" fill="#84BE84" rx="3" ry="3" style="stroke: #038048; stroke-width: 1.0;"/><text fill="#000000" font-family="sans-serif" font-size="11" lengthAdjust="spacingAndGlyphs" textLength="124" x="340" y="1088.0151">setName(String): void</text></a><!--MD5=[0afdf3c3f8fe468c0602aded5fcb1252]
class com.hack23.sonar.cloudformation.reports.checkov.CheckovReport--><a href="CheckovReport.html" target="_top" title="CheckovReport.html" xlink:actuate="onRequest" xlink:href="CheckovReport.html" xlink:show="new" xlink:title="CheckovReport.html" xlink:type="simple"><rect codeLine="65" fill="#FEFECE" filter="url(#f1m8ksu3vpgurh)" height="73.6094" id="com.hack23.sonar.cloudformation.reports.checkov.CheckovReport" style="stroke: #A80036; stroke-width: 1.5;" width="178" x="137" y="41"/><ellipse cx="175.4" cy="57" fill="#ADD1B2" rx="11" ry="11" style="stroke: #A80036; stroke-width: 1.0;"/><path d="M178.3688,62.6406 Q177.7906,62.9375 177.15,63.0781 Q176.5094,63.2344 175.8063,63.2344 Q173.3063,63.2344 171.9781,61.5938 Q170.6656,59.9375 170.6656,56.8125 Q170.6656,53.6875 171.9781,52.0313 Q173.3063,50.375 175.8063,50.375 Q176.5094,50.375 177.15,50.5313 Q177.8063,50.6875 178.3688,50.9844 L178.3688,53.7031 Q177.7438,53.125 177.15,52.8594 Q176.5563,52.5781 175.9313,52.5781 Q174.5875,52.5781 173.9,53.6563 Q173.2125,54.7188 173.2125,56.8125 Q173.2125,58.9063 173.9,59.9844 Q174.5875,61.0469 175.9313,61.0469 Q176.5563,61.0469 177.15,60.7813 Q177.7438,60.5 178.3688,59.9219 L178.3688,62.6406 Z "/><text fill="#000000" font-family="sans-serif" font-size="12" lengthAdjust="spacingAndGlyphs" textLength="94" x="194.6" y="61.1543">CheckovReport</text><line style="stroke: #A80036; stroke-width: 1.5;" x1="138" x2="314" y1="73" y2="73"/><line style="stroke: #A80036; stroke-width: 1.5;" x1="138" x2="314" y1="81" y2="81"/><ellipse cx="148" cy="92" fill="#84BE84" rx="3" ry="3" style="stroke: #038048; stroke-width: 1.0;"/><text fill="#000000" font-family="sans-serif" font-size="11" lengthAdjust="spacingAndGlyphs" textLength="129" x="157" y="95.2104">getCheckType(): String</text><ellipse cx="148" cy="104.8047" fill="#84BE84" rx="3" ry="3" style="stroke: #038048; stroke-width: 1.0;"/><text fill="#000000" font-family="sans-serif" font-size="11" lengthAdjust="spacingAndGlyphs" textLength="152" x="157" y="108.0151">setCheckType(String): void</text></a><!--MD5=[a7a24f5fb7429f8e4dae50dab90b73af]
link com.hack23.sonar.cloudformation.reports.checkov.CheckovResults to com.hack23.sonar.cloudformation.reports.checkov.CheckovPassedCheck--><path codeLine="70" d="M395,342.59 C395,377.84 395,428.36 395,480.84 " fill="none" id="com.hack23.sonar.cloudformation.reports.checkov.CheckovResults-to-com.hack23.sonar.cloudformation.reports.checkov.CheckovPassedCheck" style="stroke: #A80036; stroke-width: 1.0;"/><polygon fill="#A80036" points="395,485.92,399,476.92,395,480.92,391,476.92,395,485.92" style="stroke: #A80036; stroke-width: 1.0;"/><text fill="#000000" font-family="sans-serif" font-size="13" lengthAdjust="spacingAndGlyphs" textLength="92" x="396" y="437.0669">passedChecks</text><text fill="#000000" font-family="sans-serif" font-size="13" lengthAdjust="spacingAndGlyphs" textLength="80" x="402" y="452.1997">failedChecks</text><text fill="#000000" font-family="sans-serif" font-size="13" lengthAdjust="spacingAndGlyphs" textLength="7" x="387.8852" y="475.2304">*</text><!--MD5=[b145551561d096d1a879aea0f8602de5]
link com.hack23.sonar.cloudformation.reports.checkov.CheckovPassedCheck to com.hack23.sonar.cloudformation.reports.checkov.EntityTags--><path codeLine="71" d="M395,944.4 C395,971.24 395,995.9 395,1015.26 " fill="none" id="com.hack23.sonar.cloudformation.reports.checkov.CheckovPassedCheck-to-com.hack23.sonar.cloudformation.reports.checkov.EntityTags" style="stroke: #A80036; stroke-width: 1.0;"/><polygon fill="#A80036" points="395,1020.58,399,1011.58,395,1015.58,391,1011.58,395,1020.58" style="stroke: #A80036; stroke-width: 1.0;"/><text fill="#000000" font-family="sans-serif" font-size="13" lengthAdjust="spacingAndGlyphs" textLength="66" x="396" y="987.0669">entityTags</text><!--MD5=[8d6217af91f0e484a8507768ea5b56d1]
link com.hack23.sonar.cloudformation.reports.checkov.CheckovReport to com.hack23.sonar.cloudformation.reports.checkov.CheckovSummary--><path codeLine="72" d="M210.73,115.13 C202.28,135.13 191.3,161.13 180.36,187 " fill="none" id="com.hack23.sonar.cloudformation.reports.checkov.CheckovReport-to-com.hack23.sonar.cloudformation.reports.checkov.CheckovSummary" style="stroke: #A80036; stroke-width: 1.0;"/><polygon fill="#A80036" points="178.32,191.83,185.5065,185.0955,180.2654,187.224,178.1369,181.9828,178.32,191.83" style="stroke: #A80036; stroke-width: 1.0;"/><text fill="#000000" font-family="sans-serif" font-size="13" lengthAdjust="spacingAndGlyphs" textLength="61" x="197" y="158.0669">summary</text><!--MD5=[d4a11ab686159495f89bce84b47e3036]
link com.hack23.sonar.cloudformation.reports.checkov.CheckovReport to com.hack23.sonar.cloudformation.reports.checkov.CheckovResults--><path codeLine="73" d="M254.67,115.13 C281.65,149.14 322.39,200.49 353.03,239.11 " fill="none" id="com.hack23.sonar.cloudformation.reports.checkov.CheckovReport-to-com.hack23.sonar.cloudformation.reports.checkov.CheckovResults" style="stroke: #A80036; stroke-width: 1.0;"/><polygon fill="#A80036" points="356.34,243.28,353.8836,233.7424,353.2339,239.3618,347.6145,238.7121,356.34,243.28" style="stroke: #A80036; stroke-width: 1.0;"/><text fill="#000000" font-family="sans-serif" font-size="13" lengthAdjust="spacingAndGlyphs" textLength="43" x="291" y="158.0669">results</text><text fill="#888888" font-family="sans-serif" font-size="10" lengthAdjust="spacingAndGlyphs" textLength="192" x="172" y="1126.2822">UMLDoclet 2.0.12, PlantUML 1.2020.16</text><!--MD5=[1c85880692641b3a71a13ebef514767d]
@startuml
    namespace com.hack23.sonar.cloudformation.reports.checkov {

        class CheckovSummary [[CheckovSummary.html]] {
            +getPassed(): int
            +setPassed(int): void
            +getFailed(): int
            +setFailed(int): void
            +getSkipped(): int
            +setSkipped(int): void
            +getParsingErrors(): int
            +setParsingErrors(int): void
            +getResourceCount(): int
            +setResourceCount(int): void
            +getCheckovVersion(): String
            +setCheckovVersion(String): void
        }

        class CheckovResults [[CheckovResults.html]] {
            +getSkippedChecks(): List<String>
            +setSkippedChecks(List<String>): void
            +getParsingErrors(): List<String>
            +setParsingErrors(List<String>): void
        }

        class CheckovPassedCheck [[CheckovPassedCheck.html]] {
            +getCheckId(): String
            +setCheckId(String): void
            +getBcCheckId(): String
            +setBcCheckId(String): void
            +getCheckName(): String
            +setCheckName(String): void
            +getCheckResult(): Object
            +setCheckResult(Object): void
            +getCodeBlock(): List<Object>
            +setCodeBlock(List<Object>): void
            +getFilePath(): String
            +setFilePath(String): void
            +getRepoFilePath(): String
            +setRepoFilePath(String): void
            +getFileLineRange(): List<Integer>
            +setFileLineRange(List<Integer>): void
            +getResource(): String
            +setResource(String): void
            +getEvaluations(): Object
            +setEvaluations(Object): void
            +getCheckClass(): String
            +setCheckClass(String): void
            +getGuideline(): String
            +setGuideline(String): void
            +getFileAbsPath(): String
            +setFileAbsPath(String): void
            +getCallerFilePath(): String
            +setCallerFilePath(String): void
            +getCallerFileLineRange(): String
            +setCallerFileLineRange(String): void
            +getFixedDefinition(): String
            +setFixedDefinition(String): void
        }

        class EntityTags [[EntityTags.html]] {
            +getName(): String
            +setName(String): void
        }

        class CheckovReport [[CheckovReport.html]] {
            +getCheckType(): String
            +setCheckType(String): void
        }

        CheckovResults - -> "*" CheckovPassedCheck: passedChecks\nfailedChecks
        CheckovPassedCheck - -> EntityTags: entityTags
        CheckovReport - -> CheckovSummary: summary
        CheckovReport - -> CheckovResults: results
    }

    center footer UMLDoclet 2.0.12, PlantUML 1.2020.16
@enduml

PlantUML version 1.2020.16(Sun Aug 23 22:20:43 CEST 2020)
(APACHE source distribution)
Java Runtime: OpenJDK Runtime Environment
JVM: OpenJDK 64-Bit Server VM
Default Encoding: UTF-8
Language: en
Country: US
--></g></svg>