<?xml version="1.0" encoding="UTF-8" standalone="no"?><svg xmlns="http://www.w3.org/2000/svg" xmlns:xlink="http://www.w3.org/1999/xlink" contentScriptType="application/ecmascript" contentStyleType="text/css" height="936px" preserveAspectRatio="none" style="width:558px;height:936px;" version="1.1" viewBox="0 0 558 936" width="558px" zoomAndPan="magnify"><defs><filter height="300%" id="f1cr12usshfqz7" width="300%" x="-1" y="-1"><feGaussianBlur result="blurOut" stdDeviation="2.0"/><feColorMatrix in="blurOut" result="blurOut2" type="matrix" values="0 0 0 0 0 0 0 0 0 0 0 0 0 0 0 0 0 0 .4 0"/><feOffset dx="4.0" dy="4.0" in="blurOut2" result="blurOut3"/><feBlend in="SourceGraphic" in2="blurOut3" mode="normal"/></filter></defs><g><!--MD5=[d1dcc449d80ae90eefdb164fa2dfcc08]
cluster com.hack23.sonar.cloudformation.reports.checkov--><polygon fill="#FFFFFF" filter="url(#f1cr12usshfqz7)" points="16,6,426,6,433,28.2969,536,28.2969,536,908,16,908,16,6" style="stroke: #000000; stroke-width: 1.5;"/><line style="stroke: #000000; stroke-width: 1.5;" x1="16" x2="433" y1="28.2969" y2="28.2969"/><text fill="#000000" font-family="sans-serif" font-size="14" font-weight="bold" lengthAdjust="spacingAndGlyphs" textLength="404" x="20" y="20.9951">com.hack23.sonar.cloudformation.reports.checkov</text><!--MD5=[ad83b05fc8aff98b395babf705662c95]
class com.hack23.sonar.cloudformation.reports.checkov.CheckovSummary--><a href="CheckovSummary.html" target="_top" title="CheckovSummary.html" xlink:actuate="onRequest" xlink:href="CheckovSummary.html" xlink:show="new" xlink:title="CheckovSummary.html" xlink:type="simple"><rect codeLine="3" fill="#FEFECE" filter="url(#f1cr12usshfqz7)" height="176.0469" id="com.hack23.sonar.cloudformation.reports.checkov.CheckovSummary" style="stroke: #A80036; stroke-width: 1.5;" width="207" x="32.5" y="192"/><ellipse cx="77.25" cy="208" fill="#ADD1B2" rx="11" ry="11" style="stroke: #A80036; stroke-width: 1.0;"/><path d="M80.2188,213.6406 Q79.6406,213.9375 79,214.0781 Q78.3594,214.2344 77.6563,214.2344 Q75.1563,214.2344 73.8281,212.5938 Q72.5156,210.9375 72.5156,207.8125 Q72.5156,204.6875 73.8281,203.0313 Q75.1563,201.375 77.6563,201.375 Q78.3594,201.375 79,201.5313 Q79.6563,201.6875 80.2188,201.9844 L80.2188,204.7031 Q79.5938,204.125 79,203.8594 Q78.4063,203.5781 77.7813,203.5781 Q76.4375,203.5781 75.75,204.6563 Q75.0625,205.7188 75.0625,207.8125 Q75.0625,209.9063 75.75,210.9844 Q76.4375,212.0469 77.7813,212.0469 Q78.4063,212.0469 79,211.7813 Q79.5938,211.5 80.2188,210.9219 L80.2188,213.6406 Z "/><text fill="#000000" font-family="sans-serif" font-size="12" lengthAdjust="spacingAndGlyphs" textLength="109" x="97.75" y="212.1543">CheckovSummary</text><line style="stroke: #A80036; stroke-width: 1.5;" x1="33.5" x2="238.5" y1="224" y2="224"/><line style="stroke: #A80036; stroke-width: 1.5;" x1="33.5" x2="238.5" y1="232" y2="232"/><ellipse cx="43.5" cy="243" fill="#84BE84" rx="3" ry="3" style="stroke: #038048; stroke-width: 1.0;"/><text fill="#000000" font-family="sans-serif" font-size="11" lengthAdjust="spacingAndGlyphs" textLength="90" x="52.5" y="246.2104">getPassed(): int</text><ellipse cx="43.5" cy="255.8047" fill="#84BE84" rx="3" ry="3" style="stroke: #038048; stroke-width: 1.0;"/><text fill="#000000" font-family="sans-serif" font-size="11" lengthAdjust="spacingAndGlyphs" textLength="113" x="52.5" y="259.0151">setPassed(int): void</text><ellipse cx="43.5" cy="268.6094" fill="#84BE84" rx="3" ry="3" style="stroke: #038048; stroke-width: 1.0;"/><text fill="#000000" font-family="sans-serif" font-size="11" lengthAdjust="spacingAndGlyphs" textLength="81" x="52.5" y="271.8198">getFailed(): int</text><ellipse cx="43.5" cy="281.4141" fill="#84BE84" rx="3" ry="3" style="stroke: #038048; stroke-width: 1.0;"/><text fill="#000000" font-family="sans-serif" font-size="11" lengthAdjust="spacingAndGlyphs" textLength="104" x="52.5" y="284.6245">setFailed(int): void</text><ellipse cx="43.5" cy="294.2188" fill="#84BE84" rx="3" ry="3" style="stroke: #038048; stroke-width: 1.0;"/><text fill="#000000" font-family="sans-serif" font-size="11" lengthAdjust="spacingAndGlyphs" textLength="93" x="52.5" y="297.4292">getSkipped(): int</text><ellipse cx="43.5" cy="307.0234" fill="#84BE84" rx="3" ry="3" style="stroke: #038048; stroke-width: 1.0;"/><text fill="#000000" font-family="sans-serif" font-size="11" lengthAdjust="spacingAndGlyphs" textLength="116" x="52.5" y="310.2339">setSkipped(int): void</text><ellipse cx="43.5" cy="319.8281" fill="#84BE84" rx="3" ry="3" style="stroke: #038048; stroke-width: 1.0;"/><text fill="#000000" font-family="sans-serif" font-size="11" lengthAdjust="spacingAndGlyphs" textLength="127" x="52.5" y="323.0386">getParsingErrors(): int</text><ellipse cx="43.5" cy="332.6328" fill="#84BE84" rx="3" ry="3" style="stroke: #038048; stroke-width: 1.0;"/><text fill="#000000" font-family="sans-serif" font-size="11" lengthAdjust="spacingAndGlyphs" textLength="150" x="52.5" y="335.8433">setParsingErrors(int): void</text><ellipse cx="43.5" cy="345.4375" fill="#84BE84" rx="3" ry="3" style="stroke: #038048; stroke-width: 1.0;"/><text fill="#000000" font-family="sans-serif" font-size="11" lengthAdjust="spacingAndGlyphs" textLength="158" x="52.5" y="348.6479">getCheckovVersion(): String</text><ellipse cx="43.5" cy="358.2422" fill="#84BE84" rx="3" ry="3" style="stroke: #038048; stroke-width: 1.0;"/><text fill="#000000" font-family="sans-serif" font-size="11" lengthAdjust="spacingAndGlyphs" textLength="181" x="52.5" y="361.4526">setCheckovVersion(String): void</text></a><!--MD5=[c74014599f47dcfe064d3bca15d7673f]
class com.hack23.sonar.cloudformation.reports.checkov.CheckovResults--><a href="CheckovResults.html" target="_top" title="CheckovResults.html" xlink:actuate="onRequest" xlink:href="CheckovResults.html" xlink:show="new" xlink:title="CheckovResults.html" xlink:type="simple"><rect codeLine="16" fill="#FEFECE" filter="url(#f1cr12usshfqz7)" height="99.2188" id="com.hack23.sonar.cloudformation.reports.checkov.CheckovResults" style="stroke: #A80036; stroke-width: 1.5;" width="245" x="274.5" y="230.5"/><ellipse cx="343.75" cy="246.5" fill="#ADD1B2" rx="11" ry="11" style="stroke: #A80036; stroke-width: 1.0;"/><path d="M346.7188,252.1406 Q346.1406,252.4375 345.5,252.5781 Q344.8594,252.7344 344.1563,252.7344 Q341.6563,252.7344 340.3281,251.0938 Q339.0156,249.4375 339.0156,246.3125 Q339.0156,243.1875 340.3281,241.5313 Q341.6563,239.875 344.1563,239.875 Q344.8594,239.875 345.5,240.0313 Q346.1563,240.1875 346.7188,240.4844 L346.7188,243.2031 Q346.0938,242.625 345.5,242.3594 Q344.9063,242.0781 344.2813,242.0781 Q342.9375,242.0781 342.25,243.1563 Q341.5625,244.2188 341.5625,246.3125 Q341.5625,248.4063 342.25,249.4844 Q342.9375,250.5469 344.2813,250.5469 Q344.9063,250.5469 345.5,250.2813 Q346.0938,250 346.7188,249.4219 L346.7188,252.1406 Z "/><text fill="#000000" font-family="sans-serif" font-size="12" lengthAdjust="spacingAndGlyphs" textLength="98" x="364.25" y="250.6543">CheckovResults</text><line style="stroke: #A80036; stroke-width: 1.5;" x1="275.5" x2="518.5" y1="262.5" y2="262.5"/><line style="stroke: #A80036; stroke-width: 1.5;" x1="275.5" x2="518.5" y1="270.5" y2="270.5"/><ellipse cx="285.5" cy="281.5" fill="#84BE84" rx="3" ry="3" style="stroke: #038048; stroke-width: 1.0;"/><text fill="#000000" font-family="sans-serif" font-size="11" lengthAdjust="spacingAndGlyphs" textLength="196" x="294.5" y="284.7104">getSkipped_checks(): List&lt;String&gt;</text><ellipse cx="285.5" cy="294.3047" fill="#84BE84" rx="3" ry="3" style="stroke: #038048; stroke-width: 1.0;"/><text fill="#000000" font-family="sans-serif" font-size="11" lengthAdjust="spacingAndGlyphs" textLength="219" x="294.5" y="297.5151">setSkipped_checks(List&lt;String&gt;): void</text><ellipse cx="285.5" cy="307.1094" fill="#84BE84" rx="3" ry="3" style="stroke: #038048; stroke-width: 1.0;"/><text fill="#000000" font-family="sans-serif" font-size="11" lengthAdjust="spacingAndGlyphs" textLength="191" x="294.5" y="310.3198">getParsing_errors(): List&lt;String&gt;</text><ellipse cx="285.5" cy="319.9141" fill="#84BE84" rx="3" ry="3" style="stroke: #038048; stroke-width: 1.0;"/><text fill="#000000" font-family="sans-serif" font-size="11" lengthAdjust="spacingAndGlyphs" textLength="214" x="294.5" y="323.1245">setParsing_errors(List&lt;String&gt;): void</text></a><!--MD5=[0de1c28b19c66f18248dce4527ec581d]
class com.hack23.sonar.cloudformation.reports.checkov.CheckovPassedCheck--><a href="CheckovPassedCheck.html" target="_top" title="CheckovPassedCheck.html" xlink:actuate="onRequest" xlink:href="CheckovPassedCheck.html" xlink:show="new" xlink:title="CheckovPassedCheck.html" xlink:type="simple"><rect codeLine="23" fill="#FEFECE" filter="url(#f1cr12usshfqz7)" height="432.1406" id="com.hack23.sonar.cloudformation.reports.checkov.CheckovPassedCheck" style="stroke: #A80036; stroke-width: 1.5;" width="245" x="274.5" y="460"/><ellipse cx="324.75" cy="476" fill="#ADD1B2" rx="11" ry="11" style="stroke: #A80036; stroke-width: 1.0;"/><path d="M327.7188,481.6406 Q327.1406,481.9375 326.5,482.0781 Q325.8594,482.2344 325.1563,482.2344 Q322.6563,482.2344 321.3281,480.5938 Q320.0156,478.9375 320.0156,475.8125 Q320.0156,472.6875 321.3281,471.0313 Q322.6563,469.375 325.1563,469.375 Q325.8594,469.375 326.5,469.5313 Q327.1563,469.6875 327.7188,469.9844 L327.7188,472.7031 Q327.0938,472.125 326.5,471.8594 Q325.9063,471.5781 325.2813,471.5781 Q323.9375,471.5781 323.25,472.6563 Q322.5625,473.7188 322.5625,475.8125 Q322.5625,477.9063 323.25,478.9844 Q323.9375,480.0469 325.2813,480.0469 Q325.9063,480.0469 326.5,479.7813 Q327.0938,479.5 327.7188,478.9219 L327.7188,481.6406 Z "/><text fill="#000000" font-family="sans-serif" font-size="12" lengthAdjust="spacingAndGlyphs" textLength="136" x="345.25" y="480.1543">CheckovPassedCheck</text><line style="stroke: #A80036; stroke-width: 1.5;" x1="275.5" x2="518.5" y1="492" y2="492"/><line style="stroke: #A80036; stroke-width: 1.5;" x1="275.5" x2="518.5" y1="500" y2="500"/><ellipse cx="285.5" cy="511" fill="#84BE84" rx="3" ry="3" style="stroke: #038048; stroke-width: 1.0;"/><text fill="#000000" font-family="sans-serif" font-size="11" lengthAdjust="spacingAndGlyphs" textLength="118" x="294.5" y="514.2104">getCheck_id(): String</text><ellipse cx="285.5" cy="523.8047" fill="#84BE84" rx="3" ry="3" style="stroke: #038048; stroke-width: 1.0;"/><text fill="#000000" font-family="sans-serif" font-size="11" lengthAdjust="spacingAndGlyphs" textLength="141" x="294.5" y="527.0151">setCheck_id(String): void</text><ellipse cx="285.5" cy="536.6094" fill="#84BE84" rx="3" ry="3" style="stroke: #038048; stroke-width: 1.0;"/><text fill="#000000" font-family="sans-serif" font-size="11" lengthAdjust="spacingAndGlyphs" textLength="140" x="294.5" y="539.8198">getCheck_name(): String</text><ellipse cx="285.5" cy="549.4141" fill="#84BE84" rx="3" ry="3" style="stroke: #038048; stroke-width: 1.0;"/><text fill="#000000" font-family="sans-serif" font-size="11" lengthAdjust="spacingAndGlyphs" textLength="163" x="294.5" y="552.6245">setCheck_name(String): void</text><ellipse cx="285.5" cy="562.2188" fill="#84BE84" rx="3" ry="3" style="stroke: #038048; stroke-width: 1.0;"/><text fill="#000000" font-family="sans-serif" font-size="11" lengthAdjust="spacingAndGlyphs" textLength="143" x="294.5" y="565.4292">getCheck_result(): Object</text><ellipse cx="285.5" cy="575.0234" fill="#84BE84" rx="3" ry="3" style="stroke: #038048; stroke-width: 1.0;"/><text fill="#000000" font-family="sans-serif" font-size="11" lengthAdjust="spacingAndGlyphs" textLength="166" x="294.5" y="578.2339">setCheck_result(Object): void</text><ellipse cx="285.5" cy="587.8281" fill="#84BE84" rx="3" ry="3" style="stroke: #038048; stroke-width: 1.0;"/><text fill="#000000" font-family="sans-serif" font-size="11" lengthAdjust="spacingAndGlyphs" textLength="172" x="294.5" y="591.0386">getCode_block(): List&lt;Object&gt;</text><ellipse cx="285.5" cy="600.6328" fill="#84BE84" rx="3" ry="3" style="stroke: #038048; stroke-width: 1.0;"/><text fill="#000000" font-family="sans-serif" font-size="11" lengthAdjust="spacingAndGlyphs" textLength="195" x="294.5" y="603.8433">setCode_block(List&lt;Object&gt;): void</text><ellipse cx="285.5" cy="613.4375" fill="#84BE84" rx="3" ry="3" style="stroke: #038048; stroke-width: 1.0;"/><text fill="#000000" font-family="sans-serif" font-size="11" lengthAdjust="spacingAndGlyphs" textLength="118" x="294.5" y="616.6479">getFile_path(): String</text><ellipse cx="285.5" cy="626.2422" fill="#84BE84" rx="3" ry="3" style="stroke: #038048; stroke-width: 1.0;"/><text fill="#000000" font-family="sans-serif" font-size="11" lengthAdjust="spacingAndGlyphs" textLength="141" x="294.5" y="629.4526">setFile_path(String): void</text><ellipse cx="285.5" cy="639.0469" fill="#84BE84" rx="3" ry="3" style="stroke: #038048; stroke-width: 1.0;"/><text fill="#000000" font-family="sans-serif" font-size="11" lengthAdjust="spacingAndGlyphs" textLength="196" x="294.5" y="642.2573">getFile_line_range(): List&lt;Integer&gt;</text><ellipse cx="285.5" cy="651.8516" fill="#84BE84" rx="3" ry="3" style="stroke: #038048; stroke-width: 1.0;"/><text fill="#000000" font-family="sans-serif" font-size="11" lengthAdjust="spacingAndGlyphs" textLength="219" x="294.5" y="655.062">setFile_line_range(List&lt;Integer&gt;): void</text><ellipse cx="285.5" cy="664.6563" fill="#84BE84" rx="3" ry="3" style="stroke: #038048; stroke-width: 1.0;"/><text fill="#000000" font-family="sans-serif" font-size="11" lengthAdjust="spacingAndGlyphs" textLength="121" x="294.5" y="667.8667">getResource(): String</text><ellipse cx="285.5" cy="677.4609" fill="#84BE84" rx="3" ry="3" style="stroke: #038048; stroke-width: 1.0;"/><text fill="#000000" font-family="sans-serif" font-size="11" lengthAdjust="spacingAndGlyphs" textLength="144" x="294.5" y="680.6714">setResource(String): void</text><ellipse cx="285.5" cy="690.2656" fill="#84BE84" rx="3" ry="3" style="stroke: #038048; stroke-width: 1.0;"/><text fill="#000000" font-family="sans-serif" font-size="11" lengthAdjust="spacingAndGlyphs" textLength="135" x="294.5" y="693.4761">getEvaluations(): Object</text><ellipse cx="285.5" cy="703.0703" fill="#84BE84" rx="3" ry="3" style="stroke: #038048; stroke-width: 1.0;"/><text fill="#000000" font-family="sans-serif" font-size="11" lengthAdjust="spacingAndGlyphs" textLength="158" x="294.5" y="706.2808">setEvaluations(Object): void</text><ellipse cx="285.5" cy="715.875" fill="#84BE84" rx="3" ry="3" style="stroke: #038048; stroke-width: 1.0;"/><text fill="#000000" font-family="sans-serif" font-size="11" lengthAdjust="spacingAndGlyphs" textLength="138" x="294.5" y="719.0854">getCheck_class(): String</text><ellipse cx="285.5" cy="728.6797" fill="#84BE84" rx="3" ry="3" style="stroke: #038048; stroke-width: 1.0;"/><text fill="#000000" font-family="sans-serif" font-size="11" lengthAdjust="spacingAndGlyphs" textLength="161" x="294.5" y="731.8901">setCheck_class(String): void</text><ellipse cx="285.5" cy="741.4844" fill="#84BE84" rx="3" ry="3" style="stroke: #038048; stroke-width: 1.0;"/><text fill="#000000" font-family="sans-serif" font-size="11" lengthAdjust="spacingAndGlyphs" textLength="121" x="294.5" y="744.6948">getGuideline(): String</text><ellipse cx="285.5" cy="754.2891" fill="#84BE84" rx="3" ry="3" style="stroke: #038048; stroke-width: 1.0;"/><text fill="#000000" font-family="sans-serif" font-size="11" lengthAdjust="spacingAndGlyphs" textLength="144" x="294.5" y="757.4995">setGuideline(String): void</text><ellipse cx="285.5" cy="767.0938" fill="#84BE84" rx="3" ry="3" style="stroke: #038048; stroke-width: 1.0;"/><text fill="#000000" font-family="sans-serif" font-size="11" lengthAdjust="spacingAndGlyphs" textLength="150" x="294.5" y="770.3042">getRepo_file_path(): String</text><ellipse cx="285.5" cy="779.8984" fill="#84BE84" rx="3" ry="3" style="stroke: #038048; stroke-width: 1.0;"/><text fill="#000000" font-family="sans-serif" font-size="11" lengthAdjust="spacingAndGlyphs" textLength="173" x="294.5" y="783.1089">setRepo_file_path(String): void</text><ellipse cx="285.5" cy="792.7031" fill="#84BE84" rx="3" ry="3" style="stroke: #038048; stroke-width: 1.0;"/><text fill="#000000" font-family="sans-serif" font-size="11" lengthAdjust="spacingAndGlyphs" textLength="130" x="294.5" y="795.9136">getEntity_tags(): String</text><ellipse cx="285.5" cy="805.5078" fill="#84BE84" rx="3" ry="3" style="stroke: #038048; stroke-width: 1.0;"/><text fill="#000000" font-family="sans-serif" font-size="11" lengthAdjust="spacingAndGlyphs" textLength="153" x="294.5" y="808.7183">setEntity_tags(String): void</text><ellipse cx="285.5" cy="818.3125" fill="#84BE84" rx="3" ry="3" style="stroke: #038048; stroke-width: 1.0;"/><text fill="#000000" font-family="sans-serif" font-size="11" lengthAdjust="spacingAndGlyphs" textLength="155" x="294.5" y="821.5229">getCaller_file_path(): String</text><ellipse cx="285.5" cy="831.1172" fill="#84BE84" rx="3" ry="3" style="stroke: #038048; stroke-width: 1.0;"/><text fill="#000000" font-family="sans-serif" font-size="11" lengthAdjust="spacingAndGlyphs" textLength="178" x="294.5" y="834.3276">setCaller_file_path(String): void</text><ellipse cx="285.5" cy="843.9219" fill="#84BE84" rx="3" ry="3" style="stroke: #038048; stroke-width: 1.0;"/><text fill="#000000" font-family="sans-serif" font-size="11" lengthAdjust="spacingAndGlyphs" textLength="189" x="294.5" y="847.1323">getCaller_file_line_range(): String</text><ellipse cx="285.5" cy="856.7266" fill="#84BE84" rx="3" ry="3" style="stroke: #038048; stroke-width: 1.0;"/><text fill="#000000" font-family="sans-serif" font-size="11" lengthAdjust="spacingAndGlyphs" textLength="212" x="294.5" y="859.937">setCaller_file_line_range(String): void</text><ellipse cx="285.5" cy="869.5313" fill="#84BE84" rx="3" ry="3" style="stroke: #038048; stroke-width: 1.0;"/><text fill="#000000" font-family="sans-serif" font-size="11" lengthAdjust="spacingAndGlyphs" textLength="155" x="294.5" y="872.7417">getFixed_definition(): String</text><ellipse cx="285.5" cy="882.3359" fill="#84BE84" rx="3" ry="3" style="stroke: #038048; stroke-width: 1.0;"/><text fill="#000000" font-family="sans-serif" font-size="11" lengthAdjust="spacingAndGlyphs" textLength="178" x="294.5" y="885.5464">setFixed_definition(String): void</text></a><!--MD5=[0afdf3c3f8fe468c0602aded5fcb1252]
class com.hack23.sonar.cloudformation.reports.checkov.CheckovReport--><a href="CheckovReport.html" target="_top" title="CheckovReport.html" xlink:actuate="onRequest" xlink:href="CheckovReport.html" xlink:show="new" xlink:title="CheckovReport.html" xlink:type="simple"><rect codeLine="56" fill="#FEFECE" filter="url(#f1cr12usshfqz7)" height="73.6094" id="com.hack23.sonar.cloudformation.reports.checkov.CheckovReport" style="stroke: #A80036; stroke-width: 1.5;" width="181" x="135.5" y="41"/><ellipse cx="175.25" cy="57" fill="#ADD1B2" rx="11" ry="11" style="stroke: #A80036; stroke-width: 1.0;"/><path d="M178.2188,62.6406 Q177.6406,62.9375 177,63.0781 Q176.3594,63.2344 175.6563,63.2344 Q173.1563,63.2344 171.8281,61.5938 Q170.5156,59.9375 170.5156,56.8125 Q170.5156,53.6875 171.8281,52.0313 Q173.1563,50.375 175.6563,50.375 Q176.3594,50.375 177,50.5313 Q177.6563,50.6875 178.2188,50.9844 L178.2188,53.7031 Q177.5938,53.125 177,52.8594 Q176.4063,52.5781 175.7813,52.5781 Q174.4375,52.5781 173.75,53.6563 Q173.0625,54.7188 173.0625,56.8125 Q173.0625,58.9063 173.75,59.9844 Q174.4375,61.0469 175.7813,61.0469 Q176.4063,61.0469 177,60.7813 Q177.5938,60.5 178.2188,59.9219 L178.2188,62.6406 Z "/><text fill="#000000" font-family="sans-serif" font-size="12" lengthAdjust="spacingAndGlyphs" textLength="94" x="194.75" y="61.1543">CheckovReport</text><line style="stroke: #A80036; stroke-width: 1.5;" x1="136.5" x2="315.5" y1="73" y2="73"/><line style="stroke: #A80036; stroke-width: 1.5;" x1="136.5" x2="315.5" y1="81" y2="81"/><ellipse cx="146.5" cy="92" fill="#84BE84" rx="3" ry="3" style="stroke: #038048; stroke-width: 1.0;"/><text fill="#000000" font-family="sans-serif" font-size="11" lengthAdjust="spacingAndGlyphs" textLength="132" x="155.5" y="95.2104">getCheck_type(): String</text><ellipse cx="146.5" cy="104.8047" fill="#84BE84" rx="3" ry="3" style="stroke: #038048; stroke-width: 1.0;"/><text fill="#000000" font-family="sans-serif" font-size="11" lengthAdjust="spacingAndGlyphs" textLength="155" x="155.5" y="108.0151">setCheck_type(String): void</text></a><!--MD5=[a7a24f5fb7429f8e4dae50dab90b73af]
link com.hack23.sonar.cloudformation.reports.checkov.CheckovResults to com.hack23.sonar.cloudformation.reports.checkov.CheckovPassedCheck--><path codeLine="61" d="M397,329.71 C397,362.19 397,407.43 397,454.49 " fill="none" id="com.hack23.sonar.cloudformation.reports.checkov.CheckovResults-to-com.hack23.sonar.cloudformation.reports.checkov.CheckovPassedCheck" style="stroke: #A80036; stroke-width: 1.0;"/><polygon fill="#A80036" points="397,459.64,401,450.64,397,454.64,393,450.64,397,459.64" style="stroke: #A80036; stroke-width: 1.0;"/><text fill="#000000" font-family="sans-serif" font-size="13" lengthAdjust="spacingAndGlyphs" textLength="97" x="398" y="411.0669">passed_checks</text><text fill="#000000" font-family="sans-serif" font-size="13" lengthAdjust="spacingAndGlyphs" textLength="85" x="404" y="426.1997">failed_checks</text><text fill="#000000" font-family="sans-serif" font-size="13" lengthAdjust="spacingAndGlyphs" textLength="7" x="389.8742" y="448.6618">*</text><!--MD5=[8d6217af91f0e484a8507768ea5b56d1]
link com.hack23.sonar.cloudformation.reports.checkov.CheckovReport to com.hack23.sonar.cloudformation.reports.checkov.CheckovSummary--><path codeLine="62" d="M209.7,115.22 C200.59,135.46 188.79,161.68 177.31,187.19 " fill="none" id="com.hack23.sonar.cloudformation.reports.checkov.CheckovReport-to-com.hack23.sonar.cloudformation.reports.checkov.CheckovSummary" style="stroke: #A80036; stroke-width: 1.0;"/><polygon fill="#A80036" points="175.18,191.94,182.5115,185.3636,177.2253,187.3775,175.2115,182.0912,175.18,191.94" style="stroke: #A80036; stroke-width: 1.0;"/><text fill="#000000" font-family="sans-serif" font-size="13" lengthAdjust="spacingAndGlyphs" textLength="61" x="195" y="158.0669">summary</text><!--MD5=[d4a11ab686159495f89bce84b47e3036]
link com.hack23.sonar.cloudformation.reports.checkov.CheckovReport to com.hack23.sonar.cloudformation.reports.checkov.CheckovResults--><path codeLine="63" d="M256.97,115.22 C283.42,146.16 321.82,191.07 351.72,226.04 " fill="none" id="com.hack23.sonar.cloudformation.reports.checkov.CheckovReport-to-com.hack23.sonar.cloudformation.reports.checkov.CheckovResults" style="stroke: #A80036; stroke-width: 1.0;"/><polygon fill="#A80036" points="355.32,230.26,352.5379,220.8123,352.0813,226.4507,346.4429,225.9941,355.32,230.26" style="stroke: #A80036; stroke-width: 1.0;"/><text fill="#000000" font-family="sans-serif" font-size="13" lengthAdjust="spacingAndGlyphs" textLength="43" x="297" y="158.0669">results</text><text fill="#888888" font-family="sans-serif" font-size="10" lengthAdjust="spacingAndGlyphs" textLength="192" x="174" y="923.2822">UMLDoclet 2.0.12, PlantUML 1.2020.16</text><!--MD5=[1d35b61797e2e28e4731bb4e5620805e]
@startuml
    namespace com.hack23.sonar.cloudformation.reports.checkov {

        class CheckovSummary [[CheckovSummary.html]] {
            +getPassed(): int
            +setPassed(int): void
            +getFailed(): int
            +setFailed(int): void
            +getSkipped(): int
            +setSkipped(int): void
            +getParsingErrors(): int
            +setParsingErrors(int): void
            +getCheckovVersion(): String
            +setCheckovVersion(String): void
        }

        class CheckovResults [[CheckovResults.html]] {
            +getSkipped_checks(): List<String>
            +setSkipped_checks(List<String>): void
            +getParsing_errors(): List<String>
            +setParsing_errors(List<String>): void
        }

        class CheckovPassedCheck [[CheckovPassedCheck.html]] {
            +getCheck_id(): String
            +setCheck_id(String): void
            +getCheck_name(): String
            +setCheck_name(String): void
            +getCheck_result(): Object
            +setCheck_result(Object): void
            +getCode_block(): List<Object>
            +setCode_block(List<Object>): void
            +getFile_path(): String
            +setFile_path(String): void
            +getFile_line_range(): List<Integer>
            +setFile_line_range(List<Integer>): void
            +getResource(): String
            +setResource(String): void
            +getEvaluations(): Object
            +setEvaluations(Object): void
            +getCheck_class(): String
            +setCheck_class(String): void
            +getGuideline(): String
            +setGuideline(String): void
            +getRepo_file_path(): String
            +setRepo_file_path(String): void
            +getEntity_tags(): String
            +setEntity_tags(String): void
            +getCaller_file_path(): String
            +setCaller_file_path(String): void
            +getCaller_file_line_range(): String
            +setCaller_file_line_range(String): void
            +getFixed_definition(): String
            +setFixed_definition(String): void
        }

        class CheckovReport [[CheckovReport.html]] {
            +getCheck_type(): String
            +setCheck_type(String): void
        }

        CheckovResults - -> "*" CheckovPassedCheck: passed_checks\nfailed_checks
        CheckovReport - -> CheckovSummary: summary
        CheckovReport - -> CheckovResults: results
    }

    center footer UMLDoclet 2.0.12, PlantUML 1.2020.16
@enduml

PlantUML version 1.2020.16(Sun Aug 23 22:20:43 CEST 2020)
(APACHE source distribution)
Java Runtime: OpenJDK Runtime Environment
JVM: OpenJDK 64-Bit Server VM
Default Encoding: UTF-8
Language: en
Country: US
--></g></svg>