<?xml version="1.0" encoding="UTF-8" standalone="no"?><svg xmlns="http://www.w3.org/2000/svg" xmlns:xlink="http://www.w3.org/1999/xlink" contentScriptType="application/ecmascript" contentStyleType="text/css" height="95px" preserveAspectRatio="none" style="width:345px;height:95px;" version="1.1" viewBox="0 0 345 95" width="345px" zoomAndPan="magnify"><defs><filter height="300%" id="f21qbgosirduv" width="300%" x="-1" y="-1"><feGaussianBlur result="blurOut" stdDeviation="2.0"/><feColorMatrix in="blurOut" result="blurOut2" type="matrix" values="0 0 0 0 0 0 0 0 0 0 0 0 0 0 0 0 0 0 .4 0"/><feOffset dx="4.0" dy="4.0" in="blurOut2" result="blurOut3"/><feBlend in="SourceGraphic" in2="blurOut3" mode="normal"/></filter></defs><g><!--MD5=[400becff9e3e56c6aad437c7c6a5ee62]
class com.hack23.sonar.cloudformation.parser.cfnnag.CfnNagScanReportReader--><a href="CfnNagScanReportReader.html" target="_top" title="CfnNagScanReportReader.html" xlink:actuate="onRequest" xlink:href="CfnNagScanReportReader.html" xlink:show="new" xlink:title="CfnNagScanReportReader.html" xlink:type="simple"><rect codeLine="5" fill="#FEFECE" filter="url(#f21qbgosirduv)" height="58.7422" id="com.hack23.sonar.cloudformation.parser.cfnnag.CfnNagScanReportReader" style="stroke: #A80036; stroke-width: 1.5;" width="319" x="7" y="7"/><ellipse cx="45.85" cy="25.9688" fill="#ADD1B2" rx="11" ry="11" style="stroke: #A80036; stroke-width: 1.0;"/><path d="M48.8188,31.6094 Q48.2406,31.9063 47.6,32.0469 Q46.9594,32.2031 46.2563,32.2031 Q43.7563,32.2031 42.4281,30.5625 Q41.1156,28.9063 41.1156,25.7813 Q41.1156,22.6563 42.4281,21 Q43.7563,19.3438 46.2563,19.3438 Q46.9594,19.3438 47.6,19.5 Q48.2563,19.6563 48.8188,19.9531 L48.8188,22.6719 Q48.1938,22.0938 47.6,21.8281 Q47.0063,21.5469 46.3813,21.5469 Q45.0375,21.5469 44.35,22.625 Q43.6625,23.6875 43.6625,25.7813 Q43.6625,27.875 44.35,28.9531 Q45.0375,30.0156 46.3813,30.0156 Q47.0063,30.0156 47.6,29.75 Q48.1938,29.4688 48.8188,28.8906 L48.8188,31.6094 Z "/><text fill="#000000" font-family="sans-serif" font-size="14" lengthAdjust="spacingAndGlyphs" textLength="181" x="91.65" y="24.9951">CfnNagScanReportReader</text><text fill="#000000" font-family="sans-serif" font-size="10" lengthAdjust="spacingAndGlyphs" textLength="234" x="65.15" y="37.5791">com.hack23.sonar.cloudformation.parser.cfnnag</text><line style="stroke: #A80036; stroke-width: 1.5;" x1="8" x2="325" y1="44.9375" y2="44.9375"/><ellipse cx="18" cy="55.9375" fill="#84BE84" rx="3" ry="3" style="stroke: #038048; stroke-width: 1.0;"/><text fill="#000000" font-family="sans-serif" font-size="11" lengthAdjust="spacingAndGlyphs" textLength="293" x="27" y="59.1479">readReport(InputStream): List&lt;CfnNagScanReport&gt;</text></a><text fill="#888888" font-family="sans-serif" font-size="10" lengthAdjust="spacingAndGlyphs" textLength="192" x="70.5" y="82.0244">UMLDoclet 2.0.12, PlantUML 1.2020.16</text><!--MD5=[f8137db0f58b80c7ba689f67668847fa]
@startuml
    set namespaceSeparator none
    hide empty fields
    hide empty methods

    class "<size:14>CfnNagScanReportReader\n<size:10>com.hack23.sonar.cloudformation.parser.cfnnag" as com.hack23.sonar.cloudformation.parser.cfnnag.CfnNagScanReportReader [[CfnNagScanReportReader.html]] {
        +readReport(InputStream): List<CfnNagScanReport>
    }

    center footer UMLDoclet 2.0.12, PlantUML 1.2020.16
@enduml

PlantUML version 1.2020.16(Sun Aug 23 22:20:43 CEST 2020)
(APACHE source distribution)
Java Runtime: OpenJDK Runtime Environment
JVM: OpenJDK 64-Bit Server VM
Default Encoding: UTF-8
Language: en
Country: US
--></g></svg>