<?xml version="1.0" encoding="UTF-8" standalone="no"?><svg xmlns="http://www.w3.org/2000/svg" xmlns:xlink="http://www.w3.org/1999/xlink" contentStyleType="text/css" height="95px" preserveAspectRatio="none" style="width:406px;height:95px;background:#FFFFFF;" version="1.1" viewBox="0 0 406 95" width="406px" zoomAndPan="magnify"><defs/><g><!--MD5=[0479e7f61d508b19cacba66f3c056b1f]
class com.hack23.sonar.cloudformation.reports.process.CfnNagScanReportReader--><a href="CfnNagScanReportReader.html" target="_top" title="CfnNagScanReportReader.html" xlink:actuate="onRequest" xlink:href="CfnNagScanReportReader.html" xlink:show="new" xlink:title="CfnNagScanReportReader.html" xlink:type="simple"><g id="elem_com.hack23.sonar.cloudformation.reports.process.CfnNagScanReportReader"><rect codeLine="5" fill="#F1F1F1" height="62.2344" id="com.hack23.sonar.cloudformation.reports.process.CfnNagScanReportReader" rx="2.5" ry="2.5" style="stroke:#181818;stroke-width:0.5;" width="385" x="7" y="7"/><ellipse cx="74.25" cy="25.9688" fill="#ADD1B2" rx="11" ry="11" style="stroke:#181818;stroke-width:1.0;"/><path d="M77.2188,31.6094 Q76.6406,31.9063 76,32.0469 Q75.3594,32.2031 74.6563,32.2031 Q72.1563,32.2031 70.8281,30.5625 Q69.5156,28.9063 69.5156,25.7813 Q69.5156,22.6563 70.8281,21 Q72.1563,19.3438 74.6563,19.3438 Q75.3594,19.3438 76,19.5 Q76.6563,19.6563 77.2188,19.9531 L77.2188,22.6719 Q76.5938,22.0938 76,21.8281 Q75.4063,21.5469 74.7813,21.5469 Q73.4375,21.5469 72.75,22.625 Q72.0625,23.6875 72.0625,25.7813 Q72.0625,27.875 72.75,28.9531 Q73.4375,30.0156 74.7813,30.0156 Q75.4063,30.0156 76,29.75 Q76.5938,29.4688 77.2188,28.8906 L77.2188,31.6094 Z " fill="#000000"/><text fill="#000000" font-family="sans-serif" font-size="14" lengthAdjust="spacing" textLength="181" x="125.25" y="24.9951">CfnNagScanReportReader</text><text fill="#000000" font-family="sans-serif" font-size="10" lengthAdjust="spacing" textLength="242" x="94.75" y="37.5791">com.hack23.sonar.cloudformation.reports.process</text><line style="stroke:#181818;stroke-width:0.5;" x1="8" x2="391" y1="44.9375" y2="44.9375"/><ellipse cx="18" cy="55.9375" fill="#84BE84" rx="3" ry="3" style="stroke:#038048;stroke-width:1.0;"/><text fill="#000000" font-family="sans-serif" font-size="14" lengthAdjust="spacing" textLength="359" x="27" y="61.9326">readReport(InputStream): List&lt;CfnNagScanReport&gt;</text></g></a><rect height="11.6406" style="stroke:#00000000;stroke-width:1.0;fill:none;" width="186" x="106" y="76.2344"/><text fill="#888888" font-family="sans-serif" font-size="10" lengthAdjust="spacing" textLength="186" x="106" y="85.5166">UMLDoclet 2.0.18, PlantUML 1.2022.6</text><!--MD5=[c8e606182429540a5e158ca4223b49bc]
@startuml
    set namespaceSeparator none
    hide empty fields
    hide empty methods

    class "<size:14>CfnNagScanReportReader\n<size:10>com.hack23.sonar.cloudformation.reports.process" as com.hack23.sonar.cloudformation.reports.process.CfnNagScanReportReader [[CfnNagScanReportReader.html]] {
        +readReport(InputStream): List<CfnNagScanReport>
    }

    center footer UMLDoclet 2.0.18, PlantUML 1.2022.6
@enduml

PlantUML version 1.2022.6(Tue Jun 21 19:34:49 CEST 2022)
(APACHE source distribution)
Java Runtime: OpenJDK Runtime Environment
JVM: OpenJDK 64-Bit Server VM
Default Encoding: ANSI_X3.4-1968
Language: en
Country: US
--></g></svg>