<?xml version="1.0" encoding="UTF-8" standalone="no"?><svg xmlns="http://www.w3.org/2000/svg" xmlns:xlink="http://www.w3.org/1999/xlink" contentScriptType="application/ecmascript" contentStyleType="text/css" height="136px" preserveAspectRatio="none" style="width:401px;height:136px;background:#FFFFFF;" version="1.1" viewBox="0 0 401 136" width="401px" zoomAndPan="magnify"><defs><filter height="300%" id="f15ork9kv9wxzm" width="300%" x="-1" y="-1"><feGaussianBlur result="blurOut" stdDeviation="2.0"/><feColorMatrix in="blurOut" result="blurOut2" type="matrix" values="0 0 0 0 0 0 0 0 0 0 0 0 0 0 0 0 0 0 .4 0"/><feOffset dx="4.0" dy="4.0" in="blurOut2" result="blurOut3"/><feBlend in="SourceGraphic" in2="blurOut3" mode="normal"/></filter></defs><g><!--MD5=[3d1a7a2726d9f9a04e578c8ec79fdc9c]
class com.hack23.sonar.cloudformation.reports.process.CfnNagProcessReports--><a href="CfnNagProcessReports.html" target="_top" title="CfnNagProcessReports.html" xlink:actuate="onRequest" xlink:href="CfnNagProcessReports.html" xlink:show="new" xlink:title="CfnNagProcessReports.html" xlink:type="simple"><rect codeLine="5" fill="#FEFECE" filter="url(#f15ork9kv9wxzm)" height="105.1563" id="com.hack23.sonar.cloudformation.reports.process.CfnNagProcessReports" style="stroke:#A80036;stroke-width:1.5;" width="380" x="7" y="7"/><ellipse cx="71.75" cy="25.9688" fill="#ADD1B2" rx="11" ry="11" style="stroke:#A80036;stroke-width:1.0;"/><path d="M74.7188,31.6094 Q74.1406,31.9063 73.5,32.0469 Q72.8594,32.2031 72.1563,32.2031 Q69.6563,32.2031 68.3281,30.5625 Q67.0156,28.9063 67.0156,25.7813 Q67.0156,22.6563 68.3281,21 Q69.6563,19.3438 72.1563,19.3438 Q72.8594,19.3438 73.5,19.5 Q74.1563,19.6563 74.7188,19.9531 L74.7188,22.6719 Q74.0938,22.0938 73.5,21.8281 Q72.9063,21.5469 72.2813,21.5469 Q70.9375,21.5469 70.25,22.625 Q69.5625,23.6875 69.5625,25.7813 Q69.5625,27.875 70.25,28.9531 Q70.9375,30.0156 72.2813,30.0156 Q72.9063,30.0156 73.5,29.75 Q74.0938,29.4688 74.7188,28.8906 L74.7188,31.6094 Z " fill="#000000"/><text fill="#000000" font-family="sans-serif" font-size="14" lengthAdjust="spacing" textLength="161" x="132.75" y="24.9951">CfnNagProcessReports</text><text fill="#000000" font-family="sans-serif" font-size="10" lengthAdjust="spacing" textLength="242" x="92.25" y="37.5791">com.hack23.sonar.cloudformation.reports.process</text><line style="stroke:#A80036;stroke-width:1.5;" x1="8" x2="386" y1="44.9375" y2="44.9375"/><ellipse cx="18" cy="55.9375" rx="3" ry="3" style="stroke:#038048;stroke-width:1.0;fill:none;"/><text fill="#000000" font-family="sans-serif" font-size="11" lengthAdjust="spacing" text-decoration="underline" textLength="155" x="27" y="59.1479">UNDEFINED_FAILURE: String</text><ellipse cx="18" cy="68.7422" rx="3" ry="3" style="stroke:#038048;stroke-width:1.0;fill:none;"/><text fill="#000000" font-family="sans-serif" font-size="11" lengthAdjust="spacing" text-decoration="underline" textLength="162" x="27" y="71.9526">UNDEFINED_WARNING: String</text><line style="stroke:#A80036;stroke-width:1.5;" x1="8" x2="386" y1="78.5469" y2="78.5469"/><ellipse cx="18" cy="89.5469" fill="#84BE84" rx="3" ry="3" style="stroke:#038048;stroke-width:1.0;"/><text fill="#000000" font-family="sans-serif" font-size="11" lengthAdjust="spacing" textLength="283" x="27" y="92.7573">CfnNagProcessReports(FileSystem, PathResolver)</text><ellipse cx="18" cy="102.3516" fill="#84BE84" rx="3" ry="3" style="stroke:#038048;stroke-width:1.0;"/><text fill="#000000" font-family="sans-serif" font-size="11" lengthAdjust="spacing" textLength="354" x="27" y="105.562">processCfnNagReport(SensorContext, Optional&lt;String&gt;): void</text></a><text fill="#888888" font-family="sans-serif" font-size="10" lengthAdjust="spacing" textLength="186" x="104" y="128.4385">UMLDoclet 2.0.14, PlantUML 1.2021.9</text><!--MD5=[0c17d73f08ebc813ce4e5af6863f5ee0]
@startuml
    set namespaceSeparator none
    hide empty fields
    hide empty methods

    class "<size:14>CfnNagProcessReports\n<size:10>com.hack23.sonar.cloudformation.reports.process" as com.hack23.sonar.cloudformation.reports.process.CfnNagProcessReports [[CfnNagProcessReports.html]] {
        {static} +UNDEFINED_FAILURE: String
        {static} +UNDEFINED_WARNING: String
        +CfnNagProcessReports(FileSystem, PathResolver)
        +processCfnNagReport(SensorContext, Optional<String>): void
    }

    center footer UMLDoclet 2.0.14, PlantUML 1.2021.9
@enduml

PlantUML version 1.2021.9(Sun Jul 25 12:13:56 CEST 2021)
(APACHE source distribution)
Java Runtime: OpenJDK Runtime Environment
JVM: OpenJDK 64-Bit Server VM
Default Encoding: UTF-8
Language: en
Country: US
--></g></svg>