<?xml version="1.0" encoding="UTF-8" standalone="no"?><svg xmlns="http://www.w3.org/2000/svg" xmlns:xlink="http://www.w3.org/1999/xlink" contentScriptType="application/ecmascript" contentStyleType="text/css" height="124px" preserveAspectRatio="none" style="width:407px;height:124px;background:#FFFFFF;" version="1.1" viewBox="0 0 407 124" width="407px" zoomAndPan="magnify"><defs><filter height="300%" id="f3mmyxd115jfv" width="300%" x="-1" y="-1"><feGaussianBlur result="blurOut" stdDeviation="2.0"/><feColorMatrix in="blurOut" result="blurOut2" type="matrix" values="0 0 0 0 0 0 0 0 0 0 0 0 0 0 0 0 0 0 .4 0"/><feOffset dx="4.0" dy="4.0" in="blurOut2" result="blurOut3"/><feBlend in="SourceGraphic" in2="blurOut3" mode="normal"/></filter></defs><g><!--MD5=[45c1dedf81ee90160d834a7bcce62b99]
class com.hack23.sonar.cloudformation.reports.process.CheckovProcessReports--><a href="CheckovProcessReports.html" target="_top" title="CheckovProcessReports.html" xlink:actuate="onRequest" xlink:href="CheckovProcessReports.html" xlink:show="new" xlink:title="CheckovProcessReports.html" xlink:type="simple"><rect codeLine="5" fill="#FEFECE" filter="url(#f3mmyxd115jfv)" height="92.3516" id="com.hack23.sonar.cloudformation.reports.process.CheckovProcessReports" style="stroke:#A80036;stroke-width:1.5;" width="386" x="7" y="7"/><ellipse cx="74.75" cy="25.9688" fill="#ADD1B2" rx="11" ry="11" style="stroke:#A80036;stroke-width:1.0;"/><path d="M77.7188,31.6094 Q77.1406,31.9063 76.5,32.0469 Q75.8594,32.2031 75.1563,32.2031 Q72.6563,32.2031 71.3281,30.5625 Q70.0156,28.9063 70.0156,25.7813 Q70.0156,22.6563 71.3281,21 Q72.6563,19.3438 75.1563,19.3438 Q75.8594,19.3438 76.5,19.5 Q77.1563,19.6563 77.7188,19.9531 L77.7188,22.6719 Q77.0938,22.0938 76.5,21.8281 Q75.9063,21.5469 75.2813,21.5469 Q73.9375,21.5469 73.25,22.625 Q72.5625,23.6875 72.5625,25.7813 Q72.5625,27.875 73.25,28.9531 Q73.9375,30.0156 75.2813,30.0156 Q75.9063,30.0156 76.5,29.75 Q77.0938,29.4688 77.7188,28.8906 L77.7188,31.6094 Z " fill="#000000"/><text fill="#000000" font-family="sans-serif" font-size="14" lengthAdjust="spacing" textLength="171" x="130.75" y="24.9951">CheckovProcessReports</text><text fill="#000000" font-family="sans-serif" font-size="10" lengthAdjust="spacing" textLength="242" x="95.25" y="37.5791">com.hack23.sonar.cloudformation.reports.process</text><line style="stroke:#A80036;stroke-width:1.5;" x1="8" x2="392" y1="44.9375" y2="44.9375"/><ellipse cx="18" cy="55.9375" rx="3" ry="3" style="stroke:#038048;stroke-width:1.0;fill:none;"/><text fill="#000000" font-family="sans-serif" font-size="11" lengthAdjust="spacing" text-decoration="underline" textLength="126" x="27" y="59.1479">SENSOR_NAME: String</text><line style="stroke:#A80036;stroke-width:1.5;" x1="8" x2="392" y1="65.7422" y2="65.7422"/><ellipse cx="18" cy="76.7422" fill="#84BE84" rx="3" ry="3" style="stroke:#038048;stroke-width:1.0;"/><text fill="#000000" font-family="sans-serif" font-size="11" lengthAdjust="spacing" textLength="289" x="27" y="79.9526">CheckovProcessReports(FileSystem, PathResolver)</text><ellipse cx="18" cy="89.5469" fill="#84BE84" rx="3" ry="3" style="stroke:#038048;stroke-width:1.0;"/><text fill="#000000" font-family="sans-serif" font-size="11" lengthAdjust="spacing" textLength="360" x="27" y="92.7573">processCheckovReport(SensorContext, Optional&lt;String&gt;): void</text></a><text fill="#888888" font-family="sans-serif" font-size="10" lengthAdjust="spacing" textLength="192" x="104" y="115.6338">UMLDoclet 2.0.15, PlantUML 1.2021.13</text><!--MD5=[d9120e6625adb7f9f5e4491e265bc2f1]
@startuml
    set namespaceSeparator none
    hide empty fields
    hide empty methods

    class "<size:14>CheckovProcessReports\n<size:10>com.hack23.sonar.cloudformation.reports.process" as com.hack23.sonar.cloudformation.reports.process.CheckovProcessReports [[CheckovProcessReports.html]] {
        {static} +SENSOR_NAME: String
        +CheckovProcessReports(FileSystem, PathResolver)
        +processCheckovReport(SensorContext, Optional<String>): void
    }

    center footer UMLDoclet 2.0.15, PlantUML 1.2021.13
@enduml

PlantUML version 1.2021.13(Mon Nov 01 12:38:45 CET 2021)
(APACHE source distribution)
Java Runtime: OpenJDK Runtime Environment
JVM: OpenJDK 64-Bit Server VM
Default Encoding: UTF-8
Language: en
Country: US
--></g></svg>