<?xml version="1.0" encoding="UTF-8" standalone="no"?><svg xmlns="http://www.w3.org/2000/svg" xmlns:xlink="http://www.w3.org/1999/xlink" contentScriptType="application/ecmascript" contentStyleType="text/css" height="90px" preserveAspectRatio="none" style="width:318px;height:90px;background:#FFFFFF;" version="1.1" viewBox="0 0 318 90" width="318px" zoomAndPan="magnify"><defs><filter height="300%" id="fidirvd9l9mq4" width="300%" x="-1" y="-1"><feGaussianBlur result="blurOut" stdDeviation="2.0"/><feColorMatrix in="blurOut" result="blurOut2" type="matrix" values="0 0 0 0 0 0 0 0 0 0 0 0 0 0 0 0 0 0 .4 0"/><feOffset dx="4.0" dy="4.0" in="blurOut2" result="blurOut3"/><feBlend in="SourceGraphic" in2="blurOut3" mode="normal"/></filter></defs><g><!--MD5=[a65cfdafc6cf56b2b337cf42dc5bcb7d]
class com.hack23.sonar.cloudformation.reports.process.CheckovReportReader--><a href="CheckovReportReader.html" target="_top" title="CheckovReportReader.html" xlink:actuate="onRequest" xlink:href="CheckovReportReader.html" xlink:show="new" xlink:title="CheckovReportReader.html" xlink:type="simple"><rect codeLine="5" fill="#FEFECE" filter="url(#fidirvd9l9mq4)" height="58.7422" id="com.hack23.sonar.cloudformation.reports.process.CheckovReportReader" style="stroke:#A80036;stroke-width:1.5;" width="297" x="7" y="7"/><ellipse cx="32.35" cy="25.9688" fill="#ADD1B2" rx="11" ry="11" style="stroke:#A80036;stroke-width:1.0;"/><path d="M35.3188,31.6094 Q34.7406,31.9063 34.1,32.0469 Q33.4594,32.2031 32.7563,32.2031 Q30.2563,32.2031 28.9281,30.5625 Q27.6156,28.9063 27.6156,25.7813 Q27.6156,22.6563 28.9281,21 Q30.2563,19.3438 32.7563,19.3438 Q33.4594,19.3438 34.1,19.5 Q34.7563,19.6563 35.3188,19.9531 L35.3188,22.6719 Q34.6938,22.0938 34.1,21.8281 Q33.5063,21.5469 32.8813,21.5469 Q31.5375,21.5469 30.85,22.625 Q30.1625,23.6875 30.1625,25.7813 Q30.1625,27.875 30.85,28.9531 Q31.5375,30.0156 32.8813,30.0156 Q33.5063,30.0156 34.1,29.75 Q34.6938,29.4688 35.3188,28.8906 L35.3188,31.6094 Z " fill="#000000"/><text fill="#000000" font-family="sans-serif" font-size="14" lengthAdjust="spacing" textLength="157" x="91.15" y="24.9951">CheckovReportReader</text><text fill="#000000" font-family="sans-serif" font-size="10" lengthAdjust="spacing" textLength="242" x="48.65" y="37.5791">com.hack23.sonar.cloudformation.reports.process</text><line style="stroke:#A80036;stroke-width:1.5;" x1="8" x2="303" y1="44.9375" y2="44.9375"/><ellipse cx="18" cy="55.9375" fill="#84BE84" rx="3" ry="3" style="stroke:#038048;stroke-width:1.0;"/><text fill="#000000" font-family="sans-serif" font-size="11" lengthAdjust="spacing" textLength="271" x="27" y="59.1479">readReport(InputStream): List&lt;CheckovReport&gt;</text></a><text fill="#888888" font-family="sans-serif" font-size="10" lengthAdjust="spacing" textLength="192" x="59.5" y="82.0244">UMLDoclet 2.0.15, PlantUML 1.2021.13</text><!--MD5=[fc2aa300a6a51456d82b527f5223c9fe]
@startuml
    set namespaceSeparator none
    hide empty fields
    hide empty methods

    class "<size:14>CheckovReportReader\n<size:10>com.hack23.sonar.cloudformation.reports.process" as com.hack23.sonar.cloudformation.reports.process.CheckovReportReader [[CheckovReportReader.html]] {
        +readReport(InputStream): List<CheckovReport>
    }

    center footer UMLDoclet 2.0.15, PlantUML 1.2021.13
@enduml

PlantUML version 1.2021.13(Mon Nov 01 12:38:45 CET 2021)
(APACHE source distribution)
Java Runtime: OpenJDK Runtime Environment
JVM: OpenJDK 64-Bit Server VM
Default Encoding: UTF-8
Language: en
Country: US
--></g></svg>