<?xml version="1.0" encoding="UTF-8" standalone="no"?><svg xmlns="http://www.w3.org/2000/svg" xmlns:xlink="http://www.w3.org/1999/xlink" contentStyleType="text/css" height="136px" preserveAspectRatio="none" style="width:489px;height:136px;background:#FFFFFF;" version="1.1" viewBox="0 0 489 136" width="489px" zoomAndPan="magnify"><defs/><g><!--MD5=[45c1dedf81ee90160d834a7bcce62b99]
class com.hack23.sonar.cloudformation.reports.process.CheckovProcessReports--><a href="CheckovProcessReports.html" target="_top" title="CheckovProcessReports.html" xlink:actuate="onRequest" xlink:href="CheckovProcessReports.html" xlink:show="new" xlink:title="CheckovProcessReports.html" xlink:type="simple"><g id="elem_com.hack23.sonar.cloudformation.reports.process.CheckovProcessReports"><rect codeLine="5" fill="#F1F1F1" height="102.8281" id="com.hack23.sonar.cloudformation.reports.process.CheckovProcessReports" rx="2.5" ry="2.5" style="stroke:#181818;stroke-width:0.5;" width="468" x="7" y="7"/><ellipse cx="115.75" cy="25.9688" fill="#ADD1B2" rx="11" ry="11" style="stroke:#181818;stroke-width:1.0;"/><path d="M118.7188,31.6094 Q118.1406,31.9063 117.5,32.0469 Q116.8594,32.2031 116.1563,32.2031 Q113.6563,32.2031 112.3281,30.5625 Q111.0156,28.9063 111.0156,25.7813 Q111.0156,22.6563 112.3281,21 Q113.6563,19.3438 116.1563,19.3438 Q116.8594,19.3438 117.5,19.5 Q118.1563,19.6563 118.7188,19.9531 L118.7188,22.6719 Q118.0938,22.0938 117.5,21.8281 Q116.9063,21.5469 116.2813,21.5469 Q114.9375,21.5469 114.25,22.625 Q113.5625,23.6875 113.5625,25.7813 Q113.5625,27.875 114.25,28.9531 Q114.9375,30.0156 116.2813,30.0156 Q116.9063,30.0156 117.5,29.75 Q118.0938,29.4688 118.7188,28.8906 L118.7188,31.6094 Z " fill="#000000"/><text fill="#000000" font-family="sans-serif" font-size="14" lengthAdjust="spacing" textLength="171" x="171.75" y="24.9951">CheckovProcessReports</text><text fill="#000000" font-family="sans-serif" font-size="10" lengthAdjust="spacing" textLength="242" x="136.25" y="37.5791">com.hack23.sonar.cloudformation.reports.process</text><line style="stroke:#181818;stroke-width:0.5;" x1="8" x2="474" y1="44.9375" y2="44.9375"/><ellipse cx="18" cy="55.9375" fill="none" rx="3" ry="3" style="stroke:#038048;stroke-width:1.0;"/><text fill="#000000" font-family="sans-serif" font-size="14" lengthAdjust="spacing" text-decoration="underline" textLength="154" x="27" y="61.9326">SENSOR_NAME: String</text><line style="stroke:#181818;stroke-width:0.5;" x1="8" x2="474" y1="69.2344" y2="69.2344"/><ellipse cx="18" cy="80.2344" fill="#84BE84" rx="3" ry="3" style="stroke:#038048;stroke-width:1.0;"/><text fill="#000000" font-family="sans-serif" font-size="14" lengthAdjust="spacing" textLength="354" x="27" y="86.2295">CheckovProcessReports(FileSystem, PathResolver)</text><ellipse cx="18" cy="96.5313" fill="#84BE84" rx="3" ry="3" style="stroke:#038048;stroke-width:1.0;"/><text fill="#000000" font-family="sans-serif" font-size="14" lengthAdjust="spacing" textLength="442" x="27" y="102.5264">processCheckovReport(SensorContext, Optional&lt;String&gt;): void</text></g></a><rect height="11.6406" style="stroke:#00000000;stroke-width:1.0;fill:none;" width="186" x="147.5" y="116.8281"/><text fill="#888888" font-family="sans-serif" font-size="10" lengthAdjust="spacing" textLength="186" x="147.5" y="126.1104">UMLDoclet 2.0.18, PlantUML 1.2022.6</text><!--MD5=[5774e94eb6743cb1a0bf97f2833cdab0]
@startuml
    set namespaceSeparator none
    hide empty fields
    hide empty methods

    class "<size:14>CheckovProcessReports\n<size:10>com.hack23.sonar.cloudformation.reports.process" as com.hack23.sonar.cloudformation.reports.process.CheckovProcessReports [[CheckovProcessReports.html]] {
        {static} +SENSOR_NAME: String
        +CheckovProcessReports(FileSystem, PathResolver)
        +processCheckovReport(SensorContext, Optional<String>): void
    }

    center footer UMLDoclet 2.0.18, PlantUML 1.2022.6
@enduml

PlantUML version 1.2022.6(Tue Jun 21 19:34:49 CEST 2022)
(APACHE source distribution)
Java Runtime: OpenJDK Runtime Environment
JVM: OpenJDK 64-Bit Server VM
Default Encoding: ANSI_X3.4-1968
Language: en
Country: US
--></g></svg>