<?xml version="1.0" encoding="UTF-8" standalone="no"?><svg xmlns="http://www.w3.org/2000/svg" xmlns:xlink="http://www.w3.org/1999/xlink" contentStyleType="text/css" height="112px" preserveAspectRatio="none" style="width:355px;height:112px;background:#FFFFFF;" version="1.1" viewBox="0 0 355 112" width="355px" zoomAndPan="magnify"><defs/><g><!--MD5=[17a1a0dba3edaff8452ecb35974a1b72]
class com.hack23.sonar.cloudformation.reports.process.CloudformationConstants--><a href="CloudformationConstants.html" target="_top" title="CloudformationConstants.html" xlink:actuate="onRequest" xlink:href="CloudformationConstants.html" xlink:show="new" xlink:title="CloudformationConstants.html" xlink:type="simple"><g id="elem_com.hack23.sonar.cloudformation.reports.process.CloudformationConstants"><rect codeLine="5" fill="#F1F1F1" height="78.5313" id="com.hack23.sonar.cloudformation.reports.process.CloudformationConstants" rx="2.5" ry="2.5" style="stroke:#181818;stroke-width:0.5;" width="334" x="7" y="7"/><ellipse cx="49" cy="25.9688" fill="#ADD1B2" rx="11" ry="11" style="stroke:#181818;stroke-width:1.0;"/><path d="M51.9688,31.6094 Q51.3906,31.9063 50.75,32.0469 Q50.1094,32.2031 49.4063,32.2031 Q46.9063,32.2031 45.5781,30.5625 Q44.2656,28.9063 44.2656,25.7813 Q44.2656,22.6563 45.5781,21 Q46.9063,19.3438 49.4063,19.3438 Q50.1094,19.3438 50.75,19.5 Q51.4063,19.6563 51.9688,19.9531 L51.9688,22.6719 Q51.3438,22.0938 50.75,21.8281 Q50.1563,21.5469 49.5313,21.5469 Q48.1875,21.5469 47.5,22.625 Q46.8125,23.6875 46.8125,25.7813 Q46.8125,27.875 47.5,28.9531 Q48.1875,30.0156 49.5313,30.0156 Q50.1563,30.0156 50.75,29.75 Q51.3438,29.4688 51.9688,28.8906 L51.9688,31.6094 Z " fill="#000000"/><text fill="#000000" font-family="sans-serif" font-size="14" lengthAdjust="spacing" textLength="176" x="102" y="24.9951">CloudformationConstants</text><text fill="#000000" font-family="sans-serif" font-size="10" lengthAdjust="spacing" textLength="242" x="69" y="37.5791">com.hack23.sonar.cloudformation.reports.process</text><line style="stroke:#181818;stroke-width:0.5;" x1="8" x2="340" y1="44.9375" y2="44.9375"/><ellipse cx="18" cy="55.9375" fill="none" rx="3" ry="3" style="stroke:#038048;stroke-width:1.0;"/><text fill="#000000" font-family="sans-serif" font-size="14" lengthAdjust="spacing" text-decoration="underline" textLength="305" x="27" y="61.9326">CFN_NAG_REPORT_FILES_PROPERTY: String</text><ellipse cx="18" cy="72.2344" fill="none" rx="3" ry="3" style="stroke:#038048;stroke-width:1.0;"/><text fill="#000000" font-family="sans-serif" font-size="14" lengthAdjust="spacing" text-decoration="underline" textLength="308" x="27" y="78.2295">CHECKOV_REPORT_FILES_PROPERTY: String</text></g></a><rect height="11.6406" style="stroke:#00000000;stroke-width:1.0;fill:none;" width="186" x="80.5" y="92.5313"/><text fill="#888888" font-family="sans-serif" font-size="10" lengthAdjust="spacing" textLength="186" x="80.5" y="101.8135">UMLDoclet 2.0.18, PlantUML 1.2022.6</text><!--MD5=[75780427f75985783065602ff5bfad3d]
@startuml
    set namespaceSeparator none
    hide empty fields
    hide empty methods

    class "<size:14>CloudformationConstants\n<size:10>com.hack23.sonar.cloudformation.reports.process" as com.hack23.sonar.cloudformation.reports.process.CloudformationConstants [[CloudformationConstants.html]] {
        {static} +CFN_NAG_REPORT_FILES_PROPERTY: String
        {static} +CHECKOV_REPORT_FILES_PROPERTY: String
    }

    center footer UMLDoclet 2.0.18, PlantUML 1.2022.6
@enduml

PlantUML version 1.2022.6(Tue Jun 21 19:34:49 CEST 2022)
(APACHE source distribution)
Java Runtime: OpenJDK Runtime Environment
JVM: OpenJDK 64-Bit Server VM
Default Encoding: ANSI_X3.4-1968
Language: en
Country: US
--></g></svg>