<?xml version="1.0" encoding="UTF-8" standalone="no"?><svg xmlns="http://www.w3.org/2000/svg" xmlns:xlink="http://www.w3.org/1999/xlink" contentScriptType="application/ecmascript" contentStyleType="text/css" height="344px" preserveAspectRatio="none" style="width:991px;height:344px;" version="1.1" viewBox="0 0 991 344" width="991px" zoomAndPan="magnify"><defs><filter height="300%" id="fq2ksn14codp9" width="300%" x="-1" y="-1"><feGaussianBlur result="blurOut" stdDeviation="2.0"/><feColorMatrix in="blurOut" result="blurOut2" type="matrix" values="0 0 0 0 0 0 0 0 0 0 0 0 0 0 0 0 0 0 .4 0"/><feOffset dx="4.0" dy="4.0" in="blurOut2" result="blurOut3"/><feBlend in="SourceGraphic" in2="blurOut3" mode="normal"/></filter></defs><g><!--MD5=[a40a5a9732c7a3aaed39d7299cbde308]
cluster com.hack23.sonar.cloudformation.reports.process--><polygon fill="#FFFFFF" filter="url(#fq2ksn14codp9)" points="16,6,424,6,431,28.2969,969,28.2969,969,316,16,316,16,6" style="stroke: #000000; stroke-width: 1.5;"/><line style="stroke: #000000; stroke-width: 1.5;" x1="16" x2="431" y1="28.2969" y2="28.2969"/><text fill="#000000" font-family="sans-serif" font-size="14" font-weight="bold" lengthAdjust="spacingAndGlyphs" textLength="402" x="20" y="20.9951">com.hack23.sonar.cloudformation.reports.process</text><!--MD5=[a65cfdafc6cf56b2b337cf42dc5bcb7d]
class com.hack23.sonar.cloudformation.reports.process.CheckovReportReader--><a href="CheckovReportReader.html" target="_top" title="CheckovReportReader.html" xlink:actuate="onRequest" xlink:href="CheckovReportReader.html" xlink:show="new" xlink:title="CheckovReportReader.html" xlink:type="simple"><rect codeLine="3" fill="#FEFECE" filter="url(#fq2ksn14codp9)" height="60.8047" id="com.hack23.sonar.cloudformation.reports.process.CheckovReportReader" style="stroke: #A80036; stroke-width: 1.5;" width="259" x="32.5" y="47.5"/><ellipse cx="88.25" cy="63.5" fill="#ADD1B2" rx="11" ry="11" style="stroke: #A80036; stroke-width: 1.0;"/><path d="M91.2188,69.1406 Q90.6406,69.4375 90,69.5781 Q89.3594,69.7344 88.6563,69.7344 Q86.1563,69.7344 84.8281,68.0938 Q83.5156,66.4375 83.5156,63.3125 Q83.5156,60.1875 84.8281,58.5313 Q86.1563,56.875 88.6563,56.875 Q89.3594,56.875 90,57.0313 Q90.6563,57.1875 91.2188,57.4844 L91.2188,60.2031 Q90.5938,59.625 90,59.3594 Q89.4063,59.0781 88.7813,59.0781 Q87.4375,59.0781 86.75,60.1563 Q86.0625,61.2188 86.0625,63.3125 Q86.0625,65.4063 86.75,66.4844 Q87.4375,67.5469 88.7813,67.5469 Q89.4063,67.5469 90,67.2813 Q90.5938,67 91.2188,66.4219 L91.2188,69.1406 Z "/><text fill="#000000" font-family="sans-serif" font-size="12" lengthAdjust="spacingAndGlyphs" textLength="139" x="108.75" y="67.6543">CheckovReportReader</text><line style="stroke: #A80036; stroke-width: 1.5;" x1="33.5" x2="290.5" y1="79.5" y2="79.5"/><line style="stroke: #A80036; stroke-width: 1.5;" x1="33.5" x2="290.5" y1="87.5" y2="87.5"/><ellipse cx="43.5" cy="98.5" fill="#84BE84" rx="3" ry="3" style="stroke: #038048; stroke-width: 1.0;"/><text fill="#000000" font-family="sans-serif" font-size="11" lengthAdjust="spacingAndGlyphs" textLength="233" x="52.5" y="101.7104">readReport(InputStream): CheckovReport</text></a><!--MD5=[0479e7f61d508b19cacba66f3c056b1f]
class com.hack23.sonar.cloudformation.reports.process.CfnNagScanReportReader--><a href="CfnNagScanReportReader.html" target="_top" title="CfnNagScanReportReader.html" xlink:actuate="onRequest" xlink:href="CfnNagScanReportReader.html" xlink:show="new" xlink:title="CfnNagScanReportReader.html" xlink:type="simple"><rect codeLine="7" fill="#FEFECE" filter="url(#fq2ksn14codp9)" height="60.8047" id="com.hack23.sonar.cloudformation.reports.process.CfnNagScanReportReader" style="stroke: #A80036; stroke-width: 1.5;" width="319" x="326.5" y="47.5"/><ellipse cx="400.25" cy="63.5" fill="#ADD1B2" rx="11" ry="11" style="stroke: #A80036; stroke-width: 1.0;"/><path d="M403.2188,69.1406 Q402.6406,69.4375 402,69.5781 Q401.3594,69.7344 400.6563,69.7344 Q398.1563,69.7344 396.8281,68.0938 Q395.5156,66.4375 395.5156,63.3125 Q395.5156,60.1875 396.8281,58.5313 Q398.1563,56.875 400.6563,56.875 Q401.3594,56.875 402,57.0313 Q402.6563,57.1875 403.2188,57.4844 L403.2188,60.2031 Q402.5938,59.625 402,59.3594 Q401.4063,59.0781 400.7813,59.0781 Q399.4375,59.0781 398.75,60.1563 Q398.0625,61.2188 398.0625,63.3125 Q398.0625,65.4063 398.75,66.4844 Q399.4375,67.5469 400.7813,67.5469 Q401.4063,67.5469 402,67.2813 Q402.5938,67 403.2188,66.4219 L403.2188,69.1406 Z "/><text fill="#000000" font-family="sans-serif" font-size="12" lengthAdjust="spacingAndGlyphs" textLength="163" x="420.75" y="67.6543">CfnNagScanReportReader</text><line style="stroke: #A80036; stroke-width: 1.5;" x1="327.5" x2="644.5" y1="79.5" y2="79.5"/><line style="stroke: #A80036; stroke-width: 1.5;" x1="327.5" x2="644.5" y1="87.5" y2="87.5"/><ellipse cx="337.5" cy="98.5" fill="#84BE84" rx="3" ry="3" style="stroke: #038048; stroke-width: 1.0;"/><text fill="#000000" font-family="sans-serif" font-size="11" lengthAdjust="spacingAndGlyphs" textLength="293" x="346.5" y="101.7104">readReport(InputStream): List&lt;CfnNagScanReport&gt;</text></a><!--MD5=[17a1a0dba3edaff8452ecb35974a1b72]
class com.hack23.sonar.cloudformation.reports.process.CloudformationConstants--><a href="CloudformationConstants.html" target="_top" title="CloudformationConstants.html" xlink:actuate="onRequest" xlink:href="CloudformationConstants.html" xlink:show="new" xlink:title="CloudformationConstants.html" xlink:type="simple"><rect codeLine="11" fill="#FEFECE" filter="url(#fq2ksn14codp9)" height="73.6094" id="com.hack23.sonar.cloudformation.reports.process.CloudformationConstants" style="stroke: #A80036; stroke-width: 1.5;" width="272" x="681" y="41"/><ellipse cx="733.25" cy="57" fill="#ADD1B2" rx="11" ry="11" style="stroke: #A80036; stroke-width: 1.0;"/><path d="M736.2188,62.6406 Q735.6406,62.9375 735,63.0781 Q734.3594,63.2344 733.6563,63.2344 Q731.1563,63.2344 729.8281,61.5938 Q728.5156,59.9375 728.5156,56.8125 Q728.5156,53.6875 729.8281,52.0313 Q731.1563,50.375 733.6563,50.375 Q734.3594,50.375 735,50.5313 Q735.6563,50.6875 736.2188,50.9844 L736.2188,53.7031 Q735.5938,53.125 735,52.8594 Q734.4063,52.5781 733.7813,52.5781 Q732.4375,52.5781 731.75,53.6563 Q731.0625,54.7188 731.0625,56.8125 Q731.0625,58.9063 731.75,59.9844 Q732.4375,61.0469 733.7813,61.0469 Q734.4063,61.0469 735,60.7813 Q735.5938,60.5 736.2188,59.9219 L736.2188,62.6406 Z "/><text fill="#000000" font-family="sans-serif" font-size="12" lengthAdjust="spacingAndGlyphs" textLength="159" x="753.75" y="61.1543">CloudformationConstants</text><line style="stroke: #A80036; stroke-width: 1.5;" x1="682" x2="952" y1="73" y2="73"/><ellipse cx="692" cy="84" fill="none" rx="3" ry="3" style="stroke: #038048; stroke-width: 1.0;"/><text fill="#000000" font-family="sans-serif" font-size="11" lengthAdjust="spacingAndGlyphs" text-decoration="underline" textLength="244" x="701" y="87.2104">CFN_NAG_REPORT_FILES_PROPERTY: String</text><ellipse cx="692" cy="96.8047" fill="none" rx="3" ry="3" style="stroke: #038048; stroke-width: 1.0;"/><text fill="#000000" font-family="sans-serif" font-size="11" lengthAdjust="spacingAndGlyphs" text-decoration="underline" textLength="246" x="701" y="100.0151">CHECKOV_REPORT_FILES_PROPERTY: String</text><line style="stroke: #A80036; stroke-width: 1.5;" x1="682" x2="952" y1="106.6094" y2="106.6094"/></a><!--MD5=[3d1a7a2726d9f9a04e578c8ec79fdc9c]
class com.hack23.sonar.cloudformation.reports.process.CfnNagProcessReports--><a href="CfnNagProcessReports.html" target="_top" title="CfnNagProcessReports.html" xlink:actuate="onRequest" xlink:href="CfnNagProcessReports.html" xlink:show="new" xlink:title="CfnNagProcessReports.html" xlink:type="simple"><rect codeLine="16" fill="#FEFECE" filter="url(#fq2ksn14codp9)" height="124.8281" id="com.hack23.sonar.cloudformation.reports.process.CfnNagProcessReports" style="stroke: #A80036; stroke-width: 1.5;" width="380" x="32" y="175"/><ellipse cx="145.75" cy="191" fill="#ADD1B2" rx="11" ry="11" style="stroke: #A80036; stroke-width: 1.0;"/><path d="M148.7188,196.6406 Q148.1406,196.9375 147.5,197.0781 Q146.8594,197.2344 146.1563,197.2344 Q143.6563,197.2344 142.3281,195.5938 Q141.0156,193.9375 141.0156,190.8125 Q141.0156,187.6875 142.3281,186.0313 Q143.6563,184.375 146.1563,184.375 Q146.8594,184.375 147.5,184.5313 Q148.1563,184.6875 148.7188,184.9844 L148.7188,187.7031 Q148.0938,187.125 147.5,186.8594 Q146.9063,186.5781 146.2813,186.5781 Q144.9375,186.5781 144.25,187.6563 Q143.5625,188.7188 143.5625,190.8125 Q143.5625,192.9063 144.25,193.9844 Q144.9375,195.0469 146.2813,195.0469 Q146.9063,195.0469 147.5,194.7813 Q148.0938,194.5 148.7188,193.9219 L148.7188,196.6406 Z "/><text fill="#000000" font-family="sans-serif" font-size="12" lengthAdjust="spacingAndGlyphs" textLength="144" x="166.25" y="195.1543">CfnNagProcessReports</text><line style="stroke: #A80036; stroke-width: 1.5;" x1="33" x2="411" y1="207" y2="207"/><ellipse cx="43" cy="218" fill="none" rx="3" ry="3" style="stroke: #038048; stroke-width: 1.0;"/><text fill="#000000" font-family="sans-serif" font-size="11" lengthAdjust="spacingAndGlyphs" text-decoration="underline" textLength="189" x="52" y="221.2104">SUPPORTED_RULES: Set&lt;String&gt;</text><ellipse cx="43" cy="230.8047" fill="none" rx="3" ry="3" style="stroke: #038048; stroke-width: 1.0;"/><text fill="#000000" font-family="sans-serif" font-size="11" lengthAdjust="spacingAndGlyphs" text-decoration="underline" textLength="155" x="52" y="234.0151">UNDEFINED_FAILURE: String</text><ellipse cx="43" cy="243.6094" fill="none" rx="3" ry="3" style="stroke: #038048; stroke-width: 1.0;"/><text fill="#000000" font-family="sans-serif" font-size="11" lengthAdjust="spacingAndGlyphs" text-decoration="underline" textLength="162" x="52" y="246.8198">UNDEFINED_WARNING: String</text><line style="stroke: #A80036; stroke-width: 1.5;" x1="33" x2="411" y1="253.4141" y2="253.4141"/><ellipse cx="43" cy="264.4141" fill="#84BE84" rx="3" ry="3" style="stroke: #038048; stroke-width: 1.0;"/><text fill="#000000" font-family="sans-serif" font-size="11" lengthAdjust="spacingAndGlyphs" textLength="283" x="52" y="267.6245">CfnNagProcessReports(FileSystem, PathResolver)</text><ellipse cx="43" cy="277.2188" fill="#84BE84" rx="3" ry="3" style="stroke: #038048; stroke-width: 1.0;"/><text fill="#000000" font-family="sans-serif" font-size="11" lengthAdjust="spacingAndGlyphs" text-decoration="underline" textLength="140" x="52" y="280.4292">hasRule(String): boolean</text><ellipse cx="43" cy="290.0234" fill="#84BE84" rx="3" ry="3" style="stroke: #038048; stroke-width: 1.0;"/><text fill="#000000" font-family="sans-serif" font-size="11" lengthAdjust="spacingAndGlyphs" textLength="354" x="52" y="293.2339">processCfnNagReport(SensorContext, Optional&lt;String&gt;): void</text></a><!--MD5=[45c1dedf81ee90160d834a7bcce62b99]
class com.hack23.sonar.cloudformation.reports.process.CheckovProcessReports--><a href="CheckovProcessReports.html" target="_top" title="CheckovProcessReports.html" xlink:actuate="onRequest" xlink:href="CheckovProcessReports.html" xlink:show="new" xlink:title="CheckovProcessReports.html" xlink:type="simple"><rect codeLine="25" fill="#FEFECE" filter="url(#fq2ksn14codp9)" height="86.4141" id="com.hack23.sonar.cloudformation.reports.process.CheckovProcessReports" style="stroke: #A80036; stroke-width: 1.5;" width="386" x="447" y="194.5"/><ellipse cx="560.25" cy="210.5" fill="#ADD1B2" rx="11" ry="11" style="stroke: #A80036; stroke-width: 1.0;"/><path d="M563.2188,216.1406 Q562.6406,216.4375 562,216.5781 Q561.3594,216.7344 560.6563,216.7344 Q558.1563,216.7344 556.8281,215.0938 Q555.5156,213.4375 555.5156,210.3125 Q555.5156,207.1875 556.8281,205.5313 Q558.1563,203.875 560.6563,203.875 Q561.3594,203.875 562,204.0313 Q562.6563,204.1875 563.2188,204.4844 L563.2188,207.2031 Q562.5938,206.625 562,206.3594 Q561.4063,206.0781 560.7813,206.0781 Q559.4375,206.0781 558.75,207.1563 Q558.0625,208.2188 558.0625,210.3125 Q558.0625,212.4063 558.75,213.4844 Q559.4375,214.5469 560.7813,214.5469 Q561.4063,214.5469 562,214.2813 Q562.5938,214 563.2188,213.4219 L563.2188,216.1406 Z "/><text fill="#000000" font-family="sans-serif" font-size="12" lengthAdjust="spacingAndGlyphs" textLength="151" x="580.75" y="214.6543">CheckovProcessReports</text><line style="stroke: #A80036; stroke-width: 1.5;" x1="448" x2="832" y1="226.5" y2="226.5"/><ellipse cx="458" cy="237.5" fill="none" rx="3" ry="3" style="stroke: #038048; stroke-width: 1.0;"/><text fill="#000000" font-family="sans-serif" font-size="11" lengthAdjust="spacingAndGlyphs" text-decoration="underline" textLength="126" x="467" y="240.7104">SENSOR_NAME: String</text><line style="stroke: #A80036; stroke-width: 1.5;" x1="448" x2="832" y1="247.3047" y2="247.3047"/><ellipse cx="458" cy="258.3047" fill="#84BE84" rx="3" ry="3" style="stroke: #038048; stroke-width: 1.0;"/><text fill="#000000" font-family="sans-serif" font-size="11" lengthAdjust="spacingAndGlyphs" textLength="289" x="467" y="261.5151">CheckovProcessReports(FileSystem, PathResolver)</text><ellipse cx="458" cy="271.1094" fill="#84BE84" rx="3" ry="3" style="stroke: #038048; stroke-width: 1.0;"/><text fill="#000000" font-family="sans-serif" font-size="11" lengthAdjust="spacingAndGlyphs" textLength="360" x="467" y="274.3198">processCheckovReport(SensorContext, Optional&lt;String&gt;): void</text></a><!--MD5=[e291c43eeb11a260cf9e2da03c15be1e]
link com.hack23.sonar.cloudformation.reports.process.CheckovReportReader to com.hack23.sonar.cloudformation.reports.process.CfnNagScanReportReader--><!--MD5=[3f1cb8c4671680c590390429914ee87c]
link com.hack23.sonar.cloudformation.reports.process.CfnNagScanReportReader to com.hack23.sonar.cloudformation.reports.process.CloudformationConstants--><!--MD5=[2d37b963ca4300961103a004977b3d2d]
link com.hack23.sonar.cloudformation.reports.process.CheckovReportReader to com.hack23.sonar.cloudformation.reports.process.CfnNagProcessReports--><!--MD5=[33e2452cb1e0db44de8f198fc27df441]
link com.hack23.sonar.cloudformation.reports.process.CfnNagProcessReports to com.hack23.sonar.cloudformation.reports.process.CheckovProcessReports--><text fill="#888888" font-family="sans-serif" font-size="10" lengthAdjust="spacingAndGlyphs" textLength="192" x="390.5" y="331.2822">UMLDoclet 2.0.12, PlantUML 1.2020.16</text><!--MD5=[11ccc3d95f4cd23b685349c24bcb1c50]
@startuml
    namespace com.hack23.sonar.cloudformation.reports.process {

        class CheckovReportReader [[CheckovReportReader.html]] {
            +readReport(InputStream): CheckovReport
        }

        class CfnNagScanReportReader [[CfnNagScanReportReader.html]] {
            +readReport(InputStream): List<CfnNagScanReport>
        }

        class CloudformationConstants [[CloudformationConstants.html]] {
            {static} +CFN_NAG_REPORT_FILES_PROPERTY: String
            {static} +CHECKOV_REPORT_FILES_PROPERTY: String
        }

        class CfnNagProcessReports [[CfnNagProcessReports.html]] {
            {static} +SUPPORTED_RULES: Set<String>
            {static} +UNDEFINED_FAILURE: String
            {static} +UNDEFINED_WARNING: String
            +CfnNagProcessReports(FileSystem, PathResolver)
            {static} +hasRule(String): boolean
            +processCfnNagReport(SensorContext, Optional<String>): void
        }

        class CheckovProcessReports [[CheckovProcessReports.html]] {
            {static} +SENSOR_NAME: String
            +CheckovProcessReports(FileSystem, PathResolver)
            +processCheckovReport(SensorContext, Optional<String>): void
        }

    }

    center footer UMLDoclet 2.0.12, PlantUML 1.2020.16
@enduml

PlantUML version 1.2020.16(Sun Aug 23 22:20:43 CEST 2020)
(APACHE source distribution)
Java Runtime: OpenJDK Runtime Environment
JVM: OpenJDK 64-Bit Server VM
Default Encoding: UTF-8
Language: en
Country: US
--></g></svg>