<?xml version="1.0" encoding="UTF-8" standalone="no"?><svg xmlns="http://www.w3.org/2000/svg" xmlns:xlink="http://www.w3.org/1999/xlink" contentScriptType="application/ecmascript" contentStyleType="text/css" height="356px" preserveAspectRatio="none" style="width:757px;height:356px;" version="1.1" viewBox="0 0 757 356" width="757px" zoomAndPan="magnify"><defs><filter height="300%" id="f1cznb7rly6xmw" width="300%" x="-1" y="-1"><feGaussianBlur result="blurOut" stdDeviation="2.0"/><feColorMatrix in="blurOut" result="blurOut2" type="matrix" values="0 0 0 0 0 0 0 0 0 0 0 0 0 0 0 0 0 0 .4 0"/><feOffset dx="4.0" dy="4.0" in="blurOut2" result="blurOut3"/><feBlend in="SourceGraphic" in2="blurOut3" mode="normal"/></filter></defs><g><!--MD5=[a40a5a9732c7a3aaed39d7299cbde308]
cluster com.hack23.sonar.cloudformation.reports.process--><polygon fill="#FFFFFF" filter="url(#f1cznb7rly6xmw)" points="16,6,424,6,431,28.2969,735,28.2969,735,328,16,328,16,6" style="stroke: #000000; stroke-width: 1.5;"/><line style="stroke: #000000; stroke-width: 1.5;" x1="16" x2="431" y1="28.2969" y2="28.2969"/><text fill="#000000" font-family="sans-serif" font-size="14" font-weight="bold" lengthAdjust="spacingAndGlyphs" textLength="402" x="20" y="20.9951">com.hack23.sonar.cloudformation.reports.process</text><!--MD5=[17a1a0dba3edaff8452ecb35974a1b72]
class com.hack23.sonar.cloudformation.reports.process.CloudformationConstants--><a href="CloudformationConstants.html" target="_top" title="CloudformationConstants.html" xlink:actuate="onRequest" xlink:href="CloudformationConstants.html" xlink:show="new" xlink:title="CloudformationConstants.html" xlink:type="simple"><rect codeLine="3" fill="#FEFECE" filter="url(#f1cznb7rly6xmw)" height="73.6094" id="com.hack23.sonar.cloudformation.reports.process.CloudformationConstants" style="stroke: #A80036; stroke-width: 1.5;" width="272" x="32" y="66.5"/><ellipse cx="84.25" cy="82.5" fill="#ADD1B2" rx="11" ry="11" style="stroke: #A80036; stroke-width: 1.0;"/><path d="M87.2188,88.1406 Q86.6406,88.4375 86,88.5781 Q85.3594,88.7344 84.6563,88.7344 Q82.1563,88.7344 80.8281,87.0938 Q79.5156,85.4375 79.5156,82.3125 Q79.5156,79.1875 80.8281,77.5313 Q82.1563,75.875 84.6563,75.875 Q85.3594,75.875 86,76.0313 Q86.6563,76.1875 87.2188,76.4844 L87.2188,79.2031 Q86.5938,78.625 86,78.3594 Q85.4063,78.0781 84.7813,78.0781 Q83.4375,78.0781 82.75,79.1563 Q82.0625,80.2188 82.0625,82.3125 Q82.0625,84.4063 82.75,85.4844 Q83.4375,86.5469 84.7813,86.5469 Q85.4063,86.5469 86,86.2813 Q86.5938,86 87.2188,85.4219 L87.2188,88.1406 Z "/><text fill="#000000" font-family="sans-serif" font-size="12" lengthAdjust="spacingAndGlyphs" textLength="159" x="104.75" y="86.6543">CloudformationConstants</text><line style="stroke: #A80036; stroke-width: 1.5;" x1="33" x2="303" y1="98.5" y2="98.5"/><ellipse cx="43" cy="109.5" fill="none" rx="3" ry="3" style="stroke: #038048; stroke-width: 1.0;"/><text fill="#000000" font-family="sans-serif" font-size="11" lengthAdjust="spacingAndGlyphs" text-decoration="underline" textLength="244" x="52" y="112.7104">CFN_NAG_REPORT_FILES_PROPERTY: String</text><ellipse cx="43" cy="122.3047" fill="none" rx="3" ry="3" style="stroke: #038048; stroke-width: 1.0;"/><text fill="#000000" font-family="sans-serif" font-size="11" lengthAdjust="spacingAndGlyphs" text-decoration="underline" textLength="246" x="52" y="125.5151">CHECKOV_REPORT_FILES_PROPERTY: String</text><line style="stroke: #A80036; stroke-width: 1.5;" x1="33" x2="303" y1="132.1094" y2="132.1094"/></a><!--MD5=[3d1a7a2726d9f9a04e578c8ec79fdc9c]
class com.hack23.sonar.cloudformation.reports.process.CfnNagProcessReports--><a href="CfnNagProcessReports.html" target="_top" title="CfnNagProcessReports.html" xlink:actuate="onRequest" xlink:href="CfnNagProcessReports.html" xlink:show="new" xlink:title="CfnNagProcessReports.html" xlink:type="simple"><rect codeLine="8" fill="#FEFECE" filter="url(#f1cznb7rly6xmw)" height="124.8281" id="com.hack23.sonar.cloudformation.reports.process.CfnNagProcessReports" style="stroke: #A80036; stroke-width: 1.5;" width="380" x="339" y="41"/><ellipse cx="452.75" cy="57" fill="#ADD1B2" rx="11" ry="11" style="stroke: #A80036; stroke-width: 1.0;"/><path d="M455.7188,62.6406 Q455.1406,62.9375 454.5,63.0781 Q453.8594,63.2344 453.1563,63.2344 Q450.6563,63.2344 449.3281,61.5938 Q448.0156,59.9375 448.0156,56.8125 Q448.0156,53.6875 449.3281,52.0313 Q450.6563,50.375 453.1563,50.375 Q453.8594,50.375 454.5,50.5313 Q455.1563,50.6875 455.7188,50.9844 L455.7188,53.7031 Q455.0938,53.125 454.5,52.8594 Q453.9063,52.5781 453.2813,52.5781 Q451.9375,52.5781 451.25,53.6563 Q450.5625,54.7188 450.5625,56.8125 Q450.5625,58.9063 451.25,59.9844 Q451.9375,61.0469 453.2813,61.0469 Q453.9063,61.0469 454.5,60.7813 Q455.0938,60.5 455.7188,59.9219 L455.7188,62.6406 Z "/><text fill="#000000" font-family="sans-serif" font-size="12" lengthAdjust="spacingAndGlyphs" textLength="144" x="473.25" y="61.1543">CfnNagProcessReports</text><line style="stroke: #A80036; stroke-width: 1.5;" x1="340" x2="718" y1="73" y2="73"/><ellipse cx="350" cy="84" fill="none" rx="3" ry="3" style="stroke: #038048; stroke-width: 1.0;"/><text fill="#000000" font-family="sans-serif" font-size="11" lengthAdjust="spacingAndGlyphs" text-decoration="underline" textLength="155" x="359" y="87.2104">UNDEFINED_FAILURE: String</text><ellipse cx="350" cy="96.8047" fill="none" rx="3" ry="3" style="stroke: #038048; stroke-width: 1.0;"/><text fill="#000000" font-family="sans-serif" font-size="11" lengthAdjust="spacingAndGlyphs" text-decoration="underline" textLength="162" x="359" y="100.0151">UNDEFINED_WARNING: String</text><ellipse cx="350" cy="109.6094" fill="none" rx="3" ry="3" style="stroke: #038048; stroke-width: 1.0;"/><text fill="#000000" font-family="sans-serif" font-size="11" lengthAdjust="spacingAndGlyphs" text-decoration="underline" textLength="189" x="359" y="112.8198">SUPPORTED_RULES: Set&lt;String&gt;</text><line style="stroke: #A80036; stroke-width: 1.5;" x1="340" x2="718" y1="119.4141" y2="119.4141"/><ellipse cx="350" cy="130.4141" fill="#84BE84" rx="3" ry="3" style="stroke: #038048; stroke-width: 1.0;"/><text fill="#000000" font-family="sans-serif" font-size="11" lengthAdjust="spacingAndGlyphs" textLength="283" x="359" y="133.6245">CfnNagProcessReports(FileSystem, PathResolver)</text><ellipse cx="350" cy="143.2188" fill="#84BE84" rx="3" ry="3" style="stroke: #038048; stroke-width: 1.0;"/><text fill="#000000" font-family="sans-serif" font-size="11" lengthAdjust="spacingAndGlyphs" text-decoration="underline" textLength="140" x="359" y="146.4292">hasRule(String): boolean</text><ellipse cx="350" cy="156.0234" fill="#84BE84" rx="3" ry="3" style="stroke: #038048; stroke-width: 1.0;"/><text fill="#000000" font-family="sans-serif" font-size="11" lengthAdjust="spacingAndGlyphs" textLength="354" x="359" y="159.2339">processCfnNagReport(SensorContext, Optional&lt;String&gt;): void</text></a><!--MD5=[45c1dedf81ee90160d834a7bcce62b99]
class com.hack23.sonar.cloudformation.reports.process.CheckovProcessReports--><a href="CheckovProcessReports.html" target="_top" title="CheckovProcessReports.html" xlink:actuate="onRequest" xlink:href="CheckovProcessReports.html" xlink:show="new" xlink:title="CheckovProcessReports.html" xlink:type="simple"><rect codeLine="17" fill="#FEFECE" filter="url(#f1cznb7rly6xmw)" height="86.4141" id="com.hack23.sonar.cloudformation.reports.process.CheckovProcessReports" style="stroke: #A80036; stroke-width: 1.5;" width="386" x="32" y="226"/><ellipse cx="145.25" cy="242" fill="#ADD1B2" rx="11" ry="11" style="stroke: #A80036; stroke-width: 1.0;"/><path d="M148.2188,247.6406 Q147.6406,247.9375 147,248.0781 Q146.3594,248.2344 145.6563,248.2344 Q143.1563,248.2344 141.8281,246.5938 Q140.5156,244.9375 140.5156,241.8125 Q140.5156,238.6875 141.8281,237.0313 Q143.1563,235.375 145.6563,235.375 Q146.3594,235.375 147,235.5313 Q147.6563,235.6875 148.2188,235.9844 L148.2188,238.7031 Q147.5938,238.125 147,237.8594 Q146.4063,237.5781 145.7813,237.5781 Q144.4375,237.5781 143.75,238.6563 Q143.0625,239.7188 143.0625,241.8125 Q143.0625,243.9063 143.75,244.9844 Q144.4375,246.0469 145.7813,246.0469 Q146.4063,246.0469 147,245.7813 Q147.5938,245.5 148.2188,244.9219 L148.2188,247.6406 Z "/><text fill="#000000" font-family="sans-serif" font-size="12" lengthAdjust="spacingAndGlyphs" textLength="151" x="165.75" y="246.1543">CheckovProcessReports</text><line style="stroke: #A80036; stroke-width: 1.5;" x1="33" x2="417" y1="258" y2="258"/><ellipse cx="43" cy="269" fill="none" rx="3" ry="3" style="stroke: #038048; stroke-width: 1.0;"/><text fill="#000000" font-family="sans-serif" font-size="11" lengthAdjust="spacingAndGlyphs" text-decoration="underline" textLength="126" x="52" y="272.2104">SENSOR_NAME: String</text><line style="stroke: #A80036; stroke-width: 1.5;" x1="33" x2="417" y1="278.8047" y2="278.8047"/><ellipse cx="43" cy="289.8047" fill="#84BE84" rx="3" ry="3" style="stroke: #038048; stroke-width: 1.0;"/><text fill="#000000" font-family="sans-serif" font-size="11" lengthAdjust="spacingAndGlyphs" textLength="289" x="52" y="293.0151">CheckovProcessReports(FileSystem, PathResolver)</text><ellipse cx="43" cy="302.6094" fill="#84BE84" rx="3" ry="3" style="stroke: #038048; stroke-width: 1.0;"/><text fill="#000000" font-family="sans-serif" font-size="11" lengthAdjust="spacingAndGlyphs" textLength="360" x="52" y="305.8198">processCheckovReport(SensorContext, Optional&lt;String&gt;): void</text></a><!--MD5=[927317dab645f7d05471c565c3974964]
link com.hack23.sonar.cloudformation.reports.process.CloudformationConstants to com.hack23.sonar.cloudformation.reports.process.CfnNagProcessReports--><!--MD5=[6b35783f6aba7198d40449040e943dd7]
link com.hack23.sonar.cloudformation.reports.process.CloudformationConstants to com.hack23.sonar.cloudformation.reports.process.CheckovProcessReports--><text fill="#888888" font-family="sans-serif" font-size="10" lengthAdjust="spacingAndGlyphs" textLength="192" x="273.5" y="343.2822">UMLDoclet 2.0.12, PlantUML 1.2020.16</text><!--MD5=[a2d398869f61b75c92cb75aa27dc041f]
@startuml
    namespace com.hack23.sonar.cloudformation.reports.process {

        class CloudformationConstants [[CloudformationConstants.html]] {
            {static} +CFN_NAG_REPORT_FILES_PROPERTY: String
            {static} +CHECKOV_REPORT_FILES_PROPERTY: String
        }

        class CfnNagProcessReports [[CfnNagProcessReports.html]] {
            {static} +UNDEFINED_FAILURE: String
            {static} +UNDEFINED_WARNING: String
            {static} +SUPPORTED_RULES: Set<String>
            +CfnNagProcessReports(FileSystem, PathResolver)
            {static} +hasRule(String): boolean
            +processCfnNagReport(SensorContext, Optional<String>): void
        }

        class CheckovProcessReports [[CheckovProcessReports.html]] {
            {static} +SENSOR_NAME: String
            +CheckovProcessReports(FileSystem, PathResolver)
            +processCheckovReport(SensorContext, Optional<String>): void
        }

    }

    center footer UMLDoclet 2.0.12, PlantUML 1.2020.16
@enduml

PlantUML version 1.2020.16(Sun Aug 23 22:20:43 CEST 2020)
(APACHE source distribution)
Java Runtime: OpenJDK Runtime Environment
JVM: OpenJDK 64-Bit Server VM
Default Encoding: UTF-8
Language: en
Country: US
--></g></svg>