<?xml version="1.0" encoding="UTF-8" standalone="no"?><svg xmlns="http://www.w3.org/2000/svg" xmlns:xlink="http://www.w3.org/1999/xlink" contentScriptType="application/ecmascript" contentStyleType="text/css" height="228px" preserveAspectRatio="none" style="width:388px;height:228px;background:#FFFFFF;" version="1.1" viewBox="0 0 388 228" width="388px" zoomAndPan="magnify"><defs><filter height="300%" id="f9txyh7pd8ltz" width="300%" x="-1" y="-1"><feGaussianBlur result="blurOut" stdDeviation="2.0"/><feColorMatrix in="blurOut" result="blurOut2" type="matrix" values="0 0 0 0 0 0 0 0 0 0 0 0 0 0 0 0 0 0 .4 0"/><feOffset dx="4.0" dy="4.0" in="blurOut2" result="blurOut3"/><feBlend in="SourceGraphic" in2="blurOut3" mode="normal"/></filter></defs><g><!--MD5=[fe768997cbfd64bbe9e45e6331c668d3]
class com.hack23.sonar.cloudformation.CloudformationQualityProfile--><a href="CloudformationQualityProfile.html" target="_top" title="CloudformationQualityProfile.html" xlink:actuate="onRequest" xlink:href="CloudformationQualityProfile.html" xlink:show="new" xlink:title="CloudformationQualityProfile.html" xlink:type="simple"><rect codeLine="5" fill="#FEFECE" filter="url(#f9txyh7pd8ltz)" height="71.5469" id="com.hack23.sonar.cloudformation.CloudformationQualityProfile" style="stroke:#A80036;stroke-width:1.5;" width="367" x="7" y="126"/><ellipse cx="89.75" cy="144.9688" fill="#ADD1B2" rx="11" ry="11" style="stroke:#A80036;stroke-width:1.0;"/><path d="M92.7188,150.6094 Q92.1406,150.9063 91.5,151.0469 Q90.8594,151.2031 90.1563,151.2031 Q87.6563,151.2031 86.3281,149.5625 Q85.0156,147.9063 85.0156,144.7813 Q85.0156,141.6563 86.3281,140 Q87.6563,138.3438 90.1563,138.3438 Q90.8594,138.3438 91.5,138.5 Q92.1563,138.6563 92.7188,138.9531 L92.7188,141.6719 Q92.0938,141.0938 91.5,140.8281 Q90.9063,140.5469 90.2813,140.5469 Q88.9375,140.5469 88.25,141.625 Q87.5625,142.6875 87.5625,144.7813 Q87.5625,146.875 88.25,147.9531 Q88.9375,149.0156 90.2813,149.0156 Q90.9063,149.0156 91.5,148.75 Q92.0938,148.4688 92.7188,147.8906 L92.7188,150.6094 Z " fill="#000000"/><text fill="#000000" font-family="sans-serif" font-size="14" lengthAdjust="spacing" textLength="193" x="110.25" y="143.9951">CloudformationQualityProfile</text><text fill="#000000" font-family="sans-serif" font-size="10" lengthAdjust="spacing" textLength="164" x="124.75" y="156.5791">com.hack23.sonar.cloudformation</text><line style="stroke:#A80036;stroke-width:1.5;" x1="8" x2="373" y1="163.9375" y2="163.9375"/><ellipse cx="18" cy="174.9375" fill="#84BE84" rx="3" ry="3" style="stroke:#038048;stroke-width:1.0;"/><text fill="#000000" font-family="sans-serif" font-size="11" lengthAdjust="spacing" textLength="341" x="27" y="178.1479">CloudformationQualityProfile(CloudformationRulesDefinition)</text><ellipse cx="18" cy="187.7422" fill="#84BE84" rx="3" ry="3" style="stroke:#038048;stroke-width:1.0;"/><text fill="#000000" font-family="sans-serif" font-size="11" lengthAdjust="spacing" textLength="117" x="27" y="190.9526">define(Context): void</text></a><!--MD5=[bccf4df98d34ca024eaa4f9d7ebedb88]
class org.sonar.api.server.profile.BuiltInQualityProfilesDefinition--><rect codeLine="10" fill="#FEFECE" filter="url(#f9txyh7pd8ltz)" height="58.7422" id="org.sonar.api.server.profile.BuiltInQualityProfilesDefinition" style="stroke:#A80036;stroke-width:1.5;" width="235" x="73" y="7"/><ellipse cx="88" cy="25.9688" fill="#B4A7E5" rx="11" ry="11" style="stroke:#A80036;stroke-width:1.0;"/><path d="M83.9219,21.7344 L83.9219,19.5781 L91.3125,19.5781 L91.3125,21.7344 L88.8438,21.7344 L88.8438,29.8125 L91.3125,29.8125 L91.3125,31.9688 L83.9219,31.9688 L83.9219,29.8125 L86.3906,29.8125 L86.3906,21.7344 L83.9219,21.7344 Z " fill="#000000"/><text fill="#000000" font-family="sans-serif" font-size="14" font-style="italic" lengthAdjust="spacing" textLength="203" x="102" y="24.9951">BuiltInQualityProfilesDefinition</text><text fill="#000000" font-family="sans-serif" font-size="10" font-style="italic" lengthAdjust="spacing" textLength="133" x="137" y="37.5791">org.sonar.api.server.profile</text><line style="stroke:#A80036;stroke-width:1.5;" x1="74" x2="307" y1="44.9375" y2="44.9375"/><ellipse cx="84" cy="55.9375" fill="#84BE84" rx="3" ry="3" style="stroke:#038048;stroke-width:1.0;"/><text fill="#000000" font-family="sans-serif" font-size="11" font-style="italic" lengthAdjust="spacing" textLength="119" x="93" y="59.1479">define(Context): void</text><!--MD5=[63fe7b739a87e21952d62265d328e55c]
reverse link org.sonar.api.server.profile.BuiltInQualityProfilesDefinition to com.hack23.sonar.cloudformation.CloudformationQualityProfile--><path codeLine="14" d="M190.5,86.46 C190.5,99.64 190.5,113.64 190.5,125.9 " fill="none" id="org.sonar.api.server.profile.BuiltInQualityProfilesDefinition-backto-com.hack23.sonar.cloudformation.CloudformationQualityProfile" style="stroke:#A80036;stroke-width:1.0;stroke-dasharray:7.0,7.0;"/><polygon fill="none" points="183.5,86.14,190.5,66.14,197.5,86.14,183.5,86.14" style="stroke:#A80036;stroke-width:1.0;"/><text fill="#888888" font-family="sans-serif" font-size="10" lengthAdjust="spacing" textLength="192" x="91.5" y="219.8291">UMLDoclet 2.0.15, PlantUML 1.2021.13</text><!--MD5=[70806ea4078801c8e253ba9632d471b7]
@startuml
    set namespaceSeparator none
    hide empty fields
    hide empty methods

    class "<size:14>CloudformationQualityProfile\n<size:10>com.hack23.sonar.cloudformation" as com.hack23.sonar.cloudformation.CloudformationQualityProfile [[CloudformationQualityProfile.html]] {
        +CloudformationQualityProfile(CloudformationRulesDefinition)
        +define(Context): void
    }

    interface "<size:14>BuiltInQualityProfilesDefinition\n<size:10>org.sonar.api.server.profile" as org.sonar.api.server.profile.BuiltInQualityProfilesDefinition {
        {abstract} +define(Context): void
    }

    org.sonar.api.server.profile.BuiltInQualityProfilesDefinition <|.. com.hack23.sonar.cloudformation.CloudformationQualityProfile

    center footer UMLDoclet 2.0.15, PlantUML 1.2021.13
@enduml

PlantUML version 1.2021.13(Mon Nov 01 12:38:45 CET 2021)
(APACHE source distribution)
Java Runtime: OpenJDK Runtime Environment
JVM: OpenJDK 64-Bit Server VM
Default Encoding: UTF-8
Language: en
Country: US
--></g></svg>