<?xml version="1.0" encoding="UTF-8" standalone="no"?><svg xmlns="http://www.w3.org/2000/svg" xmlns:xlink="http://www.w3.org/1999/xlink" contentStyleType="text/css" height="216px" preserveAspectRatio="none" style="width:210px;height:216px;background:#FFFFFF;" version="1.1" viewBox="0 0 210 216" width="210px" zoomAndPan="magnify"><defs/><g><!--MD5=[4e78556fd0fd0f12622aab97e46ad39c]
class com.hack23.sonar.cloudformation.CloudformationPlugin--><a href="CloudformationPlugin.html" target="_top" title="CloudformationPlugin.html" xlink:actuate="onRequest" xlink:href="CloudformationPlugin.html" xlink:show="new" xlink:title="CloudformationPlugin.html" xlink:type="simple"><g id="elem_com.hack23.sonar.cloudformation.CloudformationPlugin"><rect codeLine="5" fill="#F1F1F1" height="62.2344" id="com.hack23.sonar.cloudformation.CloudformationPlugin" rx="2.5" ry="2.5" style="stroke:#181818;stroke-width:0.5;" width="196" x="7" y="129"/><ellipse cx="22" cy="147.9688" fill="#ADD1B2" rx="11" ry="11" style="stroke:#181818;stroke-width:1.0;"/><path d="M24.9688,153.6094 Q24.3906,153.9063 23.75,154.0469 Q23.1094,154.2031 22.4063,154.2031 Q19.9063,154.2031 18.5781,152.5625 Q17.2656,150.9063 17.2656,147.7813 Q17.2656,144.6563 18.5781,143 Q19.9063,141.3438 22.4063,141.3438 Q23.1094,141.3438 23.75,141.5 Q24.4063,141.6563 24.9688,141.9531 L24.9688,144.6719 Q24.3438,144.0938 23.75,143.8281 Q23.1563,143.5469 22.5313,143.5469 Q21.1875,143.5469 20.5,144.625 Q19.8125,145.6875 19.8125,147.7813 Q19.8125,149.875 20.5,150.9531 Q21.1875,152.0156 22.5313,152.0156 Q23.1563,152.0156 23.75,151.75 Q24.3438,151.4688 24.9688,150.8906 L24.9688,153.6094 Z " fill="#000000"/><text fill="#000000" font-family="sans-serif" font-size="14" lengthAdjust="spacing" textLength="147" x="44.5" y="146.9951">CloudformationPlugin</text><text fill="#000000" font-family="sans-serif" font-size="10" lengthAdjust="spacing" textLength="164" x="36" y="159.5791">com.hack23.sonar.cloudformation</text><line style="stroke:#181818;stroke-width:0.5;" x1="8" x2="202" y1="166.9375" y2="166.9375"/><ellipse cx="18" cy="180.5859" fill="#84BE84" rx="3" ry="3" style="stroke:#038048;stroke-width:1.0;"/><text fill="#000000" font-family="sans-serif" font-size="14" lengthAdjust="spacing" textLength="144" x="27" y="183.9326">define(Context): void</text></g></a><!--MD5=[357bc6d468bbe4af181e679b5a7d4bc8]
class org.sonar.api.Plugin--><g id="elem_org.sonar.api.Plugin"><rect codeLine="9" fill="#F1F1F1" height="62.2344" id="org.sonar.api.Plugin" rx="2.5" ry="2.5" style="stroke:#181818;stroke-width:0.5;" width="172" x="19" y="7"/><ellipse cx="68.75" cy="25.9688" fill="#B4A7E5" rx="11" ry="11" style="stroke:#181818;stroke-width:1.0;"/><path d="M64.6719,21.7344 L64.6719,19.5781 L72.0625,19.5781 L72.0625,21.7344 L69.5938,21.7344 L69.5938,29.8125 L72.0625,29.8125 L72.0625,31.9688 L64.6719,31.9688 L64.6719,29.8125 L67.1406,29.8125 L67.1406,21.7344 L64.6719,21.7344 Z " fill="#000000"/><text fill="#000000" font-family="sans-serif" font-size="14" font-style="italic" lengthAdjust="spacing" textLength="41" x="100.75" y="24.9951">Plugin</text><text fill="#000000" font-family="sans-serif" font-size="10" font-style="italic" lengthAdjust="spacing" textLength="64" x="89.25" y="37.5791">org.sonar.api</text><line style="stroke:#181818;stroke-width:0.5;" x1="20" x2="190" y1="44.9375" y2="44.9375"/><ellipse cx="30" cy="58.5859" fill="#84BE84" rx="3" ry="3" style="stroke:#038048;stroke-width:1.0;"/><text fill="#000000" font-family="sans-serif" font-size="14" font-style="italic" lengthAdjust="spacing" textLength="146" x="39" y="61.9326">define(Context): void</text></g><!--MD5=[a0a45c0a895aca957ae22b311196540e]
reverse link org.sonar.api.Plugin to com.hack23.sonar.cloudformation.CloudformationPlugin--><g id="link_org.sonar.api.Plugin_com.hack23.sonar.cloudformation.CloudformationPlugin"><path codeLine="13" d="M105,89.37 C105,102.75 105,116.79 105,128.73 " fill="none" id="org.sonar.api.Plugin-backto-com.hack23.sonar.cloudformation.CloudformationPlugin" style="stroke:#181818;stroke-width:1.0;stroke-dasharray:7.0,7.0;"/><polygon fill="none" points="98,89.28,105,69.28,112,89.28,98,89.28" style="stroke:#181818;stroke-width:1.0;"/></g><rect fill="none" height="11.6406" style="stroke:none;stroke-width:1.0;" width="186" x="5" y="197.2344"/><text fill="#888888" font-family="sans-serif" font-size="10" lengthAdjust="spacing" textLength="186" x="5" y="206.5166">UMLDoclet 2.0.19, PlantUML 1.2022.8</text><!--MD5=[2aa815798de6c78053a4f3b8b94427a5]
@startuml
    set namespaceSeparator none
    hide empty fields
    hide empty methods

    class "<size:14>CloudformationPlugin\n<size:10>com.hack23.sonar.cloudformation" as com.hack23.sonar.cloudformation.CloudformationPlugin [[CloudformationPlugin.html]] {
        +define(Context): void
    }

    interface "<size:14>Plugin\n<size:10>org.sonar.api" as org.sonar.api.Plugin {
        {abstract} +define(Context): void
    }

    org.sonar.api.Plugin <|.. com.hack23.sonar.cloudformation.CloudformationPlugin

    center footer UMLDoclet 2.0.19, PlantUML 1.2022.8
@enduml

PlantUML version 1.2022.8(Sun Sep 25 11:00:33 CEST 2022)
(APACHE source distribution)
Java Runtime: OpenJDK Runtime Environment
JVM: OpenJDK 64-Bit Server VM
Default Encoding: ANSI_X3.4-1968
Language: en
Country: US
--></g></svg>