<?xml version="1.0" encoding="UTF-8" standalone="no"?><svg xmlns="http://www.w3.org/2000/svg" xmlns:xlink="http://www.w3.org/1999/xlink" contentScriptType="application/ecmascript" contentStyleType="text/css" height="277px" preserveAspectRatio="none" style="width:535px;height:277px;" version="1.1" viewBox="0 0 535 277" width="535px" zoomAndPan="magnify"><defs><filter height="300%" id="f171i71a34hk51" width="300%" x="-1" y="-1"><feGaussianBlur result="blurOut" stdDeviation="2.0"/><feColorMatrix in="blurOut" result="blurOut2" type="matrix" values="0 0 0 0 0 0 0 0 0 0 0 0 0 0 0 0 0 0 .4 0"/><feOffset dx="4.0" dy="4.0" in="blurOut2" result="blurOut3"/><feBlend in="SourceGraphic" in2="blurOut3" mode="normal"/></filter></defs><g><!--MD5=[5cd76e2d5be102320ba6d55700009822]
class com.hack23.sonar.cloudformation.CloudformationSensor--><a href="CloudformationSensor.html" target="_top" title="CloudformationSensor.html" xlink:actuate="onRequest" xlink:href="CloudformationSensor.html" xlink:show="new" xlink:title="CloudformationSensor.html" xlink:type="simple"><rect fill="#FEFECE" filter="url(#f171i71a34hk51)" height="105.1563" id="com.hack23.sonar.cloudformation.CloudformationSensor" style="stroke: #A80036; stroke-width: 1.5;" width="518" x="6" y="140"/><ellipse cx="178.75" cy="158.9688" fill="#ADD1B2" rx="11" ry="11" style="stroke: #A80036; stroke-width: 1.0;"/><path d="M181.7188,164.6094 Q181.1406,164.9063 180.5,165.0469 Q179.8594,165.2031 179.1563,165.2031 Q176.6563,165.2031 175.3281,163.5625 Q174.0156,161.9063 174.0156,158.7813 Q174.0156,155.6563 175.3281,154 Q176.6563,152.3438 179.1563,152.3438 Q179.8594,152.3438 180.5,152.5 Q181.1563,152.6563 181.7188,152.9531 L181.7188,155.6719 Q181.0938,155.0938 180.5,154.8281 Q179.9063,154.5469 179.2813,154.5469 Q177.9375,154.5469 177.25,155.625 Q176.5625,156.6875 176.5625,158.7813 Q176.5625,160.875 177.25,161.9531 Q177.9375,163.0156 179.2813,163.0156 Q179.9063,163.0156 180.5,162.75 Q181.0938,162.4688 181.7188,161.8906 L181.7188,164.6094 Z "/><text fill="#000000" font-family="sans-serif" font-size="14" lengthAdjust="spacingAndGlyphs" textLength="154" x="204.25" y="157.9951">CloudformationSensor</text><text fill="#000000" font-family="sans-serif" font-size="10" lengthAdjust="spacingAndGlyphs" textLength="164" x="199.25" y="170.5791">com.hack23.sonar.cloudformation</text><line style="stroke: #A80036; stroke-width: 1.5;" x1="7" x2="523" y1="177.9375" y2="177.9375"/><ellipse cx="17" cy="188.9375" fill="none" rx="3" ry="3" style="stroke: #038048; stroke-width: 1.0;"/><text fill="#000000" font-family="sans-serif" font-size="11" lengthAdjust="spacingAndGlyphs" text-decoration="underline" textLength="126" x="26" y="192.1479">SENSOR_NAME: String</text><line style="stroke: #A80036; stroke-width: 1.5;" x1="7" x2="523" y1="198.7422" y2="198.7422"/><ellipse cx="17" cy="209.7422" fill="#84BE84" rx="3" ry="3" style="stroke: #038048; stroke-width: 1.0;"/><text fill="#000000" font-family="sans-serif" font-size="11" lengthAdjust="spacingAndGlyphs" textLength="492" x="26" y="212.9526">CloudformationSensor(CloudformationSensorConfiguration, FileSystem, PathResolver)</text><ellipse cx="17" cy="222.5469" fill="#84BE84" rx="3" ry="3" style="stroke: #038048; stroke-width: 1.0;"/><text fill="#000000" font-family="sans-serif" font-size="11" lengthAdjust="spacingAndGlyphs" textLength="188" x="26" y="225.7573">describe(SensorDescriptor): void</text><ellipse cx="17" cy="235.3516" fill="#84BE84" rx="3" ry="3" style="stroke: #038048; stroke-width: 1.0;"/><text fill="#000000" font-family="sans-serif" font-size="11" lengthAdjust="spacingAndGlyphs" textLength="167" x="26" y="238.562">execute(SensorContext): void</text></a><!--MD5=[f8b565af0d68398934f95a4a7e456578]
class org.sonar.api.batch.sensor.Sensor--><rect fill="#FEFECE" filter="url(#f171i71a34hk51)" height="71.5469" id="org.sonar.api.batch.sensor.Sensor" style="stroke: #A80036; stroke-width: 1.5;" width="211" x="159.5" y="8"/><ellipse cx="196.55" cy="26.9688" fill="#B4A7E5" rx="11" ry="11" style="stroke: #A80036; stroke-width: 1.0;"/><path d="M192.4719,22.7344 L192.4719,20.5781 L199.8625,20.5781 L199.8625,22.7344 L197.3938,22.7344 L197.3938,30.8125 L199.8625,30.8125 L199.8625,32.9688 L192.4719,32.9688 L192.4719,30.8125 L194.9406,30.8125 L194.9406,22.7344 L192.4719,22.7344 Z "/><text fill="#000000" font-family="sans-serif" font-size="14" font-style="italic" lengthAdjust="spacingAndGlyphs" textLength="48" x="256.45" y="25.9951">Sensor</text><text fill="#000000" font-family="sans-serif" font-size="10" font-style="italic" lengthAdjust="spacingAndGlyphs" textLength="130" x="215.45" y="38.5791">org.sonar.api.batch.sensor</text><line style="stroke: #A80036; stroke-width: 1.5;" x1="160.5" x2="369.5" y1="45.9375" y2="45.9375"/><ellipse cx="170.5" cy="56.9375" fill="#84BE84" rx="3" ry="3" style="stroke: #038048; stroke-width: 1.0;"/><text fill="#000000" font-family="sans-serif" font-size="11" font-style="italic" lengthAdjust="spacingAndGlyphs" textLength="185" x="179.5" y="60.1479">describe(SensorDescriptor): void</text><ellipse cx="170.5" cy="69.7422" fill="#84BE84" rx="3" ry="3" style="stroke: #038048; stroke-width: 1.0;"/><text fill="#000000" font-family="sans-serif" font-size="11" font-style="italic" lengthAdjust="spacingAndGlyphs" textLength="168" x="179.5" y="72.9526">execute(SensorContext): void</text><!--MD5=[3685ffe233817ba259f4776860359136]
reverse link org.sonar.api.batch.sensor.Sensor to com.hack23.sonar.cloudformation.CloudformationSensor--><path d="M265,100.2 C265,113.18 265,126.96 265,139.78 " fill="none" id="org.sonar.api.batch.sensor.Sensor&lt;-com.hack23.sonar.cloudformation.CloudformationSensor" style="stroke: #A80036; stroke-width: 1.0; stroke-dasharray: 7.0,7.0;"/><polygon fill="none" points="258,100.09,265,80.09,272,100.09,258,100.09" style="stroke: #A80036; stroke-width: 1.0;"/><text fill="#888888" font-family="sans-serif" font-size="10" lengthAdjust="spacingAndGlyphs" textLength="186" x="178" y="264.2822">UMLDoclet 2.0.8, PlantUML 1.2020.01</text><!--MD5=[e5434af4c9a2fa338922fbc01cea2297]
@startuml
    set namespaceSeparator none
    hide empty fields
    hide empty methods

    class "<size:14>CloudformationSensor\n<size:10>com.hack23.sonar.cloudformation" as com.hack23.sonar.cloudformation.CloudformationSensor [[CloudformationSensor.html]] {
        {static} +SENSOR_NAME: String
        +CloudformationSensor(CloudformationSensorConfiguration, FileSystem, PathResolver)
        +describe(SensorDescriptor): void
        +execute(SensorContext): void
    }

    interface "<size:14>Sensor\n<size:10>org.sonar.api.batch.sensor" as org.sonar.api.batch.sensor.Sensor {
        {abstract} +describe(SensorDescriptor): void
        {abstract} +execute(SensorContext): void
    }

    org.sonar.api.batch.sensor.Sensor <|.. com.hack23.sonar.cloudformation.CloudformationSensor

    center footer UMLDoclet 2.0.8, PlantUML 1.2020.01
@enduml

PlantUML version 1.2020.01(Sun Feb 16 18:40:32 CET 2020)
(APACHE source distribution)
Java Runtime: OpenJDK Runtime Environment
JVM: OpenJDK 64-Bit Server VM
Java Version: 11.0.7-ea+9-post-Ubuntu-1ubuntu1
Operating System: Linux
Default Encoding: UTF-8
Language: en
Country: US
--></g></svg>