<?xml version="1.0" encoding="UTF-8" standalone="no"?><svg xmlns="http://www.w3.org/2000/svg" xmlns:xlink="http://www.w3.org/1999/xlink" contentScriptType="application/ecmascript" contentStyleType="text/css" height="274px" preserveAspectRatio="none" style="width:370px;height:274px;background:#FFFFFF;" version="1.1" viewBox="0 0 370 274" width="370px" zoomAndPan="magnify"><defs><filter height="300%" id="fdbezb1of2zcw" width="300%" x="-1" y="-1"><feGaussianBlur result="blurOut" stdDeviation="2.0"/><feColorMatrix in="blurOut" result="blurOut2" type="matrix" values="0 0 0 0 0 0 0 0 0 0 0 0 0 0 0 0 0 0 .4 0"/><feOffset dx="4.0" dy="4.0" in="blurOut2" result="blurOut3"/><feBlend in="SourceGraphic" in2="blurOut3" mode="normal"/></filter></defs><g><!--MD5=[9ad602e740eec67d73c5d598917426ba]
class com.hack23.sonar.cloudformation.CloudformationRulesDefinition--><a href="CloudformationRulesDefinition.html" target="_top" title="CloudformationRulesDefinition.html" xlink:actuate="onRequest" xlink:href="CloudformationRulesDefinition.html" xlink:show="new" xlink:title="CloudformationRulesDefinition.html" xlink:type="simple"><rect codeLine="5" fill="#FEFECE" filter="url(#fdbezb1of2zcw)" height="117.9609" id="com.hack23.sonar.cloudformation.CloudformationRulesDefinition" style="stroke:#A80036;stroke-width:1.5;" width="349" x="7" y="126"/><ellipse cx="72.75" cy="144.9688" fill="#ADD1B2" rx="11" ry="11" style="stroke:#A80036;stroke-width:1.0;"/><path d="M75.7188,150.6094 Q75.1406,150.9063 74.5,151.0469 Q73.8594,151.2031 73.1563,151.2031 Q70.6563,151.2031 69.3281,149.5625 Q68.0156,147.9063 68.0156,144.7813 Q68.0156,141.6563 69.3281,140 Q70.6563,138.3438 73.1563,138.3438 Q73.8594,138.3438 74.5,138.5 Q75.1563,138.6563 75.7188,138.9531 L75.7188,141.6719 Q75.0938,141.0938 74.5,140.8281 Q73.9063,140.5469 73.2813,140.5469 Q71.9375,140.5469 71.25,141.625 Q70.5625,142.6875 70.5625,144.7813 Q70.5625,146.875 71.25,147.9531 Q71.9375,149.0156 73.2813,149.0156 Q73.9063,149.0156 74.5,148.75 Q75.0938,148.4688 75.7188,147.8906 L75.7188,150.6094 Z " fill="#000000"/><text fill="#000000" font-family="sans-serif" font-size="14" lengthAdjust="spacing" textLength="209" x="93.25" y="143.9951">CloudformationRulesDefinition</text><text fill="#000000" font-family="sans-serif" font-size="10" lengthAdjust="spacing" textLength="164" x="115.75" y="156.5791">com.hack23.sonar.cloudformation</text><line style="stroke:#A80036;stroke-width:1.5;" x1="8" x2="355" y1="163.9375" y2="163.9375"/><ellipse cx="18" cy="174.9375" rx="3" ry="3" style="stroke:#038048;stroke-width:1.0;fill:none;"/><text fill="#000000" font-family="sans-serif" font-size="11" lengthAdjust="spacing" text-decoration="underline" textLength="63" x="27" y="178.1479">KEY: String</text><ellipse cx="18" cy="187.7422" rx="3" ry="3" style="stroke:#038048;stroke-width:1.0;fill:none;"/><text fill="#000000" font-family="sans-serif" font-size="11" lengthAdjust="spacing" text-decoration="underline" textLength="73" x="27" y="190.9526">NAME: String</text><line style="stroke:#A80036;stroke-width:1.5;" x1="8" x2="355" y1="197.5469" y2="197.5469"/><ellipse cx="18" cy="208.5469" fill="#84BE84" rx="3" ry="3" style="stroke:#038048;stroke-width:1.0;"/><text fill="#000000" font-family="sans-serif" font-size="11" lengthAdjust="spacing" textLength="323" x="27" y="211.7573">CloudformationRulesDefinition(RulesDefinitionXmlLoader)</text><ellipse cx="18" cy="221.3516" fill="#84BE84" rx="3" ry="3" style="stroke:#038048;stroke-width:1.0;"/><text fill="#000000" font-family="sans-serif" font-size="11" lengthAdjust="spacing" textLength="120" x="27" y="224.562">getContext(): Context</text><ellipse cx="18" cy="234.1563" fill="#84BE84" rx="3" ry="3" style="stroke:#038048;stroke-width:1.0;"/><text fill="#000000" font-family="sans-serif" font-size="11" lengthAdjust="spacing" textLength="117" x="27" y="237.3667">define(Context): void</text></a><!--MD5=[0c41336916cc93e234215d73ea118e70]
class org.sonar.api.server.rule.RulesDefinition--><rect codeLine="13" fill="#FEFECE" filter="url(#fdbezb1of2zcw)" height="58.7422" id="org.sonar.api.server.rule.RulesDefinition" style="stroke:#A80036;stroke-width:1.5;" width="152" x="105.5" y="7"/><ellipse cx="120.5" cy="25.9688" fill="#B4A7E5" rx="11" ry="11" style="stroke:#A80036;stroke-width:1.0;"/><path d="M116.4219,21.7344 L116.4219,19.5781 L123.8125,19.5781 L123.8125,21.7344 L121.3438,21.7344 L121.3438,29.8125 L123.8125,29.8125 L123.8125,31.9688 L116.4219,31.9688 L116.4219,29.8125 L118.8906,29.8125 L118.8906,21.7344 L116.4219,21.7344 Z " fill="#000000"/><text fill="#000000" font-family="sans-serif" font-size="14" font-style="italic" lengthAdjust="spacing" textLength="103" x="143" y="24.9951">RulesDefinition</text><text fill="#000000" font-family="sans-serif" font-size="10" font-style="italic" lengthAdjust="spacing" textLength="120" x="134.5" y="37.5791">org.sonar.api.server.rule</text><line style="stroke:#A80036;stroke-width:1.5;" x1="106.5" x2="256.5" y1="44.9375" y2="44.9375"/><ellipse cx="116.5" cy="55.9375" fill="#84BE84" rx="3" ry="3" style="stroke:#038048;stroke-width:1.0;"/><text fill="#000000" font-family="sans-serif" font-size="11" font-style="italic" lengthAdjust="spacing" textLength="119" x="125.5" y="59.1479">define(Context): void</text><!--MD5=[2bdc00f05ffbda222481780920a1d1de]
reverse link org.sonar.api.server.rule.RulesDefinition to com.hack23.sonar.cloudformation.CloudformationRulesDefinition--><path codeLine="17" d="M181.5,86.1 C181.5,98.8 181.5,112.63 181.5,125.77 " fill="none" id="org.sonar.api.server.rule.RulesDefinition-backto-com.hack23.sonar.cloudformation.CloudformationRulesDefinition" style="stroke:#A80036;stroke-width:1.0;stroke-dasharray:7.0,7.0;"/><polygon fill="none" points="174.5,86.09,181.5,66.09,188.5,86.09,174.5,86.09" style="stroke:#A80036;stroke-width:1.0;"/><text fill="#888888" font-family="sans-serif" font-size="10" lengthAdjust="spacing" textLength="192" x="82.5" y="266.2432">UMLDoclet 2.0.15, PlantUML 1.2021.13</text><!--MD5=[461dbbd963ec7d6f954f8674f02bbe35]
@startuml
    set namespaceSeparator none
    hide empty fields
    hide empty methods

    class "<size:14>CloudformationRulesDefinition\n<size:10>com.hack23.sonar.cloudformation" as com.hack23.sonar.cloudformation.CloudformationRulesDefinition [[CloudformationRulesDefinition.html]] {
        {static} +KEY: String
        {static} +NAME: String
        +CloudformationRulesDefinition(RulesDefinitionXmlLoader)
        +getContext(): Context
        +define(Context): void
    }

    interface "<size:14>RulesDefinition\n<size:10>org.sonar.api.server.rule" as org.sonar.api.server.rule.RulesDefinition {
        {abstract} +define(Context): void
    }

    org.sonar.api.server.rule.RulesDefinition <|.. com.hack23.sonar.cloudformation.CloudformationRulesDefinition

    center footer UMLDoclet 2.0.15, PlantUML 1.2021.13
@enduml

PlantUML version 1.2021.13(Mon Nov 01 12:38:45 CET 2021)
(APACHE source distribution)
Java Runtime: OpenJDK Runtime Environment
JVM: OpenJDK 64-Bit Server VM
Default Encoding: UTF-8
Language: en
Country: US
--></g></svg>