<?xml version="1.0" encoding="UTF-8" standalone="no"?><svg xmlns="http://www.w3.org/2000/svg" xmlns:xlink="http://www.w3.org/1999/xlink" contentStyleType="text/css" height="128px" preserveAspectRatio="none" style="width:395px;height:128px;background:#FFFFFF;" version="1.1" viewBox="0 0 395 128" width="395px" zoomAndPan="magnify"><defs/><g><!--MD5=[c3108af317c2c934cdb7e0b2dc4ec977]
class com.hack23.sonar.cloudformation.CloudformationSensorConfiguration--><a href="CloudformationSensorConfiguration.html" target="_top" title="CloudformationSensorConfiguration.html" xlink:actuate="onRequest" xlink:href="CloudformationSensorConfiguration.html" xlink:show="new" xlink:title="CloudformationSensorConfiguration.html" xlink:type="simple"><g id="elem_com.hack23.sonar.cloudformation.CloudformationSensorConfiguration"><rect codeLine="5" fill="#F1F1F1" height="94.8281" id="com.hack23.sonar.cloudformation.CloudformationSensorConfiguration" rx="2.5" ry="2.5" style="stroke:#181818;stroke-width:0.5;" width="374" x="7" y="7"/><ellipse cx="66.75" cy="25.9688" fill="#ADD1B2" rx="11" ry="11" style="stroke:#181818;stroke-width:1.0;"/><path d="M69.7188,31.6094 Q69.1406,31.9063 68.5,32.0469 Q67.8594,32.2031 67.1563,32.2031 Q64.6563,32.2031 63.3281,30.5625 Q62.0156,28.9063 62.0156,25.7813 Q62.0156,22.6563 63.3281,21 Q64.6563,19.3438 67.1563,19.3438 Q67.8594,19.3438 68.5,19.5 Q69.1563,19.6563 69.7188,19.9531 L69.7188,22.6719 Q69.0938,22.0938 68.5,21.8281 Q67.9063,21.5469 67.2813,21.5469 Q65.9375,21.5469 65.25,22.625 Q64.5625,23.6875 64.5625,25.7813 Q64.5625,27.875 65.25,28.9531 Q65.9375,30.0156 67.2813,30.0156 Q67.9063,30.0156 68.5,29.75 Q69.0938,29.4688 69.7188,28.8906 L69.7188,31.6094 Z " fill="#000000"/><text fill="#000000" font-family="sans-serif" font-size="14" lengthAdjust="spacing" textLength="246" x="87.25" y="24.9951">CloudformationSensorConfiguration</text><text fill="#000000" font-family="sans-serif" font-size="10" lengthAdjust="spacing" textLength="164" x="128.25" y="37.5791">com.hack23.sonar.cloudformation</text><line style="stroke:#181818;stroke-width:0.5;" x1="8" x2="380" y1="44.9375" y2="44.9375"/><ellipse cx="18" cy="58.5859" fill="#84BE84" rx="3" ry="3" style="stroke:#038048;stroke-width:1.0;"/><text fill="#000000" font-family="sans-serif" font-size="14" lengthAdjust="spacing" textLength="348" x="27" y="61.9326">CloudformationSensorConfiguration(Configuration)</text><ellipse cx="18" cy="74.8828" fill="#84BE84" rx="3" ry="3" style="stroke:#038048;stroke-width:1.0;"/><text fill="#000000" font-family="sans-serif" font-size="14" lengthAdjust="spacing" textLength="291" x="27" y="78.2295">getCfnNagReportFiles(): Optional&lt;String&gt;</text><ellipse cx="18" cy="91.1797" fill="#84BE84" rx="3" ry="3" style="stroke:#038048;stroke-width:1.0;"/><text fill="#000000" font-family="sans-serif" font-size="14" lengthAdjust="spacing" textLength="301" x="27" y="94.5264">getCheckovReportFiles(): Optional&lt;String&gt;</text></g></a><rect fill="none" height="11.6406" style="stroke:none;stroke-width:1.0;" width="192" x="97.5" y="108.8281"/><text fill="#888888" font-family="sans-serif" font-size="10" lengthAdjust="spacing" textLength="192" x="97.5" y="118.1104">UMLDoclet 2.0.20, PlantUML 1.2022.12</text><!--MD5=[3fff10297f25c20d75f78a47e3fecec9]
@startuml
    set namespaceSeparator none
    hide empty fields
    hide empty methods

    class "<size:14>CloudformationSensorConfiguration\n<size:10>com.hack23.sonar.cloudformation" as com.hack23.sonar.cloudformation.CloudformationSensorConfiguration [[CloudformationSensorConfiguration.html]] {
        +CloudformationSensorConfiguration(Configuration)
        +getCfnNagReportFiles(): Optional<String>
        +getCheckovReportFiles(): Optional<String>
    }

    center footer UMLDoclet 2.0.20, PlantUML 1.2022.12
@enduml

PlantUML version 1.2022.12(Sun Oct 23 20:12:26 CEST 2022)
(APACHE source distribution)
Java Runtime: OpenJDK Runtime Environment
JVM: OpenJDK 64-Bit Server VM
Default Encoding: UTF-8
Language: en
Country: US
--></g></svg>