<?xml version="1.0" encoding="UTF-8" standalone="no"?><svg xmlns="http://www.w3.org/2000/svg" xmlns:xlink="http://www.w3.org/1999/xlink" contentScriptType="application/ecmascript" contentStyleType="text/css" height="274px" preserveAspectRatio="none" style="width:539px;height:274px;background:#FFFFFF;" version="1.1" viewBox="0 0 539 274" width="539px" zoomAndPan="magnify"><defs><filter height="300%" id="f1w337aepa3opn" width="300%" x="-1" y="-1"><feGaussianBlur result="blurOut" stdDeviation="2.0"/><feColorMatrix in="blurOut" result="blurOut2" type="matrix" values="0 0 0 0 0 0 0 0 0 0 0 0 0 0 0 0 0 0 .4 0"/><feOffset dx="4.0" dy="4.0" in="blurOut2" result="blurOut3"/><feBlend in="SourceGraphic" in2="blurOut3" mode="normal"/></filter></defs><g><!--MD5=[5cd76e2d5be102320ba6d55700009822]
class com.hack23.sonar.cloudformation.CloudformationSensor--><a href="CloudformationSensor.html" target="_top" title="CloudformationSensor.html" xlink:actuate="onRequest" xlink:href="CloudformationSensor.html" xlink:show="new" xlink:title="CloudformationSensor.html" xlink:type="simple"><rect codeLine="5" fill="#FEFECE" filter="url(#f1w337aepa3opn)" height="105.1563" id="com.hack23.sonar.cloudformation.CloudformationSensor" style="stroke:#A80036;stroke-width:1.5;" width="518" x="7" y="139"/><ellipse cx="179.75" cy="157.9688" fill="#ADD1B2" rx="11" ry="11" style="stroke:#A80036;stroke-width:1.0;"/><path d="M182.7188,163.6094 Q182.1406,163.9063 181.5,164.0469 Q180.8594,164.2031 180.1563,164.2031 Q177.6563,164.2031 176.3281,162.5625 Q175.0156,160.9063 175.0156,157.7813 Q175.0156,154.6563 176.3281,153 Q177.6563,151.3438 180.1563,151.3438 Q180.8594,151.3438 181.5,151.5 Q182.1563,151.6563 182.7188,151.9531 L182.7188,154.6719 Q182.0938,154.0938 181.5,153.8281 Q180.9063,153.5469 180.2813,153.5469 Q178.9375,153.5469 178.25,154.625 Q177.5625,155.6875 177.5625,157.7813 Q177.5625,159.875 178.25,160.9531 Q178.9375,162.0156 180.2813,162.0156 Q180.9063,162.0156 181.5,161.75 Q182.0938,161.4688 182.7188,160.8906 L182.7188,163.6094 Z " fill="#000000"/><text fill="#000000" font-family="sans-serif" font-size="14" lengthAdjust="spacing" textLength="154" x="205.25" y="156.9951">CloudformationSensor</text><text fill="#000000" font-family="sans-serif" font-size="10" lengthAdjust="spacing" textLength="164" x="200.25" y="169.5791">com.hack23.sonar.cloudformation</text><line style="stroke:#A80036;stroke-width:1.5;" x1="8" x2="524" y1="176.9375" y2="176.9375"/><ellipse cx="18" cy="187.9375" rx="3" ry="3" style="stroke:#038048;stroke-width:1.0;fill:none;"/><text fill="#000000" font-family="sans-serif" font-size="11" lengthAdjust="spacing" text-decoration="underline" textLength="126" x="27" y="191.1479">SENSOR_NAME: String</text><line style="stroke:#A80036;stroke-width:1.5;" x1="8" x2="524" y1="197.7422" y2="197.7422"/><ellipse cx="18" cy="208.7422" fill="#84BE84" rx="3" ry="3" style="stroke:#038048;stroke-width:1.0;"/><text fill="#000000" font-family="sans-serif" font-size="11" lengthAdjust="spacing" textLength="492" x="27" y="211.9526">CloudformationSensor(CloudformationSensorConfiguration, FileSystem, PathResolver)</text><ellipse cx="18" cy="221.5469" fill="#84BE84" rx="3" ry="3" style="stroke:#038048;stroke-width:1.0;"/><text fill="#000000" font-family="sans-serif" font-size="11" lengthAdjust="spacing" textLength="188" x="27" y="224.7573">describe(SensorDescriptor): void</text><ellipse cx="18" cy="234.3516" fill="#84BE84" rx="3" ry="3" style="stroke:#038048;stroke-width:1.0;"/><text fill="#000000" font-family="sans-serif" font-size="11" lengthAdjust="spacing" textLength="167" x="27" y="237.562">execute(SensorContext): void</text></a><!--MD5=[f8b565af0d68398934f95a4a7e456578]
class org.sonar.api.batch.sensor.Sensor--><rect codeLine="12" fill="#FEFECE" filter="url(#f1w337aepa3opn)" height="71.5469" id="org.sonar.api.batch.sensor.Sensor" style="stroke:#A80036;stroke-width:1.5;" width="211" x="160.5" y="7"/><ellipse cx="197.55" cy="25.9688" fill="#B4A7E5" rx="11" ry="11" style="stroke:#A80036;stroke-width:1.0;"/><path d="M193.4719,21.7344 L193.4719,19.5781 L200.8625,19.5781 L200.8625,21.7344 L198.3938,21.7344 L198.3938,29.8125 L200.8625,29.8125 L200.8625,31.9688 L193.4719,31.9688 L193.4719,29.8125 L195.9406,29.8125 L195.9406,21.7344 L193.4719,21.7344 Z " fill="#000000"/><text fill="#000000" font-family="sans-serif" font-size="14" font-style="italic" lengthAdjust="spacing" textLength="48" x="257.45" y="24.9951">Sensor</text><text fill="#000000" font-family="sans-serif" font-size="10" font-style="italic" lengthAdjust="spacing" textLength="130" x="216.45" y="37.5791">org.sonar.api.batch.sensor</text><line style="stroke:#A80036;stroke-width:1.5;" x1="161.5" x2="370.5" y1="44.9375" y2="44.9375"/><ellipse cx="171.5" cy="55.9375" fill="#84BE84" rx="3" ry="3" style="stroke:#038048;stroke-width:1.0;"/><text fill="#000000" font-family="sans-serif" font-size="11" font-style="italic" lengthAdjust="spacing" textLength="185" x="180.5" y="59.1479">describe(SensorDescriptor): void</text><ellipse cx="171.5" cy="68.7422" fill="#84BE84" rx="3" ry="3" style="stroke:#038048;stroke-width:1.0;"/><text fill="#000000" font-family="sans-serif" font-size="11" font-style="italic" lengthAdjust="spacing" textLength="168" x="180.5" y="71.9526">execute(SensorContext): void</text><!--MD5=[3685ffe233817ba259f4776860359136]
reverse link org.sonar.api.batch.sensor.Sensor to com.hack23.sonar.cloudformation.CloudformationSensor--><path codeLine="17" d="M266,99.2 C266,112.18 266,125.96 266,138.78 " fill="none" id="org.sonar.api.batch.sensor.Sensor-backto-com.hack23.sonar.cloudformation.CloudformationSensor" style="stroke:#A80036;stroke-width:1.0;stroke-dasharray:7.0,7.0;"/><polygon fill="none" points="259,99.09,266,79.09,273,99.09,259,99.09" style="stroke:#A80036;stroke-width:1.0;"/><text fill="#888888" font-family="sans-serif" font-size="10" lengthAdjust="spacing" textLength="192" x="167" y="266.4385">UMLDoclet 2.0.15, PlantUML 1.2021.13</text><!--MD5=[6aca4a83538dc3000c9948871f14f827]
@startuml
    set namespaceSeparator none
    hide empty fields
    hide empty methods

    class "<size:14>CloudformationSensor\n<size:10>com.hack23.sonar.cloudformation" as com.hack23.sonar.cloudformation.CloudformationSensor [[CloudformationSensor.html]] {
        {static} +SENSOR_NAME: String
        +CloudformationSensor(CloudformationSensorConfiguration, FileSystem, PathResolver)
        +describe(SensorDescriptor): void
        +execute(SensorContext): void
    }

    interface "<size:14>Sensor\n<size:10>org.sonar.api.batch.sensor" as org.sonar.api.batch.sensor.Sensor {
        {abstract} +describe(SensorDescriptor): void
        {abstract} +execute(SensorContext): void
    }

    org.sonar.api.batch.sensor.Sensor <|.. com.hack23.sonar.cloudformation.CloudformationSensor

    center footer UMLDoclet 2.0.15, PlantUML 1.2021.13
@enduml

PlantUML version 1.2021.13(Mon Nov 01 12:38:45 CET 2021)
(APACHE source distribution)
Java Runtime: OpenJDK Runtime Environment
JVM: OpenJDK 64-Bit Server VM
Default Encoding: UTF-8
Language: en
Country: US
--></g></svg>