<?xml version="1.0" encoding="UTF-8" standalone="no"?><svg xmlns="http://www.w3.org/2000/svg" xmlns:xlink="http://www.w3.org/1999/xlink" contentScriptType="application/ecmascript" contentStyleType="text/css" height="108px" preserveAspectRatio="none" style="width:332px;height:108px;" version="1.1" viewBox="0 0 332 108" width="332px" zoomAndPan="magnify"><defs><filter height="300%" id="fhjkcicsbx5n1" width="300%" x="-1" y="-1"><feGaussianBlur result="blurOut" stdDeviation="2.0"/><feColorMatrix in="blurOut" result="blurOut2" type="matrix" values="0 0 0 0 0 0 0 0 0 0 0 0 0 0 0 0 0 0 .4 0"/><feOffset dx="4.0" dy="4.0" in="blurOut2" result="blurOut3"/><feBlend in="SourceGraphic" in2="blurOut3" mode="normal"/></filter></defs><g><!--MD5=[c3108af317c2c934cdb7e0b2dc4ec977]
class com.hack23.sonar.cloudformation.CloudformationSensorConfiguration--><a href="CloudformationSensorConfiguration.html" target="_top" title="CloudformationSensorConfiguration.html" xlink:actuate="onRequest" xlink:href="CloudformationSensorConfiguration.html" xlink:show="new" xlink:title="CloudformationSensorConfiguration.html" xlink:type="simple"><rect fill="#FEFECE" filter="url(#fhjkcicsbx5n1)" height="71.5469" id="com.hack23.sonar.cloudformation.CloudformationSensorConfiguration" style="stroke: #A80036; stroke-width: 1.5;" width="314" x="7" y="7"/><ellipse cx="38.2" cy="25.9688" fill="#ADD1B2" rx="11" ry="11" style="stroke: #A80036; stroke-width: 1.0;"/><path d="M41.1688,31.6094 Q40.5906,31.9063 39.95,32.0469 Q39.3094,32.2031 38.6063,32.2031 Q36.1063,32.2031 34.7781,30.5625 Q33.4656,28.9063 33.4656,25.7813 Q33.4656,22.6563 34.7781,21 Q36.1063,19.3438 38.6063,19.3438 Q39.3094,19.3438 39.95,19.5 Q40.6063,19.6563 41.1688,19.9531 L41.1688,22.6719 Q40.5438,22.0938 39.95,21.8281 Q39.3563,21.5469 38.7313,21.5469 Q37.3875,21.5469 36.7,22.625 Q36.0125,23.6875 36.0125,25.7813 Q36.0125,27.875 36.7,28.9531 Q37.3875,30.0156 38.7313,30.0156 Q39.3563,30.0156 39.95,29.75 Q40.5438,29.4688 41.1688,28.8906 L41.1688,31.6094 Z "/><text fill="#000000" font-family="sans-serif" font-size="14" lengthAdjust="spacingAndGlyphs" textLength="246" x="55.8" y="24.9951">CloudformationSensorConfiguration</text><text fill="#000000" font-family="sans-serif" font-size="10" lengthAdjust="spacingAndGlyphs" textLength="164" x="96.8" y="37.5791">com.hack23.sonar.cloudformation</text><line style="stroke: #A80036; stroke-width: 1.5;" x1="8" x2="320" y1="44.9375" y2="44.9375"/><ellipse cx="18" cy="55.9375" fill="#84BE84" rx="3" ry="3" style="stroke: #038048; stroke-width: 1.0;"/><text fill="#000000" font-family="sans-serif" font-size="11" lengthAdjust="spacingAndGlyphs" textLength="288" x="27" y="59.1479">CloudformationSensorConfiguration(Configuration)</text><ellipse cx="18" cy="68.7422" fill="#84BE84" rx="3" ry="3" style="stroke: #038048; stroke-width: 1.0;"/><text fill="#000000" font-family="sans-serif" font-size="11" lengthAdjust="spacingAndGlyphs" textLength="196" x="27" y="71.9526">getReportFiles(): Optional&lt;String&gt;</text></a><text fill="#888888" font-family="sans-serif" font-size="10" lengthAdjust="spacingAndGlyphs" textLength="186" x="71" y="94.8291">UMLDoclet 2.0.7, PlantUML 1.2019.12</text><!--MD5=[819174d5d604d8bb97b45e81ca3e1aa3]
@startuml
    set namespaceSeparator none
    hide empty fields
    hide empty methods

    class "<size:14>CloudformationSensorConfiguration\n<size:10>com.hack23.sonar.cloudformation" as com.hack23.sonar.cloudformation.CloudformationSensorConfiguration [[CloudformationSensorConfiguration.html]] {
        +CloudformationSensorConfiguration(Configuration)
        +getReportFiles(): Optional<String>
    }

    center footer UMLDoclet 2.0.7, PlantUML 1.2019.12
@enduml

PlantUML version 1.2019.12(Sun Nov 03 11:24:54 CET 2019)
(APACHE source distribution)
Java Runtime: OpenJDK Runtime Environment
JVM: OpenJDK 64-Bit Server VM
Java Version: 11.0.6+10-post-Ubuntu-1ubuntu119.10.1
Operating System: Linux
Default Encoding: UTF-8
Language: en
Country: US
--></g></svg>