<?xml version="1.0" encoding="UTF-8" standalone="no"?><svg xmlns="http://www.w3.org/2000/svg" xmlns:xlink="http://www.w3.org/1999/xlink" contentScriptType="application/ecmascript" contentStyleType="text/css" height="129px" preserveAspectRatio="none" style="width:276px;height:129px;" version="1.1" viewBox="0 0 276 129" width="276px" zoomAndPan="magnify"><defs><filter height="300%" id="flzw4p2n5w07w" width="300%" x="-1" y="-1"><feGaussianBlur result="blurOut" stdDeviation="2.0"/><feColorMatrix in="blurOut" result="blurOut2" type="matrix" values="0 0 0 0 0 0 0 0 0 0 0 0 0 0 0 0 0 0 .4 0"/><feOffset dx="4.0" dy="4.0" in="blurOut2" result="blurOut3"/><feBlend in="SourceGraphic" in2="blurOut3" mode="normal"/></filter></defs><g><!--MD5=[17b8c490b45d6f269308ea962cf0181d]
class com.hack23.sonar.cloudformation.CloudformationProperties--><a href="CloudformationProperties.html" target="_top" title="CloudformationProperties.html" xlink:actuate="onRequest" xlink:href="CloudformationProperties.html" xlink:show="new" xlink:title="CloudformationProperties.html" xlink:type="simple"><rect fill="#FEFECE" filter="url(#flzw4p2n5w07w)" height="92.3516" id="com.hack23.sonar.cloudformation.CloudformationProperties" style="stroke: #A80036; stroke-width: 1.5;" width="258" x="7" y="7"/><ellipse cx="44.5" cy="25.9688" fill="#ADD1B2" rx="11" ry="11" style="stroke: #A80036; stroke-width: 1.0;"/><path d="M47.4688,31.6094 Q46.8906,31.9063 46.25,32.0469 Q45.6094,32.2031 44.9063,32.2031 Q42.4063,32.2031 41.0781,30.5625 Q39.7656,28.9063 39.7656,25.7813 Q39.7656,22.6563 41.0781,21 Q42.4063,19.3438 44.9063,19.3438 Q45.6094,19.3438 46.25,19.5 Q46.9063,19.6563 47.4688,19.9531 L47.4688,22.6719 Q46.8438,22.0938 46.25,21.8281 Q45.6563,21.5469 45.0313,21.5469 Q43.6875,21.5469 43,22.625 Q42.3125,23.6875 42.3125,25.7813 Q42.3125,27.875 43,28.9531 Q43.6875,30.0156 45.0313,30.0156 Q45.6563,30.0156 46.25,29.75 Q46.8438,29.4688 47.4688,28.8906 L47.4688,31.6094 Z "/><text fill="#000000" font-family="sans-serif" font-size="14" lengthAdjust="spacingAndGlyphs" textLength="176" x="63.5" y="24.9951">CloudformationProperties</text><text fill="#000000" font-family="sans-serif" font-size="10" lengthAdjust="spacingAndGlyphs" textLength="164" x="69.5" y="37.5791">com.hack23.sonar.cloudformation</text><line style="stroke: #A80036; stroke-width: 1.5;" x1="8" x2="264" y1="44.9375" y2="44.9375"/><ellipse cx="18" cy="55.9375" fill="none" rx="3" ry="3" style="stroke: #038048; stroke-width: 1.0;"/><text fill="#000000" font-family="sans-serif" font-size="11" lengthAdjust="spacingAndGlyphs" text-decoration="underline" textLength="150" x="27" y="59.1479">FILE_SUFFIXES_KEY: String</text><ellipse cx="18" cy="68.7422" fill="none" rx="3" ry="3" style="stroke: #038048; stroke-width: 1.0;"/><text fill="#000000" font-family="sans-serif" font-size="11" lengthAdjust="spacingAndGlyphs" text-decoration="underline" textLength="219" x="27" y="71.9526">FILE_SUFFIXES_DEFAULT_VALUE: String</text><line style="stroke: #A80036; stroke-width: 1.5;" x1="8" x2="264" y1="78.5469" y2="78.5469"/><ellipse cx="18" cy="89.5469" fill="#84BE84" rx="3" ry="3" style="stroke: #038048; stroke-width: 1.0;"/><text fill="#000000" font-family="sans-serif" font-size="11" lengthAdjust="spacingAndGlyphs" text-decoration="underline" textLength="232" x="27" y="92.7573">getProperties(): List&lt;PropertyDefinition&gt;</text></a><text fill="#888888" font-family="sans-serif" font-size="10" lengthAdjust="spacingAndGlyphs" textLength="186" x="43" y="115.6338">UMLDoclet 2.0.7, PlantUML 1.2019.12</text><!--MD5=[d67d1d191a1099a0b36505cfe33fe163]
@startuml
    set namespaceSeparator none
    hide empty fields
    hide empty methods

    class "<size:14>CloudformationProperties\n<size:10>com.hack23.sonar.cloudformation" as com.hack23.sonar.cloudformation.CloudformationProperties [[CloudformationProperties.html]] {
        {static} +FILE_SUFFIXES_KEY: String
        {static} +FILE_SUFFIXES_DEFAULT_VALUE: String
        {static} +getProperties(): List<PropertyDefinition>
    }

    center footer UMLDoclet 2.0.7, PlantUML 1.2019.12
@enduml

PlantUML version 1.2019.12(Sun Nov 03 11:24:54 CET 2019)
(APACHE source distribution)
Java Runtime: OpenJDK Runtime Environment
JVM: OpenJDK 64-Bit Server VM
Java Version: 11.0.5+10-post-Ubuntu-0ubuntu1.1
Operating System: Linux
Default Encoding: UTF-8
Language: en
Country: US
--></g></svg>