<?xml version="1.0" encoding="UTF-8" standalone="no"?><svg xmlns="http://www.w3.org/2000/svg" xmlns:xlink="http://www.w3.org/1999/xlink" contentScriptType="application/ecmascript" contentStyleType="text/css" height="233px" preserveAspectRatio="none" style="width:261px;height:233px;" version="1.1" viewBox="0 0 261 233" width="261px" zoomAndPan="magnify"><defs><filter height="300%" id="f1lkq259ok5zz3" width="300%" x="-1" y="-1"><feGaussianBlur result="blurOut" stdDeviation="2.0"/><feColorMatrix in="blurOut" result="blurOut2" type="matrix" values="0 0 0 0 0 0 0 0 0 0 0 0 0 0 0 0 0 0 .4 0"/><feOffset dx="4.0" dy="4.0" in="blurOut2" result="blurOut3"/><feBlend in="SourceGraphic" in2="blurOut3" mode="normal"/></filter></defs><g><!--MD5=[fe768997cbfd64bbe9e45e6331c668d3]
class com.hack23.sonar.cloudformation.CloudformationQualityProfile--><a href="CloudformationQualityProfile.html" target="_top" title="CloudformationQualityProfile.html" xlink:actuate="onRequest" xlink:href="CloudformationQualityProfile.html" xlink:show="new" xlink:title="CloudformationQualityProfile.html" xlink:type="simple"><rect codeLine="5" fill="#FEFECE" filter="url(#f1lkq259ok5zz3)" height="71.5469" id="com.hack23.sonar.cloudformation.CloudformationQualityProfile" style="stroke: #A80036; stroke-width: 1.5;" width="225" x="12" y="126"/><ellipse cx="27" cy="144.9688" fill="#ADD1B2" rx="11" ry="11" style="stroke: #A80036; stroke-width: 1.0;"/><path d="M29.9688,150.6094 Q29.3906,150.9063 28.75,151.0469 Q28.1094,151.2031 27.4063,151.2031 Q24.9063,151.2031 23.5781,149.5625 Q22.2656,147.9063 22.2656,144.7813 Q22.2656,141.6563 23.5781,140 Q24.9063,138.3438 27.4063,138.3438 Q28.1094,138.3438 28.75,138.5 Q29.4063,138.6563 29.9688,138.9531 L29.9688,141.6719 Q29.3438,141.0938 28.75,140.8281 Q28.1563,140.5469 27.5313,140.5469 Q26.1875,140.5469 25.5,141.625 Q24.8125,142.6875 24.8125,144.7813 Q24.8125,146.875 25.5,147.9531 Q26.1875,149.0156 27.5313,149.0156 Q28.1563,149.0156 28.75,148.75 Q29.3438,148.4688 29.9688,147.8906 L29.9688,150.6094 Z "/><text fill="#000000" font-family="sans-serif" font-size="14" lengthAdjust="spacingAndGlyphs" textLength="193" x="41" y="143.9951">CloudformationQualityProfile</text><text fill="#000000" font-family="sans-serif" font-size="10" lengthAdjust="spacingAndGlyphs" textLength="164" x="55.5" y="156.5791">com.hack23.sonar.cloudformation</text><line style="stroke: #A80036; stroke-width: 1.5;" x1="13" x2="236" y1="163.9375" y2="163.9375"/><ellipse cx="23" cy="174.9375" fill="#84BE84" rx="3" ry="3" style="stroke: #038048; stroke-width: 1.0;"/><text fill="#000000" font-family="sans-serif" font-size="11" lengthAdjust="spacingAndGlyphs" text-decoration="underline" textLength="140" x="32" y="178.1479">hasRule(String): boolean</text><ellipse cx="23" cy="187.7422" fill="#84BE84" rx="3" ry="3" style="stroke: #038048; stroke-width: 1.0;"/><text fill="#000000" font-family="sans-serif" font-size="11" lengthAdjust="spacingAndGlyphs" textLength="117" x="32" y="190.9526">define(Context): void</text></a><!--MD5=[bccf4df98d34ca024eaa4f9d7ebedb88]
class org.sonar.api.server.profile.BuiltInQualityProfilesDefinition--><rect codeLine="10" fill="#FEFECE" filter="url(#f1lkq259ok5zz3)" height="58.7422" id="org.sonar.api.server.profile.BuiltInQualityProfilesDefinition" style="stroke: #A80036; stroke-width: 1.5;" width="235" x="7" y="7"/><ellipse cx="22" cy="25.9688" fill="#B4A7E5" rx="11" ry="11" style="stroke: #A80036; stroke-width: 1.0;"/><path d="M17.9219,21.7344 L17.9219,19.5781 L25.3125,19.5781 L25.3125,21.7344 L22.8438,21.7344 L22.8438,29.8125 L25.3125,29.8125 L25.3125,31.9688 L17.9219,31.9688 L17.9219,29.8125 L20.3906,29.8125 L20.3906,21.7344 L17.9219,21.7344 Z "/><text fill="#000000" font-family="sans-serif" font-size="14" font-style="italic" lengthAdjust="spacingAndGlyphs" textLength="203" x="36" y="24.9951">BuiltInQualityProfilesDefinition</text><text fill="#000000" font-family="sans-serif" font-size="10" font-style="italic" lengthAdjust="spacingAndGlyphs" textLength="133" x="71" y="37.5791">org.sonar.api.server.profile</text><line style="stroke: #A80036; stroke-width: 1.5;" x1="8" x2="241" y1="44.9375" y2="44.9375"/><ellipse cx="18" cy="55.9375" fill="#84BE84" rx="3" ry="3" style="stroke: #038048; stroke-width: 1.0;"/><text fill="#000000" font-family="sans-serif" font-size="11" font-style="italic" lengthAdjust="spacingAndGlyphs" textLength="119" x="27" y="59.1479">define(Context): void</text><!--MD5=[63fe7b739a87e21952d62265d328e55c]
reverse link org.sonar.api.server.profile.BuiltInQualityProfilesDefinition to com.hack23.sonar.cloudformation.CloudformationQualityProfile--><path codeLine="14" d="M124.5,86.46 C124.5,99.64 124.5,113.64 124.5,125.9 " fill="none" id="org.sonar.api.server.profile.BuiltInQualityProfilesDefinition-backto-com.hack23.sonar.cloudformation.CloudformationQualityProfile" style="stroke: #A80036; stroke-width: 1.0; stroke-dasharray: 7.0,7.0;"/><polygon fill="none" points="117.5,86.14,124.5,66.14,131.5,86.14,117.5,86.14" style="stroke: #A80036; stroke-width: 1.0;"/><text fill="#888888" font-family="sans-serif" font-size="10" lengthAdjust="spacingAndGlyphs" textLength="192" x="25.5" y="219.8291">UMLDoclet 2.0.12, PlantUML 1.2020.16</text><!--MD5=[1171d30527f3705c8297c42758736ca5]
@startuml
    set namespaceSeparator none
    hide empty fields
    hide empty methods

    class "<size:14>CloudformationQualityProfile\n<size:10>com.hack23.sonar.cloudformation" as com.hack23.sonar.cloudformation.CloudformationQualityProfile [[CloudformationQualityProfile.html]] {
        {static} +hasRule(String): boolean
        +define(Context): void
    }

    interface "<size:14>BuiltInQualityProfilesDefinition\n<size:10>org.sonar.api.server.profile" as org.sonar.api.server.profile.BuiltInQualityProfilesDefinition {
        {abstract} +define(Context): void
    }

    org.sonar.api.server.profile.BuiltInQualityProfilesDefinition <|.. com.hack23.sonar.cloudformation.CloudformationQualityProfile

    center footer UMLDoclet 2.0.12, PlantUML 1.2020.16
@enduml

PlantUML version 1.2020.16(Sun Aug 23 22:20:43 CEST 2020)
(APACHE source distribution)
Java Runtime: OpenJDK Runtime Environment
JVM: OpenJDK 64-Bit Server VM
Default Encoding: UTF-8
Language: en
Country: US
--></g></svg>