<?xml version="1.0" encoding="UTF-8" standalone="no"?><svg xmlns="http://www.w3.org/2000/svg" xmlns:xlink="http://www.w3.org/1999/xlink" contentScriptType="application/ecmascript" contentStyleType="text/css" height="218px" preserveAspectRatio="none" style="width:259px;height:218px;" version="1.1" viewBox="0 0 259 218" width="259px" zoomAndPan="magnify"><defs><filter height="300%" id="f19318bzat6x87" width="300%" x="-1" y="-1"><feGaussianBlur result="blurOut" stdDeviation="2.0"/><feColorMatrix in="blurOut" result="blurOut2" type="matrix" values="0 0 0 0 0 0 0 0 0 0 0 0 0 0 0 0 0 0 .4 0"/><feOffset dx="4.0" dy="4.0" in="blurOut2" result="blurOut3"/><feBlend in="SourceGraphic" in2="blurOut3" mode="normal"/></filter></defs><g><!--class com.hack23.sonar.cloudformation.CloudformationPlugin--><a href="CloudformationPlugin.html" target="_top" xlink:actuate="onRequest" xlink:show="new" xlink:title="CloudformationPlugin.html" xlink:type="simple"><rect fill="#FEFECE" filter="url(#f19318bzat6x87)" height="58.7422" id="com.hack23.sonar.cloudformation.CloudformationPlugin" style="stroke: #A80036; stroke-width: 1.5;" width="196" x="19.5" y="127"/><ellipse cx="34.5" cy="145.9688" fill="#ADD1B2" rx="11" ry="11" style="stroke: #A80036; stroke-width: 1.0;"/><path d="M37.4688,151.6094 Q36.8906,151.9063 36.25,152.0469 Q35.6094,152.2031 34.9063,152.2031 Q32.4063,152.2031 31.0781,150.5625 Q29.7656,148.9063 29.7656,145.7813 Q29.7656,142.6563 31.0781,141 Q32.4063,139.3438 34.9063,139.3438 Q35.6094,139.3438 36.25,139.5 Q36.9063,139.6563 37.4688,139.9531 L37.4688,142.6719 Q36.8438,142.0938 36.25,141.8281 Q35.6563,141.5469 35.0313,141.5469 Q33.6875,141.5469 33,142.625 Q32.3125,143.6875 32.3125,145.7813 Q32.3125,147.875 33,148.9531 Q33.6875,150.0156 35.0313,150.0156 Q35.6563,150.0156 36.25,149.75 Q36.8438,149.4688 37.4688,148.8906 L37.4688,151.6094 Z "/><text fill="#000000" font-family="sans-serif" font-size="14" lengthAdjust="spacingAndGlyphs" textLength="147" x="57" y="144.9951">CloudformationPlugin</text><text fill="#000000" font-family="sans-serif" font-size="10" lengthAdjust="spacingAndGlyphs" textLength="164" x="48.5" y="157.5791">com.hack23.sonar.cloudformation</text><line style="stroke: #A80036; stroke-width: 1.5;" x1="20.5" x2="214.5" y1="164.9375" y2="164.9375"/><ellipse cx="30.5" cy="176.8398" fill="#84BE84" rx="3" ry="3" style="stroke: #038048; stroke-width: 1.0;"/><text fill="#000000" font-family="sans-serif" font-size="11" lengthAdjust="spacingAndGlyphs" textLength="117" x="39.5" y="179.1479">define(Context): void</text></a><!--class org.sonar.api.Plugin--><rect fill="#FEFECE" filter="url(#f19318bzat6x87)" height="58.7422" id="org.sonar.api.Plugin" style="stroke: #A80036; stroke-width: 1.5;" width="145" x="45" y="8"/><ellipse cx="82.05" cy="26.9688" fill="#B4A7E5" rx="11" ry="11" style="stroke: #A80036; stroke-width: 1.0;"/><path d="M77.9719,22.7344 L77.9719,20.5781 L85.3625,20.5781 L85.3625,22.7344 L82.8938,22.7344 L82.8938,30.8125 L85.3625,30.8125 L85.3625,32.9688 L77.9719,32.9688 L77.9719,30.8125 L80.4406,30.8125 L80.4406,22.7344 L77.9719,22.7344 Z "/><text fill="#000000" font-family="sans-serif" font-size="14" font-style="italic" lengthAdjust="spacingAndGlyphs" textLength="41" x="112.45" y="25.9951">Plugin</text><text fill="#000000" font-family="sans-serif" font-size="10" font-style="italic" lengthAdjust="spacingAndGlyphs" textLength="64" x="100.95" y="38.5791">org.sonar.api</text><line style="stroke: #A80036; stroke-width: 1.5;" x1="46" x2="189" y1="45.9375" y2="45.9375"/><ellipse cx="56" cy="57.8398" fill="#84BE84" rx="3" ry="3" style="stroke: #038048; stroke-width: 1.0;"/><text fill="#000000" font-family="sans-serif" font-size="11" font-style="italic" lengthAdjust="spacingAndGlyphs" textLength="119" x="65" y="60.1479">define(Context): void</text><!--link org.sonar.api.Plugin to com.hack23.sonar.cloudformation.CloudformationPlugin--><path d="M117.5,87.3288 C117.5,100.7348 117.5,114.8139 117.5,126.7447 " fill="none" id="org.sonar.api.Plugin-com.hack23.sonar.cloudformation.CloudformationPlugin" style="stroke: #A80036; stroke-width: 1.0; stroke-dasharray: 7.0,7.0;"/><polygon fill="none" points="110.5001,87.2218,117.5,67.2218,124.5001,87.2217,110.5001,87.2218" style="stroke: #A80036; stroke-width: 1.0;"/><text fill="#888888" font-family="sans-serif" font-size="10" lengthAdjust="spacingAndGlyphs" textLength="247" x="0" y="205.2822">UMLDoclet 2.0.3-SNAPSHOT, PlantUML 1.2019.06</text><!--
@startuml
    set namespaceSeparator none
    hide empty fields
    hide empty methods

    class "<size:14>CloudformationPlugin\n<size:10>com.hack23.sonar.cloudformation" as com.hack23.sonar.cloudformation.CloudformationPlugin [[CloudformationPlugin.html]] {
        +define(Context): void
    }

    interface "<size:14>Plugin\n<size:10>org.sonar.api" as org.sonar.api.Plugin {
        {abstract} +define(Context): void
    }

    org.sonar.api.Plugin <|.. com.hack23.sonar.cloudformation.CloudformationPlugin

    center footer UMLDoclet 2.0.3-SNAPSHOT, PlantUML 1.2019.06
@enduml

PlantUML version 1.2019.06(Fri May 24 19:10:25 CEST 2019)
(GPL source distribution)
Java Runtime: Java(TM) SE Runtime Environment
JVM: Java HotSpot(TM) 64-Bit Server VM
Java Version: 11-ea+5
Operating System: Linux
OS Version: 5.0.0-15-generic
Default Encoding: UTF-8
Language: en
Country: US
--></g></svg>