<?xml version="1.0" encoding="UTF-8" standalone="no"?><svg xmlns="http://www.w3.org/2000/svg" xmlns:xlink="http://www.w3.org/1999/xlink" contentScriptType="application/ecmascript" contentStyleType="text/css" height="108px" preserveAspectRatio="none" style="width:298px;height:108px;" version="1.1" viewBox="0 0 298 108" width="298px" zoomAndPan="magnify"><defs><filter height="300%" id="fehddjxtx1qh3" width="300%" x="-1" y="-1"><feGaussianBlur result="blurOut" stdDeviation="2.0"/><feColorMatrix in="blurOut" result="blurOut2" type="matrix" values="0 0 0 0 0 0 0 0 0 0 0 0 0 0 0 0 0 0 .4 0"/><feOffset dx="4.0" dy="4.0" in="blurOut2" result="blurOut3"/><feBlend in="SourceGraphic" in2="blurOut3" mode="normal"/></filter></defs><g><!--MD5=[0d6d0e5b973745eeb597137a51ee0af0]
class com.hack23.sonar.cloudformation.CloudformationConstants--><a href="CloudformationConstants.html" target="_top" title="CloudformationConstants.html" xlink:actuate="onRequest" xlink:href="CloudformationConstants.html" xlink:show="new" xlink:title="CloudformationConstants.html" xlink:type="simple"><rect codeLine="5" fill="#FEFECE" filter="url(#fehddjxtx1qh3)" height="71.5469" id="com.hack23.sonar.cloudformation.CloudformationConstants" style="stroke: #A80036; stroke-width: 1.5;" width="272" x="7" y="7"/><ellipse cx="50.8" cy="25.9688" fill="#ADD1B2" rx="11" ry="11" style="stroke: #A80036; stroke-width: 1.0;"/><path d="M53.7688,31.6094 Q53.1906,31.9063 52.55,32.0469 Q51.9094,32.2031 51.2063,32.2031 Q48.7063,32.2031 47.3781,30.5625 Q46.0656,28.9063 46.0656,25.7813 Q46.0656,22.6563 47.3781,21 Q48.7063,19.3438 51.2063,19.3438 Q51.9094,19.3438 52.55,19.5 Q53.2063,19.6563 53.7688,19.9531 L53.7688,22.6719 Q53.1438,22.0938 52.55,21.8281 Q51.9563,21.5469 51.3313,21.5469 Q49.9875,21.5469 49.3,22.625 Q48.6125,23.6875 48.6125,25.7813 Q48.6125,27.875 49.3,28.9531 Q49.9875,30.0156 51.3313,30.0156 Q51.9563,30.0156 52.55,29.75 Q53.1438,29.4688 53.7688,28.8906 L53.7688,31.6094 Z "/><text fill="#000000" font-family="sans-serif" font-size="14" lengthAdjust="spacingAndGlyphs" textLength="176" x="71.2" y="24.9951">CloudformationConstants</text><text fill="#000000" font-family="sans-serif" font-size="10" lengthAdjust="spacingAndGlyphs" textLength="164" x="77.2" y="37.5791">com.hack23.sonar.cloudformation</text><line style="stroke: #A80036; stroke-width: 1.5;" x1="8" x2="278" y1="44.9375" y2="44.9375"/><ellipse cx="18" cy="55.9375" fill="none" rx="3" ry="3" style="stroke: #038048; stroke-width: 1.0;"/><text fill="#000000" font-family="sans-serif" font-size="11" lengthAdjust="spacingAndGlyphs" text-decoration="underline" textLength="244" x="27" y="59.1479">CFN_NAG_REPORT_FILES_PROPERTY: String</text><ellipse cx="18" cy="68.7422" fill="none" rx="3" ry="3" style="stroke: #038048; stroke-width: 1.0;"/><text fill="#000000" font-family="sans-serif" font-size="11" lengthAdjust="spacingAndGlyphs" text-decoration="underline" textLength="246" x="27" y="71.9526">CHECKOV_REPORT_FILES_PROPERTY: String</text></a><text fill="#888888" font-family="sans-serif" font-size="10" lengthAdjust="spacingAndGlyphs" textLength="192" x="47" y="94.8291">UMLDoclet 2.0.12, PlantUML 1.2020.16</text><!--MD5=[56050d16e019e2d801d6273a78dc43ec]
@startuml
    set namespaceSeparator none
    hide empty fields
    hide empty methods

    class "<size:14>CloudformationConstants\n<size:10>com.hack23.sonar.cloudformation" as com.hack23.sonar.cloudformation.CloudformationConstants [[CloudformationConstants.html]] {
        {static} +CFN_NAG_REPORT_FILES_PROPERTY: String
        {static} +CHECKOV_REPORT_FILES_PROPERTY: String
    }

    center footer UMLDoclet 2.0.12, PlantUML 1.2020.16
@enduml

PlantUML version 1.2020.16(Sun Aug 23 22:20:43 CEST 2020)
(APACHE source distribution)
Java Runtime: OpenJDK Runtime Environment
JVM: OpenJDK 64-Bit Server VM
Default Encoding: UTF-8
Language: en
Country: US
--></g></svg>