<?xml version="1.0" encoding="UTF-8" standalone="no"?><svg xmlns="http://www.w3.org/2000/svg" xmlns:xlink="http://www.w3.org/1999/xlink" contentStyleType="text/css" height="95px" preserveAspectRatio="none" style="width:330px;height:95px;background:#FFFFFF;" version="1.1" viewBox="0 0 330 95" width="330px" zoomAndPan="magnify"><defs/><g><!--MD5=[17b8c490b45d6f269308ea962cf0181d]
class com.hack23.sonar.cloudformation.CloudformationProperties--><a href="CloudformationProperties.html" target="_top" title="CloudformationProperties.html" xlink:actuate="onRequest" xlink:href="CloudformationProperties.html" xlink:show="new" xlink:title="CloudformationProperties.html" xlink:type="simple"><g id="elem_com.hack23.sonar.cloudformation.CloudformationProperties"><rect codeLine="5" fill="#F1F1F1" height="62.2344" id="com.hack23.sonar.cloudformation.CloudformationProperties" rx="2.5" ry="2.5" style="stroke:#181818;stroke-width:0.5;" width="309" x="7" y="7"/><ellipse cx="69.25" cy="25.9688" fill="#ADD1B2" rx="11" ry="11" style="stroke:#181818;stroke-width:1.0;"/><path d="M72.2188,31.6094 Q71.6406,31.9063 71,32.0469 Q70.3594,32.2031 69.6563,32.2031 Q67.1563,32.2031 65.8281,30.5625 Q64.5156,28.9063 64.5156,25.7813 Q64.5156,22.6563 65.8281,21 Q67.1563,19.3438 69.6563,19.3438 Q70.3594,19.3438 71,19.5 Q71.6563,19.6563 72.2188,19.9531 L72.2188,22.6719 Q71.5938,22.0938 71,21.8281 Q70.4063,21.5469 69.7813,21.5469 Q68.4375,21.5469 67.75,22.625 Q67.0625,23.6875 67.0625,25.7813 Q67.0625,27.875 67.75,28.9531 Q68.4375,30.0156 69.7813,30.0156 Q70.4063,30.0156 71,29.75 Q71.5938,29.4688 72.2188,28.8906 L72.2188,31.6094 Z " fill="#000000"/><text fill="#000000" font-family="sans-serif" font-size="14" lengthAdjust="spacing" textLength="176" x="89.75" y="24.9951">CloudformationProperties</text><text fill="#000000" font-family="sans-serif" font-size="10" lengthAdjust="spacing" textLength="164" x="95.75" y="37.5791">com.hack23.sonar.cloudformation</text><line style="stroke:#181818;stroke-width:0.5;" x1="8" x2="315" y1="44.9375" y2="44.9375"/><ellipse cx="18" cy="58.5859" fill="#84BE84" rx="3" ry="3" style="stroke:#038048;stroke-width:1.0;"/><text fill="#000000" font-family="sans-serif" font-size="14" lengthAdjust="spacing" text-decoration="underline" textLength="283" x="27" y="61.9326">getProperties(): List&lt;PropertyDefinition&gt;</text></g></a><rect fill="none" height="11.6406" style="stroke:none;stroke-width:1.0;" width="186" x="68" y="76.2344"/><text fill="#888888" font-family="sans-serif" font-size="10" lengthAdjust="spacing" textLength="186" x="68" y="85.5166">UMLDoclet 2.0.19, PlantUML 1.2022.8</text><!--MD5=[06983afe557c95b85706c07d4b11b592]
@startuml
    set namespaceSeparator none
    hide empty fields
    hide empty methods

    class "<size:14>CloudformationProperties\n<size:10>com.hack23.sonar.cloudformation" as com.hack23.sonar.cloudformation.CloudformationProperties [[CloudformationProperties.html]] {
        {static} +getProperties(): List<PropertyDefinition>
    }

    center footer UMLDoclet 2.0.19, PlantUML 1.2022.8
@enduml

PlantUML version 1.2022.8(Sun Sep 25 11:00:33 CEST 2022)
(APACHE source distribution)
Java Runtime: OpenJDK Runtime Environment
JVM: OpenJDK 64-Bit Server VM
Default Encoding: ANSI_X3.4-1968
Language: en
Country: US
--></g></svg>