<?xml version="1.0" encoding="UTF-8" standalone="no"?><svg xmlns="http://www.w3.org/2000/svg" xmlns:xlink="http://www.w3.org/1999/xlink" contentScriptType="application/ecmascript" contentStyleType="text/css" height="505px" preserveAspectRatio="none" style="width:2355px;height:505px;" version="1.1" viewBox="0 0 2355 505" width="2355px" zoomAndPan="magnify"><defs><filter height="300%" id="fk4i260u06pfj" width="300%" x="-1" y="-1"><feGaussianBlur result="blurOut" stdDeviation="2.0"/><feColorMatrix in="blurOut" result="blurOut2" type="matrix" values="0 0 0 0 0 0 0 0 0 0 0 0 0 0 0 0 0 0 .4 0"/><feOffset dx="4.0" dy="4.0" in="blurOut2" result="blurOut3"/><feBlend in="SourceGraphic" in2="blurOut3" mode="normal"/></filter></defs><g><!--MD5=[7efd255d87f67ac79da5c4891114ef95]
cluster com.hack23.sonar.cloudformation--><polygon fill="#FFFFFF" filter="url(#fk4i260u06pfj)" points="155,173,430,173,437,195.2969,2333,195.2969,2333,457,155,457,155,173" style="stroke: #000000; stroke-width: 1.5;"/><line style="stroke: #000000; stroke-width: 1.5;" x1="155" x2="437" y1="195.2969" y2="195.2969"/><text fill="#000000" font-family="sans-serif" font-size="14" font-weight="bold" lengthAdjust="spacingAndGlyphs" textLength="269" x="159" y="187.9951">com.hack23.sonar.cloudformation</text><!--MD5=[6a86e12f8c3573ef90e7334d9e934390]
cluster org.sonar.api--><polygon fill="#FFFFFF" filter="url(#fk4i260u06pfj)" points="22,30.5,133,30.5,140,52.7969,336,52.7969,336,142.5,22,142.5,22,30.5" style="stroke: #000000; stroke-width: 1.5;"/><line style="stroke: #000000; stroke-width: 1.5;" x1="22" x2="140" y1="52.7969" y2="52.7969"/><text fill="#000000" font-family="sans-serif" font-size="14" font-weight="bold" lengthAdjust="spacingAndGlyphs" textLength="105" x="26" y="45.4951">org.sonar.api</text><!--MD5=[ed82d9bf0a7e82c39fc0b923e4deffa3]
cluster org.sonar.api.server.profile--><polygon fill="#FFFFFF" filter="url(#fk4i260u06pfj)" points="360,30.5,584,30.5,591,52.7969,608,52.7969,608,142.5,360,142.5,360,30.5" style="stroke: #000000; stroke-width: 1.5;"/><line style="stroke: #000000; stroke-width: 1.5;" x1="360" x2="591" y1="52.7969" y2="52.7969"/><text fill="#000000" font-family="sans-serif" font-size="14" font-weight="bold" lengthAdjust="spacingAndGlyphs" textLength="218" x="364" y="45.4951">org.sonar.api.server.profile</text><!--MD5=[d3bfeb526ca1008dfb54863d3a7224f6]
cluster org.sonar.api.server.rule--><polygon fill="#FFFFFF" filter="url(#fk4i260u06pfj)" points="905,30.5,1109,30.5,1116,52.7969,1119,52.7969,1119,142.5,905,142.5,905,30.5" style="stroke: #000000; stroke-width: 1.5;"/><line style="stroke: #000000; stroke-width: 1.5;" x1="905" x2="1116" y1="52.7969" y2="52.7969"/><text fill="#000000" font-family="sans-serif" font-size="14" font-weight="bold" lengthAdjust="spacingAndGlyphs" textLength="198" x="909" y="45.4951">org.sonar.api.server.rule</text><!--MD5=[069966ec46c27c575c0e14a62cc3970a]
cluster org.sonar.api.batch.sensor--><polygon fill="#FFFFFF" filter="url(#fk4i260u06pfj)" points="1294,24,1514,24,1521,46.2969,1538,46.2969,1538,149,1294,149,1294,24" style="stroke: #000000; stroke-width: 1.5;"/><line style="stroke: #000000; stroke-width: 1.5;" x1="1294" x2="1521" y1="46.2969" y2="46.2969"/><text fill="#000000" font-family="sans-serif" font-size="14" font-weight="bold" lengthAdjust="spacingAndGlyphs" textLength="214" x="1298" y="38.9951">org.sonar.api.batch.sensor</text><!--MD5=[4e78556fd0fd0f12622aab97e46ad39c]
class com.hack23.sonar.cloudformation.CloudformationPlugin--><a href="CloudformationPlugin.html" target="_top" title="CloudformationPlugin.html" xlink:actuate="onRequest" xlink:href="CloudformationPlugin.html" xlink:show="new" xlink:title="CloudformationPlugin.html" xlink:type="simple"><rect fill="#FEFECE" filter="url(#fk4i260u06pfj)" height="60.8047" id="com.hack23.sonar.cloudformation.CloudformationPlugin" style="stroke: #A80036; stroke-width: 1.5;" width="165" x="171.5" y="233.5"/><ellipse cx="186.5" cy="249.5" fill="#ADD1B2" rx="11" ry="11" style="stroke: #A80036; stroke-width: 1.0;"/><path d="M189.4688,255.1406 Q188.8906,255.4375 188.25,255.5781 Q187.6094,255.7344 186.9063,255.7344 Q184.4063,255.7344 183.0781,254.0938 Q181.7656,252.4375 181.7656,249.3125 Q181.7656,246.1875 183.0781,244.5313 Q184.4063,242.875 186.9063,242.875 Q187.6094,242.875 188.25,243.0313 Q188.9063,243.1875 189.4688,243.4844 L189.4688,246.2031 Q188.8438,245.625 188.25,245.3594 Q187.6563,245.0781 187.0313,245.0781 Q185.6875,245.0781 185,246.1563 Q184.3125,247.2188 184.3125,249.3125 Q184.3125,251.4063 185,252.4844 Q185.6875,253.5469 187.0313,253.5469 Q187.6563,253.5469 188.25,253.2813 Q188.8438,253 189.4688,252.4219 L189.4688,255.1406 Z "/><text fill="#000000" font-family="sans-serif" font-size="12" lengthAdjust="spacingAndGlyphs" textLength="133" x="200.5" y="253.6543">CloudformationPlugin</text><line style="stroke: #A80036; stroke-width: 1.5;" x1="172.5" x2="335.5" y1="265.5" y2="265.5"/><line style="stroke: #A80036; stroke-width: 1.5;" x1="172.5" x2="335.5" y1="273.5" y2="273.5"/><ellipse cx="182.5" cy="284.5" fill="#84BE84" rx="3" ry="3" style="stroke: #038048; stroke-width: 1.0;"/><text fill="#000000" font-family="sans-serif" font-size="11" lengthAdjust="spacingAndGlyphs" textLength="117" x="191.5" y="287.7104">define(Context): void</text></a><!--MD5=[c3108af317c2c934cdb7e0b2dc4ec977]
class com.hack23.sonar.cloudformation.CloudformationSensorConfiguration--><a href="CloudformationSensorConfiguration.html" target="_top" title="CloudformationSensorConfiguration.html" xlink:actuate="onRequest" xlink:href="CloudformationSensorConfiguration.html" xlink:show="new" xlink:title="CloudformationSensorConfiguration.html" xlink:type="simple"><rect fill="#FEFECE" filter="url(#fk4i260u06pfj)" height="73.6094" id="com.hack23.sonar.cloudformation.CloudformationSensorConfiguration" style="stroke: #A80036; stroke-width: 1.5;" width="314" x="1710" y="227"/><ellipse cx="1751.55" cy="243" fill="#ADD1B2" rx="11" ry="11" style="stroke: #A80036; stroke-width: 1.0;"/><path d="M1754.5188,248.6406 Q1753.9406,248.9375 1753.3,249.0781 Q1752.6594,249.2344 1751.9563,249.2344 Q1749.4563,249.2344 1748.1281,247.5938 Q1746.8156,245.9375 1746.8156,242.8125 Q1746.8156,239.6875 1748.1281,238.0313 Q1749.4563,236.375 1751.9563,236.375 Q1752.6594,236.375 1753.3,236.5313 Q1753.9563,236.6875 1754.5188,236.9844 L1754.5188,239.7031 Q1753.8938,239.125 1753.3,238.8594 Q1752.7063,238.5781 1752.0813,238.5781 Q1750.7375,238.5781 1750.05,239.6563 Q1749.3625,240.7188 1749.3625,242.8125 Q1749.3625,244.9063 1750.05,245.9844 Q1750.7375,247.0469 1752.0813,247.0469 Q1752.7063,247.0469 1753.3,246.7813 Q1753.8938,246.5 1754.5188,245.9219 L1754.5188,248.6406 Z "/><text fill="#000000" font-family="sans-serif" font-size="12" lengthAdjust="spacingAndGlyphs" textLength="223" x="1771.45" y="247.1543">CloudformationSensorConfiguration</text><line style="stroke: #A80036; stroke-width: 1.5;" x1="1711" x2="2023" y1="259" y2="259"/><line style="stroke: #A80036; stroke-width: 1.5;" x1="1711" x2="2023" y1="267" y2="267"/><ellipse cx="1721" cy="278" fill="#84BE84" rx="3" ry="3" style="stroke: #038048; stroke-width: 1.0;"/><text fill="#000000" font-family="sans-serif" font-size="11" lengthAdjust="spacingAndGlyphs" textLength="288" x="1730" y="281.2104">CloudformationSensorConfiguration(Configuration)</text><ellipse cx="1721" cy="290.8047" fill="#84BE84" rx="3" ry="3" style="stroke: #038048; stroke-width: 1.0;"/><text fill="#000000" font-family="sans-serif" font-size="11" lengthAdjust="spacingAndGlyphs" textLength="196" x="1730" y="294.0151">getReportFiles(): Optional&lt;String&gt;</text></a><!--MD5=[fe768997cbfd64bbe9e45e6331c668d3]
class com.hack23.sonar.cloudformation.CloudformationQualityProfile--><a href="CloudformationQualityProfile.html" target="_top" title="CloudformationQualityProfile.html" xlink:actuate="onRequest" xlink:href="CloudformationQualityProfile.html" xlink:show="new" xlink:title="CloudformationQualityProfile.html" xlink:type="simple"><rect fill="#FEFECE" filter="url(#fk4i260u06pfj)" height="73.6094" id="com.hack23.sonar.cloudformation.CloudformationQualityProfile" style="stroke: #A80036; stroke-width: 1.5;" width="208" x="372" y="227"/><ellipse cx="387" cy="243" fill="#ADD1B2" rx="11" ry="11" style="stroke: #A80036; stroke-width: 1.0;"/><path d="M389.9688,248.6406 Q389.3906,248.9375 388.75,249.0781 Q388.1094,249.2344 387.4063,249.2344 Q384.9063,249.2344 383.5781,247.5938 Q382.2656,245.9375 382.2656,242.8125 Q382.2656,239.6875 383.5781,238.0313 Q384.9063,236.375 387.4063,236.375 Q388.1094,236.375 388.75,236.5313 Q389.4063,236.6875 389.9688,236.9844 L389.9688,239.7031 Q389.3438,239.125 388.75,238.8594 Q388.1563,238.5781 387.5313,238.5781 Q386.1875,238.5781 385.5,239.6563 Q384.8125,240.7188 384.8125,242.8125 Q384.8125,244.9063 385.5,245.9844 Q386.1875,247.0469 387.5313,247.0469 Q388.1563,247.0469 388.75,246.7813 Q389.3438,246.5 389.9688,245.9219 L389.9688,248.6406 Z "/><text fill="#000000" font-family="sans-serif" font-size="12" lengthAdjust="spacingAndGlyphs" textLength="176" x="401" y="247.1543">CloudformationQualityProfile</text><line style="stroke: #A80036; stroke-width: 1.5;" x1="373" x2="579" y1="259" y2="259"/><line style="stroke: #A80036; stroke-width: 1.5;" x1="373" x2="579" y1="267" y2="267"/><ellipse cx="383" cy="278" fill="#84BE84" rx="3" ry="3" style="stroke: #038048; stroke-width: 1.0;"/><text fill="#000000" font-family="sans-serif" font-size="11" lengthAdjust="spacingAndGlyphs" text-decoration="underline" textLength="140" x="392" y="281.2104">hasRule(String): boolean</text><ellipse cx="383" cy="290.8047" fill="#84BE84" rx="3" ry="3" style="stroke: #038048; stroke-width: 1.0;"/><text fill="#000000" font-family="sans-serif" font-size="11" lengthAdjust="spacingAndGlyphs" textLength="117" x="392" y="294.0151">define(Context): void</text></a><!--MD5=[7855ddd67fbdcedf10db43e001c684f0]
class com.hack23.sonar.cloudformation.CloudformationLanguage--><a href="CloudformationLanguage.html" target="_top" title="CloudformationLanguage.html" xlink:actuate="onRequest" xlink:href="CloudformationLanguage.html" xlink:show="new" xlink:title="CloudformationLanguage.html" xlink:type="simple"><rect fill="#FEFECE" filter="url(#fk4i260u06pfj)" height="99.2188" id="com.hack23.sonar.cloudformation.CloudformationLanguage" style="stroke: #A80036; stroke-width: 1.5;" width="252" x="615" y="214.5"/><ellipse cx="658.35" cy="230.5" fill="#ADD1B2" rx="11" ry="11" style="stroke: #A80036; stroke-width: 1.0;"/><path d="M661.3188,236.1406 Q660.7406,236.4375 660.1,236.5781 Q659.4594,236.7344 658.7563,236.7344 Q656.2563,236.7344 654.9281,235.0938 Q653.6156,233.4375 653.6156,230.3125 Q653.6156,227.1875 654.9281,225.5313 Q656.2563,223.875 658.7563,223.875 Q659.4594,223.875 660.1,224.0313 Q660.7563,224.1875 661.3188,224.4844 L661.3188,227.2031 Q660.6938,226.625 660.1,226.3594 Q659.5063,226.0781 658.8813,226.0781 Q657.5375,226.0781 656.85,227.1563 Q656.1625,228.2188 656.1625,230.3125 Q656.1625,232.4063 656.85,233.4844 Q657.5375,234.5469 658.8813,234.5469 Q659.5063,234.5469 660.1,234.2813 Q660.6938,234 661.3188,233.4219 L661.3188,236.1406 Z "/><text fill="#000000" font-family="sans-serif" font-size="12" lengthAdjust="spacingAndGlyphs" textLength="157" x="678.65" y="234.6543">CloudformationLanguage</text><line style="stroke: #A80036; stroke-width: 1.5;" x1="616" x2="866" y1="246.5" y2="246.5"/><ellipse cx="626" cy="257.5" fill="none" rx="3" ry="3" style="stroke: #038048; stroke-width: 1.0;"/><text fill="#000000" font-family="sans-serif" font-size="11" lengthAdjust="spacingAndGlyphs" text-decoration="underline" textLength="73" x="635" y="260.7104">NAME: String</text><ellipse cx="626" cy="270.3047" fill="none" rx="3" ry="3" style="stroke: #038048; stroke-width: 1.0;"/><text fill="#000000" font-family="sans-serif" font-size="11" lengthAdjust="spacingAndGlyphs" text-decoration="underline" textLength="63" x="635" y="273.5151">KEY: String</text><line style="stroke: #A80036; stroke-width: 1.5;" x1="616" x2="866" y1="280.1094" y2="280.1094"/><ellipse cx="626" cy="291.1094" fill="#84BE84" rx="3" ry="3" style="stroke: #038048; stroke-width: 1.0;"/><text fill="#000000" font-family="sans-serif" font-size="11" lengthAdjust="spacingAndGlyphs" textLength="226" x="635" y="294.3198">CloudformationLanguage(Configuration)</text><ellipse cx="626" cy="303.9141" fill="#84BE84" rx="3" ry="3" style="stroke: #038048; stroke-width: 1.0;"/><text fill="#000000" font-family="sans-serif" font-size="11" lengthAdjust="spacingAndGlyphs" textLength="141" x="635" y="307.1245">getFileSuffixes(): String[]</text></a><!--MD5=[9ad602e740eec67d73c5d598917426ba]
class com.hack23.sonar.cloudformation.CloudformationRulesDefinition--><a href="CloudformationRulesDefinition.html" target="_top" title="CloudformationRulesDefinition.html" xlink:actuate="onRequest" xlink:href="CloudformationRulesDefinition.html" xlink:show="new" xlink:title="CloudformationRulesDefinition.html" xlink:type="simple"><rect fill="#FEFECE" filter="url(#fk4i260u06pfj)" height="112.0234" id="com.hack23.sonar.cloudformation.CloudformationRulesDefinition" style="stroke: #A80036; stroke-width: 1.5;" width="220" x="902" y="208"/><ellipse cx="917" cy="224" fill="#ADD1B2" rx="11" ry="11" style="stroke: #A80036; stroke-width: 1.0;"/><path d="M919.9688,229.6406 Q919.3906,229.9375 918.75,230.0781 Q918.1094,230.2344 917.4063,230.2344 Q914.9063,230.2344 913.5781,228.5938 Q912.2656,226.9375 912.2656,223.8125 Q912.2656,220.6875 913.5781,219.0313 Q914.9063,217.375 917.4063,217.375 Q918.1094,217.375 918.75,217.5313 Q919.4063,217.6875 919.9688,217.9844 L919.9688,220.7031 Q919.3438,220.125 918.75,219.8594 Q918.1563,219.5781 917.5313,219.5781 Q916.1875,219.5781 915.5,220.6563 Q914.8125,221.7188 914.8125,223.8125 Q914.8125,225.9063 915.5,226.9844 Q916.1875,228.0469 917.5313,228.0469 Q918.1563,228.0469 918.75,227.7813 Q919.3438,227.5 919.9688,226.9219 L919.9688,229.6406 Z "/><text fill="#000000" font-family="sans-serif" font-size="12" lengthAdjust="spacingAndGlyphs" textLength="188" x="931" y="228.1543">CloudformationRulesDefinition</text><line style="stroke: #A80036; stroke-width: 1.5;" x1="903" x2="1121" y1="240" y2="240"/><ellipse cx="913" cy="251" fill="none" rx="3" ry="3" style="stroke: #038048; stroke-width: 1.0;"/><text fill="#000000" font-family="sans-serif" font-size="11" lengthAdjust="spacingAndGlyphs" text-decoration="underline" textLength="63" x="922" y="254.2104">KEY: String</text><ellipse cx="913" cy="263.8047" fill="none" rx="3" ry="3" style="stroke: #038048; stroke-width: 1.0;"/><text fill="#000000" font-family="sans-serif" font-size="11" lengthAdjust="spacingAndGlyphs" text-decoration="underline" textLength="73" x="922" y="267.0151">NAME: String</text><ellipse cx="913" cy="276.6094" fill="none" rx="3" ry="3" style="stroke: #038048; stroke-width: 1.0;"/><text fill="#000000" font-family="sans-serif" font-size="11" lengthAdjust="spacingAndGlyphs" text-decoration="underline" textLength="99" x="922" y="279.8198">REPO_KEY: String</text><ellipse cx="913" cy="289.4141" fill="none" rx="3" ry="3" style="stroke: #038048; stroke-width: 1.0;"/><text fill="#000000" font-family="sans-serif" font-size="11" lengthAdjust="spacingAndGlyphs" text-decoration="underline" textLength="109" x="922" y="292.6245">REPO_NAME: String</text><line style="stroke: #A80036; stroke-width: 1.5;" x1="903" x2="1121" y1="299.2188" y2="299.2188"/><ellipse cx="913" cy="310.2188" fill="#84BE84" rx="3" ry="3" style="stroke: #038048; stroke-width: 1.0;"/><text fill="#000000" font-family="sans-serif" font-size="11" lengthAdjust="spacingAndGlyphs" textLength="117" x="922" y="313.4292">define(Context): void</text></a><!--MD5=[17b8c490b45d6f269308ea962cf0181d]
class com.hack23.sonar.cloudformation.CloudformationProperties--><a href="CloudformationProperties.html" target="_top" title="CloudformationProperties.html" xlink:actuate="onRequest" xlink:href="CloudformationProperties.html" xlink:show="new" xlink:title="CloudformationProperties.html" xlink:type="simple"><rect fill="#FEFECE" filter="url(#fk4i260u06pfj)" height="86.4141" id="com.hack23.sonar.cloudformation.CloudformationProperties" style="stroke: #A80036; stroke-width: 1.5;" width="258" x="2059" y="221"/><ellipse cx="2103.75" cy="237" fill="#ADD1B2" rx="11" ry="11" style="stroke: #A80036; stroke-width: 1.0;"/><path d="M2106.7188,242.6406 Q2106.1406,242.9375 2105.5,243.0781 Q2104.8594,243.2344 2104.1563,243.2344 Q2101.6563,243.2344 2100.3281,241.5938 Q2099.0156,239.9375 2099.0156,236.8125 Q2099.0156,233.6875 2100.3281,232.0313 Q2101.6563,230.375 2104.1563,230.375 Q2104.8594,230.375 2105.5,230.5313 Q2106.1563,230.6875 2106.7188,230.9844 L2106.7188,233.7031 Q2106.0938,233.125 2105.5,232.8594 Q2104.9063,232.5781 2104.2813,232.5781 Q2102.9375,232.5781 2102.25,233.6563 Q2101.5625,234.7188 2101.5625,236.8125 Q2101.5625,238.9063 2102.25,239.9844 Q2102.9375,241.0469 2104.2813,241.0469 Q2104.9063,241.0469 2105.5,240.7813 Q2106.0938,240.5 2106.7188,239.9219 L2106.7188,242.6406 Z "/><text fill="#000000" font-family="sans-serif" font-size="12" lengthAdjust="spacingAndGlyphs" textLength="160" x="2124.25" y="241.1543">CloudformationProperties</text><line style="stroke: #A80036; stroke-width: 1.5;" x1="2060" x2="2316" y1="253" y2="253"/><ellipse cx="2070" cy="264" fill="none" rx="3" ry="3" style="stroke: #038048; stroke-width: 1.0;"/><text fill="#000000" font-family="sans-serif" font-size="11" lengthAdjust="spacingAndGlyphs" text-decoration="underline" textLength="150" x="2079" y="267.2104">FILE_SUFFIXES_KEY: String</text><ellipse cx="2070" cy="276.8047" fill="none" rx="3" ry="3" style="stroke: #038048; stroke-width: 1.0;"/><text fill="#000000" font-family="sans-serif" font-size="11" lengthAdjust="spacingAndGlyphs" text-decoration="underline" textLength="219" x="2079" y="280.0151">FILE_SUFFIXES_DEFAULT_VALUE: String</text><line style="stroke: #A80036; stroke-width: 1.5;" x1="2060" x2="2316" y1="286.6094" y2="286.6094"/><ellipse cx="2070" cy="297.6094" fill="#84BE84" rx="3" ry="3" style="stroke: #038048; stroke-width: 1.0;"/><text fill="#000000" font-family="sans-serif" font-size="11" lengthAdjust="spacingAndGlyphs" text-decoration="underline" textLength="232" x="2079" y="300.8198">getProperties(): List&lt;PropertyDefinition&gt;</text></a><!--MD5=[5cd76e2d5be102320ba6d55700009822]
class com.hack23.sonar.cloudformation.CloudformationSensor--><a href="CloudformationSensor.html" target="_top" title="CloudformationSensor.html" xlink:actuate="onRequest" xlink:href="CloudformationSensor.html" xlink:show="new" xlink:title="CloudformationSensor.html" xlink:type="simple"><rect fill="#FEFECE" filter="url(#fk4i260u06pfj)" height="99.2188" id="com.hack23.sonar.cloudformation.CloudformationSensor" style="stroke: #A80036; stroke-width: 1.5;" width="518" x="1157" y="214.5"/><ellipse cx="1342.25" cy="230.5" fill="#ADD1B2" rx="11" ry="11" style="stroke: #A80036; stroke-width: 1.0;"/><path d="M1345.2188,236.1406 Q1344.6406,236.4375 1344,236.5781 Q1343.3594,236.7344 1342.6563,236.7344 Q1340.1563,236.7344 1338.8281,235.0938 Q1337.5156,233.4375 1337.5156,230.3125 Q1337.5156,227.1875 1338.8281,225.5313 Q1340.1563,223.875 1342.6563,223.875 Q1343.3594,223.875 1344,224.0313 Q1344.6563,224.1875 1345.2188,224.4844 L1345.2188,227.2031 Q1344.5938,226.625 1344,226.3594 Q1343.4063,226.0781 1342.7813,226.0781 Q1341.4375,226.0781 1340.75,227.1563 Q1340.0625,228.2188 1340.0625,230.3125 Q1340.0625,232.4063 1340.75,233.4844 Q1341.4375,234.5469 1342.7813,234.5469 Q1343.4063,234.5469 1344,234.2813 Q1344.5938,234 1345.2188,233.4219 L1345.2188,236.1406 Z "/><text fill="#000000" font-family="sans-serif" font-size="12" lengthAdjust="spacingAndGlyphs" textLength="139" x="1362.75" y="234.6543">CloudformationSensor</text><line style="stroke: #A80036; stroke-width: 1.5;" x1="1158" x2="1674" y1="246.5" y2="246.5"/><ellipse cx="1168" cy="257.5" fill="none" rx="3" ry="3" style="stroke: #038048; stroke-width: 1.0;"/><text fill="#000000" font-family="sans-serif" font-size="11" lengthAdjust="spacingAndGlyphs" text-decoration="underline" textLength="126" x="1177" y="260.7104">SENSOR_NAME: String</text><line style="stroke: #A80036; stroke-width: 1.5;" x1="1158" x2="1674" y1="267.3047" y2="267.3047"/><ellipse cx="1168" cy="278.3047" fill="#84BE84" rx="3" ry="3" style="stroke: #038048; stroke-width: 1.0;"/><text fill="#000000" font-family="sans-serif" font-size="11" lengthAdjust="spacingAndGlyphs" textLength="492" x="1177" y="281.5151">CloudformationSensor(CloudformationSensorConfiguration, FileSystem, PathResolver)</text><ellipse cx="1168" cy="291.1094" fill="#84BE84" rx="3" ry="3" style="stroke: #038048; stroke-width: 1.0;"/><text fill="#000000" font-family="sans-serif" font-size="11" lengthAdjust="spacingAndGlyphs" textLength="188" x="1177" y="294.3198">describe(SensorDescriptor): void</text><ellipse cx="1168" cy="303.9141" fill="#84BE84" rx="3" ry="3" style="stroke: #038048; stroke-width: 1.0;"/><text fill="#000000" font-family="sans-serif" font-size="11" lengthAdjust="spacingAndGlyphs" textLength="167" x="1177" y="307.1245">execute(SensorContext): void</text></a><!--MD5=[0d6d0e5b973745eeb597137a51ee0af0]
class com.hack23.sonar.cloudformation.CloudformationConstants--><a href="CloudformationConstants.html" target="_top" title="CloudformationConstants.html" xlink:actuate="onRequest" xlink:href="CloudformationConstants.html" xlink:show="new" xlink:title="CloudformationConstants.html" xlink:type="simple"><rect fill="#FEFECE" filter="url(#fk4i260u06pfj)" height="60.8047" id="com.hack23.sonar.cloudformation.CloudformationConstants" style="stroke: #A80036; stroke-width: 1.5;" width="212" x="1761" y="380"/><ellipse cx="1785.45" cy="396" fill="#ADD1B2" rx="11" ry="11" style="stroke: #A80036; stroke-width: 1.0;"/><path d="M1788.4188,401.6406 Q1787.8406,401.9375 1787.2,402.0781 Q1786.5594,402.2344 1785.8563,402.2344 Q1783.3563,402.2344 1782.0281,400.5938 Q1780.7156,398.9375 1780.7156,395.8125 Q1780.7156,392.6875 1782.0281,391.0313 Q1783.3563,389.375 1785.8563,389.375 Q1786.5594,389.375 1787.2,389.5313 Q1787.8563,389.6875 1788.4188,389.9844 L1788.4188,392.7031 Q1787.7938,392.125 1787.2,391.8594 Q1786.6063,391.5781 1785.9813,391.5781 Q1784.6375,391.5781 1783.95,392.6563 Q1783.2625,393.7188 1783.2625,395.8125 Q1783.2625,397.9063 1783.95,398.9844 Q1784.6375,400.0469 1785.9813,400.0469 Q1786.6063,400.0469 1787.2,399.7813 Q1787.7938,399.5 1788.4188,398.9219 L1788.4188,401.6406 Z "/><text fill="#000000" font-family="sans-serif" font-size="12" lengthAdjust="spacingAndGlyphs" textLength="159" x="1801.55" y="400.1543">CloudformationConstants</text><line style="stroke: #A80036; stroke-width: 1.5;" x1="1762" x2="1972" y1="412" y2="412"/><ellipse cx="1772" cy="423" fill="none" rx="3" ry="3" style="stroke: #038048; stroke-width: 1.0;"/><text fill="#000000" font-family="sans-serif" font-size="11" lengthAdjust="spacingAndGlyphs" text-decoration="underline" textLength="186" x="1781" y="426.2104">REPORT_FILES_PROPERTY: String</text><line style="stroke: #A80036; stroke-width: 1.5;" x1="1762" x2="1972" y1="432.8047" y2="432.8047"/></a><!--MD5=[357bc6d468bbe4af181e679b5a7d4bc8]
class org.sonar.api.Plugin--><rect fill="#FEFECE" filter="url(#fk4i260u06pfj)" height="60.8047" id="org.sonar.api.Plugin" style="stroke: #A80036; stroke-width: 1.5;" width="145" x="174.5" y="65.5"/><ellipse cx="224.25" cy="81.5" fill="#B4A7E5" rx="11" ry="11" style="stroke: #A80036; stroke-width: 1.0;"/><path d="M220.1719,77.2656 L220.1719,75.1094 L227.5625,75.1094 L227.5625,77.2656 L225.0938,77.2656 L225.0938,85.3438 L227.5625,85.3438 L227.5625,87.5 L220.1719,87.5 L220.1719,85.3438 L222.6406,85.3438 L222.6406,77.2656 L220.1719,77.2656 Z "/><text fill="#000000" font-family="sans-serif" font-size="12" font-style="italic" lengthAdjust="spacingAndGlyphs" textLength="37" x="244.75" y="85.6543">Plugin</text><line style="stroke: #A80036; stroke-width: 1.5;" x1="175.5" x2="318.5" y1="97.5" y2="97.5"/><line style="stroke: #A80036; stroke-width: 1.5;" x1="175.5" x2="318.5" y1="105.5" y2="105.5"/><ellipse cx="185.5" cy="116.5" fill="#84BE84" rx="3" ry="3" style="stroke: #038048; stroke-width: 1.0;"/><text fill="#000000" font-family="sans-serif" font-size="11" font-style="italic" lengthAdjust="spacingAndGlyphs" textLength="119" x="194.5" y="119.7104">define(Context): void</text><polygon fill="#FFFFFF" filter="url(#fk4i260u06pfj)" points="38.5,69.5,125.5,69.5,132.5,91.7969,139.5,91.7969,139.5,122.0938,38.5,122.0938,38.5,69.5" style="stroke: #000000; stroke-width: 1.5;"/><line style="stroke: #000000; stroke-width: 1.5;" x1="38.5" x2="132.5" y1="91.7969" y2="91.7969"/><text fill="#000000" font-family="sans-serif" font-size="14" font-weight="bold" lengthAdjust="spacingAndGlyphs" textLength="81" x="42.5" y="84.4951">resources</text><!--MD5=[bccf4df98d34ca024eaa4f9d7ebedb88]
class org.sonar.api.server.profile.BuiltInQualityProfilesDefinition--><rect fill="#FEFECE" filter="url(#fk4i260u06pfj)" height="60.8047" id="org.sonar.api.server.profile.BuiltInQualityProfilesDefinition" style="stroke: #A80036; stroke-width: 1.5;" width="216" x="376" y="65.5"/><ellipse cx="391" cy="81.5" fill="#B4A7E5" rx="11" ry="11" style="stroke: #A80036; stroke-width: 1.0;"/><path d="M386.9219,77.2656 L386.9219,75.1094 L394.3125,75.1094 L394.3125,77.2656 L391.8438,77.2656 L391.8438,85.3438 L394.3125,85.3438 L394.3125,87.5 L386.9219,87.5 L386.9219,85.3438 L389.3906,85.3438 L389.3906,77.2656 L386.9219,77.2656 Z "/><text fill="#000000" font-family="sans-serif" font-size="12" font-style="italic" lengthAdjust="spacingAndGlyphs" textLength="184" x="405" y="85.6543">BuiltInQualityProfilesDefinition</text><line style="stroke: #A80036; stroke-width: 1.5;" x1="377" x2="591" y1="97.5" y2="97.5"/><line style="stroke: #A80036; stroke-width: 1.5;" x1="377" x2="591" y1="105.5" y2="105.5"/><ellipse cx="387" cy="116.5" fill="#84BE84" rx="3" ry="3" style="stroke: #038048; stroke-width: 1.0;"/><text fill="#000000" font-family="sans-serif" font-size="11" font-style="italic" lengthAdjust="spacingAndGlyphs" textLength="119" x="396" y="119.7104">define(Context): void</text><!--MD5=[0c41336916cc93e234215d73ea118e70]
class org.sonar.api.server.rule.RulesDefinition--><rect fill="#FEFECE" filter="url(#fk4i260u06pfj)" height="60.8047" id="org.sonar.api.server.rule.RulesDefinition" style="stroke: #A80036; stroke-width: 1.5;" width="145" x="939.5" y="65.5"/><ellipse cx="963.95" cy="81.5" fill="#B4A7E5" rx="11" ry="11" style="stroke: #A80036; stroke-width: 1.0;"/><path d="M959.8719,77.2656 L959.8719,75.1094 L967.2625,75.1094 L967.2625,77.2656 L964.7938,77.2656 L964.7938,85.3438 L967.2625,85.3438 L967.2625,87.5 L959.8719,87.5 L959.8719,85.3438 L962.3406,85.3438 L962.3406,77.2656 L959.8719,77.2656 Z "/><text fill="#000000" font-family="sans-serif" font-size="12" font-style="italic" lengthAdjust="spacingAndGlyphs" textLength="92" x="980.05" y="85.6543">RulesDefinition</text><line style="stroke: #A80036; stroke-width: 1.5;" x1="940.5" x2="1083.5" y1="97.5" y2="97.5"/><line style="stroke: #A80036; stroke-width: 1.5;" x1="940.5" x2="1083.5" y1="105.5" y2="105.5"/><ellipse cx="950.5" cy="116.5" fill="#84BE84" rx="3" ry="3" style="stroke: #038048; stroke-width: 1.0;"/><text fill="#000000" font-family="sans-serif" font-size="11" font-style="italic" lengthAdjust="spacingAndGlyphs" textLength="119" x="959.5" y="119.7104">define(Context): void</text><!--MD5=[f8b565af0d68398934f95a4a7e456578]
class org.sonar.api.batch.sensor.Sensor--><rect fill="#FEFECE" filter="url(#fk4i260u06pfj)" height="73.6094" id="org.sonar.api.batch.sensor.Sensor" style="stroke: #A80036; stroke-width: 1.5;" width="211" x="1310.5" y="59"/><ellipse cx="1390.25" cy="75" fill="#B4A7E5" rx="11" ry="11" style="stroke: #A80036; stroke-width: 1.0;"/><path d="M1386.1719,70.7656 L1386.1719,68.6094 L1393.5625,68.6094 L1393.5625,70.7656 L1391.0938,70.7656 L1391.0938,78.8438 L1393.5625,78.8438 L1393.5625,81 L1386.1719,81 L1386.1719,78.8438 L1388.6406,78.8438 L1388.6406,70.7656 L1386.1719,70.7656 Z "/><text fill="#000000" font-family="sans-serif" font-size="12" font-style="italic" lengthAdjust="spacingAndGlyphs" textLength="43" x="1410.75" y="79.1543">Sensor</text><line style="stroke: #A80036; stroke-width: 1.5;" x1="1311.5" x2="1520.5" y1="91" y2="91"/><line style="stroke: #A80036; stroke-width: 1.5;" x1="1311.5" x2="1520.5" y1="99" y2="99"/><ellipse cx="1321.5" cy="110" fill="#84BE84" rx="3" ry="3" style="stroke: #038048; stroke-width: 1.0;"/><text fill="#000000" font-family="sans-serif" font-size="11" font-style="italic" lengthAdjust="spacingAndGlyphs" textLength="185" x="1330.5" y="113.2104">describe(SensorDescriptor): void</text><ellipse cx="1321.5" cy="122.8047" fill="#84BE84" rx="3" ry="3" style="stroke: #038048; stroke-width: 1.0;"/><text fill="#000000" font-family="sans-serif" font-size="11" font-style="italic" lengthAdjust="spacingAndGlyphs" textLength="168" x="1330.5" y="126.0151">execute(SensorContext): void</text><!--MD5=[a0a45c0a895aca957ae22b311196540e]
reverse link org.sonar.api.Plugin to com.hack23.sonar.cloudformation.CloudformationPlugin--><path d="M249.1,146.77 C250.29,174.97 251.74,209.29 252.75,233.3 " fill="none" id="org.sonar.api.Plugin&lt;-com.hack23.sonar.cloudformation.CloudformationPlugin" style="stroke: #A80036; stroke-width: 1.0; stroke-dasharray: 7.0,7.0;"/><polygon fill="none" points="242.1,146.95,248.25,126.68,256.09,146.36,242.1,146.95" style="stroke: #A80036; stroke-width: 1.0;"/><!--MD5=[63fe7b739a87e21952d62265d328e55c]
reverse link org.sonar.api.server.profile.BuiltInQualityProfilesDefinition to com.hack23.sonar.cloudformation.CloudformationQualityProfile--><path d="M481.6,146.85 C480.36,172.62 478.87,203.49 477.74,226.93 " fill="none" id="org.sonar.api.server.profile.BuiltInQualityProfilesDefinition&lt;-com.hack23.sonar.cloudformation.CloudformationQualityProfile" style="stroke: #A80036; stroke-width: 1.0; stroke-dasharray: 7.0,7.0;"/><polygon fill="none" points="474.62,146.32,482.57,126.68,488.6,146.99,474.62,146.32" style="stroke: #A80036; stroke-width: 1.0;"/><!--MD5=[2bdc00f05ffbda222481780920a1d1de]
reverse link org.sonar.api.server.rule.RulesDefinition to com.hack23.sonar.cloudformation.CloudformationRulesDefinition--><path d="M1012,146.87 C1012,166.06 1012,188.08 1012,207.74 " fill="none" id="org.sonar.api.server.rule.RulesDefinition&lt;-com.hack23.sonar.cloudformation.CloudformationRulesDefinition" style="stroke: #A80036; stroke-width: 1.0; stroke-dasharray: 7.0,7.0;"/><polygon fill="none" points="1005,146.68,1012,126.68,1019,146.68,1005,146.68" style="stroke: #A80036; stroke-width: 1.0;"/><!--MD5=[3685ffe233817ba259f4776860359136]
reverse link org.sonar.api.batch.sensor.Sensor to com.hack23.sonar.cloudformation.CloudformationSensor--><path d="M1416,153.08 C1416,173 1416,195.22 1416,214.45 " fill="none" id="org.sonar.api.batch.sensor.Sensor&lt;-com.hack23.sonar.cloudformation.CloudformationSensor" style="stroke: #A80036; stroke-width: 1.0; stroke-dasharray: 7.0,7.0;"/><polygon fill="none" points="1409,153.02,1416,133.02,1423,153.02,1409,153.02" style="stroke: #A80036; stroke-width: 1.0;"/><!--MD5=[4267c0e0e1c496da44e4719aff5857d4]
link com.hack23.sonar.cloudformation.CloudformationSensorConfiguration to com.hack23.sonar.cloudformation.CloudformationProperties--><!--MD5=[ccf7d02e476674fce818001880d01f60]
link com.hack23.sonar.cloudformation.CloudformationSensorConfiguration to com.hack23.sonar.cloudformation.CloudformationConstants--><text fill="#888888" font-family="sans-serif" font-size="10" lengthAdjust="spacingAndGlyphs" textLength="186" x="1090.5" y="492.2822">UMLDoclet 2.0.8, PlantUML 1.2020.01</text><!--MD5=[03d7c1855693d9a3aa47c7c168aad155]
@startuml
    namespace com.hack23.sonar.cloudformation {

        class CloudformationPlugin [[CloudformationPlugin.html]] {
            +define(Context): void
        }

        class CloudformationSensorConfiguration [[CloudformationSensorConfiguration.html]] {
            +CloudformationSensorConfiguration(Configuration)
            +getReportFiles(): Optional<String>
        }

        class CloudformationQualityProfile [[CloudformationQualityProfile.html]] {
            {static} +hasRule(String): boolean
            +define(Context): void
        }

        class CloudformationLanguage [[CloudformationLanguage.html]] {
            {static} +NAME: String
            {static} +KEY: String
            +CloudformationLanguage(Configuration)
            +getFileSuffixes(): String[]
        }

        class CloudformationRulesDefinition [[CloudformationRulesDefinition.html]] {
            {static} +KEY: String
            {static} +NAME: String
            {static} +REPO_KEY: String
            {static} +REPO_NAME: String
            +define(Context): void
        }

        class CloudformationProperties [[CloudformationProperties.html]] {
            {static} +FILE_SUFFIXES_KEY: String
            {static} +FILE_SUFFIXES_DEFAULT_VALUE: String
            {static} +getProperties(): List<PropertyDefinition>
        }

        class CloudformationSensor [[CloudformationSensor.html]] {
            {static} +SENSOR_NAME: String
            +CloudformationSensor(CloudformationSensorConfiguration, FileSystem, PathResolver)
            +describe(SensorDescriptor): void
            +execute(SensorContext): void
        }

        class CloudformationConstants [[CloudformationConstants.html]] {
            {static} +REPORT_FILES_PROPERTY: String
        }

        org.sonar.api.Plugin <|.. CloudformationPlugin
        org.sonar.api.server.profile.BuiltInQualityProfilesDefinition <|.. CloudformationQualityProfile
        org.sonar.api.resources.AbstractLanguage <|- - CloudformationLanguage
        org.sonar.api.server.rule.RulesDefinition <|.. CloudformationRulesDefinition
        org.sonar.api.batch.sensor.Sensor <|.. CloudformationSensor
    }

    namespace org.sonar.api {
        interface Plugin {
            {abstract} +define(Context): void
        }
    }

    namespace org.sonar.api.server.profile {
        interface BuiltInQualityProfilesDefinition {
            {abstract} +define(Context): void
        }
    }

    namespace org.sonar.api.resources {
        abstract class AbstractLanguage {
        }
    }

    namespace org.sonar.api.server.rule {
        interface RulesDefinition {
            {abstract} +define(Context): void
        }
    }

    namespace org.sonar.api.batch.sensor {
        interface Sensor {
            {abstract} +describe(SensorDescriptor): void
            {abstract} +execute(SensorContext): void
        }
    }

    center footer UMLDoclet 2.0.8, PlantUML 1.2020.01
@enduml

PlantUML version 1.2020.01(Sun Feb 16 18:40:32 CET 2020)
(APACHE source distribution)
Java Runtime: OpenJDK Runtime Environment
JVM: OpenJDK 64-Bit Server VM
Java Version: 11.0.6+10-post-Ubuntu-2ubuntu2
Operating System: Linux
Default Encoding: UTF-8
Language: en
Country: US
--></g></svg>