<?xml version="1.0" encoding="UTF-8" standalone="no"?><svg xmlns="http://www.w3.org/2000/svg" xmlns:xlink="http://www.w3.org/1999/xlink" contentScriptType="application/ecmascript" contentStyleType="text/css" height="471px" preserveAspectRatio="none" style="width:2205px;height:471px;" version="1.1" viewBox="0 0 2205 471" width="2205px" zoomAndPan="magnify"><defs><filter height="300%" id="fxtfgfg555ah5" width="300%" x="-1" y="-1"><feGaussianBlur result="blurOut" stdDeviation="2.0"/><feColorMatrix in="blurOut" result="blurOut2" type="matrix" values="0 0 0 0 0 0 0 0 0 0 0 0 0 0 0 0 0 0 .4 0"/><feOffset dx="4.0" dy="4.0" in="blurOut2" result="blurOut3"/><feBlend in="SourceGraphic" in2="blurOut3" mode="normal"/></filter></defs><g><!--cluster com.hack23.sonar.cloudformation--><polygon fill="#FFFFFF" filter="url(#fxtfgfg555ah5)" points="14,150,289,150,296,172.2969,2183,172.2969,2183,431,14,431,14,150" style="stroke: #000000; stroke-width: 1.5;"/><line style="stroke: #000000; stroke-width: 1.5;" x1="14" x2="296" y1="172.2969" y2="172.2969"/><text fill="#000000" font-family="sans-serif" font-size="14" font-weight="bold" lengthAdjust="spacingAndGlyphs" textLength="269" x="18" y="164.9951">com.hack23.sonar.cloudformation</text><!--cluster org.sonar.api--><polygon fill="#FFFFFF" filter="url(#fxtfgfg555ah5)" points="24,22.5,135,22.5,142,44.7969,186,44.7969,186,118.5,24,118.5,24,22.5" style="stroke: #000000; stroke-width: 1.5;"/><line style="stroke: #000000; stroke-width: 1.5;" x1="24" x2="142" y1="44.7969" y2="44.7969"/><text fill="#000000" font-family="sans-serif" font-size="14" font-weight="bold" lengthAdjust="spacingAndGlyphs" textLength="105" x="28" y="37.4951">org.sonar.api</text><!--cluster org.sonar.api.server.profile--><polygon fill="#FFFFFF" filter="url(#fxtfgfg555ah5)" points="213,22.5,437,22.5,444,44.7969,447,44.7969,447,118.5,213,118.5,213,22.5" style="stroke: #000000; stroke-width: 1.5;"/><line style="stroke: #000000; stroke-width: 1.5;" x1="213" x2="444" y1="44.7969" y2="44.7969"/><text fill="#000000" font-family="sans-serif" font-size="14" font-weight="bold" lengthAdjust="spacingAndGlyphs" textLength="218" x="217" y="37.4951">org.sonar.api.server.profile</text><!--cluster org.sonar.api.resources--><polygon fill="#FFFFFF" filter="url(#fxtfgfg555ah5)" points="496,29,693,29,700,51.2969,703,51.2969,703,112,496,112,496,29" style="stroke: #000000; stroke-width: 1.5;"/><line style="stroke: #000000; stroke-width: 1.5;" x1="496" x2="700" y1="51.2969" y2="51.2969"/><text fill="#000000" font-family="sans-serif" font-size="14" font-weight="bold" lengthAdjust="spacingAndGlyphs" textLength="191" x="500" y="43.9951">org.sonar.api.resources</text><!--cluster org.sonar.api.server.rule--><polygon fill="#FFFFFF" filter="url(#fxtfgfg555ah5)" points="763,22.5,967,22.5,974,44.7969,977,44.7969,977,118.5,763,118.5,763,22.5" style="stroke: #000000; stroke-width: 1.5;"/><line style="stroke: #000000; stroke-width: 1.5;" x1="763" x2="974" y1="44.7969" y2="44.7969"/><text fill="#000000" font-family="sans-serif" font-size="14" font-weight="bold" lengthAdjust="spacingAndGlyphs" textLength="198" x="767" y="37.4951">org.sonar.api.server.rule</text><!--cluster org.sonar.api.batch.sensor--><polygon fill="#FFFFFF" filter="url(#fxtfgfg555ah5)" points="1159,16,1379,16,1386,38.2969,1389,38.2969,1389,125,1159,125,1159,16" style="stroke: #000000; stroke-width: 1.5;"/><line style="stroke: #000000; stroke-width: 1.5;" x1="1159" x2="1386" y1="38.2969" y2="38.2969"/><text fill="#000000" font-family="sans-serif" font-size="14" font-weight="bold" lengthAdjust="spacingAndGlyphs" textLength="214" x="1163" y="30.9951">org.sonar.api.batch.sensor</text><!--class com.hack23.sonar.cloudformation.CloudformationPlugin--><a target="_top" xlink:actuate="onRequest" xlink:href="CloudformationPlugin.html" xlink:show="new" xlink:title="CloudformationPlugin.html" xlink:type="simple"><rect fill="#FEFECE" filter="url(#fxtfgfg555ah5)" height="60.8047" id="com.hack23.sonar.cloudformation.CloudformationPlugin" style="stroke: #A80036; stroke-width: 1.5;" width="165" x="22.5" y="209"/><ellipse cx="37.5" cy="225" fill="#ADD1B2" rx="11" ry="11" style="stroke: #A80036; stroke-width: 1.0;"/><path d="M40.4688,230.6406 Q39.8906,230.9375 39.25,231.0781 Q38.6094,231.2344 37.9063,231.2344 Q35.4063,231.2344 34.0781,229.5938 Q32.7656,227.9375 32.7656,224.8125 Q32.7656,221.6875 34.0781,220.0313 Q35.4063,218.375 37.9063,218.375 Q38.6094,218.375 39.25,218.5313 Q39.9063,218.6875 40.4688,218.9844 L40.4688,221.7031 Q39.8438,221.125 39.25,220.8594 Q38.6563,220.5781 38.0313,220.5781 Q36.6875,220.5781 36,221.6563 Q35.3125,222.7188 35.3125,224.8125 Q35.3125,226.9063 36,227.9844 Q36.6875,229.0469 38.0313,229.0469 Q38.6563,229.0469 39.25,228.7813 Q39.8438,228.5 40.4688,227.9219 L40.4688,230.6406 Z "/><text fill="#000000" font-family="sans-serif" font-size="12" lengthAdjust="spacingAndGlyphs" textLength="133" x="51.5" y="229.1543">CloudformationPlugin</text><line style="stroke: #A80036; stroke-width: 1.5;" x1="23.5" x2="186.5" y1="241" y2="241"/><line style="stroke: #A80036; stroke-width: 1.5;" x1="23.5" x2="186.5" y1="249" y2="249"/><ellipse cx="33.5" cy="260.9023" fill="#84BE84" rx="3" ry="3" style="stroke: #038048; stroke-width: 1.0;"/><text fill="#000000" font-family="sans-serif" font-size="11" lengthAdjust="spacingAndGlyphs" textLength="117" x="42.5" y="263.2104">define(Context): void</text></a><!--class com.hack23.sonar.cloudformation.CloudformationSensorConfiguration--><a target="_top" xlink:actuate="onRequest" xlink:href="CloudformationSensorConfiguration.html" xlink:show="new" xlink:title="CloudformationSensorConfiguration.html" xlink:type="simple"><rect fill="#FEFECE" filter="url(#fxtfgfg555ah5)" height="73.6094" id="com.hack23.sonar.cloudformation.CloudformationSensorConfiguration" style="stroke: #A80036; stroke-width: 1.5;" width="314" x="1568" y="202.5"/><ellipse cx="1609.55" cy="218.5" fill="#ADD1B2" rx="11" ry="11" style="stroke: #A80036; stroke-width: 1.0;"/><path d="M1612.5188,224.1406 Q1611.9406,224.4375 1611.3,224.5781 Q1610.6594,224.7344 1609.9563,224.7344 Q1607.4563,224.7344 1606.1281,223.0938 Q1604.8156,221.4375 1604.8156,218.3125 Q1604.8156,215.1875 1606.1281,213.5313 Q1607.4563,211.875 1609.9563,211.875 Q1610.6594,211.875 1611.3,212.0313 Q1611.9563,212.1875 1612.5188,212.4844 L1612.5188,215.2031 Q1611.8938,214.625 1611.3,214.3594 Q1610.7063,214.0781 1610.0813,214.0781 Q1608.7375,214.0781 1608.05,215.1563 Q1607.3625,216.2188 1607.3625,218.3125 Q1607.3625,220.4063 1608.05,221.4844 Q1608.7375,222.5469 1610.0813,222.5469 Q1610.7063,222.5469 1611.3,222.2813 Q1611.8938,222 1612.5188,221.4219 L1612.5188,224.1406 Z "/><text fill="#000000" font-family="sans-serif" font-size="12" lengthAdjust="spacingAndGlyphs" textLength="223" x="1629.45" y="222.6543">CloudformationSensorConfiguration</text><line style="stroke: #A80036; stroke-width: 1.5;" x1="1569" x2="1881" y1="234.5" y2="234.5"/><line style="stroke: #A80036; stroke-width: 1.5;" x1="1569" x2="1881" y1="242.5" y2="242.5"/><ellipse cx="1579" cy="254.4023" fill="#84BE84" rx="3" ry="3" style="stroke: #038048; stroke-width: 1.0;"/><text fill="#000000" font-family="sans-serif" font-size="11" lengthAdjust="spacingAndGlyphs" textLength="288" x="1588" y="256.7104">CloudformationSensorConfiguration(Configuration)</text><ellipse cx="1579" cy="267.207" fill="#84BE84" rx="3" ry="3" style="stroke: #038048; stroke-width: 1.0;"/><text fill="#000000" font-family="sans-serif" font-size="11" lengthAdjust="spacingAndGlyphs" textLength="196" x="1588" y="269.5151">getReportFiles(): Optional&lt;String&gt;</text></a><!--class com.hack23.sonar.cloudformation.CloudformationQualityProfile--><a target="_top" xlink:actuate="onRequest" xlink:href="CloudformationQualityProfile.html" xlink:show="new" xlink:title="CloudformationQualityProfile.html" xlink:type="simple"><rect fill="#FEFECE" filter="url(#fxtfgfg555ah5)" height="73.6094" id="com.hack23.sonar.cloudformation.CloudformationQualityProfile" style="stroke: #A80036; stroke-width: 1.5;" width="215" x="222.5" y="202.5"/><ellipse cx="240.65" cy="218.5" fill="#ADD1B2" rx="11" ry="11" style="stroke: #A80036; stroke-width: 1.0;"/><path d="M243.6188,224.1406 Q243.0406,224.4375 242.4,224.5781 Q241.7594,224.7344 241.0563,224.7344 Q238.5563,224.7344 237.2281,223.0938 Q235.9156,221.4375 235.9156,218.3125 Q235.9156,215.1875 237.2281,213.5313 Q238.5563,211.875 241.0563,211.875 Q241.7594,211.875 242.4,212.0313 Q243.0563,212.1875 243.6188,212.4844 L243.6188,215.2031 Q242.9938,214.625 242.4,214.3594 Q241.8063,214.0781 241.1813,214.0781 Q239.8375,214.0781 239.15,215.1563 Q238.4625,216.2188 238.4625,218.3125 Q238.4625,220.4063 239.15,221.4844 Q239.8375,222.5469 241.1813,222.5469 Q241.8063,222.5469 242.4,222.2813 Q242.9938,222 243.6188,221.4219 L243.6188,224.1406 Z "/><text fill="#000000" font-family="sans-serif" font-size="12" lengthAdjust="spacingAndGlyphs" textLength="176" x="255.35" y="222.6543">CloudformationQualityProfile</text><line style="stroke: #A80036; stroke-width: 1.5;" x1="223.5" x2="436.5" y1="234.5" y2="234.5"/><ellipse cx="233.5" cy="246.4023" fill="none" rx="3" ry="3" style="stroke: #038048; stroke-width: 1.0;"/><text fill="#000000" font-family="sans-serif" font-size="11" lengthAdjust="spacingAndGlyphs" text-decoration="underline" textLength="189" x="242.5" y="248.7104">SUPPORTED_RULES: Set&lt;String&gt;</text><line style="stroke: #000000; stroke-width: 1.0;" x1="242.5" x2="431.5" y1="250.7104" y2="250.7104"/><line style="stroke: #A80036; stroke-width: 1.5;" x1="223.5" x2="436.5" y1="255.3047" y2="255.3047"/><ellipse cx="233.5" cy="267.207" fill="#84BE84" rx="3" ry="3" style="stroke: #038048; stroke-width: 1.0;"/><text fill="#000000" font-family="sans-serif" font-size="11" lengthAdjust="spacingAndGlyphs" textLength="117" x="242.5" y="269.5151">define(Context): void</text></a><!--class com.hack23.sonar.cloudformation.CloudformationLanguage--><a target="_top" xlink:actuate="onRequest" xlink:href="CloudformationLanguage.html" xlink:show="new" xlink:title="CloudformationLanguage.html" xlink:type="simple"><rect fill="#FEFECE" filter="url(#fxtfgfg555ah5)" height="99.2188" id="com.hack23.sonar.cloudformation.CloudformationLanguage" style="stroke: #A80036; stroke-width: 1.5;" width="252" x="473" y="190"/><ellipse cx="516.35" cy="206" fill="#ADD1B2" rx="11" ry="11" style="stroke: #A80036; stroke-width: 1.0;"/><path d="M519.3188,211.6406 Q518.7406,211.9375 518.1,212.0781 Q517.4594,212.2344 516.7563,212.2344 Q514.2563,212.2344 512.9281,210.5938 Q511.6156,208.9375 511.6156,205.8125 Q511.6156,202.6875 512.9281,201.0313 Q514.2563,199.375 516.7563,199.375 Q517.4594,199.375 518.1,199.5313 Q518.7563,199.6875 519.3188,199.9844 L519.3188,202.7031 Q518.6938,202.125 518.1,201.8594 Q517.5063,201.5781 516.8813,201.5781 Q515.5375,201.5781 514.85,202.6563 Q514.1625,203.7188 514.1625,205.8125 Q514.1625,207.9063 514.85,208.9844 Q515.5375,210.0469 516.8813,210.0469 Q517.5063,210.0469 518.1,209.7813 Q518.6938,209.5 519.3188,208.9219 L519.3188,211.6406 Z "/><text fill="#000000" font-family="sans-serif" font-size="12" lengthAdjust="spacingAndGlyphs" textLength="157" x="536.65" y="210.1543">CloudformationLanguage</text><line style="stroke: #A80036; stroke-width: 1.5;" x1="474" x2="724" y1="222" y2="222"/><ellipse cx="484" cy="233.9023" fill="none" rx="3" ry="3" style="stroke: #038048; stroke-width: 1.0;"/><text fill="#000000" font-family="sans-serif" font-size="11" lengthAdjust="spacingAndGlyphs" text-decoration="underline" textLength="73" x="493" y="236.2104">NAME: String</text><line style="stroke: #000000; stroke-width: 1.0;" x1="493" x2="566" y1="238.2104" y2="238.2104"/><ellipse cx="484" cy="246.707" fill="none" rx="3" ry="3" style="stroke: #038048; stroke-width: 1.0;"/><text fill="#000000" font-family="sans-serif" font-size="11" lengthAdjust="spacingAndGlyphs" text-decoration="underline" textLength="63" x="493" y="249.0151">KEY: String</text><line style="stroke: #000000; stroke-width: 1.0;" x1="493" x2="556" y1="251.0151" y2="251.0151"/><line style="stroke: #A80036; stroke-width: 1.5;" x1="474" x2="724" y1="255.6094" y2="255.6094"/><ellipse cx="484" cy="267.5117" fill="#84BE84" rx="3" ry="3" style="stroke: #038048; stroke-width: 1.0;"/><text fill="#000000" font-family="sans-serif" font-size="11" lengthAdjust="spacingAndGlyphs" textLength="226" x="493" y="269.8198">CloudformationLanguage(Configuration)</text><ellipse cx="484" cy="280.3164" fill="#84BE84" rx="3" ry="3" style="stroke: #038048; stroke-width: 1.0;"/><text fill="#000000" font-family="sans-serif" font-size="11" lengthAdjust="spacingAndGlyphs" textLength="141" x="493" y="282.6245">getFileSuffixes(): String[]</text></a><!--class com.hack23.sonar.cloudformation.CloudformationRulesDefinition--><a target="_top" xlink:actuate="onRequest" xlink:href="CloudformationRulesDefinition.html" xlink:show="new" xlink:title="CloudformationRulesDefinition.html" xlink:type="simple"><rect fill="#FEFECE" filter="url(#fxtfgfg555ah5)" height="124.8281" id="com.hack23.sonar.cloudformation.CloudformationRulesDefinition" style="stroke: #A80036; stroke-width: 1.5;" width="220" x="760" y="177"/><ellipse cx="775" cy="193" fill="#ADD1B2" rx="11" ry="11" style="stroke: #A80036; stroke-width: 1.0;"/><path d="M777.9688,198.6406 Q777.3906,198.9375 776.75,199.0781 Q776.1094,199.2344 775.4063,199.2344 Q772.9063,199.2344 771.5781,197.5938 Q770.2656,195.9375 770.2656,192.8125 Q770.2656,189.6875 771.5781,188.0313 Q772.9063,186.375 775.4063,186.375 Q776.1094,186.375 776.75,186.5313 Q777.4063,186.6875 777.9688,186.9844 L777.9688,189.7031 Q777.3438,189.125 776.75,188.8594 Q776.1563,188.5781 775.5313,188.5781 Q774.1875,188.5781 773.5,189.6563 Q772.8125,190.7188 772.8125,192.8125 Q772.8125,194.9063 773.5,195.9844 Q774.1875,197.0469 775.5313,197.0469 Q776.1563,197.0469 776.75,196.7813 Q777.3438,196.5 777.9688,195.9219 L777.9688,198.6406 Z "/><text fill="#000000" font-family="sans-serif" font-size="12" lengthAdjust="spacingAndGlyphs" textLength="188" x="789" y="197.1543">CloudformationRulesDefinition</text><line style="stroke: #A80036; stroke-width: 1.5;" x1="761" x2="979" y1="209" y2="209"/><polygon fill="none" points="771,215.9023,775,219.9023,771,223.9023,767,219.9023" style="stroke: #B38D22; stroke-width: 1.0;"/><text fill="#000000" font-family="sans-serif" font-size="11" lengthAdjust="spacingAndGlyphs" text-decoration="underline" textLength="63" x="780" y="223.2104">KEY: String</text><line style="stroke: #000000; stroke-width: 1.0;" x1="780" x2="843" y1="225.2104" y2="225.2104"/><polygon fill="none" points="771,228.707,775,232.707,771,236.707,767,232.707" style="stroke: #B38D22; stroke-width: 1.0;"/><text fill="#000000" font-family="sans-serif" font-size="11" lengthAdjust="spacingAndGlyphs" text-decoration="underline" textLength="73" x="780" y="236.0151">NAME: String</text><line style="stroke: #000000; stroke-width: 1.0;" x1="780" x2="853" y1="238.0151" y2="238.0151"/><ellipse cx="771" cy="246.5117" fill="none" rx="3" ry="3" style="stroke: #038048; stroke-width: 1.0;"/><text fill="#000000" font-family="sans-serif" font-size="11" lengthAdjust="spacingAndGlyphs" text-decoration="underline" textLength="99" x="780" y="248.8198">REPO_KEY: String</text><line style="stroke: #000000; stroke-width: 1.0;" x1="780" x2="879" y1="250.8198" y2="250.8198"/><polygon fill="none" points="771,254.3164,775,258.3164,771,262.3164,767,258.3164" style="stroke: #B38D22; stroke-width: 1.0;"/><text fill="#000000" font-family="sans-serif" font-size="11" lengthAdjust="spacingAndGlyphs" text-decoration="underline" textLength="109" x="780" y="261.6245">REPO_NAME: String</text><line style="stroke: #000000; stroke-width: 1.0;" x1="780" x2="889" y1="263.6245" y2="263.6245"/><line style="stroke: #A80036; stroke-width: 1.5;" x1="761" x2="979" y1="268.2188" y2="268.2188"/><polygon fill="#FFFF44" points="771,275.1211,775,279.1211,771,283.1211,767,279.1211" style="stroke: #B38D22; stroke-width: 1.0;"/><text fill="#000000" font-family="sans-serif" font-size="11" lengthAdjust="spacingAndGlyphs" textLength="176" x="780" y="282.4292">rulesDefinitionFilePath(): String</text><ellipse cx="771" cy="292.9258" fill="#84BE84" rx="3" ry="3" style="stroke: #038048; stroke-width: 1.0;"/><text fill="#000000" font-family="sans-serif" font-size="11" lengthAdjust="spacingAndGlyphs" textLength="117" x="780" y="295.2339">define(Context): void</text></a><!--class com.hack23.sonar.cloudformation.CloudformationProperties--><a target="_top" xlink:actuate="onRequest" xlink:href="CloudformationProperties.html" xlink:show="new" xlink:title="CloudformationProperties.html" xlink:type="simple"><rect fill="#FEFECE" filter="url(#fxtfgfg555ah5)" height="86.4141" id="com.hack23.sonar.cloudformation.CloudformationProperties" style="stroke: #A80036; stroke-width: 1.5;" width="258" x="1917" y="196.5"/><ellipse cx="1961.75" cy="212.5" fill="#ADD1B2" rx="11" ry="11" style="stroke: #A80036; stroke-width: 1.0;"/><path d="M1964.7188,218.1406 Q1964.1406,218.4375 1963.5,218.5781 Q1962.8594,218.7344 1962.1563,218.7344 Q1959.6563,218.7344 1958.3281,217.0938 Q1957.0156,215.4375 1957.0156,212.3125 Q1957.0156,209.1875 1958.3281,207.5313 Q1959.6563,205.875 1962.1563,205.875 Q1962.8594,205.875 1963.5,206.0313 Q1964.1563,206.1875 1964.7188,206.4844 L1964.7188,209.2031 Q1964.0938,208.625 1963.5,208.3594 Q1962.9063,208.0781 1962.2813,208.0781 Q1960.9375,208.0781 1960.25,209.1563 Q1959.5625,210.2188 1959.5625,212.3125 Q1959.5625,214.4063 1960.25,215.4844 Q1960.9375,216.5469 1962.2813,216.5469 Q1962.9063,216.5469 1963.5,216.2813 Q1964.0938,216 1964.7188,215.4219 L1964.7188,218.1406 Z "/><text fill="#000000" font-family="sans-serif" font-size="12" lengthAdjust="spacingAndGlyphs" textLength="160" x="1982.25" y="216.6543">CloudformationProperties</text><line style="stroke: #A80036; stroke-width: 1.5;" x1="1918" x2="2174" y1="228.5" y2="228.5"/><ellipse cx="1928" cy="240.4023" fill="none" rx="3" ry="3" style="stroke: #038048; stroke-width: 1.0;"/><text fill="#000000" font-family="sans-serif" font-size="11" lengthAdjust="spacingAndGlyphs" text-decoration="underline" textLength="150" x="1937" y="242.7104">FILE_SUFFIXES_KEY: String</text><line style="stroke: #000000; stroke-width: 1.0;" x1="1937" x2="2087" y1="244.7104" y2="244.7104"/><ellipse cx="1928" cy="253.207" fill="none" rx="3" ry="3" style="stroke: #038048; stroke-width: 1.0;"/><text fill="#000000" font-family="sans-serif" font-size="11" lengthAdjust="spacingAndGlyphs" text-decoration="underline" textLength="219" x="1937" y="255.5151">FILE_SUFFIXES_DEFAULT_VALUE: String</text><line style="stroke: #000000; stroke-width: 1.0;" x1="1937" x2="2156" y1="257.5151" y2="257.5151"/><line style="stroke: #A80036; stroke-width: 1.5;" x1="1918" x2="2174" y1="262.1094" y2="262.1094"/><ellipse cx="1928" cy="274.0117" fill="#84BE84" rx="3" ry="3" style="stroke: #038048; stroke-width: 1.0;"/><text fill="#000000" font-family="sans-serif" font-size="11" lengthAdjust="spacingAndGlyphs" text-decoration="underline" textLength="232" x="1937" y="276.3198">getProperties(): List&lt;PropertyDefinition&gt;</text><line style="stroke: #000000; stroke-width: 1.0;" x1="1937" x2="2169" y1="278.3198" y2="278.3198"/></a><!--class com.hack23.sonar.cloudformation.CloudformationSensor--><a target="_top" xlink:actuate="onRequest" xlink:href="CloudformationSensor.html" xlink:show="new" xlink:title="CloudformationSensor.html" xlink:type="simple"><rect fill="#FEFECE" filter="url(#fxtfgfg555ah5)" height="99.2188" id="com.hack23.sonar.cloudformation.CloudformationSensor" style="stroke: #A80036; stroke-width: 1.5;" width="518" x="1015" y="190"/><ellipse cx="1200.25" cy="206" fill="#ADD1B2" rx="11" ry="11" style="stroke: #A80036; stroke-width: 1.0;"/><path d="M1203.2188,211.6406 Q1202.6406,211.9375 1202,212.0781 Q1201.3594,212.2344 1200.6563,212.2344 Q1198.1563,212.2344 1196.8281,210.5938 Q1195.5156,208.9375 1195.5156,205.8125 Q1195.5156,202.6875 1196.8281,201.0313 Q1198.1563,199.375 1200.6563,199.375 Q1201.3594,199.375 1202,199.5313 Q1202.6563,199.6875 1203.2188,199.9844 L1203.2188,202.7031 Q1202.5938,202.125 1202,201.8594 Q1201.4063,201.5781 1200.7813,201.5781 Q1199.4375,201.5781 1198.75,202.6563 Q1198.0625,203.7188 1198.0625,205.8125 Q1198.0625,207.9063 1198.75,208.9844 Q1199.4375,210.0469 1200.7813,210.0469 Q1201.4063,210.0469 1202,209.7813 Q1202.5938,209.5 1203.2188,208.9219 L1203.2188,211.6406 Z "/><text fill="#000000" font-family="sans-serif" font-size="12" lengthAdjust="spacingAndGlyphs" textLength="139" x="1220.75" y="210.1543">CloudformationSensor</text><line style="stroke: #A80036; stroke-width: 1.5;" x1="1016" x2="1532" y1="222" y2="222"/><ellipse cx="1026" cy="233.9023" fill="none" rx="3" ry="3" style="stroke: #038048; stroke-width: 1.0;"/><text fill="#000000" font-family="sans-serif" font-size="11" lengthAdjust="spacingAndGlyphs" text-decoration="underline" textLength="126" x="1035" y="236.2104">SENSOR_NAME: String</text><line style="stroke: #000000; stroke-width: 1.0;" x1="1035" x2="1161" y1="238.2104" y2="238.2104"/><line style="stroke: #A80036; stroke-width: 1.5;" x1="1016" x2="1532" y1="242.8047" y2="242.8047"/><ellipse cx="1026" cy="254.707" fill="#84BE84" rx="3" ry="3" style="stroke: #038048; stroke-width: 1.0;"/><text fill="#000000" font-family="sans-serif" font-size="11" lengthAdjust="spacingAndGlyphs" textLength="492" x="1035" y="257.0151">CloudformationSensor(CloudformationSensorConfiguration, FileSystem, PathResolver)</text><ellipse cx="1026" cy="267.5117" fill="#84BE84" rx="3" ry="3" style="stroke: #038048; stroke-width: 1.0;"/><text fill="#000000" font-family="sans-serif" font-size="11" lengthAdjust="spacingAndGlyphs" textLength="188" x="1035" y="269.8198">describe(SensorDescriptor): void</text><ellipse cx="1026" cy="280.3164" fill="#84BE84" rx="3" ry="3" style="stroke: #038048; stroke-width: 1.0;"/><text fill="#000000" font-family="sans-serif" font-size="11" lengthAdjust="spacingAndGlyphs" textLength="167" x="1035" y="282.6245">execute(SensorContext): void</text></a><!--class com.hack23.sonar.cloudformation.CloudformationConstants--><a target="_top" xlink:actuate="onRequest" xlink:href="CloudformationConstants.html" xlink:show="new" xlink:title="CloudformationConstants.html" xlink:type="simple"><rect fill="#FEFECE" filter="url(#fxtfgfg555ah5)" height="60.8047" id="com.hack23.sonar.cloudformation.CloudformationConstants" style="stroke: #A80036; stroke-width: 1.5;" width="212" x="1619" y="362"/><ellipse cx="1643.45" cy="378" fill="#ADD1B2" rx="11" ry="11" style="stroke: #A80036; stroke-width: 1.0;"/><path d="M1646.4188,383.6406 Q1645.8406,383.9375 1645.2,384.0781 Q1644.5594,384.2344 1643.8563,384.2344 Q1641.3563,384.2344 1640.0281,382.5938 Q1638.7156,380.9375 1638.7156,377.8125 Q1638.7156,374.6875 1640.0281,373.0313 Q1641.3563,371.375 1643.8563,371.375 Q1644.5594,371.375 1645.2,371.5313 Q1645.8563,371.6875 1646.4188,371.9844 L1646.4188,374.7031 Q1645.7938,374.125 1645.2,373.8594 Q1644.6063,373.5781 1643.9813,373.5781 Q1642.6375,373.5781 1641.95,374.6563 Q1641.2625,375.7188 1641.2625,377.8125 Q1641.2625,379.9063 1641.95,380.9844 Q1642.6375,382.0469 1643.9813,382.0469 Q1644.6063,382.0469 1645.2,381.7813 Q1645.7938,381.5 1646.4188,380.9219 L1646.4188,383.6406 Z "/><text fill="#000000" font-family="sans-serif" font-size="12" lengthAdjust="spacingAndGlyphs" textLength="159" x="1659.55" y="382.1543">CloudformationConstants</text><line style="stroke: #A80036; stroke-width: 1.5;" x1="1620" x2="1830" y1="394" y2="394"/><ellipse cx="1630" cy="405.9023" fill="none" rx="3" ry="3" style="stroke: #038048; stroke-width: 1.0;"/><text fill="#000000" font-family="sans-serif" font-size="11" lengthAdjust="spacingAndGlyphs" text-decoration="underline" textLength="186" x="1639" y="408.2104">REPORT_FILES_PROPERTY: String</text><line style="stroke: #000000; stroke-width: 1.0;" x1="1639" x2="1825" y1="410.2104" y2="410.2104"/><line style="stroke: #A80036; stroke-width: 1.5;" x1="1620" x2="1830" y1="414.8047" y2="414.8047"/></a><!--class org.sonar.api.Plugin--><rect fill="#FEFECE" filter="url(#fxtfgfg555ah5)" height="60.8047" id="org.sonar.api.Plugin" style="stroke: #A80036; stroke-width: 1.5;" width="145" x="32.5" y="49.5"/><ellipse cx="82.25" cy="65.5" fill="#B4A7E5" rx="11" ry="11" style="stroke: #A80036; stroke-width: 1.0;"/><path d="M78.1719,61.2656 L78.1719,59.1094 L85.5625,59.1094 L85.5625,61.2656 L83.0938,61.2656 L83.0938,69.3438 L85.5625,69.3438 L85.5625,71.5 L78.1719,71.5 L78.1719,69.3438 L80.6406,69.3438 L80.6406,61.2656 L78.1719,61.2656 Z "/><text fill="#000000" font-family="sans-serif" font-size="12" font-style="italic" lengthAdjust="spacingAndGlyphs" textLength="37" x="102.75" y="69.6543">Plugin</text><line style="stroke: #A80036; stroke-width: 1.5;" x1="33.5" x2="176.5" y1="81.5" y2="81.5"/><line style="stroke: #A80036; stroke-width: 1.5;" x1="33.5" x2="176.5" y1="89.5" y2="89.5"/><ellipse cx="43.5" cy="101.4023" fill="#84BE84" rx="3" ry="3" style="stroke: #038048; stroke-width: 1.0;"/><text fill="#000000" font-family="sans-serif" font-size="11" font-style="italic" lengthAdjust="spacingAndGlyphs" textLength="119" x="52.5" y="103.7104">define(Context): void</text><!--class org.sonar.api.server.profile.BuiltInQualityProfilesDefinition--><rect fill="#FEFECE" filter="url(#fxtfgfg555ah5)" height="60.8047" id="org.sonar.api.server.profile.BuiltInQualityProfilesDefinition" style="stroke: #A80036; stroke-width: 1.5;" width="216" x="222" y="49.5"/><ellipse cx="237" cy="65.5" fill="#B4A7E5" rx="11" ry="11" style="stroke: #A80036; stroke-width: 1.0;"/><path d="M232.9219,61.2656 L232.9219,59.1094 L240.3125,59.1094 L240.3125,61.2656 L237.8438,61.2656 L237.8438,69.3438 L240.3125,69.3438 L240.3125,71.5 L232.9219,71.5 L232.9219,69.3438 L235.3906,69.3438 L235.3906,61.2656 L232.9219,61.2656 Z "/><text fill="#000000" font-family="sans-serif" font-size="12" font-style="italic" lengthAdjust="spacingAndGlyphs" textLength="184" x="251" y="69.6543">BuiltInQualityProfilesDefinition</text><line style="stroke: #A80036; stroke-width: 1.5;" x1="223" x2="437" y1="81.5" y2="81.5"/><line style="stroke: #A80036; stroke-width: 1.5;" x1="223" x2="437" y1="89.5" y2="89.5"/><ellipse cx="233" cy="101.4023" fill="#84BE84" rx="3" ry="3" style="stroke: #038048; stroke-width: 1.0;"/><text fill="#000000" font-family="sans-serif" font-size="11" font-style="italic" lengthAdjust="spacingAndGlyphs" textLength="119" x="242" y="103.7104">define(Context): void</text><!--class org.sonar.api.resources.AbstractLanguage--><rect fill="#FEFECE" filter="url(#fxtfgfg555ah5)" height="48" id="org.sonar.api.resources.AbstractLanguage" style="stroke: #A80036; stroke-width: 1.5;" width="147" x="525.5" y="56"/><ellipse cx="540.5" cy="72" fill="#A9DCDF" rx="11" ry="11" style="stroke: #A80036; stroke-width: 1.0;"/><path d="M540.6094,67.3438 L539.4531,72.4219 L541.7813,72.4219 L540.6094,67.3438 Z M539.125,65.1094 L542.1094,65.1094 L545.4688,77.5 L543.0156,77.5 L542.25,74.4375 L538.9688,74.4375 L538.2188,77.5 L535.7813,77.5 L539.125,65.1094 Z "/><text fill="#000000" font-family="sans-serif" font-size="12" font-style="italic" lengthAdjust="spacingAndGlyphs" textLength="115" x="554.5" y="76.1543">AbstractLanguage</text><line style="stroke: #A80036; stroke-width: 1.5;" x1="526.5" x2="671.5" y1="88" y2="88"/><line style="stroke: #A80036; stroke-width: 1.5;" x1="526.5" x2="671.5" y1="96" y2="96"/><!--class org.sonar.api.server.rule.RulesDefinition--><rect fill="#FEFECE" filter="url(#fxtfgfg555ah5)" height="60.8047" id="org.sonar.api.server.rule.RulesDefinition" style="stroke: #A80036; stroke-width: 1.5;" width="145" x="797.5" y="49.5"/><ellipse cx="821.95" cy="65.5" fill="#B4A7E5" rx="11" ry="11" style="stroke: #A80036; stroke-width: 1.0;"/><path d="M817.8719,61.2656 L817.8719,59.1094 L825.2625,59.1094 L825.2625,61.2656 L822.7938,61.2656 L822.7938,69.3438 L825.2625,69.3438 L825.2625,71.5 L817.8719,71.5 L817.8719,69.3438 L820.3406,69.3438 L820.3406,61.2656 L817.8719,61.2656 Z "/><text fill="#000000" font-family="sans-serif" font-size="12" font-style="italic" lengthAdjust="spacingAndGlyphs" textLength="92" x="838.05" y="69.6543">RulesDefinition</text><line style="stroke: #A80036; stroke-width: 1.5;" x1="798.5" x2="941.5" y1="81.5" y2="81.5"/><line style="stroke: #A80036; stroke-width: 1.5;" x1="798.5" x2="941.5" y1="89.5" y2="89.5"/><ellipse cx="808.5" cy="101.4023" fill="#84BE84" rx="3" ry="3" style="stroke: #038048; stroke-width: 1.0;"/><text fill="#000000" font-family="sans-serif" font-size="11" font-style="italic" lengthAdjust="spacingAndGlyphs" textLength="119" x="817.5" y="103.7104">define(Context): void</text><!--class org.sonar.api.batch.sensor.Sensor--><rect fill="#FEFECE" filter="url(#fxtfgfg555ah5)" height="73.6094" id="org.sonar.api.batch.sensor.Sensor" style="stroke: #A80036; stroke-width: 1.5;" width="211" x="1168.5" y="43"/><ellipse cx="1248.25" cy="59" fill="#B4A7E5" rx="11" ry="11" style="stroke: #A80036; stroke-width: 1.0;"/><path d="M1244.1719,54.7656 L1244.1719,52.6094 L1251.5625,52.6094 L1251.5625,54.7656 L1249.0938,54.7656 L1249.0938,62.8438 L1251.5625,62.8438 L1251.5625,65 L1244.1719,65 L1244.1719,62.8438 L1246.6406,62.8438 L1246.6406,54.7656 L1244.1719,54.7656 Z "/><text fill="#000000" font-family="sans-serif" font-size="12" font-style="italic" lengthAdjust="spacingAndGlyphs" textLength="43" x="1268.75" y="63.1543">Sensor</text><line style="stroke: #A80036; stroke-width: 1.5;" x1="1169.5" x2="1378.5" y1="75" y2="75"/><line style="stroke: #A80036; stroke-width: 1.5;" x1="1169.5" x2="1378.5" y1="83" y2="83"/><ellipse cx="1179.5" cy="94.9023" fill="#84BE84" rx="3" ry="3" style="stroke: #038048; stroke-width: 1.0;"/><text fill="#000000" font-family="sans-serif" font-size="11" font-style="italic" lengthAdjust="spacingAndGlyphs" textLength="185" x="1188.5" y="97.2104">describe(SensorDescriptor): void</text><ellipse cx="1179.5" cy="107.707" fill="#84BE84" rx="3" ry="3" style="stroke: #038048; stroke-width: 1.0;"/><text fill="#000000" font-family="sans-serif" font-size="11" font-style="italic" lengthAdjust="spacingAndGlyphs" textLength="168" x="1188.5" y="110.0151">execute(SensorContext): void</text><!--link org.sonar.api.Plugin to com.hack23.sonar.cloudformation.CloudformationPlugin--><path d="M105,130.9293 C105,156.5683 105,186.7991 105,208.8412 " fill="none" id="org.sonar.api.Plugin-com.hack23.sonar.cloudformation.CloudformationPlugin" style="stroke: #A80036; stroke-width: 1.0; stroke-dasharray: 7.0,7.0;"/><polygon fill="none" points="98.0001,130.7532,105,110.7532,112.0001,130.7532,98.0001,130.7532" style="stroke: #A80036; stroke-width: 1.0;"/><!--link org.sonar.api.server.profile.BuiltInQualityProfilesDefinition to com.hack23.sonar.cloudformation.CloudformationQualityProfile--><path d="M330,130.7667 C330,154.0229 330,181.0852 330,202.3936 " fill="none" id="org.sonar.api.server.profile.BuiltInQualityProfilesDefinition-com.hack23.sonar.cloudformation.CloudformationQualityProfile" style="stroke: #A80036; stroke-width: 1.0; stroke-dasharray: 7.0,7.0;"/><polygon fill="none" points="323.0001,130.7532,330,110.7532,337.0001,130.7532,323.0001,130.7532" style="stroke: #A80036; stroke-width: 1.0;"/><!--link org.sonar.api.resources.AbstractLanguage to com.hack23.sonar.cloudformation.CloudformationLanguage--><path d="M599,124.4579 C599,144.8017 599,168.9836 599,189.9143 " fill="none" id="org.sonar.api.resources.AbstractLanguage-com.hack23.sonar.cloudformation.CloudformationLanguage" style="stroke: #A80036; stroke-width: 1.0;"/><polygon fill="none" points="592.0001,124.2247,599,104.2246,606.0001,124.2246,592.0001,124.2247" style="stroke: #A80036; stroke-width: 1.0;"/><!--link org.sonar.api.server.rule.RulesDefinition to com.hack23.sonar.cloudformation.CloudformationRulesDefinition--><path d="M870,130.8258 C870,145.4477 870,161.5702 870,176.8191 " fill="none" id="org.sonar.api.server.rule.RulesDefinition-com.hack23.sonar.cloudformation.CloudformationRulesDefinition" style="stroke: #A80036; stroke-width: 1.0; stroke-dasharray: 7.0,7.0;"/><polygon fill="none" points="863.0001,130.7532,870,110.7532,877.0001,130.7532,863.0001,130.7532" style="stroke: #A80036; stroke-width: 1.0;"/><!--link org.sonar.api.batch.sensor.Sensor to com.hack23.sonar.cloudformation.CloudformationSensor--><path d="M1274,137.6726 C1274,154.796 1274,173.3936 1274,189.9527 " fill="none" id="org.sonar.api.batch.sensor.Sensor-com.hack23.sonar.cloudformation.CloudformationSensor" style="stroke: #A80036; stroke-width: 1.0; stroke-dasharray: 7.0,7.0;"/><polygon fill="none" points="1267.0001,137.3957,1274,117.3957,1281.0001,137.3956,1267.0001,137.3957" style="stroke: #A80036; stroke-width: 1.0;"/><!--link com.hack23.sonar.cloudformation.CloudformationSensorConfiguration to com.hack23.sonar.cloudformation.CloudformationProperties--><!--link com.hack23.sonar.cloudformation.CloudformationSensorConfiguration to com.hack23.sonar.cloudformation.CloudformationConstants--><text fill="#888888" font-family="sans-serif" font-size="10" lengthAdjust="spacingAndGlyphs" textLength="186" x="1011.5" y="458.2822">UMLDoclet 2.0.2, PlantUML 1.2019.01</text><!--
@startuml
    namespace com.hack23.sonar.cloudformation {

        class CloudformationPlugin [[CloudformationPlugin.html]] {
            +define(Context): void
        }

        class CloudformationSensorConfiguration [[CloudformationSensorConfiguration.html]] {
            +CloudformationSensorConfiguration(Configuration)
            +getReportFiles(): Optional<String>
        }

        class CloudformationQualityProfile [[CloudformationQualityProfile.html]] {
            {static} +SUPPORTED_RULES: Set<String>
            +define(Context): void
        }

        class CloudformationLanguage [[CloudformationLanguage.html]] {
            {static} +NAME: String
            {static} +KEY: String
            +CloudformationLanguage(Configuration)
            +getFileSuffixes(): String[]
        }

        class CloudformationRulesDefinition [[CloudformationRulesDefinition.html]] {
            {static} #KEY: String
            {static} #NAME: String
            {static} +REPO_KEY: String
            {static} #REPO_NAME: String
            #rulesDefinitionFilePath(): String
            +define(Context): void
        }

        class CloudformationProperties [[CloudformationProperties.html]] {
            {static} +FILE_SUFFIXES_KEY: String
            {static} +FILE_SUFFIXES_DEFAULT_VALUE: String
            {static} +getProperties(): List<PropertyDefinition>
        }

        class CloudformationSensor [[CloudformationSensor.html]] {
            {static} +SENSOR_NAME: String
            +CloudformationSensor(CloudformationSensorConfiguration, FileSystem, PathResolver)
            +describe(SensorDescriptor): void
            +execute(SensorContext): void
        }

        class CloudformationConstants [[CloudformationConstants.html]] {
            {static} +REPORT_FILES_PROPERTY: String
        }

        org.sonar.api.Plugin <|.. CloudformationPlugin
        org.sonar.api.server.profile.BuiltInQualityProfilesDefinition <|.. CloudformationQualityProfile
        org.sonar.api.resources.AbstractLanguage <|- - CloudformationLanguage
        org.sonar.api.server.rule.RulesDefinition <|.. CloudformationRulesDefinition
        org.sonar.api.batch.sensor.Sensor <|.. CloudformationSensor
    }

    namespace org.sonar.api {
        interface Plugin {
            {abstract} +define(Context): void
        }
    }

    namespace org.sonar.api.server.profile {
        interface BuiltInQualityProfilesDefinition {
            {abstract} +define(Context): void
        }
    }

    namespace org.sonar.api.resources {
        abstract class AbstractLanguage {
        }
    }

    namespace org.sonar.api.server.rule {
        interface RulesDefinition {
            {abstract} +define(Context): void
        }
    }

    namespace org.sonar.api.batch.sensor {
        interface Sensor {
            {abstract} +describe(SensorDescriptor): void
            {abstract} +execute(SensorContext): void
        }
    }

    center footer UMLDoclet 2.0.2, PlantUML 1.2019.01
@enduml

PlantUML version 1.2019.01(Sat Feb 09 16:32:04 CET 2019)
(APACHE source distribution)
Java Runtime: OpenJDK Runtime Environment
JVM: OpenJDK 64-Bit Server VM
Java Version: 11.0.3+7-Ubuntu-1ubuntu219.04.1
Operating System: Linux
OS Version: 5.0.0-15-generic
Default Encoding: UTF-8
Language: en
Country: US
--></g></svg>