<?xml version="1.0" encoding="UTF-8" standalone="no"?><svg xmlns="http://www.w3.org/2000/svg" xmlns:xlink="http://www.w3.org/1999/xlink" contentScriptType="application/ecmascript" contentStyleType="text/css" height="480px" preserveAspectRatio="none" style="width:2089px;height:480px;" version="1.1" viewBox="0 0 2089 480" width="2089px" zoomAndPan="magnify"><defs><filter height="300%" id="f1p5zm00gnh4uu" width="300%" x="-1" y="-1"><feGaussianBlur result="blurOut" stdDeviation="2.0"/><feColorMatrix in="blurOut" result="blurOut2" type="matrix" values="0 0 0 0 0 0 0 0 0 0 0 0 0 0 0 0 0 0 .4 0"/><feOffset dx="4.0" dy="4.0" in="blurOut2" result="blurOut3"/><feBlend in="SourceGraphic" in2="blurOut3" mode="normal"/></filter></defs><g><!--MD5=[7efd255d87f67ac79da5c4891114ef95]
cluster com.hack23.sonar.cloudformation--><polygon fill="#FFFFFF" filter="url(#f1p5zm00gnh4uu)" points="16,155,291,155,298,177.2969,2067,177.2969,2067,452,16,452,16,155" style="stroke: #000000; stroke-width: 1.5;"/><line style="stroke: #000000; stroke-width: 1.5;" x1="16" x2="298" y1="177.2969" y2="177.2969"/><text fill="#000000" font-family="sans-serif" font-size="14" font-weight="bold" lengthAdjust="spacingAndGlyphs" textLength="269" x="20" y="169.9951">com.hack23.sonar.cloudformation</text><!--MD5=[ed82d9bf0a7e82c39fc0b923e4deffa3]
cluster org.sonar.api.server.profile--><polygon fill="#FFFFFF" filter="url(#f1p5zm00gnh4uu)" points="92,12.5,316,12.5,323,34.7969,340,34.7969,340,124.5,92,124.5,92,12.5" style="stroke: #000000; stroke-width: 1.5;"/><line style="stroke: #000000; stroke-width: 1.5;" x1="92" x2="323" y1="34.7969" y2="34.7969"/><text fill="#000000" font-family="sans-serif" font-size="14" font-weight="bold" lengthAdjust="spacingAndGlyphs" textLength="218" x="96" y="27.4951">org.sonar.api.server.profile</text><!--MD5=[d3bfeb526ca1008dfb54863d3a7224f6]
cluster org.sonar.api.server.rule--><polygon fill="#FFFFFF" filter="url(#f1p5zm00gnh4uu)" points="438,12.5,642,12.5,649,34.7969,652,34.7969,652,124.5,438,124.5,438,12.5" style="stroke: #000000; stroke-width: 1.5;"/><line style="stroke: #000000; stroke-width: 1.5;" x1="438" x2="649" y1="34.7969" y2="34.7969"/><text fill="#000000" font-family="sans-serif" font-size="14" font-weight="bold" lengthAdjust="spacingAndGlyphs" textLength="198" x="442" y="27.4951">org.sonar.api.server.rule</text><!--MD5=[069966ec46c27c575c0e14a62cc3970a]
cluster org.sonar.api.batch.sensor--><polygon fill="#FFFFFF" filter="url(#f1p5zm00gnh4uu)" points="827,6,1047,6,1054,28.2969,1071,28.2969,1071,131,827,131,827,6" style="stroke: #000000; stroke-width: 1.5;"/><line style="stroke: #000000; stroke-width: 1.5;" x1="827" x2="1054" y1="28.2969" y2="28.2969"/><text fill="#000000" font-family="sans-serif" font-size="14" font-weight="bold" lengthAdjust="spacingAndGlyphs" textLength="214" x="831" y="20.9951">org.sonar.api.batch.sensor</text><!--MD5=[6a86e12f8c3573ef90e7334d9e934390]
cluster org.sonar.api--><polygon fill="#FFFFFF" filter="url(#f1p5zm00gnh4uu)" points="1237,12.5,1348,12.5,1355,34.7969,1415,34.7969,1415,124.5,1237,124.5,1237,12.5" style="stroke: #000000; stroke-width: 1.5;"/><line style="stroke: #000000; stroke-width: 1.5;" x1="1237" x2="1355" y1="34.7969" y2="34.7969"/><text fill="#000000" font-family="sans-serif" font-size="14" font-weight="bold" lengthAdjust="spacingAndGlyphs" textLength="105" x="1241" y="27.4951">org.sonar.api</text><!--MD5=[fe768997cbfd64bbe9e45e6331c668d3]
class com.hack23.sonar.cloudformation.CloudformationQualityProfile--><a href="CloudformationQualityProfile.html" target="_top" title="CloudformationQualityProfile.html" xlink:actuate="onRequest" xlink:href="CloudformationQualityProfile.html" xlink:show="new" xlink:title="CloudformationQualityProfile.html" xlink:type="simple"><rect codeLine="3" fill="#FEFECE" filter="url(#f1p5zm00gnh4uu)" height="112.0234" id="com.hack23.sonar.cloudformation.CloudformationQualityProfile" style="stroke: #A80036; stroke-width: 1.5;" width="367" x="32.5" y="190"/><ellipse cx="123.75" cy="206" fill="#ADD1B2" rx="11" ry="11" style="stroke: #A80036; stroke-width: 1.0;"/><path d="M126.7188,211.6406 Q126.1406,211.9375 125.5,212.0781 Q124.8594,212.2344 124.1563,212.2344 Q121.6563,212.2344 120.3281,210.5938 Q119.0156,208.9375 119.0156,205.8125 Q119.0156,202.6875 120.3281,201.0313 Q121.6563,199.375 124.1563,199.375 Q124.8594,199.375 125.5,199.5313 Q126.1563,199.6875 126.7188,199.9844 L126.7188,202.7031 Q126.0938,202.125 125.5,201.8594 Q124.9063,201.5781 124.2813,201.5781 Q122.9375,201.5781 122.25,202.6563 Q121.5625,203.7188 121.5625,205.8125 Q121.5625,207.9063 122.25,208.9844 Q122.9375,210.0469 124.2813,210.0469 Q124.9063,210.0469 125.5,209.7813 Q126.0938,209.5 126.7188,208.9219 L126.7188,211.6406 Z "/><text fill="#000000" font-family="sans-serif" font-size="12" lengthAdjust="spacingAndGlyphs" textLength="176" x="144.25" y="210.1543">CloudformationQualityProfile</text><line style="stroke: #A80036; stroke-width: 1.5;" x1="33.5" x2="398.5" y1="222" y2="222"/><ellipse cx="43.5" cy="233" fill="none" rx="3" ry="3" style="stroke: #038048; stroke-width: 1.0;"/><text fill="#000000" font-family="sans-serif" font-size="11" lengthAdjust="spacingAndGlyphs" text-decoration="underline" textLength="155" x="52.5" y="236.2104">UNDEFINED_FAILURE: String</text><ellipse cx="43.5" cy="245.8047" fill="none" rx="3" ry="3" style="stroke: #038048; stroke-width: 1.0;"/><text fill="#000000" font-family="sans-serif" font-size="11" lengthAdjust="spacingAndGlyphs" text-decoration="underline" textLength="162" x="52.5" y="249.0151">UNDEFINED_WARNING: String</text><line style="stroke: #A80036; stroke-width: 1.5;" x1="33.5" x2="398.5" y1="255.6094" y2="255.6094"/><ellipse cx="43.5" cy="266.6094" fill="#84BE84" rx="3" ry="3" style="stroke: #038048; stroke-width: 1.0;"/><text fill="#000000" font-family="sans-serif" font-size="11" lengthAdjust="spacingAndGlyphs" textLength="341" x="52.5" y="269.8198">CloudformationQualityProfile(CloudformationRulesDefinition)</text><ellipse cx="43.5" cy="279.4141" fill="#84BE84" rx="3" ry="3" style="stroke: #038048; stroke-width: 1.0;"/><text fill="#000000" font-family="sans-serif" font-size="11" lengthAdjust="spacingAndGlyphs" text-decoration="underline" textLength="140" x="52.5" y="282.6245">hasRule(String): boolean</text><ellipse cx="43.5" cy="292.2188" fill="#84BE84" rx="3" ry="3" style="stroke: #038048; stroke-width: 1.0;"/><text fill="#000000" font-family="sans-serif" font-size="11" lengthAdjust="spacingAndGlyphs" textLength="117" x="52.5" y="295.4292">define(Context): void</text></a><!--MD5=[9ad602e740eec67d73c5d598917426ba]
class com.hack23.sonar.cloudformation.CloudformationRulesDefinition--><a href="CloudformationRulesDefinition.html" target="_top" title="CloudformationRulesDefinition.html" xlink:actuate="onRequest" xlink:href="CloudformationRulesDefinition.html" xlink:show="new" xlink:title="CloudformationRulesDefinition.html" xlink:type="simple"><rect codeLine="11" fill="#FEFECE" filter="url(#f1p5zm00gnh4uu)" height="99.2188" id="com.hack23.sonar.cloudformation.CloudformationRulesDefinition" style="stroke: #A80036; stroke-width: 1.5;" width="220" x="435" y="196.5"/><ellipse cx="450" cy="212.5" fill="#ADD1B2" rx="11" ry="11" style="stroke: #A80036; stroke-width: 1.0;"/><path d="M452.9688,218.1406 Q452.3906,218.4375 451.75,218.5781 Q451.1094,218.7344 450.4063,218.7344 Q447.9063,218.7344 446.5781,217.0938 Q445.2656,215.4375 445.2656,212.3125 Q445.2656,209.1875 446.5781,207.5313 Q447.9063,205.875 450.4063,205.875 Q451.1094,205.875 451.75,206.0313 Q452.4063,206.1875 452.9688,206.4844 L452.9688,209.2031 Q452.3438,208.625 451.75,208.3594 Q451.1563,208.0781 450.5313,208.0781 Q449.1875,208.0781 448.5,209.1563 Q447.8125,210.2188 447.8125,212.3125 Q447.8125,214.4063 448.5,215.4844 Q449.1875,216.5469 450.5313,216.5469 Q451.1563,216.5469 451.75,216.2813 Q452.3438,216 452.9688,215.4219 L452.9688,218.1406 Z "/><text fill="#000000" font-family="sans-serif" font-size="12" lengthAdjust="spacingAndGlyphs" textLength="188" x="464" y="216.6543">CloudformationRulesDefinition</text><line style="stroke: #A80036; stroke-width: 1.5;" x1="436" x2="654" y1="228.5" y2="228.5"/><ellipse cx="446" cy="239.5" fill="none" rx="3" ry="3" style="stroke: #038048; stroke-width: 1.0;"/><text fill="#000000" font-family="sans-serif" font-size="11" lengthAdjust="spacingAndGlyphs" text-decoration="underline" textLength="63" x="455" y="242.7104">KEY: String</text><ellipse cx="446" cy="252.3047" fill="none" rx="3" ry="3" style="stroke: #038048; stroke-width: 1.0;"/><text fill="#000000" font-family="sans-serif" font-size="11" lengthAdjust="spacingAndGlyphs" text-decoration="underline" textLength="73" x="455" y="255.5151">NAME: String</text><line style="stroke: #A80036; stroke-width: 1.5;" x1="436" x2="654" y1="262.1094" y2="262.1094"/><ellipse cx="446" cy="273.1094" fill="#84BE84" rx="3" ry="3" style="stroke: #038048; stroke-width: 1.0;"/><text fill="#000000" font-family="sans-serif" font-size="11" lengthAdjust="spacingAndGlyphs" textLength="120" x="455" y="276.3198">getContext(): Context</text><ellipse cx="446" cy="285.9141" fill="#84BE84" rx="3" ry="3" style="stroke: #038048; stroke-width: 1.0;"/><text fill="#000000" font-family="sans-serif" font-size="11" lengthAdjust="spacingAndGlyphs" textLength="117" x="455" y="289.1245">define(Context): void</text></a><!--MD5=[17b8c490b45d6f269308ea962cf0181d]
class com.hack23.sonar.cloudformation.CloudformationProperties--><a href="CloudformationProperties.html" target="_top" title="CloudformationProperties.html" xlink:actuate="onRequest" xlink:href="CloudformationProperties.html" xlink:show="new" xlink:title="CloudformationProperties.html" xlink:type="simple"><rect codeLine="18" fill="#FEFECE" filter="url(#f1p5zm00gnh4uu)" height="60.8047" id="com.hack23.sonar.cloudformation.CloudformationProperties" style="stroke: #A80036; stroke-width: 1.5;" width="258" x="1444" y="215.5"/><ellipse cx="1488.75" cy="231.5" fill="#ADD1B2" rx="11" ry="11" style="stroke: #A80036; stroke-width: 1.0;"/><path d="M1491.7188,237.1406 Q1491.1406,237.4375 1490.5,237.5781 Q1489.8594,237.7344 1489.1563,237.7344 Q1486.6563,237.7344 1485.3281,236.0938 Q1484.0156,234.4375 1484.0156,231.3125 Q1484.0156,228.1875 1485.3281,226.5313 Q1486.6563,224.875 1489.1563,224.875 Q1489.8594,224.875 1490.5,225.0313 Q1491.1563,225.1875 1491.7188,225.4844 L1491.7188,228.2031 Q1491.0938,227.625 1490.5,227.3594 Q1489.9063,227.0781 1489.2813,227.0781 Q1487.9375,227.0781 1487.25,228.1563 Q1486.5625,229.2188 1486.5625,231.3125 Q1486.5625,233.4063 1487.25,234.4844 Q1487.9375,235.5469 1489.2813,235.5469 Q1489.9063,235.5469 1490.5,235.2813 Q1491.0938,235 1491.7188,234.4219 L1491.7188,237.1406 Z "/><text fill="#000000" font-family="sans-serif" font-size="12" lengthAdjust="spacingAndGlyphs" textLength="160" x="1509.25" y="235.6543">CloudformationProperties</text><line style="stroke: #A80036; stroke-width: 1.5;" x1="1445" x2="1701" y1="247.5" y2="247.5"/><line style="stroke: #A80036; stroke-width: 1.5;" x1="1445" x2="1701" y1="255.5" y2="255.5"/><ellipse cx="1455" cy="266.5" fill="#84BE84" rx="3" ry="3" style="stroke: #038048; stroke-width: 1.0;"/><text fill="#000000" font-family="sans-serif" font-size="11" lengthAdjust="spacingAndGlyphs" text-decoration="underline" textLength="232" x="1464" y="269.7104">getProperties(): List&lt;PropertyDefinition&gt;</text></a><!--MD5=[5cd76e2d5be102320ba6d55700009822]
class com.hack23.sonar.cloudformation.CloudformationSensor--><a href="CloudformationSensor.html" target="_top" title="CloudformationSensor.html" xlink:actuate="onRequest" xlink:href="CloudformationSensor.html" xlink:show="new" xlink:title="CloudformationSensor.html" xlink:type="simple"><rect codeLine="22" fill="#FEFECE" filter="url(#f1p5zm00gnh4uu)" height="99.2188" id="com.hack23.sonar.cloudformation.CloudformationSensor" style="stroke: #A80036; stroke-width: 1.5;" width="518" x="690" y="196.5"/><ellipse cx="875.25" cy="212.5" fill="#ADD1B2" rx="11" ry="11" style="stroke: #A80036; stroke-width: 1.0;"/><path d="M878.2188,218.1406 Q877.6406,218.4375 877,218.5781 Q876.3594,218.7344 875.6563,218.7344 Q873.1563,218.7344 871.8281,217.0938 Q870.5156,215.4375 870.5156,212.3125 Q870.5156,209.1875 871.8281,207.5313 Q873.1563,205.875 875.6563,205.875 Q876.3594,205.875 877,206.0313 Q877.6563,206.1875 878.2188,206.4844 L878.2188,209.2031 Q877.5938,208.625 877,208.3594 Q876.4063,208.0781 875.7813,208.0781 Q874.4375,208.0781 873.75,209.1563 Q873.0625,210.2188 873.0625,212.3125 Q873.0625,214.4063 873.75,215.4844 Q874.4375,216.5469 875.7813,216.5469 Q876.4063,216.5469 877,216.2813 Q877.5938,216 878.2188,215.4219 L878.2188,218.1406 Z "/><text fill="#000000" font-family="sans-serif" font-size="12" lengthAdjust="spacingAndGlyphs" textLength="139" x="895.75" y="216.6543">CloudformationSensor</text><line style="stroke: #A80036; stroke-width: 1.5;" x1="691" x2="1207" y1="228.5" y2="228.5"/><ellipse cx="701" cy="239.5" fill="none" rx="3" ry="3" style="stroke: #038048; stroke-width: 1.0;"/><text fill="#000000" font-family="sans-serif" font-size="11" lengthAdjust="spacingAndGlyphs" text-decoration="underline" textLength="126" x="710" y="242.7104">SENSOR_NAME: String</text><line style="stroke: #A80036; stroke-width: 1.5;" x1="691" x2="1207" y1="249.3047" y2="249.3047"/><ellipse cx="701" cy="260.3047" fill="#84BE84" rx="3" ry="3" style="stroke: #038048; stroke-width: 1.0;"/><text fill="#000000" font-family="sans-serif" font-size="11" lengthAdjust="spacingAndGlyphs" textLength="492" x="710" y="263.5151">CloudformationSensor(CloudformationSensorConfiguration, FileSystem, PathResolver)</text><ellipse cx="701" cy="273.1094" fill="#84BE84" rx="3" ry="3" style="stroke: #038048; stroke-width: 1.0;"/><text fill="#000000" font-family="sans-serif" font-size="11" lengthAdjust="spacingAndGlyphs" textLength="188" x="710" y="276.3198">describe(SensorDescriptor): void</text><ellipse cx="701" cy="285.9141" fill="#84BE84" rx="3" ry="3" style="stroke: #038048; stroke-width: 1.0;"/><text fill="#000000" font-family="sans-serif" font-size="11" lengthAdjust="spacingAndGlyphs" textLength="167" x="710" y="289.1245">execute(SensorContext): void</text></a><!--MD5=[4e78556fd0fd0f12622aab97e46ad39c]
class com.hack23.sonar.cloudformation.CloudformationPlugin--><a href="CloudformationPlugin.html" target="_top" title="CloudformationPlugin.html" xlink:actuate="onRequest" xlink:href="CloudformationPlugin.html" xlink:show="new" xlink:title="CloudformationPlugin.html" xlink:type="simple"><rect codeLine="29" fill="#FEFECE" filter="url(#f1p5zm00gnh4uu)" height="60.8047" id="com.hack23.sonar.cloudformation.CloudformationPlugin" style="stroke: #A80036; stroke-width: 1.5;" width="165" x="1243.5" y="215.5"/><ellipse cx="1258.5" cy="231.5" fill="#ADD1B2" rx="11" ry="11" style="stroke: #A80036; stroke-width: 1.0;"/><path d="M1261.4688,237.1406 Q1260.8906,237.4375 1260.25,237.5781 Q1259.6094,237.7344 1258.9063,237.7344 Q1256.4063,237.7344 1255.0781,236.0938 Q1253.7656,234.4375 1253.7656,231.3125 Q1253.7656,228.1875 1255.0781,226.5313 Q1256.4063,224.875 1258.9063,224.875 Q1259.6094,224.875 1260.25,225.0313 Q1260.9063,225.1875 1261.4688,225.4844 L1261.4688,228.2031 Q1260.8438,227.625 1260.25,227.3594 Q1259.6563,227.0781 1259.0313,227.0781 Q1257.6875,227.0781 1257,228.1563 Q1256.3125,229.2188 1256.3125,231.3125 Q1256.3125,233.4063 1257,234.4844 Q1257.6875,235.5469 1259.0313,235.5469 Q1259.6563,235.5469 1260.25,235.2813 Q1260.8438,235 1261.4688,234.4219 L1261.4688,237.1406 Z "/><text fill="#000000" font-family="sans-serif" font-size="12" lengthAdjust="spacingAndGlyphs" textLength="133" x="1272.5" y="235.6543">CloudformationPlugin</text><line style="stroke: #A80036; stroke-width: 1.5;" x1="1244.5" x2="1407.5" y1="247.5" y2="247.5"/><line style="stroke: #A80036; stroke-width: 1.5;" x1="1244.5" x2="1407.5" y1="255.5" y2="255.5"/><ellipse cx="1254.5" cy="266.5" fill="#84BE84" rx="3" ry="3" style="stroke: #038048; stroke-width: 1.0;"/><text fill="#000000" font-family="sans-serif" font-size="11" lengthAdjust="spacingAndGlyphs" textLength="117" x="1263.5" y="269.7104">define(Context): void</text></a><!--MD5=[c3108af317c2c934cdb7e0b2dc4ec977]
class com.hack23.sonar.cloudformation.CloudformationSensorConfiguration--><a href="CloudformationSensorConfiguration.html" target="_top" title="CloudformationSensorConfiguration.html" xlink:actuate="onRequest" xlink:href="CloudformationSensorConfiguration.html" xlink:show="new" xlink:title="CloudformationSensorConfiguration.html" xlink:type="simple"><rect codeLine="33" fill="#FEFECE" filter="url(#f1p5zm00gnh4uu)" height="86.4141" id="com.hack23.sonar.cloudformation.CloudformationSensorConfiguration" style="stroke: #A80036; stroke-width: 1.5;" width="314" x="1737" y="203"/><ellipse cx="1778.55" cy="219" fill="#ADD1B2" rx="11" ry="11" style="stroke: #A80036; stroke-width: 1.0;"/><path d="M1781.5188,224.6406 Q1780.9406,224.9375 1780.3,225.0781 Q1779.6594,225.2344 1778.9563,225.2344 Q1776.4563,225.2344 1775.1281,223.5938 Q1773.8156,221.9375 1773.8156,218.8125 Q1773.8156,215.6875 1775.1281,214.0313 Q1776.4563,212.375 1778.9563,212.375 Q1779.6594,212.375 1780.3,212.5313 Q1780.9563,212.6875 1781.5188,212.9844 L1781.5188,215.7031 Q1780.8938,215.125 1780.3,214.8594 Q1779.7063,214.5781 1779.0813,214.5781 Q1777.7375,214.5781 1777.05,215.6563 Q1776.3625,216.7188 1776.3625,218.8125 Q1776.3625,220.9063 1777.05,221.9844 Q1777.7375,223.0469 1779.0813,223.0469 Q1779.7063,223.0469 1780.3,222.7813 Q1780.8938,222.5 1781.5188,221.9219 L1781.5188,224.6406 Z "/><text fill="#000000" font-family="sans-serif" font-size="12" lengthAdjust="spacingAndGlyphs" textLength="223" x="1798.45" y="223.1543">CloudformationSensorConfiguration</text><line style="stroke: #A80036; stroke-width: 1.5;" x1="1738" x2="2050" y1="235" y2="235"/><line style="stroke: #A80036; stroke-width: 1.5;" x1="1738" x2="2050" y1="243" y2="243"/><ellipse cx="1748" cy="254" fill="#84BE84" rx="3" ry="3" style="stroke: #038048; stroke-width: 1.0;"/><text fill="#000000" font-family="sans-serif" font-size="11" lengthAdjust="spacingAndGlyphs" textLength="288" x="1757" y="257.2104">CloudformationSensorConfiguration(Configuration)</text><ellipse cx="1748" cy="266.8047" fill="#84BE84" rx="3" ry="3" style="stroke: #038048; stroke-width: 1.0;"/><text fill="#000000" font-family="sans-serif" font-size="11" lengthAdjust="spacingAndGlyphs" textLength="237" x="1757" y="270.0151">getCfnNagReportFiles(): Optional&lt;String&gt;</text><ellipse cx="1748" cy="279.6094" fill="#84BE84" rx="3" ry="3" style="stroke: #038048; stroke-width: 1.0;"/><text fill="#000000" font-family="sans-serif" font-size="11" lengthAdjust="spacingAndGlyphs" textLength="243" x="1757" y="282.8198">getCheckovReportFiles(): Optional&lt;String&gt;</text></a><!--MD5=[0d6d0e5b973745eeb597137a51ee0af0]
class com.hack23.sonar.cloudformation.CloudformationConstants--><a href="CloudformationConstants.html" target="_top" title="CloudformationConstants.html" xlink:actuate="onRequest" xlink:href="CloudformationConstants.html" xlink:show="new" xlink:title="CloudformationConstants.html" xlink:type="simple"><rect codeLine="39" fill="#FEFECE" filter="url(#f1p5zm00gnh4uu)" height="73.6094" id="com.hack23.sonar.cloudformation.CloudformationConstants" style="stroke: #A80036; stroke-width: 1.5;" width="272" x="1437" y="362"/><ellipse cx="1489.25" cy="378" fill="#ADD1B2" rx="11" ry="11" style="stroke: #A80036; stroke-width: 1.0;"/><path d="M1492.2188,383.6406 Q1491.6406,383.9375 1491,384.0781 Q1490.3594,384.2344 1489.6563,384.2344 Q1487.1563,384.2344 1485.8281,382.5938 Q1484.5156,380.9375 1484.5156,377.8125 Q1484.5156,374.6875 1485.8281,373.0313 Q1487.1563,371.375 1489.6563,371.375 Q1490.3594,371.375 1491,371.5313 Q1491.6563,371.6875 1492.2188,371.9844 L1492.2188,374.7031 Q1491.5938,374.125 1491,373.8594 Q1490.4063,373.5781 1489.7813,373.5781 Q1488.4375,373.5781 1487.75,374.6563 Q1487.0625,375.7188 1487.0625,377.8125 Q1487.0625,379.9063 1487.75,380.9844 Q1488.4375,382.0469 1489.7813,382.0469 Q1490.4063,382.0469 1491,381.7813 Q1491.5938,381.5 1492.2188,380.9219 L1492.2188,383.6406 Z "/><text fill="#000000" font-family="sans-serif" font-size="12" lengthAdjust="spacingAndGlyphs" textLength="159" x="1509.75" y="382.1543">CloudformationConstants</text><line style="stroke: #A80036; stroke-width: 1.5;" x1="1438" x2="1708" y1="394" y2="394"/><ellipse cx="1448" cy="405" fill="none" rx="3" ry="3" style="stroke: #038048; stroke-width: 1.0;"/><text fill="#000000" font-family="sans-serif" font-size="11" lengthAdjust="spacingAndGlyphs" text-decoration="underline" textLength="244" x="1457" y="408.2104">CFN_NAG_REPORT_FILES_PROPERTY: String</text><ellipse cx="1448" cy="417.8047" fill="none" rx="3" ry="3" style="stroke: #038048; stroke-width: 1.0;"/><text fill="#000000" font-family="sans-serif" font-size="11" lengthAdjust="spacingAndGlyphs" text-decoration="underline" textLength="246" x="1457" y="421.0151">CHECKOV_REPORT_FILES_PROPERTY: String</text><line style="stroke: #A80036; stroke-width: 1.5;" x1="1438" x2="1708" y1="427.6094" y2="427.6094"/></a><!--MD5=[bccf4df98d34ca024eaa4f9d7ebedb88]
class org.sonar.api.server.profile.BuiltInQualityProfilesDefinition--><rect codeLine="51" fill="#FEFECE" filter="url(#f1p5zm00gnh4uu)" height="60.8047" id="org.sonar.api.server.profile.BuiltInQualityProfilesDefinition" style="stroke: #A80036; stroke-width: 1.5;" width="216" x="108" y="47.5"/><ellipse cx="123" cy="63.5" fill="#B4A7E5" rx="11" ry="11" style="stroke: #A80036; stroke-width: 1.0;"/><path d="M118.9219,59.2656 L118.9219,57.1094 L126.3125,57.1094 L126.3125,59.2656 L123.8438,59.2656 L123.8438,67.3438 L126.3125,67.3438 L126.3125,69.5 L118.9219,69.5 L118.9219,67.3438 L121.3906,67.3438 L121.3906,59.2656 L118.9219,59.2656 Z "/><text fill="#000000" font-family="sans-serif" font-size="12" font-style="italic" lengthAdjust="spacingAndGlyphs" textLength="184" x="137" y="67.6543">BuiltInQualityProfilesDefinition</text><line style="stroke: #A80036; stroke-width: 1.5;" x1="109" x2="323" y1="79.5" y2="79.5"/><line style="stroke: #A80036; stroke-width: 1.5;" x1="109" x2="323" y1="87.5" y2="87.5"/><ellipse cx="119" cy="98.5" fill="#84BE84" rx="3" ry="3" style="stroke: #038048; stroke-width: 1.0;"/><text fill="#000000" font-family="sans-serif" font-size="11" font-style="italic" lengthAdjust="spacingAndGlyphs" textLength="119" x="128" y="101.7104">define(Context): void</text><!--MD5=[0c41336916cc93e234215d73ea118e70]
class org.sonar.api.server.rule.RulesDefinition--><rect codeLine="57" fill="#FEFECE" filter="url(#f1p5zm00gnh4uu)" height="60.8047" id="org.sonar.api.server.rule.RulesDefinition" style="stroke: #A80036; stroke-width: 1.5;" width="145" x="472.5" y="47.5"/><ellipse cx="496.95" cy="63.5" fill="#B4A7E5" rx="11" ry="11" style="stroke: #A80036; stroke-width: 1.0;"/><path d="M492.8719,59.2656 L492.8719,57.1094 L500.2625,57.1094 L500.2625,59.2656 L497.7938,59.2656 L497.7938,67.3438 L500.2625,67.3438 L500.2625,69.5 L492.8719,69.5 L492.8719,67.3438 L495.3406,67.3438 L495.3406,59.2656 L492.8719,59.2656 Z "/><text fill="#000000" font-family="sans-serif" font-size="12" font-style="italic" lengthAdjust="spacingAndGlyphs" textLength="92" x="513.05" y="67.6543">RulesDefinition</text><line style="stroke: #A80036; stroke-width: 1.5;" x1="473.5" x2="616.5" y1="79.5" y2="79.5"/><line style="stroke: #A80036; stroke-width: 1.5;" x1="473.5" x2="616.5" y1="87.5" y2="87.5"/><ellipse cx="483.5" cy="98.5" fill="#84BE84" rx="3" ry="3" style="stroke: #038048; stroke-width: 1.0;"/><text fill="#000000" font-family="sans-serif" font-size="11" font-style="italic" lengthAdjust="spacingAndGlyphs" textLength="119" x="492.5" y="101.7104">define(Context): void</text><!--MD5=[f8b565af0d68398934f95a4a7e456578]
class org.sonar.api.batch.sensor.Sensor--><rect codeLine="63" fill="#FEFECE" filter="url(#f1p5zm00gnh4uu)" height="73.6094" id="org.sonar.api.batch.sensor.Sensor" style="stroke: #A80036; stroke-width: 1.5;" width="211" x="843.5" y="41"/><ellipse cx="923.25" cy="57" fill="#B4A7E5" rx="11" ry="11" style="stroke: #A80036; stroke-width: 1.0;"/><path d="M919.1719,52.7656 L919.1719,50.6094 L926.5625,50.6094 L926.5625,52.7656 L924.0938,52.7656 L924.0938,60.8438 L926.5625,60.8438 L926.5625,63 L919.1719,63 L919.1719,60.8438 L921.6406,60.8438 L921.6406,52.7656 L919.1719,52.7656 Z "/><text fill="#000000" font-family="sans-serif" font-size="12" font-style="italic" lengthAdjust="spacingAndGlyphs" textLength="43" x="943.75" y="61.1543">Sensor</text><line style="stroke: #A80036; stroke-width: 1.5;" x1="844.5" x2="1053.5" y1="73" y2="73"/><line style="stroke: #A80036; stroke-width: 1.5;" x1="844.5" x2="1053.5" y1="81" y2="81"/><ellipse cx="854.5" cy="92" fill="#84BE84" rx="3" ry="3" style="stroke: #038048; stroke-width: 1.0;"/><text fill="#000000" font-family="sans-serif" font-size="11" font-style="italic" lengthAdjust="spacingAndGlyphs" textLength="185" x="863.5" y="95.2104">describe(SensorDescriptor): void</text><ellipse cx="854.5" cy="104.8047" fill="#84BE84" rx="3" ry="3" style="stroke: #038048; stroke-width: 1.0;"/><text fill="#000000" font-family="sans-serif" font-size="11" font-style="italic" lengthAdjust="spacingAndGlyphs" textLength="168" x="863.5" y="108.0151">execute(SensorContext): void</text><!--MD5=[357bc6d468bbe4af181e679b5a7d4bc8]
class org.sonar.api.Plugin--><rect codeLine="70" fill="#FEFECE" filter="url(#f1p5zm00gnh4uu)" height="60.8047" id="org.sonar.api.Plugin" style="stroke: #A80036; stroke-width: 1.5;" width="145" x="1253.5" y="47.5"/><ellipse cx="1303.25" cy="63.5" fill="#B4A7E5" rx="11" ry="11" style="stroke: #A80036; stroke-width: 1.0;"/><path d="M1299.1719,59.2656 L1299.1719,57.1094 L1306.5625,57.1094 L1306.5625,59.2656 L1304.0938,59.2656 L1304.0938,67.3438 L1306.5625,67.3438 L1306.5625,69.5 L1299.1719,69.5 L1299.1719,67.3438 L1301.6406,67.3438 L1301.6406,59.2656 L1299.1719,59.2656 Z "/><text fill="#000000" font-family="sans-serif" font-size="12" font-style="italic" lengthAdjust="spacingAndGlyphs" textLength="37" x="1323.75" y="67.6543">Plugin</text><line style="stroke: #A80036; stroke-width: 1.5;" x1="1254.5" x2="1397.5" y1="79.5" y2="79.5"/><line style="stroke: #A80036; stroke-width: 1.5;" x1="1254.5" x2="1397.5" y1="87.5" y2="87.5"/><ellipse cx="1264.5" cy="98.5" fill="#84BE84" rx="3" ry="3" style="stroke: #038048; stroke-width: 1.0;"/><text fill="#000000" font-family="sans-serif" font-size="11" font-style="italic" lengthAdjust="spacingAndGlyphs" textLength="119" x="1273.5" y="101.7104">define(Context): void</text><!--MD5=[63fe7b739a87e21952d62265d328e55c]
reverse link org.sonar.api.server.profile.BuiltInQualityProfilesDefinition to com.hack23.sonar.cloudformation.CloudformationQualityProfile--><path codeLine="44" d="M216,128.87 C216,148.06 216,170.08 216,189.74 " fill="none" id="org.sonar.api.server.profile.BuiltInQualityProfilesDefinition-backto-com.hack23.sonar.cloudformation.CloudformationQualityProfile" style="stroke: #A80036; stroke-width: 1.0; stroke-dasharray: 7.0,7.0;"/><polygon fill="none" points="209,128.68,216,108.68,223,128.68,209,128.68" style="stroke: #A80036; stroke-width: 1.0;"/><!--MD5=[2bdc00f05ffbda222481780920a1d1de]
reverse link org.sonar.api.server.rule.RulesDefinition to com.hack23.sonar.cloudformation.CloudformationRulesDefinition--><path codeLine="45" d="M545,128.99 C545,150.34 545,175.18 545,196.38 " fill="none" id="org.sonar.api.server.rule.RulesDefinition-backto-com.hack23.sonar.cloudformation.CloudformationRulesDefinition" style="stroke: #A80036; stroke-width: 1.0; stroke-dasharray: 7.0,7.0;"/><polygon fill="none" points="538,128.68,545,108.68,552,128.68,538,128.68" style="stroke: #A80036; stroke-width: 1.0;"/><!--MD5=[3685ffe233817ba259f4776860359136]
reverse link org.sonar.api.batch.sensor.Sensor to com.hack23.sonar.cloudformation.CloudformationSensor--><path codeLine="46" d="M949,135.08 C949,155 949,177.22 949,196.45 " fill="none" id="org.sonar.api.batch.sensor.Sensor-backto-com.hack23.sonar.cloudformation.CloudformationSensor" style="stroke: #A80036; stroke-width: 1.0; stroke-dasharray: 7.0,7.0;"/><polygon fill="none" points="942,135.02,949,115.02,956,135.02,942,135.02" style="stroke: #A80036; stroke-width: 1.0;"/><!--MD5=[a0a45c0a895aca957ae22b311196540e]
reverse link org.sonar.api.Plugin to com.hack23.sonar.cloudformation.CloudformationPlugin--><path codeLine="47" d="M1326,128.77 C1326,156.97 1326,191.29 1326,215.3 " fill="none" id="org.sonar.api.Plugin-backto-com.hack23.sonar.cloudformation.CloudformationPlugin" style="stroke: #A80036; stroke-width: 1.0; stroke-dasharray: 7.0,7.0;"/><polygon fill="none" points="1319,128.68,1326,108.68,1333,128.68,1319,128.68" style="stroke: #A80036; stroke-width: 1.0;"/><!--MD5=[e15d2e032d824683a905a7c0b3b6a9b6]
link com.hack23.sonar.cloudformation.CloudformationProperties to com.hack23.sonar.cloudformation.CloudformationSensorConfiguration--><!--MD5=[049080b82e1190b6817f061479bd9a78]
link com.hack23.sonar.cloudformation.CloudformationProperties to com.hack23.sonar.cloudformation.CloudformationConstants--><text fill="#888888" font-family="sans-serif" font-size="10" lengthAdjust="spacingAndGlyphs" textLength="192" x="939.5" y="467.2822">UMLDoclet 2.0.12, PlantUML 1.2020.16</text><!--MD5=[8ac8a84b7f8eab3f28301a64c6792a2a]
@startuml
    namespace com.hack23.sonar.cloudformation {

        class CloudformationQualityProfile [[CloudformationQualityProfile.html]] {
            {static} +UNDEFINED_FAILURE: String
            {static} +UNDEFINED_WARNING: String
            +CloudformationQualityProfile(CloudformationRulesDefinition)
            {static} +hasRule(String): boolean
            +define(Context): void
        }

        class CloudformationRulesDefinition [[CloudformationRulesDefinition.html]] {
            {static} +KEY: String
            {static} +NAME: String
            +getContext(): Context
            +define(Context): void
        }

        class CloudformationProperties [[CloudformationProperties.html]] {
            {static} +getProperties(): List<PropertyDefinition>
        }

        class CloudformationSensor [[CloudformationSensor.html]] {
            {static} +SENSOR_NAME: String
            +CloudformationSensor(CloudformationSensorConfiguration, FileSystem, PathResolver)
            +describe(SensorDescriptor): void
            +execute(SensorContext): void
        }

        class CloudformationPlugin [[CloudformationPlugin.html]] {
            +define(Context): void
        }

        class CloudformationSensorConfiguration [[CloudformationSensorConfiguration.html]] {
            +CloudformationSensorConfiguration(Configuration)
            +getCfnNagReportFiles(): Optional<String>
            +getCheckovReportFiles(): Optional<String>
        }

        class CloudformationConstants [[CloudformationConstants.html]] {
            {static} +CFN_NAG_REPORT_FILES_PROPERTY: String
            {static} +CHECKOV_REPORT_FILES_PROPERTY: String
        }

        org.sonar.api.server.profile.BuiltInQualityProfilesDefinition <|.. CloudformationQualityProfile
        org.sonar.api.server.rule.RulesDefinition <|.. CloudformationRulesDefinition
        org.sonar.api.batch.sensor.Sensor <|.. CloudformationSensor
        org.sonar.api.Plugin <|.. CloudformationPlugin
    }

    namespace org.sonar.api.server.profile {
        interface BuiltInQualityProfilesDefinition {
            {abstract} +define(Context): void
        }
    }

    namespace org.sonar.api.server.rule {
        interface RulesDefinition {
            {abstract} +define(Context): void
        }
    }

    namespace org.sonar.api.batch.sensor {
        interface Sensor {
            {abstract} +describe(SensorDescriptor): void
            {abstract} +execute(SensorContext): void
        }
    }

    namespace org.sonar.api {
        interface Plugin {
            {abstract} +define(Context): void
        }
    }

    center footer UMLDoclet 2.0.12, PlantUML 1.2020.16
@enduml

PlantUML version 1.2020.16(Sun Aug 23 22:20:43 CEST 2020)
(APACHE source distribution)
Java Runtime: OpenJDK Runtime Environment
JVM: OpenJDK 64-Bit Server VM
Default Encoding: UTF-8
Language: en
Country: US
--></g></svg>