<?xml version="1.0" encoding="UTF-8" standalone="no"?><svg xmlns="http://www.w3.org/2000/svg" xmlns:xlink="http://www.w3.org/1999/xlink" contentScriptType="application/ecmascript" contentStyleType="text/css" height="328px" preserveAspectRatio="none" style="width:2084px;height:328px;background:#FFFFFF;" version="1.1" viewBox="0 0 2084 328" width="2084px" zoomAndPan="magnify"><defs><filter height="300%" id="f1earhjaj6ojxo" width="300%" x="-1" y="-1"><feGaussianBlur result="blurOut" stdDeviation="2.0"/><feColorMatrix in="blurOut" result="blurOut2" type="matrix" values="0 0 0 0 0 0 0 0 0 0 0 0 0 0 0 0 0 0 .4 0"/><feOffset dx="4.0" dy="4.0" in="blurOut2" result="blurOut3"/><feBlend in="SourceGraphic" in2="blurOut3" mode="normal"/></filter></defs><g><!--MD5=[7efd255d87f67ac79da5c4891114ef95]
cluster com.hack23.sonar.cloudformation--><polygon fill="#FFFFFF" filter="url(#f1earhjaj6ojxo)" points="16,155,291,155,298,177.2969,2067,177.2969,2067,305,16,305,16,155" style="stroke:#000000;stroke-width:1.5;"/><line style="stroke:#000000;stroke-width:1.5;" x1="16" x2="298" y1="177.2969" y2="177.2969"/><text fill="#000000" font-family="sans-serif" font-size="14" font-weight="bold" lengthAdjust="spacing" textLength="269" x="20" y="169.9951">com.hack23.sonar.cloudformation</text><!--MD5=[ed82d9bf0a7e82c39fc0b923e4deffa3]
cluster org.sonar.api.server.profile--><polygon fill="#FFFFFF" filter="url(#f1earhjaj6ojxo)" points="441,12.5,665,12.5,672,34.7969,689,34.7969,689,124.5,441,124.5,441,12.5" style="stroke:#000000;stroke-width:1.5;"/><line style="stroke:#000000;stroke-width:1.5;" x1="441" x2="672" y1="34.7969" y2="34.7969"/><text fill="#000000" font-family="sans-serif" font-size="14" font-weight="bold" lengthAdjust="spacing" textLength="218" x="445" y="27.4951">org.sonar.api.server.profile</text><!--MD5=[d3bfeb526ca1008dfb54863d3a7224f6]
cluster org.sonar.api.server.rule--><polygon fill="#FFFFFF" filter="url(#f1earhjaj6ojxo)" points="787,12.5,991,12.5,998,34.7969,1001,34.7969,1001,124.5,787,124.5,787,12.5" style="stroke:#000000;stroke-width:1.5;"/><line style="stroke:#000000;stroke-width:1.5;" x1="787" x2="998" y1="34.7969" y2="34.7969"/><text fill="#000000" font-family="sans-serif" font-size="14" font-weight="bold" lengthAdjust="spacing" textLength="198" x="791" y="27.4951">org.sonar.api.server.rule</text><!--MD5=[069966ec46c27c575c0e14a62cc3970a]
cluster org.sonar.api.batch.sensor--><polygon fill="#FFFFFF" filter="url(#f1earhjaj6ojxo)" points="1469,6,1689,6,1696,28.2969,1713,28.2969,1713,131,1469,131,1469,6" style="stroke:#000000;stroke-width:1.5;"/><line style="stroke:#000000;stroke-width:1.5;" x1="1469" x2="1696" y1="28.2969" y2="28.2969"/><text fill="#000000" font-family="sans-serif" font-size="14" font-weight="bold" lengthAdjust="spacing" textLength="214" x="1473" y="20.9951">org.sonar.api.batch.sensor</text><!--MD5=[6a86e12f8c3573ef90e7334d9e934390]
cluster org.sonar.api--><polygon fill="#FFFFFF" filter="url(#f1earhjaj6ojxo)" points="1879,12.5,1990,12.5,1997,34.7969,2057,34.7969,2057,124.5,1879,124.5,1879,12.5" style="stroke:#000000;stroke-width:1.5;"/><line style="stroke:#000000;stroke-width:1.5;" x1="1879" x2="1997" y1="34.7969" y2="34.7969"/><text fill="#000000" font-family="sans-serif" font-size="14" font-weight="bold" lengthAdjust="spacing" textLength="105" x="1883" y="27.4951">org.sonar.api</text><!--MD5=[fe768997cbfd64bbe9e45e6331c668d3]
class com.hack23.sonar.cloudformation.CloudformationQualityProfile--><a href="CloudformationQualityProfile.html" target="_top" title="CloudformationQualityProfile.html" xlink:actuate="onRequest" xlink:href="CloudformationQualityProfile.html" xlink:show="new" xlink:title="CloudformationQualityProfile.html" xlink:type="simple"><rect codeLine="3" fill="#FEFECE" filter="url(#f1earhjaj6ojxo)" height="73.6094" id="com.hack23.sonar.cloudformation.CloudformationQualityProfile" style="stroke:#A80036;stroke-width:1.5;" width="367" x="381.5" y="202.5"/><ellipse cx="472.75" cy="218.5" fill="#ADD1B2" rx="11" ry="11" style="stroke:#A80036;stroke-width:1.0;"/><path d="M475.7188,224.1406 Q475.1406,224.4375 474.5,224.5781 Q473.8594,224.7344 473.1563,224.7344 Q470.6563,224.7344 469.3281,223.0938 Q468.0156,221.4375 468.0156,218.3125 Q468.0156,215.1875 469.3281,213.5313 Q470.6563,211.875 473.1563,211.875 Q473.8594,211.875 474.5,212.0313 Q475.1563,212.1875 475.7188,212.4844 L475.7188,215.2031 Q475.0938,214.625 474.5,214.3594 Q473.9063,214.0781 473.2813,214.0781 Q471.9375,214.0781 471.25,215.1563 Q470.5625,216.2188 470.5625,218.3125 Q470.5625,220.4063 471.25,221.4844 Q471.9375,222.5469 473.2813,222.5469 Q473.9063,222.5469 474.5,222.2813 Q475.0938,222 475.7188,221.4219 L475.7188,224.1406 Z " fill="#000000"/><text fill="#000000" font-family="sans-serif" font-size="12" lengthAdjust="spacing" textLength="176" x="493.25" y="222.6543">CloudformationQualityProfile</text><line style="stroke:#A80036;stroke-width:1.5;" x1="382.5" x2="747.5" y1="234.5" y2="234.5"/><line style="stroke:#A80036;stroke-width:1.5;" x1="382.5" x2="747.5" y1="242.5" y2="242.5"/><ellipse cx="392.5" cy="253.5" fill="#84BE84" rx="3" ry="3" style="stroke:#038048;stroke-width:1.0;"/><text fill="#000000" font-family="sans-serif" font-size="11" lengthAdjust="spacing" textLength="341" x="401.5" y="256.7104">CloudformationQualityProfile(CloudformationRulesDefinition)</text><ellipse cx="392.5" cy="266.3047" fill="#84BE84" rx="3" ry="3" style="stroke:#038048;stroke-width:1.0;"/><text fill="#000000" font-family="sans-serif" font-size="11" lengthAdjust="spacing" textLength="117" x="401.5" y="269.5151">define(Context): void</text></a><!--MD5=[9ad602e740eec67d73c5d598917426ba]
class com.hack23.sonar.cloudformation.CloudformationRulesDefinition--><a href="CloudformationRulesDefinition.html" target="_top" title="CloudformationRulesDefinition.html" xlink:actuate="onRequest" xlink:href="CloudformationRulesDefinition.html" xlink:show="new" xlink:title="CloudformationRulesDefinition.html" xlink:type="simple"><rect codeLine="8" fill="#FEFECE" filter="url(#f1earhjaj6ojxo)" height="99.2188" id="com.hack23.sonar.cloudformation.CloudformationRulesDefinition" style="stroke:#A80036;stroke-width:1.5;" width="220" x="784" y="190"/><ellipse cx="799" cy="206" fill="#ADD1B2" rx="11" ry="11" style="stroke:#A80036;stroke-width:1.0;"/><path d="M801.9688,211.6406 Q801.3906,211.9375 800.75,212.0781 Q800.1094,212.2344 799.4063,212.2344 Q796.9063,212.2344 795.5781,210.5938 Q794.2656,208.9375 794.2656,205.8125 Q794.2656,202.6875 795.5781,201.0313 Q796.9063,199.375 799.4063,199.375 Q800.1094,199.375 800.75,199.5313 Q801.4063,199.6875 801.9688,199.9844 L801.9688,202.7031 Q801.3438,202.125 800.75,201.8594 Q800.1563,201.5781 799.5313,201.5781 Q798.1875,201.5781 797.5,202.6563 Q796.8125,203.7188 796.8125,205.8125 Q796.8125,207.9063 797.5,208.9844 Q798.1875,210.0469 799.5313,210.0469 Q800.1563,210.0469 800.75,209.7813 Q801.3438,209.5 801.9688,208.9219 L801.9688,211.6406 Z " fill="#000000"/><text fill="#000000" font-family="sans-serif" font-size="12" lengthAdjust="spacing" textLength="188" x="813" y="210.1543">CloudformationRulesDefinition</text><line style="stroke:#A80036;stroke-width:1.5;" x1="785" x2="1003" y1="222" y2="222"/><ellipse cx="795" cy="233" rx="3" ry="3" style="stroke:#038048;stroke-width:1.0;fill:none;"/><text fill="#000000" font-family="sans-serif" font-size="11" lengthAdjust="spacing" text-decoration="underline" textLength="63" x="804" y="236.2104">KEY: String</text><ellipse cx="795" cy="245.8047" rx="3" ry="3" style="stroke:#038048;stroke-width:1.0;fill:none;"/><text fill="#000000" font-family="sans-serif" font-size="11" lengthAdjust="spacing" text-decoration="underline" textLength="73" x="804" y="249.0151">NAME: String</text><line style="stroke:#A80036;stroke-width:1.5;" x1="785" x2="1003" y1="255.6094" y2="255.6094"/><ellipse cx="795" cy="266.6094" fill="#84BE84" rx="3" ry="3" style="stroke:#038048;stroke-width:1.0;"/><text fill="#000000" font-family="sans-serif" font-size="11" lengthAdjust="spacing" textLength="120" x="804" y="269.8198">getContext(): Context</text><ellipse cx="795" cy="279.4141" fill="#84BE84" rx="3" ry="3" style="stroke:#038048;stroke-width:1.0;"/><text fill="#000000" font-family="sans-serif" font-size="11" lengthAdjust="spacing" textLength="117" x="804" y="282.6245">define(Context): void</text></a><!--MD5=[17b8c490b45d6f269308ea962cf0181d]
class com.hack23.sonar.cloudformation.CloudformationProperties--><a href="CloudformationProperties.html" target="_top" title="CloudformationProperties.html" xlink:actuate="onRequest" xlink:href="CloudformationProperties.html" xlink:show="new" xlink:title="CloudformationProperties.html" xlink:type="simple"><rect codeLine="15" fill="#FEFECE" filter="url(#f1earhjaj6ojxo)" height="60.8047" id="com.hack23.sonar.cloudformation.CloudformationProperties" style="stroke:#A80036;stroke-width:1.5;" width="258" x="1039" y="209"/><ellipse cx="1083.75" cy="225" fill="#ADD1B2" rx="11" ry="11" style="stroke:#A80036;stroke-width:1.0;"/><path d="M1086.7188,230.6406 Q1086.1406,230.9375 1085.5,231.0781 Q1084.8594,231.2344 1084.1563,231.2344 Q1081.6563,231.2344 1080.3281,229.5938 Q1079.0156,227.9375 1079.0156,224.8125 Q1079.0156,221.6875 1080.3281,220.0313 Q1081.6563,218.375 1084.1563,218.375 Q1084.8594,218.375 1085.5,218.5313 Q1086.1563,218.6875 1086.7188,218.9844 L1086.7188,221.7031 Q1086.0938,221.125 1085.5,220.8594 Q1084.9063,220.5781 1084.2813,220.5781 Q1082.9375,220.5781 1082.25,221.6563 Q1081.5625,222.7188 1081.5625,224.8125 Q1081.5625,226.9063 1082.25,227.9844 Q1082.9375,229.0469 1084.2813,229.0469 Q1084.9063,229.0469 1085.5,228.7813 Q1086.0938,228.5 1086.7188,227.9219 L1086.7188,230.6406 Z " fill="#000000"/><text fill="#000000" font-family="sans-serif" font-size="12" lengthAdjust="spacing" textLength="160" x="1104.25" y="229.1543">CloudformationProperties</text><line style="stroke:#A80036;stroke-width:1.5;" x1="1040" x2="1296" y1="241" y2="241"/><line style="stroke:#A80036;stroke-width:1.5;" x1="1040" x2="1296" y1="249" y2="249"/><ellipse cx="1050" cy="260" fill="#84BE84" rx="3" ry="3" style="stroke:#038048;stroke-width:1.0;"/><text fill="#000000" font-family="sans-serif" font-size="11" lengthAdjust="spacing" text-decoration="underline" textLength="232" x="1059" y="263.2104">getProperties(): List&lt;PropertyDefinition&gt;</text></a><!--MD5=[5cd76e2d5be102320ba6d55700009822]
class com.hack23.sonar.cloudformation.CloudformationSensor--><a href="CloudformationSensor.html" target="_top" title="CloudformationSensor.html" xlink:actuate="onRequest" xlink:href="CloudformationSensor.html" xlink:show="new" xlink:title="CloudformationSensor.html" xlink:type="simple"><rect codeLine="19" fill="#FEFECE" filter="url(#f1earhjaj6ojxo)" height="99.2188" id="com.hack23.sonar.cloudformation.CloudformationSensor" style="stroke:#A80036;stroke-width:1.5;" width="518" x="1332" y="190"/><ellipse cx="1517.25" cy="206" fill="#ADD1B2" rx="11" ry="11" style="stroke:#A80036;stroke-width:1.0;"/><path d="M1520.2188,211.6406 Q1519.6406,211.9375 1519,212.0781 Q1518.3594,212.2344 1517.6563,212.2344 Q1515.1563,212.2344 1513.8281,210.5938 Q1512.5156,208.9375 1512.5156,205.8125 Q1512.5156,202.6875 1513.8281,201.0313 Q1515.1563,199.375 1517.6563,199.375 Q1518.3594,199.375 1519,199.5313 Q1519.6563,199.6875 1520.2188,199.9844 L1520.2188,202.7031 Q1519.5938,202.125 1519,201.8594 Q1518.4063,201.5781 1517.7813,201.5781 Q1516.4375,201.5781 1515.75,202.6563 Q1515.0625,203.7188 1515.0625,205.8125 Q1515.0625,207.9063 1515.75,208.9844 Q1516.4375,210.0469 1517.7813,210.0469 Q1518.4063,210.0469 1519,209.7813 Q1519.5938,209.5 1520.2188,208.9219 L1520.2188,211.6406 Z " fill="#000000"/><text fill="#000000" font-family="sans-serif" font-size="12" lengthAdjust="spacing" textLength="139" x="1537.75" y="210.1543">CloudformationSensor</text><line style="stroke:#A80036;stroke-width:1.5;" x1="1333" x2="1849" y1="222" y2="222"/><ellipse cx="1343" cy="233" rx="3" ry="3" style="stroke:#038048;stroke-width:1.0;fill:none;"/><text fill="#000000" font-family="sans-serif" font-size="11" lengthAdjust="spacing" text-decoration="underline" textLength="126" x="1352" y="236.2104">SENSOR_NAME: String</text><line style="stroke:#A80036;stroke-width:1.5;" x1="1333" x2="1849" y1="242.8047" y2="242.8047"/><ellipse cx="1343" cy="253.8047" fill="#84BE84" rx="3" ry="3" style="stroke:#038048;stroke-width:1.0;"/><text fill="#000000" font-family="sans-serif" font-size="11" lengthAdjust="spacing" textLength="492" x="1352" y="257.0151">CloudformationSensor(CloudformationSensorConfiguration, FileSystem, PathResolver)</text><ellipse cx="1343" cy="266.6094" fill="#84BE84" rx="3" ry="3" style="stroke:#038048;stroke-width:1.0;"/><text fill="#000000" font-family="sans-serif" font-size="11" lengthAdjust="spacing" textLength="188" x="1352" y="269.8198">describe(SensorDescriptor): void</text><ellipse cx="1343" cy="279.4141" fill="#84BE84" rx="3" ry="3" style="stroke:#038048;stroke-width:1.0;"/><text fill="#000000" font-family="sans-serif" font-size="11" lengthAdjust="spacing" textLength="167" x="1352" y="282.6245">execute(SensorContext): void</text></a><!--MD5=[4e78556fd0fd0f12622aab97e46ad39c]
class com.hack23.sonar.cloudformation.CloudformationPlugin--><a href="CloudformationPlugin.html" target="_top" title="CloudformationPlugin.html" xlink:actuate="onRequest" xlink:href="CloudformationPlugin.html" xlink:show="new" xlink:title="CloudformationPlugin.html" xlink:type="simple"><rect codeLine="26" fill="#FEFECE" filter="url(#f1earhjaj6ojxo)" height="60.8047" id="com.hack23.sonar.cloudformation.CloudformationPlugin" style="stroke:#A80036;stroke-width:1.5;" width="165" x="1885.5" y="209"/><ellipse cx="1900.5" cy="225" fill="#ADD1B2" rx="11" ry="11" style="stroke:#A80036;stroke-width:1.0;"/><path d="M1903.4688,230.6406 Q1902.8906,230.9375 1902.25,231.0781 Q1901.6094,231.2344 1900.9063,231.2344 Q1898.4063,231.2344 1897.0781,229.5938 Q1895.7656,227.9375 1895.7656,224.8125 Q1895.7656,221.6875 1897.0781,220.0313 Q1898.4063,218.375 1900.9063,218.375 Q1901.6094,218.375 1902.25,218.5313 Q1902.9063,218.6875 1903.4688,218.9844 L1903.4688,221.7031 Q1902.8438,221.125 1902.25,220.8594 Q1901.6563,220.5781 1901.0313,220.5781 Q1899.6875,220.5781 1899,221.6563 Q1898.3125,222.7188 1898.3125,224.8125 Q1898.3125,226.9063 1899,227.9844 Q1899.6875,229.0469 1901.0313,229.0469 Q1901.6563,229.0469 1902.25,228.7813 Q1902.8438,228.5 1903.4688,227.9219 L1903.4688,230.6406 Z " fill="#000000"/><text fill="#000000" font-family="sans-serif" font-size="12" lengthAdjust="spacing" textLength="133" x="1914.5" y="229.1543">CloudformationPlugin</text><line style="stroke:#A80036;stroke-width:1.5;" x1="1886.5" x2="2049.5" y1="241" y2="241"/><line style="stroke:#A80036;stroke-width:1.5;" x1="1886.5" x2="2049.5" y1="249" y2="249"/><ellipse cx="1896.5" cy="260" fill="#84BE84" rx="3" ry="3" style="stroke:#038048;stroke-width:1.0;"/><text fill="#000000" font-family="sans-serif" font-size="11" lengthAdjust="spacing" textLength="117" x="1905.5" y="263.2104">define(Context): void</text></a><!--MD5=[c3108af317c2c934cdb7e0b2dc4ec977]
class com.hack23.sonar.cloudformation.CloudformationSensorConfiguration--><a href="CloudformationSensorConfiguration.html" target="_top" title="CloudformationSensorConfiguration.html" xlink:actuate="onRequest" xlink:href="CloudformationSensorConfiguration.html" xlink:show="new" xlink:title="CloudformationSensorConfiguration.html" xlink:type="simple"><rect codeLine="30" fill="#FEFECE" filter="url(#f1earhjaj6ojxo)" height="86.4141" id="com.hack23.sonar.cloudformation.CloudformationSensorConfiguration" style="stroke:#A80036;stroke-width:1.5;" width="314" x="32" y="196.5"/><ellipse cx="73.55" cy="212.5" fill="#ADD1B2" rx="11" ry="11" style="stroke:#A80036;stroke-width:1.0;"/><path d="M76.5188,218.1406 Q75.9406,218.4375 75.3,218.5781 Q74.6594,218.7344 73.9563,218.7344 Q71.4563,218.7344 70.1281,217.0938 Q68.8156,215.4375 68.8156,212.3125 Q68.8156,209.1875 70.1281,207.5313 Q71.4563,205.875 73.9563,205.875 Q74.6594,205.875 75.3,206.0313 Q75.9563,206.1875 76.5188,206.4844 L76.5188,209.2031 Q75.8938,208.625 75.3,208.3594 Q74.7063,208.0781 74.0813,208.0781 Q72.7375,208.0781 72.05,209.1563 Q71.3625,210.2188 71.3625,212.3125 Q71.3625,214.4063 72.05,215.4844 Q72.7375,216.5469 74.0813,216.5469 Q74.7063,216.5469 75.3,216.2813 Q75.8938,216 76.5188,215.4219 L76.5188,218.1406 Z " fill="#000000"/><text fill="#000000" font-family="sans-serif" font-size="12" lengthAdjust="spacing" textLength="223" x="93.45" y="216.6543">CloudformationSensorConfiguration</text><line style="stroke:#A80036;stroke-width:1.5;" x1="33" x2="345" y1="228.5" y2="228.5"/><line style="stroke:#A80036;stroke-width:1.5;" x1="33" x2="345" y1="236.5" y2="236.5"/><ellipse cx="43" cy="247.5" fill="#84BE84" rx="3" ry="3" style="stroke:#038048;stroke-width:1.0;"/><text fill="#000000" font-family="sans-serif" font-size="11" lengthAdjust="spacing" textLength="288" x="52" y="250.7104">CloudformationSensorConfiguration(Configuration)</text><ellipse cx="43" cy="260.3047" fill="#84BE84" rx="3" ry="3" style="stroke:#038048;stroke-width:1.0;"/><text fill="#000000" font-family="sans-serif" font-size="11" lengthAdjust="spacing" textLength="237" x="52" y="263.5151">getCfnNagReportFiles(): Optional&lt;String&gt;</text><ellipse cx="43" cy="273.1094" fill="#84BE84" rx="3" ry="3" style="stroke:#038048;stroke-width:1.0;"/><text fill="#000000" font-family="sans-serif" font-size="11" lengthAdjust="spacing" textLength="243" x="52" y="276.3198">getCheckovReportFiles(): Optional&lt;String&gt;</text></a><!--MD5=[bccf4df98d34ca024eaa4f9d7ebedb88]
class org.sonar.api.server.profile.BuiltInQualityProfilesDefinition--><rect codeLine="43" fill="#FEFECE" filter="url(#f1earhjaj6ojxo)" height="60.8047" id="org.sonar.api.server.profile.BuiltInQualityProfilesDefinition" style="stroke:#A80036;stroke-width:1.5;" width="216" x="457" y="47.5"/><ellipse cx="472" cy="63.5" fill="#B4A7E5" rx="11" ry="11" style="stroke:#A80036;stroke-width:1.0;"/><path d="M467.9219,59.2656 L467.9219,57.1094 L475.3125,57.1094 L475.3125,59.2656 L472.8438,59.2656 L472.8438,67.3438 L475.3125,67.3438 L475.3125,69.5 L467.9219,69.5 L467.9219,67.3438 L470.3906,67.3438 L470.3906,59.2656 L467.9219,59.2656 Z " fill="#000000"/><text fill="#000000" font-family="sans-serif" font-size="12" font-style="italic" lengthAdjust="spacing" textLength="184" x="486" y="67.6543">BuiltInQualityProfilesDefinition</text><line style="stroke:#A80036;stroke-width:1.5;" x1="458" x2="672" y1="79.5" y2="79.5"/><line style="stroke:#A80036;stroke-width:1.5;" x1="458" x2="672" y1="87.5" y2="87.5"/><ellipse cx="468" cy="98.5" fill="#84BE84" rx="3" ry="3" style="stroke:#038048;stroke-width:1.0;"/><text fill="#000000" font-family="sans-serif" font-size="11" font-style="italic" lengthAdjust="spacing" textLength="119" x="477" y="101.7104">define(Context): void</text><!--MD5=[0c41336916cc93e234215d73ea118e70]
class org.sonar.api.server.rule.RulesDefinition--><rect codeLine="49" fill="#FEFECE" filter="url(#f1earhjaj6ojxo)" height="60.8047" id="org.sonar.api.server.rule.RulesDefinition" style="stroke:#A80036;stroke-width:1.5;" width="145" x="821.5" y="47.5"/><ellipse cx="845.95" cy="63.5" fill="#B4A7E5" rx="11" ry="11" style="stroke:#A80036;stroke-width:1.0;"/><path d="M841.8719,59.2656 L841.8719,57.1094 L849.2625,57.1094 L849.2625,59.2656 L846.7938,59.2656 L846.7938,67.3438 L849.2625,67.3438 L849.2625,69.5 L841.8719,69.5 L841.8719,67.3438 L844.3406,67.3438 L844.3406,59.2656 L841.8719,59.2656 Z " fill="#000000"/><text fill="#000000" font-family="sans-serif" font-size="12" font-style="italic" lengthAdjust="spacing" textLength="92" x="862.05" y="67.6543">RulesDefinition</text><line style="stroke:#A80036;stroke-width:1.5;" x1="822.5" x2="965.5" y1="79.5" y2="79.5"/><line style="stroke:#A80036;stroke-width:1.5;" x1="822.5" x2="965.5" y1="87.5" y2="87.5"/><ellipse cx="832.5" cy="98.5" fill="#84BE84" rx="3" ry="3" style="stroke:#038048;stroke-width:1.0;"/><text fill="#000000" font-family="sans-serif" font-size="11" font-style="italic" lengthAdjust="spacing" textLength="119" x="841.5" y="101.7104">define(Context): void</text><!--MD5=[f8b565af0d68398934f95a4a7e456578]
class org.sonar.api.batch.sensor.Sensor--><rect codeLine="55" fill="#FEFECE" filter="url(#f1earhjaj6ojxo)" height="73.6094" id="org.sonar.api.batch.sensor.Sensor" style="stroke:#A80036;stroke-width:1.5;" width="211" x="1485.5" y="41"/><ellipse cx="1565.25" cy="57" fill="#B4A7E5" rx="11" ry="11" style="stroke:#A80036;stroke-width:1.0;"/><path d="M1561.1719,52.7656 L1561.1719,50.6094 L1568.5625,50.6094 L1568.5625,52.7656 L1566.0938,52.7656 L1566.0938,60.8438 L1568.5625,60.8438 L1568.5625,63 L1561.1719,63 L1561.1719,60.8438 L1563.6406,60.8438 L1563.6406,52.7656 L1561.1719,52.7656 Z " fill="#000000"/><text fill="#000000" font-family="sans-serif" font-size="12" font-style="italic" lengthAdjust="spacing" textLength="43" x="1585.75" y="61.1543">Sensor</text><line style="stroke:#A80036;stroke-width:1.5;" x1="1486.5" x2="1695.5" y1="73" y2="73"/><line style="stroke:#A80036;stroke-width:1.5;" x1="1486.5" x2="1695.5" y1="81" y2="81"/><ellipse cx="1496.5" cy="92" fill="#84BE84" rx="3" ry="3" style="stroke:#038048;stroke-width:1.0;"/><text fill="#000000" font-family="sans-serif" font-size="11" font-style="italic" lengthAdjust="spacing" textLength="185" x="1505.5" y="95.2104">describe(SensorDescriptor): void</text><ellipse cx="1496.5" cy="104.8047" fill="#84BE84" rx="3" ry="3" style="stroke:#038048;stroke-width:1.0;"/><text fill="#000000" font-family="sans-serif" font-size="11" font-style="italic" lengthAdjust="spacing" textLength="168" x="1505.5" y="108.0151">execute(SensorContext): void</text><!--MD5=[357bc6d468bbe4af181e679b5a7d4bc8]
class org.sonar.api.Plugin--><rect codeLine="62" fill="#FEFECE" filter="url(#f1earhjaj6ojxo)" height="60.8047" id="org.sonar.api.Plugin" style="stroke:#A80036;stroke-width:1.5;" width="145" x="1895.5" y="47.5"/><ellipse cx="1945.25" cy="63.5" fill="#B4A7E5" rx="11" ry="11" style="stroke:#A80036;stroke-width:1.0;"/><path d="M1941.1719,59.2656 L1941.1719,57.1094 L1948.5625,57.1094 L1948.5625,59.2656 L1946.0938,59.2656 L1946.0938,67.3438 L1948.5625,67.3438 L1948.5625,69.5 L1941.1719,69.5 L1941.1719,67.3438 L1943.6406,67.3438 L1943.6406,59.2656 L1941.1719,59.2656 Z " fill="#000000"/><text fill="#000000" font-family="sans-serif" font-size="12" font-style="italic" lengthAdjust="spacing" textLength="37" x="1965.75" y="67.6543">Plugin</text><line style="stroke:#A80036;stroke-width:1.5;" x1="1896.5" x2="2039.5" y1="79.5" y2="79.5"/><line style="stroke:#A80036;stroke-width:1.5;" x1="1896.5" x2="2039.5" y1="87.5" y2="87.5"/><ellipse cx="1906.5" cy="98.5" fill="#84BE84" rx="3" ry="3" style="stroke:#038048;stroke-width:1.0;"/><text fill="#000000" font-family="sans-serif" font-size="11" font-style="italic" lengthAdjust="spacing" textLength="119" x="1915.5" y="101.7104">define(Context): void</text><!--MD5=[63fe7b739a87e21952d62265d328e55c]
reverse link org.sonar.api.server.profile.BuiltInQualityProfilesDefinition to com.hack23.sonar.cloudformation.CloudformationQualityProfile--><path codeLine="36" d="M565,128.64 C565,152.48 565,180.53 565,202.32 " fill="none" id="org.sonar.api.server.profile.BuiltInQualityProfilesDefinition-backto-com.hack23.sonar.cloudformation.CloudformationQualityProfile" style="stroke:#A80036;stroke-width:1.0;stroke-dasharray:7.0,7.0;"/><polygon fill="none" points="558,128.63,565,108.63,572,128.63,558,128.63" style="stroke:#A80036;stroke-width:1.0;"/><!--MD5=[2bdc00f05ffbda222481780920a1d1de]
reverse link org.sonar.api.server.rule.RulesDefinition to com.hack23.sonar.cloudformation.CloudformationRulesDefinition--><path codeLine="37" d="M894,128.77 C894,148.26 894,170.55 894,189.92 " fill="none" id="org.sonar.api.server.rule.RulesDefinition-backto-com.hack23.sonar.cloudformation.CloudformationRulesDefinition" style="stroke:#A80036;stroke-width:1.0;stroke-dasharray:7.0,7.0;"/><polygon fill="none" points="887,128.63,894,108.63,901,128.63,887,128.63" style="stroke:#A80036;stroke-width:1.0;"/><!--MD5=[3685ffe233817ba259f4776860359136]
reverse link org.sonar.api.batch.sensor.Sensor to com.hack23.sonar.cloudformation.CloudformationSensor--><path codeLine="38" d="M1591,135.38 C1591,153.13 1591,172.58 1591,189.75 " fill="none" id="org.sonar.api.batch.sensor.Sensor-backto-com.hack23.sonar.cloudformation.CloudformationSensor" style="stroke:#A80036;stroke-width:1.0;stroke-dasharray:7.0,7.0;"/><polygon fill="none" points="1584,135.19,1591,115.19,1598,135.19,1584,135.19" style="stroke:#A80036;stroke-width:1.0;"/><!--MD5=[a0a45c0a895aca957ae22b311196540e]
reverse link org.sonar.api.Plugin to com.hack23.sonar.cloudformation.CloudformationPlugin--><path codeLine="39" d="M1968,128.75 C1968,154.99 1968,186.31 1968,208.76 " fill="none" id="org.sonar.api.Plugin-backto-com.hack23.sonar.cloudformation.CloudformationPlugin" style="stroke:#A80036;stroke-width:1.0;stroke-dasharray:7.0,7.0;"/><polygon fill="none" points="1961,128.63,1968,108.63,1975,128.63,1961,128.63" style="stroke:#A80036;stroke-width:1.0;"/><text fill="#888888" font-family="sans-serif" font-size="10" lengthAdjust="spacing" textLength="192" x="939.5" y="320.2822">UMLDoclet 2.0.15, PlantUML 1.2021.13</text><!--MD5=[adce96ade33ab990efd277e20801b0be]
@startuml
    namespace com.hack23.sonar.cloudformation {

        class CloudformationQualityProfile [[CloudformationQualityProfile.html]] {
            +CloudformationQualityProfile(CloudformationRulesDefinition)
            +define(Context): void
        }

        class CloudformationRulesDefinition [[CloudformationRulesDefinition.html]] {
            {static} +KEY: String
            {static} +NAME: String
            +getContext(): Context
            +define(Context): void
        }

        class CloudformationProperties [[CloudformationProperties.html]] {
            {static} +getProperties(): List<PropertyDefinition>
        }

        class CloudformationSensor [[CloudformationSensor.html]] {
            {static} +SENSOR_NAME: String
            +CloudformationSensor(CloudformationSensorConfiguration, FileSystem, PathResolver)
            +describe(SensorDescriptor): void
            +execute(SensorContext): void
        }

        class CloudformationPlugin [[CloudformationPlugin.html]] {
            +define(Context): void
        }

        class CloudformationSensorConfiguration [[CloudformationSensorConfiguration.html]] {
            +CloudformationSensorConfiguration(Configuration)
            +getCfnNagReportFiles(): Optional<String>
            +getCheckovReportFiles(): Optional<String>
        }

        org.sonar.api.server.profile.BuiltInQualityProfilesDefinition <|.. CloudformationQualityProfile
        org.sonar.api.server.rule.RulesDefinition <|.. CloudformationRulesDefinition
        org.sonar.api.batch.sensor.Sensor <|.. CloudformationSensor
        org.sonar.api.Plugin <|.. CloudformationPlugin
    }

    namespace org.sonar.api.server.profile {
        interface BuiltInQualityProfilesDefinition {
            {abstract} +define(Context): void
        }
    }

    namespace org.sonar.api.server.rule {
        interface RulesDefinition {
            {abstract} +define(Context): void
        }
    }

    namespace org.sonar.api.batch.sensor {
        interface Sensor {
            {abstract} +describe(SensorDescriptor): void
            {abstract} +execute(SensorContext): void
        }
    }

    namespace org.sonar.api {
        interface Plugin {
            {abstract} +define(Context): void
        }
    }

    center footer UMLDoclet 2.0.15, PlantUML 1.2021.13
@enduml

PlantUML version 1.2021.13(Mon Nov 01 12:38:45 CET 2021)
(APACHE source distribution)
Java Runtime: OpenJDK Runtime Environment
JVM: OpenJDK 64-Bit Server VM
Default Encoding: UTF-8
Language: en
Country: US
--></g></svg>