<?xml version="1.0" encoding="UTF-8" standalone="no"?><svg xmlns="http://www.w3.org/2000/svg" xmlns:xlink="http://www.w3.org/1999/xlink" contentScriptType="application/ecmascript" contentStyleType="text/css" height="492px" preserveAspectRatio="none" style="width:1935px;height:492px;" version="1.1" viewBox="0 0 1935 492" width="1935px" zoomAndPan="magnify"><defs><filter height="300%" id="f1vcavl9tp1y3a" width="300%" x="-1" y="-1"><feGaussianBlur result="blurOut" stdDeviation="2.0"/><feColorMatrix in="blurOut" result="blurOut2" type="matrix" values="0 0 0 0 0 0 0 0 0 0 0 0 0 0 0 0 0 0 .4 0"/><feOffset dx="4.0" dy="4.0" in="blurOut2" result="blurOut3"/><feBlend in="SourceGraphic" in2="blurOut3" mode="normal"/></filter></defs><g><!--MD5=[7efd255d87f67ac79da5c4891114ef95]
cluster com.hack23.sonar.cloudformation--><polygon fill="#FFFFFF" filter="url(#f1vcavl9tp1y3a)" points="22,173,297,173,304,195.2969,1913,195.2969,1913,444,22,444,22,173" style="stroke: #000000; stroke-width: 1.5;"/><line style="stroke: #000000; stroke-width: 1.5;" x1="22" x2="304" y1="195.2969" y2="195.2969"/><text fill="#000000" font-family="sans-serif" font-size="14" font-weight="bold" lengthAdjust="spacingAndGlyphs" textLength="269" x="26" y="187.9951">com.hack23.sonar.cloudformation</text><!--MD5=[6a86e12f8c3573ef90e7334d9e934390]
cluster org.sonar.api--><polygon fill="#FFFFFF" filter="url(#f1vcavl9tp1y3a)" points="24,30.5,135,30.5,142,52.7969,202,52.7969,202,142.5,24,142.5,24,30.5" style="stroke: #000000; stroke-width: 1.5;"/><line style="stroke: #000000; stroke-width: 1.5;" x1="24" x2="142" y1="52.7969" y2="52.7969"/><text fill="#000000" font-family="sans-serif" font-size="14" font-weight="bold" lengthAdjust="spacingAndGlyphs" textLength="105" x="28" y="45.4951">org.sonar.api</text><!--MD5=[ed82d9bf0a7e82c39fc0b923e4deffa3]
cluster org.sonar.api.server.profile--><polygon fill="#FFFFFF" filter="url(#f1vcavl9tp1y3a)" points="226,30.5,450,30.5,457,52.7969,474,52.7969,474,142.5,226,142.5,226,30.5" style="stroke: #000000; stroke-width: 1.5;"/><line style="stroke: #000000; stroke-width: 1.5;" x1="226" x2="457" y1="52.7969" y2="52.7969"/><text fill="#000000" font-family="sans-serif" font-size="14" font-weight="bold" lengthAdjust="spacingAndGlyphs" textLength="218" x="230" y="45.4951">org.sonar.api.server.profile</text><!--MD5=[d3bfeb526ca1008dfb54863d3a7224f6]
cluster org.sonar.api.server.rule--><polygon fill="#FFFFFF" filter="url(#f1vcavl9tp1y3a)" points="501,30.5,705,30.5,712,52.7969,715,52.7969,715,142.5,501,142.5,501,30.5" style="stroke: #000000; stroke-width: 1.5;"/><line style="stroke: #000000; stroke-width: 1.5;" x1="501" x2="712" y1="52.7969" y2="52.7969"/><text fill="#000000" font-family="sans-serif" font-size="14" font-weight="bold" lengthAdjust="spacingAndGlyphs" textLength="198" x="505" y="45.4951">org.sonar.api.server.rule</text><!--MD5=[069966ec46c27c575c0e14a62cc3970a]
cluster org.sonar.api.batch.sensor--><polygon fill="#FFFFFF" filter="url(#f1vcavl9tp1y3a)" points="874,24,1094,24,1101,46.2969,1118,46.2969,1118,149,874,149,874,24" style="stroke: #000000; stroke-width: 1.5;"/><line style="stroke: #000000; stroke-width: 1.5;" x1="874" x2="1101" y1="46.2969" y2="46.2969"/><text fill="#000000" font-family="sans-serif" font-size="14" font-weight="bold" lengthAdjust="spacingAndGlyphs" textLength="214" x="878" y="38.9951">org.sonar.api.batch.sensor</text><!--MD5=[4e78556fd0fd0f12622aab97e46ad39c]
class com.hack23.sonar.cloudformation.CloudformationPlugin--><a href="CloudformationPlugin.html" target="_top" title="CloudformationPlugin.html" xlink:actuate="onRequest" xlink:href="CloudformationPlugin.html" xlink:show="new" xlink:title="CloudformationPlugin.html" xlink:type="simple"><rect fill="#FEFECE" filter="url(#f1vcavl9tp1y3a)" height="60.8047" id="com.hack23.sonar.cloudformation.CloudformationPlugin" style="stroke: #A80036; stroke-width: 1.5;" width="165" x="38.5" y="227"/><ellipse cx="53.5" cy="243" fill="#ADD1B2" rx="11" ry="11" style="stroke: #A80036; stroke-width: 1.0;"/><path d="M56.4688,248.6406 Q55.8906,248.9375 55.25,249.0781 Q54.6094,249.2344 53.9063,249.2344 Q51.4063,249.2344 50.0781,247.5938 Q48.7656,245.9375 48.7656,242.8125 Q48.7656,239.6875 50.0781,238.0313 Q51.4063,236.375 53.9063,236.375 Q54.6094,236.375 55.25,236.5313 Q55.9063,236.6875 56.4688,236.9844 L56.4688,239.7031 Q55.8438,239.125 55.25,238.8594 Q54.6563,238.5781 54.0313,238.5781 Q52.6875,238.5781 52,239.6563 Q51.3125,240.7188 51.3125,242.8125 Q51.3125,244.9063 52,245.9844 Q52.6875,247.0469 54.0313,247.0469 Q54.6563,247.0469 55.25,246.7813 Q55.8438,246.5 56.4688,245.9219 L56.4688,248.6406 Z "/><text fill="#000000" font-family="sans-serif" font-size="12" lengthAdjust="spacingAndGlyphs" textLength="133" x="67.5" y="247.1543">CloudformationPlugin</text><line style="stroke: #A80036; stroke-width: 1.5;" x1="39.5" x2="202.5" y1="259" y2="259"/><line style="stroke: #A80036; stroke-width: 1.5;" x1="39.5" x2="202.5" y1="267" y2="267"/><ellipse cx="49.5" cy="278" fill="#84BE84" rx="3" ry="3" style="stroke: #038048; stroke-width: 1.0;"/><text fill="#000000" font-family="sans-serif" font-size="11" lengthAdjust="spacingAndGlyphs" textLength="117" x="58.5" y="281.2104">define(Context): void</text></a><!--MD5=[c3108af317c2c934cdb7e0b2dc4ec977]
class com.hack23.sonar.cloudformation.CloudformationSensorConfiguration--><a href="CloudformationSensorConfiguration.html" target="_top" title="CloudformationSensorConfiguration.html" xlink:actuate="onRequest" xlink:href="CloudformationSensorConfiguration.html" xlink:show="new" xlink:title="CloudformationSensorConfiguration.html" xlink:type="simple"><rect fill="#FEFECE" filter="url(#f1vcavl9tp1y3a)" height="73.6094" id="com.hack23.sonar.cloudformation.CloudformationSensorConfiguration" style="stroke: #A80036; stroke-width: 1.5;" width="314" x="1290" y="220.5"/><ellipse cx="1331.55" cy="236.5" fill="#ADD1B2" rx="11" ry="11" style="stroke: #A80036; stroke-width: 1.0;"/><path d="M1334.5188,242.1406 Q1333.9406,242.4375 1333.3,242.5781 Q1332.6594,242.7344 1331.9563,242.7344 Q1329.4563,242.7344 1328.1281,241.0938 Q1326.8156,239.4375 1326.8156,236.3125 Q1326.8156,233.1875 1328.1281,231.5313 Q1329.4563,229.875 1331.9563,229.875 Q1332.6594,229.875 1333.3,230.0313 Q1333.9563,230.1875 1334.5188,230.4844 L1334.5188,233.2031 Q1333.8938,232.625 1333.3,232.3594 Q1332.7063,232.0781 1332.0813,232.0781 Q1330.7375,232.0781 1330.05,233.1563 Q1329.3625,234.2188 1329.3625,236.3125 Q1329.3625,238.4063 1330.05,239.4844 Q1330.7375,240.5469 1332.0813,240.5469 Q1332.7063,240.5469 1333.3,240.2813 Q1333.8938,240 1334.5188,239.4219 L1334.5188,242.1406 Z "/><text fill="#000000" font-family="sans-serif" font-size="12" lengthAdjust="spacingAndGlyphs" textLength="223" x="1351.45" y="240.6543">CloudformationSensorConfiguration</text><line style="stroke: #A80036; stroke-width: 1.5;" x1="1291" x2="1603" y1="252.5" y2="252.5"/><line style="stroke: #A80036; stroke-width: 1.5;" x1="1291" x2="1603" y1="260.5" y2="260.5"/><ellipse cx="1301" cy="271.5" fill="#84BE84" rx="3" ry="3" style="stroke: #038048; stroke-width: 1.0;"/><text fill="#000000" font-family="sans-serif" font-size="11" lengthAdjust="spacingAndGlyphs" textLength="288" x="1310" y="274.7104">CloudformationSensorConfiguration(Configuration)</text><ellipse cx="1301" cy="284.3047" fill="#84BE84" rx="3" ry="3" style="stroke: #038048; stroke-width: 1.0;"/><text fill="#000000" font-family="sans-serif" font-size="11" lengthAdjust="spacingAndGlyphs" textLength="196" x="1310" y="287.5151">getReportFiles(): Optional&lt;String&gt;</text></a><!--MD5=[fe768997cbfd64bbe9e45e6331c668d3]
class com.hack23.sonar.cloudformation.CloudformationQualityProfile--><a href="CloudformationQualityProfile.html" target="_top" title="CloudformationQualityProfile.html" xlink:actuate="onRequest" xlink:href="CloudformationQualityProfile.html" xlink:show="new" xlink:title="CloudformationQualityProfile.html" xlink:type="simple"><rect fill="#FEFECE" filter="url(#f1vcavl9tp1y3a)" height="73.6094" id="com.hack23.sonar.cloudformation.CloudformationQualityProfile" style="stroke: #A80036; stroke-width: 1.5;" width="208" x="239" y="220.5"/><ellipse cx="254" cy="236.5" fill="#ADD1B2" rx="11" ry="11" style="stroke: #A80036; stroke-width: 1.0;"/><path d="M256.9688,242.1406 Q256.3906,242.4375 255.75,242.5781 Q255.1094,242.7344 254.4063,242.7344 Q251.9063,242.7344 250.5781,241.0938 Q249.2656,239.4375 249.2656,236.3125 Q249.2656,233.1875 250.5781,231.5313 Q251.9063,229.875 254.4063,229.875 Q255.1094,229.875 255.75,230.0313 Q256.4063,230.1875 256.9688,230.4844 L256.9688,233.2031 Q256.3438,232.625 255.75,232.3594 Q255.1563,232.0781 254.5313,232.0781 Q253.1875,232.0781 252.5,233.1563 Q251.8125,234.2188 251.8125,236.3125 Q251.8125,238.4063 252.5,239.4844 Q253.1875,240.5469 254.5313,240.5469 Q255.1563,240.5469 255.75,240.2813 Q256.3438,240 256.9688,239.4219 L256.9688,242.1406 Z "/><text fill="#000000" font-family="sans-serif" font-size="12" lengthAdjust="spacingAndGlyphs" textLength="176" x="268" y="240.6543">CloudformationQualityProfile</text><line style="stroke: #A80036; stroke-width: 1.5;" x1="240" x2="446" y1="252.5" y2="252.5"/><line style="stroke: #A80036; stroke-width: 1.5;" x1="240" x2="446" y1="260.5" y2="260.5"/><ellipse cx="250" cy="271.5" fill="#84BE84" rx="3" ry="3" style="stroke: #038048; stroke-width: 1.0;"/><text fill="#000000" font-family="sans-serif" font-size="11" lengthAdjust="spacingAndGlyphs" text-decoration="underline" textLength="140" x="259" y="274.7104">hasRule(String): boolean</text><ellipse cx="250" cy="284.3047" fill="#84BE84" rx="3" ry="3" style="stroke: #038048; stroke-width: 1.0;"/><text fill="#000000" font-family="sans-serif" font-size="11" lengthAdjust="spacingAndGlyphs" textLength="117" x="259" y="287.5151">define(Context): void</text></a><!--MD5=[9ad602e740eec67d73c5d598917426ba]
class com.hack23.sonar.cloudformation.CloudformationRulesDefinition--><a href="CloudformationRulesDefinition.html" target="_top" title="CloudformationRulesDefinition.html" xlink:actuate="onRequest" xlink:href="CloudformationRulesDefinition.html" xlink:show="new" xlink:title="CloudformationRulesDefinition.html" xlink:type="simple"><rect fill="#FEFECE" filter="url(#f1vcavl9tp1y3a)" height="86.4141" id="com.hack23.sonar.cloudformation.CloudformationRulesDefinition" style="stroke: #A80036; stroke-width: 1.5;" width="220" x="482" y="214.5"/><ellipse cx="497" cy="230.5" fill="#ADD1B2" rx="11" ry="11" style="stroke: #A80036; stroke-width: 1.0;"/><path d="M499.9688,236.1406 Q499.3906,236.4375 498.75,236.5781 Q498.1094,236.7344 497.4063,236.7344 Q494.9063,236.7344 493.5781,235.0938 Q492.2656,233.4375 492.2656,230.3125 Q492.2656,227.1875 493.5781,225.5313 Q494.9063,223.875 497.4063,223.875 Q498.1094,223.875 498.75,224.0313 Q499.4063,224.1875 499.9688,224.4844 L499.9688,227.2031 Q499.3438,226.625 498.75,226.3594 Q498.1563,226.0781 497.5313,226.0781 Q496.1875,226.0781 495.5,227.1563 Q494.8125,228.2188 494.8125,230.3125 Q494.8125,232.4063 495.5,233.4844 Q496.1875,234.5469 497.5313,234.5469 Q498.1563,234.5469 498.75,234.2813 Q499.3438,234 499.9688,233.4219 L499.9688,236.1406 Z "/><text fill="#000000" font-family="sans-serif" font-size="12" lengthAdjust="spacingAndGlyphs" textLength="188" x="511" y="234.6543">CloudformationRulesDefinition</text><line style="stroke: #A80036; stroke-width: 1.5;" x1="483" x2="701" y1="246.5" y2="246.5"/><ellipse cx="493" cy="257.5" fill="none" rx="3" ry="3" style="stroke: #038048; stroke-width: 1.0;"/><text fill="#000000" font-family="sans-serif" font-size="11" lengthAdjust="spacingAndGlyphs" text-decoration="underline" textLength="63" x="502" y="260.7104">KEY: String</text><ellipse cx="493" cy="270.3047" fill="none" rx="3" ry="3" style="stroke: #038048; stroke-width: 1.0;"/><text fill="#000000" font-family="sans-serif" font-size="11" lengthAdjust="spacingAndGlyphs" text-decoration="underline" textLength="73" x="502" y="273.5151">NAME: String</text><line style="stroke: #A80036; stroke-width: 1.5;" x1="483" x2="701" y1="280.1094" y2="280.1094"/><ellipse cx="493" cy="291.1094" fill="#84BE84" rx="3" ry="3" style="stroke: #038048; stroke-width: 1.0;"/><text fill="#000000" font-family="sans-serif" font-size="11" lengthAdjust="spacingAndGlyphs" textLength="117" x="502" y="294.3198">define(Context): void</text></a><!--MD5=[17b8c490b45d6f269308ea962cf0181d]
class com.hack23.sonar.cloudformation.CloudformationProperties--><a href="CloudformationProperties.html" target="_top" title="CloudformationProperties.html" xlink:actuate="onRequest" xlink:href="CloudformationProperties.html" xlink:show="new" xlink:title="CloudformationProperties.html" xlink:type="simple"><rect fill="#FEFECE" filter="url(#f1vcavl9tp1y3a)" height="60.8047" id="com.hack23.sonar.cloudformation.CloudformationProperties" style="stroke: #A80036; stroke-width: 1.5;" width="258" x="1639" y="227"/><ellipse cx="1683.75" cy="243" fill="#ADD1B2" rx="11" ry="11" style="stroke: #A80036; stroke-width: 1.0;"/><path d="M1686.7188,248.6406 Q1686.1406,248.9375 1685.5,249.0781 Q1684.8594,249.2344 1684.1563,249.2344 Q1681.6563,249.2344 1680.3281,247.5938 Q1679.0156,245.9375 1679.0156,242.8125 Q1679.0156,239.6875 1680.3281,238.0313 Q1681.6563,236.375 1684.1563,236.375 Q1684.8594,236.375 1685.5,236.5313 Q1686.1563,236.6875 1686.7188,236.9844 L1686.7188,239.7031 Q1686.0938,239.125 1685.5,238.8594 Q1684.9063,238.5781 1684.2813,238.5781 Q1682.9375,238.5781 1682.25,239.6563 Q1681.5625,240.7188 1681.5625,242.8125 Q1681.5625,244.9063 1682.25,245.9844 Q1682.9375,247.0469 1684.2813,247.0469 Q1684.9063,247.0469 1685.5,246.7813 Q1686.0938,246.5 1686.7188,245.9219 L1686.7188,248.6406 Z "/><text fill="#000000" font-family="sans-serif" font-size="12" lengthAdjust="spacingAndGlyphs" textLength="160" x="1704.25" y="247.1543">CloudformationProperties</text><line style="stroke: #A80036; stroke-width: 1.5;" x1="1640" x2="1896" y1="259" y2="259"/><line style="stroke: #A80036; stroke-width: 1.5;" x1="1640" x2="1896" y1="267" y2="267"/><ellipse cx="1650" cy="278" fill="#84BE84" rx="3" ry="3" style="stroke: #038048; stroke-width: 1.0;"/><text fill="#000000" font-family="sans-serif" font-size="11" lengthAdjust="spacingAndGlyphs" text-decoration="underline" textLength="232" x="1659" y="281.2104">getProperties(): List&lt;PropertyDefinition&gt;</text></a><!--MD5=[5cd76e2d5be102320ba6d55700009822]
class com.hack23.sonar.cloudformation.CloudformationSensor--><a href="CloudformationSensor.html" target="_top" title="CloudformationSensor.html" xlink:actuate="onRequest" xlink:href="CloudformationSensor.html" xlink:show="new" xlink:title="CloudformationSensor.html" xlink:type="simple"><rect fill="#FEFECE" filter="url(#f1vcavl9tp1y3a)" height="99.2188" id="com.hack23.sonar.cloudformation.CloudformationSensor" style="stroke: #A80036; stroke-width: 1.5;" width="518" x="737" y="208"/><ellipse cx="922.25" cy="224" fill="#ADD1B2" rx="11" ry="11" style="stroke: #A80036; stroke-width: 1.0;"/><path d="M925.2188,229.6406 Q924.6406,229.9375 924,230.0781 Q923.3594,230.2344 922.6563,230.2344 Q920.1563,230.2344 918.8281,228.5938 Q917.5156,226.9375 917.5156,223.8125 Q917.5156,220.6875 918.8281,219.0313 Q920.1563,217.375 922.6563,217.375 Q923.3594,217.375 924,217.5313 Q924.6563,217.6875 925.2188,217.9844 L925.2188,220.7031 Q924.5938,220.125 924,219.8594 Q923.4063,219.5781 922.7813,219.5781 Q921.4375,219.5781 920.75,220.6563 Q920.0625,221.7188 920.0625,223.8125 Q920.0625,225.9063 920.75,226.9844 Q921.4375,228.0469 922.7813,228.0469 Q923.4063,228.0469 924,227.7813 Q924.5938,227.5 925.2188,226.9219 L925.2188,229.6406 Z "/><text fill="#000000" font-family="sans-serif" font-size="12" lengthAdjust="spacingAndGlyphs" textLength="139" x="942.75" y="228.1543">CloudformationSensor</text><line style="stroke: #A80036; stroke-width: 1.5;" x1="738" x2="1254" y1="240" y2="240"/><ellipse cx="748" cy="251" fill="none" rx="3" ry="3" style="stroke: #038048; stroke-width: 1.0;"/><text fill="#000000" font-family="sans-serif" font-size="11" lengthAdjust="spacingAndGlyphs" text-decoration="underline" textLength="126" x="757" y="254.2104">SENSOR_NAME: String</text><line style="stroke: #A80036; stroke-width: 1.5;" x1="738" x2="1254" y1="260.8047" y2="260.8047"/><ellipse cx="748" cy="271.8047" fill="#84BE84" rx="3" ry="3" style="stroke: #038048; stroke-width: 1.0;"/><text fill="#000000" font-family="sans-serif" font-size="11" lengthAdjust="spacingAndGlyphs" textLength="492" x="757" y="275.0151">CloudformationSensor(CloudformationSensorConfiguration, FileSystem, PathResolver)</text><ellipse cx="748" cy="284.6094" fill="#84BE84" rx="3" ry="3" style="stroke: #038048; stroke-width: 1.0;"/><text fill="#000000" font-family="sans-serif" font-size="11" lengthAdjust="spacingAndGlyphs" textLength="188" x="757" y="287.8198">describe(SensorDescriptor): void</text><ellipse cx="748" cy="297.4141" fill="#84BE84" rx="3" ry="3" style="stroke: #038048; stroke-width: 1.0;"/><text fill="#000000" font-family="sans-serif" font-size="11" lengthAdjust="spacingAndGlyphs" textLength="167" x="757" y="300.6245">execute(SensorContext): void</text></a><!--MD5=[0d6d0e5b973745eeb597137a51ee0af0]
class com.hack23.sonar.cloudformation.CloudformationConstants--><a href="CloudformationConstants.html" target="_top" title="CloudformationConstants.html" xlink:actuate="onRequest" xlink:href="CloudformationConstants.html" xlink:show="new" xlink:title="CloudformationConstants.html" xlink:type="simple"><rect fill="#FEFECE" filter="url(#f1vcavl9tp1y3a)" height="60.8047" id="com.hack23.sonar.cloudformation.CloudformationConstants" style="stroke: #A80036; stroke-width: 1.5;" width="212" x="1341" y="367"/><ellipse cx="1365.45" cy="383" fill="#ADD1B2" rx="11" ry="11" style="stroke: #A80036; stroke-width: 1.0;"/><path d="M1368.4188,388.6406 Q1367.8406,388.9375 1367.2,389.0781 Q1366.5594,389.2344 1365.8563,389.2344 Q1363.3563,389.2344 1362.0281,387.5938 Q1360.7156,385.9375 1360.7156,382.8125 Q1360.7156,379.6875 1362.0281,378.0313 Q1363.3563,376.375 1365.8563,376.375 Q1366.5594,376.375 1367.2,376.5313 Q1367.8563,376.6875 1368.4188,376.9844 L1368.4188,379.7031 Q1367.7938,379.125 1367.2,378.8594 Q1366.6063,378.5781 1365.9813,378.5781 Q1364.6375,378.5781 1363.95,379.6563 Q1363.2625,380.7188 1363.2625,382.8125 Q1363.2625,384.9063 1363.95,385.9844 Q1364.6375,387.0469 1365.9813,387.0469 Q1366.6063,387.0469 1367.2,386.7813 Q1367.7938,386.5 1368.4188,385.9219 L1368.4188,388.6406 Z "/><text fill="#000000" font-family="sans-serif" font-size="12" lengthAdjust="spacingAndGlyphs" textLength="159" x="1381.55" y="387.1543">CloudformationConstants</text><line style="stroke: #A80036; stroke-width: 1.5;" x1="1342" x2="1552" y1="399" y2="399"/><ellipse cx="1352" cy="410" fill="none" rx="3" ry="3" style="stroke: #038048; stroke-width: 1.0;"/><text fill="#000000" font-family="sans-serif" font-size="11" lengthAdjust="spacingAndGlyphs" text-decoration="underline" textLength="186" x="1361" y="413.2104">REPORT_FILES_PROPERTY: String</text><line style="stroke: #A80036; stroke-width: 1.5;" x1="1342" x2="1552" y1="419.8047" y2="419.8047"/></a><!--MD5=[357bc6d468bbe4af181e679b5a7d4bc8]
class org.sonar.api.Plugin--><rect fill="#FEFECE" filter="url(#f1vcavl9tp1y3a)" height="60.8047" id="org.sonar.api.Plugin" style="stroke: #A80036; stroke-width: 1.5;" width="145" x="40.5" y="65.5"/><ellipse cx="90.25" cy="81.5" fill="#B4A7E5" rx="11" ry="11" style="stroke: #A80036; stroke-width: 1.0;"/><path d="M86.1719,77.2656 L86.1719,75.1094 L93.5625,75.1094 L93.5625,77.2656 L91.0938,77.2656 L91.0938,85.3438 L93.5625,85.3438 L93.5625,87.5 L86.1719,87.5 L86.1719,85.3438 L88.6406,85.3438 L88.6406,77.2656 L86.1719,77.2656 Z "/><text fill="#000000" font-family="sans-serif" font-size="12" font-style="italic" lengthAdjust="spacingAndGlyphs" textLength="37" x="110.75" y="85.6543">Plugin</text><line style="stroke: #A80036; stroke-width: 1.5;" x1="41.5" x2="184.5" y1="97.5" y2="97.5"/><line style="stroke: #A80036; stroke-width: 1.5;" x1="41.5" x2="184.5" y1="105.5" y2="105.5"/><ellipse cx="51.5" cy="116.5" fill="#84BE84" rx="3" ry="3" style="stroke: #038048; stroke-width: 1.0;"/><text fill="#000000" font-family="sans-serif" font-size="11" font-style="italic" lengthAdjust="spacingAndGlyphs" textLength="119" x="60.5" y="119.7104">define(Context): void</text><!--MD5=[bccf4df98d34ca024eaa4f9d7ebedb88]
class org.sonar.api.server.profile.BuiltInQualityProfilesDefinition--><rect fill="#FEFECE" filter="url(#f1vcavl9tp1y3a)" height="60.8047" id="org.sonar.api.server.profile.BuiltInQualityProfilesDefinition" style="stroke: #A80036; stroke-width: 1.5;" width="216" x="242" y="65.5"/><ellipse cx="257" cy="81.5" fill="#B4A7E5" rx="11" ry="11" style="stroke: #A80036; stroke-width: 1.0;"/><path d="M252.9219,77.2656 L252.9219,75.1094 L260.3125,75.1094 L260.3125,77.2656 L257.8438,77.2656 L257.8438,85.3438 L260.3125,85.3438 L260.3125,87.5 L252.9219,87.5 L252.9219,85.3438 L255.3906,85.3438 L255.3906,77.2656 L252.9219,77.2656 Z "/><text fill="#000000" font-family="sans-serif" font-size="12" font-style="italic" lengthAdjust="spacingAndGlyphs" textLength="184" x="271" y="85.6543">BuiltInQualityProfilesDefinition</text><line style="stroke: #A80036; stroke-width: 1.5;" x1="243" x2="457" y1="97.5" y2="97.5"/><line style="stroke: #A80036; stroke-width: 1.5;" x1="243" x2="457" y1="105.5" y2="105.5"/><ellipse cx="253" cy="116.5" fill="#84BE84" rx="3" ry="3" style="stroke: #038048; stroke-width: 1.0;"/><text fill="#000000" font-family="sans-serif" font-size="11" font-style="italic" lengthAdjust="spacingAndGlyphs" textLength="119" x="262" y="119.7104">define(Context): void</text><!--MD5=[0c41336916cc93e234215d73ea118e70]
class org.sonar.api.server.rule.RulesDefinition--><rect fill="#FEFECE" filter="url(#f1vcavl9tp1y3a)" height="60.8047" id="org.sonar.api.server.rule.RulesDefinition" style="stroke: #A80036; stroke-width: 1.5;" width="145" x="519.5" y="65.5"/><ellipse cx="543.95" cy="81.5" fill="#B4A7E5" rx="11" ry="11" style="stroke: #A80036; stroke-width: 1.0;"/><path d="M539.8719,77.2656 L539.8719,75.1094 L547.2625,75.1094 L547.2625,77.2656 L544.7938,77.2656 L544.7938,85.3438 L547.2625,85.3438 L547.2625,87.5 L539.8719,87.5 L539.8719,85.3438 L542.3406,85.3438 L542.3406,77.2656 L539.8719,77.2656 Z "/><text fill="#000000" font-family="sans-serif" font-size="12" font-style="italic" lengthAdjust="spacingAndGlyphs" textLength="92" x="560.05" y="85.6543">RulesDefinition</text><line style="stroke: #A80036; stroke-width: 1.5;" x1="520.5" x2="663.5" y1="97.5" y2="97.5"/><line style="stroke: #A80036; stroke-width: 1.5;" x1="520.5" x2="663.5" y1="105.5" y2="105.5"/><ellipse cx="530.5" cy="116.5" fill="#84BE84" rx="3" ry="3" style="stroke: #038048; stroke-width: 1.0;"/><text fill="#000000" font-family="sans-serif" font-size="11" font-style="italic" lengthAdjust="spacingAndGlyphs" textLength="119" x="539.5" y="119.7104">define(Context): void</text><!--MD5=[f8b565af0d68398934f95a4a7e456578]
class org.sonar.api.batch.sensor.Sensor--><rect fill="#FEFECE" filter="url(#f1vcavl9tp1y3a)" height="73.6094" id="org.sonar.api.batch.sensor.Sensor" style="stroke: #A80036; stroke-width: 1.5;" width="211" x="890.5" y="59"/><ellipse cx="970.25" cy="75" fill="#B4A7E5" rx="11" ry="11" style="stroke: #A80036; stroke-width: 1.0;"/><path d="M966.1719,70.7656 L966.1719,68.6094 L973.5625,68.6094 L973.5625,70.7656 L971.0938,70.7656 L971.0938,78.8438 L973.5625,78.8438 L973.5625,81 L966.1719,81 L966.1719,78.8438 L968.6406,78.8438 L968.6406,70.7656 L966.1719,70.7656 Z "/><text fill="#000000" font-family="sans-serif" font-size="12" font-style="italic" lengthAdjust="spacingAndGlyphs" textLength="43" x="990.75" y="79.1543">Sensor</text><line style="stroke: #A80036; stroke-width: 1.5;" x1="891.5" x2="1100.5" y1="91" y2="91"/><line style="stroke: #A80036; stroke-width: 1.5;" x1="891.5" x2="1100.5" y1="99" y2="99"/><ellipse cx="901.5" cy="110" fill="#84BE84" rx="3" ry="3" style="stroke: #038048; stroke-width: 1.0;"/><text fill="#000000" font-family="sans-serif" font-size="11" font-style="italic" lengthAdjust="spacingAndGlyphs" textLength="185" x="910.5" y="113.2104">describe(SensorDescriptor): void</text><ellipse cx="901.5" cy="122.8047" fill="#84BE84" rx="3" ry="3" style="stroke: #038048; stroke-width: 1.0;"/><text fill="#000000" font-family="sans-serif" font-size="11" font-style="italic" lengthAdjust="spacingAndGlyphs" textLength="168" x="910.5" y="126.0151">execute(SensorContext): void</text><!--MD5=[a0a45c0a895aca957ae22b311196540e]
reverse link org.sonar.api.Plugin to com.hack23.sonar.cloudformation.CloudformationPlugin--><path d="M115.5,146.75 C116.81,172.99 118.38,204.31 119.51,226.76 " fill="none" id="org.sonar.api.Plugin&lt;-com.hack23.sonar.cloudformation.CloudformationPlugin" style="stroke: #A80036; stroke-width: 1.0; stroke-dasharray: 7.0,7.0;"/><polygon fill="none" points="108.5,146.95,114.49,126.63,122.48,146.25,108.5,146.95" style="stroke: #A80036; stroke-width: 1.0;"/><!--MD5=[63fe7b739a87e21952d62265d328e55c]
reverse link org.sonar.api.server.profile.BuiltInQualityProfilesDefinition to com.hack23.sonar.cloudformation.CloudformationQualityProfile--><path d="M347.82,146.64 C346.78,170.48 345.54,198.53 344.59,220.32 " fill="none" id="org.sonar.api.server.profile.BuiltInQualityProfilesDefinition&lt;-com.hack23.sonar.cloudformation.CloudformationQualityProfile" style="stroke: #A80036; stroke-width: 1.0; stroke-dasharray: 7.0,7.0;"/><polygon fill="none" points="340.83,146.3,348.7,126.63,354.82,146.91,340.83,146.3" style="stroke: #A80036; stroke-width: 1.0;"/><!--MD5=[2bdc00f05ffbda222481780920a1d1de]
reverse link org.sonar.api.server.rule.RulesDefinition to com.hack23.sonar.cloudformation.CloudformationRulesDefinition--><path d="M592,146.87 C592,168.55 592,193.68 592,214.4 " fill="none" id="org.sonar.api.server.rule.RulesDefinition&lt;-com.hack23.sonar.cloudformation.CloudformationRulesDefinition" style="stroke: #A80036; stroke-width: 1.0; stroke-dasharray: 7.0,7.0;"/><polygon fill="none" points="585,146.63,592,126.63,599,146.63,585,146.63" style="stroke: #A80036; stroke-width: 1.0;"/><!--MD5=[3685ffe233817ba259f4776860359136]
reverse link org.sonar.api.batch.sensor.Sensor to com.hack23.sonar.cloudformation.CloudformationSensor--><path d="M996,153.38 C996,171.13 996,190.58 996,207.75 " fill="none" id="org.sonar.api.batch.sensor.Sensor&lt;-com.hack23.sonar.cloudformation.CloudformationSensor" style="stroke: #A80036; stroke-width: 1.0; stroke-dasharray: 7.0,7.0;"/><polygon fill="none" points="989,153.19,996,133.19,1003,153.19,989,153.19" style="stroke: #A80036; stroke-width: 1.0;"/><!--MD5=[4267c0e0e1c496da44e4719aff5857d4]
link com.hack23.sonar.cloudformation.CloudformationSensorConfiguration to com.hack23.sonar.cloudformation.CloudformationProperties--><!--MD5=[ccf7d02e476674fce818001880d01f60]
link com.hack23.sonar.cloudformation.CloudformationSensorConfiguration to com.hack23.sonar.cloudformation.CloudformationConstants--><text fill="#888888" font-family="sans-serif" font-size="10" lengthAdjust="spacingAndGlyphs" textLength="186" x="880.5" y="479.2822">UMLDoclet 2.0.9, PlantUML 1.2020.08</text><!--MD5=[32669969b0c741670814fcf5dbd941c1]
@startuml
    namespace com.hack23.sonar.cloudformation {

        class CloudformationPlugin [[CloudformationPlugin.html]] {
            +define(Context): void
        }

        class CloudformationSensorConfiguration [[CloudformationSensorConfiguration.html]] {
            +CloudformationSensorConfiguration(Configuration)
            +getReportFiles(): Optional<String>
        }

        class CloudformationQualityProfile [[CloudformationQualityProfile.html]] {
            {static} +hasRule(String): boolean
            +define(Context): void
        }

        class CloudformationRulesDefinition [[CloudformationRulesDefinition.html]] {
            {static} +KEY: String
            {static} +NAME: String
            +define(Context): void
        }

        class CloudformationProperties [[CloudformationProperties.html]] {
            {static} +getProperties(): List<PropertyDefinition>
        }

        class CloudformationSensor [[CloudformationSensor.html]] {
            {static} +SENSOR_NAME: String
            +CloudformationSensor(CloudformationSensorConfiguration, FileSystem, PathResolver)
            +describe(SensorDescriptor): void
            +execute(SensorContext): void
        }

        class CloudformationConstants [[CloudformationConstants.html]] {
            {static} +REPORT_FILES_PROPERTY: String
        }

        org.sonar.api.Plugin <|.. CloudformationPlugin
        org.sonar.api.server.profile.BuiltInQualityProfilesDefinition <|.. CloudformationQualityProfile
        org.sonar.api.server.rule.RulesDefinition <|.. CloudformationRulesDefinition
        org.sonar.api.batch.sensor.Sensor <|.. CloudformationSensor
    }

    namespace org.sonar.api {
        interface Plugin {
            {abstract} +define(Context): void
        }
    }

    namespace org.sonar.api.server.profile {
        interface BuiltInQualityProfilesDefinition {
            {abstract} +define(Context): void
        }
    }

    namespace org.sonar.api.server.rule {
        interface RulesDefinition {
            {abstract} +define(Context): void
        }
    }

    namespace org.sonar.api.batch.sensor {
        interface Sensor {
            {abstract} +describe(SensorDescriptor): void
            {abstract} +execute(SensorContext): void
        }
    }

    center footer UMLDoclet 2.0.9, PlantUML 1.2020.08
@enduml

PlantUML version 1.2020.08(Sun Apr 26 16:08:22 CEST 2020)
(APACHE source distribution)
Java Runtime: OpenJDK Runtime Environment
JVM: OpenJDK 64-Bit Server VM
Java Version: 11.0.7+10-post-Ubuntu-3ubuntu1
Operating System: Linux
Default Encoding: UTF-8
Language: en
Country: US
--></g></svg>