<?xml version="1.0" encoding="UTF-8" standalone="no"?><svg xmlns="http://www.w3.org/2000/svg" xmlns:xlink="http://www.w3.org/1999/xlink" contentScriptType="application/ecmascript" contentStyleType="text/css" height="458px" preserveAspectRatio="none" style="width:2324px;height:458px;" version="1.1" viewBox="0 0 2324 458" width="2324px" zoomAndPan="magnify"><defs><filter height="300%" id="f17auz20c7c47q" width="300%" x="-1" y="-1"><feGaussianBlur result="blurOut" stdDeviation="2.0"/><feColorMatrix in="blurOut" result="blurOut2" type="matrix" values="0 0 0 0 0 0 0 0 0 0 0 0 0 0 0 0 0 0 .4 0"/><feOffset dx="4.0" dy="4.0" in="blurOut2" result="blurOut3"/><feBlend in="SourceGraphic" in2="blurOut3" mode="normal"/></filter></defs><g><!--MD5=[7efd255d87f67ac79da5c4891114ef95]
cluster com.hack23.sonar.cloudformation--><polygon fill="#FFFFFF" filter="url(#f17auz20c7c47q)" points="140,150,415,150,422,172.2969,2302,172.2969,2302,418,140,418,140,150" style="stroke: #000000; stroke-width: 1.5;"/><line style="stroke: #000000; stroke-width: 1.5;" x1="140" x2="422" y1="172.2969" y2="172.2969"/><text fill="#000000" font-family="sans-serif" font-size="14" font-weight="bold" lengthAdjust="spacingAndGlyphs" textLength="269" x="144" y="164.9951">com.hack23.sonar.cloudformation</text><!--MD5=[6a86e12f8c3573ef90e7334d9e934390]
cluster org.sonar.api--><polygon fill="#FFFFFF" filter="url(#f17auz20c7c47q)" points="14,22.5,125,22.5,132,44.7969,312,44.7969,312,118.5,14,118.5,14,22.5" style="stroke: #000000; stroke-width: 1.5;"/><line style="stroke: #000000; stroke-width: 1.5;" x1="14" x2="132" y1="44.7969" y2="44.7969"/><text fill="#000000" font-family="sans-serif" font-size="14" font-weight="bold" lengthAdjust="spacingAndGlyphs" textLength="105" x="18" y="37.4951">org.sonar.api</text><!--MD5=[ed82d9bf0a7e82c39fc0b923e4deffa3]
cluster org.sonar.api.server.profile--><polygon fill="#FFFFFF" filter="url(#f17auz20c7c47q)" points="336,22.5,560,22.5,567,44.7969,570,44.7969,570,118.5,336,118.5,336,22.5" style="stroke: #000000; stroke-width: 1.5;"/><line style="stroke: #000000; stroke-width: 1.5;" x1="336" x2="567" y1="44.7969" y2="44.7969"/><text fill="#000000" font-family="sans-serif" font-size="14" font-weight="bold" lengthAdjust="spacingAndGlyphs" textLength="218" x="340" y="37.4951">org.sonar.api.server.profile</text><!--MD5=[d3bfeb526ca1008dfb54863d3a7224f6]
cluster org.sonar.api.server.rule--><polygon fill="#FFFFFF" filter="url(#f17auz20c7c47q)" points="882,22.5,1086,22.5,1093,44.7969,1096,44.7969,1096,118.5,882,118.5,882,22.5" style="stroke: #000000; stroke-width: 1.5;"/><line style="stroke: #000000; stroke-width: 1.5;" x1="882" x2="1093" y1="44.7969" y2="44.7969"/><text fill="#000000" font-family="sans-serif" font-size="14" font-weight="bold" lengthAdjust="spacingAndGlyphs" textLength="198" x="886" y="37.4951">org.sonar.api.server.rule</text><!--MD5=[069966ec46c27c575c0e14a62cc3970a]
cluster org.sonar.api.batch.sensor--><polygon fill="#FFFFFF" filter="url(#f17auz20c7c47q)" points="1278,16,1498,16,1505,38.2969,1508,38.2969,1508,125,1278,125,1278,16" style="stroke: #000000; stroke-width: 1.5;"/><line style="stroke: #000000; stroke-width: 1.5;" x1="1278" x2="1505" y1="38.2969" y2="38.2969"/><text fill="#000000" font-family="sans-serif" font-size="14" font-weight="bold" lengthAdjust="spacingAndGlyphs" textLength="214" x="1282" y="30.9951">org.sonar.api.batch.sensor</text><!--MD5=[4e78556fd0fd0f12622aab97e46ad39c]
class com.hack23.sonar.cloudformation.CloudformationPlugin--><a href="CloudformationPlugin.html" target="_top" title="CloudformationPlugin.html" xlink:actuate="onRequest" xlink:href="CloudformationPlugin.html" xlink:show="new" xlink:title="CloudformationPlugin.html" xlink:type="simple"><rect fill="#FEFECE" filter="url(#f17auz20c7c47q)" height="60.8047" id="com.hack23.sonar.cloudformation.CloudformationPlugin" style="stroke: #A80036; stroke-width: 1.5;" width="165" x="148.5" y="202.5"/><ellipse cx="163.5" cy="218.5" fill="#ADD1B2" rx="11" ry="11" style="stroke: #A80036; stroke-width: 1.0;"/><path d="M166.4688,224.1406 Q165.8906,224.4375 165.25,224.5781 Q164.6094,224.7344 163.9063,224.7344 Q161.4063,224.7344 160.0781,223.0938 Q158.7656,221.4375 158.7656,218.3125 Q158.7656,215.1875 160.0781,213.5313 Q161.4063,211.875 163.9063,211.875 Q164.6094,211.875 165.25,212.0313 Q165.9063,212.1875 166.4688,212.4844 L166.4688,215.2031 Q165.8438,214.625 165.25,214.3594 Q164.6563,214.0781 164.0313,214.0781 Q162.6875,214.0781 162,215.1563 Q161.3125,216.2188 161.3125,218.3125 Q161.3125,220.4063 162,221.4844 Q162.6875,222.5469 164.0313,222.5469 Q164.6563,222.5469 165.25,222.2813 Q165.8438,222 166.4688,221.4219 L166.4688,224.1406 Z "/><text fill="#000000" font-family="sans-serif" font-size="12" lengthAdjust="spacingAndGlyphs" textLength="133" x="177.5" y="222.6543">CloudformationPlugin</text><line style="stroke: #A80036; stroke-width: 1.5;" x1="149.5" x2="312.5" y1="234.5" y2="234.5"/><line style="stroke: #A80036; stroke-width: 1.5;" x1="149.5" x2="312.5" y1="242.5" y2="242.5"/><ellipse cx="159.5" cy="253.5" fill="#84BE84" rx="3" ry="3" style="stroke: #038048; stroke-width: 1.0;"/><text fill="#000000" font-family="sans-serif" font-size="11" lengthAdjust="spacingAndGlyphs" textLength="117" x="168.5" y="256.7104">define(Context): void</text></a><!--MD5=[c3108af317c2c934cdb7e0b2dc4ec977]
class com.hack23.sonar.cloudformation.CloudformationSensorConfiguration--><a href="CloudformationSensorConfiguration.html" target="_top" title="CloudformationSensorConfiguration.html" xlink:actuate="onRequest" xlink:href="CloudformationSensorConfiguration.html" xlink:show="new" xlink:title="CloudformationSensorConfiguration.html" xlink:type="simple"><rect fill="#FEFECE" filter="url(#f17auz20c7c47q)" height="73.6094" id="com.hack23.sonar.cloudformation.CloudformationSensorConfiguration" style="stroke: #A80036; stroke-width: 1.5;" width="314" x="1687" y="196"/><ellipse cx="1728.55" cy="212" fill="#ADD1B2" rx="11" ry="11" style="stroke: #A80036; stroke-width: 1.0;"/><path d="M1731.5188,217.6406 Q1730.9406,217.9375 1730.3,218.0781 Q1729.6594,218.2344 1728.9563,218.2344 Q1726.4563,218.2344 1725.1281,216.5938 Q1723.8156,214.9375 1723.8156,211.8125 Q1723.8156,208.6875 1725.1281,207.0313 Q1726.4563,205.375 1728.9563,205.375 Q1729.6594,205.375 1730.3,205.5313 Q1730.9563,205.6875 1731.5188,205.9844 L1731.5188,208.7031 Q1730.8938,208.125 1730.3,207.8594 Q1729.7063,207.5781 1729.0813,207.5781 Q1727.7375,207.5781 1727.05,208.6563 Q1726.3625,209.7188 1726.3625,211.8125 Q1726.3625,213.9063 1727.05,214.9844 Q1727.7375,216.0469 1729.0813,216.0469 Q1729.7063,216.0469 1730.3,215.7813 Q1730.8938,215.5 1731.5188,214.9219 L1731.5188,217.6406 Z "/><text fill="#000000" font-family="sans-serif" font-size="12" lengthAdjust="spacingAndGlyphs" textLength="223" x="1748.45" y="216.1543">CloudformationSensorConfiguration</text><line style="stroke: #A80036; stroke-width: 1.5;" x1="1688" x2="2000" y1="228" y2="228"/><line style="stroke: #A80036; stroke-width: 1.5;" x1="1688" x2="2000" y1="236" y2="236"/><ellipse cx="1698" cy="247" fill="#84BE84" rx="3" ry="3" style="stroke: #038048; stroke-width: 1.0;"/><text fill="#000000" font-family="sans-serif" font-size="11" lengthAdjust="spacingAndGlyphs" textLength="288" x="1707" y="250.2104">CloudformationSensorConfiguration(Configuration)</text><ellipse cx="1698" cy="259.8047" fill="#84BE84" rx="3" ry="3" style="stroke: #038048; stroke-width: 1.0;"/><text fill="#000000" font-family="sans-serif" font-size="11" lengthAdjust="spacingAndGlyphs" textLength="196" x="1707" y="263.0151">getReportFiles(): Optional&lt;String&gt;</text></a><!--MD5=[fe768997cbfd64bbe9e45e6331c668d3]
class com.hack23.sonar.cloudformation.CloudformationQualityProfile--><a href="CloudformationQualityProfile.html" target="_top" title="CloudformationQualityProfile.html" xlink:actuate="onRequest" xlink:href="CloudformationQualityProfile.html" xlink:show="new" xlink:title="CloudformationQualityProfile.html" xlink:type="simple"><rect fill="#FEFECE" filter="url(#f17auz20c7c47q)" height="73.6094" id="com.hack23.sonar.cloudformation.CloudformationQualityProfile" style="stroke: #A80036; stroke-width: 1.5;" width="208" x="349" y="196"/><ellipse cx="364" cy="212" fill="#ADD1B2" rx="11" ry="11" style="stroke: #A80036; stroke-width: 1.0;"/><path d="M366.9688,217.6406 Q366.3906,217.9375 365.75,218.0781 Q365.1094,218.2344 364.4063,218.2344 Q361.9063,218.2344 360.5781,216.5938 Q359.2656,214.9375 359.2656,211.8125 Q359.2656,208.6875 360.5781,207.0313 Q361.9063,205.375 364.4063,205.375 Q365.1094,205.375 365.75,205.5313 Q366.4063,205.6875 366.9688,205.9844 L366.9688,208.7031 Q366.3438,208.125 365.75,207.8594 Q365.1563,207.5781 364.5313,207.5781 Q363.1875,207.5781 362.5,208.6563 Q361.8125,209.7188 361.8125,211.8125 Q361.8125,213.9063 362.5,214.9844 Q363.1875,216.0469 364.5313,216.0469 Q365.1563,216.0469 365.75,215.7813 Q366.3438,215.5 366.9688,214.9219 L366.9688,217.6406 Z "/><text fill="#000000" font-family="sans-serif" font-size="12" lengthAdjust="spacingAndGlyphs" textLength="176" x="378" y="216.1543">CloudformationQualityProfile</text><line style="stroke: #A80036; stroke-width: 1.5;" x1="350" x2="556" y1="228" y2="228"/><line style="stroke: #A80036; stroke-width: 1.5;" x1="350" x2="556" y1="236" y2="236"/><ellipse cx="360" cy="247" fill="#84BE84" rx="3" ry="3" style="stroke: #038048; stroke-width: 1.0;"/><text fill="#000000" font-family="sans-serif" font-size="11" lengthAdjust="spacingAndGlyphs" text-decoration="underline" textLength="140" x="369" y="250.2104">hasRule(String): boolean</text><ellipse cx="360" cy="259.8047" fill="#84BE84" rx="3" ry="3" style="stroke: #038048; stroke-width: 1.0;"/><text fill="#000000" font-family="sans-serif" font-size="11" lengthAdjust="spacingAndGlyphs" textLength="117" x="369" y="263.0151">define(Context): void</text></a><!--MD5=[7855ddd67fbdcedf10db43e001c684f0]
class com.hack23.sonar.cloudformation.CloudformationLanguage--><a href="CloudformationLanguage.html" target="_top" title="CloudformationLanguage.html" xlink:actuate="onRequest" xlink:href="CloudformationLanguage.html" xlink:show="new" xlink:title="CloudformationLanguage.html" xlink:type="simple"><rect fill="#FEFECE" filter="url(#f17auz20c7c47q)" height="99.2188" id="com.hack23.sonar.cloudformation.CloudformationLanguage" style="stroke: #A80036; stroke-width: 1.5;" width="252" x="592" y="183.5"/><ellipse cx="635.35" cy="199.5" fill="#ADD1B2" rx="11" ry="11" style="stroke: #A80036; stroke-width: 1.0;"/><path d="M638.3188,205.1406 Q637.7406,205.4375 637.1,205.5781 Q636.4594,205.7344 635.7563,205.7344 Q633.2563,205.7344 631.9281,204.0938 Q630.6156,202.4375 630.6156,199.3125 Q630.6156,196.1875 631.9281,194.5313 Q633.2563,192.875 635.7563,192.875 Q636.4594,192.875 637.1,193.0313 Q637.7563,193.1875 638.3188,193.4844 L638.3188,196.2031 Q637.6938,195.625 637.1,195.3594 Q636.5063,195.0781 635.8813,195.0781 Q634.5375,195.0781 633.85,196.1563 Q633.1625,197.2188 633.1625,199.3125 Q633.1625,201.4063 633.85,202.4844 Q634.5375,203.5469 635.8813,203.5469 Q636.5063,203.5469 637.1,203.2813 Q637.6938,203 638.3188,202.4219 L638.3188,205.1406 Z "/><text fill="#000000" font-family="sans-serif" font-size="12" lengthAdjust="spacingAndGlyphs" textLength="157" x="655.65" y="203.6543">CloudformationLanguage</text><line style="stroke: #A80036; stroke-width: 1.5;" x1="593" x2="843" y1="215.5" y2="215.5"/><ellipse cx="603" cy="226.5" fill="none" rx="3" ry="3" style="stroke: #038048; stroke-width: 1.0;"/><text fill="#000000" font-family="sans-serif" font-size="11" lengthAdjust="spacingAndGlyphs" text-decoration="underline" textLength="73" x="612" y="229.7104">NAME: String</text><ellipse cx="603" cy="239.3047" fill="none" rx="3" ry="3" style="stroke: #038048; stroke-width: 1.0;"/><text fill="#000000" font-family="sans-serif" font-size="11" lengthAdjust="spacingAndGlyphs" text-decoration="underline" textLength="63" x="612" y="242.5151">KEY: String</text><line style="stroke: #A80036; stroke-width: 1.5;" x1="593" x2="843" y1="249.1094" y2="249.1094"/><ellipse cx="603" cy="260.1094" fill="#84BE84" rx="3" ry="3" style="stroke: #038048; stroke-width: 1.0;"/><text fill="#000000" font-family="sans-serif" font-size="11" lengthAdjust="spacingAndGlyphs" textLength="226" x="612" y="263.3198">CloudformationLanguage(Configuration)</text><ellipse cx="603" cy="272.9141" fill="#84BE84" rx="3" ry="3" style="stroke: #038048; stroke-width: 1.0;"/><text fill="#000000" font-family="sans-serif" font-size="11" lengthAdjust="spacingAndGlyphs" textLength="141" x="612" y="276.1245">getFileSuffixes(): String[]</text></a><!--MD5=[9ad602e740eec67d73c5d598917426ba]
class com.hack23.sonar.cloudformation.CloudformationRulesDefinition--><a href="CloudformationRulesDefinition.html" target="_top" title="CloudformationRulesDefinition.html" xlink:actuate="onRequest" xlink:href="CloudformationRulesDefinition.html" xlink:show="new" xlink:title="CloudformationRulesDefinition.html" xlink:type="simple"><rect fill="#FEFECE" filter="url(#f17auz20c7c47q)" height="112.0234" id="com.hack23.sonar.cloudformation.CloudformationRulesDefinition" style="stroke: #A80036; stroke-width: 1.5;" width="220" x="879" y="177"/><ellipse cx="894" cy="193" fill="#ADD1B2" rx="11" ry="11" style="stroke: #A80036; stroke-width: 1.0;"/><path d="M896.9688,198.6406 Q896.3906,198.9375 895.75,199.0781 Q895.1094,199.2344 894.4063,199.2344 Q891.9063,199.2344 890.5781,197.5938 Q889.2656,195.9375 889.2656,192.8125 Q889.2656,189.6875 890.5781,188.0313 Q891.9063,186.375 894.4063,186.375 Q895.1094,186.375 895.75,186.5313 Q896.4063,186.6875 896.9688,186.9844 L896.9688,189.7031 Q896.3438,189.125 895.75,188.8594 Q895.1563,188.5781 894.5313,188.5781 Q893.1875,188.5781 892.5,189.6563 Q891.8125,190.7188 891.8125,192.8125 Q891.8125,194.9063 892.5,195.9844 Q893.1875,197.0469 894.5313,197.0469 Q895.1563,197.0469 895.75,196.7813 Q896.3438,196.5 896.9688,195.9219 L896.9688,198.6406 Z "/><text fill="#000000" font-family="sans-serif" font-size="12" lengthAdjust="spacingAndGlyphs" textLength="188" x="908" y="197.1543">CloudformationRulesDefinition</text><line style="stroke: #A80036; stroke-width: 1.5;" x1="880" x2="1098" y1="209" y2="209"/><ellipse cx="890" cy="220" fill="none" rx="3" ry="3" style="stroke: #038048; stroke-width: 1.0;"/><text fill="#000000" font-family="sans-serif" font-size="11" lengthAdjust="spacingAndGlyphs" text-decoration="underline" textLength="63" x="899" y="223.2104">KEY: String</text><ellipse cx="890" cy="232.8047" fill="none" rx="3" ry="3" style="stroke: #038048; stroke-width: 1.0;"/><text fill="#000000" font-family="sans-serif" font-size="11" lengthAdjust="spacingAndGlyphs" text-decoration="underline" textLength="73" x="899" y="236.0151">NAME: String</text><ellipse cx="890" cy="245.6094" fill="none" rx="3" ry="3" style="stroke: #038048; stroke-width: 1.0;"/><text fill="#000000" font-family="sans-serif" font-size="11" lengthAdjust="spacingAndGlyphs" text-decoration="underline" textLength="99" x="899" y="248.8198">REPO_KEY: String</text><ellipse cx="890" cy="258.4141" fill="none" rx="3" ry="3" style="stroke: #038048; stroke-width: 1.0;"/><text fill="#000000" font-family="sans-serif" font-size="11" lengthAdjust="spacingAndGlyphs" text-decoration="underline" textLength="109" x="899" y="261.6245">REPO_NAME: String</text><line style="stroke: #A80036; stroke-width: 1.5;" x1="880" x2="1098" y1="268.2188" y2="268.2188"/><ellipse cx="890" cy="279.2188" fill="#84BE84" rx="3" ry="3" style="stroke: #038048; stroke-width: 1.0;"/><text fill="#000000" font-family="sans-serif" font-size="11" lengthAdjust="spacingAndGlyphs" textLength="117" x="899" y="282.4292">define(Context): void</text></a><!--MD5=[17b8c490b45d6f269308ea962cf0181d]
class com.hack23.sonar.cloudformation.CloudformationProperties--><a href="CloudformationProperties.html" target="_top" title="CloudformationProperties.html" xlink:actuate="onRequest" xlink:href="CloudformationProperties.html" xlink:show="new" xlink:title="CloudformationProperties.html" xlink:type="simple"><rect fill="#FEFECE" filter="url(#f17auz20c7c47q)" height="86.4141" id="com.hack23.sonar.cloudformation.CloudformationProperties" style="stroke: #A80036; stroke-width: 1.5;" width="258" x="2036" y="190"/><ellipse cx="2080.75" cy="206" fill="#ADD1B2" rx="11" ry="11" style="stroke: #A80036; stroke-width: 1.0;"/><path d="M2083.7188,211.6406 Q2083.1406,211.9375 2082.5,212.0781 Q2081.8594,212.2344 2081.1563,212.2344 Q2078.6563,212.2344 2077.3281,210.5938 Q2076.0156,208.9375 2076.0156,205.8125 Q2076.0156,202.6875 2077.3281,201.0313 Q2078.6563,199.375 2081.1563,199.375 Q2081.8594,199.375 2082.5,199.5313 Q2083.1563,199.6875 2083.7188,199.9844 L2083.7188,202.7031 Q2083.0938,202.125 2082.5,201.8594 Q2081.9063,201.5781 2081.2813,201.5781 Q2079.9375,201.5781 2079.25,202.6563 Q2078.5625,203.7188 2078.5625,205.8125 Q2078.5625,207.9063 2079.25,208.9844 Q2079.9375,210.0469 2081.2813,210.0469 Q2081.9063,210.0469 2082.5,209.7813 Q2083.0938,209.5 2083.7188,208.9219 L2083.7188,211.6406 Z "/><text fill="#000000" font-family="sans-serif" font-size="12" lengthAdjust="spacingAndGlyphs" textLength="160" x="2101.25" y="210.1543">CloudformationProperties</text><line style="stroke: #A80036; stroke-width: 1.5;" x1="2037" x2="2293" y1="222" y2="222"/><ellipse cx="2047" cy="233" fill="none" rx="3" ry="3" style="stroke: #038048; stroke-width: 1.0;"/><text fill="#000000" font-family="sans-serif" font-size="11" lengthAdjust="spacingAndGlyphs" text-decoration="underline" textLength="150" x="2056" y="236.2104">FILE_SUFFIXES_KEY: String</text><ellipse cx="2047" cy="245.8047" fill="none" rx="3" ry="3" style="stroke: #038048; stroke-width: 1.0;"/><text fill="#000000" font-family="sans-serif" font-size="11" lengthAdjust="spacingAndGlyphs" text-decoration="underline" textLength="219" x="2056" y="249.0151">FILE_SUFFIXES_DEFAULT_VALUE: String</text><line style="stroke: #A80036; stroke-width: 1.5;" x1="2037" x2="2293" y1="255.6094" y2="255.6094"/><ellipse cx="2047" cy="266.6094" fill="#84BE84" rx="3" ry="3" style="stroke: #038048; stroke-width: 1.0;"/><text fill="#000000" font-family="sans-serif" font-size="11" lengthAdjust="spacingAndGlyphs" text-decoration="underline" textLength="232" x="2056" y="269.8198">getProperties(): List&lt;PropertyDefinition&gt;</text></a><!--MD5=[5cd76e2d5be102320ba6d55700009822]
class com.hack23.sonar.cloudformation.CloudformationSensor--><a href="CloudformationSensor.html" target="_top" title="CloudformationSensor.html" xlink:actuate="onRequest" xlink:href="CloudformationSensor.html" xlink:show="new" xlink:title="CloudformationSensor.html" xlink:type="simple"><rect fill="#FEFECE" filter="url(#f17auz20c7c47q)" height="99.2188" id="com.hack23.sonar.cloudformation.CloudformationSensor" style="stroke: #A80036; stroke-width: 1.5;" width="518" x="1134" y="183.5"/><ellipse cx="1319.25" cy="199.5" fill="#ADD1B2" rx="11" ry="11" style="stroke: #A80036; stroke-width: 1.0;"/><path d="M1322.2188,205.1406 Q1321.6406,205.4375 1321,205.5781 Q1320.3594,205.7344 1319.6563,205.7344 Q1317.1563,205.7344 1315.8281,204.0938 Q1314.5156,202.4375 1314.5156,199.3125 Q1314.5156,196.1875 1315.8281,194.5313 Q1317.1563,192.875 1319.6563,192.875 Q1320.3594,192.875 1321,193.0313 Q1321.6563,193.1875 1322.2188,193.4844 L1322.2188,196.2031 Q1321.5938,195.625 1321,195.3594 Q1320.4063,195.0781 1319.7813,195.0781 Q1318.4375,195.0781 1317.75,196.1563 Q1317.0625,197.2188 1317.0625,199.3125 Q1317.0625,201.4063 1317.75,202.4844 Q1318.4375,203.5469 1319.7813,203.5469 Q1320.4063,203.5469 1321,203.2813 Q1321.5938,203 1322.2188,202.4219 L1322.2188,205.1406 Z "/><text fill="#000000" font-family="sans-serif" font-size="12" lengthAdjust="spacingAndGlyphs" textLength="139" x="1339.75" y="203.6543">CloudformationSensor</text><line style="stroke: #A80036; stroke-width: 1.5;" x1="1135" x2="1651" y1="215.5" y2="215.5"/><ellipse cx="1145" cy="226.5" fill="none" rx="3" ry="3" style="stroke: #038048; stroke-width: 1.0;"/><text fill="#000000" font-family="sans-serif" font-size="11" lengthAdjust="spacingAndGlyphs" text-decoration="underline" textLength="126" x="1154" y="229.7104">SENSOR_NAME: String</text><line style="stroke: #A80036; stroke-width: 1.5;" x1="1135" x2="1651" y1="236.3047" y2="236.3047"/><ellipse cx="1145" cy="247.3047" fill="#84BE84" rx="3" ry="3" style="stroke: #038048; stroke-width: 1.0;"/><text fill="#000000" font-family="sans-serif" font-size="11" lengthAdjust="spacingAndGlyphs" textLength="492" x="1154" y="250.5151">CloudformationSensor(CloudformationSensorConfiguration, FileSystem, PathResolver)</text><ellipse cx="1145" cy="260.1094" fill="#84BE84" rx="3" ry="3" style="stroke: #038048; stroke-width: 1.0;"/><text fill="#000000" font-family="sans-serif" font-size="11" lengthAdjust="spacingAndGlyphs" textLength="188" x="1154" y="263.3198">describe(SensorDescriptor): void</text><ellipse cx="1145" cy="272.9141" fill="#84BE84" rx="3" ry="3" style="stroke: #038048; stroke-width: 1.0;"/><text fill="#000000" font-family="sans-serif" font-size="11" lengthAdjust="spacingAndGlyphs" textLength="167" x="1154" y="276.1245">execute(SensorContext): void</text></a><!--MD5=[0d6d0e5b973745eeb597137a51ee0af0]
class com.hack23.sonar.cloudformation.CloudformationConstants--><a href="CloudformationConstants.html" target="_top" title="CloudformationConstants.html" xlink:actuate="onRequest" xlink:href="CloudformationConstants.html" xlink:show="new" xlink:title="CloudformationConstants.html" xlink:type="simple"><rect fill="#FEFECE" filter="url(#f17auz20c7c47q)" height="60.8047" id="com.hack23.sonar.cloudformation.CloudformationConstants" style="stroke: #A80036; stroke-width: 1.5;" width="212" x="1738" y="349"/><ellipse cx="1762.45" cy="365" fill="#ADD1B2" rx="11" ry="11" style="stroke: #A80036; stroke-width: 1.0;"/><path d="M1765.4188,370.6406 Q1764.8406,370.9375 1764.2,371.0781 Q1763.5594,371.2344 1762.8563,371.2344 Q1760.3563,371.2344 1759.0281,369.5938 Q1757.7156,367.9375 1757.7156,364.8125 Q1757.7156,361.6875 1759.0281,360.0313 Q1760.3563,358.375 1762.8563,358.375 Q1763.5594,358.375 1764.2,358.5313 Q1764.8563,358.6875 1765.4188,358.9844 L1765.4188,361.7031 Q1764.7938,361.125 1764.2,360.8594 Q1763.6063,360.5781 1762.9813,360.5781 Q1761.6375,360.5781 1760.95,361.6563 Q1760.2625,362.7188 1760.2625,364.8125 Q1760.2625,366.9063 1760.95,367.9844 Q1761.6375,369.0469 1762.9813,369.0469 Q1763.6063,369.0469 1764.2,368.7813 Q1764.7938,368.5 1765.4188,367.9219 L1765.4188,370.6406 Z "/><text fill="#000000" font-family="sans-serif" font-size="12" lengthAdjust="spacingAndGlyphs" textLength="159" x="1778.55" y="369.1543">CloudformationConstants</text><line style="stroke: #A80036; stroke-width: 1.5;" x1="1739" x2="1949" y1="381" y2="381"/><ellipse cx="1749" cy="392" fill="none" rx="3" ry="3" style="stroke: #038048; stroke-width: 1.0;"/><text fill="#000000" font-family="sans-serif" font-size="11" lengthAdjust="spacingAndGlyphs" text-decoration="underline" textLength="186" x="1758" y="395.2104">REPORT_FILES_PROPERTY: String</text><line style="stroke: #A80036; stroke-width: 1.5;" x1="1739" x2="1949" y1="401.8047" y2="401.8047"/></a><!--MD5=[357bc6d468bbe4af181e679b5a7d4bc8]
class org.sonar.api.Plugin--><rect fill="#FEFECE" filter="url(#f17auz20c7c47q)" height="60.8047" id="org.sonar.api.Plugin" style="stroke: #A80036; stroke-width: 1.5;" width="145" x="158.5" y="49.5"/><ellipse cx="208.25" cy="65.5" fill="#B4A7E5" rx="11" ry="11" style="stroke: #A80036; stroke-width: 1.0;"/><path d="M204.1719,61.2656 L204.1719,59.1094 L211.5625,59.1094 L211.5625,61.2656 L209.0938,61.2656 L209.0938,69.3438 L211.5625,69.3438 L211.5625,71.5 L204.1719,71.5 L204.1719,69.3438 L206.6406,69.3438 L206.6406,61.2656 L204.1719,61.2656 Z "/><text fill="#000000" font-family="sans-serif" font-size="12" font-style="italic" lengthAdjust="spacingAndGlyphs" textLength="37" x="228.75" y="69.6543">Plugin</text><line style="stroke: #A80036; stroke-width: 1.5;" x1="159.5" x2="302.5" y1="81.5" y2="81.5"/><line style="stroke: #A80036; stroke-width: 1.5;" x1="159.5" x2="302.5" y1="89.5" y2="89.5"/><ellipse cx="169.5" cy="100.5" fill="#84BE84" rx="3" ry="3" style="stroke: #038048; stroke-width: 1.0;"/><text fill="#000000" font-family="sans-serif" font-size="11" font-style="italic" lengthAdjust="spacingAndGlyphs" textLength="119" x="178.5" y="103.7104">define(Context): void</text><polygon fill="#FFFFFF" filter="url(#f17auz20c7c47q)" points="22.5,53.5,109.5,53.5,116.5,75.7969,123.5,75.7969,123.5,106.0938,22.5,106.0938,22.5,53.5" style="stroke: #000000; stroke-width: 1.5;"/><line style="stroke: #000000; stroke-width: 1.5;" x1="22.5" x2="116.5" y1="75.7969" y2="75.7969"/><text fill="#000000" font-family="sans-serif" font-size="14" font-weight="bold" lengthAdjust="spacingAndGlyphs" textLength="81" x="26.5" y="68.4951">resources</text><!--MD5=[bccf4df98d34ca024eaa4f9d7ebedb88]
class org.sonar.api.server.profile.BuiltInQualityProfilesDefinition--><rect fill="#FEFECE" filter="url(#f17auz20c7c47q)" height="60.8047" id="org.sonar.api.server.profile.BuiltInQualityProfilesDefinition" style="stroke: #A80036; stroke-width: 1.5;" width="216" x="345" y="49.5"/><ellipse cx="360" cy="65.5" fill="#B4A7E5" rx="11" ry="11" style="stroke: #A80036; stroke-width: 1.0;"/><path d="M355.9219,61.2656 L355.9219,59.1094 L363.3125,59.1094 L363.3125,61.2656 L360.8438,61.2656 L360.8438,69.3438 L363.3125,69.3438 L363.3125,71.5 L355.9219,71.5 L355.9219,69.3438 L358.3906,69.3438 L358.3906,61.2656 L355.9219,61.2656 Z "/><text fill="#000000" font-family="sans-serif" font-size="12" font-style="italic" lengthAdjust="spacingAndGlyphs" textLength="184" x="374" y="69.6543">BuiltInQualityProfilesDefinition</text><line style="stroke: #A80036; stroke-width: 1.5;" x1="346" x2="560" y1="81.5" y2="81.5"/><line style="stroke: #A80036; stroke-width: 1.5;" x1="346" x2="560" y1="89.5" y2="89.5"/><ellipse cx="356" cy="100.5" fill="#84BE84" rx="3" ry="3" style="stroke: #038048; stroke-width: 1.0;"/><text fill="#000000" font-family="sans-serif" font-size="11" font-style="italic" lengthAdjust="spacingAndGlyphs" textLength="119" x="365" y="103.7104">define(Context): void</text><!--MD5=[0c41336916cc93e234215d73ea118e70]
class org.sonar.api.server.rule.RulesDefinition--><rect fill="#FEFECE" filter="url(#f17auz20c7c47q)" height="60.8047" id="org.sonar.api.server.rule.RulesDefinition" style="stroke: #A80036; stroke-width: 1.5;" width="145" x="916.5" y="49.5"/><ellipse cx="940.95" cy="65.5" fill="#B4A7E5" rx="11" ry="11" style="stroke: #A80036; stroke-width: 1.0;"/><path d="M936.8719,61.2656 L936.8719,59.1094 L944.2625,59.1094 L944.2625,61.2656 L941.7938,61.2656 L941.7938,69.3438 L944.2625,69.3438 L944.2625,71.5 L936.8719,71.5 L936.8719,69.3438 L939.3406,69.3438 L939.3406,61.2656 L936.8719,61.2656 Z "/><text fill="#000000" font-family="sans-serif" font-size="12" font-style="italic" lengthAdjust="spacingAndGlyphs" textLength="92" x="957.05" y="69.6543">RulesDefinition</text><line style="stroke: #A80036; stroke-width: 1.5;" x1="917.5" x2="1060.5" y1="81.5" y2="81.5"/><line style="stroke: #A80036; stroke-width: 1.5;" x1="917.5" x2="1060.5" y1="89.5" y2="89.5"/><ellipse cx="927.5" cy="100.5" fill="#84BE84" rx="3" ry="3" style="stroke: #038048; stroke-width: 1.0;"/><text fill="#000000" font-family="sans-serif" font-size="11" font-style="italic" lengthAdjust="spacingAndGlyphs" textLength="119" x="936.5" y="103.7104">define(Context): void</text><!--MD5=[f8b565af0d68398934f95a4a7e456578]
class org.sonar.api.batch.sensor.Sensor--><rect fill="#FEFECE" filter="url(#f17auz20c7c47q)" height="73.6094" id="org.sonar.api.batch.sensor.Sensor" style="stroke: #A80036; stroke-width: 1.5;" width="211" x="1287.5" y="43"/><ellipse cx="1367.25" cy="59" fill="#B4A7E5" rx="11" ry="11" style="stroke: #A80036; stroke-width: 1.0;"/><path d="M1363.1719,54.7656 L1363.1719,52.6094 L1370.5625,52.6094 L1370.5625,54.7656 L1368.0938,54.7656 L1368.0938,62.8438 L1370.5625,62.8438 L1370.5625,65 L1363.1719,65 L1363.1719,62.8438 L1365.6406,62.8438 L1365.6406,54.7656 L1363.1719,54.7656 Z "/><text fill="#000000" font-family="sans-serif" font-size="12" font-style="italic" lengthAdjust="spacingAndGlyphs" textLength="43" x="1387.75" y="63.1543">Sensor</text><line style="stroke: #A80036; stroke-width: 1.5;" x1="1288.5" x2="1497.5" y1="75" y2="75"/><line style="stroke: #A80036; stroke-width: 1.5;" x1="1288.5" x2="1497.5" y1="83" y2="83"/><ellipse cx="1298.5" cy="94" fill="#84BE84" rx="3" ry="3" style="stroke: #038048; stroke-width: 1.0;"/><text fill="#000000" font-family="sans-serif" font-size="11" font-style="italic" lengthAdjust="spacingAndGlyphs" textLength="185" x="1307.5" y="97.2104">describe(SensorDescriptor): void</text><ellipse cx="1298.5" cy="106.8047" fill="#84BE84" rx="3" ry="3" style="stroke: #038048; stroke-width: 1.0;"/><text fill="#000000" font-family="sans-serif" font-size="11" font-style="italic" lengthAdjust="spacingAndGlyphs" textLength="168" x="1307.5" y="110.0151">execute(SensorContext): void</text><!--MD5=[a0a45c0a895aca957ae22b311196540e]
reverse link org.sonar.api.Plugin to com.hack23.sonar.cloudformation.CloudformationPlugin--><path d="M231,130.6389 C231,154.4011 231,181.9361 231,202.4589 " fill="none" id="org.sonar.api.Plugin&lt;-com.hack23.sonar.cloudformation.CloudformationPlugin" style="stroke: #A80036; stroke-width: 1.0; stroke-dasharray: 7.0,7.0;"/><polygon fill="none" points="224.0001,130.5941,231,110.5941,238.0001,130.5941,224.0001,130.5941" style="stroke: #A80036; stroke-width: 1.0;"/><!--MD5=[63fe7b739a87e21952d62265d328e55c]
reverse link org.sonar.api.server.profile.BuiltInQualityProfilesDefinition to com.hack23.sonar.cloudformation.CloudformationQualityProfile--><path d="M453,130.6318 C453,151.9738 453,176.3603 453,195.9767 " fill="none" id="org.sonar.api.server.profile.BuiltInQualityProfilesDefinition&lt;-com.hack23.sonar.cloudformation.CloudformationQualityProfile" style="stroke: #A80036; stroke-width: 1.0; stroke-dasharray: 7.0,7.0;"/><polygon fill="none" points="446.0001,130.5941,453,110.5941,460.0001,130.5941,446.0001,130.5941" style="stroke: #A80036; stroke-width: 1.0;"/><!--MD5=[2bdc00f05ffbda222481780920a1d1de]
reverse link org.sonar.api.server.rule.RulesDefinition to com.hack23.sonar.cloudformation.CloudformationRulesDefinition--><path d="M989,130.8448 C989,145.5707 989,161.731 989,176.7659 " fill="none" id="org.sonar.api.server.rule.RulesDefinition&lt;-com.hack23.sonar.cloudformation.CloudformationRulesDefinition" style="stroke: #A80036; stroke-width: 1.0; stroke-dasharray: 7.0,7.0;"/><polygon fill="none" points="982.0001,130.5941,989,110.5941,996.0001,130.5941,982.0001,130.5941" style="stroke: #A80036; stroke-width: 1.0;"/><!--MD5=[3685ffe233817ba259f4776860359136]
reverse link org.sonar.api.batch.sensor.Sensor to com.hack23.sonar.cloudformation.CloudformationSensor--><path d="M1393,137.1403 C1393,152.307 1393,168.5604 1393,183.2956 " fill="none" id="org.sonar.api.batch.sensor.Sensor&lt;-com.hack23.sonar.cloudformation.CloudformationSensor" style="stroke: #A80036; stroke-width: 1.0; stroke-dasharray: 7.0,7.0;"/><polygon fill="none" points="1386.0001,137.0371,1393,117.037,1400.0001,137.037,1386.0001,137.0371" style="stroke: #A80036; stroke-width: 1.0;"/><!--MD5=[4267c0e0e1c496da44e4719aff5857d4]
link com.hack23.sonar.cloudformation.CloudformationSensorConfiguration to com.hack23.sonar.cloudformation.CloudformationProperties--><!--MD5=[ccf7d02e476674fce818001880d01f60]
link com.hack23.sonar.cloudformation.CloudformationSensorConfiguration to com.hack23.sonar.cloudformation.CloudformationConstants--><text fill="#888888" font-family="sans-serif" font-size="10" lengthAdjust="spacingAndGlyphs" textLength="186" x="1071" y="445.2822">UMLDoclet 2.0.7, PlantUML 1.2019.12</text><!--MD5=[507567abc6338a7782c25417efad3e38]
@startuml
    namespace com.hack23.sonar.cloudformation {

        class CloudformationPlugin [[CloudformationPlugin.html]] {
            +define(Context): void
        }

        class CloudformationSensorConfiguration [[CloudformationSensorConfiguration.html]] {
            +CloudformationSensorConfiguration(Configuration)
            +getReportFiles(): Optional<String>
        }

        class CloudformationQualityProfile [[CloudformationQualityProfile.html]] {
            {static} +hasRule(String): boolean
            +define(Context): void
        }

        class CloudformationLanguage [[CloudformationLanguage.html]] {
            {static} +NAME: String
            {static} +KEY: String
            +CloudformationLanguage(Configuration)
            +getFileSuffixes(): String[]
        }

        class CloudformationRulesDefinition [[CloudformationRulesDefinition.html]] {
            {static} +KEY: String
            {static} +NAME: String
            {static} +REPO_KEY: String
            {static} +REPO_NAME: String
            +define(Context): void
        }

        class CloudformationProperties [[CloudformationProperties.html]] {
            {static} +FILE_SUFFIXES_KEY: String
            {static} +FILE_SUFFIXES_DEFAULT_VALUE: String
            {static} +getProperties(): List<PropertyDefinition>
        }

        class CloudformationSensor [[CloudformationSensor.html]] {
            {static} +SENSOR_NAME: String
            +CloudformationSensor(CloudformationSensorConfiguration, FileSystem, PathResolver)
            +describe(SensorDescriptor): void
            +execute(SensorContext): void
        }

        class CloudformationConstants [[CloudformationConstants.html]] {
            {static} +REPORT_FILES_PROPERTY: String
        }

        org.sonar.api.Plugin <|.. CloudformationPlugin
        org.sonar.api.server.profile.BuiltInQualityProfilesDefinition <|.. CloudformationQualityProfile
        org.sonar.api.resources.AbstractLanguage <|- - CloudformationLanguage
        org.sonar.api.server.rule.RulesDefinition <|.. CloudformationRulesDefinition
        org.sonar.api.batch.sensor.Sensor <|.. CloudformationSensor
    }

    namespace org.sonar.api {
        interface Plugin {
            {abstract} +define(Context): void
        }
    }

    namespace org.sonar.api.server.profile {
        interface BuiltInQualityProfilesDefinition {
            {abstract} +define(Context): void
        }
    }

    namespace org.sonar.api.resources {
        abstract class AbstractLanguage {
        }
    }

    namespace org.sonar.api.server.rule {
        interface RulesDefinition {
            {abstract} +define(Context): void
        }
    }

    namespace org.sonar.api.batch.sensor {
        interface Sensor {
            {abstract} +describe(SensorDescriptor): void
            {abstract} +execute(SensorContext): void
        }
    }

    center footer UMLDoclet 2.0.7, PlantUML 1.2019.12
@enduml

PlantUML version 1.2019.12(Sun Nov 03 11:24:54 CET 2019)
(APACHE source distribution)
Java Runtime: OpenJDK Runtime Environment
JVM: OpenJDK 64-Bit Server VM
Java Version: 11.0.6+10-post-Ubuntu-1ubuntu119.10.1
Operating System: Linux
Default Encoding: UTF-8
Language: en
Country: US
--></g></svg>