<?xml version="1.0" encoding="UTF-8" standalone="no"?><svg xmlns="http://www.w3.org/2000/svg" xmlns:xlink="http://www.w3.org/1999/xlink" contentScriptType="application/ecmascript" contentStyleType="text/css" height="471px" preserveAspectRatio="none" style="width:2198px;height:471px;" version="1.1" viewBox="0 0 2198 471" width="2198px" zoomAndPan="magnify"><defs><filter height="300%" id="f1efpiepuco17u" width="300%" x="-1" y="-1"><feGaussianBlur result="blurOut" stdDeviation="2.0"/><feColorMatrix in="blurOut" result="blurOut2" type="matrix" values="0 0 0 0 0 0 0 0 0 0 0 0 0 0 0 0 0 0 .4 0"/><feOffset dx="4.0" dy="4.0" in="blurOut2" result="blurOut3"/><feBlend in="SourceGraphic" in2="blurOut3" mode="normal"/></filter></defs><g><!--cluster com.hack23.sonar.cloudformation--><polygon fill="#FFFFFF" filter="url(#f1efpiepuco17u)" points="14,150,289,150,296,172.2969,2176,172.2969,2176,431,14,431,14,150" style="stroke: #000000; stroke-width: 1.5;"/><line style="stroke: #000000; stroke-width: 1.5;" x1="14" x2="296" y1="172.2969" y2="172.2969"/><text fill="#000000" font-family="sans-serif" font-size="14" font-weight="bold" lengthAdjust="spacingAndGlyphs" textLength="269" x="18" y="164.9951">com.hack23.sonar.cloudformation</text><!--cluster org.sonar.api--><polygon fill="#FFFFFF" filter="url(#f1efpiepuco17u)" points="24,22.5,135,22.5,142,44.7969,186,44.7969,186,118.5,24,118.5,24,22.5" style="stroke: #000000; stroke-width: 1.5;"/><line style="stroke: #000000; stroke-width: 1.5;" x1="24" x2="142" y1="44.7969" y2="44.7969"/><text fill="#000000" font-family="sans-serif" font-size="14" font-weight="bold" lengthAdjust="spacingAndGlyphs" textLength="105" x="28" y="37.4951">org.sonar.api</text><!--cluster org.sonar.api.server.profile--><polygon fill="#FFFFFF" filter="url(#f1efpiepuco17u)" points="210,22.5,434,22.5,441,44.7969,444,44.7969,444,118.5,210,118.5,210,22.5" style="stroke: #000000; stroke-width: 1.5;"/><line style="stroke: #000000; stroke-width: 1.5;" x1="210" x2="441" y1="44.7969" y2="44.7969"/><text fill="#000000" font-family="sans-serif" font-size="14" font-weight="bold" lengthAdjust="spacingAndGlyphs" textLength="218" x="214" y="37.4951">org.sonar.api.server.profile</text><!--cluster org.sonar.api.resources--><polygon fill="#FFFFFF" filter="url(#f1efpiepuco17u)" points="489,29,686,29,693,51.2969,696,51.2969,696,112,489,112,489,29" style="stroke: #000000; stroke-width: 1.5;"/><line style="stroke: #000000; stroke-width: 1.5;" x1="489" x2="693" y1="51.2969" y2="51.2969"/><text fill="#000000" font-family="sans-serif" font-size="14" font-weight="bold" lengthAdjust="spacingAndGlyphs" textLength="191" x="493" y="43.9951">org.sonar.api.resources</text><!--cluster org.sonar.api.server.rule--><polygon fill="#FFFFFF" filter="url(#f1efpiepuco17u)" points="756,22.5,960,22.5,967,44.7969,970,44.7969,970,118.5,756,118.5,756,22.5" style="stroke: #000000; stroke-width: 1.5;"/><line style="stroke: #000000; stroke-width: 1.5;" x1="756" x2="967" y1="44.7969" y2="44.7969"/><text fill="#000000" font-family="sans-serif" font-size="14" font-weight="bold" lengthAdjust="spacingAndGlyphs" textLength="198" x="760" y="37.4951">org.sonar.api.server.rule</text><!--cluster org.sonar.api.batch.sensor--><polygon fill="#FFFFFF" filter="url(#f1efpiepuco17u)" points="1152,16,1372,16,1379,38.2969,1382,38.2969,1382,125,1152,125,1152,16" style="stroke: #000000; stroke-width: 1.5;"/><line style="stroke: #000000; stroke-width: 1.5;" x1="1152" x2="1379" y1="38.2969" y2="38.2969"/><text fill="#000000" font-family="sans-serif" font-size="14" font-weight="bold" lengthAdjust="spacingAndGlyphs" textLength="214" x="1156" y="30.9951">org.sonar.api.batch.sensor</text><!--class com.hack23.sonar.cloudformation.CloudformationPlugin--><a href="CloudformationPlugin.html" target="_top" xlink:actuate="onRequest" xlink:show="new" xlink:title="CloudformationPlugin.html" xlink:type="simple"><rect fill="#FEFECE" filter="url(#f1efpiepuco17u)" height="60.8047" id="com.hack23.sonar.cloudformation.CloudformationPlugin" style="stroke: #A80036; stroke-width: 1.5;" width="165" x="22.5" y="209"/><ellipse cx="37.5" cy="225" fill="#ADD1B2" rx="11" ry="11" style="stroke: #A80036; stroke-width: 1.0;"/><path d="M40.4688,230.6406 Q39.8906,230.9375 39.25,231.0781 Q38.6094,231.2344 37.9063,231.2344 Q35.4063,231.2344 34.0781,229.5938 Q32.7656,227.9375 32.7656,224.8125 Q32.7656,221.6875 34.0781,220.0313 Q35.4063,218.375 37.9063,218.375 Q38.6094,218.375 39.25,218.5313 Q39.9063,218.6875 40.4688,218.9844 L40.4688,221.7031 Q39.8438,221.125 39.25,220.8594 Q38.6563,220.5781 38.0313,220.5781 Q36.6875,220.5781 36,221.6563 Q35.3125,222.7188 35.3125,224.8125 Q35.3125,226.9063 36,227.9844 Q36.6875,229.0469 38.0313,229.0469 Q38.6563,229.0469 39.25,228.7813 Q39.8438,228.5 40.4688,227.9219 L40.4688,230.6406 Z "/><text fill="#000000" font-family="sans-serif" font-size="12" lengthAdjust="spacingAndGlyphs" textLength="133" x="51.5" y="229.1543">CloudformationPlugin</text><line style="stroke: #A80036; stroke-width: 1.5;" x1="23.5" x2="186.5" y1="241" y2="241"/><line style="stroke: #A80036; stroke-width: 1.5;" x1="23.5" x2="186.5" y1="249" y2="249"/><ellipse cx="33.5" cy="260.9023" fill="#84BE84" rx="3" ry="3" style="stroke: #038048; stroke-width: 1.0;"/><text fill="#000000" font-family="sans-serif" font-size="11" lengthAdjust="spacingAndGlyphs" textLength="117" x="42.5" y="263.2104">define(Context): void</text></a><!--class com.hack23.sonar.cloudformation.CloudformationSensorConfiguration--><a href="CloudformationSensorConfiguration.html" target="_top" xlink:actuate="onRequest" xlink:show="new" xlink:title="CloudformationSensorConfiguration.html" xlink:type="simple"><rect fill="#FEFECE" filter="url(#f1efpiepuco17u)" height="73.6094" id="com.hack23.sonar.cloudformation.CloudformationSensorConfiguration" style="stroke: #A80036; stroke-width: 1.5;" width="314" x="1561" y="202.5"/><ellipse cx="1602.55" cy="218.5" fill="#ADD1B2" rx="11" ry="11" style="stroke: #A80036; stroke-width: 1.0;"/><path d="M1605.5188,224.1406 Q1604.9406,224.4375 1604.3,224.5781 Q1603.6594,224.7344 1602.9563,224.7344 Q1600.4563,224.7344 1599.1281,223.0938 Q1597.8156,221.4375 1597.8156,218.3125 Q1597.8156,215.1875 1599.1281,213.5313 Q1600.4563,211.875 1602.9563,211.875 Q1603.6594,211.875 1604.3,212.0313 Q1604.9563,212.1875 1605.5188,212.4844 L1605.5188,215.2031 Q1604.8938,214.625 1604.3,214.3594 Q1603.7063,214.0781 1603.0813,214.0781 Q1601.7375,214.0781 1601.05,215.1563 Q1600.3625,216.2188 1600.3625,218.3125 Q1600.3625,220.4063 1601.05,221.4844 Q1601.7375,222.5469 1603.0813,222.5469 Q1603.7063,222.5469 1604.3,222.2813 Q1604.8938,222 1605.5188,221.4219 L1605.5188,224.1406 Z "/><text fill="#000000" font-family="sans-serif" font-size="12" lengthAdjust="spacingAndGlyphs" textLength="223" x="1622.45" y="222.6543">CloudformationSensorConfiguration</text><line style="stroke: #A80036; stroke-width: 1.5;" x1="1562" x2="1874" y1="234.5" y2="234.5"/><line style="stroke: #A80036; stroke-width: 1.5;" x1="1562" x2="1874" y1="242.5" y2="242.5"/><ellipse cx="1572" cy="254.4023" fill="#84BE84" rx="3" ry="3" style="stroke: #038048; stroke-width: 1.0;"/><text fill="#000000" font-family="sans-serif" font-size="11" lengthAdjust="spacingAndGlyphs" textLength="288" x="1581" y="256.7104">CloudformationSensorConfiguration(Configuration)</text><ellipse cx="1572" cy="267.207" fill="#84BE84" rx="3" ry="3" style="stroke: #038048; stroke-width: 1.0;"/><text fill="#000000" font-family="sans-serif" font-size="11" lengthAdjust="spacingAndGlyphs" textLength="196" x="1581" y="269.5151">getReportFiles(): Optional&lt;String&gt;</text></a><!--class com.hack23.sonar.cloudformation.CloudformationQualityProfile--><a href="CloudformationQualityProfile.html" target="_top" xlink:actuate="onRequest" xlink:show="new" xlink:title="CloudformationQualityProfile.html" xlink:type="simple"><rect fill="#FEFECE" filter="url(#f1efpiepuco17u)" height="73.6094" id="com.hack23.sonar.cloudformation.CloudformationQualityProfile" style="stroke: #A80036; stroke-width: 1.5;" width="208" x="223" y="202.5"/><ellipse cx="238" cy="218.5" fill="#ADD1B2" rx="11" ry="11" style="stroke: #A80036; stroke-width: 1.0;"/><path d="M240.9688,224.1406 Q240.3906,224.4375 239.75,224.5781 Q239.1094,224.7344 238.4063,224.7344 Q235.9063,224.7344 234.5781,223.0938 Q233.2656,221.4375 233.2656,218.3125 Q233.2656,215.1875 234.5781,213.5313 Q235.9063,211.875 238.4063,211.875 Q239.1094,211.875 239.75,212.0313 Q240.4063,212.1875 240.9688,212.4844 L240.9688,215.2031 Q240.3438,214.625 239.75,214.3594 Q239.1563,214.0781 238.5313,214.0781 Q237.1875,214.0781 236.5,215.1563 Q235.8125,216.2188 235.8125,218.3125 Q235.8125,220.4063 236.5,221.4844 Q237.1875,222.5469 238.5313,222.5469 Q239.1563,222.5469 239.75,222.2813 Q240.3438,222 240.9688,221.4219 L240.9688,224.1406 Z "/><text fill="#000000" font-family="sans-serif" font-size="12" lengthAdjust="spacingAndGlyphs" textLength="176" x="252" y="222.6543">CloudformationQualityProfile</text><line style="stroke: #A80036; stroke-width: 1.5;" x1="224" x2="430" y1="234.5" y2="234.5"/><line style="stroke: #A80036; stroke-width: 1.5;" x1="224" x2="430" y1="242.5" y2="242.5"/><ellipse cx="234" cy="254.4023" fill="#84BE84" rx="3" ry="3" style="stroke: #038048; stroke-width: 1.0;"/><text fill="#000000" font-family="sans-serif" font-size="11" lengthAdjust="spacingAndGlyphs" text-decoration="underline" textLength="140" x="243" y="256.7104">hasRule(String): boolean</text><ellipse cx="234" cy="267.207" fill="#84BE84" rx="3" ry="3" style="stroke: #038048; stroke-width: 1.0;"/><text fill="#000000" font-family="sans-serif" font-size="11" lengthAdjust="spacingAndGlyphs" textLength="117" x="243" y="269.5151">define(Context): void</text></a><!--class com.hack23.sonar.cloudformation.CloudformationLanguage--><a href="CloudformationLanguage.html" target="_top" xlink:actuate="onRequest" xlink:show="new" xlink:title="CloudformationLanguage.html" xlink:type="simple"><rect fill="#FEFECE" filter="url(#f1efpiepuco17u)" height="99.2188" id="com.hack23.sonar.cloudformation.CloudformationLanguage" style="stroke: #A80036; stroke-width: 1.5;" width="252" x="466" y="190"/><ellipse cx="509.35" cy="206" fill="#ADD1B2" rx="11" ry="11" style="stroke: #A80036; stroke-width: 1.0;"/><path d="M512.3188,211.6406 Q511.7406,211.9375 511.1,212.0781 Q510.4594,212.2344 509.7563,212.2344 Q507.2563,212.2344 505.9281,210.5938 Q504.6156,208.9375 504.6156,205.8125 Q504.6156,202.6875 505.9281,201.0313 Q507.2563,199.375 509.7563,199.375 Q510.4594,199.375 511.1,199.5313 Q511.7563,199.6875 512.3188,199.9844 L512.3188,202.7031 Q511.6938,202.125 511.1,201.8594 Q510.5063,201.5781 509.8813,201.5781 Q508.5375,201.5781 507.85,202.6563 Q507.1625,203.7188 507.1625,205.8125 Q507.1625,207.9063 507.85,208.9844 Q508.5375,210.0469 509.8813,210.0469 Q510.5063,210.0469 511.1,209.7813 Q511.6938,209.5 512.3188,208.9219 L512.3188,211.6406 Z "/><text fill="#000000" font-family="sans-serif" font-size="12" lengthAdjust="spacingAndGlyphs" textLength="157" x="529.65" y="210.1543">CloudformationLanguage</text><line style="stroke: #A80036; stroke-width: 1.5;" x1="467" x2="717" y1="222" y2="222"/><ellipse cx="477" cy="233.9023" fill="none" rx="3" ry="3" style="stroke: #038048; stroke-width: 1.0;"/><text fill="#000000" font-family="sans-serif" font-size="11" lengthAdjust="spacingAndGlyphs" text-decoration="underline" textLength="73" x="486" y="236.2104">NAME: String</text><ellipse cx="477" cy="246.707" fill="none" rx="3" ry="3" style="stroke: #038048; stroke-width: 1.0;"/><text fill="#000000" font-family="sans-serif" font-size="11" lengthAdjust="spacingAndGlyphs" text-decoration="underline" textLength="63" x="486" y="249.0151">KEY: String</text><line style="stroke: #A80036; stroke-width: 1.5;" x1="467" x2="717" y1="255.6094" y2="255.6094"/><ellipse cx="477" cy="267.5117" fill="#84BE84" rx="3" ry="3" style="stroke: #038048; stroke-width: 1.0;"/><text fill="#000000" font-family="sans-serif" font-size="11" lengthAdjust="spacingAndGlyphs" textLength="226" x="486" y="269.8198">CloudformationLanguage(Configuration)</text><ellipse cx="477" cy="280.3164" fill="#84BE84" rx="3" ry="3" style="stroke: #038048; stroke-width: 1.0;"/><text fill="#000000" font-family="sans-serif" font-size="11" lengthAdjust="spacingAndGlyphs" textLength="141" x="486" y="282.6245">getFileSuffixes(): String[]</text></a><!--class com.hack23.sonar.cloudformation.CloudformationRulesDefinition--><a href="CloudformationRulesDefinition.html" target="_top" xlink:actuate="onRequest" xlink:show="new" xlink:title="CloudformationRulesDefinition.html" xlink:type="simple"><rect fill="#FEFECE" filter="url(#f1efpiepuco17u)" height="124.8281" id="com.hack23.sonar.cloudformation.CloudformationRulesDefinition" style="stroke: #A80036; stroke-width: 1.5;" width="220" x="753" y="177"/><ellipse cx="768" cy="193" fill="#ADD1B2" rx="11" ry="11" style="stroke: #A80036; stroke-width: 1.0;"/><path d="M770.9688,198.6406 Q770.3906,198.9375 769.75,199.0781 Q769.1094,199.2344 768.4063,199.2344 Q765.9063,199.2344 764.5781,197.5938 Q763.2656,195.9375 763.2656,192.8125 Q763.2656,189.6875 764.5781,188.0313 Q765.9063,186.375 768.4063,186.375 Q769.1094,186.375 769.75,186.5313 Q770.4063,186.6875 770.9688,186.9844 L770.9688,189.7031 Q770.3438,189.125 769.75,188.8594 Q769.1563,188.5781 768.5313,188.5781 Q767.1875,188.5781 766.5,189.6563 Q765.8125,190.7188 765.8125,192.8125 Q765.8125,194.9063 766.5,195.9844 Q767.1875,197.0469 768.5313,197.0469 Q769.1563,197.0469 769.75,196.7813 Q770.3438,196.5 770.9688,195.9219 L770.9688,198.6406 Z "/><text fill="#000000" font-family="sans-serif" font-size="12" lengthAdjust="spacingAndGlyphs" textLength="188" x="782" y="197.1543">CloudformationRulesDefinition</text><line style="stroke: #A80036; stroke-width: 1.5;" x1="754" x2="972" y1="209" y2="209"/><polygon fill="none" points="764,215.9023,768,219.9023,764,223.9023,760,219.9023" style="stroke: #B38D22; stroke-width: 1.0;"/><text fill="#000000" font-family="sans-serif" font-size="11" lengthAdjust="spacingAndGlyphs" text-decoration="underline" textLength="63" x="773" y="223.2104">KEY: String</text><polygon fill="none" points="764,228.707,768,232.707,764,236.707,760,232.707" style="stroke: #B38D22; stroke-width: 1.0;"/><text fill="#000000" font-family="sans-serif" font-size="11" lengthAdjust="spacingAndGlyphs" text-decoration="underline" textLength="73" x="773" y="236.0151">NAME: String</text><ellipse cx="764" cy="246.5117" fill="none" rx="3" ry="3" style="stroke: #038048; stroke-width: 1.0;"/><text fill="#000000" font-family="sans-serif" font-size="11" lengthAdjust="spacingAndGlyphs" text-decoration="underline" textLength="99" x="773" y="248.8198">REPO_KEY: String</text><polygon fill="none" points="764,254.3164,768,258.3164,764,262.3164,760,258.3164" style="stroke: #B38D22; stroke-width: 1.0;"/><text fill="#000000" font-family="sans-serif" font-size="11" lengthAdjust="spacingAndGlyphs" text-decoration="underline" textLength="109" x="773" y="261.6245">REPO_NAME: String</text><line style="stroke: #A80036; stroke-width: 1.5;" x1="754" x2="972" y1="268.2188" y2="268.2188"/><polygon fill="#FFFF44" points="764,275.1211,768,279.1211,764,283.1211,760,279.1211" style="stroke: #B38D22; stroke-width: 1.0;"/><text fill="#000000" font-family="sans-serif" font-size="11" lengthAdjust="spacingAndGlyphs" textLength="176" x="773" y="282.4292">rulesDefinitionFilePath(): String</text><ellipse cx="764" cy="292.9258" fill="#84BE84" rx="3" ry="3" style="stroke: #038048; stroke-width: 1.0;"/><text fill="#000000" font-family="sans-serif" font-size="11" lengthAdjust="spacingAndGlyphs" textLength="117" x="773" y="295.2339">define(Context): void</text></a><!--class com.hack23.sonar.cloudformation.CloudformationProperties--><a href="CloudformationProperties.html" target="_top" xlink:actuate="onRequest" xlink:show="new" xlink:title="CloudformationProperties.html" xlink:type="simple"><rect fill="#FEFECE" filter="url(#f1efpiepuco17u)" height="86.4141" id="com.hack23.sonar.cloudformation.CloudformationProperties" style="stroke: #A80036; stroke-width: 1.5;" width="258" x="1910" y="196.5"/><ellipse cx="1954.75" cy="212.5" fill="#ADD1B2" rx="11" ry="11" style="stroke: #A80036; stroke-width: 1.0;"/><path d="M1957.7188,218.1406 Q1957.1406,218.4375 1956.5,218.5781 Q1955.8594,218.7344 1955.1563,218.7344 Q1952.6563,218.7344 1951.3281,217.0938 Q1950.0156,215.4375 1950.0156,212.3125 Q1950.0156,209.1875 1951.3281,207.5313 Q1952.6563,205.875 1955.1563,205.875 Q1955.8594,205.875 1956.5,206.0313 Q1957.1563,206.1875 1957.7188,206.4844 L1957.7188,209.2031 Q1957.0938,208.625 1956.5,208.3594 Q1955.9063,208.0781 1955.2813,208.0781 Q1953.9375,208.0781 1953.25,209.1563 Q1952.5625,210.2188 1952.5625,212.3125 Q1952.5625,214.4063 1953.25,215.4844 Q1953.9375,216.5469 1955.2813,216.5469 Q1955.9063,216.5469 1956.5,216.2813 Q1957.0938,216 1957.7188,215.4219 L1957.7188,218.1406 Z "/><text fill="#000000" font-family="sans-serif" font-size="12" lengthAdjust="spacingAndGlyphs" textLength="160" x="1975.25" y="216.6543">CloudformationProperties</text><line style="stroke: #A80036; stroke-width: 1.5;" x1="1911" x2="2167" y1="228.5" y2="228.5"/><ellipse cx="1921" cy="240.4023" fill="none" rx="3" ry="3" style="stroke: #038048; stroke-width: 1.0;"/><text fill="#000000" font-family="sans-serif" font-size="11" lengthAdjust="spacingAndGlyphs" text-decoration="underline" textLength="150" x="1930" y="242.7104">FILE_SUFFIXES_KEY: String</text><ellipse cx="1921" cy="253.207" fill="none" rx="3" ry="3" style="stroke: #038048; stroke-width: 1.0;"/><text fill="#000000" font-family="sans-serif" font-size="11" lengthAdjust="spacingAndGlyphs" text-decoration="underline" textLength="219" x="1930" y="255.5151">FILE_SUFFIXES_DEFAULT_VALUE: String</text><line style="stroke: #A80036; stroke-width: 1.5;" x1="1911" x2="2167" y1="262.1094" y2="262.1094"/><ellipse cx="1921" cy="274.0117" fill="#84BE84" rx="3" ry="3" style="stroke: #038048; stroke-width: 1.0;"/><text fill="#000000" font-family="sans-serif" font-size="11" lengthAdjust="spacingAndGlyphs" text-decoration="underline" textLength="232" x="1930" y="276.3198">getProperties(): List&lt;PropertyDefinition&gt;</text></a><!--class com.hack23.sonar.cloudformation.CloudformationSensor--><a href="CloudformationSensor.html" target="_top" xlink:actuate="onRequest" xlink:show="new" xlink:title="CloudformationSensor.html" xlink:type="simple"><rect fill="#FEFECE" filter="url(#f1efpiepuco17u)" height="99.2188" id="com.hack23.sonar.cloudformation.CloudformationSensor" style="stroke: #A80036; stroke-width: 1.5;" width="518" x="1008" y="190"/><ellipse cx="1193.25" cy="206" fill="#ADD1B2" rx="11" ry="11" style="stroke: #A80036; stroke-width: 1.0;"/><path d="M1196.2188,211.6406 Q1195.6406,211.9375 1195,212.0781 Q1194.3594,212.2344 1193.6563,212.2344 Q1191.1563,212.2344 1189.8281,210.5938 Q1188.5156,208.9375 1188.5156,205.8125 Q1188.5156,202.6875 1189.8281,201.0313 Q1191.1563,199.375 1193.6563,199.375 Q1194.3594,199.375 1195,199.5313 Q1195.6563,199.6875 1196.2188,199.9844 L1196.2188,202.7031 Q1195.5938,202.125 1195,201.8594 Q1194.4063,201.5781 1193.7813,201.5781 Q1192.4375,201.5781 1191.75,202.6563 Q1191.0625,203.7188 1191.0625,205.8125 Q1191.0625,207.9063 1191.75,208.9844 Q1192.4375,210.0469 1193.7813,210.0469 Q1194.4063,210.0469 1195,209.7813 Q1195.5938,209.5 1196.2188,208.9219 L1196.2188,211.6406 Z "/><text fill="#000000" font-family="sans-serif" font-size="12" lengthAdjust="spacingAndGlyphs" textLength="139" x="1213.75" y="210.1543">CloudformationSensor</text><line style="stroke: #A80036; stroke-width: 1.5;" x1="1009" x2="1525" y1="222" y2="222"/><ellipse cx="1019" cy="233.9023" fill="none" rx="3" ry="3" style="stroke: #038048; stroke-width: 1.0;"/><text fill="#000000" font-family="sans-serif" font-size="11" lengthAdjust="spacingAndGlyphs" text-decoration="underline" textLength="126" x="1028" y="236.2104">SENSOR_NAME: String</text><line style="stroke: #A80036; stroke-width: 1.5;" x1="1009" x2="1525" y1="242.8047" y2="242.8047"/><ellipse cx="1019" cy="254.707" fill="#84BE84" rx="3" ry="3" style="stroke: #038048; stroke-width: 1.0;"/><text fill="#000000" font-family="sans-serif" font-size="11" lengthAdjust="spacingAndGlyphs" textLength="492" x="1028" y="257.0151">CloudformationSensor(CloudformationSensorConfiguration, FileSystem, PathResolver)</text><ellipse cx="1019" cy="267.5117" fill="#84BE84" rx="3" ry="3" style="stroke: #038048; stroke-width: 1.0;"/><text fill="#000000" font-family="sans-serif" font-size="11" lengthAdjust="spacingAndGlyphs" textLength="188" x="1028" y="269.8198">describe(SensorDescriptor): void</text><ellipse cx="1019" cy="280.3164" fill="#84BE84" rx="3" ry="3" style="stroke: #038048; stroke-width: 1.0;"/><text fill="#000000" font-family="sans-serif" font-size="11" lengthAdjust="spacingAndGlyphs" textLength="167" x="1028" y="282.6245">execute(SensorContext): void</text></a><!--class com.hack23.sonar.cloudformation.CloudformationConstants--><a href="CloudformationConstants.html" target="_top" xlink:actuate="onRequest" xlink:show="new" xlink:title="CloudformationConstants.html" xlink:type="simple"><rect fill="#FEFECE" filter="url(#f1efpiepuco17u)" height="60.8047" id="com.hack23.sonar.cloudformation.CloudformationConstants" style="stroke: #A80036; stroke-width: 1.5;" width="212" x="1612" y="362"/><ellipse cx="1636.45" cy="378" fill="#ADD1B2" rx="11" ry="11" style="stroke: #A80036; stroke-width: 1.0;"/><path d="M1639.4188,383.6406 Q1638.8406,383.9375 1638.2,384.0781 Q1637.5594,384.2344 1636.8563,384.2344 Q1634.3563,384.2344 1633.0281,382.5938 Q1631.7156,380.9375 1631.7156,377.8125 Q1631.7156,374.6875 1633.0281,373.0313 Q1634.3563,371.375 1636.8563,371.375 Q1637.5594,371.375 1638.2,371.5313 Q1638.8563,371.6875 1639.4188,371.9844 L1639.4188,374.7031 Q1638.7938,374.125 1638.2,373.8594 Q1637.6063,373.5781 1636.9813,373.5781 Q1635.6375,373.5781 1634.95,374.6563 Q1634.2625,375.7188 1634.2625,377.8125 Q1634.2625,379.9063 1634.95,380.9844 Q1635.6375,382.0469 1636.9813,382.0469 Q1637.6063,382.0469 1638.2,381.7813 Q1638.7938,381.5 1639.4188,380.9219 L1639.4188,383.6406 Z "/><text fill="#000000" font-family="sans-serif" font-size="12" lengthAdjust="spacingAndGlyphs" textLength="159" x="1652.55" y="382.1543">CloudformationConstants</text><line style="stroke: #A80036; stroke-width: 1.5;" x1="1613" x2="1823" y1="394" y2="394"/><ellipse cx="1623" cy="405.9023" fill="none" rx="3" ry="3" style="stroke: #038048; stroke-width: 1.0;"/><text fill="#000000" font-family="sans-serif" font-size="11" lengthAdjust="spacingAndGlyphs" text-decoration="underline" textLength="186" x="1632" y="408.2104">REPORT_FILES_PROPERTY: String</text><line style="stroke: #A80036; stroke-width: 1.5;" x1="1613" x2="1823" y1="414.8047" y2="414.8047"/></a><!--class org.sonar.api.Plugin--><rect fill="#FEFECE" filter="url(#f1efpiepuco17u)" height="60.8047" id="org.sonar.api.Plugin" style="stroke: #A80036; stroke-width: 1.5;" width="145" x="32.5" y="49.5"/><ellipse cx="82.25" cy="65.5" fill="#B4A7E5" rx="11" ry="11" style="stroke: #A80036; stroke-width: 1.0;"/><path d="M78.1719,61.2656 L78.1719,59.1094 L85.5625,59.1094 L85.5625,61.2656 L83.0938,61.2656 L83.0938,69.3438 L85.5625,69.3438 L85.5625,71.5 L78.1719,71.5 L78.1719,69.3438 L80.6406,69.3438 L80.6406,61.2656 L78.1719,61.2656 Z "/><text fill="#000000" font-family="sans-serif" font-size="12" font-style="italic" lengthAdjust="spacingAndGlyphs" textLength="37" x="102.75" y="69.6543">Plugin</text><line style="stroke: #A80036; stroke-width: 1.5;" x1="33.5" x2="176.5" y1="81.5" y2="81.5"/><line style="stroke: #A80036; stroke-width: 1.5;" x1="33.5" x2="176.5" y1="89.5" y2="89.5"/><ellipse cx="43.5" cy="101.4023" fill="#84BE84" rx="3" ry="3" style="stroke: #038048; stroke-width: 1.0;"/><text fill="#000000" font-family="sans-serif" font-size="11" font-style="italic" lengthAdjust="spacingAndGlyphs" textLength="119" x="52.5" y="103.7104">define(Context): void</text><!--class org.sonar.api.server.profile.BuiltInQualityProfilesDefinition--><rect fill="#FEFECE" filter="url(#f1efpiepuco17u)" height="60.8047" id="org.sonar.api.server.profile.BuiltInQualityProfilesDefinition" style="stroke: #A80036; stroke-width: 1.5;" width="216" x="219" y="49.5"/><ellipse cx="234" cy="65.5" fill="#B4A7E5" rx="11" ry="11" style="stroke: #A80036; stroke-width: 1.0;"/><path d="M229.9219,61.2656 L229.9219,59.1094 L237.3125,59.1094 L237.3125,61.2656 L234.8438,61.2656 L234.8438,69.3438 L237.3125,69.3438 L237.3125,71.5 L229.9219,71.5 L229.9219,69.3438 L232.3906,69.3438 L232.3906,61.2656 L229.9219,61.2656 Z "/><text fill="#000000" font-family="sans-serif" font-size="12" font-style="italic" lengthAdjust="spacingAndGlyphs" textLength="184" x="248" y="69.6543">BuiltInQualityProfilesDefinition</text><line style="stroke: #A80036; stroke-width: 1.5;" x1="220" x2="434" y1="81.5" y2="81.5"/><line style="stroke: #A80036; stroke-width: 1.5;" x1="220" x2="434" y1="89.5" y2="89.5"/><ellipse cx="230" cy="101.4023" fill="#84BE84" rx="3" ry="3" style="stroke: #038048; stroke-width: 1.0;"/><text fill="#000000" font-family="sans-serif" font-size="11" font-style="italic" lengthAdjust="spacingAndGlyphs" textLength="119" x="239" y="103.7104">define(Context): void</text><!--class org.sonar.api.resources.AbstractLanguage--><rect fill="#FEFECE" filter="url(#f1efpiepuco17u)" height="48" id="org.sonar.api.resources.AbstractLanguage" style="stroke: #A80036; stroke-width: 1.5;" width="147" x="518.5" y="56"/><ellipse cx="533.5" cy="72" fill="#A9DCDF" rx="11" ry="11" style="stroke: #A80036; stroke-width: 1.0;"/><path d="M533.6094,67.3438 L532.4531,72.4219 L534.7813,72.4219 L533.6094,67.3438 Z M532.125,65.1094 L535.1094,65.1094 L538.4688,77.5 L536.0156,77.5 L535.25,74.4375 L531.9688,74.4375 L531.2188,77.5 L528.7813,77.5 L532.125,65.1094 Z "/><text fill="#000000" font-family="sans-serif" font-size="12" font-style="italic" lengthAdjust="spacingAndGlyphs" textLength="115" x="547.5" y="76.1543">AbstractLanguage</text><line style="stroke: #A80036; stroke-width: 1.5;" x1="519.5" x2="664.5" y1="88" y2="88"/><line style="stroke: #A80036; stroke-width: 1.5;" x1="519.5" x2="664.5" y1="96" y2="96"/><!--class org.sonar.api.server.rule.RulesDefinition--><rect fill="#FEFECE" filter="url(#f1efpiepuco17u)" height="60.8047" id="org.sonar.api.server.rule.RulesDefinition" style="stroke: #A80036; stroke-width: 1.5;" width="145" x="790.5" y="49.5"/><ellipse cx="814.95" cy="65.5" fill="#B4A7E5" rx="11" ry="11" style="stroke: #A80036; stroke-width: 1.0;"/><path d="M810.8719,61.2656 L810.8719,59.1094 L818.2625,59.1094 L818.2625,61.2656 L815.7938,61.2656 L815.7938,69.3438 L818.2625,69.3438 L818.2625,71.5 L810.8719,71.5 L810.8719,69.3438 L813.3406,69.3438 L813.3406,61.2656 L810.8719,61.2656 Z "/><text fill="#000000" font-family="sans-serif" font-size="12" font-style="italic" lengthAdjust="spacingAndGlyphs" textLength="92" x="831.05" y="69.6543">RulesDefinition</text><line style="stroke: #A80036; stroke-width: 1.5;" x1="791.5" x2="934.5" y1="81.5" y2="81.5"/><line style="stroke: #A80036; stroke-width: 1.5;" x1="791.5" x2="934.5" y1="89.5" y2="89.5"/><ellipse cx="801.5" cy="101.4023" fill="#84BE84" rx="3" ry="3" style="stroke: #038048; stroke-width: 1.0;"/><text fill="#000000" font-family="sans-serif" font-size="11" font-style="italic" lengthAdjust="spacingAndGlyphs" textLength="119" x="810.5" y="103.7104">define(Context): void</text><!--class org.sonar.api.batch.sensor.Sensor--><rect fill="#FEFECE" filter="url(#f1efpiepuco17u)" height="73.6094" id="org.sonar.api.batch.sensor.Sensor" style="stroke: #A80036; stroke-width: 1.5;" width="211" x="1161.5" y="43"/><ellipse cx="1241.25" cy="59" fill="#B4A7E5" rx="11" ry="11" style="stroke: #A80036; stroke-width: 1.0;"/><path d="M1237.1719,54.7656 L1237.1719,52.6094 L1244.5625,52.6094 L1244.5625,54.7656 L1242.0938,54.7656 L1242.0938,62.8438 L1244.5625,62.8438 L1244.5625,65 L1237.1719,65 L1237.1719,62.8438 L1239.6406,62.8438 L1239.6406,54.7656 L1237.1719,54.7656 Z "/><text fill="#000000" font-family="sans-serif" font-size="12" font-style="italic" lengthAdjust="spacingAndGlyphs" textLength="43" x="1261.75" y="63.1543">Sensor</text><line style="stroke: #A80036; stroke-width: 1.5;" x1="1162.5" x2="1371.5" y1="75" y2="75"/><line style="stroke: #A80036; stroke-width: 1.5;" x1="1162.5" x2="1371.5" y1="83" y2="83"/><ellipse cx="1172.5" cy="94.9023" fill="#84BE84" rx="3" ry="3" style="stroke: #038048; stroke-width: 1.0;"/><text fill="#000000" font-family="sans-serif" font-size="11" font-style="italic" lengthAdjust="spacingAndGlyphs" textLength="185" x="1181.5" y="97.2104">describe(SensorDescriptor): void</text><ellipse cx="1172.5" cy="107.707" fill="#84BE84" rx="3" ry="3" style="stroke: #038048; stroke-width: 1.0;"/><text fill="#000000" font-family="sans-serif" font-size="11" font-style="italic" lengthAdjust="spacingAndGlyphs" textLength="168" x="1181.5" y="110.0151">execute(SensorContext): void</text><!--link org.sonar.api.Plugin to com.hack23.sonar.cloudformation.CloudformationPlugin--><path d="M105,130.9293 C105,156.5683 105,186.7991 105,208.8412 " fill="none" id="org.sonar.api.Plugin-com.hack23.sonar.cloudformation.CloudformationPlugin" style="stroke: #A80036; stroke-width: 1.0; stroke-dasharray: 7.0,7.0;"/><polygon fill="none" points="98.0001,130.7532,105,110.7532,112.0001,130.7532,98.0001,130.7532" style="stroke: #A80036; stroke-width: 1.0;"/><!--link org.sonar.api.server.profile.BuiltInQualityProfilesDefinition to com.hack23.sonar.cloudformation.CloudformationQualityProfile--><path d="M327,130.7667 C327,154.0229 327,181.0852 327,202.3936 " fill="none" id="org.sonar.api.server.profile.BuiltInQualityProfilesDefinition-com.hack23.sonar.cloudformation.CloudformationQualityProfile" style="stroke: #A80036; stroke-width: 1.0; stroke-dasharray: 7.0,7.0;"/><polygon fill="none" points="320.0001,130.7532,327,110.7532,334.0001,130.7532,320.0001,130.7532" style="stroke: #A80036; stroke-width: 1.0;"/><!--link org.sonar.api.resources.AbstractLanguage to com.hack23.sonar.cloudformation.CloudformationLanguage--><path d="M592,124.4579 C592,144.8017 592,168.9836 592,189.9143 " fill="none" id="org.sonar.api.resources.AbstractLanguage-com.hack23.sonar.cloudformation.CloudformationLanguage" style="stroke: #A80036; stroke-width: 1.0;"/><polygon fill="none" points="585.0001,124.2247,592,104.2246,599.0001,124.2246,585.0001,124.2247" style="stroke: #A80036; stroke-width: 1.0;"/><!--link org.sonar.api.server.rule.RulesDefinition to com.hack23.sonar.cloudformation.CloudformationRulesDefinition--><path d="M863,130.8258 C863,145.4477 863,161.5702 863,176.8191 " fill="none" id="org.sonar.api.server.rule.RulesDefinition-com.hack23.sonar.cloudformation.CloudformationRulesDefinition" style="stroke: #A80036; stroke-width: 1.0; stroke-dasharray: 7.0,7.0;"/><polygon fill="none" points="856.0001,130.7532,863,110.7532,870.0001,130.7532,856.0001,130.7532" style="stroke: #A80036; stroke-width: 1.0;"/><!--link org.sonar.api.batch.sensor.Sensor to com.hack23.sonar.cloudformation.CloudformationSensor--><path d="M1267,137.6726 C1267,154.796 1267,173.3936 1267,189.9527 " fill="none" id="org.sonar.api.batch.sensor.Sensor-com.hack23.sonar.cloudformation.CloudformationSensor" style="stroke: #A80036; stroke-width: 1.0; stroke-dasharray: 7.0,7.0;"/><polygon fill="none" points="1260.0001,137.3957,1267,117.3957,1274.0001,137.3956,1260.0001,137.3957" style="stroke: #A80036; stroke-width: 1.0;"/><!--link com.hack23.sonar.cloudformation.CloudformationSensorConfiguration to com.hack23.sonar.cloudformation.CloudformationProperties--><!--link com.hack23.sonar.cloudformation.CloudformationSensorConfiguration to com.hack23.sonar.cloudformation.CloudformationConstants--><text fill="#888888" font-family="sans-serif" font-size="10" lengthAdjust="spacingAndGlyphs" textLength="186" x="1008" y="458.2822">UMLDoclet 2.0.5, PlantUML 1.2019.08</text><!--
@startuml
    namespace com.hack23.sonar.cloudformation {

        class CloudformationPlugin [[CloudformationPlugin.html]] {
            +define(Context): void
        }

        class CloudformationSensorConfiguration [[CloudformationSensorConfiguration.html]] {
            +CloudformationSensorConfiguration(Configuration)
            +getReportFiles(): Optional<String>
        }

        class CloudformationQualityProfile [[CloudformationQualityProfile.html]] {
            {static} +hasRule(String): boolean
            +define(Context): void
        }

        class CloudformationLanguage [[CloudformationLanguage.html]] {
            {static} +NAME: String
            {static} +KEY: String
            +CloudformationLanguage(Configuration)
            +getFileSuffixes(): String[]
        }

        class CloudformationRulesDefinition [[CloudformationRulesDefinition.html]] {
            {static} #KEY: String
            {static} #NAME: String
            {static} +REPO_KEY: String
            {static} #REPO_NAME: String
            #rulesDefinitionFilePath(): String
            +define(Context): void
        }

        class CloudformationProperties [[CloudformationProperties.html]] {
            {static} +FILE_SUFFIXES_KEY: String
            {static} +FILE_SUFFIXES_DEFAULT_VALUE: String
            {static} +getProperties(): List<PropertyDefinition>
        }

        class CloudformationSensor [[CloudformationSensor.html]] {
            {static} +SENSOR_NAME: String
            +CloudformationSensor(CloudformationSensorConfiguration, FileSystem, PathResolver)
            +describe(SensorDescriptor): void
            +execute(SensorContext): void
        }

        class CloudformationConstants [[CloudformationConstants.html]] {
            {static} +REPORT_FILES_PROPERTY: String
        }

        org.sonar.api.Plugin <|.. CloudformationPlugin
        org.sonar.api.server.profile.BuiltInQualityProfilesDefinition <|.. CloudformationQualityProfile
        org.sonar.api.resources.AbstractLanguage <|- - CloudformationLanguage
        org.sonar.api.server.rule.RulesDefinition <|.. CloudformationRulesDefinition
        org.sonar.api.batch.sensor.Sensor <|.. CloudformationSensor
    }

    namespace org.sonar.api {
        interface Plugin {
            {abstract} +define(Context): void
        }
    }

    namespace org.sonar.api.server.profile {
        interface BuiltInQualityProfilesDefinition {
            {abstract} +define(Context): void
        }
    }

    namespace org.sonar.api.resources {
        abstract class AbstractLanguage {
        }
    }

    namespace org.sonar.api.server.rule {
        interface RulesDefinition {
            {abstract} +define(Context): void
        }
    }

    namespace org.sonar.api.batch.sensor {
        interface Sensor {
            {abstract} +describe(SensorDescriptor): void
            {abstract} +execute(SensorContext): void
        }
    }

    center footer UMLDoclet 2.0.5, PlantUML 1.2019.08
@enduml

PlantUML version 1.2019.08(Sat Jul 13 21:25:14 CEST 2019)
(APACHE source distribution)
Java Runtime: OpenJDK Runtime Environment
JVM: OpenJDK 64-Bit Server VM
Java Version: 11.0.4+11-post-Ubuntu-1ubuntu219.04
Operating System: Linux
OS Version: 5.0.0-27-generic
Default Encoding: UTF-8
Language: en
Country: US
--></g></svg>