<?xml version="1.0" encoding="UTF-8" standalone="no"?><svg xmlns="http://www.w3.org/2000/svg" xmlns:xlink="http://www.w3.org/1999/xlink" contentScriptType="application/ecmascript" contentStyleType="text/css" height="454px" preserveAspectRatio="none" style="width:1933px;height:454px;" version="1.1" viewBox="0 0 1933 454" width="1933px" zoomAndPan="magnify"><defs><filter height="300%" id="fgttu832zblwx" width="300%" x="-1" y="-1"><feGaussianBlur result="blurOut" stdDeviation="2.0"/><feColorMatrix in="blurOut" result="blurOut2" type="matrix" values="0 0 0 0 0 0 0 0 0 0 0 0 0 0 0 0 0 0 .4 0"/><feOffset dx="4.0" dy="4.0" in="blurOut2" result="blurOut3"/><feBlend in="SourceGraphic" in2="blurOut3" mode="normal"/></filter></defs><g><!--MD5=[7efd255d87f67ac79da5c4891114ef95]
cluster com.hack23.sonar.cloudformation--><polygon fill="#FFFFFF" filter="url(#fgttu832zblwx)" points="20,155,295,155,302,177.2969,1911,177.2969,1911,426,20,426,20,155" style="stroke: #000000; stroke-width: 1.5;"/><line style="stroke: #000000; stroke-width: 1.5;" x1="20" x2="302" y1="177.2969" y2="177.2969"/><text fill="#000000" font-family="sans-serif" font-size="14" font-weight="bold" lengthAdjust="spacingAndGlyphs" textLength="269" x="24" y="169.9951">com.hack23.sonar.cloudformation</text><!--MD5=[ed82d9bf0a7e82c39fc0b923e4deffa3]
cluster org.sonar.api.server.profile--><polygon fill="#FFFFFF" filter="url(#fgttu832zblwx)" points="16,12.5,240,12.5,247,34.7969,264,34.7969,264,124.5,16,124.5,16,12.5" style="stroke: #000000; stroke-width: 1.5;"/><line style="stroke: #000000; stroke-width: 1.5;" x1="16" x2="247" y1="34.7969" y2="34.7969"/><text fill="#000000" font-family="sans-serif" font-size="14" font-weight="bold" lengthAdjust="spacingAndGlyphs" textLength="218" x="20" y="27.4951">org.sonar.api.server.profile</text><!--MD5=[d3bfeb526ca1008dfb54863d3a7224f6]
cluster org.sonar.api.server.rule--><polygon fill="#FFFFFF" filter="url(#fgttu832zblwx)" points="294,12.5,498,12.5,505,34.7969,508,34.7969,508,124.5,294,124.5,294,12.5" style="stroke: #000000; stroke-width: 1.5;"/><line style="stroke: #000000; stroke-width: 1.5;" x1="294" x2="505" y1="34.7969" y2="34.7969"/><text fill="#000000" font-family="sans-serif" font-size="14" font-weight="bold" lengthAdjust="spacingAndGlyphs" textLength="198" x="298" y="27.4951">org.sonar.api.server.rule</text><!--MD5=[069966ec46c27c575c0e14a62cc3970a]
cluster org.sonar.api.batch.sensor--><polygon fill="#FFFFFF" filter="url(#fgttu832zblwx)" points="671,6,891,6,898,28.2969,915,28.2969,915,131,671,131,671,6" style="stroke: #000000; stroke-width: 1.5;"/><line style="stroke: #000000; stroke-width: 1.5;" x1="671" x2="898" y1="28.2969" y2="28.2969"/><text fill="#000000" font-family="sans-serif" font-size="14" font-weight="bold" lengthAdjust="spacingAndGlyphs" textLength="214" x="675" y="20.9951">org.sonar.api.batch.sensor</text><!--MD5=[6a86e12f8c3573ef90e7334d9e934390]
cluster org.sonar.api--><polygon fill="#FFFFFF" filter="url(#fgttu832zblwx)" points="1081,12.5,1192,12.5,1199,34.7969,1259,34.7969,1259,124.5,1081,124.5,1081,12.5" style="stroke: #000000; stroke-width: 1.5;"/><line style="stroke: #000000; stroke-width: 1.5;" x1="1081" x2="1199" y1="34.7969" y2="34.7969"/><text fill="#000000" font-family="sans-serif" font-size="14" font-weight="bold" lengthAdjust="spacingAndGlyphs" textLength="105" x="1085" y="27.4951">org.sonar.api</text><!--MD5=[fe768997cbfd64bbe9e45e6331c668d3]
class com.hack23.sonar.cloudformation.CloudformationQualityProfile--><a href="CloudformationQualityProfile.html" target="_top" title="CloudformationQualityProfile.html" xlink:actuate="onRequest" xlink:href="CloudformationQualityProfile.html" xlink:show="new" xlink:title="CloudformationQualityProfile.html" xlink:type="simple"><rect codeLine="3" fill="#FEFECE" filter="url(#fgttu832zblwx)" height="99.2188" id="com.hack23.sonar.cloudformation.CloudformationQualityProfile" style="stroke: #A80036; stroke-width: 1.5;" width="208" x="36" y="190"/><ellipse cx="51" cy="206" fill="#ADD1B2" rx="11" ry="11" style="stroke: #A80036; stroke-width: 1.0;"/><path d="M53.9688,211.6406 Q53.3906,211.9375 52.75,212.0781 Q52.1094,212.2344 51.4063,212.2344 Q48.9063,212.2344 47.5781,210.5938 Q46.2656,208.9375 46.2656,205.8125 Q46.2656,202.6875 47.5781,201.0313 Q48.9063,199.375 51.4063,199.375 Q52.1094,199.375 52.75,199.5313 Q53.4063,199.6875 53.9688,199.9844 L53.9688,202.7031 Q53.3438,202.125 52.75,201.8594 Q52.1563,201.5781 51.5313,201.5781 Q50.1875,201.5781 49.5,202.6563 Q48.8125,203.7188 48.8125,205.8125 Q48.8125,207.9063 49.5,208.9844 Q50.1875,210.0469 51.5313,210.0469 Q52.1563,210.0469 52.75,209.7813 Q53.3438,209.5 53.9688,208.9219 L53.9688,211.6406 Z "/><text fill="#000000" font-family="sans-serif" font-size="12" lengthAdjust="spacingAndGlyphs" textLength="176" x="65" y="210.1543">CloudformationQualityProfile</text><line style="stroke: #A80036; stroke-width: 1.5;" x1="37" x2="243" y1="222" y2="222"/><ellipse cx="47" cy="233" fill="none" rx="3" ry="3" style="stroke: #038048; stroke-width: 1.0;"/><text fill="#000000" font-family="sans-serif" font-size="11" lengthAdjust="spacingAndGlyphs" text-decoration="underline" textLength="155" x="56" y="236.2104">UNDEFINED_FAILURE: String</text><ellipse cx="47" cy="245.8047" fill="none" rx="3" ry="3" style="stroke: #038048; stroke-width: 1.0;"/><text fill="#000000" font-family="sans-serif" font-size="11" lengthAdjust="spacingAndGlyphs" text-decoration="underline" textLength="162" x="56" y="249.0151">UNDEFINED_WARNING: String</text><line style="stroke: #A80036; stroke-width: 1.5;" x1="37" x2="243" y1="255.6094" y2="255.6094"/><ellipse cx="47" cy="266.6094" fill="#84BE84" rx="3" ry="3" style="stroke: #038048; stroke-width: 1.0;"/><text fill="#000000" font-family="sans-serif" font-size="11" lengthAdjust="spacingAndGlyphs" text-decoration="underline" textLength="140" x="56" y="269.8198">hasRule(String): boolean</text><ellipse cx="47" cy="279.4141" fill="#84BE84" rx="3" ry="3" style="stroke: #038048; stroke-width: 1.0;"/><text fill="#000000" font-family="sans-serif" font-size="11" lengthAdjust="spacingAndGlyphs" textLength="117" x="56" y="282.6245">define(Context): void</text></a><!--MD5=[9ad602e740eec67d73c5d598917426ba]
class com.hack23.sonar.cloudformation.CloudformationRulesDefinition--><a href="CloudformationRulesDefinition.html" target="_top" title="CloudformationRulesDefinition.html" xlink:actuate="onRequest" xlink:href="CloudformationRulesDefinition.html" xlink:show="new" xlink:title="CloudformationRulesDefinition.html" xlink:type="simple"><rect codeLine="10" fill="#FEFECE" filter="url(#fgttu832zblwx)" height="86.4141" id="com.hack23.sonar.cloudformation.CloudformationRulesDefinition" style="stroke: #A80036; stroke-width: 1.5;" width="220" x="279" y="196.5"/><ellipse cx="294" cy="212.5" fill="#ADD1B2" rx="11" ry="11" style="stroke: #A80036; stroke-width: 1.0;"/><path d="M296.9688,218.1406 Q296.3906,218.4375 295.75,218.5781 Q295.1094,218.7344 294.4063,218.7344 Q291.9063,218.7344 290.5781,217.0938 Q289.2656,215.4375 289.2656,212.3125 Q289.2656,209.1875 290.5781,207.5313 Q291.9063,205.875 294.4063,205.875 Q295.1094,205.875 295.75,206.0313 Q296.4063,206.1875 296.9688,206.4844 L296.9688,209.2031 Q296.3438,208.625 295.75,208.3594 Q295.1563,208.0781 294.5313,208.0781 Q293.1875,208.0781 292.5,209.1563 Q291.8125,210.2188 291.8125,212.3125 Q291.8125,214.4063 292.5,215.4844 Q293.1875,216.5469 294.5313,216.5469 Q295.1563,216.5469 295.75,216.2813 Q296.3438,216 296.9688,215.4219 L296.9688,218.1406 Z "/><text fill="#000000" font-family="sans-serif" font-size="12" lengthAdjust="spacingAndGlyphs" textLength="188" x="308" y="216.6543">CloudformationRulesDefinition</text><line style="stroke: #A80036; stroke-width: 1.5;" x1="280" x2="498" y1="228.5" y2="228.5"/><ellipse cx="290" cy="239.5" fill="none" rx="3" ry="3" style="stroke: #038048; stroke-width: 1.0;"/><text fill="#000000" font-family="sans-serif" font-size="11" lengthAdjust="spacingAndGlyphs" text-decoration="underline" textLength="63" x="299" y="242.7104">KEY: String</text><ellipse cx="290" cy="252.3047" fill="none" rx="3" ry="3" style="stroke: #038048; stroke-width: 1.0;"/><text fill="#000000" font-family="sans-serif" font-size="11" lengthAdjust="spacingAndGlyphs" text-decoration="underline" textLength="73" x="299" y="255.5151">NAME: String</text><line style="stroke: #A80036; stroke-width: 1.5;" x1="280" x2="498" y1="262.1094" y2="262.1094"/><ellipse cx="290" cy="273.1094" fill="#84BE84" rx="3" ry="3" style="stroke: #038048; stroke-width: 1.0;"/><text fill="#000000" font-family="sans-serif" font-size="11" lengthAdjust="spacingAndGlyphs" textLength="117" x="299" y="276.3198">define(Context): void</text></a><!--MD5=[17b8c490b45d6f269308ea962cf0181d]
class com.hack23.sonar.cloudformation.CloudformationProperties--><a href="CloudformationProperties.html" target="_top" title="CloudformationProperties.html" xlink:actuate="onRequest" xlink:href="CloudformationProperties.html" xlink:show="new" xlink:title="CloudformationProperties.html" xlink:type="simple"><rect codeLine="16" fill="#FEFECE" filter="url(#fgttu832zblwx)" height="60.8047" id="com.hack23.sonar.cloudformation.CloudformationProperties" style="stroke: #A80036; stroke-width: 1.5;" width="258" x="1288" y="209"/><ellipse cx="1332.75" cy="225" fill="#ADD1B2" rx="11" ry="11" style="stroke: #A80036; stroke-width: 1.0;"/><path d="M1335.7188,230.6406 Q1335.1406,230.9375 1334.5,231.0781 Q1333.8594,231.2344 1333.1563,231.2344 Q1330.6563,231.2344 1329.3281,229.5938 Q1328.0156,227.9375 1328.0156,224.8125 Q1328.0156,221.6875 1329.3281,220.0313 Q1330.6563,218.375 1333.1563,218.375 Q1333.8594,218.375 1334.5,218.5313 Q1335.1563,218.6875 1335.7188,218.9844 L1335.7188,221.7031 Q1335.0938,221.125 1334.5,220.8594 Q1333.9063,220.5781 1333.2813,220.5781 Q1331.9375,220.5781 1331.25,221.6563 Q1330.5625,222.7188 1330.5625,224.8125 Q1330.5625,226.9063 1331.25,227.9844 Q1331.9375,229.0469 1333.2813,229.0469 Q1333.9063,229.0469 1334.5,228.7813 Q1335.0938,228.5 1335.7188,227.9219 L1335.7188,230.6406 Z "/><text fill="#000000" font-family="sans-serif" font-size="12" lengthAdjust="spacingAndGlyphs" textLength="160" x="1353.25" y="229.1543">CloudformationProperties</text><line style="stroke: #A80036; stroke-width: 1.5;" x1="1289" x2="1545" y1="241" y2="241"/><line style="stroke: #A80036; stroke-width: 1.5;" x1="1289" x2="1545" y1="249" y2="249"/><ellipse cx="1299" cy="260" fill="#84BE84" rx="3" ry="3" style="stroke: #038048; stroke-width: 1.0;"/><text fill="#000000" font-family="sans-serif" font-size="11" lengthAdjust="spacingAndGlyphs" text-decoration="underline" textLength="232" x="1308" y="263.2104">getProperties(): List&lt;PropertyDefinition&gt;</text></a><!--MD5=[5cd76e2d5be102320ba6d55700009822]
class com.hack23.sonar.cloudformation.CloudformationSensor--><a href="CloudformationSensor.html" target="_top" title="CloudformationSensor.html" xlink:actuate="onRequest" xlink:href="CloudformationSensor.html" xlink:show="new" xlink:title="CloudformationSensor.html" xlink:type="simple"><rect codeLine="20" fill="#FEFECE" filter="url(#fgttu832zblwx)" height="99.2188" id="com.hack23.sonar.cloudformation.CloudformationSensor" style="stroke: #A80036; stroke-width: 1.5;" width="518" x="534" y="190"/><ellipse cx="719.25" cy="206" fill="#ADD1B2" rx="11" ry="11" style="stroke: #A80036; stroke-width: 1.0;"/><path d="M722.2188,211.6406 Q721.6406,211.9375 721,212.0781 Q720.3594,212.2344 719.6563,212.2344 Q717.1563,212.2344 715.8281,210.5938 Q714.5156,208.9375 714.5156,205.8125 Q714.5156,202.6875 715.8281,201.0313 Q717.1563,199.375 719.6563,199.375 Q720.3594,199.375 721,199.5313 Q721.6563,199.6875 722.2188,199.9844 L722.2188,202.7031 Q721.5938,202.125 721,201.8594 Q720.4063,201.5781 719.7813,201.5781 Q718.4375,201.5781 717.75,202.6563 Q717.0625,203.7188 717.0625,205.8125 Q717.0625,207.9063 717.75,208.9844 Q718.4375,210.0469 719.7813,210.0469 Q720.4063,210.0469 721,209.7813 Q721.5938,209.5 722.2188,208.9219 L722.2188,211.6406 Z "/><text fill="#000000" font-family="sans-serif" font-size="12" lengthAdjust="spacingAndGlyphs" textLength="139" x="739.75" y="210.1543">CloudformationSensor</text><line style="stroke: #A80036; stroke-width: 1.5;" x1="535" x2="1051" y1="222" y2="222"/><ellipse cx="545" cy="233" fill="none" rx="3" ry="3" style="stroke: #038048; stroke-width: 1.0;"/><text fill="#000000" font-family="sans-serif" font-size="11" lengthAdjust="spacingAndGlyphs" text-decoration="underline" textLength="126" x="554" y="236.2104">SENSOR_NAME: String</text><line style="stroke: #A80036; stroke-width: 1.5;" x1="535" x2="1051" y1="242.8047" y2="242.8047"/><ellipse cx="545" cy="253.8047" fill="#84BE84" rx="3" ry="3" style="stroke: #038048; stroke-width: 1.0;"/><text fill="#000000" font-family="sans-serif" font-size="11" lengthAdjust="spacingAndGlyphs" textLength="492" x="554" y="257.0151">CloudformationSensor(CloudformationSensorConfiguration, FileSystem, PathResolver)</text><ellipse cx="545" cy="266.6094" fill="#84BE84" rx="3" ry="3" style="stroke: #038048; stroke-width: 1.0;"/><text fill="#000000" font-family="sans-serif" font-size="11" lengthAdjust="spacingAndGlyphs" textLength="188" x="554" y="269.8198">describe(SensorDescriptor): void</text><ellipse cx="545" cy="279.4141" fill="#84BE84" rx="3" ry="3" style="stroke: #038048; stroke-width: 1.0;"/><text fill="#000000" font-family="sans-serif" font-size="11" lengthAdjust="spacingAndGlyphs" textLength="167" x="554" y="282.6245">execute(SensorContext): void</text></a><!--MD5=[4e78556fd0fd0f12622aab97e46ad39c]
class com.hack23.sonar.cloudformation.CloudformationPlugin--><a href="CloudformationPlugin.html" target="_top" title="CloudformationPlugin.html" xlink:actuate="onRequest" xlink:href="CloudformationPlugin.html" xlink:show="new" xlink:title="CloudformationPlugin.html" xlink:type="simple"><rect codeLine="27" fill="#FEFECE" filter="url(#fgttu832zblwx)" height="60.8047" id="com.hack23.sonar.cloudformation.CloudformationPlugin" style="stroke: #A80036; stroke-width: 1.5;" width="165" x="1087.5" y="209"/><ellipse cx="1102.5" cy="225" fill="#ADD1B2" rx="11" ry="11" style="stroke: #A80036; stroke-width: 1.0;"/><path d="M1105.4688,230.6406 Q1104.8906,230.9375 1104.25,231.0781 Q1103.6094,231.2344 1102.9063,231.2344 Q1100.4063,231.2344 1099.0781,229.5938 Q1097.7656,227.9375 1097.7656,224.8125 Q1097.7656,221.6875 1099.0781,220.0313 Q1100.4063,218.375 1102.9063,218.375 Q1103.6094,218.375 1104.25,218.5313 Q1104.9063,218.6875 1105.4688,218.9844 L1105.4688,221.7031 Q1104.8438,221.125 1104.25,220.8594 Q1103.6563,220.5781 1103.0313,220.5781 Q1101.6875,220.5781 1101,221.6563 Q1100.3125,222.7188 1100.3125,224.8125 Q1100.3125,226.9063 1101,227.9844 Q1101.6875,229.0469 1103.0313,229.0469 Q1103.6563,229.0469 1104.25,228.7813 Q1104.8438,228.5 1105.4688,227.9219 L1105.4688,230.6406 Z "/><text fill="#000000" font-family="sans-serif" font-size="12" lengthAdjust="spacingAndGlyphs" textLength="133" x="1116.5" y="229.1543">CloudformationPlugin</text><line style="stroke: #A80036; stroke-width: 1.5;" x1="1088.5" x2="1251.5" y1="241" y2="241"/><line style="stroke: #A80036; stroke-width: 1.5;" x1="1088.5" x2="1251.5" y1="249" y2="249"/><ellipse cx="1098.5" cy="260" fill="#84BE84" rx="3" ry="3" style="stroke: #038048; stroke-width: 1.0;"/><text fill="#000000" font-family="sans-serif" font-size="11" lengthAdjust="spacingAndGlyphs" textLength="117" x="1107.5" y="263.2104">define(Context): void</text></a><!--MD5=[c3108af317c2c934cdb7e0b2dc4ec977]
class com.hack23.sonar.cloudformation.CloudformationSensorConfiguration--><a href="CloudformationSensorConfiguration.html" target="_top" title="CloudformationSensorConfiguration.html" xlink:actuate="onRequest" xlink:href="CloudformationSensorConfiguration.html" xlink:show="new" xlink:title="CloudformationSensorConfiguration.html" xlink:type="simple"><rect codeLine="31" fill="#FEFECE" filter="url(#fgttu832zblwx)" height="73.6094" id="com.hack23.sonar.cloudformation.CloudformationSensorConfiguration" style="stroke: #A80036; stroke-width: 1.5;" width="314" x="1581" y="202.5"/><ellipse cx="1622.55" cy="218.5" fill="#ADD1B2" rx="11" ry="11" style="stroke: #A80036; stroke-width: 1.0;"/><path d="M1625.5188,224.1406 Q1624.9406,224.4375 1624.3,224.5781 Q1623.6594,224.7344 1622.9563,224.7344 Q1620.4563,224.7344 1619.1281,223.0938 Q1617.8156,221.4375 1617.8156,218.3125 Q1617.8156,215.1875 1619.1281,213.5313 Q1620.4563,211.875 1622.9563,211.875 Q1623.6594,211.875 1624.3,212.0313 Q1624.9563,212.1875 1625.5188,212.4844 L1625.5188,215.2031 Q1624.8938,214.625 1624.3,214.3594 Q1623.7063,214.0781 1623.0813,214.0781 Q1621.7375,214.0781 1621.05,215.1563 Q1620.3625,216.2188 1620.3625,218.3125 Q1620.3625,220.4063 1621.05,221.4844 Q1621.7375,222.5469 1623.0813,222.5469 Q1623.7063,222.5469 1624.3,222.2813 Q1624.8938,222 1625.5188,221.4219 L1625.5188,224.1406 Z "/><text fill="#000000" font-family="sans-serif" font-size="12" lengthAdjust="spacingAndGlyphs" textLength="223" x="1642.45" y="222.6543">CloudformationSensorConfiguration</text><line style="stroke: #A80036; stroke-width: 1.5;" x1="1582" x2="1894" y1="234.5" y2="234.5"/><line style="stroke: #A80036; stroke-width: 1.5;" x1="1582" x2="1894" y1="242.5" y2="242.5"/><ellipse cx="1592" cy="253.5" fill="#84BE84" rx="3" ry="3" style="stroke: #038048; stroke-width: 1.0;"/><text fill="#000000" font-family="sans-serif" font-size="11" lengthAdjust="spacingAndGlyphs" textLength="288" x="1601" y="256.7104">CloudformationSensorConfiguration(Configuration)</text><ellipse cx="1592" cy="266.3047" fill="#84BE84" rx="3" ry="3" style="stroke: #038048; stroke-width: 1.0;"/><text fill="#000000" font-family="sans-serif" font-size="11" lengthAdjust="spacingAndGlyphs" textLength="196" x="1601" y="269.5151">getReportFiles(): Optional&lt;String&gt;</text></a><!--MD5=[0d6d0e5b973745eeb597137a51ee0af0]
class com.hack23.sonar.cloudformation.CloudformationConstants--><a href="CloudformationConstants.html" target="_top" title="CloudformationConstants.html" xlink:actuate="onRequest" xlink:href="CloudformationConstants.html" xlink:show="new" xlink:title="CloudformationConstants.html" xlink:type="simple"><rect codeLine="36" fill="#FEFECE" filter="url(#fgttu832zblwx)" height="60.8047" id="com.hack23.sonar.cloudformation.CloudformationConstants" style="stroke: #A80036; stroke-width: 1.5;" width="212" x="1311" y="349"/><ellipse cx="1335.45" cy="365" fill="#ADD1B2" rx="11" ry="11" style="stroke: #A80036; stroke-width: 1.0;"/><path d="M1338.4188,370.6406 Q1337.8406,370.9375 1337.2,371.0781 Q1336.5594,371.2344 1335.8563,371.2344 Q1333.3563,371.2344 1332.0281,369.5938 Q1330.7156,367.9375 1330.7156,364.8125 Q1330.7156,361.6875 1332.0281,360.0313 Q1333.3563,358.375 1335.8563,358.375 Q1336.5594,358.375 1337.2,358.5313 Q1337.8563,358.6875 1338.4188,358.9844 L1338.4188,361.7031 Q1337.7938,361.125 1337.2,360.8594 Q1336.6063,360.5781 1335.9813,360.5781 Q1334.6375,360.5781 1333.95,361.6563 Q1333.2625,362.7188 1333.2625,364.8125 Q1333.2625,366.9063 1333.95,367.9844 Q1334.6375,369.0469 1335.9813,369.0469 Q1336.6063,369.0469 1337.2,368.7813 Q1337.7938,368.5 1338.4188,367.9219 L1338.4188,370.6406 Z "/><text fill="#000000" font-family="sans-serif" font-size="12" lengthAdjust="spacingAndGlyphs" textLength="159" x="1351.55" y="369.1543">CloudformationConstants</text><line style="stroke: #A80036; stroke-width: 1.5;" x1="1312" x2="1522" y1="381" y2="381"/><ellipse cx="1322" cy="392" fill="none" rx="3" ry="3" style="stroke: #038048; stroke-width: 1.0;"/><text fill="#000000" font-family="sans-serif" font-size="11" lengthAdjust="spacingAndGlyphs" text-decoration="underline" textLength="186" x="1331" y="395.2104">REPORT_FILES_PROPERTY: String</text><line style="stroke: #A80036; stroke-width: 1.5;" x1="1312" x2="1522" y1="401.8047" y2="401.8047"/></a><!--MD5=[bccf4df98d34ca024eaa4f9d7ebedb88]
class org.sonar.api.server.profile.BuiltInQualityProfilesDefinition--><rect codeLine="47" fill="#FEFECE" filter="url(#fgttu832zblwx)" height="60.8047" id="org.sonar.api.server.profile.BuiltInQualityProfilesDefinition" style="stroke: #A80036; stroke-width: 1.5;" width="216" x="32" y="47.5"/><ellipse cx="47" cy="63.5" fill="#B4A7E5" rx="11" ry="11" style="stroke: #A80036; stroke-width: 1.0;"/><path d="M42.9219,59.2656 L42.9219,57.1094 L50.3125,57.1094 L50.3125,59.2656 L47.8438,59.2656 L47.8438,67.3438 L50.3125,67.3438 L50.3125,69.5 L42.9219,69.5 L42.9219,67.3438 L45.3906,67.3438 L45.3906,59.2656 L42.9219,59.2656 Z "/><text fill="#000000" font-family="sans-serif" font-size="12" font-style="italic" lengthAdjust="spacingAndGlyphs" textLength="184" x="61" y="67.6543">BuiltInQualityProfilesDefinition</text><line style="stroke: #A80036; stroke-width: 1.5;" x1="33" x2="247" y1="79.5" y2="79.5"/><line style="stroke: #A80036; stroke-width: 1.5;" x1="33" x2="247" y1="87.5" y2="87.5"/><ellipse cx="43" cy="98.5" fill="#84BE84" rx="3" ry="3" style="stroke: #038048; stroke-width: 1.0;"/><text fill="#000000" font-family="sans-serif" font-size="11" font-style="italic" lengthAdjust="spacingAndGlyphs" textLength="119" x="52" y="101.7104">define(Context): void</text><!--MD5=[0c41336916cc93e234215d73ea118e70]
class org.sonar.api.server.rule.RulesDefinition--><rect codeLine="53" fill="#FEFECE" filter="url(#fgttu832zblwx)" height="60.8047" id="org.sonar.api.server.rule.RulesDefinition" style="stroke: #A80036; stroke-width: 1.5;" width="145" x="316.5" y="47.5"/><ellipse cx="340.95" cy="63.5" fill="#B4A7E5" rx="11" ry="11" style="stroke: #A80036; stroke-width: 1.0;"/><path d="M336.8719,59.2656 L336.8719,57.1094 L344.2625,57.1094 L344.2625,59.2656 L341.7938,59.2656 L341.7938,67.3438 L344.2625,67.3438 L344.2625,69.5 L336.8719,69.5 L336.8719,67.3438 L339.3406,67.3438 L339.3406,59.2656 L336.8719,59.2656 Z "/><text fill="#000000" font-family="sans-serif" font-size="12" font-style="italic" lengthAdjust="spacingAndGlyphs" textLength="92" x="357.05" y="67.6543">RulesDefinition</text><line style="stroke: #A80036; stroke-width: 1.5;" x1="317.5" x2="460.5" y1="79.5" y2="79.5"/><line style="stroke: #A80036; stroke-width: 1.5;" x1="317.5" x2="460.5" y1="87.5" y2="87.5"/><ellipse cx="327.5" cy="98.5" fill="#84BE84" rx="3" ry="3" style="stroke: #038048; stroke-width: 1.0;"/><text fill="#000000" font-family="sans-serif" font-size="11" font-style="italic" lengthAdjust="spacingAndGlyphs" textLength="119" x="336.5" y="101.7104">define(Context): void</text><!--MD5=[f8b565af0d68398934f95a4a7e456578]
class org.sonar.api.batch.sensor.Sensor--><rect codeLine="59" fill="#FEFECE" filter="url(#fgttu832zblwx)" height="73.6094" id="org.sonar.api.batch.sensor.Sensor" style="stroke: #A80036; stroke-width: 1.5;" width="211" x="687.5" y="41"/><ellipse cx="767.25" cy="57" fill="#B4A7E5" rx="11" ry="11" style="stroke: #A80036; stroke-width: 1.0;"/><path d="M763.1719,52.7656 L763.1719,50.6094 L770.5625,50.6094 L770.5625,52.7656 L768.0938,52.7656 L768.0938,60.8438 L770.5625,60.8438 L770.5625,63 L763.1719,63 L763.1719,60.8438 L765.6406,60.8438 L765.6406,52.7656 L763.1719,52.7656 Z "/><text fill="#000000" font-family="sans-serif" font-size="12" font-style="italic" lengthAdjust="spacingAndGlyphs" textLength="43" x="787.75" y="61.1543">Sensor</text><line style="stroke: #A80036; stroke-width: 1.5;" x1="688.5" x2="897.5" y1="73" y2="73"/><line style="stroke: #A80036; stroke-width: 1.5;" x1="688.5" x2="897.5" y1="81" y2="81"/><ellipse cx="698.5" cy="92" fill="#84BE84" rx="3" ry="3" style="stroke: #038048; stroke-width: 1.0;"/><text fill="#000000" font-family="sans-serif" font-size="11" font-style="italic" lengthAdjust="spacingAndGlyphs" textLength="185" x="707.5" y="95.2104">describe(SensorDescriptor): void</text><ellipse cx="698.5" cy="104.8047" fill="#84BE84" rx="3" ry="3" style="stroke: #038048; stroke-width: 1.0;"/><text fill="#000000" font-family="sans-serif" font-size="11" font-style="italic" lengthAdjust="spacingAndGlyphs" textLength="168" x="707.5" y="108.0151">execute(SensorContext): void</text><!--MD5=[357bc6d468bbe4af181e679b5a7d4bc8]
class org.sonar.api.Plugin--><rect codeLine="66" fill="#FEFECE" filter="url(#fgttu832zblwx)" height="60.8047" id="org.sonar.api.Plugin" style="stroke: #A80036; stroke-width: 1.5;" width="145" x="1097.5" y="47.5"/><ellipse cx="1147.25" cy="63.5" fill="#B4A7E5" rx="11" ry="11" style="stroke: #A80036; stroke-width: 1.0;"/><path d="M1143.1719,59.2656 L1143.1719,57.1094 L1150.5625,57.1094 L1150.5625,59.2656 L1148.0938,59.2656 L1148.0938,67.3438 L1150.5625,67.3438 L1150.5625,69.5 L1143.1719,69.5 L1143.1719,67.3438 L1145.6406,67.3438 L1145.6406,59.2656 L1143.1719,59.2656 Z "/><text fill="#000000" font-family="sans-serif" font-size="12" font-style="italic" lengthAdjust="spacingAndGlyphs" textLength="37" x="1167.75" y="67.6543">Plugin</text><line style="stroke: #A80036; stroke-width: 1.5;" x1="1098.5" x2="1241.5" y1="79.5" y2="79.5"/><line style="stroke: #A80036; stroke-width: 1.5;" x1="1098.5" x2="1241.5" y1="87.5" y2="87.5"/><ellipse cx="1108.5" cy="98.5" fill="#84BE84" rx="3" ry="3" style="stroke: #038048; stroke-width: 1.0;"/><text fill="#000000" font-family="sans-serif" font-size="11" font-style="italic" lengthAdjust="spacingAndGlyphs" textLength="119" x="1117.5" y="101.7104">define(Context): void</text><!--MD5=[63fe7b739a87e21952d62265d328e55c]
reverse link org.sonar.api.server.profile.BuiltInQualityProfilesDefinition to com.hack23.sonar.cloudformation.CloudformationQualityProfile--><path codeLine="40" d="M140,128.77 C140,148.26 140,170.55 140,189.92 " fill="none" id="org.sonar.api.server.profile.BuiltInQualityProfilesDefinition-backto-com.hack23.sonar.cloudformation.CloudformationQualityProfile" style="stroke: #A80036; stroke-width: 1.0; stroke-dasharray: 7.0,7.0;"/><polygon fill="none" points="133,128.63,140,108.63,147,128.63,133,128.63" style="stroke: #A80036; stroke-width: 1.0;"/><!--MD5=[2bdc00f05ffbda222481780920a1d1de]
reverse link org.sonar.api.server.rule.RulesDefinition to com.hack23.sonar.cloudformation.CloudformationRulesDefinition--><path codeLine="41" d="M389,128.87 C389,150.55 389,175.68 389,196.4 " fill="none" id="org.sonar.api.server.rule.RulesDefinition-backto-com.hack23.sonar.cloudformation.CloudformationRulesDefinition" style="stroke: #A80036; stroke-width: 1.0; stroke-dasharray: 7.0,7.0;"/><polygon fill="none" points="382,128.63,389,108.63,396,128.63,382,128.63" style="stroke: #A80036; stroke-width: 1.0;"/><!--MD5=[3685ffe233817ba259f4776860359136]
reverse link org.sonar.api.batch.sensor.Sensor to com.hack23.sonar.cloudformation.CloudformationSensor--><path codeLine="42" d="M793,135.38 C793,153.13 793,172.58 793,189.75 " fill="none" id="org.sonar.api.batch.sensor.Sensor-backto-com.hack23.sonar.cloudformation.CloudformationSensor" style="stroke: #A80036; stroke-width: 1.0; stroke-dasharray: 7.0,7.0;"/><polygon fill="none" points="786,135.19,793,115.19,800,135.19,786,135.19" style="stroke: #A80036; stroke-width: 1.0;"/><!--MD5=[a0a45c0a895aca957ae22b311196540e]
reverse link org.sonar.api.Plugin to com.hack23.sonar.cloudformation.CloudformationPlugin--><path codeLine="43" d="M1170,128.75 C1170,154.99 1170,186.31 1170,208.76 " fill="none" id="org.sonar.api.Plugin-backto-com.hack23.sonar.cloudformation.CloudformationPlugin" style="stroke: #A80036; stroke-width: 1.0; stroke-dasharray: 7.0,7.0;"/><polygon fill="none" points="1163,128.63,1170,108.63,1177,128.63,1163,128.63" style="stroke: #A80036; stroke-width: 1.0;"/><!--MD5=[e15d2e032d824683a905a7c0b3b6a9b6]
link com.hack23.sonar.cloudformation.CloudformationProperties to com.hack23.sonar.cloudformation.CloudformationSensorConfiguration--><!--MD5=[049080b82e1190b6817f061479bd9a78]
link com.hack23.sonar.cloudformation.CloudformationProperties to com.hack23.sonar.cloudformation.CloudformationConstants--><text fill="#888888" font-family="sans-serif" font-size="10" lengthAdjust="spacingAndGlyphs" textLength="192" x="861.5" y="441.2822">UMLDoclet 2.0.12, PlantUML 1.2020.16</text><!--MD5=[3e9a08bbfba61e3defef150267a7af07]
@startuml
    namespace com.hack23.sonar.cloudformation {

        class CloudformationQualityProfile [[CloudformationQualityProfile.html]] {
            {static} +UNDEFINED_FAILURE: String
            {static} +UNDEFINED_WARNING: String
            {static} +hasRule(String): boolean
            +define(Context): void
        }

        class CloudformationRulesDefinition [[CloudformationRulesDefinition.html]] {
            {static} +KEY: String
            {static} +NAME: String
            +define(Context): void
        }

        class CloudformationProperties [[CloudformationProperties.html]] {
            {static} +getProperties(): List<PropertyDefinition>
        }

        class CloudformationSensor [[CloudformationSensor.html]] {
            {static} +SENSOR_NAME: String
            +CloudformationSensor(CloudformationSensorConfiguration, FileSystem, PathResolver)
            +describe(SensorDescriptor): void
            +execute(SensorContext): void
        }

        class CloudformationPlugin [[CloudformationPlugin.html]] {
            +define(Context): void
        }

        class CloudformationSensorConfiguration [[CloudformationSensorConfiguration.html]] {
            +CloudformationSensorConfiguration(Configuration)
            +getReportFiles(): Optional<String>
        }

        class CloudformationConstants [[CloudformationConstants.html]] {
            {static} +REPORT_FILES_PROPERTY: String
        }

        org.sonar.api.server.profile.BuiltInQualityProfilesDefinition <|.. CloudformationQualityProfile
        org.sonar.api.server.rule.RulesDefinition <|.. CloudformationRulesDefinition
        org.sonar.api.batch.sensor.Sensor <|.. CloudformationSensor
        org.sonar.api.Plugin <|.. CloudformationPlugin
    }

    namespace org.sonar.api.server.profile {
        interface BuiltInQualityProfilesDefinition {
            {abstract} +define(Context): void
        }
    }

    namespace org.sonar.api.server.rule {
        interface RulesDefinition {
            {abstract} +define(Context): void
        }
    }

    namespace org.sonar.api.batch.sensor {
        interface Sensor {
            {abstract} +describe(SensorDescriptor): void
            {abstract} +execute(SensorContext): void
        }
    }

    namespace org.sonar.api {
        interface Plugin {
            {abstract} +define(Context): void
        }
    }

    center footer UMLDoclet 2.0.12, PlantUML 1.2020.16
@enduml

PlantUML version 1.2020.16(Sun Aug 23 22:20:43 CEST 2020)
(APACHE source distribution)
Java Runtime: OpenJDK Runtime Environment
JVM: OpenJDK 64-Bit Server VM
Default Encoding: UTF-8
Language: en
Country: US
--></g></svg>