<?xml version="1.0" encoding="UTF-8" standalone="no"?><svg xmlns="http://www.w3.org/2000/svg" xmlns:xlink="http://www.w3.org/1999/xlink" contentStyleType="text/css" height="367px" preserveAspectRatio="none" style="width:2561px;height:367px;background:#FFFFFF;" version="1.1" viewBox="0 0 2561 367" width="2561px" zoomAndPan="magnify"><defs/><g><!--MD5=[7efd255d87f67ac79da5c4891114ef95]
cluster com.hack23.sonar.cloudformation--><g id="cluster_com.hack23.sonar.cloudformation"><path d="M8.5,162 L278.5,162 A3.75,3.75 0 0 1 281,164.5 L288,184.2969 L2551.5,184.2969 A2.5,2.5 0 0 1 2554,186.7969 L2554,339.5 A2.5,2.5 0 0 1 2551.5,342 L8.5,342 A2.5,2.5 0 0 1 6,339.5 L6,164.5 A2.5,2.5 0 0 1 8.5,162 " style="stroke:#000000;stroke-width:1.5;fill:none;"/><line style="stroke:#000000;stroke-width:1.5;fill:none;" x1="6" x2="288" y1="184.2969" y2="184.2969"/><text fill="#000000" font-family="sans-serif" font-size="14" font-weight="bold" lengthAdjust="spacing" textLength="269" x="10" y="176.9951">com.hack23.sonar.cloudformation</text></g><!--MD5=[069966ec46c27c575c0e14a62cc3970a]
cluster org.sonar.api.batch.sensor--><g id="cluster_org.sonar.api.batch.sensor"><path d="M191.5,6 L406.5,6 A3.75,3.75 0 0 1 409,8.5 L416,28.2969 L470.5,28.2969 A2.5,2.5 0 0 1 473,30.7969 L473,135.5 A2.5,2.5 0 0 1 470.5,138 L191.5,138 A2.5,2.5 0 0 1 189,135.5 L189,8.5 A2.5,2.5 0 0 1 191.5,6 " style="stroke:#000000;stroke-width:1.5;fill:none;"/><line style="stroke:#000000;stroke-width:1.5;fill:none;" x1="189" x2="416" y1="28.2969" y2="28.2969"/><text fill="#000000" font-family="sans-serif" font-size="14" font-weight="bold" lengthAdjust="spacing" textLength="214" x="193" y="20.9951">org.sonar.api.batch.sensor</text></g><!--MD5=[ed82d9bf0a7e82c39fc0b923e4deffa3]
cluster org.sonar.api.server.profile--><g id="cluster_org.sonar.api.server.profile"><path d="M1106.5,14.5 L1325.5,14.5 A3.75,3.75 0 0 1 1328,17 L1335,36.7969 L1369.5,36.7969 A2.5,2.5 0 0 1 1372,39.2969 L1372,127 A2.5,2.5 0 0 1 1369.5,129.5 L1106.5,129.5 A2.5,2.5 0 0 1 1104,127 L1104,17 A2.5,2.5 0 0 1 1106.5,14.5 " style="stroke:#000000;stroke-width:1.5;fill:none;"/><line style="stroke:#000000;stroke-width:1.5;fill:none;" x1="1104" x2="1335" y1="36.7969" y2="36.7969"/><text fill="#000000" font-family="sans-serif" font-size="14" font-weight="bold" lengthAdjust="spacing" textLength="218" x="1108" y="29.4951">org.sonar.api.server.profile</text></g><!--MD5=[d3bfeb526ca1008dfb54863d3a7224f6]
cluster org.sonar.api.server.rule--><g id="cluster_org.sonar.api.server.rule"><path d="M1598.5,14.5 L1797.5,14.5 A3.75,3.75 0 0 1 1800,17 L1807,36.7969 L1807.5,36.7969 A2.5,2.5 0 0 1 1810,39.2969 L1810,127 A2.5,2.5 0 0 1 1807.5,129.5 L1598.5,129.5 A2.5,2.5 0 0 1 1596,127 L1596,17 A2.5,2.5 0 0 1 1598.5,14.5 " style="stroke:#000000;stroke-width:1.5;fill:none;"/><line style="stroke:#000000;stroke-width:1.5;fill:none;" x1="1596" x2="1807" y1="36.7969" y2="36.7969"/><text fill="#000000" font-family="sans-serif" font-size="14" font-weight="bold" lengthAdjust="spacing" textLength="198" x="1600" y="29.4951">org.sonar.api.server.rule</text></g><!--MD5=[6a86e12f8c3573ef90e7334d9e934390]
cluster org.sonar.api--><g id="cluster_org.sonar.api"><path d="M2348.5,14.5 L2454.5,14.5 A3.75,3.75 0 0 1 2457,17 L2464,36.7969 L2547.5,36.7969 A2.5,2.5 0 0 1 2550,39.2969 L2550,127 A2.5,2.5 0 0 1 2547.5,129.5 L2348.5,129.5 A2.5,2.5 0 0 1 2346,127 L2346,17 A2.5,2.5 0 0 1 2348.5,14.5 " style="stroke:#000000;stroke-width:1.5;fill:none;"/><line style="stroke:#000000;stroke-width:1.5;fill:none;" x1="2346" x2="2464" y1="36.7969" y2="36.7969"/><text fill="#000000" font-family="sans-serif" font-size="14" font-weight="bold" lengthAdjust="spacing" textLength="105" x="2350" y="29.4951">org.sonar.api</text></g><!--MD5=[5cd76e2d5be102320ba6d55700009822]
class com.hack23.sonar.cloudformation.CloudformationSensor--><a href="CloudformationSensor.html" target="_top" title="CloudformationSensor.html" xlink:actuate="onRequest" xlink:href="CloudformationSensor.html" xlink:show="new" xlink:title="CloudformationSensor.html" xlink:type="simple"><g id="elem_com.hack23.sonar.cloudformation.CloudformationSensor"><rect codeLine="3" fill="#F1F1F1" height="113.1875" id="com.hack23.sonar.cloudformation.CloudformationSensor" rx="2.5" ry="2.5" style="stroke:#181818;stroke-width:0.5;" width="617" x="22.5" y="205"/><ellipse cx="249.75" cy="221" fill="#ADD1B2" rx="11" ry="11" style="stroke:#181818;stroke-width:1.0;"/><path d="M252.7188,226.6406 Q252.1406,226.9375 251.5,227.0781 Q250.8594,227.2344 250.1563,227.2344 Q247.6563,227.2344 246.3281,225.5938 Q245.0156,223.9375 245.0156,220.8125 Q245.0156,217.6875 246.3281,216.0313 Q247.6563,214.375 250.1563,214.375 Q250.8594,214.375 251.5,214.5313 Q252.1563,214.6875 252.7188,214.9844 L252.7188,217.7031 Q252.0938,217.125 251.5,216.8594 Q250.9063,216.5781 250.2813,216.5781 Q248.9375,216.5781 248.25,217.6563 Q247.5625,218.7188 247.5625,220.8125 Q247.5625,222.9063 248.25,223.9844 Q248.9375,225.0469 250.2813,225.0469 Q250.9063,225.0469 251.5,224.7813 Q252.0938,224.5 252.7188,223.9219 L252.7188,226.6406 Z " fill="#000000"/><text fill="#000000" font-family="sans-serif" font-size="14" lengthAdjust="spacing" textLength="154" x="270.25" y="225.8467">CloudformationSensor</text><line style="stroke:#181818;stroke-width:0.5;" x1="23.5" x2="638.5" y1="237" y2="237"/><ellipse cx="33.5" cy="248" fill="none" rx="3" ry="3" style="stroke:#038048;stroke-width:1.0;"/><text fill="#000000" font-family="sans-serif" font-size="14" lengthAdjust="spacing" text-decoration="underline" textLength="154" x="42.5" y="253.9951">SENSOR_NAME: String</text><line style="stroke:#181818;stroke-width:0.5;" x1="23.5" x2="638.5" y1="261.2969" y2="261.2969"/><ellipse cx="33.5" cy="272.2969" fill="#84BE84" rx="3" ry="3" style="stroke:#038048;stroke-width:1.0;"/><text fill="#000000" font-family="sans-serif" font-size="14" lengthAdjust="spacing" textLength="591" x="42.5" y="278.292">CloudformationSensor(CloudformationSensorConfiguration, FileSystem, PathResolver)</text><ellipse cx="33.5" cy="288.5938" fill="#84BE84" rx="3" ry="3" style="stroke:#038048;stroke-width:1.0;"/><text fill="#000000" font-family="sans-serif" font-size="14" lengthAdjust="spacing" textLength="228" x="42.5" y="294.5889">describe(SensorDescriptor): void</text><ellipse cx="33.5" cy="304.8906" fill="#84BE84" rx="3" ry="3" style="stroke:#038048;stroke-width:1.0;"/><text fill="#000000" font-family="sans-serif" font-size="14" lengthAdjust="spacing" textLength="206" x="42.5" y="310.8857">execute(SensorContext): void</text></g></a><!--MD5=[c3108af317c2c934cdb7e0b2dc4ec977]
class com.hack23.sonar.cloudformation.CloudformationSensorConfiguration--><a href="CloudformationSensorConfiguration.html" target="_top" title="CloudformationSensorConfiguration.html" xlink:actuate="onRequest" xlink:href="CloudformationSensorConfiguration.html" xlink:show="new" xlink:title="CloudformationSensorConfiguration.html" xlink:type="simple"><g id="elem_com.hack23.sonar.cloudformation.CloudformationSensorConfiguration"><rect codeLine="10" fill="#F1F1F1" height="96.8906" id="com.hack23.sonar.cloudformation.CloudformationSensorConfiguration" rx="2.5" ry="2.5" style="stroke:#181818;stroke-width:0.5;" width="374" x="1949" y="213"/><ellipse cx="2008.75" cy="229" fill="#ADD1B2" rx="11" ry="11" style="stroke:#181818;stroke-width:1.0;"/><path d="M2011.7188,234.6406 Q2011.1406,234.9375 2010.5,235.0781 Q2009.8594,235.2344 2009.1563,235.2344 Q2006.6563,235.2344 2005.3281,233.5938 Q2004.0156,231.9375 2004.0156,228.8125 Q2004.0156,225.6875 2005.3281,224.0313 Q2006.6563,222.375 2009.1563,222.375 Q2009.8594,222.375 2010.5,222.5313 Q2011.1563,222.6875 2011.7188,222.9844 L2011.7188,225.7031 Q2011.0938,225.125 2010.5,224.8594 Q2009.9063,224.5781 2009.2813,224.5781 Q2007.9375,224.5781 2007.25,225.6563 Q2006.5625,226.7188 2006.5625,228.8125 Q2006.5625,230.9063 2007.25,231.9844 Q2007.9375,233.0469 2009.2813,233.0469 Q2009.9063,233.0469 2010.5,232.7813 Q2011.0938,232.5 2011.7188,231.9219 L2011.7188,234.6406 Z " fill="#000000"/><text fill="#000000" font-family="sans-serif" font-size="14" lengthAdjust="spacing" textLength="246" x="2029.25" y="233.8467">CloudformationSensorConfiguration</text><line style="stroke:#181818;stroke-width:0.5;" x1="1950" x2="2322" y1="245" y2="245"/><line style="stroke:#181818;stroke-width:0.5;" x1="1950" x2="2322" y1="253" y2="253"/><ellipse cx="1960" cy="264" fill="#84BE84" rx="3" ry="3" style="stroke:#038048;stroke-width:1.0;"/><text fill="#000000" font-family="sans-serif" font-size="14" lengthAdjust="spacing" textLength="348" x="1969" y="269.9951">CloudformationSensorConfiguration(Configuration)</text><ellipse cx="1960" cy="280.2969" fill="#84BE84" rx="3" ry="3" style="stroke:#038048;stroke-width:1.0;"/><text fill="#000000" font-family="sans-serif" font-size="14" lengthAdjust="spacing" textLength="291" x="1969" y="286.292">getCfnNagReportFiles(): Optional&lt;String&gt;</text><ellipse cx="1960" cy="296.5938" fill="#84BE84" rx="3" ry="3" style="stroke:#038048;stroke-width:1.0;"/><text fill="#000000" font-family="sans-serif" font-size="14" lengthAdjust="spacing" textLength="301" x="1969" y="302.5889">getCheckovReportFiles(): Optional&lt;String&gt;</text></g></a><!--MD5=[fe768997cbfd64bbe9e45e6331c668d3]
class com.hack23.sonar.cloudformation.CloudformationQualityProfile--><a href="CloudformationQualityProfile.html" target="_top" title="CloudformationQualityProfile.html" xlink:actuate="onRequest" xlink:href="CloudformationQualityProfile.html" xlink:show="new" xlink:title="CloudformationQualityProfile.html" xlink:type="simple"><g id="elem_com.hack23.sonar.cloudformation.CloudformationQualityProfile"><rect codeLine="16" fill="#F1F1F1" height="80.5938" id="com.hack23.sonar.cloudformation.CloudformationQualityProfile" rx="2.5" ry="2.5" style="stroke:#181818;stroke-width:0.5;" width="438" x="1019" y="221"/><ellipse cx="1137.25" cy="237" fill="#ADD1B2" rx="11" ry="11" style="stroke:#181818;stroke-width:1.0;"/><path d="M1140.2188,242.6406 Q1139.6406,242.9375 1139,243.0781 Q1138.3594,243.2344 1137.6563,243.2344 Q1135.1563,243.2344 1133.8281,241.5938 Q1132.5156,239.9375 1132.5156,236.8125 Q1132.5156,233.6875 1133.8281,232.0313 Q1135.1563,230.375 1137.6563,230.375 Q1138.3594,230.375 1139,230.5313 Q1139.6563,230.6875 1140.2188,230.9844 L1140.2188,233.7031 Q1139.5938,233.125 1139,232.8594 Q1138.4063,232.5781 1137.7813,232.5781 Q1136.4375,232.5781 1135.75,233.6563 Q1135.0625,234.7188 1135.0625,236.8125 Q1135.0625,238.9063 1135.75,239.9844 Q1136.4375,241.0469 1137.7813,241.0469 Q1138.4063,241.0469 1139,240.7813 Q1139.5938,240.5 1140.2188,239.9219 L1140.2188,242.6406 Z " fill="#000000"/><text fill="#000000" font-family="sans-serif" font-size="14" lengthAdjust="spacing" textLength="193" x="1157.75" y="241.8467">CloudformationQualityProfile</text><line style="stroke:#181818;stroke-width:0.5;" x1="1020" x2="1456" y1="253" y2="253"/><line style="stroke:#181818;stroke-width:0.5;" x1="1020" x2="1456" y1="261" y2="261"/><ellipse cx="1030" cy="272" fill="#84BE84" rx="3" ry="3" style="stroke:#038048;stroke-width:1.0;"/><text fill="#000000" font-family="sans-serif" font-size="14" lengthAdjust="spacing" textLength="412" x="1039" y="277.9951">CloudformationQualityProfile(CloudformationRulesDefinition)</text><ellipse cx="1030" cy="288.2969" fill="#84BE84" rx="3" ry="3" style="stroke:#038048;stroke-width:1.0;"/><text fill="#000000" font-family="sans-serif" font-size="14" lengthAdjust="spacing" textLength="144" x="1039" y="294.292">define(Context): void</text></g></a><!--MD5=[9ad602e740eec67d73c5d598917426ba]
class com.hack23.sonar.cloudformation.CloudformationRulesDefinition--><a href="CloudformationRulesDefinition.html" target="_top" title="CloudformationRulesDefinition.html" xlink:actuate="onRequest" xlink:href="CloudformationRulesDefinition.html" xlink:show="new" xlink:title="CloudformationRulesDefinition.html" xlink:type="simple"><g id="elem_com.hack23.sonar.cloudformation.CloudformationRulesDefinition"><rect codeLine="21" fill="#F1F1F1" height="129.4844" id="com.hack23.sonar.cloudformation.CloudformationRulesDefinition" rx="2.5" ry="2.5" style="stroke:#181818;stroke-width:0.5;" width="421" x="1492.5" y="197"/><ellipse cx="1594.25" cy="213" fill="#ADD1B2" rx="11" ry="11" style="stroke:#181818;stroke-width:1.0;"/><path d="M1597.2188,218.6406 Q1596.6406,218.9375 1596,219.0781 Q1595.3594,219.2344 1594.6563,219.2344 Q1592.1563,219.2344 1590.8281,217.5938 Q1589.5156,215.9375 1589.5156,212.8125 Q1589.5156,209.6875 1590.8281,208.0313 Q1592.1563,206.375 1594.6563,206.375 Q1595.3594,206.375 1596,206.5313 Q1596.6563,206.6875 1597.2188,206.9844 L1597.2188,209.7031 Q1596.5938,209.125 1596,208.8594 Q1595.4063,208.5781 1594.7813,208.5781 Q1593.4375,208.5781 1592.75,209.6563 Q1592.0625,210.7188 1592.0625,212.8125 Q1592.0625,214.9063 1592.75,215.9844 Q1593.4375,217.0469 1594.7813,217.0469 Q1595.4063,217.0469 1596,216.7813 Q1596.5938,216.5 1597.2188,215.9219 L1597.2188,218.6406 Z " fill="#000000"/><text fill="#000000" font-family="sans-serif" font-size="14" lengthAdjust="spacing" textLength="209" x="1614.75" y="217.8467">CloudformationRulesDefinition</text><line style="stroke:#181818;stroke-width:0.5;" x1="1493.5" x2="1912.5" y1="229" y2="229"/><ellipse cx="1503.5" cy="240" fill="none" rx="3" ry="3" style="stroke:#038048;stroke-width:1.0;"/><text fill="#000000" font-family="sans-serif" font-size="14" lengthAdjust="spacing" text-decoration="underline" textLength="76" x="1512.5" y="245.9951">KEY: String</text><ellipse cx="1503.5" cy="256.2969" fill="none" rx="3" ry="3" style="stroke:#038048;stroke-width:1.0;"/><text fill="#000000" font-family="sans-serif" font-size="14" lengthAdjust="spacing" text-decoration="underline" textLength="89" x="1512.5" y="262.292">NAME: String</text><line style="stroke:#181818;stroke-width:0.5;" x1="1493.5" x2="1912.5" y1="269.5938" y2="269.5938"/><ellipse cx="1503.5" cy="280.5938" fill="#84BE84" rx="3" ry="3" style="stroke:#038048;stroke-width:1.0;"/><text fill="#000000" font-family="sans-serif" font-size="14" lengthAdjust="spacing" textLength="395" x="1512.5" y="286.5889">CloudformationRulesDefinition(RulesDefinitionXmlLoader)</text><ellipse cx="1503.5" cy="296.8906" fill="#84BE84" rx="3" ry="3" style="stroke:#038048;stroke-width:1.0;"/><text fill="#000000" font-family="sans-serif" font-size="14" lengthAdjust="spacing" textLength="150" x="1512.5" y="302.8857">getContext(): Context</text><ellipse cx="1503.5" cy="313.1875" fill="#84BE84" rx="3" ry="3" style="stroke:#038048;stroke-width:1.0;"/><text fill="#000000" font-family="sans-serif" font-size="14" lengthAdjust="spacing" textLength="144" x="1512.5" y="319.1826">define(Context): void</text></g></a><!--MD5=[17b8c490b45d6f269308ea962cf0181d]
class com.hack23.sonar.cloudformation.CloudformationProperties--><a href="CloudformationProperties.html" target="_top" title="CloudformationProperties.html" xlink:actuate="onRequest" xlink:href="CloudformationProperties.html" xlink:show="new" xlink:title="CloudformationProperties.html" xlink:type="simple"><g id="elem_com.hack23.sonar.cloudformation.CloudformationProperties"><rect codeLine="29" fill="#F1F1F1" height="64.2969" id="com.hack23.sonar.cloudformation.CloudformationProperties" rx="2.5" ry="2.5" style="stroke:#181818;stroke-width:0.5;" width="309" x="674.5" y="229.5"/><ellipse cx="736.75" cy="245.5" fill="#ADD1B2" rx="11" ry="11" style="stroke:#181818;stroke-width:1.0;"/><path d="M739.7188,251.1406 Q739.1406,251.4375 738.5,251.5781 Q737.8594,251.7344 737.1563,251.7344 Q734.6563,251.7344 733.3281,250.0938 Q732.0156,248.4375 732.0156,245.3125 Q732.0156,242.1875 733.3281,240.5313 Q734.6563,238.875 737.1563,238.875 Q737.8594,238.875 738.5,239.0313 Q739.1563,239.1875 739.7188,239.4844 L739.7188,242.2031 Q739.0938,241.625 738.5,241.3594 Q737.9063,241.0781 737.2813,241.0781 Q735.9375,241.0781 735.25,242.1563 Q734.5625,243.2188 734.5625,245.3125 Q734.5625,247.4063 735.25,248.4844 Q735.9375,249.5469 737.2813,249.5469 Q737.9063,249.5469 738.5,249.2813 Q739.0938,249 739.7188,248.4219 L739.7188,251.1406 Z " fill="#000000"/><text fill="#000000" font-family="sans-serif" font-size="14" lengthAdjust="spacing" textLength="176" x="757.25" y="250.3467">CloudformationProperties</text><line style="stroke:#181818;stroke-width:0.5;" x1="675.5" x2="982.5" y1="261.5" y2="261.5"/><line style="stroke:#181818;stroke-width:0.5;" x1="675.5" x2="982.5" y1="269.5" y2="269.5"/><ellipse cx="685.5" cy="280.5" fill="#84BE84" rx="3" ry="3" style="stroke:#038048;stroke-width:1.0;"/><text fill="#000000" font-family="sans-serif" font-size="14" lengthAdjust="spacing" text-decoration="underline" textLength="283" x="694.5" y="286.4951">getProperties(): List&lt;PropertyDefinition&gt;</text></g></a><!--MD5=[4e78556fd0fd0f12622aab97e46ad39c]
class com.hack23.sonar.cloudformation.CloudformationPlugin--><a href="CloudformationPlugin.html" target="_top" title="CloudformationPlugin.html" xlink:actuate="onRequest" xlink:href="CloudformationPlugin.html" xlink:show="new" xlink:title="CloudformationPlugin.html" xlink:type="simple"><g id="elem_com.hack23.sonar.cloudformation.CloudformationPlugin"><rect codeLine="33" fill="#F1F1F1" height="64.2969" id="com.hack23.sonar.cloudformation.CloudformationPlugin" rx="2.5" ry="2.5" style="stroke:#181818;stroke-width:0.5;" width="179" x="2358.5" y="229.5"/><ellipse cx="2373.5" cy="245.5" fill="#ADD1B2" rx="11" ry="11" style="stroke:#181818;stroke-width:1.0;"/><path d="M2376.4688,251.1406 Q2375.8906,251.4375 2375.25,251.5781 Q2374.6094,251.7344 2373.9063,251.7344 Q2371.4063,251.7344 2370.0781,250.0938 Q2368.7656,248.4375 2368.7656,245.3125 Q2368.7656,242.1875 2370.0781,240.5313 Q2371.4063,238.875 2373.9063,238.875 Q2374.6094,238.875 2375.25,239.0313 Q2375.9063,239.1875 2376.4688,239.4844 L2376.4688,242.2031 Q2375.8438,241.625 2375.25,241.3594 Q2374.6563,241.0781 2374.0313,241.0781 Q2372.6875,241.0781 2372,242.1563 Q2371.3125,243.2188 2371.3125,245.3125 Q2371.3125,247.4063 2372,248.4844 Q2372.6875,249.5469 2374.0313,249.5469 Q2374.6563,249.5469 2375.25,249.2813 Q2375.8438,249 2376.4688,248.4219 L2376.4688,251.1406 Z " fill="#000000"/><text fill="#000000" font-family="sans-serif" font-size="14" lengthAdjust="spacing" textLength="147" x="2387.5" y="250.3467">CloudformationPlugin</text><line style="stroke:#181818;stroke-width:0.5;" x1="2359.5" x2="2536.5" y1="261.5" y2="261.5"/><line style="stroke:#181818;stroke-width:0.5;" x1="2359.5" x2="2536.5" y1="269.5" y2="269.5"/><ellipse cx="2369.5" cy="280.5" fill="#84BE84" rx="3" ry="3" style="stroke:#038048;stroke-width:1.0;"/><text fill="#000000" font-family="sans-serif" font-size="14" lengthAdjust="spacing" textLength="144" x="2378.5" y="286.4951">define(Context): void</text></g></a><!--MD5=[f8b565af0d68398934f95a4a7e456578]
class org.sonar.api.batch.sensor.Sensor--><g id="elem_org.sonar.api.batch.sensor.Sensor"><rect codeLine="44" fill="#F1F1F1" height="80.5938" id="org.sonar.api.batch.sensor.Sensor" rx="2.5" ry="2.5" style="stroke:#181818;stroke-width:0.5;" width="252" x="205" y="41"/><ellipse cx="302.75" cy="57" fill="#B4A7E5" rx="11" ry="11" style="stroke:#181818;stroke-width:1.0;"/><path d="M298.6719,52.7656 L298.6719,50.6094 L306.0625,50.6094 L306.0625,52.7656 L303.5938,52.7656 L303.5938,60.8438 L306.0625,60.8438 L306.0625,63 L298.6719,63 L298.6719,60.8438 L301.1406,60.8438 L301.1406,52.7656 L298.6719,52.7656 Z " fill="#000000"/><text fill="#000000" font-family="sans-serif" font-size="14" font-style="italic" lengthAdjust="spacing" textLength="48" x="323.25" y="61.8467">Sensor</text><line style="stroke:#181818;stroke-width:0.5;" x1="206" x2="456" y1="73" y2="73"/><line style="stroke:#181818;stroke-width:0.5;" x1="206" x2="456" y1="81" y2="81"/><ellipse cx="216" cy="92" fill="#84BE84" rx="3" ry="3" style="stroke:#038048;stroke-width:1.0;"/><text fill="#000000" font-family="sans-serif" font-size="14" font-style="italic" lengthAdjust="spacing" textLength="226" x="225" y="97.9951">describe(SensorDescriptor): void</text><ellipse cx="216" cy="108.2969" fill="#84BE84" rx="3" ry="3" style="stroke:#038048;stroke-width:1.0;"/><text fill="#000000" font-family="sans-serif" font-size="14" font-style="italic" lengthAdjust="spacing" textLength="208" x="225" y="114.292">execute(SensorContext): void</text></g><!--MD5=[bccf4df98d34ca024eaa4f9d7ebedb88]
class org.sonar.api.server.profile.BuiltInQualityProfilesDefinition--><g id="elem_org.sonar.api.server.profile.BuiltInQualityProfilesDefinition"><rect codeLine="51" fill="#F1F1F1" height="64.2969" id="org.sonar.api.server.profile.BuiltInQualityProfilesDefinition" rx="2.5" ry="2.5" style="stroke:#181818;stroke-width:0.5;" width="235" x="1120.5" y="49.5"/><ellipse cx="1135.5" cy="65.5" fill="#B4A7E5" rx="11" ry="11" style="stroke:#181818;stroke-width:1.0;"/><path d="M1131.4219,61.2656 L1131.4219,59.1094 L1138.8125,59.1094 L1138.8125,61.2656 L1136.3438,61.2656 L1136.3438,69.3438 L1138.8125,69.3438 L1138.8125,71.5 L1131.4219,71.5 L1131.4219,69.3438 L1133.8906,69.3438 L1133.8906,61.2656 L1131.4219,61.2656 Z " fill="#000000"/><text fill="#000000" font-family="sans-serif" font-size="14" font-style="italic" lengthAdjust="spacing" textLength="203" x="1149.5" y="70.3467">BuiltInQualityProfilesDefinition</text><line style="stroke:#181818;stroke-width:0.5;" x1="1121.5" x2="1354.5" y1="81.5" y2="81.5"/><line style="stroke:#181818;stroke-width:0.5;" x1="1121.5" x2="1354.5" y1="89.5" y2="89.5"/><ellipse cx="1131.5" cy="100.5" fill="#84BE84" rx="3" ry="3" style="stroke:#038048;stroke-width:1.0;"/><text fill="#000000" font-family="sans-serif" font-size="14" font-style="italic" lengthAdjust="spacing" textLength="146" x="1140.5" y="106.4951">define(Context): void</text></g><!--MD5=[0c41336916cc93e234215d73ea118e70]
class org.sonar.api.server.rule.RulesDefinition--><g id="elem_org.sonar.api.server.rule.RulesDefinition"><rect codeLine="57" fill="#F1F1F1" height="64.2969" id="org.sonar.api.server.rule.RulesDefinition" rx="2.5" ry="2.5" style="stroke:#181818;stroke-width:0.5;" width="172" x="1617" y="49.5"/><ellipse cx="1648.65" cy="65.5" fill="#B4A7E5" rx="11" ry="11" style="stroke:#181818;stroke-width:1.0;"/><path d="M1644.5719,61.2656 L1644.5719,59.1094 L1651.9625,59.1094 L1651.9625,61.2656 L1649.4938,61.2656 L1649.4938,69.3438 L1651.9625,69.3438 L1651.9625,71.5 L1644.5719,71.5 L1644.5719,69.3438 L1647.0406,69.3438 L1647.0406,61.2656 L1644.5719,61.2656 Z " fill="#000000"/><text fill="#000000" font-family="sans-serif" font-size="14" font-style="italic" lengthAdjust="spacing" textLength="103" x="1666.35" y="70.3467">RulesDefinition</text><line style="stroke:#181818;stroke-width:0.5;" x1="1618" x2="1788" y1="81.5" y2="81.5"/><line style="stroke:#181818;stroke-width:0.5;" x1="1618" x2="1788" y1="89.5" y2="89.5"/><ellipse cx="1628" cy="100.5" fill="#84BE84" rx="3" ry="3" style="stroke:#038048;stroke-width:1.0;"/><text fill="#000000" font-family="sans-serif" font-size="14" font-style="italic" lengthAdjust="spacing" textLength="146" x="1637" y="106.4951">define(Context): void</text></g><!--MD5=[357bc6d468bbe4af181e679b5a7d4bc8]
class org.sonar.api.Plugin--><g id="elem_org.sonar.api.Plugin"><rect codeLine="63" fill="#F1F1F1" height="64.2969" id="org.sonar.api.Plugin" rx="2.5" ry="2.5" style="stroke:#181818;stroke-width:0.5;" width="172" x="2362" y="49.5"/><ellipse cx="2423.25" cy="65.5" fill="#B4A7E5" rx="11" ry="11" style="stroke:#181818;stroke-width:1.0;"/><path d="M2419.1719,61.2656 L2419.1719,59.1094 L2426.5625,59.1094 L2426.5625,61.2656 L2424.0938,61.2656 L2424.0938,69.3438 L2426.5625,69.3438 L2426.5625,71.5 L2419.1719,71.5 L2419.1719,69.3438 L2421.6406,69.3438 L2421.6406,61.2656 L2419.1719,61.2656 Z " fill="#000000"/><text fill="#000000" font-family="sans-serif" font-size="14" font-style="italic" lengthAdjust="spacing" textLength="41" x="2443.75" y="70.3467">Plugin</text><line style="stroke:#181818;stroke-width:0.5;" x1="2363" x2="2533" y1="81.5" y2="81.5"/><line style="stroke:#181818;stroke-width:0.5;" x1="2363" x2="2533" y1="89.5" y2="89.5"/><ellipse cx="2373" cy="100.5" fill="#84BE84" rx="3" ry="3" style="stroke:#038048;stroke-width:1.0;"/><text fill="#000000" font-family="sans-serif" font-size="14" font-style="italic" lengthAdjust="spacing" textLength="146" x="2382" y="106.4951">define(Context): void</text></g><!--MD5=[3685ffe233817ba259f4776860359136]
reverse link org.sonar.api.batch.sensor.Sensor to com.hack23.sonar.cloudformation.CloudformationSensor--><g id="link_org.sonar.api.batch.sensor.Sensor_com.hack23.sonar.cloudformation.CloudformationSensor"><path codeLine="37" d="M331,142.1 C331,162.38 331,184.95 331,204.9 " fill="none" id="org.sonar.api.batch.sensor.Sensor-backto-com.hack23.sonar.cloudformation.CloudformationSensor" style="stroke:#181818;stroke-width:1.0;stroke-dasharray:7.0,7.0;"/><polygon fill="none" points="324,142,331,122,338,142,324,142" style="stroke:#181818;stroke-width:1.0;"/></g><!--MD5=[63fe7b739a87e21952d62265d328e55c]
reverse link org.sonar.api.server.profile.BuiltInQualityProfilesDefinition to com.hack23.sonar.cloudformation.CloudformationQualityProfile--><g id="link_org.sonar.api.server.profile.BuiltInQualityProfilesDefinition_com.hack23.sonar.cloudformation.CloudformationQualityProfile"><path codeLine="38" d="M1238,133.73 C1238,161.43 1238,195.12 1238,220.81 " fill="none" id="org.sonar.api.server.profile.BuiltInQualityProfilesDefinition-backto-com.hack23.sonar.cloudformation.CloudformationQualityProfile" style="stroke:#181818;stroke-width:1.0;stroke-dasharray:7.0,7.0;"/><polygon fill="none" points="1231,133.51,1238,113.51,1245,133.51,1231,133.51" style="stroke:#181818;stroke-width:1.0;"/></g><!--MD5=[2bdc00f05ffbda222481780920a1d1de]
reverse link org.sonar.api.server.rule.RulesDefinition to com.hack23.sonar.cloudformation.CloudformationRulesDefinition--><g id="link_org.sonar.api.server.rule.RulesDefinition_com.hack23.sonar.cloudformation.CloudformationRulesDefinition"><path codeLine="39" d="M1703,133.76 C1703,153.39 1703,176.03 1703,196.69 " fill="none" id="org.sonar.api.server.rule.RulesDefinition-backto-com.hack23.sonar.cloudformation.CloudformationRulesDefinition" style="stroke:#181818;stroke-width:1.0;stroke-dasharray:7.0,7.0;"/><polygon fill="none" points="1696,133.51,1703,113.51,1710,133.51,1696,133.51" style="stroke:#181818;stroke-width:1.0;"/></g><!--MD5=[a0a45c0a895aca957ae22b311196540e]
reverse link org.sonar.api.Plugin to com.hack23.sonar.cloudformation.CloudformationPlugin--><g id="link_org.sonar.api.Plugin_com.hack23.sonar.cloudformation.CloudformationPlugin"><path codeLine="40" d="M2448,133.9 C2448,164.73 2448,202.92 2448,229.25 " fill="none" id="org.sonar.api.Plugin-backto-com.hack23.sonar.cloudformation.CloudformationPlugin" style="stroke:#181818;stroke-width:1.0;stroke-dasharray:7.0,7.0;"/><polygon fill="none" points="2441,133.51,2448,113.51,2455,133.51,2441,133.51" style="stroke:#181818;stroke-width:1.0;"/></g><rect height="11.6406" style="stroke:#00000000;stroke-width:1.0;fill:none;" width="186" x="1180.5" y="348"/><text fill="#888888" font-family="sans-serif" font-size="10" lengthAdjust="spacing" textLength="186" x="1180.5" y="357.2822">UMLDoclet 2.0.18, PlantUML 1.2022.6</text><!--MD5=[0bf73722cb7a0075d642f0c872b67c81]
@startuml
    namespace com.hack23.sonar.cloudformation {

        class CloudformationSensor [[CloudformationSensor.html]] {
            {static} +SENSOR_NAME: String
            +CloudformationSensor(CloudformationSensorConfiguration, FileSystem, PathResolver)
            +describe(SensorDescriptor): void
            +execute(SensorContext): void
        }

        class CloudformationSensorConfiguration [[CloudformationSensorConfiguration.html]] {
            +CloudformationSensorConfiguration(Configuration)
            +getCfnNagReportFiles(): Optional<String>
            +getCheckovReportFiles(): Optional<String>
        }

        class CloudformationQualityProfile [[CloudformationQualityProfile.html]] {
            +CloudformationQualityProfile(CloudformationRulesDefinition)
            +define(Context): void
        }

        class CloudformationRulesDefinition [[CloudformationRulesDefinition.html]] {
            {static} +KEY: String
            {static} +NAME: String
            +CloudformationRulesDefinition(RulesDefinitionXmlLoader)
            +getContext(): Context
            +define(Context): void
        }

        class CloudformationProperties [[CloudformationProperties.html]] {
            {static} +getProperties(): List<PropertyDefinition>
        }

        class CloudformationPlugin [[CloudformationPlugin.html]] {
            +define(Context): void
        }

        org.sonar.api.batch.sensor.Sensor <|.. CloudformationSensor
        org.sonar.api.server.profile.BuiltInQualityProfilesDefinition <|.. CloudformationQualityProfile
        org.sonar.api.server.rule.RulesDefinition <|.. CloudformationRulesDefinition
        org.sonar.api.Plugin <|.. CloudformationPlugin
    }

    namespace org.sonar.api.batch.sensor {
        interface Sensor {
            {abstract} +describe(SensorDescriptor): void
            {abstract} +execute(SensorContext): void
        }
    }

    namespace org.sonar.api.server.profile {
        interface BuiltInQualityProfilesDefinition {
            {abstract} +define(Context): void
        }
    }

    namespace org.sonar.api.server.rule {
        interface RulesDefinition {
            {abstract} +define(Context): void
        }
    }

    namespace org.sonar.api {
        interface Plugin {
            {abstract} +define(Context): void
        }
    }

    center footer UMLDoclet 2.0.18, PlantUML 1.2022.6
@enduml

PlantUML version 1.2022.6(Tue Jun 21 19:34:49 CEST 2022)
(APACHE source distribution)
Java Runtime: OpenJDK Runtime Environment
JVM: OpenJDK 64-Bit Server VM
Default Encoding: ANSI_X3.4-1968
Language: en
Country: US
--></g></svg>