<?xml version="1.0" encoding="UTF-8" standalone="no"?><svg xmlns="http://www.w3.org/2000/svg" xmlns:xlink="http://www.w3.org/1999/xlink" contentScriptType="application/ecmascript" contentStyleType="text/css" height="267px" preserveAspectRatio="none" style="width:618px;height:267px;" version="1.1" viewBox="0 0 618 267" width="618px" zoomAndPan="magnify"><defs><filter height="300%" id="f1osn860whdws9" width="300%" x="-1" y="-1"><feGaussianBlur result="blurOut" stdDeviation="2.0"/><feColorMatrix in="blurOut" result="blurOut2" type="matrix" values="0 0 0 0 0 0 0 0 0 0 0 0 0 0 0 0 0 0 .4 0"/><feOffset dx="4.0" dy="4.0" in="blurOut2" result="blurOut3"/><feBlend in="SourceGraphic" in2="blurOut3" mode="normal"/></filter></defs><g><!--MD5=[86c23535cef0a670b36a74106e524e06]
cluster com.hack23.sonar.cloudformation.reports.read--><polygon fill="#FFFFFF" filter="url(#f1osn860whdws9)" points="16,6,396,6,403,28.2969,596,28.2969,596,239,16,239,16,6" style="stroke: #000000; stroke-width: 1.5;"/><line style="stroke: #000000; stroke-width: 1.5;" x1="16" x2="403" y1="28.2969" y2="28.2969"/><text fill="#000000" font-family="sans-serif" font-size="14" font-weight="bold" lengthAdjust="spacingAndGlyphs" textLength="374" x="20" y="20.9951">com.hack23.sonar.cloudformation.reports.read</text><!--MD5=[8f220a6a0346e7faf0e4b2fe263cfc0a]
class com.hack23.sonar.cloudformation.reports.read.CfnNagReportReader--><a href="CfnNagReportReader.html" target="_top" title="CfnNagReportReader.html" xlink:actuate="onRequest" xlink:href="CfnNagReportReader.html" xlink:show="new" xlink:title="CfnNagReportReader.html" xlink:type="simple"><rect codeLine="3" fill="#FEFECE" filter="url(#f1osn860whdws9)" height="60.8047" id="com.hack23.sonar.cloudformation.reports.read.CfnNagReportReader" style="stroke: #A80036; stroke-width: 1.5;" width="253" x="32.5" y="41"/><ellipse cx="88.75" cy="57" fill="#ADD1B2" rx="11" ry="11" style="stroke: #A80036; stroke-width: 1.0;"/><path d="M91.7188,62.6406 Q91.1406,62.9375 90.5,63.0781 Q89.8594,63.2344 89.1563,63.2344 Q86.6563,63.2344 85.3281,61.5938 Q84.0156,59.9375 84.0156,56.8125 Q84.0156,53.6875 85.3281,52.0313 Q86.6563,50.375 89.1563,50.375 Q89.8594,50.375 90.5,50.5313 Q91.1563,50.6875 91.7188,50.9844 L91.7188,53.7031 Q91.0938,53.125 90.5,52.8594 Q89.9063,52.5781 89.2813,52.5781 Q87.9375,52.5781 87.25,53.6563 Q86.5625,54.7188 86.5625,56.8125 Q86.5625,58.9063 87.25,59.9844 Q87.9375,61.0469 89.2813,61.0469 Q89.9063,61.0469 90.5,60.7813 Q91.0938,60.5 91.7188,59.9219 L91.7188,62.6406 Z "/><text fill="#000000" font-family="sans-serif" font-size="12" lengthAdjust="spacingAndGlyphs" textLength="132" x="109.25" y="61.1543">CfnNagReportReader</text><line style="stroke: #A80036; stroke-width: 1.5;" x1="33.5" x2="284.5" y1="73" y2="73"/><line style="stroke: #A80036; stroke-width: 1.5;" x1="33.5" x2="284.5" y1="81" y2="81"/><ellipse cx="43.5" cy="92" fill="#84BE84" rx="3" ry="3" style="stroke: #038048; stroke-width: 1.0;"/><text fill="#000000" font-family="sans-serif" font-size="11" lengthAdjust="spacingAndGlyphs" textLength="227" x="52.5" y="95.2104">readReport(InputStream): CfnNagReport</text></a><!--MD5=[c2b3e8f2e2bf81389f746d74438a2913]
class com.hack23.sonar.cloudformation.reports.read.CheckovReportReader--><a href="CheckovReportReader.html" target="_top" title="CheckovReportReader.html" xlink:actuate="onRequest" xlink:href="CheckovReportReader.html" xlink:show="new" xlink:title="CheckovReportReader.html" xlink:type="simple"><rect codeLine="7" fill="#FEFECE" filter="url(#f1osn860whdws9)" height="60.8047" id="com.hack23.sonar.cloudformation.reports.read.CheckovReportReader" style="stroke: #A80036; stroke-width: 1.5;" width="259" x="320.5" y="41"/><ellipse cx="376.25" cy="57" fill="#ADD1B2" rx="11" ry="11" style="stroke: #A80036; stroke-width: 1.0;"/><path d="M379.2188,62.6406 Q378.6406,62.9375 378,63.0781 Q377.3594,63.2344 376.6563,63.2344 Q374.1563,63.2344 372.8281,61.5938 Q371.5156,59.9375 371.5156,56.8125 Q371.5156,53.6875 372.8281,52.0313 Q374.1563,50.375 376.6563,50.375 Q377.3594,50.375 378,50.5313 Q378.6563,50.6875 379.2188,50.9844 L379.2188,53.7031 Q378.5938,53.125 378,52.8594 Q377.4063,52.5781 376.7813,52.5781 Q375.4375,52.5781 374.75,53.6563 Q374.0625,54.7188 374.0625,56.8125 Q374.0625,58.9063 374.75,59.9844 Q375.4375,61.0469 376.7813,61.0469 Q377.4063,61.0469 378,60.7813 Q378.5938,60.5 379.2188,59.9219 L379.2188,62.6406 Z "/><text fill="#000000" font-family="sans-serif" font-size="12" lengthAdjust="spacingAndGlyphs" textLength="139" x="396.75" y="61.1543">CheckovReportReader</text><line style="stroke: #A80036; stroke-width: 1.5;" x1="321.5" x2="578.5" y1="73" y2="73"/><line style="stroke: #A80036; stroke-width: 1.5;" x1="321.5" x2="578.5" y1="81" y2="81"/><ellipse cx="331.5" cy="92" fill="#84BE84" rx="3" ry="3" style="stroke: #038048; stroke-width: 1.0;"/><text fill="#000000" font-family="sans-serif" font-size="11" lengthAdjust="spacingAndGlyphs" textLength="233" x="340.5" y="95.2104">readReport(InputStream): CheckovReport</text></a><!--MD5=[4d16e448843df6520db8fb4807ec93d3]
class com.hack23.sonar.cloudformation.reports.read.CfnNagScanReportReader--><a href="CfnNagScanReportReader.html" target="_top" title="CfnNagScanReportReader.html" xlink:actuate="onRequest" xlink:href="CfnNagScanReportReader.html" xlink:show="new" xlink:title="CfnNagScanReportReader.html" xlink:type="simple"><rect codeLine="11" fill="#FEFECE" filter="url(#f1osn860whdws9)" height="60.8047" id="com.hack23.sonar.cloudformation.reports.read.CfnNagScanReportReader" style="stroke: #A80036; stroke-width: 1.5;" width="319" x="32.5" y="162"/><ellipse cx="106.25" cy="178" fill="#ADD1B2" rx="11" ry="11" style="stroke: #A80036; stroke-width: 1.0;"/><path d="M109.2188,183.6406 Q108.6406,183.9375 108,184.0781 Q107.3594,184.2344 106.6563,184.2344 Q104.1563,184.2344 102.8281,182.5938 Q101.5156,180.9375 101.5156,177.8125 Q101.5156,174.6875 102.8281,173.0313 Q104.1563,171.375 106.6563,171.375 Q107.3594,171.375 108,171.5313 Q108.6563,171.6875 109.2188,171.9844 L109.2188,174.7031 Q108.5938,174.125 108,173.8594 Q107.4063,173.5781 106.7813,173.5781 Q105.4375,173.5781 104.75,174.6563 Q104.0625,175.7188 104.0625,177.8125 Q104.0625,179.9063 104.75,180.9844 Q105.4375,182.0469 106.7813,182.0469 Q107.4063,182.0469 108,181.7813 Q108.5938,181.5 109.2188,180.9219 L109.2188,183.6406 Z "/><text fill="#000000" font-family="sans-serif" font-size="12" lengthAdjust="spacingAndGlyphs" textLength="163" x="126.75" y="182.1543">CfnNagScanReportReader</text><line style="stroke: #A80036; stroke-width: 1.5;" x1="33.5" x2="350.5" y1="194" y2="194"/><line style="stroke: #A80036; stroke-width: 1.5;" x1="33.5" x2="350.5" y1="202" y2="202"/><ellipse cx="43.5" cy="213" fill="#84BE84" rx="3" ry="3" style="stroke: #038048; stroke-width: 1.0;"/><text fill="#000000" font-family="sans-serif" font-size="11" lengthAdjust="spacingAndGlyphs" textLength="293" x="52.5" y="216.2104">readReport(InputStream): List&lt;CfnNagScanReport&gt;</text></a><!--MD5=[9d909db2a5b70c9f01392a5cf970e0b0]
link com.hack23.sonar.cloudformation.reports.read.CfnNagReportReader to com.hack23.sonar.cloudformation.reports.read.CheckovReportReader--><!--MD5=[8b48eb7630f8d5bdeedaec4dc5c49d39]
link com.hack23.sonar.cloudformation.reports.read.CfnNagReportReader to com.hack23.sonar.cloudformation.reports.read.CfnNagScanReportReader--><text fill="#888888" font-family="sans-serif" font-size="10" lengthAdjust="spacingAndGlyphs" textLength="192" x="204" y="254.2822">UMLDoclet 2.0.12, PlantUML 1.2020.16</text><!--MD5=[4a136b896a9143260fe16854fe805d14]
@startuml
    namespace com.hack23.sonar.cloudformation.reports.read {

        class CfnNagReportReader [[CfnNagReportReader.html]] {
            +readReport(InputStream): CfnNagReport
        }

        class CheckovReportReader [[CheckovReportReader.html]] {
            +readReport(InputStream): CheckovReport
        }

        class CfnNagScanReportReader [[CfnNagScanReportReader.html]] {
            +readReport(InputStream): List<CfnNagScanReport>
        }

    }

    center footer UMLDoclet 2.0.12, PlantUML 1.2020.16
@enduml

PlantUML version 1.2020.16(Sun Aug 23 22:20:43 CEST 2020)
(APACHE source distribution)
Java Runtime: OpenJDK Runtime Environment
JVM: OpenJDK 64-Bit Server VM
Default Encoding: UTF-8
Language: en
Country: US
--></g></svg>